<?xml version="1.0" encoding="utf-8"?>
<!-- Generator: Adobe Illustrator 22.0.1, SVG Export Plug-In . SVG Version: 6.00 Build 0)  -->
<svg version="1.1" id="Layer_1" xmlns="http://www.w3.org/2000/svg" xmlns:xlink="http://www.w3.org/1999/xlink" x="0px" y="0px"
	 viewBox="0 0 300 300" style="enable-background:new 0 0 300 300;" xml:space="preserve">
<style type="text/css">
	.st0{fill:#FFFFFF;}
	.st1{fill:#232323;}
</style>
<path class="st0" d="M15.9,200.3l2.4-2.9l4.4-2.9l1.2-2.2l4.1-2.5l4.7-1.8l11-17.9l12.9-5l4.2-3.7l6.5-7.2l4.5-0.9
	c0,0,18.4-9.7,24.2-14.6l1.8,1.9l-1.8,4.3c0,0,4.7-1.3,9.2-4.2c4.4-2.9,9.7-9.4,9.7-9.4l-2.5,6l-1.1,5.8l2.8,4.8h11.5l59.5,5l-45,39
	l-32.3-7.6l9.5,31.8l-8.4-0.1l-0.1,1.1l2.3,3.5h-2.3l-2.6-2.1l-1.4,0.2L104,221c0,0,3,9,11.1,13.4l-19.5-7.3L89,228l-8.4-7.6
	l-2.8,2.9l-3.8-0.3c0,0-1.4-0.9-0.9,2.1s0.5,3,0.5,3l-4.5-7.5l-1.6-1.9l-1,1.8l-3.6-6l-1.2-1.3l2.3,8.2l-1.5-0.8l-2.1-4.3l0.6,6.6
	l-3.1-6.6l-0.6,3.8l-8.1-6.7l-15-17.8l-3.4,1.3C31.1,196.8,20.1,203.1,15.9,200.3z"/>
<title>Artboard 4</title>
<path class="st1" d="M135.4,219.4c0.7,1,1.3,2,2,2.9c1.6,2,3.2,3.9,4.9,5.8c1.2,1.3,2.5,2.5,3.7,3.9c-6.8-4.8-13.5-9.6-18-16.8
	c2.7,6.4,7,11.8,11.6,16.8c-1.1-0.6-2.2-1.3-3.4-1.9c-1.2-0.6-2.5-1-3.8-1.3l1.2,1l-0.2,0.3l-5.7-3l-0.1,0.1l4.5,4.1l-0.2,0.2
	l-5-2.7l-0.3,0.5l2.5,2.1c-2.4-0.9-4-3-6.3-4l-0.2,0.2l1.6,1.9l-0.1,0.2c-0.3-0.2-0.7-0.4-0.8-0.6c-1-2-2.9-2.9-4.8-3.9
	c-1.5-0.8-2.9-1.7-4.2-2.7l0.2-0.3l5.3,3l0.3-0.4c-0.9-1-1.9-2-3-2.8c-2.8-1.5-5.3-3.4-7.5-5.6c-0.2-0.2-0.5-0.4-0.8-0.5
	c0.1,0.5,0.3,0.9,0.5,1.3c1.5,2.1,3.1,4.1,4.8,6c2.9,3,6,5.9,9,8.8c0.9,0.9,2,1.7,2.8,2.7c-4-2.4-7.2-5.9-10.8-8.8l-0.2,0.2l3.2,5.2
	l-0.2,0.1l-2.3-1.9l-0.2,0.2l3.6,4.4l-0.2,0.2L105,219.5l-0.2,0.2l2.3,3.5l-0.2,0.2l-1.9-2.2l-0.3,0.2c0.2,0.4,0.4,0.8,0.7,1.1
	c0.8,0.9,1.1,2.3,2.6,2.6c0.3,0.1,0.3,1,0.6,1.8l-2-2.2l-0.2,0.2c0.7,2.4,2.6,4.1,4.3,5.9l-0.2,0.2c-0.4-0.4-0.9-0.7-1.3-1.1
	c-2-2-3.1-4.5-4.4-6.9c-1.3-2-2.8-3.9-4.4-5.6c-0.3-0.3-0.5-0.7-0.7-1.1l0,0c0.9,0.8,1.8,1.6,2.7,2.5c0.3,0.4,0.5,0.8,0.7,1.2
	l0.6-0.6c-0.5-0.9-1.1-1.8-1.6-2.6c-1.1-1.7-2.3-3.3-3.5-4.9c-0.8-1.2-1.5-2.5-2.2-3.8c-0.1-0.2,0.2-0.7,0.3-1l3.4,5.4l0.3-0.1
	l-1.8-4.2l0.3-0.2c0.4,0.5,0.8,0.9,1.1,1.4c0.2,0.7,0.9,1.2,1.7,1.2c0.6,0,1.4,1,1.8,1.7c1.3,2.5,3,4.7,5.1,6.6
	c0.5,0.5,1,0.9,1.7,1.2c-0.9-1.2-1.7-2.6-2.3-4c-0.8-2.7-3-4-4.8-5.7c-1.5-1.4-3.2-2.7-4.8-4.1c1.3,0.9,2.6,1.6,3.8,2.6
	s2.5,2.1,3.9,3.3c-0.1-0.4-0.1-0.8-0.3-1.1c-1.7-3.3-3.3-6.6-5.1-9.9c-0.8-1.2-1.8-2.3-2.9-3.3c0.5,0.1,1,0.4,1.5,0.6
	c0.6,0.4,1,1,1.4,1.6c1.6,3,3.2,6.1,4.8,9.2c1.1,2.1,1.8,4.4,3.9,5.8c1.2,0.8,2.4,1.7,3.6,2.5l0.2-0.3c-3.5-4.4-6.9-8.8-9.4-13.9
	c0.5,0.5,0.9,1.1,1.2,1.7c3.2,5,6.9,9.7,10.9,14c2.2,2.3,5.2,2.9,7.8,4.4l-3.6-5.3l0.3-0.2c1,1.4,2.1,2.9,3.2,4.3s2.1,2.9,3.9,3.5
	l-1.4-2.8l0.4-0.2l0.5,1.2c0.8,1.5,2.2,2.6,3.9,2.9c0.7,0.1,1.4,0.4,2,0.7c1,0.6,2,1.1,3.1,1.6c-0.2-0.6-0.5-1.1-0.9-1.5
	c-2.6-2.7-4.8-5.8-6.5-9.1c-1.4-2.4-2.6-4.8-3.7-7.3c-0.1-0.3-0.3-0.5-0.6-0.8c-0.7-0.8-1.4-1.5-2.1-2.3c-0.4-0.4-0.7-0.9-1.1-1.3
	l-0.2,0.1l0.4,1.3c-0.3-0.2-0.6-0.5-0.8-0.9c-0.5-1.2-1.2-2.4-1.9-3.6c-2.3-3-4.7-5.8-7-8.8c-0.1-0.2-0.1-0.4-0.2-0.6
	c-0.4-1.3-1.5-2.1-3.3-2l1.7,1.3l-0.1,0.1l-1.1-0.4l-0.3,0.2l2,3.2l-0.5,0.2l0.5,1.6c-2-2.5-2-2.5-4.7-3.3c1,5.7,3.2,11.1,6.6,15.8
	c-1.3-1.6-2.4-3.3-3.5-5c-1.7-3-2.9-6.3-3.4-9.8c-0.1-1-0.8-1.8-1.8-1.9c-1-0.4-2.1-0.7-3.2-0.9c-1.4-0.1-2.9-1.3-4.2-2.2
	c-1.3-0.9-2.7-1.5-4.2-1.8c0.4,0.2,0.7,0.4,1.1,0.6c0.7,0.3,1.4,0.7,2,1.2c0.4,0.3,0.4,1,0.8,1.3c1.6,1.3,3.3,2.5,5.1,3.9l-0.5,0.5
	v-0.4c-4.5-1.5-8.1-5-13-5.8l4,3.7l-0.3,0.3c-1.1-1-2.2-2-3.3-3.1c-2.3-2.2-5.1-1.3-7.7-1.3c0,0-0.1,0.1-0.1,0.2l7.6,3.1l-0.2,0.4
	l-3.8-1.3l-0.2,0.3l1.8,1.4l-0.1,0.2l-3.6-1.8c2.1,1.7,4.3,3.1,6.4,4.7c2.9,2.2,5.6,4.5,8.4,6.8c0.5,0.5,1,1.1,1.5,1.6
	c-1.2-0.8-2.5-1.6-3.7-2.5c-1.5-1.1-3-2.3-4.5-3.4c-0.3-0.2-0.7-0.3-1-0.3l0.4-0.9c-2.7-1.8-5.4-3.7-8.2-5.5
	c-1.1-0.8-2.3-1.5-3.5-2.1c-0.8-0.3-1.7-0.6-2.6-0.8c-0.5-0.3-1-0.6-1.4-1c-0.2-0.2-0.3-0.6-0.5-0.6c-1.7-0.3-3.5-0.6-5.2-0.8
	l-0.1,0.6l2.7,0.7l-1.8,0.4l3.7,2c0.2,0.4,0.5,0.8,0.9,1.2c3.2,2.6,6.3,5.1,9.5,7.7c0.3,0.2,0.5,0.6,0.5,0.9l-1.3-1
	c-4-3.3-8-6.8-12.9-8.8c-2.3-0.9-4.7-1.7-7.1-2.3c-0.8-0.1-1.6-0.1-2.4,0v0.4l9.9,2.7l-0.1,0.4l-11.7-2.5l-0.1,0.3
	c2.9,0.9,5.6,2.4,7.8,4.5c-4.3-2.4-8.8-4.7-13.9-5c-0.6,0-1.2,0.1-1.8,0.2l0,0.4l2.2,0.5l1.8,0.5l0,0c-0.5,0.1-1,0.2-1.5,0.2
	c-0.9,0-1.8,0-2.7,0l0,0.3l5.5,2.2c-2.2-0.2-4.2-1.4-6.6-1.2c1,1.2,2.4,1.2,3.7,1.6c2.4,0.5,4.6,1.4,6.7,2.6l-7.8-2.6l-0.2,0.4
	c2.9,2.5,5.5,5.1,5.8,9.3c-1-0.9-2-1.9-3-2.8c-1.6-1.3-3.2-2.6-4.8-3.8l-2.9-1.4c0.7,1.6,1.2,1.9,2.9,1.4l-1.9,0.8l3.6,5.3l-0.2,0.2
	l-1.1-1c-0.8,4.2,1.7,7.6,2.3,11.2l2-0.6L53,212l0.4-0.2l4.2,6.6l0.2-0.1l-1.2-5l0.4-0.1l3.1,7.1l0.3-0.1c-0.1-0.6-0.2-1.1-0.2-1.7
	c0.1-0.4,0.2-0.7,0.4-1l0,0c0.4,3.8,1.2,7.6,3.7,10.2L65,230c-3-3.6-4.4-8-6.6-11.9l-0.3,0.1c0.6,1.4,1.1,2.9,1.7,4.3
	s1.4,2.8,2.1,4.3l-1.2-0.5l-0.2,0.2l2,2.7l0.2-0.1l-0.2-0.9l0.2-0.1l0.7,1.4c-1.7,0.6-1.9-1.2-3.1-1.7l1,1.9l-0.3,0.2l-3.7-5.6
	l-0.3,0.2l1.7,3.3l-0.2,0.1l-4.3-6.5l-0.2,0.1l1.9,4c-0.9-1-1.8-2.1-2.6-3.2c-1.7-2.7-3.3-5.5-3.6-8.8c0-0.6-0.3-1.2-0.6-1.8
	c-0.6-0.8-1.6-1.4-2.2-2.2c-0.7-1-1.4-2-2-3c-0.7-1.1-1.2-2.2-1.8-3.3l-0.4,0.2l1.7,3.2c-0.9-1-1.7-2.1-2.5-3.2
	c-0.4-0.5-0.8-1-1.4-1.3c-1-0.6-2.1-1.2-3.2-1.7c0,0-0.1,0-0.3,0.1l0.4,0.6l-1.1,0.3l1.7,1.3l-0.8-0.2c-0.1,0.3-0.2,0.6-0.2,0.8
	c0.2,1,0.6,1.9,0.7,2.9s0.4,1,1.1,0.5c0.3,1.8,0.3,3.7,2.1,4.9c0-0.4-0.1-0.7-0.2-1.1c-0.8-2.3-1.7-4.6-2.5-6.9
	c-0.1-0.3-0.2-0.7-0.3-1c0.3,0.3,0.6,0.6,0.8,1c1.3,2.6,2.9,5.1,4.7,7.4c0.5,0.6,1.2,1.1,1.5,1.7c1,2.8,2.6,5.3,4.7,7.4
	c0.1,0.1,0.1,0.2,0.1,0.3l-0.8,0.2c0.9,1.4,1.5,3,3.5,3.7l-4-7.3c1.7,2.1,3.1,4.3,4.5,6.4c0.6,0.8,1.2,1.5,1.9,2.1
	c0.2,0.1,0.6,0,0.9-0.1l0.6,1c-1.5,0.2-2.2-0.7-3-1.5c-0.5-0.5-0.9-0.7-1.6-0.2l0.9,0.8c-1.3,0-1.7-0.4-2.5-1.7
	c-0.5-0.7-1.4-1.2-2-1.8c-0.8-0.8-2.2-1.1-2.3-2.6c0-0.1-0.1-0.2-0.3-0.2c-1.5-0.2-1.8-1.6-2.4-2.6c-0.4-0.6-0.8-1.2-1.2-1.8
	c-0.7-0.9-1.5-1.7-2.3-2.5c0.5,1.1,1,2.3,1.6,3.4c0.7,1.2,1.5,2.3,2.4,3.4c0.8,1,1.7,2,2.6,3l-0.2,0.3c-0.5-0.3-0.9-0.7-1.3-1.1
	c-1.4-1.8-2.8-3.6-4.1-5.4c-0.7-1.1-1.4-2.3-1.9-3.5c-0.3-0.6-0.1-1.4-0.3-2c-0.4-1.1-0.9-2.2-1.5-3.6l-0.6,1.5
	c-0.2-0.3-0.3-0.5-0.3-0.6c0.2-2.8-0.8-5.4-1.6-8c-0.2-1-0.3-2-0.4-3.1c0-0.4,0.1-0.7,0.3-1.1c0.4,0.4,0.5,0.9,0.8,0.9
	s0.6-0.3,1-0.6c0,1.8,0.7,3.1,3,2.3c-0.7-1.3-1.8-2.4-3.1-3.1l1.2-1c-1.6-0.4-4.1,0.6-4.5,1.9h0.8c-0.3,2.8-1.2,5.5,0.3,8.3l1-0.9
	c-0.6,1.9-0.3,4,0.8,5.7c1.7,3.2,3.2,6.4,4.8,9.6c0.1,0.5,0.2,0.9,0.2,1.4c-2-1.5-4.6-6.5-6.2-11.4c0,0.7,0,1.3,0,2
	c0.1,0.7,0.2,1.5,0.5,2.2c0.3,0.6,0.6,1.3,0.9,1.9c-2.3,0.4-1.1,1.9-1.3,3.1c-0.2-0.2-0.5-0.4-0.6-0.6c-0.3-1.3-0.6-2.7-0.9-4
	c-0.2-0.6-0.7-1-0.9-1.6c-0.4-1-0.7-2-1-3c-0.2-0.5-0.3-1.1-0.4-1.6c-0.4,0.4-0.9,0.8-1.1,1.4c-0.3,1-0.5,2-0.6,3l-0.5-1.9
	c-0.7,1.5-0.9,3.2-0.6,4.8c0,0.3,0.6,0.6,0.9,0.9c-1.4,0.4-2.2-0.1-2-1.7c0.3-2.1,0.9-4.3,1.4-6.4c0.1-0.2,0.3-0.5,0.2-0.7
	c-1-2.1-0.1-4.5-0.9-6.7v3.7h-0.3l-0.4-4.1c-2.4,0.7-4.5,1.4-6.7,1.9c-1.7,0.3-3.4,0.5-5.1,0.5c-0.3,0-0.6-0.2-0.8-0.4
	c0-0.3,0.1-0.7,0.3-0.9c1.7-2.6,4.1-4.6,6.9-5.9c0.6-0.2,1-1,1.5-1.6c1.4-1.8,3.3-3.1,5.4-3.9c0.3-0.1,0.5-0.5,0.7-0.8l-0.2-0.3
	l-2.2,1.2l-0.1-0.1c0.8-1.2,1.7-2.4,2.4-3.7s1.2-2.7,1.8-4l-0.3-0.2l-3.9,5.3l-0.2-0.1c0.4-0.9,0.7-1.9,1.1-2.8
	c0.5-1.2,1.1-2.4,1.7-3.6c0.7-1.5,1.4-3,2.3-4.4c1.1-1.7,1.2-2.6,0.8-4.7l0.8,1.4l1.9-2.6l0.6,1.3c1-1.3,1.2-3.1,2.3-4.3l0.4,0.2
	l-0.7,3.1l0.2,0.1l1.1-2.2l0.4,0.2l-2.6,6.7c4-4.7,7.6-9.7,10.6-15l0.3,0.2l-3.4,6.5l0.4,0.2c1-1.5,1.9-3.1,3-4.6
	c0.3-0.4,0.7-0.8,1.2-1.1c0,0.5-0.1,1.1-0.2,1.6c-0.1,0.5-0.5,0.9-0.6,1.4c2.5-2.3,5.4-4.3,8.4-5.9l-3.8,3.8l0.4,0.4
	c1.2-1.2,2.4-2.4,3.6-3.6c0,0-0.2-0.3-0.2-0.5c0.4-0.3,0.8-0.6,1.2-0.8c0.9-0.4,1.4-1.8,2.8-0.9c0.1,0.1,0.7-0.3,1-0.6
	c0.6-0.7,1.2-1.4,1.8-2c-0.7,1.1-1.4,2.1-2.1,3.2c-0.2,0.4-0.2,1-0.5,1.4c-0.3,0.4-0.6,0.8-1,1.1c-0.8,1.1-1.7,2.3-2.5,3.4
	c-0.1,0.1,0,0.4,0,0.6c0.2,0,0.4,0,0.5-0.1c0.9-0.9,1.8-2,2.6-3c0.6-0.9,1.1-1.9,1.6-2.9c0.2-0.3,0.5-0.6,0.7-0.9l0.3,0.2l-0.2,1.1
	c1.9-2.2,3.8-4.5,5.8-6.7c0.4-0.6,1-0.9,1.8-0.9c0.7,0,1.5-0.8,2.3-1.2l0.2,0.2l-1,0.4l0.2,0.3l1.1,0.1c-1.3,1.1-3.4,0.6-4.3,2.6
	c0.2,0,0.3,0.1,0.4,0.1c2.6-1.1,5.3-1.6,7.7-3.2s5.2-2.8,7.7-4.4s4.6-3.5,6.8-5.2c0.7-0.5,1.4-0.9,2.1-1.4s1.4-0.6,1.5-1.6
	c0-0.3,0.7-0.6,1.1-0.8c1.6-0.7,2.8-2.1,3.4-3.8c0.2-0.7,0.6-1.3,1-1.8l-0.6,2.6l0.3,0.1c1.3-0.9,2.7-1.7,4-2.6s2.5-1.9,3.8-2.9
	l0.3,0.4l-4.3,3.8l0.6,0.4c-3.8,2.6-3.8,2.6-4.4,6.3l1.1-1.3c1.5,0.2,3.4-1.7,4.1-3.4c0.3-0.9,0.7-1.8,1.2-2.6
	c0.7-0.6,1.4-1,2.2-1.3l0.1,0.3c-0.7,0.3-1.3,0.7-1.8,1.1c-0.4,0.6-0.7,1.2-1,1.8l0.3,0.2l0.9-1.2c-0.3,2.6-2.5,4-3.4,6.1l-0.3-0.1
	l-0.2-1c-0.1,0-0.2,0-0.3,0c-1.2,0.5-2.1,1.5-2.4,2.8c-0.2,0.8-0.8,0.6-1.2,0.9c-0.9,0.9-1.7,1.8-2.4,2.9l1.7-1l0.2,0.2
	c-0.2,0.3-0.5,0.6-0.8,0.8c-1.4,0.9-2.9,1.8-4.3,2.8c-0.9,0.7-1.8,1.5-2.6,2.4c-0.9,1.2-1.7,2.5-2.1,3.9c-0.2,0.3-0.3,0.6-0.6,0.9
	c-0.4-1.6,0.7-2.4,0.8-3.6l-2,1.8l0.5-1.2l-0.3-0.3l-5.2,4.2l-0.2-0.2c1.5-1.5,3-3.1,4.5-4.6c1-1,2.1-1.8,3.1-2.8
	c0.7-0.7,1.3-1.4,2.1-2.3c0,0,0.4,0.2,0.5,0c0.7-0.9,1.7-1.8,1.5-2.8l1.8-2.8c-2.9,1.2-4.8,3.4-6.9,5.4l0.2,0.2l1.6-0.7l0.2,0.2
	c-0.8,0.6-1.5,1.1-2.3,1.7c-2.2,1.6-4.4,3.2-6.7,4.8c-0.9,0.7-1.8,1.3-3,0.6c-0.2-0.1-0.7,0.1-1,0.2c-0.9,0.3-1.7,0.8-2.6,0.3
	c-0.2-0.1-0.8,0.2-1,0.5c-3.1,3.4-5.8,7-8,11c-0.4,0.6-0.9,1.2-1.5,1.7l0,0l2.1-4.3c-1,0.6-1.9,1.3-2.8,2c-0.8,0.7-1.8,1.6-2,2.5
	c-0.1,0.9-0.6,1.8-1.3,2.4c-0.1,0.2-0.2,0.4-0.3,0.6l0.3,0.2l0.5-1l0.3,0.3c-1.3,1.7-3.4,2.8-4,5c1.4-1.3,2.7-2.8,4.1-4.1
	c0.3-0.2,0.7-0.4,1.1-0.5l0,0c-1.4,1.7-2.8,3.4-4.3,5.1c-0.9,1-1.8,1.9-2.6,2.9c-0.4,0.6-0.7,1.3-1,1.9l-0.3-0.8l-2.4,2.6l-0.2-0.1
	l3.1-5.8l-0.2-0.2l-1.6,1.1c0.3-0.5,0.3-0.9,0.5-1c2.8-1.5,4.5-3.9,6.2-6.4c0.6-0.9,1-2,1.7-2.9c1.4-1.9,2.8-3.8,4.2-5.7
	c0.8-1.2,1.6-2.4,2.4-3.6l-0.4-0.2l-7.7,10.2l-0.4-0.2l0.8-1.6l-1-0.7c-0.7,0.7-1.5,1.5-2.2,2.2c-0.6,0.6-1.3,1.1-2.1,1.7
	c-0.4,0.1-0.8,0.2-1.1,0.5c-0.7,0.7-1.3,1.4-1.9,2.2c-0.9,1.2-1.8,2.5-2.7,3.7c-0.2,0.2-0.3,0.5-0.6,1l1.2-0.6l0.2,0.1
	c-0.3,0.4-0.5,0.7-0.8,1c-1.1,1.2-2.2,2.4-3.3,3.7c-0.2,0.3-0.2,0.8-0.2,1.2l0.3,0.2l-7.3,4.4l0.2,0.4c3-1.4,6-2.8,9.3-4.4l-2.2,3.8
	c0.5,0.1,1,0.1,1.6,0.1c2.5-0.2,5.1-0.3,7.6-0.7c2.1-0.4,4.2-0.1,6.3-0.3v0.4l-6,0.4v0.5H60v0.6c-2-0.2-4.1,0.7-6.1-0.5
	c-0.3-0.2-0.8-0.3-1-0.1c-1.3,1.4-3,1.3-4.6,1.3c-3.8,0.1-7.6,0.8-11.2,2c-2.7,0.8-5.4,1.8-8.1,2.7c-0.2,0.1-0.4,0.1-0.8,0.2
	l0.4-0.8c-0.1,0-0.3,0-0.4,0c-1.2,0.5-2.3,1.1-3.4,1.8c-0.5,0.4-0.8,1-0.9,1.6c-0.1,1.1-1,1.4-1.7,2c-1.6,1.2-3.2,2.3-4.8,3.5
	c-0.1,0.1-0.2,0.3-0.3,0.5c2.1,1.2,4.2,1.5,6.2-0.1c1.7-1.3,3.4-2.4,5.1-3.7c2.2-1.7,4.6-3.1,7.2-4c0.3-0.1,0.6-0.1,0.9,0
	c1.1,0.7,1.8,0,2.5-0.6c0.2-0.1,0.5,0,0.7-0.1c1.3-0.5,2.6,0.1,3.9,0.2c0.4,0,0.8,0.4,1.2,0.7l0.2-1.1c0.8,2,2.2,0.4,2.8,0.7l-2-0.1
	l0-0.4c0.7,0,1.5-0.1,2.2-0.2c0.6-0.2,1.1-0.5,1.4-1l-3.9,0.2c0.3-0.6,0.6-1.1,1-1.6c0.4-0.4,0.9-0.6,1.4-0.7
	c2.2-0.2,4.4-0.3,6.7-0.5c1.6-0.1,3.2-0.3,4.9-0.6c0.3-0.1,0.5-0.7,0.8-0.8c1.8-0.2,3.5-0.4,5.3-0.4c1.7,0,3.5,0.4,5.2,0.4
	c1.1-0.1,2.2-0.3,3.2-0.6v-0.4l-6.8-1.2c3.4-1.8,7.2-2.7,8.4-6.9l1.1,0.4l-1.1,0.8l1.2,0.2v2.1l3.2-1.6v0.1l-2.8,2.4
	c1,1.4,2.6,0.8,4.1,1.4l-8.4,0.9c1.8,1.1,5.1,1.1,6.6,0.2c2.5-1.5,5.3-1.2,8.2-1.3l-0.6-1.5c1.7,0.8,2.5-0.7,3.9-1l-2.8,2.3l0.1,0.4
	c0.8-0.3,1.7-0.5,2.5-0.8c0.4-0.1,0.8-0.4,1.3-0.6c2.1-0.8,4.2-1.6,6.3-2.2c3.2-0.9,6.4-1.8,9.6-2.6c4.5-1.2,9.1-2.5,13.6-3.6
	c4-1,8-1.9,12-2.9c0.8-0.3,1.5-0.8,2-1.5c1.9-2.3,3.7-4.6,5.3-7.1l-4.8,5.4l0.1-1.6l-3.7,4.2l-0.4-0.3c0.8-1.2,1.6-2.4,2.3-3.6
	c2.2-4.4,6.3-6.9,9.4-10.4c0.1-0.1,0.2-0.3,0.2-0.5c-1.5,0.5-2.4,1.8-3.6,2.8l-3.3,3.2l-0.3-0.3l5-5.1c-5.6-0.4-8.2,2.7-9.6,7.6
	l-0.3-0.3c0.4-1.1,0.7-2.2,1.2-3.6l-6,5.4c1-2.8,4.4-4,4.8-7.1l-0.4-0.3l-13.1,11.1l-0.2-0.2l6.9-9l-0.4-0.4c-3.2,2-4.5,5.7-7.2,8.2
	l2.6-5.6l-1.8,0.9c-3.9,2-7.6,4.3-11,7c-1.5,1.1-3,2.2-4.6,3.2c-0.3,0.1-0.5,0.2-0.8,0.2l0.1-0.9c-1.7-0.8-2.4,0.6-3.5,1.3
	c-0.3,0.2-0.7,0.4-1.1,0.5l-0.3-0.5c0.4-0.2,0.8-0.5,1.2-0.8c0.8-0.7,1.5-1.4,2.3-2.2l0,0c1-0.4,1.7-0.9,1.7-2.1
	c0.1-0.6,0.5-1.2,1-1.5c2-1.7,4-3.4,6-5.1c0.3-0.4,0.6-0.9,0.9-1.4c0.3-0.5,0.6-1,1.1-1.4c1.1-0.9,2.3-1.6,3.3-2.6l-3.7,1.5
	l-0.2-0.3c2-0.8,3.6-2.5,4.3-4.6c-0.3,0.1-0.5,0.2-0.7,0.3c-0.8,1-2,1.6-3.3,1.8c-0.7,0.1-1.4,0.9-2,1.5c-1.3,1.5-2.7,3-3.9,4.6
	c-0.3,0.4-0.2,1.1-0.2,1.7l0.3,0.1l-2.5,2.9l-0.2-0.1l2.6-5.9l-0.1-0.2l-4.1,3l-0.2-0.3l3.1-2.8l-1.4-0.1l4.3-4.4l-0.2-0.2l-13,11.7
	l-0.4-0.4l3.1-3.8c-0.7-0.4-1.8,1.2-1.8-0.9l-0.3,0.1l-6.1,8.2l-0.2-0.1l4-6c-1.4-0.1-2.7,0.6-3.4,1.8c-0.7,0.9-1.7,1.6-2.3,2.6
	c-1.3,2-2.3,4-3.6,6c0.5-2.6,2-4.8,3.2-7.2c-1,0.5-2,1.1-3,1.7c-1,0.7-1.8,1.6-2.8,2.4c0.2-0.3,0.4-0.6,0.6-0.9
	c0.4-0.5,0.8-0.8,0.5-1.6c-0.1-0.4,0.4-1,0.7-1.6l-6.7,5.3c0.3-1,0.6-1.7,1-2.9l-4,3l0.5-1.4c-2.4,1.1-3.8,3.2-5.5,4.9l0.7-2.1
	l-0.3-0.2l-4.9,3.8c0.3-0.7,0.7-1.4,1.1-2.1c1-1.5,2-3,3.2-4.4c1.5-1.7,3.2-3.3,4.8-4.9c0.5-0.5,1.1-1.1,1.6-1.6l3.8-3.9l0.3,0.2
	l-1.7,2.1c1.2,0.2,1.6-0.8,2.6-1.1c-0.4,0.6-0.7,1-1.1,1.4c-0.4,0.4-0.7,0.8-1,1.2c3.2-2.6,5.7-5.9,9.3-8c-1.2,1.3-2.4,2.6-3.7,3.9
	s-2.7,2.6-4,3.9s-2.4,2.7-3.6,4l0.3,0.5c0.5-0.2,1-0.4,1.4-0.7c2.1-2,4.2-4.1,6.4-6.1c1.3-1.2,2.7-2.4,4-3.6l0.2,0.2
	c-0.7,0.8-1.4,1.5-2.1,2.3c-0.5,0.6-0.9,1.2-1.4,1.8c-0.2,0.2-0.5,0.5-0.8,0.6c-0.9,0.8-2.2,1.3-1.6,3.1l3-3.4l0.1,0.3
	c0.4-0.1,0.8-0.1,1.1-0.3c1.2-1.3,2.4-2.6,3.6-3.9c0.5-0.7,1-1.4,1.5-2.1l0.4,0.4l-2.8,3.5c2.1-0.9,3.5-3.1,6.1-3.4l-3,2.5l0.1,0.5
	c0.3,0,0.9,0,1-0.1c0.7-1.2,2.2-1.3,3.1-2.2s2.2-1.8,3.4-2.7l-0.1-0.3l-1.8,0.7l-0.1-0.1c0.3-0.3,0.6-0.6,1-0.9
	c2.7-1.5,4.9-3.7,6.5-6.3c1.5-2.5,4.1-3.6,5.6-6c0.3-0.5,0.6-0.9,0.9-1.4c2-1.9,3.5-4.1,4.5-6.7c-1.6,1.9-3,4-4.4,6
	c-0.1,0.2,0,0.4-0.1,0.7l-1.8,1.5l-0.2-0.1l5.6-8.8l-0.3-0.2c-4.2,4.3-8.3,8.6-12.5,12.9l-0.2-0.1l0.3-0.8l-0.2-0.2l-2.9,1.9
	l-0.1-0.2l11.4-10.1l-0.2-0.3l-1.3-0.1l-0.1-0.2c1-0.6,2-1.2,3-1.8c0.2-0.1,0.6-0.4,0.6-0.5c-0.2-1.3,1-1.4,1.7-1.9
	c1.4-1.2,3-2.2,3.8-4.2c0.7-1.3,1.4-2.4,2.4-3.5l0.3,0.2l-1.6,3.2l0.2,0.2l3.2-2.5l0.2,0.2c-3.6,4.5-6.8,9.3-9.6,14.4l0.3,0.2
	l0.5-0.5c0.7-0.6,1-1.8,2.2-1.5c0.2,0,0.4-0.3,0.6-0.6c2-2.5,3.9-4.9,5.8-7.4c1.1-1.4,2.2-2.7,3.2-4c0.2-0.2,0.5-0.3,0.8-0.3
	l-2.9,4.2l0.4,0.4l1.4-1.8l0.2,0.2l-7.9,10.1l0.3,0.3c1.3-1,2.6-2.1,3.8-3.2c1.1-1.3,2.1-2.6,3.1-4c0.3,1.4-0.3,2.2-0.9,3.1
	c-1.8,3.1-3.5,6.1-5.2,9.2c-0.1,0.2-0.1,0.3-0.2,0.5c1.8-0.1,2.4-1.5,3-2.7c2-3.5,4-7.1,6-10.6c0.2-0.4,0.6-0.7,1-0.9
	c-0.7,3.4-3.2,6-4.5,9.1c4.3-5.3,6.5-11.7,9.3-17.7l0.3,0.2c-0.3,0.7-0.5,1.4-0.8,2.2c-0.6,1.6-1.3,3.2-1.9,4.8
	c-0.2,0.6-0.1,1.4-0.3,1.9l-2.1,5.4l0.4,0.2c0.7-0.7,1.3-1.5,1.9-2.3c1.6-3,3.1-6.2,4.8-9.2c0.6-1,1.3-1.9,2.1-2.8l0,0l1,0.8
	l3.1-5.5c-0.2,3.6-2.1,6.6-3.4,9.8l8.8-5.7h0.2l-1.7,2.5c2.1-1.2,3.1-4.1,6.1-4l-6.3,5.5l0.3,0.3c0.7-0.7,1.4-1.4,2.2-2
	c1.3-1,2.7-1.8,4.1-2.6c0.8-0.3,1.5-1,1.8-1.9c0.2-0.4,0.5-0.8,0.8-1.2l0.4,0.2l-1,2.2l1.4,0.1c0,0.1,0,0.1-0.1,0.2
	c-2.1,0-2.4,1.8-3,3.2c-0.3,0.7-0.6,1.4-0.9,2.2l0.3,0.2l2-2.2l0.1,0.1l-1.7,2.5l0.4,0.3l3-3.2l0.3,0.2l-0.7,1.8
	c2.2,1.1-0.5,1.9-0.2,3l2.8-2.1v0.1c-2.3,2.6-4.7,5.2-7,7.8l0.2,0.3c0.2-0.1,0.4-0.2,0.6-0.3c2.2-1.6,4.4-3.2,6.6-4.9
	c1.5-1.1,1.7-3.1,2.6-4.6c0-0.1-0.2-0.3-0.3-0.5l2.2-1.7l0.1,0.2l-1.6,2.9l0.4,0.3c0.6-0.7,1.2-1.4,1.7-2.2c1-1.5,1.9-3,2.9-4.6
	c0.4-0.6,0.7-1.2,1.1-1.7c0.3-0.3,0.5-0.5,0.8-0.7l-2.3,4.3l0.3,0.2c1-0.5,1.9-1.4,2.3-2.4c0.5-1,1-2,1.5-2.9l0.4,0.1
	c0,0.6,0,1.1-0.2,1.7c-0.4,0.8-1.1,1.4-1.6,2.1c-0.3,0.4-0.5,0.9-0.7,1.4c-0.4,0.8-1,1.6-1.3,2.5c-0.3,0.7-0.5,1.4-0.6,2.1l2.5,0.1
	c-0.6,0.3-1.1,0.6-1.6,1.1c-0.4,0.6-0.6,1.3-0.8,2l0.3,0.2l3.2-2.7l-0.3,1c1.1-0.6,2.1-1.1,3.1-1.6c0.9-0.6,1.8-1,2.8-1.4l-4.1,3.8
	c0.2-0.8-0.3-0.8-0.7-0.5c-0.8,0.5-1.5,1-2.1,1.7c-1.3,1.5-2.2,3.3-3.8,4.6c-0.9,0.9-1.7,2-2.4,3.1l0.6,0.6c0.2-0.5,0.5-0.9,0.9-1.4
	c1.2-1.5,3-2.3,4.1-4c1-1.4,2.2-2.8,3.4-4c-1.6,2.3-3.2,4.5-4.8,6.8c-0.3,0.5-0.9,0.9-0.5,1.8c0.1,0.2-0.6,1.2-1,1.4
	c-0.7,0.3-1,0.6-1,1.4c0,0.4-0.4,0.9-0.5,1.5c0.8-0.3,1.5-0.6,2.2-1c4.8-3.3,9.3-7.1,13.4-11.3c0.5-0.5,0.8-1.2,1.1-1.8
	c1-2.2,2-4.4,3.1-6.6s2-4,3-6l0.4,0.2l-5,10.1l0.3,0.2c1.4-1.4,2.5-3,3.3-4.7l0.4,0.3c-0.3,0.6-0.6,1.2-1,1.8c-1.4,2-2.8,4-4.3,6
	c-0.5,0.7-0.2,2.2-1.1,2.2c-1.5,0-1.9,1.3-2.8,2s-1.7,1.9-2.7,2.7c-1.2,1-2.6,1.8-3.9,2.6c-0.2,0.2-0.3,0.5-0.3,0.7l2.7-1.6l-1.1,2
	c2.7-2.1,5.4-3.7,6.7-6.5c0.5-0.2,0.9-0.4,1.4-0.7c1.6-1.8,3.2-3.6,4.9-5.5l-0.4,1.3l0.3,0.2c1.2-1.4,2.6-2.7,3.7-4.1
	c2.2-2.8,4.2-5.6,6.3-8.4c0.1-0.2,0.2-0.4,0.3-0.6c0.7-1.6,0.8-1.7,2.7-1.6l0,0c-0.4,0.6-0.9,1.1-1.2,1.7c-0.8,1.2-1.5,2.5-2.2,3.7
	c-0.1,0.1-0.1,0.2-0.2,0.3c-2.9,3.6-5.8,7.3-8.6,10.9c-0.7,0.7-1.3,1.6-1.8,2.4l3.6-2.2l0.1,0.2c-3,2-6,3.9-8.9,6s-6.2,3.6-8.5,6.6
	c3.9-1.9,7.8-3.9,11.8-5.7c3.9-2,8.1-3.3,12.4-3.9l-6.6,2.1l0.1,0.3c0.5-0.1,1-0.2,1.5-0.2c2.9-0.1,5.7-0.6,8.4-1.6
	c2.9-1.1,5.7-2.5,8.5-3.8l7.4-3.3c0.1,0,0.2,0,0.7,0.2l-9.9,4.8c5.2-0.9,9.9-3.2,14.4-5.8l-1.5,1.2l0.2,0.3l6.9-3.1
	c-7.4,4.8-15.3,8.6-23.7,11.4l0.1,0.3l3.8-1.1l0.1,0.3l-5.1,2.1l0.1,0.5c1-0.1,2-0.2,3-0.4c3.6-1,7.2-2.2,10.8-3.1
	c2.3-0.5,4.5-1.6,6.2-3.3c0.2-0.2,0.5-0.4,0.8-0.6c0.2-0.1,0.4-0.2,0.6-0.2l-10,9.3l0.3,0.4l7.5-6.6l0.3,0.3l-5.4,5.1l0.1,0.2
	l10.6-7.7l0.2,0.3l-13.3,10l0.2,0.3c0.9-0.5,1.8-0.9,2.6-1.5c2.2-1.4,4.5-2.7,6.7-4.1c2.5-1.6,4.9-3.4,7.4-5.1
	c0.5-0.3,1.1-0.6,1.7-0.9c-0.4,0.3-0.8,0.7-1.2,1c-2.8,2.1-5.5,4.2-8.3,6.2c-2,1.4-3.9,2.9-6,4.2c-1,0.5-2.1,0.9-3.2,1.1
	c-0.6,0.3-1.1,0.6-1.6,1c-2.6,1.7-5.2,3.3-7.6,5.1c-2.2,1.6-4.3,3.5-6.4,5.2c-0.7,0.6-1.4,1.1-2.2,1.8c0.2,0,0.4,0,0.5,0
	c3.3-1.6,6.4-3.6,9.2-6c0.2-0.1,0.1-0.6,0.1-1.2c3-0.5,5.3-2.6,7.8-4.5l0.2,0.3l-4.1,3.2l0.2,0.3c2.7-0.3,5.1-1.6,6.8-3.7
	c1.4-1.8,3.2-3.4,5.2-4.7c2-1.2,3.2-3.2,5.6-4c2.1-0.9,3.8-2.4,5-4.3c0.1-0.2,0-0.6,0-1l1-1.4l0.6,0.3l0.1,2l0.8-0.1l-2,1.8
	c0.5,0.9,1,1,1.6,0.2c0.9-1.2,1.8-2.4,2.8-3.5c3.4-3.5,6.2-7.6,8.1-12.1c0.2-0.9,0.4-1.8,0.4-2.7c0-0.4,0.2-0.8,0.3-1.1
	c1.4-2.2,1.7-4.8,2.1-7.3c0.4-3,0.9-6.1,1.3-9.1c0.1-1,0.3-2,0.5-3c0.1-0.3,0.2-0.5,0.4-0.8l0.4,0.1c0.1,0.4,0.1,0.9,0,1.3
	c-0.8,3-1.2,6.1-1.2,9.2c0,0.6,0.4,1.1,0.4,1.7s0.2,1.1-0.2,1.7s-0.3,1.6-0.5,2.4c-0.3,1.9-0.6,3.8-1,5.7c-0.3,0.7-0.6,1.3-1,1.9
	c-0.2,0.4-0.3,0.9-0.4,1.3c1-1.3,2.3-2.4,2.4-4.3c0.2-1,0.6-1.9,1-2.8c1.1-3.8,2.2-7.7,3.2-11.5c0.2,2.6-1.1,5.2-1.2,7.9
	c3.8-7,7.8-13.8,10.6-21.3l0.3,0.1c0,0.5-0.1,1-0.2,1.5c-1,2.4-2.1,4.7-2.8,7.1c-0.4,1-0.3,2.1,0.2,3c0.1,0.3,0.1,0.7-0.1,1
	c-0.9,1.2-0.7,2.3,0.5,3.3c0.2-0.7,0.4-1.3,0.6-1.9h0.3c-0.1,1-0.2,1.9-0.2,2.9l0.4,0.1c0.5-1.1,0.9-2.1,1.4-3.2
	c0.8-1.9,1.5-3.7,2.2-5.6c0.1-0.6,0.2-1.2,0.2-1.9l0.7,0.1V97l-0.8-0.7L258,105l0.4,0.2l2.3-3.7l0.3,0.1c-0.1,0.4-0.2,0.8-0.4,1.2
	s-0.6,0.9,0.3,1c0.1,0,0.1,0.3,0.2,0.4l-0.4,0.1c-0.2,0.1-0.6,0.1-0.7,0.2c-0.8,2.3-1.6,4.6-2.4,6.9l0.5,0.2c0.6-1.3,1.2-2.6,1.8-4
	l0.2,0.1c-0.4,1.1-0.7,2.2-1.1,3.3c-1.4,3.7-2.9,7.4-4.3,11.1c-2.2,5.8-3.8,11.9-7,17.2c-1,1.6-2.2,3.2-3.3,4.8
	c-0.2,0.3-0.4,0.7-0.5,1l0.2,0.2l1.8-1.2l0.2,0.2c-1.2,1.2-2.4,2.4-3.6,3.6c-0.3,0.5-0.6,1-0.8,1.6c-1,1.7-2.4,3.1-4.1,4.2
	c-2.2,1.7-4.6,3.1-6.8,4.7c-1,0.9-2,1.8-3,2.7l0.4,0.5l7.2-3.6c-3.5,3.3-8.1,4.4-12.2,6.3c3.3-0.5,6.5-1.6,9.5-3.2
	c5-2.9,10-5.8,14.9-8.8c1.3-0.7,2.5-1.7,3.6-2.8c1-1.2,1.8-2.5,2.5-3.9c0.1-0.2,0.2-0.4,0.5-0.5c-0.1,0.7-0.2,1.4-0.4,2.1
	c0.9-0.1,1.2-1.8,2.6-1c-1,0.9-1.9,1.8-2.9,2.7s-2.1,1.6-2.6,2.6c-1,2.1-2.8,3.3-4.1,5l5.3-2.6l0.2,0.4c-6.7,4.2-14.4,6.5-21.1,11.1
	c1-0.2,2.1-0.5,3.1-0.8c2-0.7,3.9-1.6,5.8-2.3c0.9-0.4,2-0.4,3-0.7c4.9-1.6,9.5-4.1,13.6-7.3c3.8-3,7.9-5.7,11.6-8.8
	c2.3-1.7,4.2-3.9,5.7-6.4c0.4-0.8,1.5-1.3,2.4-2c0,0.2,0,0.3,0,0.4c-1.8,2.6-3.6,5.1-5.7,7.6c-2.2,2.5-4.9,4.7-7.4,6.9
	c-0.8,0.8-1.7,1.4-2.5,2.2c0-0.3-0.1-0.5-0.1-0.8l-6.1,3.9c1.6,0.2,4.2-1.6,5.2-2.4c0.3-0.2,0.7-0.5,1.1-0.6
	c-1.1,1.5-2.6,2.8-4.3,3.6c-1.4,0.8-3,1.2-4.5,1.9s-2.7,1.6-4.1,2.2c-3.2,1.3-6.6,2.3-9.7,3.6c-2,0.9-3.8,2.1-5.5,3.5l21.7-8.1
	l0.1,0.2c-1,0.6-2.1,1.1-3.2,1.6c-4.4,1.8-8.9,3.5-13.4,5.1c-2.5,0.9-5,1.8-7.5,2.7c-1,0.4-2,0.8-2.9,1.4c-1,0.7-2.3,0.9-3.5,0.5
	c-0.4-0.1-0.8,0-1.2,0.1c-3.2,0.8-6.3,1.6-9.5,2.4c-0.3,0-0.7,0-1,0v-0.3l4.4-1.3c-1.3-0.7-4-0.5-4.6,0.4c-1.4,2.1-2.6,4.2-3.9,6.2
	c-0.6,0.7-1.2,1.3-1.9,1.9c-0.3,0.4-0.6,0.7-0.9,1.1l0.2,0.4c2.7,0.1,5.4,0.2,8.1,0.3c4.2,0.2,8.3-0.8,11.8-3
	c2.1-1.3,3.7-3.6,5.5-5.4c0.2-0.2,0.5-0.5,0.7-0.8l0.3,0.2l-3.5,4.8c1.3-0.6,2.8-1.3,4.2-2l0.1,0.3l-10.2,6c1,0.4,2.1,0.3,3-0.2
	c1.9-1,3.9-2,5.8-3l0.2,0.4l-10,5.6c4.4-1.4,8.1-4.2,12.4-5.9l-8.7,5.4l0.1,0.2l3.9-0.6l0.1,0.3c-5.9,3-12.3,5-18.8,6.1l4.8,1.1v0.2
	L200,192c1.6,1.6,3.7,2.5,5.9,2.7c2.4,0.2,4.9,0.2,7.3,0.4c0.8,0.1,1.6,0.4,2.3,0.6c0.3,0.1,0.5,0.1,0.8,0.1c0.6,0,1.2,0,1.7,0.1
	c-2.7,0.9-5.4,0.4-8.5,0.4c3,1.7,6,0.2,8.7,1.1l-5.1,0.5c2.3,1,4.5,0.6,6.8-0.3l0.1,0.4c-0.4,0.1-0.8,0.2-1.1,0.4
	c-0.4,0.2-0.8,0.5-1.1,0.8l2.9-0.7l0.2,0.3c-0.4,0.3-0.7,0.6-1.2,0.8c-2,0.7-3.9,1.2-5.8,2l2.2-0.2l0.1,0.3l-5.6,1.7v0.3h5.9v0.4
	c-7.7,0.8-15.3,0.1-22.9-1l-0.1,0.3c0.6,0.5,1.1,0.9,1.7,1.3c1.7,1,3.4,2.1,5.2,3c1,0.5,2.2,0.8,3.3,0.9c0.8,0.1,1.4,0.3,1.3,0.9
	l-4,2.3l0.1,0.4l4.3,0.4v0.2l-3.6,0.4l0.5,0.4v0.2l-8.2-1.8l-0.3,0.5c-2.8-2.4-5.7-4-7.2-3.9c1.8,2.4,3.6,4.7,5.4,7l-0.2,0.2l-6-5.4
	l-0.3,0.4l3.5,3.5l-0.2,0.3l-2.1-1.4c0.4,1.4,0.8,2.7,1.1,4l-0.2,0.1l-1-0.9l-0.2,0.1c0.3,0.7,0.6,1.4,0.8,2.2
	c-1.7-0.9-1.6-3.4-3.8-4.1l0.9,3.8l-2.3-2.9l-0.2,0.1l1.5,3.2c-2.4-2.2-3.9-5.1-5.9-7.6c1.4,3.4,3.9,6.2,5.9,9.2l-0.3,0.3
	c-0.4-0.3-0.8-0.7-1.1-1.1c-2.3-3.3-4.6-6.6-6.9-9.9c-0.2-0.3-0.4-0.5-0.8-0.6l5.1,8.6l-0.3,0.2l-4.2-5.7l-0.1,0.1l0.5,2.2l-1,0.2
	c-0.5-2-0.9-4-1.4-6l-0.4,0.1c0.2,2.5,0.5,5.1,1.8,7.3c0.8,1.4,1.9,2.6,2.3,4.2c0.1,0.4,0.7,0.6,1.2,1c-0.5,0.7-1.2,0.5-1.7-0.1
	c-1-1.2-1.8-2.5-2.7-3.8c-0.4-0.6-0.8-1.1-1.4-1.9l0.4,2.3l-0.1,0.1l-1.2-2.6l-0.5,1.6l-0.4,0.1l2.5,2.9c-1.1-0.1-2-0.3-2.6-1.2
	c-0.6-1.2-1.8-2.1-3.1-2.2c-0.4-0.1-0.7-0.3-1-0.6c-2.5-1.9-4.7-4.1-6.6-6.6c-0.6-0.7-1.2-1.3-1.9-1.8c2.1,4.1,5.7,7,8.6,10.4
	l-0.2,0.2l-2.6-3.1l-0.5,0.4l0.7,1.1l-5.1-3.7l-0.2,0.1l4.5,5.4h-0.9l0.2,1l-1.1-0.8l-0.3,0.3c1.3,1.4,2.6,2.8,3.9,4.2l-0.1,0.2
	l-6.4-5.3l-0.3,0.1l0.5,1.7c-2.3-2.4-3.1-5.7-5.7-7.4l-0.3,0.2l1.3,2l-0.9-0.3c0,0.4,0,0.7,0,1c0,1.1,0,2.3,0.1,3.4
	c0.1,0.5,0.3,1,0.6,1.5c0.8,1.9,2,3.5,3.6,4.8c1.1,0.9,1.1,2.2,2.1,3.2l-0.3,0.3l-2.6-1.4l-0.4,1l-1.1-0.6l0.5,1.6
	c-2.4-3.2-3.1-6.9-5.3-9.8l-0.5,0.3l4.1,7.7l-0.2,0.2c-0.4-0.2-0.7-0.4-1-0.7c-0.8-1-1.4-2.1-2.2-3.1c-0.3-0.3-0.7-0.6-1.1-0.8
	c-1.1-2-2.1-2.6-3.4-2.1l3.5,2l-0.4,1.7l2.2,2l-0.1,0.2c-0.5-0.3-1-0.6-1.5-1c-2.3-1.6-4.7-3.1-6.4-5.4c-0.4-0.5-0.9-0.9-1.4-1.2
	c-3-1.5-5.5-3.8-7.3-6.7c-0.5-0.7-1.1-1.4-1.7-2c-2.1-2.5-4.2-4.9-6.2-7.4c-0.3-0.4-0.8-0.7-0.2-1.2c0.1-0.1-0.2-0.5-0.3-0.7
	c-0.5-1-1-2-1.6-3c-0.3-0.4-0.7-0.8-1.2-1.1l-0.3,0.3l2.5,3.8l-0.3,0.2l-3.1-4.8l1.2-0.2c-0.7-1-1.4-1-2.6,0.1c0-0.5,0-1,0-1.5
	c0-0.4,0-1-0.2-1.1c-1.4-0.9-2.8-1.6-4.5-2.6c0.6,2.1,1.7,4.1,3.2,5.6c2.1,2.3,4.2,4.6,6.1,7.1c-2.9-1.9-5-4.8-7.4-7.4
	c0.6,3,2.3,5.7,4.8,7.4c1.3,1.1,2.5,2.2,3.6,3.5c1.2,1.3,2.4,2.6,3.7,3.8l-0.6-0.9c-0.2-0.3-0.5-0.6-0.5-0.9s0.4-0.6,0.7-0.9
	l1.2,0.4l-1.5,0.4c1,1.1,1.9,2,2.8,2.9c1.3,1.4,2.5,2.8,3.8,4.2l7.7,8.6c0.1,0.2,0.2,0.4,0.1,0.6c-0.9-0.8-1.9-1.5-2.8-2.4
	c-1.2-1.2-2.3-2.5-3.5-3.7c-0.4-0.3-1-0.3-1.5-0.5c0.4-0.3,0.6-0.6,0.2-1.1c-1.2-1.4-2.3-2.9-3.5-4.4c-0.2-0.3-0.5-0.5-0.7-0.7
	c-0.1,0.3,0,0.6,0.2,0.9C132.8,215.9,134.1,217.6,135.4,219.4z M181.2,212c0.1-0.2,0.3-0.4,0.3-0.5c-0.7-0.9-1.5-1.8-2.3-2.6
	l-0.4,0.3L181.2,212l1.5,2.9C182.7,213.6,182.4,212.4,181.2,212z M105.5,189.8l1.8,0.9c0.6-0.4,0.8-1.3,0.1-1.6
	c-1.1-0.5-2.1-1-3.2-1.4L104,188L105.5,189.8l-3-1.6l-0.2,0.3c1.2,0.9,2.2,2.2,4.3,2.2L105.5,189.8z M144.5,144.7l-0.8,1.8l0.4,0.3
	c0.7-0.7,1.2-1.9,2.1-2.1c1.2-0.4,1.3-1.2,1.4-2.1c-0.8,0.6-1.6,1.3-2.4,2C145.1,144.6,144.8,144.7,144.5,144.7l2.1-4.6l-0.3-0.1
	c-1.2,1.5-2.5,3-3.6,4.6c-0.1,0.1-0.1,0.6,0,0.7c0.3,0.1,0.6,0.1,0.9,0.1C143.8,145,144.2,144.8,144.5,144.7L144.5,144.7z
	 M114.3,195.1l-1.6-0.7c0.1,0.3,0.2,0.6,0.3,0.9c0.8,1.2,1.6,2.3,2.4,3.5c0.5,0.7,1,0.8,1.6,0.3C117.1,197.4,116,195.8,114.3,195.1
	l1.4,0.5c-1.4-2.2-2.9-4.1-5.6-5.1c0.2,1.2,0.9,2.2,1.9,2.8C112.9,193.8,113.6,194.5,114.3,195.1L114.3,195.1z M48.9,195.2l-4.4-0.7
	l2.2-0.4v-0.3l-3.3,0.3l-0.1,0.4c0.4,0.2,0.8,0.7,1.3,0.7C46.1,195.3,47.5,195.2,48.9,195.2l-1.9,0.9l8.4,6.2
	c-0.3-0.7-0.7-1.3-1.2-1.9C52.4,198.6,50.6,196.9,48.9,195.2L48.9,195.2z M127,198.2c2.1,2.2,4.2,4.5,6.3,6.7
	c0.7,0.7,1.4,1.4,2.1,2.1c0.7,0.6,1.5,1.2,2.2,1.7c-3.1-4.3-6.2-8.5-10.9-11.7C126.9,197.7,127,197.9,127,198.2l-2.1-1.8
	c-0.1,0.9,0.6,1.8,1.6,1.8C126.6,198.3,126.8,198.3,127,198.2z M211.4,150.7c-0.1,0.2-0.2,0.5-0.3,0.6c-1.9,1.2-3.9,2.4-5.8,3.7
	c-2.2,1.4-4.4,2.9-6.6,4.3l0.2,0.3c1.5-0.3,2.9-0.8,4.2-1.4c2.2-1.4,4.2-3.1,6.3-4.6c1.1-0.9,2.2-1.8,3.3-2.7l-0.2-0.3L211.4,150.7
	c2.2-1.5,4.5-3,6.7-4.6c1.1-1,2.1-2,3.1-3.1l-0.2-0.3c-1.1,0.3-2.2,0.8-3.2,1.4c-1.8,1.4-3.3,3.2-5,4.7c-0.6,0.5-1.3,1-2.1,1.4
	c-0.4,0.2-1,0-1.4,0.3c-1.4,1.1-2.8,2.4-4.2,3.6c1.1-0.5,2.1-1,3.1-1.7C209.3,151.8,210.4,151.2,211.4,150.7L211.4,150.7z
	 M39.6,175.9L39,175l-0.7,1c-0.2-0.1-0.4-0.2-0.6-0.3c-0.4,0.6-0.8,1.3-1.3,2.2c-0.2,0.1-0.6,0.5-1,0.7c-0.2,0.2-0.6,0.4-0.8,0.3
	s-0.3-0.5-0.4-0.8c-0.2-0.8-0.3-1.6-0.4-2.6c-0.7,0.8-1,1.9-0.6,2.9c0.1,0.3,0.2,0.5,0.1,0.8c-1,1.5-2,3-3,4.5
	c-0.3,0.4-0.5,0.9-0.7,1.4l0.2,0.2c0.8-0.7,1.6-1.5,2.5-2.2c1.1-0.9,2.2-1.7,3.2-2.5c-0.4,0.6-0.8,1.1-1.2,1.7
	c-0.9,1.2-1.9,2.3-2.9,3.5l0.1,0.1l7.3-4.7l0.3,0.4l-4.5,3.7l0.2,0.2c1.5-0.7,3-1.3,4.5-2.1c1.4-0.6,2.7-1.4,3.9-2.2
	c0.5-0.4,1.1-1.4,0.9-1.7c-0.6-0.9-1.3-1.8-2.2-2.5l-0.9,2.4h-0.1l0.2-1.7l-0.3-0.1l-0.6,2.5H40l0.2-2.8l-3.1,3.9l-1.4-0.5
	c0.2-0.2,0.5-0.4,0.5-0.6c0.2-0.9,0.8-1.1,1.7-1.3C39.2,178.4,39.9,177.1,39.6,175.9l0.8,0.5c0.6-1.5,1.1-2.9,1.6-4.2
	c0.1-0.5,0.2-1,0.2-1.4C40.6,171.9,39.6,173.8,39.6,175.9z M238.1,142c0,0.4,0.1,0.9,0,1.1c-1.5,1.6-3.1,3.1-4.7,4.7l0.2,0.3
	l2.6-2.4l0.2,0.2l-2.9,3l0.3,0.3c1.7-1.6,3.4-3.2,5.1-4.9c0.4-0.5,0.7-1,0.9-1.6c0.1-0.1-0.1-0.4-0.3-0.7l0.7,0.2
	c0.3-0.4,0.5-0.8,0.8-1.1c1.9-2.6,3.8-5.1,5.7-7.7c0.1-0.2,0-0.5,0-1c-1.1,1.6-1.8,3.2-2.9,4.2c-1.3,1.2-2.5,2.4-3.6,3.8
	C239.5,140.9,238.8,141.5,238.1,142c2.7-3.2,4.9-6.9,6.4-10.8l-0.7,0.2c2.7-2.4,4-5.7,5.7-8.7c-1.2,1.7-2.3,3.5-3.5,5.2
	c-0.3,0.3-0.6,0.6-0.9,0.8l-0.3-0.2c0.1-0.5,0.2-1,0.4-1.4c1.1-2.2,2.3-4.3,3.6-6.5c0.9-1.6,1.9-3.2,2.9-4.8
	c2.2-3.1,2.3-6.5,2.1-10.1c-1.5,4-3,8-4.5,12l-0.3-0.1l-0.1-0.8l-0.2-0.1c-1.7,4-3.4,8-5.1,12l0.6,0.2l-1.5,2.5l1-0.1
	c-1.1,1-2.1,2-2.9,3.2c-0.6,0.9-1.6,1.6-1.6,3c0,0.8-1,1.5-1.7,2.2c-0.8,0.9-1.7,1.8-2.5,2.6c-0.4,0.5-0.8,1-1.3,1.6
	C235.4,143.9,237,143.2,238.1,142z M170.2,185.9l2.9,2.9l0.3-0.4C172.7,187.1,171.5,186.2,170.2,185.9c0.2-0.1,0.5-0.2,0.8-0.2
	c0.5-0.1,0.9-0.1,1.5-0.1c1,1.5,3,2.7,3.7,2.2l1.9,1.8l-0.1,0.1l-3.4-1.4c2.1,3.8,5.9,4.9,9.2,6.8l0.2-0.3l-6-7.9l2.9,1
	c0.7,1.7,2.6,1.6,4.2,2.2c-0.2-0.4-0.6-0.7-0.9-0.9c-1.6-1-3.3-1.9-4.9-2.9c-3.6-2.1-7.1-4.3-10.7-6.5c-1.8-1.1-3.5-2.5-5.4-3.6
	c-1.6-0.8-3.2-1.4-4.9-1.9c-1.1-0.2-2.1-0.3-3.2-0.4V174l1.8-0.3c-1.9-0.4-3.8-0.7-5.8-0.8c-0.9-0.1-1.9-0.1-2.4-0.9
	c-0.6-1-1.4-0.8-2.2-0.8c-0.2,0-0.4-0.1-0.6-0.1c-1.7,0.1-3.4-0.3-4.9,0.9c-0.6-0.9-3.8-0.9-5.1-0.1l10.5,2.1v-0.1l-2.3-1l0.2-0.4
	c4.4,1.9,8.9,3.5,12.9,6.1c-0.4,0-0.8-0.1-1.1-0.2c-2.6-1-5.3-2.2-8-3.1c-1.4-0.4-2.8-0.7-4.3-0.9c-2.4-0.5-4.7-0.9-7.1-1.2
	c-2.1,0-4.3,0.1-6.4,0.3c0.5,0.4,1.1,0.7,1.7,0.8c2.7,0.3,5.5,0.5,8.2,0.9c5.6,0.7,10.9,3,15.2,6.6c2.2,1.9,3.9,4.4,5.8,6.6
	c0.1,0.1,0,0.2,0.1,0.4l-0.7-0.5c2.5,4.8,5.6,9.4,7.3,14.6c-0.3-2.2-0.7-4.4-1.1-6.6c-0.4-1.9-0.3-3.9-1.6-5.4
	c-0.3-0.4-0.6-0.9-1-1.5c1.4,0.6,2,0.2,1.8-1.2c-0.2-0.7-0.4-1.4-0.8-2c1,1.1,1.7,2.3,2.2,3.6c0.5,1.9,2.5,3.1,2.4,5.2
	c0,0.2,0.4,0.4,0.6,0.5l3.8,2.6l-0.1,0.2l-3.2-1.7l-0.2,0.4l9.5,5.8l-1.8-3c-0.1,0.1,0.2,0,0.2-0.2c0-1.2-0.6-2.4-1.6-3.1
	c-1.1-0.7-2.2-1.6-3.3-2.4c-0.2-0.1-0.1-0.5-0.2-0.8c0.2,0.1,0.5,0.2,0.7,0.3c0.4,0.2,0.7,0.5,1,0.8l0.2-0.2
	c-5.4-4.8-9.1-11-13.6-16.5c1,0.8,2,1.7,2.9,2.6C166.5,182.2,168.3,184.1,170.2,185.9L170.2,185.9z M135,175.4
	c-1.1,0.1-1.8,0.1-2.6,0.1c-1,0-2.3,0.3-2.9-0.2c-1.1-0.9-2.2-0.6-3.4-0.5c-0.4,0.1-0.8,0.5-1.3,0.8l9.7,1.5l-0.1,0.4
	c-1.2-0.2-2.4-0.5-3.7-0.6c-2.6-0.3-5.2-1.1-7.8,0.1c-0.4,0.2-0.8,0.5-1.2,0.9c-0.3-0.1-0.6-0.1-0.9,0c-0.2,0.1-0.6,0.6-0.5,0.7
	c0.5,0.8,1,1.6,2.2,1.6c2.8,0,5.5,0.6,8,1.7c0.6,0.3,1.2,0.8,1.7,1.2c0.2,0.2,0.6,0.1,0.9,0.2c0.9,0.4,1.6,1,2.4,1.5
	s1.6,0.9,2.5,1.4l0.2-0.3l-0.8-1.6c1.2,1,2.4,2.1,3.8,3.2c4,3.3,8,6.6,12.1,9.9c0.3,0.2,0.6,0.4,1.2,0.9l-0.4-1.6
	c0.4,0.1,0.7,0.3,0.9,0.7c1,1.6,2,3.2,3.1,4.7c0.6,0.8,1.3,1.5,1.9,2.2c1.2,1.5,2.3,3.1,3.4,4.6s2.3,3.2,3.5,4.8
	c0.9,1.2,1.9,2.4,2.9,3.6l0.3-0.2c0-0.4,0-0.7,0-1.1c-0.9-4.2-1.8-8.4-2.9-12.6c-0.5-1.9-1.2-3.6-2.1-5.3c-2-3.5-4.1-7-6.2-10.4
	c-2.1-3.5-5.1-6.4-8.7-8.4c-3.7-2-7.8-3.2-11.9-3.5c-1.4,0-2.9,0.1-4.3,0.3L135,175.4z M136.6,170l6.4-1.1c1.2-0.2,2.3-0.4,3.5-0.7
	c0.5-0.2,0.9-0.4,1.3-0.7c2.7-1.1,5.7-1.1,8-3.1c1.8-1.6,3.7-2.9,5.6-4.3l-0.1-0.2l-1.6,0.1c1.5-0.5,2.9-1.1,4.3-1.9
	c2-1.3,3.8-2.8,5.8-4.1c2.8-1.9,5.8-3.5,8.6-5.4c1-0.7,2-1.5,2.9-2.4L181,146c-0.1,0-0.3,0-0.4,0c-2.3,0.9-4.7,1.7-7,2.7
	c-2.8,1.2-5.7,2.1-8,4.2c-2,1.8-3.9,3.8-6.5,4.6s-4.4,3.1-7.3,3.8c-1.9,0.4-3.5,1.8-5.3,2.7c-0.3,0.2-0.6,0.3-0.9,0.4
	c-2.4,0.7-4.7,1.6-6.4,3.4c-0.2,0.2-0.4,0.4-0.6,0.4c-1.2-0.6-1.7,0.7-2.6,0.9L136.6,170z M173.9,158.4c0.2,0,0.4,0,0.5-0.1
	c0.3-0.1,0.6-0.3,0.8-0.5c2-1.8,4.4-3,7-3.7c1.7-0.5,3.4-1.1,5.1-1.8c2-0.9,3.8-2.1,5.7-3.2c0.3-0.1,0.6-0.3,0.9-0.4l0.1,0.2
	l-5.4,3.9l0.2,0.2c2.1-1.6,4.7-2.4,6.5-4.6l-0.6-0.2l0.3,0.2c1.5-1.2,2.9-2.5,4.4-3.7c0.4-0.3,0.8-0.5,1.2-0.6
	c0.6-0.2,1.2-0.5,1.7-0.8c0.5-0.4,1.1-0.9,1.5-1.4l0.2,0.7l9.5-7.8c-6.7,2.7-13.5,4.9-20.5,7l2.5-0.3l0.1,0.3
	c-3,0.9-6.1,1.6-8.7,3.6s-5.4,3.5-8.1,5.2l0.2,0.3l8-3.7v0.7l5.7-3.9l0.2,0.3c-0.3,0.3-0.6,0.6-0.9,0.8c-4.9,3.3-9.8,6.6-14.6,9.9
	C175.8,156,174.7,157.1,173.9,158.4L173.9,158.4z M114.3,188.7c-0.2,1.3,0.6,1.9,1.4,2.4c1.1,0.7,2.3,1.4,3.5,2.1
	c1,0.6,1.9,1.2,3,1.9l-0.6-3.1l0.3-0.1c0.3,0.7,0.6,1.5,0.9,2.2s0.3,1.7,1.8,1.4L121,190c1.1-0.4,0.1-1,0.1-1.5
	c0-0.2-0.1-0.5-0.1-0.7l0.4-0.1c0.8,3.2,2.4,5.8,5.6,7.1l-0.7,0.5l4.4,3.3l0.3-0.3c-0.7-1.3-0.6-3.2-2.8-3.4l1.9-0.2l-4.5-5.6
	l0.2-0.3l7.4,3.8c0-0.2,0-0.5-0.2-0.7c-1.6-1.6-3.4-3.2-5.2-4.6c-1.5-1.3-3.3-2-5.2-2.2c-0.6,0-1.2-0.2-1.2,0.7
	c-0.8-0.2-1.6-0.4-2.4-0.7c-0.7-0.4-1.5-0.8-2.1-1.3l0.1-0.2l1.8,0.5l0.1-0.3l-5.4-2l-0.1,0.3l2.3,0.9l-0.1,0.3
	c-2.2-0.6-4.4-1.4-6.8-0.8l0.7-1.1l-0.1-0.2l-3,1.2c0.9,0.9,1.8,1.4,3,1c0.4-0.1,0.9-0.1,1.2,0.2c1,1.2,2.5,1.9,4.1,1.8
	c0.4,0,0.7,0.2,1,0.3c1.5,0.7,3,1.4,4.5,2.2l-0.3,0.1l0.7,1.4c-1.1-0.7-2.3-1.4-3.5-1.9c-1.3-0.5-2.6-0.9-4-1.2l-0.2,0.3l5.7,4.2
	l-0.1,0.2L114.3,188.7z M184,176l0.1-0.4l4.8,1.7c-0.2-0.3-0.5-0.5-0.9-0.7c-2.8-1.4-5.6-2.7-8.3-4.2c-1.9-1.1-2.7-1.2-4.4,0l0.2-1
	l-4.1-0.9l0.1-0.4l2.3,0.3c-1.4-1.2-3.3-1.4-4.9-0.7c-1.5,0.6-2.6,2-4,3.3c4,2.2,6.9,5.8,11.3,7.1c-3.2-2.3-4.7-5.9-6.6-9.1
	c0.6,0.4,1.2,0.8,1.7,1.3c1,0.9,1.9,1.7,2.9,2.6c2.3,2.1,5,3.7,7.9,4.9c2.1,0.9,4.3,1.3,6.5,1.2l-5.9-2.9l0.1-0.4
	c0.2,0,0.4,0,0.6,0.1c2.2,0.7,4.5,1.3,6.7,2.1c0.9,0.3,1.7,0.3,2.1-0.8C189.6,177.9,186.4,177.9,184,176z M110.7,180.7l0.1,0.4
	c2.9-0.4,5.3,0.7,7.6,2.2c1.2,0.7,2.2,1.7,3.8,1.1c0.4-0.1,0.9,0,1.3,0.2c0.8,0.2,1.7,0.4,2.5,0.6l0.2-0.5c1.4,1.1,2.8,2.2,4.2,3.3
	s2.6,2.2,3.9,3.4l0.4-0.4l-2.1-2.3l0.2-0.3l5.5,4.2l0.2-0.2c-0.2-0.3-0.4-0.6-0.6-0.9c-1-1.1-2-2.1-2.9-3.3c-1.9-2.5-4-4.6-7.1-5.6
	c-1.5-0.5-3-0.9-4.5-1.4l-0.1,0.3l0.7,0.8c-3.1-1.6-6.6-1.5-9.8-2.2C113,179.7,111.8,180.4,110.7,180.7L110.7,180.7z M164,160.7
	l3.6-3.5l-0.2-0.2l-10.8,7.5l0.2,0.5l8.4-3.1l0.1,0.2l-2.1,1l0.1,0.2l3.6-0.6l-1,0.8c0.3,0,0.6,0,0.9,0c1.7-0.2,3.4-0.5,5-0.9
	c0.8-0.3,2.1-0.2,2.3-1.5c0-0.1-0.1-0.1-0.1-0.2l-0.4,0.4l-0.2-0.1l1.3-1.9l-1.5-0.1l-0.4-1.8l-1.2,0.2l0.7,0.8l-4.9,2.8
	c0.5-0.8,1-1.6,1.6-2.4c0.2-0.3,0.3-0.7,0.6-0.9c0.9-0.6,2-1.2,2.9-1.8c1.4-0.9,2.8-1.9,4.1-2.9l0.2,0.2l-2,1.7
	c2.3-0.9,4.3-2.3,5.8-4.2c-0.2-0.1-0.4-0.1-0.6,0c-3.9,2.1-7.7,4.2-11.5,6.4c-0.3,0.2-0.4,0.7-0.6,1.1L164,160.7z M189.9,160.7
	c1.4-0.1,2.5-0.1,3.6-0.2c1.5-0.2,3-0.7,4.3-1.6c1.5-0.9,2.4-2.4,3.7-3.4c0.6-0.5,1.2-1,1.8-1.5c1.3-1.1,2.6-2.3,3.9-3.4l3.7-3.2
	l-0.3-0.4l-4.7,3.3v-0.8c-2.8,1.7-5.4,3.4-8.2,5c-1.2,0.8-2.4,1.4-3.7,2c-1.2,0.5-1.9,2.4-3.6,1.4l-4.9,2.6c2.1,0.9,3.5-0.4,5.1-1.2
	L189.9,160.7z M170.8,148.9c0.4,0,0.7,0,1.1-0.1c3.5-1.3,7-2.4,10.4-3.9c4.1-1.7,8.4-2.8,12.1-5.3c0.9-0.6,1.9-1.2,2.9-1.8l-0.1-0.3
	c-0.4,0-0.8,0.1-1.2,0.2c-2.5,0.9-5,1.7-7.4,2.7c-1.6,0.8-3.1,1.6-4.6,2.6c-0.3,0.1-0.6,0.2-0.9,0.3l1.6-1.5
	C182.7,140.5,173.2,145.3,170.8,148.9L170.8,148.9z M167.5,169.5c-0.6-0.1-1.1-0.1-1.3-0.3c-0.9-1.3-2-1-3.1-0.7s-2.1,0.7-3.1,1.1
	l-0.1-0.3l2.6-1.3c-2-0.4-4,0.4-5.6-1c0,0-0.1,0-0.2,0.1l-7.3,1c-0.6,0.1-1.2,0.2-1.8,0.3v0.3l3.4,0.5c1.1,0.1,2.2,0.3,3.3,0.5
	c3,0.8,6,1.7,9.1,2.5c0.4,0.1,0.9,0.2,1.1,0C165.3,171.4,166.3,170.4,167.5,169.5L167.5,169.5z M140.6,135l0.3,0.2l6.2-5.2l0.3,0.3
	l-5.6,5.2c5-3.3,9-7.4,10.3-13.7c-2.4,0.6-3.7,2.4-5.6,3.8l1.3,0.1c-1.4,1.2-2.8,2.3-4.1,3.5c-0.6,0.6-1.5,1.5-1.5,2.2
	c0.1,0.6-0.1,1.3-0.6,1.8C141.3,133.7,141,134.3,140.6,135z M121.1,136.7c-1.2,0.8-2.2,1.7-3.2,2.8c-1.2,1.4-3,2.3-3.7,4.2
	c-0.1,0.2-0.5,0.4-0.8,0.5c-0.5,0.2-0.9,0.4-1.3,0.6c-0.5,0.5-1,1.1-1.4,1.7l-0.2-0.2l2.6-3.6c-1.9,1.7-4,3.3-4.9,5.8l0.2,0.2
	l1.5-1.4l0.8,0.9l2.5-3.4l0.2,0.1l-1.2,1.9l0.3,0.2C115.5,143.6,119.1,140.9,121.1,136.7L121.1,136.7z M150.2,147.4
	c-2.2,0.3-3.8,0.4-6.7,3.9l-0.4-0.6c-0.5,0.4-1,0.8-1.5,1.2s-0.9,0.8-1.3,1.1l0.3,0.4C144.6,152.8,148.5,151.8,150.2,147.4
	L150.2,147.4z M181.6,165.9c-2.9-1.2-8.5,0-9.4,2.2c1.6,0.1,3.2,0.2,4.7,0.4C178.9,168.8,180.8,167.7,181.6,165.9L181.6,165.9z
	 M99.6,181.3c-2.2-0.5-7.3,0.4-8.7,1.6c2.5-0.3,4.8,1.5,7.1,0c0.5,1.5,3.8,2.3,5.1,1l-3.8-1.8L99.6,181.3z M191,170.7
	c-4.1-0.9-8.3-1.1-12.5-0.6c0.3,0.5,0.8,0.8,1.4,1c1.6,0.3,3.2,0.5,4.8,0.7C186.9,172.1,189,172.3,191,170.7z M220,155.8
	c3.4-0.3,14.4-8.6,15.1-11.3c-3.1,1.4-5.4,3.6-7.9,5.6l0.2,0.2l1.2-0.2l0.1,0.4L220,155.8z M44.8,203.8l-0.6,0.6l5,6.9l0.4-0.2
	c-0.5-0.8-0.8-1.6-1.1-2.5c-0.3-1.6-0.2-3.2-0.6-4.8s-0.8-3.1-2.5-4.3l0.9,3.8l0.9,1.5l-0.6,0.8L44.8,203.8z M72.5,187.4
	c3.6,2.5,8,3.3,12.3,2.4c-2.5-2.1-5.4-1.3-8.4-1.3l1.4-0.8v-0.2H72.5z M198,196.5c0.4,0.3,0.8,0.5,1.2,0.6c3.2,0.8,6.4,1.7,9.6,2.4
	c2.1,0.4,4.3,0.7,6.4-0.5L198,196.5z M143.3,196.3c-0.3-2.8-1-5.3-3.7-6.6c-0.1-0.1-0.2-0.2-0.4-0.3c-1.4-1-2.9-1.9-4.4-2.9
	l-0.2,0.2L143.3,196.3z M104.5,194.3c0.2-2.6-0.3-3.3-2.6-3.8c-1-0.2-2-0.4-3-0.6c0.5,0.5,1.1,0.9,1.7,1.3c0.6,0.3,1.1,0.6,1.7,1
	l-0.2,0.3c-2.7-1.5-5.6-2.7-8.5-3.5l-0.2,0.4L104.5,194.3z M159.9,213.4c-1.4-3-9.2-12.7-11.1-13.8
	C151.9,204.6,155.6,209.2,159.9,213.4L159.9,213.4z M96.1,159.7l0.1,0.4c0.5-0.1,1-0.3,1.5-0.6c1.3-1.1,2.5-2.3,3.8-3.4l3.2-2.9
	c0.8-0.8,1.7-1.5,2.5-2.3c0.1-0.1,0-0.4,0.1-0.8c-1.1,0.6-2.1,1.3-3.1,2c-2.7,2.3-5.2,4.7-7.8,7.1C96.2,159.4,96.1,159.5,96.1,159.7
	z M146.2,142.1l0.4,0.4l10-10.5l-0.3-0.3C152.4,134.5,148.7,137.7,146.2,142.1z M187.6,168.9c2.9,1,5.8,1.8,8.6,0.2
	c0.4-0.2,0.5-0.7,0.8-1.1l-0.2-0.2c0.2,0,0.3-0.1,0.4-0.1c0.1-0.1,0.2-0.2,0.3-0.3l-0.1-0.3L187.6,168.9z M148.6,194.1
	c-0.2,0.9,0.1,1.9,0.8,2.5c2.4,2.2,4.7,4.5,7.1,6.8c0.3,0.2,0.6,0.5,0.9,0.6C155.7,199.5,151.9,197.1,148.6,194.1z M45.7,177.2
	l0.5,0.3c1-1.2,1.8-2.4,2.6-3.7c1-2.3,3.9-3.9,2.8-7.3l-2.1,2.6l0.3,0.2l1-0.6l-2.3,3.7l-0.8-0.7L45.7,177.2z M184.9,166.2l-0.1-0.3
	l-2.2,0.4l0.3,0.6c-0.2,0.3-0.4,0.5-0.6,0.8c0,0,0.1,0.1,0.2,0.2l0.8-0.2c0.1,0.3,0.1,0.7,0.3,0.7c1.1,0.3,2.2,0.8,3.3,0.2
	c0.5-0.2,1-0.3,1.5-0.4l3.5-1l-0.1-0.4h-7.8l0,0L184.9,166.2z M44.7,178.6c0.4-4.3,2.4-7.9,4.8-11.3c-0.6,0.1-1.3,0.1-1.5,0.5
	c-1.5,2.5-2.8,5-4.2,7.6C43.2,176.6,43.6,178,44.7,178.6z M147.4,156l-0.3-0.3c-4,3.4-6.8,7.8-10.1,11.7c0.7-0.3,1.3-0.7,1.9-1.1
	c1.1-0.6,2.3-1.1,2.2-2.8c0-0.2,0.3-0.4,0.4-0.6C143.5,160.7,145.4,158.3,147.4,156z M189.8,172v0.4h6.3l-0.6-0.9
	c1.5,1,2.7-0.3,3.7-0.3l2-1.8c-2.2-0.2-4.5,0.5-6.1,2c-0.2,0.1-0.4,0.1-0.6,0.1L189.8,172z M158.3,203.5l-0.3,0.2
	c1.3,2.1,2.6,4.2,3.8,6.3c1.2,2.1,2.9,3.8,5,5.1L158.3,203.5z M118.8,222.3c2.7,2.6,5.1,5.7,9.3,6.6
	C125.6,225.5,122.2,223.9,118.8,222.3z M228.5,133.5l-0.6-0.3l-6.7,7.3c0.4-0.1,0.8-0.2,1.2-0.4c2.6-0.9,4.2-2.9,5.7-5
	C228.3,134.6,228.4,134.1,228.5,133.5L228.5,133.5z M94.7,142.8L95,143c0.6-0.4,1.2-1.1,1.8-1.1c1.5,0,1.7-1.1,2.1-2s0.7-1.8,1-2.8
	c0.1-0.3,0.1-0.7,0.2-1l-0.4-0.2C97.5,137.9,96.2,140.4,94.7,142.8z M177.4,195.4l0.6-0.4c-0.5-1-1.2-2-1.9-2.9
	c-1.4-1.4-3.1-2.6-4.6-4l-2.1-1.9l-0.3,0.3L177.4,195.4z M193.1,199.1c-3.5-1.4-5.9-4.6-9.4-5.9c0.9,1.6,1.6,3.2,3.4,3.8
	c1.5,0.5,3,1.1,4.5,1.6C192.1,198.8,192.6,198.9,193.1,199.1z M251.6,120.7c-3.1,5.3-6.1,10.5-9.2,15.7
	C244.5,134.9,251.4,122.7,251.6,120.7z M108.2,177.4c-3.7,0-7.3,0.8-10.5,2.6C101.4,180.3,104.7,178.4,108.2,177.4z M142.8,163.8
	c3.8-1.6,6.4-4.8,9.7-7.1c0.3-0.2,0.6-0.4,1-0.6l-0.4-0.4C149.6,158.4,145.4,160.1,142.8,163.8z M167.2,141.3
	c-1.8,0.5-3.8,0.6-5.2,2.3c0.1,0,0.3,0.1,0.4,0.1c0.1,0.1,0.1,0.2,0-0.1l-3.9,3.2l0.2,0.3C161.8,145.6,164.7,143.6,167.2,141.3z
	 M85.2,184.5c2.6,0.9,5.4,0.8,8-0.2c-2.5-0.8-4.8-1.2-7.2-0.5C85.8,183.9,85.5,184.3,85.2,184.5L85.2,184.5z M120,203.5
	c1.7,3.7,4.4,6.4,7.3,9.2c0-0.7-0.3-1.4-0.7-2c-1.1-1.2-2.4-2.3-3.6-3.5c-0.4-0.4-0.9-0.8-0.9-1.2C122,204.6,120.8,204.2,120,203.5
	L120,203.5z M158.1,166.8c1.3,0.4,1.5,0.4,2.5-0.5c0.2-0.2,0.5-0.3,0.7-0.3c1.9-0.3,3.8-0.5,5.7-0.8c0.2,0,0.4-0.5,0.8-0.9
	C164.2,164.2,159.4,165.4,158.1,166.8L158.1,166.8z M199.1,201.6c-2.9-1.8-6-1.8-9.1-1.9C192.8,201.3,196,202,199.1,201.6
	L199.1,201.6z M237.8,150c3.6-1.3,4.8-4.1,6.2-6.9l-0.3-0.3L237.8,150z M183.8,128.1l-8.2,7.9C178.9,134,182.2,131.9,183.8,128.1
	L183.8,128.1z M222.1,171.4v0.4c0.4,0.1,0.8,0.4,1.1,0.3c2.7-0.6,5.4-1.6,7.8-3l-0.1-0.4L222.1,171.4z M174.5,162.4l0.2,0.6
	c0.9-0.3,1.7-0.6,2.5-1c1.9-1.1,3.7-2.6,6.1-2.4l0.9-1.9L174.5,162.4z M236.1,165.4l-0.1-0.4l-12.4,4.2l0.1,0.4
	C227.9,168.6,232,167.2,236.1,165.4L236.1,165.4z M135.6,132.7c2.2-1.5,3.1-3.8,4.4-5.7C137.9,128.2,135.7,129.5,135.6,132.7z
	 M224.1,136.2c-3.2,1.5-5.2,4.3-7.4,6.9C219.9,141.6,221.6,138.4,224.1,136.2z M187,207.6c-1.2-2.1-3-3.8-5.2-4.8
	C183,204.9,184,207.3,187,207.6z M130.6,204.2l-5.2-5.4l-0.3,0.3C126.2,201.3,127.1,203.8,130.6,204.2z M132.9,219.2
	c-1.3-3.5-3.1-5.8-4.5-6.2C129.3,215.5,130.8,217.6,132.9,219.2L132.9,219.2z M85.3,187.6c-1.6-2.8-3.9-1.9-6-2
	C81.3,186.2,82.9,188,85.3,187.6z M196,176.7l-0.1-0.2c-1.3-0.2-2.6-0.4-3.9-0.7s-2.5-0.6-3.8-0.8l-0.2,0.3l4.3,2.5l0.3-1.1
	L196,176.7z M140.3,206.1c-0.9-2.6-5.3-7.9-6.9-8.2C135.8,200.8,138,203.4,140.3,206.1L140.3,206.1z M115.4,178.8v0.6l5.5,0.5
	l-1.3-2.1L115.4,178.8z M143.6,212.8c0-2-3.6-6.9-5.4-7.5L143.6,212.8z M117.2,160.2c0.3,0.1,0.7,0.3,0.8,0.2c1.7-1.5,3.3-3.1,5-4.6
	l-0.3-0.3l-1.3,1l-0.2-1c-0.4,0.9-1.8,1-1.7,2.4C119.4,158.6,118.1,159.3,117.2,160.2L117.2,160.2z M143.5,137.6
	c0.1-0.3,0.3-0.5,0.5-0.8c0.8-0.6,1.5-1.2,2.2-1.8c1-0.8,1.7-1.9,2-3.2l-0.3-0.2l-4.9,5.2L143.5,137.6z M152.3,159.9
	c3-1.5,6.2-2.5,8.5-5l-0.2-0.4l-5.2,3.5C153.9,157.5,153.3,159.1,152.3,159.9L152.3,159.9z M198.8,185.4l0.1-0.6l-8.6-1.7
	C193,184.3,195.7,185.7,198.8,185.4L198.8,185.4z M100.7,189.6c-1.8-1.6-4.4-2.3-6.8-1.7l-0.1,0.4L100.7,189.6z M178.5,204
	c0.7,2.1,2,3.9,3.7,5.2C181.6,207.1,180.8,205.1,178.5,204z M201,189.5c-1-1.4-4.3-1.8-6.4-0.9C196.6,189.3,198.8,189.6,201,189.5z
	 M144.3,124.2l-0.4-0.4c-2.4,1-3,3.4-4.3,5.3l0.3,0.2L144.3,124.2z M70.9,182.8c1.3,0.5,4.2-1,4.4-1.9c0-0.2,0-0.6-0.1-0.6
	c-0.2-0.1-0.5-0.2-0.7-0.1C73.4,181,72.3,181.8,70.9,182.8z M176.8,183.9l0.2-0.2l-7.2-5.1C170,179.9,173.8,182.6,176.8,183.9
	L176.8,183.9z M144,194.4l4.4,6.2C148.1,197.6,146.4,195.8,144,194.4z M29.1,203.1l0.3,0.1l0.8-6.2l-1.3,0.7l0.9,0.6l-1.5,0.2
	L29.1,203.1z M212.9,202.7v-0.5l-10.9,0.8c1.5,0.2,3.1,0.3,4.7,0.2c0.8,0,1.6-0.4,2.3-0.4C210.2,202.6,211.6,202.7,212.9,202.7z
	 M218,168l0.2,0.4c1.5-0.9,3.3,0.4,4.8-1l-0.8-0.1l1.5-0.9c-1.6-0.8-2.4,0.8-3.6,0.9l0.6-0.4l-0.2-0.3L218,168z M108.4,195.7
	c-0.6-1.9-2.2-2.8-3.4-4.2C105,194.1,105.8,195.1,108.4,195.7z M47.1,189h6.1C51.9,187.6,48.1,187.6,47.1,189z M163.6,173.9
	c-1.1-1.6-4.6-2.3-6.3-1.2L163.6,173.9z M50.2,166.3l0.4,0.4c1.9-1.3,3.8-2.5,4.6-4.8l-0.2-0.2L50.2,166.3z M181.3,155.5
	c-3.1,0.5-4.9,2.5-6.4,4.9L181.3,155.5z M255.5,96.8l-0.3-0.2c-2.2,3.5-3,5.6-2.4,7.2C253.7,101.5,254.6,99.2,255.5,96.8L255.5,96.8
	z M112.4,187.3c-0.6-0.2-1.2-0.5-1.8-0.8s-1.5-0.6-2.2-0.8l-0.2,0.4l5.1,3.3l0.2-0.2L112.4,187.3z M97.2,185.9
	c-1.3-1.1-3.3-1.2-5.2-0.4C92.8,186.2,96.4,186.5,97.2,185.9z M139.3,148.3c1.1-0.2,2.2-0.5,3.2-0.8c0.3-0.1,0.5-0.8,0.5-1.3
	c0-0.2-0.4-0.7-0.6-0.7c-0.4,0.1-0.8,0.3-1,0.6c-0.4,0.7-0.8,1.4-1.8,1.3C139.6,147.4,139.5,147.8,139.3,148.3z M207.7,185.2
	c1.3,1.1,4.9,1.2,6.8,0H207.7z M188.5,185.7c2,1.4,4.1,2.7,6.9,1.8L188.5,185.7z M162.5,133.2c-1.6,1.2-3.3,2.1-3.9,4.5
	C160.5,136.5,162,135.2,162.5,133.2L162.5,133.2z M147.7,205.9l0.5-0.4c-1.5-1.7-2.9-3.5-4.4-5.2l-0.3,0.2
	C144.6,202.6,146.1,204.4,147.7,205.9L147.7,205.9z M69.7,168.9l-0.3-0.3l-3.8,4.5C68,172.6,69,170.8,69.7,168.9L69.7,168.9z
	 M115.3,176.8l5-1.9l-0.1-0.4c-0.9,0-1.8,0.2-2.6,0.4C116.9,175.3,115.6,175.2,115.3,176.8L115.3,176.8z M59.6,189.3
	c-1.8-0.4-3.7-1-5.6-0.3C55.8,189.7,57.7,190.1,59.6,189.3z M107.1,179.8l0.1,0.3c2.2-0.2,4.4-0.9,6.3-2.1l-0.2-0.4L107.1,179.8z
	 M254.7,106.4c1.7-0.9,1.3-2.3,1.3-3.5c0-0.2-0.3-0.5-0.4-0.5s-0.6,0.3-0.6,0.5C254.9,104.1,254.8,105.2,254.7,106.4z M132.2,206.5
	l-0.2,0.3c1.4,2.5,4,3.5,5.9,5.4l0.2-0.2L132.2,206.5z M162.2,131.1c2-0.3,3-1.6,3-3.9L162.2,131.1z M139.7,142.3l0.5,1.5l2.9-3.6
	l-0.4-0.3L139.7,142.3z M56.5,217.9l-0.4,0.2l3.8,7.4l0.4-0.2L56.5,217.9z M161.8,129l-0.5-0.3l-3.8,5.6l0.5,0.3L161.8,129z
	 M184,191.2c1.3,1.7,4.4,3.3,5.9,3.1L184,191.2z M218.8,152l-4.4,4C216.2,155,218.4,154.4,218.8,152z M109.2,153.9l-0.7-0.7
	l-4.4,4.8l0.5,0.5L109.2,153.9z M164.3,175.9l4.5,2.9l0.2-0.3c-0.5-0.4-0.9-0.7-1.4-1.1s-1.1-1-1.7-1.5S165,175,164.3,175.9
	L164.3,175.9z M204,199.4l-6.2-1.7C199.6,199.1,201.8,199.7,204,199.4z M134.8,197.6c-0.7-2.2-2.3-3.6-4-4.9l-0.2,0.2L134.8,197.6z
	 M144.4,190.4l-0.3,0.3l3.2,3.6l0.3-0.1c-0.1-0.4,0-1-0.3-1.3C146.4,192,145.3,191.2,144.4,190.4L144.4,190.4z M152.1,217.5
	c0.1-0.9,0.1-1.7,0-2.6c-0.2-0.8-0.5-1.5-0.8-2.3c-0.9,0.7-0.4,1.3-0.1,1.9c0.1,0.2,0.3,0.6,0.2,0.7
	C150.5,216.3,151.4,216.7,152.1,217.5L152.1,217.5z M143.2,213.8l0.3-0.2l-3.8-4.4l-0.4,0.3C140.5,211,141.4,212.7,143.2,213.8
	L143.2,213.8z M117.2,158.6l-0.2-0.3l-4.2,3.1C114.6,161.3,116.3,160.3,117.2,158.6L117.2,158.6z M138.5,216.6l0.2-0.2
	c-0.8-1.5-2-2.7-3.5-3.4l-0.2,0.3L138.5,216.6z M105.1,217.1l-3.7-4.6l-0.3,0.2C102.1,214.5,103.2,216.2,105.1,217.1L105.1,217.1z
	 M81.6,148.7l-0.2-0.3l-5.1,2.9l0.2,0.4C78.6,151.2,80,149.9,81.6,148.7z M163.3,151.7l-0.2-0.3l-5,3.2l0.2,0.3
	C160,154,162,153.4,163.3,151.7z M202,145.4l0.3,0.4l4.5-4.1l-0.3-0.4L202,145.4z M135.7,153.9l4-3.3
	C137.2,151.1,136.3,151.8,135.7,153.9L135.7,153.9z M102.7,150.4l0.2,0.2l4.8-4.9l-0.2-0.2L102.7,150.4z M127.6,144l-0.3-0.3
	l-3.7,4.2C125.2,146.9,126.6,145.6,127.6,144z M246,140.7c1.5-1.4,2.9-4.3,2.7-5.6L246,140.7z M205.4,149.1l-0.2-0.3
	c-1.9,0-3.1,1.3-4.4,2.4l0.2,0.3L205.4,149.1z M151.3,141.4l-0.4-0.3c-1,1.2-2.7,1.9-2.7,4L151.3,141.4z M155.1,136.4l-0.3-0.3
	l-5,4.7l0.2,0.3L155.1,136.4z M134.5,129.6l0.5,0.3l2.6-4.5l-0.5-0.3L134.5,129.6z M67.4,189.1v-0.4c-1.8-0.8-3.8,0-5.6-0.4v0.5
	L67.4,189.1z M183,202.6l-3.3-3.6l-0.3,0.3C180.2,200.8,180.9,202.2,183,202.6z M42.9,201.2l-2-2.1l-0.3,0.3l1.7,3.2L42.9,201.2z
	 M193.3,162v-0.4l-5.9,1.1l0.1,0.5L193.3,162z M56.7,161.4l0.4,0.4c1-1.4,2.1-2.8,3.1-4.2l-0.5-0.3L56.7,161.4z M192.7,208.9
	l0.3-0.4l-4.7-2.9L188,206L192.7,208.9z M195.9,164.1l-0.1-0.6l-4.6,1.2l0.1,0.4L195.9,164.1z M151.6,155.7c1-0.7,1.9-1.2,2.8-1.8
	c0.1-0.1,0.1-0.4,0.1-0.6c-0.1-0.1-0.3-0.2-0.5-0.1C153,153.9,151.8,154.2,151.6,155.7L151.6,155.7z M88.7,186.2
	c0.9,0.4,1.8,0.7,2.7,0.9c1.2,0.1,2.4,0.1,3.6,0v-0.3h-3.7C91,185.9,90.5,185.7,88.7,186.2z M189.8,182.1l4.6,1.1l0.1-0.3
	C193.1,182,191.4,181.7,189.8,182.1L189.8,182.1z M87.6,145.8l-0.3-0.4l-4.2,3.5l0.3,0.4L87.6,145.8z M53.2,167l0.5,0.4l2.5-3.3
	l-0.5-0.4L53.2,167z M148.6,156.1l3.5-3.2C150.4,153.2,149.1,154.4,148.6,156.1L148.6,156.1z M154.1,143.1l0.3,0.3
	c1-1.1,2-2.2,2.9-3.3l-0.3-0.2C156.1,141,154.5,141.6,154.1,143.1L154.1,143.1z M125,150.6l0.6,0.4l2.8-3.9l-0.3-0.2L125,150.6z
	 M169.4,148.6l-3.8,1.4l0.2,0.4C167.1,150,168.6,150.2,169.4,148.6L169.4,148.6z M240.6,159.3c2.1-0.7,3.9-1.9,5.4-3.5L240.6,159.3z
	 M65.8,185.8v0.4c1.6,0,3.1,1.2,4.8,0.4v-0.4L65.8,185.8z M167.3,194l1.2,4.5l0.4-0.1C168,197.1,169.4,195.2,167.3,194z M188,154.6
	l-0.2-0.4l-5.3,3l0.2,0.3L188,154.6z M165.3,167.2c1.3,0.9,3.1,0.5,3.3-0.6L165.3,167.2z M188.9,156.1l-0.2-0.4l-4.5,2.9l0.3,0.4
	L188.9,156.1z M193.2,192.2l0.2-0.4l-4.6-1.8l-0.2,0.4L193.2,192.2z M37.9,199.6l2.6,2C40,199,39.8,198.9,37.9,199.6z M33.6,209.1
	L34,209l-0.4-4.4l-0.6,0.1L33.6,209.1z M204.2,144.9c2.2-0.6,3.1-1.6,3-2.9L204.2,144.9z M136.2,205.1l0.4-0.4l-2.6-3.7l-0.5,0.3
	L136.2,205.1z M181.6,194.9l-0.3,0.5l3.4,1.8l0.3-0.6L181.6,194.9z M30.8,198.4c1.3,0,1.8-0.9,1.2-2.4l-1.1,0.6l0.3,0.2L30.8,198.4z
	 M222.3,149.7l0.3,0.3l3.5-2.9l-0.3-0.4L222.3,149.7z M153.3,143.6l-2.5,2.1C152.7,145.6,153.6,144.6,153.3,143.6L153.3,143.6z
	 M98.2,184.6l-0.2,0.4l4.7,2.1l0.2-0.4L98.2,184.6z M146.2,216.1l0.4-0.2l-1.8-3.9l-0.5,0.2L146.2,216.1z M106.7,187.6l0.2-0.4
	c-1.3-0.8-2.8-1.3-4.4-1.3L106.7,187.6z M211.8,191.5v-0.2h-5.9v0.2H211.8z M144.6,147.4c1.6,0,1.6,0,2-2.6L144.6,147.4z
	 M164.4,148.6l0.2,0.4l4.3-2.7l-0.3-0.4L164.4,148.6z M139.9,197.1l0.6-0.5l-3.6-3.6l-0.2,0.2L139.9,197.1z M144.1,199.5l0.5-0.4
	l-2.7-3.1l-0.4,0.3L144.1,199.5z M110.4,177.1c1.7,0.8,3.2,0.3,3.7-1L110.4,177.1z M114.5,192.5c-0.1-1.5-1.3-2.8-2.8-2.9
	L114.5,192.5z M116.4,149.4l0.4,0.3l3-3.6l-0.3-0.3L116.4,149.4z M172.9,145.7l-3.2,2C171.5,148.2,171.9,146.6,172.9,145.7
	L172.9,145.7z M43.9,183.9c1.5,0.4,2-0.6,2.6-1.5l-0.2-0.3L43.9,183.9z M53.7,214.8l-0.4,0.2l2,4.2l0.4-0.2L53.7,214.8z M195.1,152
	l0.2,0.3l4.4-3.5l-0.2-0.3L195.1,152z M118.4,129.4l-0.3-0.2c-1,0.9-1.7,2-2.1,3.3l0.3,0.2L118.4,129.4z M96.8,162.1l2.9-2.4
	C98.2,159.7,97.4,160.4,96.8,162.1z M182.6,184.7c1.3,1.6,2.3,2,3.5,1.9L182.6,184.7z M130.9,205.8l-2.6-1.7
	C129.2,206.1,130.1,206.6,130.9,205.8L130.9,205.8z M147.1,211.6l0.3-0.2l-2.1-3.5l-0.4,0.2L147.1,211.6z M84.3,184.8
	c-0.4-1.3-1.2-1.4-2.7-0.2L84.3,184.8z M180,168.4l0.1,0.3l2.5,0.1c-1.3,0.2-0.8-1-1.1-1.8L180,168.4z M133,144.4l-2.4,1.8
	C131.7,146.3,132.7,145.6,133,144.4L133,144.4z M198.9,192.8c-0.5-1.5-1.6-1.5-2.7-1.6l-0.1,0.3L198.9,192.8z M31.5,202.6v-3.1
	c-0.9,0.7-1,2-0.3,2.8C31.3,202.4,31.4,202.5,31.5,202.6z M182.6,198.3l-0.2,0.4l3,1.7l0.2-0.4L182.6,198.3z M33.1,175.4
	c1-1.1,0.6-2.9,2.2-3.6C34,172,33.1,173.6,33.1,175.4z M157.1,171.7v-0.5l-3.6-0.7l-0.1,0.5L157.1,171.7z M183.5,161.8l0.2,0.6
	l3-0.9l-0.1-0.5L183.5,161.8z M249.5,108.8c0.7-1,1.4-2,2.1-3l-0.4-0.2C249.9,106.2,250,107.7,249.5,108.8L249.5,108.8z
	 M157.4,146.6l-1.8,2.1l0.2,0.2l1.9-1.1L157.4,146.6z M109.9,191.9l-1.4-2.2C108,191.3,108.3,191.7,109.9,191.9L109.9,191.9z
	 M172.1,199.3l2,3.4C174,201.3,173,199.5,172.1,199.3L172.1,199.3z M58,187.5v0.4l3.7-0.2v-0.2H58z M239.1,125.2v0.3
	c0.4-0.1,0.9-0.1,1.2-0.3c0.4-0.4,0.9-1,0-1.6L239.1,125.2z M186.7,144.2l-0.2-0.4l-3.7,1.8l0.2,0.4L186.7,144.2z M174.4,176.3
	l-0.4,0.4l2.3,2.2l0.4-0.4L174.4,176.3z M112.8,149l-0.3-0.3l-2.7,3.1l0.3,0.2L112.8,149z M169.4,139.4c-1.7-0.7-1.9,0.7-2.7,1
	l0.2,0.3L169.4,139.4z M71.9,154.4l-0.3-0.3l-2.6,2.7l0.3,0.3L71.9,154.4z M173.4,153l0.2,0.3l2.8-2.2l-0.3-0.4L173.4,153z
	 M194.1,136l-3.3,1l0.1,0.3c0.9-0.8,2.6,0.5,3.2-1.4V136z M148.3,208l0.9,2.7C150.1,209.2,150.1,209.2,148.3,208z M104,180.4
	l0.2,0.4l3.6-1.7l-0.1-0.3L104,180.4z M201.8,168.3l0.2,0.5l2.6-0.9l-0.1-0.4L201.8,168.3z M40.1,186.1l0.1,0.6l2.6-0.6l-0.1-0.5
	L40.1,186.1z M179.7,183.2l2.6,0.4l0.1-0.5C181.6,183.1,180.9,182.2,179.7,183.2z M194.2,177.4l-0.1,0.4c0.6,0.8,1.3,0.8,2.2,0.1
	L194.2,177.4z M243.9,123.2l-0.4-0.2c-0.5,1-1.1,2-1.6,3.1l0.3,0.2L243.9,123.2z M177,170.4l0.1-0.6l-2.9-0.3l-0.1,0.5L177,170.4z
	 M138.5,201.1l0.5-0.4l-1.9-1.9l-0.3,0.3L138.5,201.1z M31.5,185.4l-0.2-0.3l-2.6,2.3l0.3,0.3L31.5,185.4z M173.1,205l0.3-0.2
	l-1.7-2.4l-0.5,0.3L173.1,205z M192.7,153.4l-0.3-0.5l-2.1,1.5l0.2,0.4L192.7,153.4z M131.2,204.4l0.1-0.2l2.4,2.7l0.3-0.2
	L131.2,204.4z M34.9,198.9l1.5-0.5l-1.2-1.4l-0.2,0.2V198.9z M186.5,197.4c0.7,1.4,1.6,1.2,2.6,0.9L186.5,197.4z M109.1,188.2
	l-0.4,0.5l2.1,1.5l0.3-0.3L109.1,188.2z M88.2,163.3L88,163l-2.5,2.1l0.3,0.4L88.2,163.3z M187.9,175.9c-0.8-1.1-1.5-1.8-2.9-1.4
	L187.9,175.9z M231.1,141.3l-0.2-0.2l-2.8,2.4l0.2,0.2L231.1,141.3z M148.7,131.5l0.3,0.3l1.8-2.6l-0.3-0.2L148.7,131.5z
	 M177.8,159.4l0.2,0.4l2.9-1.5l-0.2-0.4L177.8,159.4z M218.2,167.4l-0.1-0.4l-2.6,0.9l0.1,0.4L218.2,167.4z M176.2,182.1l0.3-0.6
	l-2.3-1.2l-0.1,0.3L176.2,182.1z M247.9,111.1l-0.3-0.2l-1.5,2.8l0.4,0.2L247.9,111.1z M189.7,187.7l0.1-0.3l-3.2-1.7l-0.1,0.3
	L189.7,187.7z M42.7,193l0,0.5l2.4-0.3v-0.4L42.7,193z M186.1,203.2l0.4-0.4l-1.4-1.4l-0.5,0.5L186.1,203.2z M153.9,204.1l0.3-0.3
	l-2-2.2l-0.3,0.2L153.9,204.1z M187.2,136.8l-0.1-0.3l-2.8,0.7l0.1,0.4L187.2,136.8z"/>
<path class="st1" d="M90.5,208.3c-0.5,0-0.8,0.1-0.8-0.7c-0.1-0.9-0.4-1.8-0.8-2.6c-0.3-0.9-0.7-1.8-1.1-2.8l0.2-0.2
	c0.5,0.4,0.9,0.8,1.3,1.3c1.6,2.4,2.9,4.9,4.6,7.3c2.6,3.7,5.3,7.4,8,11.1c0.4,0.5,0.7,1.1,0.9,1.7l-1.6-1.4L101,223l-0.7-0.6
	l-0.2,0.2c0.4,0.4,0.9,0.9,1.3,1.3c0.2,0.2,0.7,0.3,0.8,0.6c1.2,2.3,3,4.2,5.2,5.5c2.4,1.7,5.1,2.9,7.6,4.4c0.5,0.3,0.8,0.8,1,1.4
	c-2.9-1.2-5.9-2-8.9-3s-5.6-2.8-8.4-4.3c-0.1,0.8-0.1,1.7,0,2.5c0.3,0.8,0.9,1.4,1.2,2.2l-3.8-3.6l-0.1,0.1l0.7,1l-0.1,0.2l-2.4-1.7
	l-0.2,0.1c0.6,1,1.2,2,1.7,3.1c0.2,0.4,1.3,0.9,0.2,1.6c0,0,0.2,0.4,0.3,0.6c0.2,0.4,0.5,0.8,0.8,1.3l-0.4,0.2
	c-1.9-2.8-3.8-5.6-5.7-8.3l-0.3,0.2c0.8,2.9,3.2,4.9,4.4,7.5l-0.3,0.3l-5.1-5c0.8,1.7,1.6,3.1,2.3,4.5l-0.9-0.7l-1.6,0.4v0.7
	c-0.1-0.1-0.2-0.1-0.2-0.2c-2.2-3.3-4.4-6.6-6.7-9.9c-0.7-0.6-1.5-1.1-2.3-1.5l-0.3,0.2c0,0.7,0.1,1.3,0.3,2
	c0.8,3.1,1.7,6.1,2.4,9.2c0.4,1.7,0.7,3.5,0.8,5.3c-0.8-2.4-1.3-4.9-2.8-7.1s-2.6-4.3-4.1-6.4l0.3,1.4l-1-0.2l-3-7.4L73,221l0.7,1.3
	c0.1-1,0.3-0.8-2.3-3.9l0.9-0.7c-1.1-2.4-2.2-4.9-3.5-7.2c-0.5-0.9-1.2-1.7-1.1-3.2c0.8,1.2,1.4,2.2,2,3.2c1.9,3.1,3.8,6.3,5.7,9.5
	c0.6,1,1.3,1.9,2.6,1.9c0.1,0,0.2-0.1,0.2-0.1c-0.4-2.7-1.4-5.3-2.8-7.7c-0.5-1-1-2-1.3-3c-0.9-2.1-1.7-4.1-2.6-6.2
	c-0.1-0.3-0.2-0.7-0.2-1l0.3-0.1c0.7,1.3,1.3,2.7,2,4c1,1.9,2,3.9,3,5.8c0.7,1.3,0.8,1.2,1.7,1.2l-0.2-2.1c2.4,5,5.8,9.4,9,13.9
	l0.3-0.2l-8.6-15l0.3-0.2l4,5.7l0.4-0.2l-1.3-3.4c1,1.7,2.4,3.1,4.1,4.1l-2-4.6l0.2-0.1c0.4,0.5,0.7,0.9,1,1.5
	c1.1,2.1,2.5,4,4.2,5.6c1.7,1.7,3,3.7,4.8,5.3c1.6,1.2,3.2,2.4,4.9,3.4l1.4-1.1c-2.8-4.5-5.5-8.9-8.3-13.3l0.7,0.4
	c0-0.1,0-0.3-0.1-0.4c-0.8-1.5-1.6-3-2.3-4.6C90.6,209.1,90.5,208.7,90.5,208.3c0.7,1,1.4,2,2,3.1c1.1,2.6,2.6,4.9,4.3,7.1
	c0.7,0.7,1.3,1.5,1.9,2.3l0.4-0.2c0-0.4-0.1-0.7-0.3-1.1c-0.5-0.8-1.1-1.5-1.6-2.2c-1.3-1.9-2.8-3.7-4-5.6c-1-1.8-1.8-3.7-2.7-5.6
	c-0.4-0.6-0.8-1.3-1.3-1.8l-0.3,0.2c0.1,0.2,0.2,0.4,0.2,0.6C89.7,206.1,90.1,207.2,90.5,208.3z M87.1,221c0.2,0.3,0.4,0.5,0.6,0.8
	c0.5,0.6,0.9,1.4,2.1,1.2c-1.1-1.5-1.7-3.1-3.5-4C86.7,219.7,86.9,220.4,87.1,221l-1.9-2.8c0.5,1.4,0.6,2.7,1.8,3.7L87.1,221z
	 M74.7,220.9c1.6,4.5,3.7,8.8,6.3,12.7C81,228.2,77.5,224.8,74.7,220.9L74.7,220.9z M84.5,227.2l-0.3,0.2c1.3,2.1,2.6,4.2,4,6.3
	c0.3,0.5,0.6,1.4,1.4,0.9c0.2-0.1,0-1.3-0.4-1.7C87.7,230.9,86.1,229,84.5,227.2L84.5,227.2z M81.4,224.4l0.3-0.2l-2.5-3.6
	C78.8,222.2,79.7,223.5,81.4,224.4L81.4,224.4z M78.8,225.9c0.2-2.3-0.2-2.9-2-3.4L78.8,225.9z M105.3,229.7l-3.4-3.4
	C102.8,228,103.6,229.2,105.3,229.7L105.3,229.7z M101.6,227.9l0.3-0.3c-0.6-1-1-2.2-2-2.9l-0.4,0.2L101.6,227.9z M98,221.5
	c0.5,1,0.5,2.3,2,2.6L98,221.5z M88.5,225.7l0.4-0.3l-1.5-2.3l-0.4,0.3L88.5,225.7z"/>
<path class="st1" d="M63.5,214.4c0.9,1.7,1.8,3.3,2.7,5.1c0.9-1.8-1.2-7-3.1-8.6c0.4,0,0.9-0.1,1.2,0c0.3,0.4,0.6,0.8,0.8,1.2
	c0.2,0.4,0.4,0.8,0.8,1.4l0.1-1.2l0.3-0.1l2.5,6L69,218l-0.9-7.3c1.3,5.5,2.2,11.1,5.2,16.1l-0.1-1.8c2.4,4.8,3.4,10,4.4,15.1
	l-1.3-3l-0.4,0.1l1,5.1h-0.2c-1.4-3.8-2.8-7.7-4.3-11.4s-3.2-7.4-4.9-11.1c-0.2,3,1.9,5.5,1.9,8.8c-2.2-4.9-4.3-9.5-6.4-14.2
	L63.5,214.4z M70.7,225.2l0.2-0.1l-1.3-3.6l-0.3,0.1L70.7,225.2z M75.1,235.1l0.4-0.1l-0.6-2l-0.5,0.2L75.1,235.1z"/>
<path class="st1" d="M60.7,217.3c-0.7-0.5-1.1-1-0.1-1.9l3,5.5l0.1-0.1l-2-7.7h0.1l4,10.9l-1.7-2.6l-0.3,0.2c1.3,2.8,3,5.4,4.9,7.8
	l-0.3,0.3l-2.6-2.5l2.5,5.9l-0.2,0.1c-0.7-1.4-1.5-2.7-2.1-4.1c-1.1-2.5-2.2-5.1-3.3-7.7C62.1,220,61.4,218.7,60.7,217.3L60.7,217.3
	z"/>
<path class="st1" d="M69.3,164l-1,1.6l0.9,0.6c-0.5,0.1-1.1,0.3-1.6,0.6c-3.1,3.1-6.2,6.2-8.2,10.2c-0.9,1.9-1.9,3.9-2.8,5.8
	l-0.3-0.1c0.6-1.5,1.2-3,1.8-4.5c0.5-1.4,1-2.7,1.4-4.1c0.1-0.2,0.2-0.3,0.3-0.5c2.5-2.7,5.1-5.4,7.6-8.1
	C68.7,164.1,68.6,164.1,69.3,164z"/>
<path class="st0" d="M170.5,128.9c-1.3,1.2-2.4,2.6-3.4,4c-1.1,1.7-2.9,2.6-4.1,4c-0.3,0.4-0.6,0.9-0.9,1.4l-0.6-0.6
	c0.7-1.1,1.5-2.1,2.4-3.1c1.5-1.3,2.5-3.1,3.8-4.6c0.6-0.7,1.3-1.2,2.1-1.7C170.2,128,170.7,128.1,170.5,128.9L170.5,128.9z"/>
<path class="st1" d="M83.6,181.7l-0.6-1.2c1.8-1.2,3.6-2.4,5.5-3.5c0.2-0.1,0.5,0,0.7,0.1l0.9,0.1c-0.4,0.8-1,1.5-1.6,2.1
	c-0.3,0.3-1.1,0.1-1.6,0.4c-0.7,0.4-1.4,0.8-2,1.3C84.6,181.2,84.1,181.4,83.6,181.7z"/>
<path class="st1" d="M257,97.5v-1.6c1.6-1.5,4.6-9.4,3.8-10.1l1.4-1.5C262.4,86,258.7,95.6,257,97.5z"/>
<path class="st1" d="M217.7,132.9l8.5-6.9l-1.1,0.3L225,126l2.8-1.1l0.2,0.4l-10,7.8L217.7,132.9z"/>
<path class="st1" d="M72.7,179.9c-1.4,0.6-2.9,1.2-4.3,1.8c-0.5,0.2-1,0.3-1.4,0.6c-1,0.5-1.9,1.1-3,0.2l8.6-2.9L72.7,179.9z"/>
<path class="st0" d="M260.9,154.7c-0.4,0.2-0.7,0.4-1.1,0.6c-1.1,0.9-3.6,2.6-5.2,2.4l6.1-3.9C260.7,154.2,260.8,154.4,260.9,154.7
	L260.9,154.7z"/>
<path class="st1" d="M73.6,155.1c-0.1,0.3-0.3,0.6-0.5,0.9c-1.4,2.2-2.8,4.4-4.2,6.6C69.7,159.7,71.4,157.1,73.6,155.1z"/>
<path class="st1" d="M94.9,177.4l5.4-3.2C99.1,175.9,97.1,177.1,94.9,177.4z"/>
<path class="st1" d="M100.8,169.4c-0.5,0.4-1,0.7-1.5,1.1c-0.4,0.2-0.7,0.4-1.1,0.5l-0.2-0.4l3.1-2.5l0.3,0.2L100.8,169.4
	L100.8,169.4z"/>
<path class="st1" d="M137.1,122.1L137.1,122.1c-0.1-0.1-0.2-0.2-0.2-0.2c0.6-1.1,1.3-2.2,1.9-3.2l0.4,0.2c-0.4,1-0.9,2.1-1.4,3.1
	C137.8,122.1,137.4,122,137.1,122.1z"/>
<path class="st1" d="M91,179.3c0.1-0.3,0-0.7,0.2-0.9c1.1-1,2.2-2,3.3-3l0.3,0.2l-3.5,3.7L91,179.3z"/>
<path class="st1" d="M138.5,222.7l3.8,3.8C141,226.3,138.6,224,138.5,222.7z"/>
<path class="st1" d="M246.4,103.2l-0.1,1.1l0.3,0.1c0.2-0.7,0.5-1.4,0.7-2.1c0.3,1.5,0,2.1-1.7,2.9l0.6-2.1L246.4,103.2z"/>
<path class="st1" d="M99.6,216.2l-2.8-2l0.4-0.5L99.6,216.2L99.6,216.2z"/>
<path class="st1" d="M110.4,173.7l-3.4,2.1C107.2,174.8,109.3,173.7,110.4,173.7L110.4,173.7z"/>
<path class="st1" d="M64.8,165.5l0.3,0.7l-2.2,2.5l0,0c0-0.5,0.1-0.9,0.2-1.4C64.3,167.3,64.2,166.1,64.8,165.5L64.8,165.5z"/>
<path class="st1" d="M196.2,113.6c-0.4-1,0.2-1.8,1.7-2.2L196.2,113.6L196.2,113.6z"/>
<path class="st1" d="M84.7,139.6l-2.6,2.1l-0.3-0.4l2.6-2.1L84.7,139.6z"/>
<path class="st1" d="M54.5,170.3l-1.8,2l-0.4-0.4l1.8-1.9L54.5,170.3z"/>
<path class="st1" d="M115.2,171.5l1.8-1.5C117.3,170.9,116.8,171.4,115.2,171.5z"/>
<path class="st1" d="M110.4,173.7l3.1-1.8l0.2,0.5L110.4,173.7L110.4,173.7z"/>
<path class="st1" d="M53.6,192.1h4v0.5L53.6,192.1L53.6,192.1z"/>
<path class="st0" d="M98.2,206.4c-0.4-0.6-0.9-1.1-1.5-1.6c-2.8-2.3-5.6-4.6-8.4-6.8c-2.1-1.6-4.3-3-6.4-4.7l3.6,1.8l0.1-0.2
	l-1.8-1.4l0.2-0.3l3.8,1.3l0.2-0.4l-7.6-3.2c0-0.1,0.1-0.2,0.1-0.2c2.6,0,5.4-0.9,7.7,1.3c1.1,1,2.2,2,3.3,3.1l0.3-0.3l-4-3.7
	c4.9,0.8,8.4,4.4,13,5.8v0.4l0.5-0.5c-1.8-1.4-3.5-2.6-5.1-3.9c-0.4-0.3-0.4-1-0.8-1.3c-0.6-0.5-1.3-0.9-2-1.2
	c-0.4-0.2-0.8-0.4-1.1-0.6c1.5,0.3,3,0.9,4.2,1.8c1.3,0.9,2.8,2.1,4.2,2.2c1.1,0.2,2.2,0.5,3.2,0.9c1,0.2,1.7,1,1.8,1.9
	c0.5,3.4,1.7,6.8,3.4,9.8c1.1,1.7,2.2,3.4,3.5,5c-3.3-4.7-5.6-10.1-6.6-15.8c2.7,0.8,2.7,0.8,4.7,3.3l-0.5-1.6l0.5-0.2l-2-3.2
	l0.3-0.2l1.1,0.4l0.1-0.1l-1.7-1.3c1.8-0.1,2.9,0.7,3.3,2c0,0.2,0.1,0.4,0.2,0.6c2.3,2.9,4.7,5.8,7,8.8c0.7,1.1,1.4,2.3,1.9,3.6
	c0.2,0.4,0.4,0.7,0.8,0.9l-0.4-1.3l0.2-0.1c0.4,0.4,0.7,0.9,1.1,1.3c0.7,0.8,1.4,1.5,2.1,2.3c0.2,0.2,0.4,0.5,0.6,0.8
	c1.1,2.5,2.3,4.9,3.7,7.3c1.8,3.3,4,6.4,6.5,9.1c0.4,0.4,0.7,0.9,0.9,1.5c-1-0.5-2.1-1-3.1-1.6c-0.6-0.4-1.3-0.6-2-0.7
	c-1.7-0.3-3.2-1.3-4-2.9l-0.6-1.2L126,223l1.4,2.8c-1.9-0.6-2.8-2.1-3.9-3.5s-2.1-2.9-3.2-4.3l-0.3,0.2l3.6,5.3
	c-2.6-1.5-5.6-2.2-7.8-4.4c-4-4.3-7.7-9-10.9-14c-0.3-0.6-0.8-1.2-1.2-1.7c2.4,5.1,5.9,9.5,9.4,13.9l-0.2,0.3
	c-1.2-0.8-2.4-1.7-3.6-2.5c-2.1-1.4-2.8-3.7-3.9-5.8c-1.6-3.1-3.2-6.1-4.8-9.2c-0.4-0.6-0.8-1.2-1.4-1.6c-0.5-0.3-1-0.5-1.5-0.6
	c1.1,1,2,2.1,2.9,3.3c1.8,3.2,3.4,6.6,5.1,9.9c0.1,0.4,0.2,0.8,0.3,1.1c-1.4-1.2-2.6-2.3-3.9-3.3S99.4,207.2,98.2,206.4L98.2,206.4z
	"/>
<path class="st0" d="M135,175.4l-1,0.8c1.4-0.2,2.9-0.3,4.3-0.3c4.2,0.3,8.3,1.5,11.9,3.5c3.6,1.9,6.6,4.8,8.7,8.4
	c2.2,3.4,4.3,6.9,6.2,10.4c0.9,1.7,1.6,3.5,2.1,5.3c1.1,4.2,1.9,8.4,2.9,12.6c0,0.4,0,0.7,0,1.1l-0.3,0.2c-1-1.2-2-2.4-2.9-3.6
	c-1.2-1.6-2.3-3.2-3.5-4.8s-2.3-3.1-3.4-4.6c-0.6-0.8-1.3-1.4-1.9-2.2c-1.1-1.6-2.1-3.2-3.1-4.7c-0.2-0.3-0.5-0.6-0.9-0.7l0.4,1.6
	c-0.6-0.4-0.9-0.6-1.2-0.9c-4-3.3-8-6.6-12.1-9.9c-1.3-1.1-2.6-2.2-3.8-3.2l0.8,1.6l-0.2,0.3c-0.8-0.5-1.6-0.9-2.5-1.4
	s-1.6-1.1-2.4-1.5c-0.3-0.1-0.7,0-0.9-0.2c-0.5-0.5-1.1-0.9-1.7-1.2c-2.5-1.1-5.2-1.7-8-1.7c-1.2,0-1.6-0.9-2.2-1.6
	c-0.1-0.1,0.3-0.6,0.5-0.7c0.3-0.1,0.6-0.1,0.9,0c0.3-0.3,0.7-0.6,1.2-0.9c2.6-1.1,5.2-0.3,7.8-0.1c1.2,0.1,2.5,0.4,3.7,0.6l0.1-0.4
	l-9.7-1.5c0.5-0.3,0.9-0.7,1.3-0.8c1.2-0.1,2.2-0.4,3.4,0.5c0.7,0.5,1.9,0.2,2.9,0.2C133.2,175.6,134,175.5,135,175.4z M159.6,196.4
	l-0.4,0.2c-3.4-5.5-8.2-10.1-13.9-13.1c6.1,4.3,11.4,9.3,15.1,15.8l-0.4-1.9l0.6-0.2c2.1,3.8,4.2,7.6,6.3,11.4l0.4-0.2
	c0-0.2-0.1-0.3-0.2-0.5c-0.9-1.6-1.6-3.3-2.1-5.1c-0.5-1.4-1-2.7-1.7-4l-0.3,0.1l-0.1,0.8l-5-7.4l-0.5,0.3L159.6,196.4z
	 M156.9,198.4c-0.6-2.4-1.7-3.9-2.9-4.2L156.9,198.4z M139.1,183.7l-0.2,0.3l2.9,2.5l0.2-0.3L139.1,183.7z"/>
<path class="st0" d="M170.2,185.9c-1.9-1.9-3.7-3.7-5.6-5.5c-0.9-0.9-1.9-1.8-2.9-2.6c4.5,5.5,8.2,11.6,13.6,16.5l-0.2,0.2
	c-0.3-0.2-0.7-0.5-1-0.8c-0.2-0.1-0.5-0.2-0.7-0.3c0.1,0.3,0,0.7,0.2,0.8c1.1,0.8,2.1,1.6,3.3,2.4c1,0.7,1.6,1.9,1.6,3.1
	c0,0.1-0.3,0.2-0.2,0.2l1.8,3l-9.4-5.8l0.2-0.4l3.2,1.7l0.1-0.2l-3.8-2.6c-0.2-0.2-0.6-0.4-0.6-0.5c0-2.1-2-3.3-2.4-5.2
	c-0.5-1.3-1.2-2.6-2.2-3.6c0.3,0.6,0.6,1.3,0.8,2c0.2,1.4-0.4,1.8-1.8,1.2c0.4,0.6,0.7,1.1,1,1.5c1.3,1.6,1.2,3.6,1.6,5.4
	c0.4,2.2,0.8,4.4,1.1,6.6c-1.7-5.3-4.8-9.8-7.3-14.6l0.7,0.5c0-0.2,0-0.4-0.1-0.4c-1.9-2.2-3.6-4.8-5.8-6.6
	c-4.4-3.6-9.6-5.9-15.2-6.6c-2.7-0.4-5.5-0.6-8.2-0.9c-0.6-0.1-1.2-0.4-1.7-0.8c2.1-0.3,4.3-0.4,6.4-0.3c2.4,0.3,4.8,0.7,7.1,1.2
	c1.4,0.2,2.9,0.5,4.3,0.9c2.7,0.9,5.3,2,8,3.1c0.3,0.2,0.7,0.2,1.1,0.2c-4.1-2.6-8.6-4.2-12.9-6.1l-0.2,0.4l2.3,1v0.1l-10.5-2.1
	c1.3-0.9,4.4-0.9,5.1,0.1c1.5-1.2,3.2-0.8,4.9-0.9c0.2,0,0.4,0.1,0.6,0.1c0.8,0,1.6-0.2,2.2,0.8c0.4,0.8,1.5,0.9,2.4,0.9
	c2,0.1,3.9,0.4,5.8,0.8L155,174v0.1c1.1,0,2.2,0.1,3.2,0.4c1.7,0.5,3.3,1.1,4.9,1.9c1.9,1,3.5,2.4,5.4,3.6c3.5,2.2,7.1,4.4,10.7,6.5
	c1.6,1,3.3,1.9,4.9,2.9c0.4,0.2,0.7,0.5,0.9,0.9c-1.5-0.6-3.5-0.5-4.2-2.2l-2.9-1l6,7.9l-0.2,0.3c-3.2-1.9-7-3-9.2-6.8l3.4,1.4
	l0.1-0.1l-1.9-1.8c-0.7,0.5-2.7-0.8-3.7-2.2c-0.5,0-1,0-1.5,0.1C170.7,185.8,170.4,185.8,170.2,185.9L170.2,185.9z"/>
<path class="st0" d="M136.6,170l-0.6-0.9c0.9-0.2,1.4-1.5,2.6-0.9c0.1,0,0.4-0.2,0.6-0.4c1.8-1.9,4.1-2.7,6.4-3.4
	c0.3-0.1,0.6-0.2,0.9-0.4c1.8-0.9,3.4-2.3,5.3-2.7c2.8-0.6,4.6-3,7.3-3.8s4.6-2.8,6.5-4.6c2.3-2.1,5.2-3,8-4.2c2.3-1,4.7-1.8,7-2.7
	c0.1,0,0.3,0,0.4,0l0.2,0.3c-0.9,0.8-1.9,1.6-2.9,2.4c-2.8,1.8-5.8,3.5-8.6,5.4c-2,1.3-3.8,2.8-5.8,4.1c-1.3,0.8-2.8,1.5-4.3,1.9
	l1.6-0.1l0.1,0.2c-1.9,1.4-3.8,2.8-5.6,4.3c-2.3,2-5.3,2.1-8,3.1c-0.4,0.2-0.9,0.5-1.3,0.7c-1.1,0.3-2.3,0.5-3.5,0.7L136.6,170z"/>
<path class="st0" d="M173.9,158.4c0.8-1.3,1.8-2.4,3.1-3.2c4.9-3.3,9.8-6.6,14.6-9.9c0.3-0.2,0.6-0.5,0.9-0.8l-0.2-0.3l-5.7,3.9
	v-0.7l-8,3.7l-0.2-0.3c2.7-1.7,5.6-3.3,8.1-5.2s5.7-2.7,8.7-3.6l-0.1-0.3l-2.5,0.3c7-2.1,13.9-4.3,20.5-7l-9.5,7.8l-0.2-0.7
	c-0.5,0.5-1,1-1.5,1.4c-0.6,0.3-1.1,0.6-1.7,0.8c-0.4,0.2-0.8,0.4-1.2,0.6c-1.5,1.2-2.9,2.5-4.4,3.7l-0.3-0.2l0.6,0.2
	c-1.8,2.1-4.4,3-6.5,4.6l-0.2-0.2l5.5-3.8l-0.1-0.2c-0.3,0.1-0.6,0.2-0.9,0.4c-1.9,1.1-3.7,2.3-5.7,3.2c-1.6,0.7-3.3,1.3-5.1,1.8
	c-2.6,0.6-5,1.9-7,3.7c-0.2,0.2-0.5,0.4-0.8,0.5C174.3,158.4,174.1,158.4,173.9,158.4z"/>
<path class="st0" d="M114.3,188.7l4.1,2.3l0.1-0.2l-5.7-4.2l0.2-0.3c1.4,0.3,2.7,0.7,4,1.2c1.2,0.6,2.3,1.2,3.5,1.9l-0.7-1.4
	l0.3-0.1c-1.5-0.7-3-1.5-4.5-2.2c-0.3-0.2-0.6-0.3-1-0.3c-1.6,0.1-3.1-0.6-4.1-1.8c-0.4-0.2-0.8-0.3-1.2-0.2c-1.2,0.4-2-0.1-3-1
	l3-1.2l0.1,0.2l-0.7,1.1c2.4-0.7,4.6,0.1,6.8,0.8l0.1-0.3l-2.3-0.9l0.1-0.3l5.4,2l-0.1,0.3l-1.8-0.5l-0.1,0.2
	c0.7,0.5,1.4,0.9,2.1,1.3c0.8,0.3,1.6,0.5,2.3,0.6c0-1,0.6-0.8,1.2-0.7c1.9,0.2,3.7,0.9,5.2,2.2c1.8,1.5,3.5,3,5.1,4.6
	c0.2,0.2,0.2,0.4,0.2,0.7l-7.4-3.8l-0.2,0.3l4.5,5.6l-1.9,0.2c2.2,0.2,2.1,2.2,2.8,3.4l-0.3,0.3l-4.4-3.3l0.7-0.5
	c-3.2-1.3-4.8-3.9-5.6-7.1l-0.4,0.1c0.1,0.2,0.1,0.5,0.1,0.7c0,0.5,1.1,1.1-0.1,1.5l3.7,5.6c-1.5,0.3-1.5-0.7-1.8-1.4
	s-0.6-1.5-0.9-2.2l-0.3,0.1l0.6,3.1c-1.1-0.7-2.1-1.3-3-1.9c-1.2-0.7-2.3-1.4-3.5-2.1C114.9,190.6,114.1,190,114.3,188.7z"/>
<path class="st0" d="M184,176c2.4,1.9,5.6,2,8.3,3.1c-0.5,1.1-1.2,1.1-2.1,0.8c-2.2-0.7-4.5-1.4-6.7-2.1c-0.2,0-0.4-0.1-0.6-0.1
	l-0.1,0.4l5.9,2.9c-2.3,0.1-4.5-0.3-6.6-1.2c-2.9-1.1-5.6-2.8-7.9-4.9c-0.9-0.9-1.9-1.7-2.9-2.6c-0.5-0.5-1.1-0.9-1.7-1.3
	c1.9,3.2,3.3,6.8,6.6,9.1c-4.4-1.4-7.3-4.9-11.3-7.1c1.4-1.2,2.6-2.7,4-3.3c1.6-0.7,3.5-0.5,4.9,0.7l-2.3-0.3l-0.1,0.4l4.1,0.9
	l-0.2,1c1.8-1.2,2.5-1.1,4.4,0c2.7,1.5,5.5,2.8,8.3,4.2c0.4,0.1,0.7,0.4,0.9,0.7l-4.8-1.7L184,176z"/>
<path class="st0" d="M37.9,202.5l-1.7-1.3l1.1-0.3l-0.4-0.6c0.2,0,0.2-0.1,0.3-0.1c1.1,0.6,2.2,1.1,3.2,1.7c0.5,0.4,0.9,0.8,1.2,1.3
	c0.8,1.1,1.6,2.2,2.5,3.2l-1.7-3.2l0.4-0.2c0.6,1.1,1.2,2.2,1.8,3.3c0.6,1,1.3,2,2,3c0.7,0.8,1.6,1.4,2.2,2.2
	c0.4,0.5,0.6,1.1,0.6,1.8c0.3,3.3,2,6.1,3.6,8.8c0.8,1.1,1.7,2.2,2.6,3.2l0,0c-0.3,0-0.7,0.2-0.9,0.1c-0.7-0.6-1.4-1.3-1.9-2.1
	c-1.5-2.1-2.8-4.4-4.5-6.4l4,7.3c-2-0.7-2.6-2.2-3.5-3.7l0.8-0.2c0-0.1-0.1-0.2-0.1-0.3c-2-2.1-3.6-4.6-4.7-7.4
	c-0.3-0.7-1-1.1-1.5-1.7c-1.8-2.3-3.4-4.8-4.7-7.4C38.5,203.2,38.2,202.8,37.9,202.5L37.9,202.5z"/>
<path class="st0" d="M110.7,180.7c1.1-0.3,2.3-1,3.2-0.8c3.2,0.7,6.7,0.6,9.8,2.2l-0.7-0.8l0.1-0.3c1.5,0.4,3,0.9,4.5,1.4
	c3,1,5.2,3.2,7.1,5.6c0.9,1.2,2,2.2,2.9,3.3c0.2,0.3,0.5,0.6,0.6,0.9l-0.2,0.2l-5.5-4.2l-0.2,0.3l2.1,2.3l-0.4,0.4
	c-1.3-1.1-2.5-2.3-3.9-3.4s-2.7-2.2-4.2-3.3l-0.2,0.5c-0.8-0.2-1.6-0.4-2.5-0.6c-0.4-0.2-0.9-0.2-1.3-0.2c-1.6,0.6-2.6-0.4-3.8-1.1
	c-2.3-1.4-4.8-2.6-7.6-2.2L110.7,180.7z"/>
<path class="st0" d="M164,160.7l4-2c0.2-0.4,0.3-0.9,0.6-1.1c3.8-2.2,7.7-4.3,11.5-6.4c0.2-0.1,0.4-0.1,0.6,0
	c-1.5,1.9-3.5,3.4-5.8,4.2l2-1.7l-0.2-0.2c-1.4,1-2.7,2-4.1,2.9c-1,0.6-2,1.2-2.9,1.8c-0.3,0.2-0.4,0.6-0.6,0.9
	c-0.6,0.7-1.1,1.5-1.6,2.3l4.9-2.8l-0.7-0.8l1.2-0.2l0.4,1.8l1.5,0.1l-1.3,1.9l0.2,0.1l0.4-0.4c0,0.1,0.1,0.1,0.1,0.2
	c-0.2,1.3-1.5,1.3-2.3,1.5c-1.6,0.4-3.3,0.7-5,0.9c-0.3,0-0.6,0-0.9,0l1-0.8l-3.6,0.6l-0.1-0.2l2.1-1l-0.1-0.2l-8.4,3.1l-0.2-0.5
	l10.8-7.5l0.2,0.2L164,160.7z"/>
<path class="st0" d="M189.9,160.6l0.9-1.4c-1.6,0.8-3,2.1-5.1,1.2l4.9-2.6c1.8,0.9,2.4-0.9,3.6-1.4c1.3-0.6,2.5-1.2,3.7-2
	c2.7-1.6,5.4-3.3,8.2-5v0.8l4.7-3.4l0.3,0.4l-3.7,3.2c-1.3,1.1-2.6,2.3-3.9,3.4c-0.6,0.5-1.2,1-1.8,1.5c-1.4,1-2.2,2.5-3.7,3.4
	c-1.3,0.8-2.7,1.4-4.3,1.6C192.4,160.6,191.2,160.6,189.9,160.6z"/>
<path class="st0" d="M228.3,130.5c0,0.3,0.2,0.8,0,1c-1.2,1.9-2.9,3.4-5,4.3c-2.4,0.8-3.6,2.9-5.6,4c-2,1.3-3.7,2.8-5.2,4.7
	c-1.7,2.1-4.2,3.4-6.8,3.7l-0.2-0.3l4.1-3.2l-0.2-0.3c-2.5,1.9-4.8,4-7.8,4.5c0,0.6,0.1,1-0.1,1.2c-2.8,2.4-5.9,4.4-9.2,6
	c-0.2,0-0.4,0-0.5,0c0.9-0.7,1.6-1.2,2.2-1.8c2.1-1.7,4.2-3.6,6.4-5.2c2.5-1.8,5.1-3.4,7.6-5.1c0.5-0.4,1.1-0.7,1.6-1
	c1.1-0.3,2.2-0.7,3.2-1.1c2.1-1.3,4-2.7,6-4.2c2.8-2,5.5-4.1,8.3-6.2C227.6,131.1,228,130.8,228.3,130.5L228.3,130.5z"/>
<path class="st0" d="M170.8,148.8c2.5-3.5,12-8.4,13.9-7.1l-1.6,1.5c0.3-0.1,0.6-0.2,0.9-0.3c1.5-0.9,3-1.8,4.6-2.6
	c2.4-1,4.9-1.8,7.4-2.7c0.4-0.1,0.8-0.2,1.2-0.2l0.1,0.3c-0.9,0.6-1.9,1.2-2.9,1.8c-3.7,2.5-8.1,3.6-12.1,5.3
	c-3.4,1.4-6.9,2.6-10.4,3.9C171.5,148.8,171.1,148.8,170.8,148.8z"/>
<path class="st0" d="M167.4,169.4c-1.1,1-2.1,1.9-3.1,2.7c-0.2,0.2-0.8,0.1-1.1,0c-3-0.8-6-1.7-9.1-2.5c-1.1-0.2-2.2-0.4-3.3-0.5
	l-3.4-0.5v-0.3c0.6-0.1,1.2-0.2,1.8-0.3l7.3-1c0.1,0,0.2-0.1,0.2-0.1c1.6,1.4,3.6,0.6,5.6,1l-2.6,1.3l0.1,0.3
	c1.1-0.4,2.1-0.7,3.1-1.1s2.3-0.6,3.1,0.7C166.3,169.4,166.9,169.3,167.4,169.4z"/>
<path class="st0" d="M140.6,135c0.4-0.6,0.7-1.3,1.1-1.9c0.4-0.5,0.6-1.1,0.6-1.8c-0.1-0.7,0.8-1.6,1.5-2.2c1.3-1.2,2.7-2.3,4.1-3.5
	l-1.3-0.1c1.8-1.4,3.2-3.2,5.6-3.8c-1.4,6.3-5.3,10.4-10.3,13.7l5.6-5.2l-0.3-0.3l-6.2,5.2L140.6,135z"/>
<path class="st0" d="M243.8,131.4l-1,0.1l1.5-2.5l-0.6-0.2c1.7-4,3.4-8,5.1-12l0.2,0.1l0.1,0.8l0.3,0.1c1.5-4,3-8,4.5-12
	c0.1,3.6,0.1,7-2.1,10.1c-1.1,1.5-2,3.1-2.9,4.8c-1.2,2.1-2.4,4.3-3.6,6.5c-0.2,0.5-0.3,0.9-0.4,1.4l0.3,0.2
	c0.3-0.2,0.7-0.5,0.9-0.8c1.1-1.7,2.3-3.5,3.5-5.2c-1.6,3.1-3,6.3-5.7,8.7L243.8,131.4z"/>
<path class="st0" d="M35.7,180.7l1.4,0.5l3.1-3.9l-0.2,2.8h0.3l0.6-2.5l0.3,0.1l-0.2,1.8h0.1L42,177c0.8,0.7,1.5,1.6,2.2,2.5
	c0.2,0.3-0.4,1.4-0.9,1.7c-1.2,0.8-2.6,1.6-3.9,2.2c-1.5,0.7-3,1.4-4.5,2.1l-0.2-0.2l4.5-3.7l-0.2-0.4l-7.1,4.7l-0.1-0.1
	c1-1.2,1.9-2.3,2.9-3.5C35,181.8,35.4,181.2,35.7,180.7L35.7,180.7z"/>
<path class="st0" d="M243.8,131.4L243.8,131.4l0.6-0.2c-1.5,3.9-3.7,7.6-6.4,10.9l0,0c-1.1,1.2-2.6,2-4.3,2c0.5-0.6,0.9-1.1,1.3-1.6
	c0.8-0.9,1.7-1.7,2.5-2.6c0.6-0.7,1.6-1.4,1.7-2.2c0.1-1.4,1-2.1,1.6-3C241.7,133.5,242.7,132.4,243.8,131.4z"/>
<path class="st0" d="M39.6,175.8c0.2,1.3-0.5,2.5-1.7,3c-0.9,0.2-1.4,0.4-1.7,1.3c0,0.2-0.4,0.4-0.5,0.6l0,0
	c-1.1,0.8-2.2,1.6-3.2,2.5c-0.9,0.7-1.7,1.5-2.5,2.2l-0.2-0.2c0.2-0.5,0.4-0.9,0.7-1.4c1-1.5,2-3,3-4.5c0.1-0.3,0.1-0.6-0.1-0.8
	c-0.4-1-0.2-2.2,0.6-2.9c0.2,1,0.3,1.8,0.4,2.6c0.1,0.3,0.2,0.7,0.4,0.8s0.6-0.2,0.8-0.3c0.4-0.3,0.8-0.6,1-0.7
	c0.5-0.9,0.9-1.5,1.3-2.2c0.2,0.1,0.4,0.2,0.6,0.3l0.7-1l0.6,0.9L39.6,175.8z"/>
<path class="st0" d="M121.1,136.6c-2,4.2-5.7,7-8.5,10.4l-0.3-0.2l1.2-1.9l-0.2-0.1l-2.5,3.4l-0.8-0.9l-1.5,1.4l-0.2-0.2
	c1-2.5,3-4.1,4.9-5.8l-2.6,3.6l0.2,0.2c0.4-0.6,0.9-1.2,1.4-1.7c0.4-0.3,0.8-0.5,1.3-0.6c0.3-0.1,0.7-0.3,0.8-0.5
	c0.6-1.9,2.5-2.8,3.7-4.2C118.9,138.4,120,137.5,121.1,136.6z"/>
<path class="st0" d="M150.2,147.4c-1.7,4.5-5.6,5.5-9.6,6.1l-0.3-0.4c0.4-0.4,0.9-0.8,1.3-1.1s1-0.8,1.5-1.2l0.4,0.6
	C146.4,147.7,148,147.7,150.2,147.4z"/>
<path class="st0" d="M238,142.1c0.8-0.5,1.5-1.1,2.1-1.7c1.1-1.4,2.3-2.6,3.6-3.8c1.2-1,1.8-2.6,2.9-4.2c0,0.5,0.1,0.8,0,1
	c-1.9,2.6-3.8,5.2-5.7,7.7c-0.3,0.4-0.5,0.7-0.8,1.1l-0.7-0.2c0.1,0.3,0.3,0.6,0.3,0.7c-0.2,0.6-0.5,1.2-0.9,1.6
	c-1.7,1.7-3.4,3.3-5.1,4.9l-0.3-0.3l2.9-3l-0.2-0.2l-2.6,2.3l-0.2-0.3c1.6-1.6,3.2-3.1,4.7-4.7C238.2,142.8,238,142.3,238,142.1
	L238,142.1z"/>
<path class="st0" d="M181.6,165.9c-0.8,1.8-2.7,2.9-4.7,2.6c-1.6-0.2-3.1-0.2-4.7-0.4C173.1,165.9,178.7,164.6,181.6,165.9z"/>
<path class="st0" d="M99.7,181.2l-0.3,0.8l3.8,1.8c-1.3,1.3-4.6,0.5-5.1-1c-2.3,1.5-4.6-0.3-7.1,0C92.3,181.6,97.4,180.7,99.7,181.2
	z"/>
<path class="st0" d="M191,170.7c-2,1.6-4.1,1.4-6.2,1.1c-1.6-0.3-3.2-0.4-4.8-0.7c-0.6-0.2-1.1-0.5-1.4-1
	C182.7,169.5,186.9,169.7,191,170.7z"/>
<path class="st0" d="M211.4,150.7c-1.1,0.6-2.1,1.1-3.2,1.7c-1,0.6-2.1,1.2-3.1,1.7c1.4-1.2,2.8-2.4,4.2-3.6
	c0.3-0.2,0.9-0.1,1.4-0.3c0.8-0.4,1.5-0.8,2.1-1.4c1.7-1.5,3.2-3.3,5-4.7c1-0.6,2.1-1.1,3.2-1.4l0.2,0.3c-1,1.1-2,2.1-3.1,3.1
	C215.9,147.7,213.6,149.2,211.4,150.7L211.4,150.7z"/>
<path class="st0" d="M220,155.8l8.7-5.2l-0.1-0.4l-1.2,0.2l-0.2-0.2c2.5-2,4.8-4.2,7.9-5.6C234.4,147.2,223.4,155.5,220,155.8z"/>
<path class="st0" d="M44.8,203.8l1.8,1.8l0.6-0.8l-0.9-1.5l-0.9-3.8c1.7,1.1,2.1,2.7,2.5,4.3s0.3,3.2,0.6,4.8
	c0.3,0.9,0.6,1.7,1.1,2.5l-0.4,0.2l-5-6.9L44.8,203.8z"/>
<path class="st0" d="M72.4,187.4h5.3v0.2l-1.4,0.8c2.9,0.1,5.9-0.7,8.4,1.3C80.5,190.7,76,189.8,72.4,187.4z"/>
<path class="st0" d="M198,196.5l17.2,2.5c-2,1.2-4.2,0.9-6.4,0.5c-3.2-0.7-6.4-1.6-9.6-2.4C198.8,196.9,198.4,196.7,198,196.5z"/>
<path class="st0" d="M143.3,196.3l-8.6-9.6l0.2-0.2c1.5,1,2.9,1.9,4.4,2.9c0.1,0.1,0.2,0.2,0.4,0.3C142.2,191,143,193.5,143.3,196.3
	z"/>
<path class="st0" d="M211.4,150.7l1.1-0.3l0.2,0.3c-1.1,0.9-2.2,1.9-3.3,2.7c-2.1,1.6-4.1,3.3-6.3,4.6c-1.3,0.6-2.8,1.1-4.2,1.4
	l-0.2-0.3c2.2-1.4,4.4-2.9,6.6-4.3c1.9-1.2,3.9-2.4,5.8-3.7C211.2,151.1,211.3,150.9,211.4,150.7L211.4,150.7z"/>
<path class="st0" d="M104.5,194.2l-11-4.9l0.2-0.4c3,0.8,5.8,2,8.5,3.5l0.2-0.3c-0.6-0.3-1.1-0.6-1.7-1c-0.6-0.4-1.2-0.8-1.7-1.3
	c1,0.2,2,0.3,3,0.6C104.2,191,104.7,191.6,104.5,194.2z"/>
<path class="st0" d="M64.8,165.5c-0.6,0.6-0.5,1.8-1.7,1.7c-0.1,0.5-0.2,0.9-0.2,1.4c-0.4,0.1-0.8,0.2-1.1,0.5
	c-1.4,1.4-2.7,2.8-4.1,4.1c0.6-2.2,2.7-3.3,4-5l-0.3-0.3l-0.5,1l-0.3-0.2c0.1-0.2,0.2-0.4,0.3-0.6c0.7-0.6,1.2-1.5,1.3-2.4
	c0.2-0.9,1.2-1.8,2-2.5c0.9-0.7,1.8-1.4,2.8-2L64.8,165.5z"/>
<path class="st0" d="M127.1,198.2l-0.2-1.2c4.7,3.1,7.8,7.4,10.9,11.7c-0.8-0.6-1.5-1.1-2.2-1.7c-0.7-0.7-1.5-1.3-2.1-2.1
	C131.2,202.7,129.1,200.4,127.1,198.2L127.1,198.2z"/>
<path class="st0" d="M159.9,213.3c-4.3-4.1-8-8.8-11.1-13.8C150.7,200.6,158.5,210.4,159.9,213.3z"/>
<path class="st0" d="M96.1,159.7c0.1-0.1,0.1-0.3,0.2-0.4c2.6-2.4,5.2-4.8,7.8-7.1c1-0.7,2-1.4,3.1-2c0,0.4,0,0.7-0.1,0.8
	c-0.8,0.8-1.7,1.5-2.5,2.3l-3.2,2.9c-1.3,1.1-2.5,2.3-3.8,3.4c-0.5,0.3-1,0.5-1.5,0.6L96.1,159.7z"/>
<path class="st0" d="M146.2,142.1c2.5-4.4,6.1-7.6,10.2-10.4l0.3,0.3l-10,10.5L146.2,142.1z"/>
<path class="st0" d="M187.6,168.9l9.8-1.8l0.1,0.3c-0.1,0.1-0.2,0.2-0.3,0.3c-0.1,0.1-0.3,0.1-0.4,0.1l0.2,0.2
	c-0.2,0.4-0.4,0.9-0.8,1.1C193.4,170.7,190.5,169.9,187.6,168.9z"/>
<path class="st0" d="M148.6,194.1c3.3,3,7.1,5.4,8.8,9.9c-0.3-0.2-0.6-0.4-0.9-0.6c-2.4-2.3-4.7-4.5-7.1-6.8
	C148.7,195.9,148.4,195,148.6,194.1z"/>
<path class="st0" d="M45.7,177.2l2-5.6l0.8,0.7l2.3-3.7l-1,0.6l-0.3-0.2l2.1-2.6c1.1,3.4-1.8,5-2.8,7.3c-0.7,1.3-1.6,2.6-2.6,3.7
	L45.7,177.2z"/>
<path class="st0" d="M184.9,166.1l-0.8,0.5c0,0,0,0.1,0,0h7.8l0.1,0.4l-3.5,1c-0.5,0.1-1,0.2-1.5,0.4c-1.2,0.6-2.2,0.1-3.3-0.2
	c-0.1,0-0.2-0.4-0.3-0.7l-0.8,0.2c-0.1-0.1-0.2-0.2-0.2-0.2c0.2-0.3,0.4-0.5,0.6-0.8l-0.3-0.6l2.2-0.4L184.9,166.1z"/>
<path class="st0" d="M44.7,178.6c-1.1-0.7-1.5-2.1-0.9-3.2c1.3-2.6,2.7-5.1,4.2-7.6c0.2-0.4,1-0.4,1.5-0.5
	C47,170.8,45.1,174.4,44.7,178.6z"/>
<path class="st0" d="M147.4,156c-2,2.3-3.9,4.7-5.9,7c-0.2,0.2-0.5,0.4-0.4,0.6c0.1,1.6-1.1,2.1-2.2,2.8c-0.6,0.4-1.2,0.8-1.9,1.1
	c3.3-4,6.1-8.4,10.1-11.7L147.4,156z"/>
<path class="st0" d="M189.8,172l4.6-0.5c0.2,0,0.4,0,0.6-0.1c1.7-1.5,3.9-2.2,6.1-2l-2,1.8c-1,0-2.2,1.3-3.7,0.3l0.6,0.9h-6.3
	L189.8,172z"/>
<path class="st0" d="M158.3,203.5l8.5,11.5c-2.1-1.2-3.8-3-5-5.1c-1.2-2.1-2.5-4.2-3.8-6.3L158.3,203.5z"/>
<path class="st0" d="M118.8,222.3c3.5,1.6,6.9,3.2,9.3,6.6C123.9,228,121.5,224.9,118.8,222.3z"/>
<path class="st0" d="M228.5,133.5c0,0.6-0.2,1.1-0.4,1.6c-1.5,2.1-3.1,4.1-5.7,5c-0.4,0.2-0.8,0.3-1.2,0.4l6.7-7.3L228.5,133.5z"/>
<path class="st0" d="M48.9,195.2c1.7,1.8,3.5,3.5,5.1,5.3c0.5,0.6,0.9,1.2,1.2,1.9l-8.4-6.2L48.9,195.2L48.9,195.2z"/>
<path class="st0" d="M94.7,142.8c1.4-2.4,2.8-4.9,4.9-6.8l0.4,0.2c0,0.3-0.1,0.7-0.2,1c-0.3,0.9-0.6,1.9-1,2.8s-0.6,2.1-2.1,2
	c-0.6,0-1.2,0.7-1.8,1.1L94.7,142.8z"/>
<path class="st0" d="M177.4,195.4l-8.4-8.8l0.3-0.3l2.1,1.9c1.5,1.3,3.2,2.5,4.6,4c0.7,0.9,1.4,1.9,1.9,2.9L177.4,195.4z"/>
<path class="st0" d="M193.1,199.1c-0.5-0.1-1-0.3-1.5-0.4c-1.5-0.5-3-1.1-4.5-1.6c-1.8-0.6-2.6-2.2-3.4-3.8
	C187.3,194.4,189.6,197.7,193.1,199.1z"/>
<path class="st0" d="M251.6,120.7c-0.2,2-7.1,14.2-9.2,15.7C245.5,131.2,248.6,126,251.6,120.7z"/>
<path class="st0" d="M108.2,177.4c-3.5,1-6.8,2.8-10.6,2.6C100.9,178.3,104.5,177.4,108.2,177.4z"/>
<path class="st0" d="M142.8,163.8c2.7-3.7,6.9-5.4,10.3-8.1l0.4,0.4c-0.3,0.2-0.7,0.4-1,0.6C149.2,159,146.5,162.2,142.8,163.8z"/>
<path class="st0" d="M167.2,141.3c-2.6,2.3-5.4,4.3-8.5,5.9l-0.2-0.3l3.9-3.2c0.1,0.2,0.1,0.1,0,0.1c-0.1-0.1-0.3-0.1-0.4-0.1
	C163.4,141.9,165.4,141.9,167.2,141.3z"/>
<path class="st0" d="M37.9,202.5c0.1,0.3,0.2,0.7,0.3,1c0.8,2.3,1.7,4.6,2.5,6.9c0.1,0.4,0.2,0.7,0.2,1.1c-1.9-1.2-1.8-3.1-2.1-4.9
	c-0.7,0.4-1,0.4-1.1-0.5s-0.5-1.9-0.7-2.9c0-0.3,0.1-0.6,0.2-0.8L37.9,202.5L37.9,202.5z"/>
<path class="st0" d="M85.2,184.5c0.3-0.2,0.6-0.6,0.9-0.7c2.3-0.7,4.6-0.3,7.2,0.5C90.7,185.4,87.8,185.4,85.2,184.5z"/>
<path class="st0" d="M120,203.5c0.8,0.7,2,1.1,2,2.5c0,0.4,0.6,0.9,0.9,1.2c1.2,1.2,2.4,2.3,3.6,3.5c0.5,0.6,0.7,1.3,0.7,2
	C124.4,210,121.7,207.2,120,203.5z"/>
<path class="st0" d="M158.1,166.8c1.3-1.3,6.1-2.6,9.8-2.4c-0.4,0.4-0.6,0.9-0.8,0.9c-1.9,0.3-3.8,0.5-5.7,0.8
	c-0.3,0-0.5,0.1-0.7,0.3C159.6,167.2,159.4,167.2,158.1,166.8z"/>
<path class="st0" d="M199.1,201.6c-3.2,0.4-6.3-0.3-9.1-1.8C193.1,199.9,196.2,199.9,199.1,201.6z"/>
<path class="st0" d="M237.8,150l5.8-7.1l0.3,0.3C242.7,145.9,241.4,148.8,237.8,150z"/>
<path class="st0" d="M114.4,195.1c1.6,0.7,2.7,2.2,2.7,4c-0.6,0.5-1.1,0.4-1.6-0.3c-0.8-1.2-1.6-2.3-2.4-3.5
	c-0.1-0.3-0.3-0.6-0.3-0.9L114.4,195.1L114.4,195.1z"/>
<path class="st0" d="M183.8,128.1c-1.6,3.8-4.9,5.9-8.2,7.9L183.8,128.1z"/>
<path class="st0" d="M222.1,171.4l8.8-2.7l0.1,0.4c-2.4,1.4-5.1,2.4-7.8,3c-0.3,0.1-0.7-0.2-1.1-0.3L222.1,171.4z"/>
<path class="st0" d="M174.5,162.5l9.7-4.7l-0.9,1.9c-2.4-0.2-4.2,1.3-6.1,2.4c-0.8,0.4-1.7,0.7-2.5,1L174.5,162.5z"/>
<path class="st0" d="M114.4,195.1L114.4,195.1c-0.8-0.6-1.5-1.2-2.3-1.8c-1-0.6-1.7-1.6-1.9-2.8c2.7,0.9,4.2,2.9,5.6,5.1
	L114.4,195.1z"/>
<path class="st0" d="M236.1,165.5c-4,1.7-8.2,3.1-12.4,4.2l-0.1-0.4l12.4-4.2L236.1,165.5z"/>
<path class="st0" d="M135.6,132.7c0-3.2,2.3-4.4,4.4-5.7C138.7,128.9,137.9,131.2,135.6,132.7z"/>
<path class="st0" d="M224.1,136.2c-2.6,2.2-4.2,5.4-7.4,6.9C218.9,140.5,220.9,137.7,224.1,136.2z"/>
<path class="st0" d="M187,207.6c-3-0.4-4-2.7-5.2-4.8C184,203.9,185.8,205.5,187,207.6z"/>
<path class="st0" d="M130.6,204.2c-3.4-0.5-4.3-2.9-5.5-5.2l0.3-0.3L130.6,204.2z"/>
<path class="st0" d="M132.9,219.2c-2.1-1.6-3.6-3.7-4.5-6.2C129.8,213.4,131.6,215.8,132.9,219.2z"/>
<path class="st0" d="M85.3,187.6c-2.4,0.4-4-1.4-6-2C81.4,185.7,83.8,184.8,85.3,187.6z"/>
<path class="st0" d="M196,176.7h-3.3l-0.3,1.1l-4.3-2.5l0.2-0.3c1.3,0.3,2.5,0.6,3.8,0.8s2.6,0.5,3.9,0.7L196,176.7z"/>
<path class="st0" d="M140.3,206.1c-2.2-2.7-4.5-5.3-6.9-8.2C135,198.2,139.4,203.5,140.3,206.1z"/>
<path class="st0" d="M115.4,178.8l4.3-1l1.3,2.1l-5.5-0.5L115.4,178.8z"/>
<path class="st0" d="M143.6,212.8l-5.4-7.5C140,205.8,143.6,210.8,143.6,212.8z"/>
<path class="st0" d="M117.2,160.2c0.9-0.9,2.2-1.6,2.2-2.2c-0.1-1.4,1.3-1.5,1.7-2.4l0.2,1l1.3-1l0.3,0.3c-1.7,1.6-3.3,3.1-5,4.6
	C117.9,160.4,117.5,160.2,117.2,160.2z"/>
<path class="st0" d="M144.5,144.6c-0.3,0.2-0.7,0.4-1,0.5c-0.3,0.1-0.6,0.1-0.9-0.1c-0.1,0-0.1-0.5,0-0.7c1.2-1.6,2.4-3.1,3.6-4.6
	l0.3,0.1L144.5,144.6L144.5,144.6z"/>
<path class="st0" d="M143.5,137.6l-0.6-0.7l4.9-5.2l0.3,0.2c-0.3,1.2-1,2.3-2,3.2c-0.7,0.6-1.4,1.2-2.2,1.8
	C143.7,137,143.6,137.3,143.5,137.6z"/>
<path class="st0" d="M152.3,159.8c1.1-0.7,1.6-2.3,3-1.9l5.2-3.5l0.2,0.4C158.5,157.3,155.2,158.3,152.3,159.8z"/>
<path class="st0" d="M39.6,175.9c0-2,0.9-3.9,2.5-5.2c0,0.5,0,1-0.2,1.4c-0.5,1.4-1,2.7-1.6,4.2L39.6,175.9L39.6,175.9z"/>
<path class="st0" d="M198.8,185.4c-3.1,0.3-5.7-1.1-8.5-2.2l8.6,1.7L198.8,185.4z"/>
<path class="st0" d="M100.7,189.5l-6.8-1.4l0.1-0.4C96.3,187.2,98.8,187.9,100.7,189.5z"/>
<path class="st0" d="M178.5,204c2.3,1.1,3.1,3.1,3.7,5.2C180.5,207.9,179.2,206.1,178.5,204z"/>
<path class="st0" d="M201,189.5c-2.2,0.1-4.4-0.2-6.4-0.9C196.6,187.7,199.9,188.2,201,189.5z"/>
<path class="st0" d="M144.2,124.2l-4.5,5.1l-0.3-0.2c1.3-1.8,1.9-4.3,4.3-5.3L144.2,124.2z"/>
<path class="st0" d="M70.9,182.8c1.3-1,2.4-1.8,3.6-2.6c0.2-0.1,0.5-0.1,0.7,0.1c0.1,0.1,0.2,0.4,0.1,0.6
	C75.1,181.9,72.2,183.3,70.9,182.8z"/>
<path class="st0" d="M176.8,183.9c-3.1-1.3-6.8-4-7-5.3l7.2,5.1L176.8,183.9z"/>
<path class="st0" d="M144,194.4c2.4,1.4,4.1,3.3,4.4,6.2L144,194.4z"/>
<path class="st0" d="M29.1,203.1l-0.7-4.6l1.5-0.2l-0.9-0.6l1.3-0.7l-0.8,6.2L29.1,203.1z"/>
<path class="st0" d="M212.9,202.7c-1.3,0-2.6,0-4,0c-0.8,0-1.6,0.4-2.3,0.4c-1.6,0.1-3.1,0-4.7-0.2l10.9-0.8L212.9,202.7z"/>
<path class="st0" d="M218,168l2.4-1.6l0.2,0.3l-0.6,0.4c1.2,0,2-1.7,3.6-0.9l-1.5,0.9l0.8,0.1c-1.4,1.4-3.3,0.1-4.8,1L218,168z"/>
<path class="st0" d="M108.4,195.7c-2.7-0.6-3.5-1.6-3.4-4.2C106.3,192.9,107.8,193.7,108.4,195.7z"/>
<path class="st0" d="M47.1,189c1-1.5,4.8-1.5,6.1,0H47.1z"/>
<path class="st0" d="M163.6,173.9l-6.3-1.2C158.9,171.6,162.5,172.3,163.6,173.9z"/>
<path class="st0" d="M50.2,166.3l4.8-4.7l0.2,0.2c-0.8,2.3-2.8,3.5-4.6,4.8L50.2,166.3z"/>
<path class="st0" d="M181.3,155.5l-6.4,4.9C176.4,158,178.2,156,181.3,155.5z"/>
<path class="st0" d="M255.5,96.8c-0.9,2.3-1.8,4.7-2.7,7c-0.5-1.6,0.2-3.7,2.4-7.2L255.5,96.8z"/>
<path class="st0" d="M112.4,187.3l1.1,1.8l-0.2,0.2l-5.1-3.3l0.2-0.4c0.7,0.3,1.5,0.5,2.2,0.8S111.8,187.1,112.4,187.3z"/>
<path class="st0" d="M97.2,185.9c-0.8,0.6-4.4,0.3-5.2-0.4C93.9,184.6,95.9,184.7,97.2,185.9z"/>
<path class="st0" d="M139.3,148.3c0.2-0.6,0.3-0.9,0.4-0.9c1,0.1,1.3-0.6,1.8-1.3c0.2-0.3,0.6-0.5,1-0.6c0.2,0,0.6,0.4,0.6,0.7
	c0,0.5-0.2,1.2-0.5,1.3C141.4,147.9,140.4,148.1,139.3,148.3z"/>
<path class="st0" d="M207.7,185.2h6.8C212.6,186.4,209,186.3,207.7,185.2z"/>
<path class="st0" d="M188.5,185.7l6.9,1.8C192.6,188.4,190.5,187.1,188.5,185.7z"/>
<path class="st0" d="M162.6,133.2c-0.6,2-2.1,3.2-3.9,4.5C159.2,135.4,161,134.4,162.6,133.2z"/>
<path class="st0" d="M105.6,189.8L104,188l0.1-0.3c1.1,0.4,2.2,0.8,3.2,1.4c0.7,0.4,0.4,1.3-0.1,1.6L105.6,189.8L105.6,189.8z"/>
<path class="st0" d="M147.8,205.9c-1.7-1.5-3.1-3.4-4.2-5.4l0.3-0.2c1.5,1.7,2.9,3.5,4.4,5.2L147.8,205.9z"/>
<path class="st0" d="M69.7,168.9c-0.8,1.9-1.8,3.7-4.1,4.3l3.8-4.5L69.7,168.9z"/>
<path class="st0" d="M115.4,176.8c0.3-1.6,1.5-1.5,2.2-1.9c0.8-0.3,1.7-0.4,2.6-0.4l0.1,0.4L115.4,176.8z"/>
<path class="st0" d="M59.6,189.3c-1.9,0.9-3.8,0.4-5.6-0.3C55.9,188.3,57.7,188.8,59.6,189.3z"/>
<path class="st0" d="M107.1,179.8l6.3-2.2l0.2,0.4c-1.9,1.2-4,1.9-6.3,2.1L107.1,179.8z"/>
<path class="st0" d="M144.5,144.6c0.3,0,0.6-0.1,0.8-0.2c0.8-0.7,1.5-1.4,2.4-2c-0.1,1-0.2,1.8-1.4,2.1c-0.9,0.3-1.4,1.4-2.1,2.1
	l-0.4-0.3L144.5,144.6L144.5,144.6z"/>
<path class="st0" d="M254.7,106.4c0.1-1.2,0.1-2.4,0.3-3.6c0-0.2,0.4-0.4,0.6-0.5s0.4,0.3,0.4,0.5
	C256,104.1,256.4,105.5,254.7,106.4z"/>
<path class="st0" d="M132.2,206.5l5.8,5.4l-0.2,0.2c-1.8-1.9-4.5-3-5.9-5.4L132.2,206.5z"/>
<path class="st0" d="M110.4,140.6c0-0.2-0.1-0.5,0.1-0.7c1.4-2,2.9-4.1,4.4-6C113.9,136.4,112.4,138.7,110.4,140.6L110.4,140.6z"/>
<path class="st0" d="M162.2,131.1l3-3.9C165.2,129.5,164.2,130.9,162.2,131.1z"/>
<path class="st0" d="M139.7,142.3l3.1-2.5l0.4,0.3l-2.9,3.6L139.7,142.3z"/>
<path class="st0" d="M56.5,217.9l3.8,7.4l-0.4,0.2l-3.8-7.4L56.5,217.9z"/>
<path class="st0" d="M48.9,195.2c-1.4,0-2.9,0.1-4.3,0c-0.4,0-0.9-0.4-1.3-0.7l0.1-0.4l3.3-0.3v0.3l-2.2,0.4L48.9,195.2L48.9,195.2z
	"/>
<path class="st0" d="M161.8,129l-3.7,5.6l-0.5-0.3l3.8-5.6L161.8,129z"/>
<path class="st0" d="M184,191.2l5.9,3.1C188.4,194.5,185.2,192.8,184,191.2z"/>
<path class="st0" d="M218.8,152c-0.5,2.4-2.7,3-4.4,4.1L218.8,152z"/>
<path class="st0" d="M109.2,153.8l-4.6,4.5l-0.5-0.5l4.4-4.8L109.2,153.8z"/>
<path class="st0" d="M135.4,219.4c-1.3-1.8-2.6-3.6-3.9-5.4c-0.2-0.2-0.3-0.6-0.2-0.9c0.3,0.2,0.5,0.5,0.7,0.7
	c1.2,1.5,2.3,3,3.5,4.4C136,218.8,135.8,219.1,135.4,219.4L135.4,219.4z"/>
<path class="st0" d="M164.3,175.8c0.7-0.8,1.2-0.4,1.7,0s1.1,1,1.7,1.5s0.9,0.7,1.4,1.1l-0.2,0.3L164.3,175.8z"/>
<path class="st0" d="M204,199.4c-2.2,0.3-4.4-0.3-6.2-1.7L204,199.4z"/>
<path class="st0" d="M134.8,197.6l-4.3-4.7l0.2-0.2C132.5,194,134.1,195.4,134.8,197.6z"/>
<path class="st0" d="M144.3,190.4c1,0.8,2,1.6,3,2.5c0.3,0.2,0.2,0.9,0.3,1.3l-0.3,0.1l-3.2-3.6L144.3,190.4z"/>
<path class="st0" d="M152.1,217.5c-0.6-0.8-1.6-1.2-0.7-2.2c0.1-0.1-0.1-0.5-0.2-0.7c-0.2-0.6-0.7-1.2,0.1-1.9
	c0.3,0.7,0.5,1.5,0.7,2.3C152.1,215.8,152.1,216.7,152.1,217.5z"/>
<path class="st0" d="M143.2,213.8c-1.7-1.1-2.7-2.8-3.9-4.4l0.4-0.3l3.8,4.4L143.2,213.8z"/>
<path class="st0" d="M117.2,158.6c-0.9,1.6-2.5,2.7-4.4,2.9l4.2-3.1L117.2,158.6z"/>
<path class="st0" d="M138.5,216.6l-3.5-3.4l0.2-0.3c1.5,0.7,2.7,1.9,3.5,3.4L138.5,216.6z"/>
<path class="st0" d="M105.1,217.1c-1.9-0.9-3-2.6-4-4.4l0.3-0.2L105.1,217.1z"/>
<path class="st0" d="M81.6,148.7c-1.6,1.1-3,2.5-5,3l-0.2-0.4l5.1-2.9L81.6,148.7z"/>
<path class="st0" d="M163.3,151.7c-1.2,1.7-3.3,2.2-5,3.2l-0.2-0.3l5-3.2L163.3,151.7z"/>
<path class="st0" d="M202,145.4l4.5-4l0.3,0.4l-4.5,4.1L202,145.4z"/>
<path class="st0" d="M135.7,153.9c0.6-2.1,1.5-2.9,4-3.3L135.7,153.9z"/>
<path class="st0" d="M102.7,150.4l4.8-4.9l0.2,0.2l-4.8,4.9L102.7,150.4z"/>
<path class="st0" d="M127.6,144c-1,1.6-2.4,2.9-4,3.9l3.7-4.2L127.6,144z"/>
<path class="st0" d="M246,140.7l2.7-5.6C248.8,136.4,247.5,139.3,246,140.7z"/>
<path class="st0" d="M205.4,149.1l-4.4,2.4l-0.2-0.3c1.3-1.1,2.5-2.3,4.4-2.4L205.4,149.1z"/>
<path class="st0" d="M151.3,141.4l-3.1,3.7c0-2,1.7-2.7,2.7-4L151.3,141.4z"/>
<path class="st0" d="M155.1,136.4L150,141l-0.2-0.3l5-4.7L155.1,136.4z"/>
<path class="st0" d="M134.4,129.6l2.6-4.5l0.5,0.3l-2.6,4.5L134.4,129.6z"/>
<path class="st0" d="M67.4,189.1l-5.6-0.2v-0.5c1.9,0.3,3.8-0.4,5.6,0.4V189.1z"/>
<path class="st0" d="M183,202.6c-2.1-0.5-2.8-1.9-3.6-3.3l0.3-0.3L183,202.6z"/>
<path class="st0" d="M42.9,201.2l-0.6,1.4l-1.7-3.2l0.3-0.3L42.9,201.2z"/>
<path class="st0" d="M193.3,162l-5.9,1.2l-0.1-0.5l5.9-1.1L193.3,162z"/>
<path class="st0" d="M56.4,158.3c0.1,0.2,0.3,0.4,0.2,0.5c-1.2,1.2-2.4,2.4-3.6,3.6l-0.4-0.4L56.4,158.3L56.4,158.3z"/>
<path class="st0" d="M56.7,161.4l3.1-4.2l0.5,0.3c-1,1.4-2.1,2.8-3.1,4.2L56.7,161.4z"/>
<path class="st0" d="M192.7,208.9L188,206l0.3-0.4l4.7,2.9L192.7,208.9z"/>
<path class="st0" d="M195.9,164.2l-4.7,1l-0.1-0.4l4.6-1.2L195.9,164.2z"/>
<path class="st0" d="M151.5,155.8c0.3-1.5,1.5-1.9,2.3-2.5c0.2-0.1,0.4,0,0.5,0.1c0,0.2,0,0.5-0.1,0.6
	C153.4,154.5,152.6,155.1,151.5,155.8z"/>
<path class="st0" d="M88.7,186.2c1.8-0.5,2.4-0.3,2.6,0.6H95v0.3c-1.2,0.1-2.4,0.1-3.6,0C90.5,186.9,89.6,186.6,88.7,186.2z"/>
<path class="st0" d="M189.8,182.1c1.6-0.4,3.3-0.1,4.6,0.8l-0.1,0.3L189.8,182.1z"/>
<path class="st0" d="M105.5,189.8l1.2,0.9c-2.1,0-3.1-1.4-4.3-2.2l0.2-0.3L105.5,189.8L105.5,189.8z"/>
<path class="st0" d="M87.6,145.8l-4.2,3.5l-0.3-0.3l4.2-3.5L87.6,145.8z"/>
<path class="st0" d="M53.2,167l2.5-3.3l0.5,0.4l-2.5,3.3L53.2,167z"/>
<path class="st0" d="M148.6,156.1c0.5-1.6,1.8-2.9,3.5-3.2L148.6,156.1z"/>
<path class="st0" d="M154.1,143.2c0.4-1.6,2-2.2,3-3.3l0.3,0.2c-1,1.1-2,2.2-2.9,3.3L154.1,143.2z"/>
<path class="st0" d="M125,150.6l3-3.6l0.3,0.2l-2.8,3.9L125,150.6z"/>
<path class="st0" d="M169.4,148.5c-0.8,1.6-2.4,1.5-3.7,1.8l-0.2-0.4L169.4,148.5z"/>
<path class="st0" d="M240.5,159.3l5.4-3.5C244.4,157.4,242.6,158.6,240.5,159.3z"/>
<path class="st0" d="M65.8,185.8l4.8,0.5v0.4c-1.7,0.8-3.2-0.4-4.8-0.4L65.8,185.8z"/>
<path class="st0" d="M167.3,194c2.1,1.2,0.7,3.1,1.6,4.4l-0.4,0.1L167.3,194z"/>
<path class="st0" d="M188.1,154.6l-5.4,3l-0.2-0.3l5.3-3L188.1,154.6z"/>
<path class="st0" d="M165.3,167.2l3.3-0.6C168.3,167.8,166.6,168.1,165.3,167.2z"/>
<path class="st0" d="M188.9,156.1l-4.4,2.9l-0.3-0.4l4.5-2.9L188.9,156.1z"/>
<path class="st0" d="M170.1,186c1.4,0.3,2.6,1.2,3.2,2.5l-0.3,0.4L170.1,186L170.1,186z"/>
<path class="st0" d="M193.2,192.2l-4.6-1.8l0.2-0.4l4.6,1.8L193.2,192.2z"/>
<path class="st0" d="M37.9,199.6c1.9-0.7,2-0.6,2.6,2L37.9,199.6z"/>
<path class="st0" d="M33.6,209.1l-0.5-4.4l0.6-0.1L34,209L33.6,209.1z"/>
<path class="st0" d="M204.2,144.9l3-2.9C207.4,143.3,206.4,144.3,204.2,144.9z"/>
<path class="st0" d="M136.2,205.1l-2.7-3.7l0.5-0.3l2.6,3.7L136.2,205.1z"/>
<path class="st0" d="M181.6,194.9l3.4,1.8l-0.3,0.6l-3.4-1.8L181.6,194.9z"/>
<path class="st0" d="M30.8,198.4l0.3-1.6l-0.3-0.2l1.1-0.6C32.5,197.5,32,198.4,30.8,198.4z"/>
<path class="st0" d="M222.3,149.7l3.4-2.9l0.3,0.4l-3.5,2.9L222.3,149.7z"/>
<path class="st0" d="M153.3,143.6c0.3,1-0.6,2-2.5,2.1L153.3,143.6z"/>
<path class="st0" d="M98.2,184.6l4.7,2.2l-0.2,0.4l-4.7-2.1L98.2,184.6z"/>
<path class="st0" d="M146.3,216.1l-2-3.8l0.5-0.2l1.8,3.9L146.3,216.1z"/>
<path class="st0" d="M148.9,223.1l-3.5-2C146.7,220.5,147.7,221.1,148.9,223.1L148.9,223.1z"/>
<path class="st0" d="M106.7,187.6l-4.2-1.7c1.6,0,3.1,0.5,4.4,1.3L106.7,187.6z"/>
<path class="st0" d="M211.8,191.5h-5.9v-0.2h5.9L211.8,191.5z"/>
<path class="st0" d="M144.6,147.4l2-2.6C146.2,147.3,146.2,147.3,144.6,147.4z"/>
<path class="st0" d="M164.4,148.6l4.2-2.8l0.3,0.4l-4.3,2.8L164.4,148.6z"/>
<path class="st0" d="M139.9,197.1l-3.3-3.8l0.2-0.2l3.6,3.5L139.9,197.1z"/>
<path class="st0" d="M181.2,212l-2.4-2.8l0.4-0.3c0.8,0.9,1.5,1.8,2.3,2.6C181.5,211.5,181.3,211.8,181.2,212L181.2,212z"/>
<path class="st0" d="M144.1,199.5l-2.6-3.2l0.4-0.3l2.7,3.1L144.1,199.5z"/>
<path class="st0" d="M110.4,177.1l3.7-1C113.6,177.3,112.1,177.9,110.4,177.1z"/>
<path class="st0" d="M114.5,192.5l-2.8-2.9C113.2,189.7,114.4,191,114.5,192.5z"/>
<path class="st0" d="M116.4,149.4l3-3.6l0.3,0.3l-3,3.6L116.4,149.4z"/>
<path class="st0" d="M172.9,145.7c-0.9,0.9-1.4,2.5-3.2,2L172.9,145.7z"/>
<path class="st0" d="M43.8,183.9l2.4-1.8l0.2,0.3C45.9,183.3,45.4,184.3,43.8,183.9z"/>
<path class="st0" d="M53.7,214.8l2,4.2l-0.4,0.2l-2-4.2L53.7,214.8z"/>
<path class="st0" d="M195.1,152l4.4-3.5l0.2,0.3l-4.4,3.5L195.1,152z"/>
<path class="st0" d="M118.3,129.3l-2.1,3.2l-0.3-0.2c0.4-1.3,1.1-2.4,2.1-3.3L118.3,129.3z"/>
<path class="st0" d="M96.8,162.1c0.6-1.7,1.4-2.4,2.9-2.4L96.8,162.1z"/>
<path class="st0" d="M182.6,184.7l3.5,1.9C184.9,186.7,183.9,186.3,182.6,184.7z"/>
<path class="st0" d="M130.9,205.8c-0.8,0.8-1.7,0.3-2.6-1.7L130.9,205.8z"/>
<path class="st0" d="M147.1,211.6l-2.2-3.5l0.4-0.2l2.1,3.5L147.1,211.6z"/>
<path class="st0" d="M84.3,184.8l-2.7-0.2C83.1,183.4,83.9,183.5,84.3,184.8z"/>
<path class="st0" d="M180,168.4l1.5-1.3c0.3,0.8-0.2,1.9,1.1,1.8l-2.5-0.1L180,168.4z"/>
<path class="st0" d="M132.9,144.4c-0.2,1.2-1.2,2-2.4,1.8L132.9,144.4z"/>
<path class="st0" d="M198.9,192.8l-2.9-1.4l0.1-0.3C197.2,191.4,198.4,191.4,198.9,192.8z"/>
<path class="st0" d="M31.5,202.6c-0.9-0.7-1-2-0.3-2.8c0.1-0.1,0.2-0.2,0.3-0.3V202.6z"/>
<path class="st0" d="M182.6,198.3l3,1.7l-0.2,0.4l-3-1.7L182.6,198.3z"/>
<path class="st0" d="M33.1,175.4c-0.1-1.8,0.8-3.4,2.2-3.6C33.8,172.5,34.1,174.3,33.1,175.4z"/>
<path class="st0" d="M157.1,171.7l-3.7-0.7l0.1-0.5l3.6,0.7L157.1,171.7z"/>
<path class="st0" d="M183.4,161.8l3-0.8l0.1,0.5l-3,0.9L183.4,161.8z"/>
<path class="st0" d="M249.5,108.8c0.5-1.1,0.4-2.6,1.7-3.2l0.4,0.2C250.9,106.8,250.2,107.8,249.5,108.8z"/>
<path class="st0" d="M157.4,146.6l0.3,1.3l-1.9,1.1l-0.2-0.2L157.4,146.6z"/>
<path class="st0" d="M109.9,191.9c-1.7-0.2-1.9-0.5-1.4-2.2L109.9,191.9z"/>
<path class="st0" d="M172.1,199.2c0.9,0.3,1.9,2.1,2,3.4L172.1,199.2z"/>
<path class="st0" d="M58,187.5h3.8v0.2l-3.7,0.2L58,187.5z"/>
<path class="st0" d="M239.1,125.2l1.2-1.6c0.9,0.7,0.4,1.2,0,1.6c-0.3,0.2-0.8,0.2-1.2,0.3L239.1,125.2z"/>
<path class="st0" d="M186.7,144.2l-3.7,1.8l-0.2-0.4l3.7-1.8L186.7,144.2z"/>
<path class="st0" d="M174.4,176.3l2.3,2.2l-0.4,0.4l-2.2-2.2L174.4,176.3z"/>
<path class="st0" d="M112.8,149l-2.8,3l-0.3-0.2l2.7-3.1L112.8,149z"/>
<path class="st0" d="M169.4,139.4l-2.5,1.3l-0.2-0.3C167.5,140,167.7,138.7,169.4,139.4z"/>
<path class="st0" d="M48.7,198.2c-1.7,0.4-2.3,0.2-2.9-1.4L48.7,198.2L48.7,198.2z"/>
<path class="st0" d="M71.9,154.3l-2.6,2.7l-0.3-0.3l2.5-2.8L71.9,154.3z"/>
<path class="st0" d="M173.4,153l2.8-2.3l0.3,0.4l-2.8,2.2L173.4,153z"/>
<path class="st0" d="M194.1,135.9c-0.6,1.9-2.3,0.6-3.2,1.4l-0.1-0.3L194.1,135.9z"/>
<path class="st0" d="M148.3,208c1.7,1.2,1.7,1.2,0.9,2.7L148.3,208z"/>
<path class="st0" d="M104,180.4l3.7-1.5l0.1,0.3l-3.6,1.7L104,180.4z"/>
<path class="st0" d="M201.8,168.3l2.6-0.8l0.1,0.4l-2.6,0.9L201.8,168.3z"/>
<path class="st0" d="M40.1,186.1l2.6-0.4l0.1,0.5l-2.6,0.6L40.1,186.1z"/>
<path class="st0" d="M179.7,183.2c1.1-1,1.8-0.1,2.6,0l-0.1,0.5L179.7,183.2z"/>
<path class="st0" d="M194.2,177.4l2.1,0.5c-0.9,0.7-1.6,0.7-2.2-0.1L194.2,177.4z"/>
<path class="st0" d="M243.9,123.2l-1.6,3l-0.3-0.2c0.5-1,1.1-2,1.6-3.1L243.9,123.2z"/>
<path class="st0" d="M177,170.4l-2.9-0.4l0.1-0.5l2.9,0.3L177,170.4z"/>
<path class="st0" d="M138.5,201.1l-1.7-2.1l0.3-0.3l1.9,1.9L138.5,201.1z"/>
<path class="st0" d="M127,198.2c-0.9,0.2-1.8-0.3-2.1-1.2c0-0.2-0.1-0.4-0.1-0.5L127,198.2L127,198.2z"/>
<path class="st0" d="M31.5,185.4l-2.5,2.3l-0.3-0.3l2.6-2.3L31.5,185.4z"/>
<path class="st0" d="M181.2,212c1.3,0.5,1.5,1.6,1.5,2.9C182.2,213.9,181.7,213,181.2,212L181.2,212z"/>
<path class="st0" d="M173.1,205l-1.9-2.3l0.5-0.3l1.7,2.4L173.1,205z"/>
<path class="st0" d="M192.7,153.3l-2.2,1.4l-0.2-0.4l2.1-1.5L192.7,153.3z"/>
<path class="st0" d="M131.2,204.3l2.8,2.2l-0.3,0.2l-2.4-2.7L131.2,204.3z"/>
<path class="st0" d="M34.9,198.9v-1.8l0.2-0.2l1.2,1.4L34.9,198.9z"/>
<path class="st0" d="M186.5,197.3l2.6,0.9C188.1,198.5,187.2,198.8,186.5,197.3z"/>
<path class="st0" d="M109.1,188.1l1.9,1.6l-0.3,0.3l-2.1-1.5L109.1,188.1z"/>
<path class="st0" d="M88.2,163.3l-2.5,2.1l-0.3-0.4L88,163L88.2,163.3z"/>
<path class="st0" d="M187.9,175.9l-2.9-1.4C186.3,174.1,187,174.7,187.9,175.9z"/>
<path class="st0" d="M231.1,141.3l-2.7,2.4l-0.2-0.2l2.8-2.4L231.1,141.3z"/>
<path class="st0" d="M148.7,131.5l1.8-2.5l0.3,0.2l-1.8,2.6L148.7,131.5z"/>
<path class="st0" d="M177.8,159.4l2.9-1.5l0.2,0.4l-2.9,1.5L177.8,159.4z"/>
<path class="st0" d="M218.1,167.4l-2.5,0.9l-0.1-0.4l2.6-0.9L218.1,167.4z"/>
<path class="st0" d="M176.2,182.1l-2.2-1.4l0.1-0.3l2.3,1.2L176.2,182.1z"/>
<path class="st0" d="M247.9,111.1l-1.5,2.9l-0.4-0.2l1.5-2.8L247.9,111.1z"/>
<path class="st0" d="M189.7,187.7l-3.2-1.7l0.1-0.3l3.2,1.7L189.7,187.7z"/>
<path class="st0" d="M42.7,193l2.4-0.3v0.4l-2.4,0.3V193z"/>
<path class="st0" d="M186.1,203.2l-1.5-1.4l0.5-0.5l1.4,1.4L186.1,203.2z"/>
<path class="st0" d="M153.9,204.1l-1.9-2.3l0.3-0.2l2,2.2L153.9,204.1z"/>
<path class="st0" d="M187.2,136.8l-2.8,0.8l-0.1-0.4l2.8-0.7L187.2,136.8z"/>
<path class="st0" d="M74.7,220.9c2.8,3.9,6.3,7.3,6.3,12.8C78.4,229.7,76.3,225.4,74.7,220.9z"/>
<path class="st0" d="M90.5,208.3c-0.4-1.1-0.8-2.2-1.2-3.3c-0.1-0.2-0.2-0.4-0.2-0.6l0.3-0.2c0.5,0.6,0.9,1.2,1.3,1.8
	c0.9,1.9,1.6,3.8,2.7,5.6c1.2,2,2.7,3.8,4,5.6c0.5,0.7,1.1,1.5,1.6,2.2c0.1,0.4,0.2,0.7,0.3,1.1l-0.4,0.2c-0.6-0.8-1.2-1.6-1.9-2.3
	c-1.8-2.1-3.3-4.5-4.3-7.1C91.8,210.3,91.2,209.2,90.5,208.3L90.5,208.3z"/>
<path class="st0" d="M84.5,227.1c1.6,1.9,3.2,3.8,4.8,5.7c0.3,0.4,0.5,1.6,0.4,1.7c-0.9,0.5-1.1-0.4-1.4-0.9c-1.4-2.1-2.7-4.2-4-6.3
	L84.5,227.1z"/>
<path class="st0" d="M87.1,221l-0.8-2c1.8,0.8,2.4,2.5,3.5,4c-1.2,0.3-1.6-0.6-2.1-1.2C87.5,221.6,87.3,221.3,87.1,221L87.1,221z"/>
<path class="st0" d="M81.4,224.3c-1.7-0.8-2.6-2.1-2.2-3.9l2.5,3.6L81.4,224.3z"/>
<path class="st0" d="M78.8,225.8l-2-3.4C78.6,222.9,79,223.6,78.8,225.8z"/>
<path class="st0" d="M105.3,229.7c-1.7-0.5-2.5-1.7-3.4-3.4L105.3,229.7z"/>
<path class="st0" d="M101.6,227.8l-2-2.9l0.4-0.2c1,0.7,1.3,1.9,2,2.9L101.6,227.8z"/>
<path class="st0" d="M87.1,221v0.9c-1.2-1-1.4-2.2-1.8-3.7L87.1,221L87.1,221z"/>
<path class="st0" d="M98,221.5l2,2.6C98.5,223.8,98.5,222.5,98,221.5z"/>
<path class="st0" d="M88.5,225.7l-1.5-2.4l0.4-0.3l1.5,2.3L88.5,225.7z"/>
<path class="st0" d="M70.7,225.2l-1.4-3.5l0.3-0.1l1.3,3.6L70.7,225.2z"/>
<path class="st0" d="M75.1,235.1l-0.7-1.9L75,233l0.6,1.9L75.1,235.1z"/>
<path class="st1" d="M159.6,196.5l-2.2-3.9l0.5-0.3l5,7.4l0.1-0.8l0.3-0.1c0.7,1.3,1.3,2.6,1.7,4c0.5,1.8,1.2,3.5,2.1,5.1
	c0.1,0.2,0.1,0.3,0.2,0.5l-0.4,0.2c-2.1-3.8-4.2-7.6-6.3-11.4l-0.6,0.2l0.4,1.9c-3.7-6.5-8.9-11.6-15.1-15.8
	c5.7,3.1,10.5,7.6,13.9,13.1L159.6,196.5z"/>
<path class="st1" d="M157,198.4l-2.9-4.2C155.3,194.6,156.4,196.1,157,198.4z"/>
<path class="st1" d="M139.1,183.7l2.9,2.5l-0.2,0.3l-2.9-2.5L139.1,183.7z"/>
</svg>
