<?xml version="1.0" encoding="utf-8"?>
<!-- Generator: Adobe Illustrator 22.0.1, SVG Export Plug-In . SVG Version: 6.00 Build 0)  -->
<svg version="1.1" id="Layer_1" xmlns="http://www.w3.org/2000/svg" xmlns:xlink="http://www.w3.org/1999/xlink" x="0px" y="0px"
	 viewBox="0 0 300 300" style="enable-background:new 0 0 300 300;" xml:space="preserve">
<style type="text/css">
	.st0{fill:#FFFFFF;}
	.st1{fill:#232323;}
</style>
<path class="st0" d="M138.7,102.8l3.9-15.1l3.1-5.3l1,13.5l-1.6,5.7l33.4,102.8l11.1,14.4c0,0,0.6,2.4,4.2,2.5l-8.4,4.6l-1.3,2.9
	l-4.1,3.6l3.5,17.1l3.9,5.7c0,0,2.8,3-0.9,2.8l-5-5l-4.8-9.8l-3.6-8.9l-19.8-12.4l-11.2-24.1l-4.2-29.8l-16.1-18.7l-7.3,1.1
	l-5.6-2.9l-8-6.2l-4-3.3l-1.2-1.7l3.9,0.5l-2.3-7.3l-10-41.7l20.9-22.1l28.7,34.1L138.7,102.8z"/>
<title>Artboard 3</title>
<path class="st1" d="M132,166.8l2.7,1.2c-1.1-1.7-2-3.4-4.3-3.6l-0.3,0.6c-0.2-0.1-0.3-0.2-0.3-0.3c-0.1-0.6-0.5-0.8-1.1-1.1
	c-2.4-1.2-4.6-2.6-6.9-3.9c-0.2-0.1-0.3-0.4-0.4-0.6l0.2-0.3l3.7,2.1c-0.6-0.8-1.2-1.6-1.9-2.3c-2-2-4-4.1-6.2-5.9
	c-1.2-0.9-2.6-1.7-4-2.3c-1-0.6-2.1-1-3.1-1.6c-0.5-0.4-0.9-0.8-1.2-1.4l0.7-0.7c0.3,0.5,0.6,1,1.1,1.4c1.2,0.8,2.6,1.5,3.9,2.2
	c0.2,0.1,0.6-0.1,0.8-0.1c0.4,0.1,0.7,0.3,1.1,0.5c1.3,1.2,2.4,2.5,3.8,3.7c1.9,1.6,4,3.1,6,4.7c0.6,0.5,1.2,1,1.7,1.4l0.3-0.3
	l-1.2-1.7l0.1-0.1l2.1,1.6c-0.1-0.6-0.4-1.2-0.8-1.6c-0.7-0.5-1.6-0.7-2.3-1.1c-1.1-0.6-2.2-1.4-3.4-2.2c1.2-0.2,2.2,1,3.3-0.1
	c-1.1-1-2.2-2-3.3-2.9c-3.7-3-7.4-6-11.2-8.8c-0.8-0.5-1.7-0.8-2.6-1l-0.2,0.4c0.7,0.7,1.6,1.2,2.5,1.6c0.6,0.1,1,0.5,1.2,1.1
	c0.1,0.2,0.1,0.4,0.2,0.5c1.3,1.1,2.7,2.1,4.1,3.2c0.3,0.3,0.6,0.6,0.9,0.9l-0.2,0.2l-1.7-0.6l-0.3,0.7c-0.6-0.9-1.3-1.7-2-2.6
	c-1.3-1.3-2.8-2.6-4.4-3.6c-2.4-1.5-4.9-2.8-7.5-3.9l1.1,0.1v-0.1l-5.5-2.7l-0.3,0.4l4.1,3.1l-0.1,0.2c-1.2-0.8-2.4-1.5-3.5-2.4
	c-2-1.7-3.9-3.4-5.9-5.1c-0.5-0.3-1.1-0.6-1.6-0.8l0.1-0.3l1.1,0.4c-0.2-1.5-1.8-1.5-2.4-2.7l9.5,5.5l0.3-0.1
	c-0.2-0.8-0.5-1.6-0.8-2.3c-1.1-1.4-1.9-3.1-2.2-4.9c-0.1-0.8-1.1-1.5-1.5-2.3c-0.6-1.2-1.1-2.4-1.5-3.7c-0.3-0.7-0.3-1.5-0.6-2.2
	c-0.6-1.6-0.7-3.4-2.1-4.7c-0.3-0.3-0.4-0.8-0.5-1.3c-0.2-0.9-0.9-1.6-1.7-1.8c-0.5-0.1-1-0.5-1.2-1c-1-2-2-4-2.8-6
	c-1-2.4-2-4.9-2.8-7.3c-0.9-2.2-0.9-4.6-0.1-6.9l0.2,1.8h0.3c-0.2-1,0.8-2-0.3-3c-0.1-0.1-0.1-0.3,0-0.4c0.7-2.2-0.7-3.9-1.6-5.6
	c-0.4-0.8-0.8-1.6-2-1.4c-0.2,0-0.6-0.7-0.6-1c0.3-2.7,0.8-5.3,1.1-8c0-1-0.1-2-0.3-2.9l0.4,0.1c0.3-0.5,0.6-0.9,0.8-1.4
	c0.4-1.1,0.4-2.2,2-2.6c0.6-0.1,1.2-1.3,1.5-2c0.8-1.9,2.3-3.5,4.2-4.4l0.1,1.4c2.5,1.4,4,4.1,6.3,6c0.5-1.2-0.3-1.9-0.9-2.7
	s-1.3-2-1.9-3l-1-1.5c1.5-2.2,3.2-4.1,5.1-5.9c1.5-1.4,2.8-2.9,4.3-4.3c0.5-0.4,1.1-0.7,1.7-1c0.2-0.1,0.5-0.2,0.6-0.1
	c1,1,2.3,0.3,3.4,0.6c0.6,0.3,1.2,0.6,1.8,0.9c0.5,0.3,1,0.4,1.6,0.4c1-0.2,1.9-0.6,2.9-0.8c3.3-0.8,6.5,1.1,8.3,3.5
	c0.2,0.3,0.1,0.9,0.3,1.2c0.2,0.3,0.5,0.5,0.9,0.6c-0.1,0.5-0.1,0.9,0,1.4c0.3,1.2,0.7,2.3,1.3,3.3c1,1.4,0.7,2.9,1,4.4
	c0.2,1.5,0.3,3.1,0.3,4.6c0,1.2-0.1,2.5-0.2,3.7c-0.1,0.5-0.2,0.9-0.3,1.4l1.2-1.3l0.1,0.7l0.3,0.1c0.3-1.2,0.6-2.4,0.8-3.6
	s0.3-2.4,0.5-3.6l0.2,0.9c0.2-0.1,0.4-0.2,0.5-0.3c1.4-3.3,0.7-7.2-1.8-9.1l0.7,3.8l-0.8-0.3l-1.2-2.1l0.8,0.1l-0.4-3.7
	c0.1,1.2,1.2,2.2,2.4,2.3l-0.8-1.3l0.1-0.2c0.9,0.4,1.7,0.9,2.6,1.2c0.3,0.1,0.7,0.2,1,0.2l0.1-0.4l-0.8-0.8l1.8-0.7
	c0.9,0.4,1.7,0.8,2.5,1.2c0.5,0.3,1,0.6,1.5,1c0.2,0.2,0.4,0.4,0.6,0.7c0.8,0.8,1.8,1.4,2.2,2.3c1.3,2.9,2.7,5.9,2.1,9.3
	c-0.4,2.2-0.3,4.4-0.6,6.7c-0.2,1.8-0.6,3.5-1.1,5.3c-0.7,2.7-1.7,5.3-2.4,8c-0.2,1.4-0.2,2.8-0.1,4.2l0.5,0.1l2.7-10.2h0.2
	c0,0.6,0,1.2,0,1.8c0.1,0.3,0.2,0.7,0.4,1c-0.1,0.3-0.2,0.7-0.3,1s-0.2,0.7-0.3,1.1s-0.1,0.5-0.2,0.8l0.6,0.1l0.2-2.9
	c0.5-2.2,1-4.3,1.5-6.5c0.4-2,0.7-4,1-6c0-0.1,0.2-0.2,0.4-0.5v2l0.4,0.1c0.5-1.4,0.8-2.8,1.1-4.2c-0.1-1.5-0.3-3.1-0.6-4.6
	c1.1,1.5,1.7,3.2,1.7,5c-1.5,1.6-0.1,4-1.9,5.4l0.4,0.2l0.8-0.1c-0.1,0.9,0.2,2-0.3,2.7s0.3,0.7,0.2,1.1c1-0.1,0.6,0.6,0.6,1
	c0,1.3,0,2.7-0.1,4c-0.1,0.7-0.6,1.3-0.8,1.9c-0.5,2.2-0.9,4.4-1.4,6.5c-0.5,1.9-1.1,3.8-1.6,5.7c-0.1,0.3-0.1,0.7-0.1,1l0.4,0.1
	c1.6-5.3,3.2-10.6,4.9-15.9l0.4,0.1c-0.3,5-2.3,9.6-3.3,14.4l0.3,0.1l2.6-8.2h0.2l-1.2,8l0.3,0.1c1.1-4,2.6-8,2.9-12.2l-0.4-0.1
	l-0.6,1.6l-0.3-0.1c0-0.6,0.1-1.1,0.2-1.7c0.4-1.6,0.3-3.3-0.3-4.9c0-0.2-0.1-0.3-0.1-0.5c-0.4-3.7-0.8-7.4-1.1-11.2
	c0-0.5,0-1,0.1-1.4c1,3.7,1.5,7.6,1.6,11.4h0.4c0-1.3-0.1-2.7-0.3-4c-0.3-1.4,1-2.3,1.1-3.5V82c0.6-0.5,0.9-1.3,1.2-4.5
	c0.2-1.6,0.3-3.2,0.5-5.1l0.8,2.4l0,0c-0.2,0.2-0.6,0.4-0.6,0.6c-0.2,2.8-0.2,5.7-0.5,8.6c-0.1,1.5-0.5,3-0.7,4.4
	c0,0.1,0.1,0.3,0.3,0.4l0.3-1.7h0.3c-0.1,1.5,0.3,3.4-0.5,4.4c-1,1.2-0.1,1.8,0.1,2.6c0.1,0.7,0.1,1.4,0.1,2.1
	c0,0.6-0.1,1.3-0.2,1.9c0.3-0.3,0.7-0.5,1.1-0.7c1.7-0.4,2.1-1.7,1-3.6c-0.1,0.6-0.1,1.1-0.2,1.5c-0.1,0.5-0.3,0.9-0.6,1.3
	c-0.2-0.4-0.3-0.8-0.3-1.2c0.2-2,0.6-3.9,0.8-5.9c0-1.2,0-2.5-0.2-3.7c-0.1-2.6-0.7-5.2,0.2-7.8l0.9,6.7l0.6-2c0.9,0,1.1,0.4,1,1.2
	c-0.2,1.8-0.2,3.6-0.3,5.5c0,0.3,0.1,0.7,0.2,1l2.1-5.2l0.4,0.4c1.7-2,0.8-5,2.4-7l0.3,0.1l-1.2,3.3l1.2-1.1
	c-1.6,3.7-3.4,6.9-3.9,10.6s-0.8,7.5-1,11.3l2.1-10.4h0.3l0.2,1.6c1.1-4.3,1.6-8.7,3.4-12.8c0,3,0,6,0,9.1c0,2.2,0,4.3,0.1,6.5
	c0.1,1,0.2,1.9,0.5,2.9c0,0.4,0,0.7,0,1.1c-0.3,2.3-0.4,4.7-0.5,7l0.4-0.8c-0.2,2.2-0.5,4.4-0.7,6.5h0.4c1-1.8,1.3-4,0.9-6
	c-0.1-0.9-0.1-1.8,0-2.7c0-1.9,0.1-3.9,0.3-5.8c0-0.8,0.2-1.5,0.3-2.2h0.4v7.4h0.3c0.5-4.7,0.1-9.3,0-14c0.1,1.2,0.2,2.4,0.5,3.6
	c0.1,0.3-0.2,1.1,0.7,0.9c0,0,0.1,0.1,0.1,0.2c0.3,1.3,0.6,2.6,0.7,3.9s0,2.4,0.1,3.6c0.7-5,2.6-9.7,5.5-13.8l-2.2,5.9l0.4,0.2
	l3.9-7l0.2,0.1c-1,2.1-2,4.3-3,6.4c-0.1,0.5-0.2,1-0.1,1.5c0,0.3-0.1,0.5-0.2,0.8c-0.5,1.3-1.1,2.6-1.6,3.9
	c-0.6,1.5-1.1,3.1-1.4,4.7c-0.4,3.5-1.8,6.7-2.5,10.1c-0.4,2-0.6,4-0.9,6c0,0.4,0.1,0.7,0.2,1.1h0.3c0.2-0.4,0.5-0.9,0.6-1.3
	c0.6-2.2,1-4.4,1.3-6.7c0.2-2.7,2.4-6.1,3.8-7.8c2-2.4,3.8-4.9,5.8-7.3c0.3-0.4,0.6-0.6,1.1-0.8l-0.9,2l2-0.9l-3,4.3l1.1-2.4
	l-0.4-0.2l-2.5,3.7l0.3,0.2l1.5-1.2c-2.4,3.8-4.9,9.8-4.7,11.5l1.1-0.3c-0.8,0.9-1.5,1.8-2.1,2.8c-0.5,1.1-0.8,2.4-0.8,3.6l2-4.6
	l0.4,0.2l-0.8,2.3l0.1,0.1c0.6-0.7,1.1-1.4,1.7-2c1.9-1.9,3.8-3.6,4.7-6.4c0.5-1.5,1.8-2.8,3-3.9c2.2-2.3,4.6-4.6,7-6.9
	c0.3-0.3,0.6-0.5,1-0.7l0.4,0.4l-2.5,1.5l0.5,0.5l3.4-1.7l0.1,0.2c-1,0.6-2,1.2-3,1.7c-2.5,1.2-4.5,3.1-6.1,5.4
	c-1.9,2.7-3.7,5.4-5.3,8.2c-1.4,2.4-2.5,4.9-3.6,7.4c-0.5,1.1-0.5,2.4-1.6,3.3c-0.3,0.2-0.2,0.8-0.3,1.2l0.4,0.2l3-5l0.2,0.1
	l-0.6,1.4c1.3-0.1,2.4-1,2.7-2.2c2.5-0.1,5-0.7,7.2-2c1.4-0.7,2.9-1.2,4.4-1.6c0.1,0,0.4,0.2,0.8,0.3c-4.7,1.2-8.2,3.8-11.5,7.4
	c0.5-0.1,0.8-0.1,1-0.3c1.3-1,2.6-2.1,3.8-3.1l0.4,0.4l-1.8,1.5l0.1,0.2l8.6-4.8l0.2,0.3c-5.2,3-10.3,6.1-14.1,10.7
	c3.9-2.8,7.6-5.9,12.4-7.8c-1.5,1-2.7,1.8-3.8,2.6c-2.5,1.8-4.9,3.6-7.3,5.5c-0.3,0.2-0.4,0.8-0.6,1.2c-0.2,0.6-0.5,1.1-0.9,1.6
	l0.2-1.2l-0.4-0.1l-1.1,2.7l1.1-0.5c0,0.1,0,0.2,0,0.2c-0.5,1.7-1,3.4-1.4,5c-0.1,0.3-0.2,0.6-0.1,0.9c0.7,1.4-0.3,2.5-0.5,3.7
	c-0.3,2-0.4,4-0.5,6c-0.1,1.2,0,2.5,0.3,3.7l1.3-2.3l0.3,1.3c0.5-0.6,0.9-1.1,1.2-1.5s0.5-1.4,1.4-1.8c0.4-0.2,0.4-1.2,0.5-1.9
	L173,148l-0.9,1.2c0.1-1,0.3-2,0.5-3c0.5-1.7,1.1-3.4,1.7-5.1c0.1-0.2,0.4-0.3,0.6-0.5c0,0,0.3,0.1,0.3,0.2
	c-0.1,0.2-0.2,0.5-0.2,0.7c-0.2,0.4-0.4,0.9-0.5,1.4c-0.3,1.1-0.4,2.2-0.4,3.3c1.3-3.8,3.9-6.8,6-10.2c0-0.2-0.1-0.8,0.1-1.1
	c0.7-0.7,1.5-1.5,2.3-2.1c0.4-0.4,0.8-0.7,1.3-1l1-0.9l-1.1,6l-0.2-1.5c-1.4,1-3.2,5.7-2.8,7.5c1.4-1,0.9-2.9,2.1-4
	c-0.3,2.2-0.1,4.4-1.4,6.4c-0.2,0.3,0.2,0.9,0.1,1.3c-0.2,0.7-0.5,1.5-0.9,2.2c-0.3,0.6-0.7,1.2-1.1,1.9l0.4,0.2l1.5-1.8l0.2,0.1
	l-3.3,6.8l0.3,0.4c0.4-1.8,1.3-1.1,2.1-0.8L178,159l0.3,0.4c0.4-0.1,1-0.1,1.1-0.4c1.5-2.1,3.8-3.2,5.9-4.6s3.6-2.9,4.4-5.4
	c0.9-2.4,2-4.8,3.2-7.1c0.4-0.8,1-1,2.2-0.8c-1,1-1.9,2-2.7,3.2c-0.5,1.2-1,2.4-1.3,3.6l1,0.7l-1.9,5.4H190l-0.1-0.8
	c-0.4,0.5-1.1,1.1-1.1,1.6c0,2.9-1.7,5.4-1.8,8.3c1.6-1.4,3.3-2.6,3.7-5l1,0.5c-0.9,1.6-1.8,3.2-2.7,4.8c-0.4,0.6-0.9,1.2-1.3,1.8
	c-0.6,0.8-1.2,1.6-0.7,2.7c0.1,0.2-0.1,0.7-0.2,1c-1.8,3.1-3.5,6.2-5.4,9.1c-0.7,1-0.3,1.9,0,3l3.8-6.8l0.5,0.7l1.8-2.2l1.1,1.2
	l3.1-4.4l5.5,3.1L197,173l-4.6-1.5c0,0.1,0-0.2,0.1-0.4c-0.2,0-0.5-0.2-0.6-0.1c-0.6,0.6-1.7,1.2-1.7,1.8c0,2.2-2.2,2.8-2.9,4.5
	c-0.2,0.4-0.4,0.8-0.7,1.2l0.3,0.2l1.7-1.6l0.2,0.1l-0.2,0.9l0.2,0.2c1.2-0.9,2.5-1.9,3.7-2.8c0.5-0.3,1-0.6,1.5-0.8l-0.9,0.7
	l0.1,0.1l1.4-0.5c-0.3,0.4-0.8,0.7-1.3,0.9c-0.3,0.1-1,0.3-1,0.4c0.2,1-0.8,1-1.3,1.4c-0.7,0.5-1.5,0.9-2.1,1.5s-0.8,2.1-2.3,1.5
	c0,0-0.1,0-0.1,0.1l-2.1,2.2l0.2,0.2l0.9-0.2l-2.6,3.4c2.8-1.5,4.2-4.2,6.1-6.5l0.3,0.2l-1.2,2.2c1.5,0,2.7-0.7,2.7-1.8
	c0-0.7,0.4-0.9,0.8-1.2c1.9-1.4,3.7-2.9,5.6-4.4c-0.5,0-1.1-0.1-1.6-0.4c-0.5-0.4-1.2-0.3-1.6,0.2c0,0,0,0-0.1,0.1
	c0.3-0.9,0.8-1.1,1.8-0.8c1,0.2,2.1,0.4,3.1,0.5c-1.8,1.4-3.5,2.7-5.2,4.1c-0.9,0.8-1.7,1.7-2.4,2.6c-0.2,0.2,0,0.8,0,0.8l-1.1,1.8
	c0.8,0.2,0.8-1.7,1.8-0.3l2.5-4l0.3,0.1l-2,4.1c2.5-0.7,4.4-2.2,6.7-3.8c-0.6,1.5-2.9,1.3-2.5,3c-0.6,0.4-1.2,0.8-1.8,1.1
	c-0.6,0.2-1.1,0.5-1.6,0.8c-0.8,0.5-1.6,1.1-2.2,1.9c-0.7,1.1-1.3,2.3-1.8,3.6c-0.1,0.2,0.1,0.6,0.2,1.1c1-2.1,2-3.8,3.9-4.7
	c1.5,1.2,1.9-0.9,3.1-1c-3.1,2.7-6.4,5.3-7.1,9.7l0.5-0.6l-1.6,3.3c1-0.5,1.7-1.4,2.6-1.7c1.9-0.4,2.1-2.1,3.1-3.5
	c-1.4,0-2.7,0.5-3.7,1.5c0.2-0.4,0.4-0.8,0.5-1.2c0.3-1.4,1.6-1.3,2.5-1.4c1.2-0.1,1.7-0.4,1.9-1.6c0.1-0.2,0.2-0.5,0.3-0.6
	c1.5-2.1,3.7-3.4,5.6-5.1c0.3-0.3,0.7-0.6,1.2-0.8c-0.6,0.8-1.3,1.6-1.9,2.5c-0.9,1.5-1.5,3.2-1.9,4.9c-1,3.3-1,3.3-3.9,6.1
	c0.4,0,0.8,0,1.2-0.1c2.1-0.9,2.1-0.9,3,1.5l2.9-2.3l0.3,1c-1.1,1.3-3.8,1.4-2.9,4.4l-0.4-0.2c0-0.2,0.1-0.6,0-0.7s-0.8-0.4-0.8-0.3
	c-0.6,0.7-1.3,1.3-0.8,2.4c0.2,0.6,0.4,1.1,0.5,1.7h2.6v0.2l-3,0.4c-1.1,0.2-2.2-0.2-3,1.1c-0.4,0.8-1.8,1-2.8,1.5
	c-1.1,0.6-2.2,1.2-3.4,1.8c2.1,1.1,2.9,1,3.4-0.4h-1c0-0.1,0-0.2,0.1-0.2c3-1,6.2-1.4,9.4-1.3c-1.5,0.2-3,0.5-4.4,0.8
	c-1.1,0.2-2.1,0.4-3.2,0.6c-0.2,0.1-0.4,0.5-0.7,0.9l1-0.1l0.2,0.2l-0.9,0.5l0.2,0.4l2.3-0.6c-0.2,1.5-2.1,1.6-2.8,2.8l8,0.4v0.3
	c-0.9,0-1.8,0-2.7,0c-1.2,0-2.1,0.8-2.4,1.9l-2,1.3l0.1,0.4l1.5-0.1c-2.8,0.5-5.4,2.2-8.4,1.8c-1.2-0.3-2.5-0.2-3.7,0.2
	c-0.2,0.1-0.4-0.1-0.7-0.4l2.1-0.6l-1.1-2.4l-2.7,3.8c1.6,0.6,1,1.3,0.3,2c-0.4,0.4-0.6,1.1-1.4,0.9l-0.4,2.2
	c-0.4-0.5-0.8-1-1.2-1.5l-0.4,0.2l0.9,2.3h0.3l0.3-1c0.7,0.4,1.1,0.1,1.5-0.5c0.5-0.7,1.2-1.3,1.9-1.8c-0.3,1.3-1.9,1.9-1.3,3.8
	c0.5-0.2,1.3-0.3,1.4-0.6c0.5-1.3,0.9-0.6,1.4-0.1c0,0.1,0.1,0.1,0.2,0.1l4.1-2.4l-4.6-0.4l2.1-1.5c0,0.8,0.2,1,1.1,0.8
	c1.3-0.5,2.7-0.8,4.1-1l-1.6,0.8l0.1,0.2l3.4-1c1.1-0.3,1.9-1.6,3.5-1.3c-2.7,2.3-6.2,2.2-8.5,4.6c3.5,0.1,7-0.7,10.1-2.3l0.1,0.3
	l-7.6,3.5l-0.2-0.3l0.6-0.5l-0.1-0.2l-4.7,1.9l0.1,0.4c3.7,0.6,7.3-0.8,10.9-1.2l-7.2,2.7c1.3,0.6,2.4,1.1,3.8,0.3
	c0.6-0.3,1.3-0.5,2-0.6l0.2,0.4l-4.2,3l0.7,0.8l-1.2,0.7l2.6,2.2l-0.1,0.1l-3.3-1.7l0,0c-0.3-0.2-0.6-0.5-1-0.5
	c-1.6,0-3.1-0.6-4.3-1.6c-0.3-0.2-0.7-0.3-1-0.2c-0.7,0.1-1.4,0.2-2.1,0.4l6.9,5.4c-3-1.4-6-3-7.9-5.9l-0.4,0.3l4.4,9.3l-1.1-0.4
	l1.8,7.2c0.6-1-0.9-2.1,0.4-3.3c0,1.8,1.2,3.3,0.1,5.2l0.9-0.4l0.9,5.3c-0.3-0.1-0.5-0.1-0.5-0.1c-1.3-1.8-2.4-3.7-3.4-5.6
	c-1.5-3.3-2.7-6.6-3.9-10c-0.3-0.8,0-1.8-0.3-2.6c-0.7-2-1.6-3.9-2.4-5.8c-1.4-3.5-2.7-7.1-3.6-10.8c-0.6-2.2-1.2-4.4-1.8-6.5
	s-1.1-4.3-1.8-6.4c-0.8-2.5-1.8-4.9-2.7-7.4c-0.1-0.3-0.5-0.8-0.8-0.8c-1.3-0.1-1.7-0.9-1.8-2.1c-0.1-0.2-0.1-0.5-0.2-0.7
	c0.2-0.2,0.5-0.3,0.6-0.5c0.5-1.7-0.4-3.2-1.1-4.6s-1.5-2.8-2.2-4.2s-1-2.8-1.6-4.1c-0.4-0.8-1.1-1.4-1.3-2.5
	c-0.2-1.3-1.4-2.4-2.2-3.7l-0.4,0.3l2.1,3.3l-0.3,0.2l-1.7-2.3l-0.3,0.2l3.6,7.8l0.3-0.1v-0.8c0.4,2.2,2.2,3.8,2.2,6.4
	c0,1.6,1.5,3.2,2.4,4.8l-2-1.4L162,196l-1.3-2.9l-0.3,0.1c0,2.2,1.2,4,2.1,6l0.4-0.1c-0.2-0.4-0.3-0.8-0.4-1.2c0-0.3,0.1-0.7,0.2-1
	c0.3,0.3,0.8,0.5,0.9,0.8c0.2,0.7,0.3,1.3,0.4,2c0,0.2,0,0.3,0,0.5c-0.8,2.1,1,3.4,1.5,5c0.2,0.3,0.3,0.6,0.4,0.9
	c0,0.3-0.1,0.6-0.2,0.9l1.2,4.2l1.2,0.3l-1.1,1.5l-0.9-0.2l-0.3,0.2c0.2,0.4,0.4,0.9,0.7,1.2c0.2,0.2,0.6,0.2,1.1,0.2
	c-0.1,0.2-0.2,0.3-0.2,0.5c0,0.3,0,0.8,0.2,1c1.2,0.9,1.2,0.8,0.6,1.8l1,0.5l-0.1,0.2l-0.9-0.1c0.9,1.6,1,3.6,2.7,4.8
	c0.2,0.6-1.2,1.5,0,2c0.2,1,0.3,1.8,0.4,2.7c0,0.3,0.1,0.8-0.1,0.9c-1,0.9-0.1,1.6,0.4,2.1s1.1,1.6,2.5,1.1c0.1,3.5,1.9,6.5,2.9,9.7
	s3.2,6.1,5.2,9.2l-1.4-0.2c0.2,0.5,0.5,0.9,0.8,1.3c0.5,0.7,1.1,1.4,1.7,2c0.7,0.8,1.5,1.6,2.2,2.5c0.4,0.5,0.7,1.1,1,1.7
	c-2.4-1.4-4.5-3.3-6.1-5.6c-1-1.4-1.9-2.8-2.7-4.3c-1-2.1-1.9-4.2-2.8-6.3c-0.4-1.1-0.8-2.2-1.2-3.2c-0.2-0.6-0.8-1-0.1-1.7
	c0.2-0.2-0.2-0.9-0.3-1.3c-1.2-0.2-1,0.7-1.1,1.2c-0.3,1.2-0.5,2.4-0.9,3.6c-0.2,0.6-0.6,1.1-1.1,1.5c0-0.1,0-0.3,0.1-0.4
	c1.3-1.6,1.2-3.6,1.3-5.4c0-0.4-0.2-0.8-0.4-1.1c-0.4,0.2-0.8,0.3-1,0.6c-1.7,2.3-3.4,4.8-5.1,7.1c-0.9,1.2-2.1,2.3-3.1,3.5
	c-0.1,0.1-0.4,0-0.6,0.1l0,0c1.3-1.6,2.6-3.1,3.8-4.7c0.8-1.1,0.8-1.3-0.4-2.4c1.6-0.6,2.8-1.9,3.4-3.5c0-0.3,0-0.6-0.1-0.8
	c-0.3,0.1-0.7,0.2-0.8,0.4c-0.4,0.8-0.8,1.6-1.3,2.3c0.1-0.7,0.3-1.4,0.4-2.1c0-0.2,0-0.6-0.2-0.7c-0.3-0.1-0.5,0-0.7,0.2
	c-0.7,0.7-1.3,1.5-1.9,2.2l-0.5-0.5c1.1-1.3,2.2-2.6,3.2-3.9c-1.1-0.9-1.7-0.8-2,0.4c-0.1,0.2-0.2,0.5-0.3,0.6
	c-1.7,0.8-3.4,1.5-5.1,2.2c-0.9,0.4-1.8,0.7-2.8,0.9l6.4-4.5l-0.2-0.5l-0.8,0.2c-2,0.7-4,1.5-6.1,2.1c-0.5,0.1-1.1-0.3-1.7-0.5
	c-1.2-0.4-2.5-0.5-3.7-0.1c-0.6,0.1-1.2,0.1-1.7,0c1.4-0.4,2.8-0.7,4.3-1c0.2,0,0.5,0.3,0.8,0.4s0.2,0.2,0.4,0.2
	c2.6,0.5,5.2-0.4,6.9-2.3c0,0,0-0.1,0-0.3l-6.8,2.4l-0.2-0.4l7.2-3.2v-0.4c-0.5-0.1-1.1-0.4-1.3-0.3c-1.8,1.2-4,1-5.9,1.6
	c-0.4,0.2-0.8,0.2-1.2,0.1l5.9-2.5c-1.2-1.3-1.9-1.5-3.4-0.8c-0.6,0.3-1.6,0.2-1.8,1.3c-0.4,0-0.8,0-1.2,0l1.4,0.9l-2.7-0.4l1.3,1
	c-4.9-2.8-10.7-2.8-16-4.2l0.1-0.4l10.3,1.9c-1.2-2.1-3.8-1.8-5.3-3.5c1.3,0.4,2.6,0.9,3.9,1.5c2.1,1.1,2.6,1.1,4.3-0.7
	c-0.6-0.4-1.3-0.7-2-0.9c-1-0.2-2.1-0.2-3.1-0.3c-0.4-0.1-0.9-0.3-1.3-0.6l-0.6-0.3l-0.2,0.6c-0.1-0.1-0.6-0.1-0.6-0.2
	c-0.6-1.4-2.9-0.6-2.9-2.5c0-0.8-0.1-1.4,0.6-1.6c0.1,0.8,0,1.8,0.5,2.3s1.5,0.6,2.4,0.7c-0.8-1.3-1.5-2.5-0.9-4.1h-0.4l-0.8,0.6
	l-0.3-0.3l1.2-1.2l1.1,1.3c0.3-1.6-0.9-1.9-1.5-2.6c-0.2-0.4-0.7-0.5-1-0.3c-0.2,0.1-0.3,0.2-0.3,0.4c-0.1,0.1-0.4,0.1-0.6,0.1
	c0.1-0.2,0.2-0.4,0.2-0.5c-0.2-0.2-0.4-0.4-0.6-0.5l2-1c-0.1-1.1-1.1-1.6-1.9-1.9c-1.4-0.5-2.9-0.9-3.9-2.3c-0.7-1.2-2.2-1.6-3.4-1
	c-0.1,0.1-0.3,0.2-0.4,0.3l0.2-1.2l3.7-0.5c-0.9-0.9-1.7-1.8-2.4-2.8c-0.7-1.1-1.9-1.2-3-1.9l1.2,0.1l0-0.2l-5-2.6l0.6-0.3l-3.4-2.1
	l0.1-0.2c1.8,0.9,3.7,1.8,5.5,2.8c0.8,0.4,1.3,0.8,1.9-0.1c0.1-0.2,0.4-0.2,0.6-0.2l2,3.1l0.2-0.1l-0.5-1.9l0.9-0.4l-0.8-0.9
	c0-0.3,0.2-0.8,0.1-0.9c-0.6-0.7-1.3-1.3-2-2c-1.3-1.4-2.5-2.7-3.7-4.1l2.3,1.1c0.8,0.4,1.6,0.8,2.4,1.2c0.2,0.1,0.3,0.2,0.4,0.4
	c0.9,1.6,2.5,2.6,4.3,2.7c-0.4-0.7-0.8-1.6-1.5-1.7c-1.1-0.3-1.2-1.3-1.9-2l3,2.1l0.3-0.4c-1.1-0.7-2.1-1.9-3.2-2.1
	c-0.9-0.2-1.8-0.7-2.5-1.2c-0.8-0.4-1.6-0.7-2.4-0.9c-0.2,0-0.5,0.5-0.8,0.7c-0.1,0-0.2,0-0.3,0c-0.2-0.2-0.3-0.3-0.5-0.5
	c-0.6-0.3-1.3-0.6-2-0.9l0.1-0.3h1.6l0.2-0.3c-1.9-1.4-3.9-2.6-6-3.8c-2.1-1.1-4.5-1.8-6.7-2.7c5.7,1.1,10.8,4.2,16.5,5.3l0.2-0.5
	c-1.5-0.9-3-1.8-4.6-2.6s-3.3-1.4-4.8-2.3l3.7,1.1l-0.7-0.8c1.6-0.8,2.8,0.5,4.1,1l0.1-0.3l-4.1-3.1c-0.7-0.6-1.6-0.8-2.1-1.8
	c-0.4-0.7-1.5-1.1-2-1.8l-2-3.2c1.6,1.4,3.1,3,4.7,4.4c1.1,0.8,2.3,1.5,3.5,2.2c-0.1-0.6-0.2-1.1-0.3-1.7c-0.1-0.5-0.4-1-0.7-1.4
	c-2-1.6-4.1-3.2-6.2-4.8c-0.4-0.2-0.9-0.4-1.4-0.6l-0.3,0.2l0.7,1.7l-1.9-2.3l2-0.3c-0.5-0.6-1-1.2-1.6-1.7s-0.3-0.9,0.2-1.3
	c0.7,0.3,0.9,1,1.4,1.5c0.9,0.7,1.9,1.3,3,1.8l0.3-0.5c-0.7-0.3-1.4-0.7-2.1-1.2c-0.7-0.5-1.2-1.2-1.9-1.8c-0.1-0.1-0.3-0.2-0.4-0.2
	s-0.2,0.3-0.3,0.4c-0.4-0.5-0.8-1-1.7-0.9c-0.7,0.1-1.5-0.8-2.3-1.4l2,0.2c-1.7-2.2-3.5-4.3-5.6-6.1c-2.7-2.5-5.8-4.8-7.5-8.2
	l2.1,0.7c-0.3,1,0.9,2.5,2.6,3.3l0.4-1.1l7.8,4.4c-1.5-2.4-4.2-3.1-6.4-4.6l0.2-0.3l1.4,0.7c0.3-0.6,0.1-1.4-0.5-1.8
	c-0.1,0-0.1-0.1-0.2-0.1c-0.7-0.4-1.3-0.8-1.9-1.2c-0.6-0.4-1.2-0.8-0.8-1.6l2.1-0.2l-1.1,0.8l6.2,3.5l-0.8,0.2l-0.1,0.3l3.9,1.7
	c-1.2-2.3-3.6-3.5-4.5-5.9l0.3-0.2c0.6,0.7,1.2,1.5,1.9,2.2s1.6,1.4,2.4,2.2c0.5,0.6,1.8,0.4,1.6,1.8c0,0.3,1.1,0.7,1.5,1.2
	c1.7,2,3.7,3.7,5.9,5c1.1,0.8,2.2,1.6,3.1,2.6c0.3,0.2,0.5,0.3,0.8,0.4l0.3-0.3l-1.7-1.5l0.2-0.3L132,166.8l-1.4,0
	c1.4,0.9,2.6,2,3.7,3.3c0.6,0.4,1.2,0.7,1.8,0.8l0.2-0.4c-0.4-0.3-0.8-0.6-1.3-0.9s-0.9-0.4-0.9-0.5c0.3-1-0.7-0.9-1.1-1.3
	S132.4,167.1,132,166.8z M120.2,149l3,2.4l0.3-0.4L120.2,149l-3.2-2.5l-0.3,0.5L120.2,149z M123.2,112.2c0.5-1.4-0.8-2.2-1.2-3.2
	l-0.3,0.1L123.2,112.2l2.3,4.3c-0.4-1.4-0.9-2.7-1.6-4C123.8,112.3,123.4,112.3,123.2,112.2L123.2,112.2z M143.5,208
	c-0.2-0.3-0.4-0.7-0.7-0.9c-0.5-0.1-1-0.2-1.5-0.2C141.6,208.3,142.5,208.7,143.5,208c0.3,1.9,2.3,1.6,3.5,2.7
	C146.3,209.3,145,208.3,143.5,208z M122.6,166.9c0.3,0.2,0.7,0.4,1,0.6c1.1,0.7,2.1,1.5,3.2,2.2c0.2,0.1,0.6,0.1,0.9,0.1
	c-0.2-0.3-0.4-0.5-0.6-0.7c-1-0.6-2.1-1.3-3.1-1.8C123.5,167.1,123,167,122.6,166.9c0.1-1-1.3-2-2.8-1.6c0.5,0.4,1,0.8,1.5,1.1
	C121.6,166.6,122.1,166.8,122.6,166.9L122.6,166.9z M99.1,77.2c-1-1.3-1-3.3-2.9-4.2c0.6,1.1,1,2.2,1.6,3.2
	C98.2,76.6,98.7,77,99.1,77.2c0.2,1.6,1.6,2.1,2.9,3l-0.8-1.6l0.6,0.2l0.2-0.2l-1-1.5l-0.2,0.1v0.8L99.1,77.2z M184,191.5l1.3-1.8
	c-1.6,0.3-2.4,1-2.4,2.4L184,191.5l-0.8,1.3c3.1-0.4,3.6-3.4,5.2-5.4c-0.9,0.8-1.7,1.6-2.5,2.4C185.3,190.4,184.6,191,184,191.5z
	 M128.6,157.4l-1.6-1.9l-0.3,0.3C126.9,156.8,127.7,157.4,128.6,157.4c0.3,0.2,0.5,0.6,0.8,0.7c1,0.5,1.4,1.2,0.7,2.3
	c-0.1,0.2,0.1,0.6,0.1,0.9l0.2,1.2l-0.3,0.1l1.8,1l-0.2-0.9c0.9,0,0.4-0.6,0.4-1c-0.1-1-1.5-1.6-1-2.9L128.6,157.4z M130.5,99.2
	c-0.2,1.7-0.4,3.3-0.7,4.9c-0.2,1-0.4,2-0.7,3.3l1-0.5c-0.4,1.3-1.1,0.7-1.7,0.1l-0.2,1.1c0.6,0,1.1,0.4,1.2,1.1
	c0,0.2,0,0.3-0.1,0.5c-0.3,1,0.1,1.5,0.8,2.4l1-2.4c-0.1,1.8-1.1,3.5,0,5.2c0.9,1.5,0.9,3.6,2.4,4.6c0.5,1.3,0.8,2.4,1.4,3.4
	c0.5,0.9,1.2,1.9,1.8,2.8c0.5,0.8,1.1,1.7,1.6,2.6l0.2-0.1v-5.9c-2.3-1.3-1.8-3.4-2.4-5l-0.8,1.8l-0.4-0.1l-0.4-4.1h-0.3l-0.5,4.3
	c-0.2-0.2-0.3-0.4-0.3-0.5c0.6-1.8-0.2-3.6,0.1-5.4c0.3-2.2-0.3-4.6-0.6-7.2l-0.8,0.7v-0.8l-1.9,1.3c0.1-0.6,0.2-1.2,0.4-1.7
	c0.3-1.6,0.6-3.3,0.9-4.9C131.3,99.9,131.7,98.9,130.5,99.2c-0.4-0.1-0.9-0.4-1-0.3c-0.5,0.5-1,1.1-1.4,1.7c-0.6,0.8-1,1.7-1.2,2.7
	c-0.1,0.6-0.2,1.3-0.2,1.9l0.5,0.1c0.3-0.4,0.6-0.8,0.8-1.2c0.6-1.5,1.2-3,1.8-4.4C129.9,99.4,130.2,99.3,130.5,99.2L130.5,99.2z
	 M186.8,202.6c-0.2-0.2-0.4-0.7-0.6-0.7c-1.5-0.1-2.3,1.1-3.4,1.9c-0.1,0.1,0,0.3,0,0.6c1.6,0.1,3.2,0.2,4.7,0.3
	c1.1,0.1,1.4-0.3,1.3-1.6l-1.5,0.2l-0.9,1.1l-0.3-0.2C186.4,203.7,186.6,203.2,186.8,202.6c0.8,0.7,1.3-0.2,1.8-0.5
	c1.2-0.6,1.8-1.9,1.4-3.2l-0.5,0.2C188,199.8,187.7,201.4,186.8,202.6L186.8,202.6z M133.6,191.6c-0.1-0.3-0.2-0.8-0.4-1
	c-0.7-0.4-1.5-0.7-2.2-1c-0.9-0.3-1.8-0.5-2.7-0.7l-0.2,0.5c1.3,0.6,2.5,1.2,3.8,1.7C132.4,191.4,133,191.5,133.6,191.6l-0.7,0.2
	l5.5,3.4c-0.1,1.1,0.5,1.8,2.5,2.8c0-0.1,0.1-0.2,0-0.2c-1.4-2.7-3.5-4.9-6.2-6.4C134.5,191.3,134,191.5,133.6,191.6L133.6,191.6z
	 M116.7,85.9l1.8,2.9c0.1-0.3,0.3-0.7,0.4-1.1c0.3-1.8,0.6-3.7,0.9-5.6c0.1-0.4,0.2-1.1,0-1.3c-0.9-0.7-0.5-1.5-0.4-2.4
	c0.1-1.1,0-2.2,0-3.7c-0.5,1-0.8,1.7-1.1,2.4c-0.5,1.3-0.7,2.6-1.3,3.9c-0.6,1.2-0.7,2.7-0.3,4L116,85c-1.1-1.7,0.8-3.3-0.4-4.9
	c0,0,0.1-0.2,0.1-0.3c0.4-2.7,1-5.3,1.3-8c0.1-1.3,0.1-2.5,0-3.8h-0.4l-1.3,8.6H115v-2.9h-0.2l-0.9,3.1h-0.2l-0.2-3.3H113v5.8h-0.3
	l-1.1-6.7c-0.2,0.1-0.5,0.2-0.8,0.3c-0.1,0-0.2,0-0.2,0c0.5-3.6-1.4-6.6-2-9.8l-1.2-1.5l-0.2,0.1l2.3,6.2c-0.3,0.5-0.7,0.8-0.7,1.1
	c0.1,2.2,0.4,4.3,0.9,6.4c0.5,1.4,0.4,3.1,1.9,4.1c0.1,0.1-0.1,0.6-0.1,1.1c0.3,0.6,0.7,1.4,1,2.3c0.6,1.7,2.2,3.2,1.8,5.3
	c0,0.3,0.3,0.6,0.5,0.9s0.5,0.7,0.8,1.1l-1.1,0.1l-0.2,1.9l1.6,2.5l0.4-0.2c-0.2-0.6-0.5-1.2-0.7-1.8s-0.3-1.2-0.4-1.7
	c2.6,4.2,3.9,8.9,6.4,13.1l0.3-0.1l-0.2-1.8c0.1,0.1,0.2,0.1,0.2,0.1c0.2,0.4,0.3,0.9,0.4,1.4c1.1,4.6,3.5,8.7,6.1,12.5
	c0.5,0.9,1,1.8,1.4,2.7l-0.3,0.2l-0.8-1.1c0,0.6,0,1.2,0.1,1.8c0,1.3,0.2,2.4,1.7,2.6c0.2,0,0.4,0.3,0.5,0.6
	c0.4,0.8,0.8,1.6,1.1,2.4c0.1,0.4,0.1,0.8-0.1,1.1c-0.6,0.5-0.7,1.3-0.3,1.9c0.3,0.7,0.6,1.5,0.9,2.1c0.7,1.5,1.4,3.1,2.1,4.5
	c1,2,2,3.9,3,6l0.6-0.8c0.7,1.8,1.4,3.4,2,5c0.3,0.7,0.5,1.4,0.6,2.1c0.1,0.5-0.2,1.1,0,1.6c1.2,2.8,2.4,5.6,3.7,8.3
	c1.1,2.3,2.4,4.5,3.5,6.8l0.3-0.1l-1.4-4.5c2.7,5.4,4.4,11.5,8.3,16.3l0.3-0.2l-0.8-1.7c0-0.1,0.3-0.4,0.2-0.5
	c-0.5-1.6-1.1-3.2-1.6-4.7c-0.2-0.5-0.2-1.1-0.4-1.6c-0.5-1.3-0.4-2.9-1.6-4c-1.1-0.8-1.8-2-2-3.3c-0.1-1.3-0.5-2.5-1-3.7
	c-1-2.2-2.1-4.4-3.1-6.6c-1.7-3.7-3.3-7.4-5-11.1c-0.7-1.6-1.7-3.1-2.4-4.8c-1.3-3-2.5-6-3.8-9l-0.6,0.4c0-0.7-0.1-1.3-0.3-2
	c-0.7-1.7-1.4-3.3-2.2-4.9c-0.6-1.1-1.4-2-2-3.1c-1.2-2.2-2-4.5-3.4-6.5c-1.5-2-2.6-4.2-3.3-6.6c-0.2-0.7-0.4-1.5-0.8-2.1
	c-0.2-0.4-0.8-0.7-0.9-1.1c-0.4-1.3-0.6-2.7-0.9-3.9c-0.3-0.7-0.6-1.5-1-2.2c-0.1-0.2-0.1-0.4-0.2-0.6c-0.2-0.4-0.4-0.9-0.7-1.3
	c-0.2-0.7-0.4-1.3-0.6-1.9c-0.1-0.3-0.2-0.7-0.3-1C116.8,87.1,116.8,86.5,116.7,85.9z M110.7,66.1c0.2-2-0.4-3.9,0.3-5.8h0.3
	l0.6,6.5h0.2l1.2-6.5h0.5c1.3,3.9,0.4,8,0.7,12.1c0.2-0.2,0.4-0.5,0.5-0.8c0.4-1.8,0.7-3.6,1.1-5.4c0.6-2.8-0.8-5.2-1.8-7.7
	c-0.4-0.9-0.8-1.8-1.1-2.6l0.4-0.2l1,1.8l0.8-2c-0.8-1.1-2.3-1.4-3.8-1.8c-2-0.6-2-0.5-2.2,1.5c0,0,0,0.1,0,0.1
	c-0.8,1.2-0.1,2.3,0.1,3.4c0.1,0.7,0.5,1.4,0.3,1.9C109.2,62.5,110.4,64.2,110.7,66.1L110.7,66.1z M98.2,130.3l-0.2,0.3
	c1.7,1.5,3.3,3,5,4.4c1.9,1.6,3.9,3,5.8,4.5c0.8,0.6,1.3,1.5,2,2.1c1.5,1.2,3.1,2.3,4.7,3.4c1,0.7,1.9,1.3,2.9,2
	c1.7,1.3,3.3,2.6,5.5,2.8c-1-2.2-3.7-2.9-4.9-5.1c-1-1.5-2.2-2.9-3.6-4c-1.3-1.1-2.7-2.1-4.2-3l-0.3,0.3l0.5,0.8l-0.1,0.1l-7.1-5.8
	l-0.3,0.4c0.6,0.4,1.2,0.9,1.8,1.4c0.3,0.4,0.5,0.8,0.7,1.2c-0.5,0-1,0.1-1.4-0.1c-1.1-0.8-2.1-1.7-3.1-2.6S99.3,131.3,98.2,130.3z
	 M153,151.3h-2.6l0.1,1.1l-1.2-0.9l-0.2,0.2l2.5,5.5l0.4-0.1c-0.1-0.8,0-1.8-0.4-2.2c-0.6-0.5-0.6-0.7-0.2-1.2
	c1.2-1.3,2.4-2.6,3.5-3.8c1.7-1.8,3.6-3.6,5.2-5.5c1.6-2.2,3-4.4,4.3-6.7c0.9-1.5,1.8-3.1,2.7-4.6c0.4-0.8,0.9-1.6,1.4-2.3l-0.3-0.2
	c-0.7,0.7-1.4,1.4-2,2.2c-1.1,1.3-1.9,2.8-3.1,4.1c-1.3,1.3-2.2,2.9-2.7,4.6c-0.2,0.5-0.5,1.1-0.9,1.5c-0.3,0.4-0.8,0.6-1.1,1.1
	c-0.5,0.7-0.8,1.5-1.2,2.2l-0.4-0.2l0.5-1.8C155.8,146.6,153.1,148.1,153,151.3L153,151.3z M187.7,153.9c-1.1,1.3-2.2,2.6-3.4,3.8
	c-1.6,1.5-1.4,4.1-3.2,5.4c-0.1,0.1,0,0.5-0.1,0.8c-0.1,0.4-0.3,0.9-0.5,1.3c-0.3,0.4-0.9,0.7-1,1.2c-0.4,1.2-1.4,2.3-1,3.8
	c0,0.1-0.1,0.4-0.2,0.5c-0.5,0.6-1.1,1.2-1.5,1.9c-0.2,0.4-0.4,0.9-0.5,1.4c1.1-0.7,2-1.7,2.7-2.8c0.5-1.2,0.9-2.5,1.2-3.8l0.5,1.3
	c0.4-0.8,0.7-1.4,1.1-2s0.7-1.2,1.1-1.8l0.3,0.1l-0.4,1.8c1.4-0.1,2.6-2.9,2.1-4.4C186.4,159.7,186.9,156.8,187.7,153.9L187.7,153.9
	z M121.8,89.8h-0.2c0-0.5-0.1-1-0.1-1.5s0-0.9,0-1.4h-0.3c-0.8,2.3-2.8,4.5-0.1,6.9l1.6-0.7c0,1.1-1,2.4,0,3.7
	c1.1-1.1,3.8-13.6,3.2-14.9c-0.8,1.7-0.2,3.8-1.5,5.4c-0.9-1.5,1-2.8-0.1-4.2c-1.1,2-2.3,3.8-0.6,6l-0.4,0.1l-1.2-1.4L121.8,89.8z
	 M141,118.2l-0.6-0.1c-0.2,0.9-0.4,1.7-0.6,2.6c-0.2,1.4-0.3,2.9-0.6,4.3c-0.8,3.5-0.1,7.2,1.9,10.2c1-0.7,1.4-2,0.9-3.2l0.9-1.1
	c-1.1,0.1-1.2-0.1-1.2-1.1c0.1-1.6,0.3-3.2,0.4-4.9l1.5-0.2l-1.3-0.6l1.2-1.5c-1,0.1-1.9-0.1-2.2,1c-0.1,0.3-0.4,0.4-0.6,0.7
	c-0.2-0.3-0.5-0.6-0.5-0.9c0.1-0.6,0.2-1.2,0.4-1.7C140.7,120.6,140.9,119.4,141,118.2z M134.2,69.5l-0.2,0.1
	c0.3,1.8,0.7,3.6,0.9,5.4s0.2,3.7,0.3,5.7c-0.3-0.2-0.5-0.3-0.5-0.4c-0.1-0.9-0.1-1.8-0.3-2.6c-0.1-0.3-0.2-0.6-0.3-0.9
	c-0.1,0.3-0.4,0.6-0.3,0.8c0.2,1.2,0.3,2.4,0.4,3.5c0,0.8,0.3,1.1,0.9,1.1c0.3,0,0.7-0.5,0.8-0.9c0.7-2.2,0.9-4.6,0.6-6.9
	c0-0.3,0-0.5,0-0.8c0.3-1.3,0.4-2.7,0.4-4c-0.3-1.5-0.7-3-1.2-4.4c-0.4-1.2-0.7-2.4-1.1-3.5l-0.5,0.1l2.3,11.1h-0.2l-1.9-6.4
	l-0.4,0.1l0.8,3.4l-0.2,0.1L134.2,69.5z M103.7,62.1C103.6,62.1,103.6,62.1,103.7,62.1l-0.3-2.8l0.3-0.1l2.3,7.1
	c1.6-0.7-0.1-2,0.6-2.7c0.6,1.3,0.9,2.7,0.8,4.1c-0.3,0.9,0.1,1.9,0.9,2.4c-0.1-2.2,0-4.1-0.9-6c-0.6-1.3-1.4-2.8-1.2-4.2
	c0.2-2.2-0.8-3.7-1.5-5.2l-1.2,2.1l-0.9-2.7c-1.4,1.5,0.8,2.3,0.5,3.5c-0.4-0.3-0.8-0.5-1.2-0.7c-0.2,0-0.4,0-0.5,0
	c0,0.2,0,0.4,0,0.6C102.1,59,102.8,60.5,103.7,62.1L103.7,62.1z M193.4,203.1l0.4,0.4l1.3-1.1c-0.8-0.7,0-0.7,0.4-0.8
	c1.6-0.6,2.5-2.3,2.2-4c-0.4,0.2-0.8,0.4-1.2,0.6c-1.4,1-2.8,2.1-4.4,3s-1.8,2-2,3.5l1.7-0.2c-0.8,0.6-2.5,0.2-1.7,2.1
	c0.2,0,0.4,0,0.5,0l5.1-1.7c1.6-0.5,1.7-0.9,0.9-2.4l-4.1,1.7c-0.1-2.6,0.1-2.9,1.4-2.4L193.4,203.1z M154.4,143.7
	c1.3-0.8,2.4-2.9,1.9-3.9c-0.3-0.7-0.3-1.5,0.1-2.2c0.3-1,0.5-2.1,0.8-3.1l-0.5-0.1l-2.2,5.5l-0.3-0.5c-1.2,0.6-2.1,1.7-2.3,3.1
	c0,0.3-0.7,0.4-1.3,0.7c-0.1,0.6-0.3,1.5-0.6,2.3c-0.1,0.3-0.4,0.5-0.7,0.7c-0.6-0.7-0.4,0.3-0.7,0.4c0,0.4,0.1,0.7,0.2,1.1
	c0.1,0.2,0.3,0.5,0.4,0.7c0.1,0.2,0.3,0.4,0.4,0.6c0.2-0.1,0.6-0.2,0.7-0.5c0.5-1.1,0.9-2.2,1.4-3.2c0.4-0.6,0.7-1.2,1.2-1.8
	l0.2,0.2l-0.2,1.1l0.3,0.1l1.6-2.3L154.4,143.7z M182.6,210.7l-0.1,0.3l-1.1,0.2l0.4,1.3l0.8-0.4l2.1,1.1l0.3-0.4l-0.9-0.7l0.9-1.4
	l-1.4,0.4V210c0.6-0.1,1.2-0.2,1.8-0.1c1.5,0.4,1.5-0.5,1.4-1.5c0-0.3,0.1-0.7,0.2-1c0-0.1,0.1-0.2,0.2-0.3l0.4,1
	c0.4-1.1,0.6-1.8,0.8-2.6c-1.6-0.2-3.1-0.3-4.6-0.5c-0.1,0-0.4,0.3-0.5,0.4c-0.2,0.6-0.4,1.3-0.6,1.9c0,0.1,0.1,0.1,0.1,0.2l0.4-0.5
	l0.3,1.3l-1.4-0.3l-0.4,2L182.6,210.7z M167.5,163.8c-2.4,3-3,4.9-2.2,6.8l0.7-1.5l0.3,0.2l-2.1,4.8l0.2,0.1l0.8-0.4
	c-0.9,1.1-1.1,2.6-0.4,3.9c0.2-0.1,0.3-0.3,0.4-0.6c0.9-2,1.9-4,2.7-6c0.1-0.4,0.1-0.7,0.1-1.1c0-0.6-0.2-1.3,0.1-1.7
	C168.9,166.6,167.2,165.3,167.5,163.8L167.5,163.8z M150.5,198.9c0.6,1.4,1.2,2.6,1.7,3.8c0.1,0.2,0.3,0.4,0.5,0.5
	c1.7,1.1,3.8,1.7,5.8,1.6c0.1,0,0.4-0.8,0.3-0.9c-0.6-0.4-1.3-0.7-2-1c-0.9-0.3-1.8-0.6-2.8-0.9l0.1-0.4c0.5,0.1,1.1,0.2,1.6,0.3
	c0.6,0,1.1,0,1.7-0.1c-1.4-2.4-3-3.2-4.3-1.9l1.1,0.3l-0.4,0.4L150.5,198.9z M156,156c-0.8-1.4,0.5-2.2,0.8-3.2
	c0.4-1.1,1-2.1,1.7-3.1c0.6-0.9,1.2-1.7,1.9-2.6c-3.8,3.2-5.8,7.2-5.3,10l0.5-0.9c0.1,0.1,0.2,0.2,0.2,0.2c0,0.2,0,0.3-0.1,0.4
	c-0.6,2.5-1.9,4.8-0.8,7.5c0.4-0.8,0.7-1.7,0.8-2.5c0.2-1-0.1-2.2,1.2-2.7c0.1-0.1,0.2-0.3,0.3-0.5c0.6-1.5,1.2-3,1.8-4.6
	c0.1-0.2,0.1-0.5,0.3-1l-1.5,1.7l-0.7-0.5L156,156z M200.2,186.7c-0.3,0.2-0.6,0.3-0.8,0.5c-1.6,2.1-3.7,4-4,6.9
	c-0.1,0.4-0.3,0.7-0.6,1c-0.3,0.3-0.7,0.5-1,0.8c-0.3,0.5-0.6,0.9-0.9,1.4c2.3-0.2,4.4-1.7,5.1-3.9
	C198.9,191.3,199.5,189.1,200.2,186.7L200.2,186.7z M126.6,69.1h-0.3c-0.7,5-2.3,9.8-3.7,14.7c1.4-1.1,1.7-2.8,2.5-4.2s2-2.8,2-4.6
	c0-1.6,0.2-3.2,0.3-4.7h-0.1l-0.3,1.3l-0.2-0.1L126.6,69.1z M148.3,193.6l-0.3,0.2c0.3,0.5,0.6,1.1,0.8,1.7c0.6,2.4,2.9,3.9,5.3,3.3
	c0.2,0,0.3-0.1,0.5-0.1l-0.9-0.8l0.8-0.4c0-1.8-1.8-1.1-2.3-2c0-0.5,0-1.1-0.3-1.4c-1-0.7-2-1.3-3-1.9c-0.7-0.4-1.2-0.6-1.4-1.5
	c-0.1-0.4-0.5-0.8-0.8-1.2c0,2.2,0.9,3.1,5.1,5.1l-0.3,1L148.3,193.6z M120.4,167.3l0.3-0.5l-9.3-5.5l-0.1,0.1l2.7,0.7l-6.8-3.9
	c1,1.9,3.1,2.6,4.3,4.2c1.1,1.1,2.2,2.2,3.4,3.1c1.1,1,2.5,1.5,3.9,1.4l-1.2-1.1l0.1-0.1L120.4,167.3z M182.3,158.9
	c-3.2,0.6-9.1,8.4-9.3,12.2c0.5-0.5,1-1,1.4-1.5c1.2-1.1,2.1-2.4,2.8-3.8c0.6-1.3,1.3-2.6,2-3.8c0.1-0.2,0.2-0.4,0.4-0.4
	C181,161.4,181.4,160.1,182.3,158.9z M175.9,148.4c0.7-0.8,1.4-1.4,2-2.1c0.4-0.4,0.8-0.9,1-1.5c0.8-2.6,1.5-5.3,2.3-8
	c0,0-0.1-0.1-0.2-0.2c-1.3,2.1-2.7,4.2-4,6.3c-0.5,0.8-0.8,1.6-1,2.5C175.9,146.3,175.8,147.4,175.9,148.4z M105.7,117.5l0.1-0.4
	c-1.6-1.2-3.1-2.5-4.7-3.8c-0.7-0.5-1.5-0.7-2.2-1.2c-1-0.8-1.9-1.8-2.9-2.7c0,0,0.3-0.4,0.2-0.4c-0.8-0.7-1.6-1.3-2.3-2l-0.4,0.3
	c0.6,1.2,1.3,2.3,2,3.3c0.7,0.6,1.4,1.2,2.2,1.6c0.7,0.6,1.4,1.3,2.2,1.8c1,0.7,2,1.2,2.9,1.9c0.7,0.5,1.4,1,2.1,1.5
	C105.1,117.6,105.4,117.5,105.7,117.5z M152.8,125.7c-0.5,1.9-0.9,3.8-1.4,5.7c-1,3.4-2,6.7-3.1,10c-0.5,1.4-0.5,2.9,0,4.2
	c0.3-0.5,0.6-1.1,0.7-1.7c0.4-2.6,2.2-4.9,1.6-7.7c-0.2-0.8,0.4-1.8,0.8-2.6C152.5,131.2,153,128.4,152.8,125.7L152.8,125.7z
	 M159,159.1c-0.2,2-2.4,3.1-1.8,4.9c0.5,1.4-0.6,3.3,1.4,4.4c0.6-4.5,1.1-8.8,1.6-13.2l-0.3-0.1l-2.1,4.9l0.3,0.1L159,159.1z
	 M156.1,208.9l0.1-0.2c0.8,0.1,1.6,0.2,2.4,0.2c0.3,0,0.9-0.3,0.9-0.5c0.1-0.5,0-0.9-0.3-1.3c-1.1-1.1-2.5-1.8-4-2
	c-0.2,0-0.5,0.1-0.7,0.2c0.1,0.2,0.2,0.4,0.4,0.6c1,0.7,1.9,1.4,2.9,2.1c-0.4,0.1-0.9,0-1.2-0.1c-0.8-0.2-1.7-0.2-1.8,0.7
	c-0.1,0.5,0.6,1.1,1.1,1.6c0.2,0.2,0.6,0.1,0.9,0.2s0.6,0.2,0.6,0.3c0.1,1.2,1.1,0.7,1.9,1l-0.6-0.6l1.1-0.2v-0.3L156.1,208.9z
	 M97.8,114.7l-0.3,0.3c0.2,1,1.1,1.3,1.9,1.7c0.6,0.3,1.2,0.6,1.7,1.1c1.4,1.1,2.6,2.4,4,3.4c1.8,1.4,3.6,2.7,5.4,4
	c0.4,0.2,0.9,0.2,1.4,0.2c-2.2-2-4.5-3.9-6.9-5.7C102.8,118,100.3,116.3,97.8,114.7L97.8,114.7z M128.3,80.7
	c2.1-5.3,1.8-11.2-0.8-16.2c0,1.6-0.3,3.4,0.4,4.6c0.9,1.8,0,3.4,0.5,5.2C129.1,76.1,128.4,78.5,128.3,80.7L128.3,80.7z M100.8,65.5
	l0.4-0.2l-2.1-4.7l0.2-0.2l2.8,3.5l-1.7-6l-0.3,0.1l0.2,1.5l-1.8-2.1c0,0,0-0.2,0-0.7c-0.4,0.2-0.8,0.3-0.7,0.4
	c-0.1,1.2,0,2.5,0.2,3.7C98.4,62.8,99.4,64.4,100.8,65.5z M141.8,220.2c0.7,0.9,1.3,1.7,1.9,2.5c0.1,0.1,0.5,0.1,0.8,0
	s0.4-0.4,0.7-0.4c1.6-0.1,3.2,0,4.8-0.1c0.6-0.1,1.2-0.2,1.7-0.3v-0.4c-1.4-0.6-2.8-1.5-4.6-1.1l1,1.3
	C144.4,219.8,143.5,219.9,141.8,220.2L141.8,220.2z M140.9,175.5l0.4-0.2c-0.2-2.2-2.8-4.9-4.6-4.4l2.3,1.7l-0.2,0.2l-5-2.4
	c0.3,1.1,1,2.1,2,2.7l3.3,2.1c0.1,0.1,0.3,0.1,0.4,0.1v-1.8l0.4-0.1L140.9,175.5z M164.8,129.2l0.6,0.3c0.3-0.7,0.6-1.4,0.8-2
	c0.3-1.3,0.6-2.6,1.1-3.8c1-2.3,2.1-4.5,3.2-6.9c-0.6,0.5-1.1,1-1.6,1.5c-1.2,1.8-2.3,3.7-3.3,5.6c-0.5,1-1.4,2.1-0.3,3.4
	c0.2,0.2,0,0.7-0.1,1.1C165.1,128.7,165,129,164.8,129.2L164.8,129.2z M167,155.4h-0.3c-1,2.1-0.4,4.4-0.9,6.6l-0.2-1h-0.3l-1.1,5.7
	l0.3,0.2c0.3-0.3,0.5-0.6,0.7-0.9c0.6-0.9,1.1-1.8,1.6-2.7c0.6-0.8,0.7-2,0.1-2.9c-0.2-0.4-0.3-0.8-0.2-1.2
	C166.9,157.8,167,156.6,167,155.4z M137.8,108.9h-0.1v-2.2c-1.5,1.1-1.3,6.6-1.2,9.8c1.2-1.1,2.4-7.1,1.6-8.6L137.8,108.9z
	 M166.9,130.2l0.3,0.3l9.4-8.2l-0.1-0.3c-1.2,0.5-2.7,0.6-3.5,1.4c-1.6,1.6-3.1,3.4-4.6,5.2C167.8,129.2,167.4,129.7,166.9,130.2
	L166.9,130.2z M184.6,196.6v-3.4c-0.4,0.1-0.6,0.2-0.9,0.3s-0.6,0.4-0.9,0.4c-1.3,0.2-1.8,0.8-1.8,2.2c-0.1,0.7-0.3,1.4-0.7,1.9
	c-0.4,0.7-0.6,1.3,0,2c0.7-0.8,1.3-1.7,1.8-2.6c0.9-2.4,0.9-2.4,1.6-2.5l-0.4,1.2L184.6,196.6z M95.7,120.6c0.5,2.1,6.7,8.1,8.4,8.2
	C101.7,125.8,99.2,122.9,95.7,120.6L95.7,120.6z M166.2,178.2l0.2,0.3c0.4-0.2,1.1-0.4,1.3-0.7c0.5-0.9,0.9-1.9,1.1-3
	c0-1.1-0.1-2.2-0.3-3.3c-0.5,0.7-1,1.4-1.5,2.2c-0.4,0.8-0.8,1.7-1.1,2.6c-0.1,0.2,0.2,0.5,0.3,0.8l0.2-0.1L166.2,178.2z
	 M141.7,214.8c0.6,2.9,2.9,2.6,4.9,3.2l-1.1,0.2v0.4l3.1-0.2C147.1,215.6,144.2,215.9,141.7,214.8L141.7,214.8z M185.6,179.9
	l-0.4-0.3c-0.1,0-0.3,0-0.3,0.1c-1.2,1.5-2.9,2.6-3.3,4.6c-0.1,0.3-0.3,0.6-0.6,0.7c-1.3,0.9-1.7,1.8-1,3.1l0.5-1.5
	c0.3,0.1,0.6,0.1,0.9-0.1c0.2-0.2,0.4-0.5,0.5-0.8L185.6,179.9z M133.5,184.1c-0.3-0.7-0.3-1.8-0.9-2.1c-1.6-1.1-3.4-2-5.1-3
	C128.3,182.2,131.1,182.9,133.5,184.1L133.5,184.1z M124.1,100.2c1.3-2,2.6-7.7,1.8-8.7c-0.3,1-0.6,1.9-1,2.8
	c-0.6,1.2-0.6,2.9-2.3,3.5L124.1,100.2z M185.1,231.3l1.2-0.4c1,0.7,1.9,1.9,3.8,1.8l-0.6-0.8l0.2-0.2l0.9,0.6l0.8-1.2
	c-0.7-0.3-1.4-0.6-2.1-0.8c-0.8-0.3-1.6-0.5-2.4-0.7C185.8,229.4,185.4,230.2,185.1,231.3L185.1,231.3z M164.4,211.6
	c0.5,0,0.9,0.1,1.2,0s0.8-0.7,0.7-1c-0.3-1.2-0.8-2.3-1.4-3.4c-0.6-0.6-1.3-1.1-2.1-1.3c-0.1,0-0.6,0.6-0.6,0.6
	c0.6,0.7,0.6,2.1,2,2.1c0.1,0,0.1,0.1,0.2,0.2l-0.4,0.6l0.7,0.4L164.4,211.6z M170.4,196.6c-0.4,0.4-0.7,0.9-1,1.4
	c-0.6,1.3-0.2,2.4,1.1,3.6c0.6-2.4,1.2-4.5,1.7-6.6c0-0.1-0.1-0.5-0.1-0.5s-0.6,0-0.6,0.1C170.9,195.4,170.6,196.1,170.4,196.6
	L170.4,196.6z M91.6,105.6c-0.6-2.2-2.2-3.6-3.7-5.1l-0.9,0.6l2.6,3.4l-1.2-0.2C89.1,106.1,90,106.4,91.6,105.6z M100.9,66.7
	l-0.5,0.4l4.2,6l0.5-0.2c-0.3-1.2-0.6-2.3-1-3.5s-1.1-2.2-1.6-3.3l-0.3,0.2l0.9,2.8L100.9,66.7z M179,193.9c0.2-0.1,0.4-0.2,0.5-0.4
	c0.2-2,2.6-2.3,3.2-4c0.4-0.7,0.9-1.4,1.5-1.9c-2.4,0-3.7,1.3-4.2,3.6C178.8,191.3,178.6,191.8,179,193.9z M156,150.3
	c-4.3,3.5-4.5,6.5-3.1,9.3C152.8,156.1,154.7,153.3,156,150.3z M160.5,132.4c0.1-1.4,1.7-2.4,0.6-4c-0.1-0.2,0.3-0.8,0.5-1.3
	c0.4-1.1,0.7-2.2,1-3.3c-2.5,1.8-1.5,4.7-2.4,7.4L160,130h-0.2l-1.3,4.7l0.4,0.1l1.1-2.7L160.5,132.4z M108.3,51.7V52l7.9,0.6
	C114.5,50.6,110.7,50.3,108.3,51.7z M101.2,130.2l0.2-0.2l-8.1-7.9l-0.2,0.2C95,125.9,98,128.1,101.2,130.2z M187.4,198.9l-0.2-0.2
	c1.4-0.6,1.6-1.8,1.7-3.1c-2,0.1-1.7,0.7-3.8,4.4l1.6-0.9l0.2,0.2l-1.5,1.7c1.6-0.4,2.8-1.6,2.6-2.4L187.4,198.9z M154.9,225.7
	c-0.9-0.4-5.7,0.2-6.9,0.9C149.1,228.1,153.3,227.6,154.9,225.7z M137.3,178l-0.2,0.3c1.3,1.6,2,4.1,4.8,4.1c0-1.2-0.6-2.3-1.6-2.8
	L137.3,178z M146.9,197.6l-0.2,0.2c0.5,1,1,1.9,1.7,2.8c0.8,0.8,1.8,1.5,2.7,2.1l0.3-0.4c-0.7-0.9-1.3-1.8-1.8-2.9
	C149.1,198.1,147.9,198.1,146.9,197.6L146.9,197.6z M158.1,187.2l0.4-0.5l-4.3-8.6l-0.4,0.2c0.2,0.6,0.5,1.2,0.7,1.8
	c0.8,2.1,1.6,4.2,2.5,6.3C157.3,186.7,157.8,186.9,158.1,187.2L158.1,187.2z M126.4,94.4c-0.4,2.9-1.9,5.4-1.1,8.2l0.4,0.1l1.4-4
	l-0.3-0.1l-0.9,1.2C125.9,97.9,127.8,96.4,126.4,94.4z M119.1,131.4c-0.3-1.4-2.3-3.1-6.5-5.5c-0.6-0.2-1.3-0.3-1.9-0.3
	C113.8,127.3,116.3,129.6,119.1,131.4L119.1,131.4z M163.1,203.9c-0.6-0.3-1.1-0.6-1.6-1c-0.3-0.5-0.6-1-0.8-1.6l-0.3,0.1
	c0.4,2.7,1.3,3.5,3.2,2.8c0-1.9-1.7-4.7-3.1-4.9C161.5,201,162.3,202.4,163.1,203.9L163.1,203.9z M134,183c0.3,2.1,1.2,2.8,2.3,2
	c0.5,1.7,2,2.9,3.8,3.1c-0.6-0.9-1.2-1.7-1.9-2.4c-1.1-0.9-2.3-1.7-3.5-2.4C134.4,183.2,134.2,183.1,134,183z M83.4,94
	c-0.8,1.7,1.9,6.2,3.8,6.3L83.4,94z M145,190c0.1-1.9-1.9-4-4-4.4C141.4,187.7,142.9,189.5,145,190L145,190z M126.8,172.4
	c-1.3-0.9-2.6-1.8-3.8-2.8c-0.6-0.4-1.6-0.5-1.3-1.7c0-0.2-0.5-0.5-0.7-0.7l-0.2,0.2l0.1,0.6l-1.5-0.6
	C119.5,168.6,125.1,172.3,126.8,172.4L126.8,172.4z M176.1,180l0.2,0.3c0.2-0.2,0.6-0.4,0.7-0.7c0.7-1.3,1.4-2.6,1.9-4
	c0.1-0.9,0.1-1.8,0-2.8c-0.5,0.8-0.8,1.7-1.2,2.6c-0.3,0.5-0.6,1-1,1.5c-0.2,0.3-0.4,0.5-0.6,0.8C177,178.7,176.5,179.4,176.1,180
	L176.1,180z M185.3,218.5l4.9-1.8l-0.1-0.3c-0.9-0.1-1.9-0.3-2.8-0.3C185.2,216.1,185.2,216.1,185.3,218.5L185.3,218.5z
	 M130.6,129.4c-0.6-1.2-1-2.1-1.5-3c-0.2-0.3-0.5-0.7-0.8-0.8c-1.2-0.2-2.4-0.2-3.7-0.3L130.6,129.4z M146.4,162l-0.6,0.3
	c1.5,3.2,3,6.4,4.5,9.6l0.6-0.3L146.4,162z M152.5,212.6l3.3,0.2l0.1-0.4c-0.9-0.5-1.8-1.1-2.7-1.6c-0.5-0.3-1.8,0.4-1.4-1.1
	c-0.1-0.1-0.3-0.2-0.5-0.3c-0.5-0.1-1.1-0.1-1.6-0.2l-0.2,0.3c0.5,0.5,1.1,0.9,1.7,1.2C152.1,211.1,152.6,211.5,152.5,212.6
	L152.5,212.6z M138.5,211.1c0.5,0.3,1.1,0.5,1.7,0.7c0.7,0.2,2,0.1,2.1,0.4c0.4,1.2,1.3,0.8,2.1,1.2
	C143.6,211,140.5,209.6,138.5,211.1L138.5,211.1z M163.2,149.2l2.6-6.5l-1.6-0.7c1,2.9-1.5,4.8-2,7.4L163.2,149.2z M100.3,110.4
	c-0.1-1.3-5.9-6.8-7.2-6.7L100.3,110.4z M177.1,216.6l0.5,0.1c0.3-0.7,0.5-1.4,0.6-2.1c0.1-0.7,0.1-1,0.9-0.5
	c0.2,0.1,0.9-0.3,1.1-0.6c0.1-0.1-0.2-0.6-0.3-1c-0.9,0.3-2.1,0.3-2.5,0.9C176.8,214.2,176.7,215.4,177.1,216.6L177.1,216.6z
	 M188.9,183.2c-0.2,0.5-0.2,1-0.4,1.2c-0.6,0.6-1.4,0.9-1.8,1.5c-0.6,0.8-1.2,1.7-1.7,2.6c1.2-0.7,2.5-1.5,3.6-2.3
	c0.2-0.1,0.4-0.5,0.4-0.6c-0.4-0.8,0.4-1,0.6-1.5c0.1-0.3,0.3-0.6,0.6-1L188.9,183.2z M146.8,193.9c-0.9-1.6-2.2-2.9-3.8-3.7
	c0.1,0.6,0.6,1.1,0.7,1.6C144.3,193.6,144.9,194.1,146.8,193.9L146.8,193.9z M87.7,69.3l-0.5,0.4c1.4,2.2,2.7,4.5,5.1,5.9l0.3-0.2
	L87.7,69.3z M133.6,79.3l-0.4-0.1c-0.9,3.8-2.7,7.3-2.6,11.3c0.6-1.8,1.1-3.7,1.5-5.6S133.1,81.2,133.6,79.3z M145.3,204.6
	c-0.3,1,0,1.6,0.7,1.7c1.3,0.1,2.5,0.1,3.8,0.1c0.6,0,1.3-0.1,1.9-0.1v-0.4c-1.7-0.4-3.4-0.8-5.1-1.1c-0.1,0-0.3,0.4-0.4,0.6
	L145.3,204.6z M144.5,206.3c0.4-2.1,0.2-2.6-1-2.8c-0.4,0-0.8,0-1.2,0c-0.2,0-0.5,0.1-0.7,0.1c0.1,0.3,0.1,0.7,0.2,0.8
	C142.6,205.1,143.5,205.7,144.5,206.3L144.5,206.3z M177.5,202.6c-0.1,0-0.3,0-0.4,0c-0.8,1.1-1.6,2.2-2.2,3.4
	c-0.1,0.2,0.1,0.7,0.2,1c0,0.1,0.4,0.1,0.4,0.1c0.1-0.3,0.1-0.6,0.2-0.9c0-0.1,0.1-0.3,0.1-0.5c1.2,0.6,1.2-0.7,1.7-1.1
	S177.4,203.3,177.5,202.6L177.5,202.6z M129.2,82.6l0.5,0.2c0.3-0.4,0.6-0.9,0.8-1.3c0.4-1,0.7-2.1,1-3.2c0.1-0.8,0.2-1.6,0.3-2.4
	l-0.5-0.1L129.2,82.6z M91.5,95l0.2-0.2l-4.2-5.3C87.2,91.1,89.8,94.4,91.5,95z M187.1,209.5l0.4,0.1l4.7-2.4l-0.1-0.3l-2.9,0.4
	l-0.5-1L187.1,209.5z M178.1,181.9c-1.4,1.5-1.6,3-0.4,5.3C178.5,186.1,178.8,182.9,178.1,181.9L178.1,181.9z M158.8,135.9h-0.3
	c-0.7,1.5-0.9,3.2-0.6,4.9c1-0.7,1.8-2.4,2.1-4.4l-0.3-0.3l-0.9,1.5l-0.1-0.2L158.8,135.9z M131.7,101.9h0.3c1-2.6,1.4-6.7,0.5-8.3
	L131.7,101.9z M120.2,85l0.4,0.1c0.1-1.1,0.3-2.2,0.4-3.3s0.3-2.3,0.4-3.4c0.2-2.8,0.2-2.8-0.3-3.4L120.2,85z M165.2,223.7
	c-0.8-1.7-1.8-1-2.8-0.4c-0.1,0-0.1,0.1-0.2,0.1c-0.8,0.3-0.6,0.7-0.1,1.1C163.4,225.5,164.3,225.3,165.2,223.7L165.2,223.7z
	 M135.8,168.5l3.7,2.5c-0.1-2.2-1.7-3.1-3.4-3.9L135.8,168.5z M175.8,214.4l-1.4,0.1c0,1.1,0.6,1.5,1.8,1.5c0.2-1.2,0.4-2.3,0.6-3.4
	l-0.2-0.2c-0.6,0.5-1.7-0.4-1.9,0.9C174.6,213.7,175.4,214.1,175.8,214.4L175.8,214.4z M133.5,207.9c1.1,1.6,2.7,2.7,4.6,3.2
	C137.4,209.1,135.6,207.9,133.5,207.9L133.5,207.9z M155.2,125.4c1.2-3.3,1.9-6.8,1.9-10.4h-0.3L155.2,125.4z M183.9,198.4
	c-1.3-0.1-1.9,0.6-1.6,2.5c1-0.8,1.9-1.6,2.8-2.5c0.5-0.7,0.8-1.4,1.1-2.1l-0.4-0.2L183.9,198.4z M107.9,125.2l0.2-0.3l-6.7-5.1
	C101.5,121.1,105.1,123.8,107.9,125.2L107.9,125.2z M135.6,165.9l0.5-0.2c-0.5-1.2-1-2.3-1.6-3.5c-0.2-0.4-0.5-0.7-0.8-1.1l-0.3,0.1
	l-0.3-1l-0.4,0.1C133.7,162.3,134.1,164.4,135.6,165.9L135.6,165.9z M91.1,96.1c1.8,1.8,3.2,4,5.7,5.2C95.6,98.8,92.9,98,91.1,96.1z
	 M87.8,76.1c0,0.2-0.1,0.4,0,0.5c1,1.8,2,3.5,3.1,5.2c0.1,0.2,0.7,0.1,1.2,0.2L87.8,76.1z M131.1,131.7c-0.4-1.6-2.9-3.4-4.5-3.5
	C127.5,130.1,129.3,130.7,131.1,131.7L131.1,131.7z M157.6,168c-0.3,2.1,0.6,5.7,1.7,6.2C158.3,172.3,159.4,169.9,157.6,168z
	 M112.4,130.4l5.6,3.7C117.3,132.4,113.9,130.2,112.4,130.4L112.4,130.4z M119.9,164.6l0.3-0.5l-5.6-3.1l-0.2,0.4
	C115.8,163.1,118,163.5,119.9,164.6L119.9,164.6z M143.1,195.5l0.2-0.2l-4.1-4C139.3,193.3,140.6,194.7,143.1,195.5L143.1,195.5z
	 M154.8,99.8c-0.8,1.9-1.1,4-0.9,6.1C154.9,104.1,155.2,101.9,154.8,99.8L154.8,99.8z M182.4,168.9l-1.6,1.2l-0.2-0.9h-0.3l-0.5,3.2
	C182.1,172.2,181.8,170.3,182.4,168.9L182.4,168.9z M191.4,200.8c1.7-0.4,2.3-1.8,3.3-3C192.3,197.8,191.8,198.1,191.4,200.8
	L191.4,200.8z M164.4,114.8c-0.4,1-0.6,2-0.8,3.1c0,0.9-1.2,1.8-0.2,2.8C164.8,119,165.1,116.8,164.4,114.8L164.4,114.8z
	 M122.4,118.7c0.5,2.3,2.9,2.2,4.2,3.6C125.7,120.5,124.2,119.2,122.4,118.7L122.4,118.7z M159.4,217.5v-0.3l-1.9-0.3v-0.2l1.2-0.4
	c-0.8-1.1-1.7-0.9-2.9-0.3l1.3,0.8l-0.8,0.4C157.3,218.1,158.3,217.6,159.4,217.5L159.4,217.5z M161.7,167.2v5.1
	C163.1,170.4,162.8,168.8,161.7,167.2L161.7,167.2z M165,229.2l-0.1,1l1.6-1.8l-0.2-0.3l-1.2,0.6l0.4-1.3c-1.1-0.2-1.8,0.4-2.7,2.3
	L165,229.2z M157.9,213.2c0.8,1.7,2.1,1.3,3.1,1.6v-2L157.9,213.2z M165.3,151.9l-0.5-0.1c-0.6,2.4-1.3,4.9-1.9,7.3l0.3,0.1
	C164.6,157,164.4,154.3,165.3,151.9L165.3,151.9z M155.8,217.7c-0.6-1.8-1-2.1-2.9-1.8C153.2,217.7,153.9,218.1,155.8,217.7
	L155.8,217.7z M161.2,224.1l-2.2,1.8l0.2,0.3l-0.8-0.2c0.2,0.5,0.6,1,0.8,0.9c0.9-0.4,1.7-1,2.5-1.6
	C161.7,225.3,161.4,224.7,161.2,224.1L161.2,224.1z M130.3,63.9l0.4-0.2l-2.1-4.1l0.2-0.1l1,0.8c-0.1-0.3-0.1-0.6-0.2-0.8
	c-0.2-0.6-0.6-1-1.3-0.7s-0.5,0.9-0.2,1.4C128.8,61.4,129.5,62.6,130.3,63.9z M131,71c-0.2,1.6-0.5,3.2-0.7,4.8
	C131.9,74.2,132.1,72.7,131,71z M161.2,113c1.2-3.5,1.2-4.3,0.3-4.9C160.9,109.7,160.2,111.2,161.2,113L161.2,113z M151.5,84.8h-0.5
	c-0.1,2.4-0.3,4.8-0.4,7.1h0.6L151.5,84.8z M134.4,189.2l0.3-0.3c-1.2-2.1-3.4-3-5.4-4.1L134.4,189.2z M176.8,155.8
	c1.4-1.7,2.6-5.1,1.9-6.3L176.8,155.8z M142.1,197.9c-0.2,1,1.2,1.9,3.7,2.5C144.9,198.9,143.8,197.9,142.1,197.9z M139.1,96.3
	l-0.6-0.1l-1.3,7.1l0.4,0.1L139.1,96.3z M168.4,197c1.2-0.4,1.5-1.2,0.9-2.2l-0.9,0.8l0.1-1.2l-1.1-0.4c-0.3,1.7,0.1,2.3,1.1,2.2
	L168.4,197z M130.2,70.8c1.3-2.6,0.2-4.4-0.7-6.7L130.2,70.8z M166,227.4c0.4-0.6,0.9-1.1,0.8-1.4c-0.2-0.6-0.5-1.2-0.9-1.6l-1.5,1
	L166,227.4z M135.1,96.9l0.5,0.1c0.5-1.7,0.9-3.4,1.4-5.2l-0.4-0.1C134.8,93.1,136,95.3,135.1,96.9z M139.4,182.2l-0.2,0.3l4.1,3.5
	l0.2-0.3C142.8,183.8,140.9,183.1,139.4,182.2L139.4,182.2z M118,57.9l-0.3,0.1l1.5,6.1C120.1,61.5,118.7,59.8,118,57.9z
	 M143.9,181.1c2.1,2.8,2.2,2.8,3.4,2C146.3,182.2,145.6,181.1,143.9,181.1L143.9,181.1z M110.5,132.9l-0.3,0.4
	c0.8,0.8,1.6,1.6,2.5,2.4c0.2,0.2,0.6,0,0.9,0c-0.1-0.3,0-0.7-0.2-0.9c-0.5-0.5-1.1-0.9-1.7-1.3
	C111.3,133.3,110.9,133.1,110.5,132.9L110.5,132.9z M158.6,192.6c0.7,2,1.3,3.9,2.1,6.1C161.3,197.8,160.1,194.3,158.6,192.6
	L158.6,192.6z M144.8,194.6l3.5,2.4C147.8,194.8,147.4,194.5,144.8,194.6L144.8,194.6z M144.7,175c-1.1,2,0.8,2.7,1.4,4
	C146.2,177.5,145.7,176,144.7,175z M136.4,140.6l2.6,5.1C139.3,144.1,138.1,141.7,136.4,140.6z M131.1,135.2l0.4-0.3
	c0.2-0.9-0.1-1.9-0.8-2.5c-0.3-0.2-0.9,0.2-1.7,0.3L131.1,135.2z M185.9,213.9c2.4-0.5,1.1-1.7,1-3.1c-0.6,0.6-1.2,1-1.4,1.5
	S185.8,213.4,185.9,213.9z M128,87.5l0.5,0.1c0.4-1.4,0.8-2.7,1.2-4.1c0-0.1-0.2-0.5-0.3-0.5s-0.5,0.2-0.5,0.3
	C128.5,84.8,128.2,86.2,128,87.5z M120.3,72.9c1.1-2.5,1.3-4.8,0.3-6.1L120.3,72.9z M135.6,102.1c-1.4,1.8-1.4,4.2-0.3,5.1
	C135.3,105.6,135.4,103.9,135.6,102.1L135.6,102.1z M111.2,81.8l-1.5,0.5l2.5,2.7l0.4-0.3L111.2,81.8z M155.2,221.7
	c-0.8-1.7-2-2-4.1-1.1L155.2,221.7z M155.7,223.7c-0.9-1.4-2.8-1.5-4.4-0.2L155.7,223.7z M175.6,209.6l-0.6,2.6c1.8,0,2.2-0.5,1.7-2
	C176.2,210.1,175.4,210.7,175.6,209.6L175.6,209.6z M127.4,177.9l-4.2-2.7l-0.2,0.3C124.2,176.6,125.3,178,127.4,177.9L127.4,177.9z
	 M93.6,71.2c-0.5-1,0.1-3.1-2.2-2.5C91.2,70.2,92.8,70.4,93.6,71.2z M156.1,164h-0.4c-0.3,1.4-0.6,2.8,0.7,3.9l0.4-0.1L156.1,164z
	 M152.2,96.5c-1.2,1.6-1.1,3.3-1,5.1l0.4,0.1L152.2,96.5z M148.7,225.5l0.1,0.3l4.6-1.1C151.2,223.4,150.1,225.1,148.7,225.5
	L148.7,225.5z M166.4,217.6c-0.6,1.1-2.3,1.1-1.6,2.8l2.2-1.3L166.4,217.6z M128.7,90.5c-0.8,1.3-2.1,2.5-1.3,4.2l0.4,0.1
	L128.7,90.5z M138.1,183.9c0.2-1.1-1.8-1-1-2.3c-0.2-0.1-0.4-0.2-0.5-0.2c-0.4,0-0.9,0.2-1.4,0.3
	C135.6,182.9,136.9,183.4,138.1,183.9L138.1,183.9z M150.6,207.7c0.3,1.2,0.9,1.6,2.6,1.6C152.3,207.7,151.7,207.4,150.6,207.7
	L150.6,207.7z M155.7,215.1l1.5-0.8c-0.5-0.4-1-0.7-1.6-1c-0.1,0-0.6,0.6-0.7,0.9C155,214.5,155.4,214.8,155.7,215.1L155.7,215.1z
	 M133.5,139.1c0.2,1.6,1.4,2.8,2.9,3.2l-1.5-2.8l-0.6,1.2L133.5,139.1z M181.6,212.8l-0.8,1.5l0.2,0.4c0.5-0.1,1.4,0,1.6-0.3
	C183,213.7,182.8,213,181.6,212.8L181.6,212.8z M145.5,214.6v-0.3c-1.6-0.2-3.1-0.5-4.7-0.7c-0.1,0-0.2,0.4-0.4,0.7L145.5,214.6z
	 M111.9,131.3l-0.3,0.4l4.4,3.4l0.3-0.4L111.9,131.3z M161.4,157.9c-0.5,0.3-1.1,2.9-1.1,4.9c0.4-0.7,0.7-1.5,0.9-2.3
	C161.3,159.6,161.4,158.8,161.4,157.9L161.4,157.9z M169.2,228.5c-0.9,0.9-1.6,1.5-2.3,2.2c-0.1,0.1-0.2,0.2-0.2,0.3
	c0,0.2,0,0.4,0,0.7c0.2,0,0.6,0.1,0.7-0.1c0.6-0.5,1.1-1.1,1.5-1.8C169.1,229.3,169.2,228.9,169.2,228.5L169.2,228.5z M163.2,215.1
	l0.3-0.2v-2.1c-0.4-0.1-0.7-0.1-1.1-0.1c-0.2,0.1-0.4,0.2-0.5,0.4C162.3,213.8,162.7,214.5,163.2,215.1L163.2,215.1z M148.4,186.3
	c-0.9-1.2-2.5-1.9-3.4-1.3C146.2,185.3,146.9,186.8,148.4,186.3z M136,111.4c-1.5,1.4-1.7,2.6-0.6,4.1L136,111.4z M192.4,214.8
	c1.2,1.4,2.1,1.4,2.9-0.3L192.4,214.8z M132.1,67.9l-0.5,0.1l1,5.6h0.3C132.6,71.7,132.3,69.8,132.1,67.9z M94.1,80.4
	c0-1.9-0.9-3.2-2.4-3.5L94.1,80.4z M166.2,191.4l0.8-2.3C164.9,189.2,164.8,189.4,166.2,191.4L166.2,191.4z M120.5,144.1
	c0.5,1.5,1.8,2.5,2.9,2.2L120.5,144.1z M167.6,157.7h0.4v-4.4h-0.4V157.7z M116.7,59.7c0.5-1.2,0-2.7-1.3-3.2
	c-0.1,0-0.2-0.1-0.3-0.1L116.7,59.7z M96.8,120.2l0.8-0.7l-3.4-3.2l-0.3,0.3L96.8,120.2z M136.4,200.9l0.3-0.5l-3-1.7l-0.2,0.4
	C134,200.4,135.4,200.3,136.4,200.9z M129.6,97.4c1.1-1,1.8-3.5,1.4-4.6L129.6,97.4z M166.1,217.2l-0.1-0.4
	c-0.6-0.1-1.2-0.2-1.8-0.2c-0.2,0-0.5,0.5-0.5,0.7s0.5,0.7,0.6,0.6C165,217.7,165.5,217.5,166.1,217.2L166.1,217.2z M154.2,214.8
	c-0.4-1.4-1.6-0.9-2.5-1.5C152.1,214.8,152.8,215.3,154.2,214.8L154.2,214.8z M145.1,110.8c1.4-1.1,1-2.4,1.3-3.6
	c0-0.1-0.2-0.3-0.4-0.3s-0.3,0.2-0.3,0.3C145.5,108.3,145.4,109.4,145.1,110.8L145.1,110.8z M180.4,179.9c-1,1.2-0.7,2.3-0.6,3.5
	C181,182.5,180.7,181.3,180.4,179.9L180.4,179.9z M120.3,172.8l-0.2,0.4c0.7,0.3,1.3,0.7,2,0.9c0.7,0.2,1.4,0.4,2.2,0.5l0.1-0.3
	L120.3,172.8z M95.7,79.8l-0.3,0.3l2.3,3.2l0.3-0.2C97.6,81.8,96.8,80.7,95.7,79.8z M163.9,227.6l-0.2-0.4c-0.6,0.1-1.2,0.3-1.8,0.4
	c-0.2,0.1-0.4,0.5-0.6,0.7c0.3,0.1,0.7,0.5,0.9,0.4C162.8,228.4,163.3,228,163.9,227.6z M134.5,98.2c-1.1,1.8-1.3,3.7-0.7,4.8
	C134.1,101.3,134.3,99.8,134.5,98.2z M133.6,83.9l-0.5-0.1l-0.9,4.6l0.4,0.1L133.6,83.9z M178.6,148.7l0.3,0.1
	c1.2-1.1,1-2.6,1.6-3.9l-0.4-0.1L178.6,148.7z M191,211.9l-0.3-0.3l-1,0.8l-1-0.3l-0.2,0.4c0.5,0.3,1.1,1,1.4,0.9
	C190.4,213.1,190.7,212.4,191,211.9L191,211.9z M121.7,80.2l0.3,0.1l1-5.5l-0.4-0.1L121.7,80.2z M105.7,139.6l0.2-0.3l-4-3l-0.2,0.3
	L105.7,139.6z M181.5,227.5c-0.5-0.3-1-0.5-1.6-0.7c-0.3-0.1-0.6-0.1-0.8,0.1c-0.2,0.2-0.3,0.5-0.2,0.8c0.2,0.2,0.4,0.4,0.7,0.3
	C180.3,227.9,181,227.7,181.5,227.5L181.5,227.5z M187.7,175.9c-0.6,0-1.1-0.2-1.2,0c-0.4,0.6-0.8,1.3-1.1,1.9l0.4,0.2L187.7,175.9z
	 M91.8,70.4l-0.3,0.3c1.1,0.8,1.6,2.3,3.3,2.9L91.8,70.4z M172.5,232.1c-1.2,1.3-1.1,1.7,0.6,2.2L172.5,232.1z M181.7,228.9
	c-0.6-0.1-0.9-0.2-1.3-0.2c-0.2,0-0.5,0-0.6,0.1c-0.2,0.2-0.2,0.4-0.2,0.6c0.2,0.4,0.4,0.7,0.7,1L181.7,228.9z M172.2,175.6
	c0.2-0.6,0.4-1.1,0.6-1.7c0-0.3-0.1-0.6-0.2-0.9c0,0-0.5,0-0.5,0.1c-0.2,0.3-0.3,0.6-0.3,1C171.9,174.5,172,175,172.2,175.6z
	 M174.6,200.2l0.6,0.3l1.4-2.9c-0.5,0.3-0.9,0.6-1.2,1.1C175.2,199.2,174.9,199.7,174.6,200.2z M175,146.4l-0.3-0.2
	c-0.4,0.4-0.7,0.9-1.1,1.3c-0.1,0.2,0.1,0.6,0.2,0.9c0.2-0.1,0.6-0.2,0.7-0.5C174.7,147.5,174.9,147,175,146.4L175,146.4z
	 M109.8,89.1l-0.3,0.2l2,3.2l0.4-0.3L109.8,89.1z M150.6,175.1l-0.4,0.4c0.3,0.5,0.6,0.9,0.9,1.3c0.1,0.2,0.4,0.2,0.7,0.2
	c0.1-0.2,0.3-0.6,0.2-0.7C151.5,175.9,151.1,175.5,150.6,175.1z M134.4,181.7l0.4-0.3l-1.6-1.9C132.7,181.1,133.7,181.3,134.4,181.7
	z M161.4,104.8h0.4c0.6-1.4,0.1-2.9,0-4.3C161.6,101.9,161.5,103.4,161.4,104.8L161.4,104.8z M97.3,77.6c-0.9,1.2-0.3,1.6,0.3,2
	c0.1,0.1,0.5-0.1,0.7-0.1L97.3,77.6z M163.2,181.2l0.1,1.9l0.5-0.4l-0.2,1.2C165.4,182.7,163.8,182,163.2,181.2z M100.4,71.1
	l-0.5,0.4l1.9,2.4l0.4-0.3L100.4,71.1z M142.7,116.6l0.6,0.2l0.7-3l-0.5-0.1L142.7,116.6z M167.7,221.3c-0.5,2-0.2,2.8,0.7,2.5
	L167.7,221.3z M128.8,95l0.4,0.1c0.6-0.9,0.6-2,0.2-3L128.8,95z M169.3,193.3l-0.2-3C168.1,191.3,168.1,191.8,169.3,193.3
	L169.3,193.3z M178.9,220.4c1.2-0.4,1.4-1.3,1.8-2.2C179,218.1,179.5,219.5,178.9,220.4L178.9,220.4z M163.8,222.1
	c-1-0.5-2.2-0.1-2.7,0.9c0,0.1-0.1,0.2-0.1,0.3L163.8,222.1z M81.1,94.1h-0.5l0.4,3.7h0.4L81.1,94.1z M148.9,181.3l-0.3,0.4l2.4,1.9
	l0.3-0.4L148.9,181.3z M171.8,231.5c-1.4,0.2-1.8,1.1-1,2.2L171.8,231.5z M142.2,83.3l-0.5-0.1l-0.6,3.1l0.5,0.1L142.2,83.3z
	 M134.3,85.7c1.1-1.9,1.2-2.8,0.4-3.1L134.3,85.7z M180.4,194.6c-1.3-0.1-1.1,0.8-1.3,1.5c0,0.2,0.1,0.4,0.1,0.5
	c0.2-0.1,0.5-0.1,0.5-0.3C180,195.8,180.2,195.3,180.4,194.6z M166.3,224.1l0.7-0.1c0-0.5-0.1-1-0.3-1.4c-0.1-0.1-0.6,0-0.9,0
	L166.3,224.1z M136.4,145.7l-0.2,0.1c-0.1,0.6-0.2,1.2-0.2,1.8c0,0.2,0.4,0.4,0.6,0.7c0.1-0.1,0.4-0.3,0.4-0.5
	C136.9,147.1,136.6,146.4,136.4,145.7L136.4,145.7z M98.1,64.9l0.2-0.1l-1.4-3.3l-0.4,0.2L98.1,64.9z M92,58.8
	c-0.5,1.5-0.1,2.4,1,2.9L92,58.8z M160.9,164.4l-0.5-0.2l-0.7,2.6l0.5,0.1L160.9,164.4z M146.7,203.2c-0.8-1.4-1.8-1.7-2.4-1
	L146.7,203.2z M141,209.8c-0.6-0.9-1.2-1.6-2.5-1.1L141,209.8z M81.2,81.1l-0.5,0.1c0,0.4,0,0.9,0.2,1.2s0.8,0.3,1.2,0.5l0.2-0.2
	L81.2,81.1z M83.2,85.6l0.4-0.2l-1-2C82,84.3,82.1,84.5,83.2,85.6L83.2,85.6z M146.9,212.3l2,2.1l0.3-0.3
	C148.6,213.5,148.5,212.3,146.9,212.3L146.9,212.3z M143.2,133.5h0.4l0.2-4h-0.3L143.2,133.5z M141.9,158.6
	c-0.3-0.6-0.6-1.1-0.9-1.6c-0.1-0.2-0.6-0.1-1-0.1c0,0.2-0.1,0.6,0,0.6C140.6,157.9,141.1,158.1,141.9,158.6L141.9,158.6z
	 M148.9,173.4l0.3-0.2l-1.7-3.3l-0.3,0.2L148.9,173.4z M165.7,196.4c-0.5,0.5-0.6,1.3-0.1,1.9c0.2,0.2,0.5,0.4,0.8,0.4L165.7,196.4z
	 M126,148c0.1,1.1,1.1,1.9,2.2,1.8c0.1,0,0.1,0,0.2,0L126,148z M129.3,173.4l0.3-0.4l-2.6-2l-0.3,0.3L129.3,173.4z M144.9,118.1
	l-0.4-0.1l-0.9,2.9l0.5,0.1L144.9,118.1z M171.5,169.6l-0.1-1.5c-0.7,0.6-1.4,1-0.9,2L171.5,169.6z M162.9,211.8l0.2-0.4l-1.9-0.8
	C161.3,212,162.1,211.9,162.9,211.8z M91.2,106.7l1.4,1.7C92.3,106.4,92,106.2,91.2,106.7z M140.9,166.9l-0.3,0.3l2,1.7l0.4-0.5
	L140.9,166.9z M134.7,176.9l-0.3,0.3l2.4,1.6C136.8,177.2,135.2,177.6,134.7,176.9L134.7,176.9z M98.8,88.9l-1.7-2
	C97.3,88.6,97.6,88.9,98.8,88.9L98.8,88.9z M165.9,181.8c1.2-0.2,1.7-0.8,1.2-2.1L165.9,181.8z M189.6,218.8l-0.1-0.5l-2.4,0.3
	l0.1,0.5L189.6,218.8z M92.3,82.2c-0.6,0.8-0.1,1.8,1,2.4L92.3,82.2z M87,107.1l0.4-0.2l-1.2-2.3l-0.5,0.2L87,107.1z M98.3,67.2
	c0.7,2.1,0.7,2.1,1.6,2.2L98.3,67.2z M145.1,137.5h-0.4l-0.5,2.6l0.5,0.1L145.1,137.5z M146.3,86.8l0.5,0.1l0.4-2.9l-0.4-0.1
	L146.3,86.8z M94.6,67.4L94,67.8l1.5,1.7l0.3-0.2L94.6,67.4z M181,193.8l1-2.2l-0.4-0.2C181.4,192.2,180.3,192.6,181,193.8z
	 M95.9,65.1l0.4-0.2l-1.2-2.7l-0.4,0.2L95.9,65.1z M118.6,102l0.2-0.1c-0.2-0.7-0.4-1.4-0.7-2c-0.1-0.1-0.4-0.2-0.6-0.2
	c-0.1,0.2-0.2,0.4-0.2,0.5C117.7,100.7,118.2,101.3,118.6,102z M102.2,89.8l0.4-0.2l-1.2-2.3l-0.4,0.2L102.2,89.8z M137.3,176.4
	c0,1.3,0.5,1.6,1.7,1.1L137.3,176.4z M167.8,226.5l-0.7-0.2l-0.5,1.4c0.3,0,0.8,0.2,0.8,0.1C167.6,227.4,167.7,227,167.8,226.5
	L167.8,226.5z M146.2,129c-1.3,0.7-1.1,1.4-0.6,2.4L146.2,129z M138.9,86.7l0.4,0.1l0.7-2.6l-0.4-0.1L138.9,86.7z M140.3,109.8
	l-0.5-0.1l-0.5,2.2l0.5,0.1L140.3,109.8z M139.6,199.9l0.2-0.3l-2.3-1.6l-0.3,0.4L139.6,199.9z M119.1,59.1l0.4-0.1l-1.5-3.4
	l-0.2,0.1L119.1,59.1z M161.4,219.2l-1.5-1.3l-0.4,1.6L161.4,219.2z M148.8,206.6l-0.5,0.4l1.5,1.6l0.4-0.3L148.8,206.6z
	 M154.5,156.9h-0.4l-0.4,3h0.4L154.5,156.9z M101,84.4c0.1-1.2-0.6-2.1-1.3-2.1L101,84.4z M89.3,88.4c-0.3-1.7-0.5-1.9-1.7-2
	L89.3,88.4z M117.7,98.5l-1.2-1.9c-0.1,0.1-0.2,0.2-0.3,0.2c0.3,0.6,0.6,1.1,1,1.7C117.2,98.5,117.3,98.5,117.7,98.5z M181.5,208.4
	l-0.3-0.2c-0.4,0.2-0.7,0.5-1.1,0.8c-0.1,0.2-0.2,0.5-0.1,0.8c0,0.1,0.4,0.2,0.5,0.1C180.9,209.5,181.2,209,181.5,208.4z
	 M197.7,200.2c1.2-0.5,1.3-0.9,0.4-2L197.7,200.2z M103.9,77.1l0.4-0.4l-1.3-1.6l-0.4,0.4L103.9,77.1z M140.6,166.1l0.3-0.4
	l-1.7-1.5l-0.3,0.3L140.6,166.1z M124.8,148.3l0.5-0.4l-1.3-1.6l-0.4,0.3L124.8,148.3z M117.3,123.5l-0.3,0.4l2.1,1.8l0.2-0.3
	L117.3,123.5z M116,104.5l-0.3,0.2l1.7,2.3l0.3-0.3L116,104.5z M130,102l-0.5-0.2l-0.8,2.5l0.4,0.1L130,102z"/>
<path class="st1" d="M120.1,181l1.2,1.5c-1.2-0.6-2.3-1.1-3.3-1.6c-5.2-2.9-10.5-5.7-15.7-8.6c-1.2-0.7-2.1-1.8-3.3-2.5
	c-2.9-1.6-5.9-3.1-8.9-4.6c-0.3-0.1-0.5-0.4-0.7-0.6c5.5,2.1,10.3,5.4,15.4,8.1s10.2,5.4,15.4,8L120.1,181z"/>
<path class="st0" d="M164.2,196.5c-0.9-1.6-2.4-3.2-2.4-4.8c0-2.5-1.8-4.1-2.2-6.4v0.8l-0.3,0.1l-3.6-7.8l0.3-0.2l1.7,2.3l0.3-0.2
	l-2.1-3.3l0.4-0.3c0.8,1.2,1.9,2.4,2.2,3.7c0.2,1.1,0.9,1.6,1.3,2.5c0.7,1.3,1,2.8,1.6,4.1s1.5,2.8,2.2,4.2s1.6,2.9,1.1,4.6
	C164.7,196.2,164.4,196.3,164.2,196.5L164.2,196.5z"/>
<path class="st0" d="M117.3,174.5l-0.7-1.7l0.3-0.2c0.5,0.1,0.9,0.3,1.4,0.6c2.1,1.6,4.2,3.2,6.2,4.8c0.4,0.4,0.6,0.9,0.7,1.4
	c0.1,0.6,0.2,1.1,0.3,1.7c-1.2-0.7-2.4-1.4-3.5-2.2C120.4,177.5,118.9,176,117.3,174.5L117.3,174.5z"/>
<path class="st1" d="M172.5,121.4l0.9-2.4l-0.2-0.1c-0.2,0.3-0.5,0.7-0.7,1c-0.2,0.4-0.5,0.7-0.9,0.9c2.1-4.8,6-8.3,8.7-12.7
	l0.4,0.3c-0.6,1.1-1.3,2.2-1.9,3.3c-2,3.1-3.9,6.2-5.9,9.3c-0.1,0.2-0.2,0.3-0.3,0.4L172.5,121.4z"/>
<path class="st0" d="M190.8,194.8c1-1,2.3-1.6,3.7-1.5c-1.1,1.4-1.2,3.1-3.1,3.5c-0.9,0.2-1.6,1.2-2.6,1.7l1.6-3.3L190.8,194.8z"/>
<path class="st1" d="M189.9,234.4l-1.3,1.4l2.8,1.1v0.1c-0.2,0-0.3,0-0.5-0.1c-1.6-0.6-3.2-1-4.8-1.7c-0.9-0.2-1.6-1.1-1.5-2.1
	c0.6,0.5,1.2,1,1.9,1.4c0.8,0.8,2.1,0.7,2.9-0.1C189.4,234.6,189.7,234.5,189.9,234.4L189.9,234.4z"/>
<path class="st1" d="M102.6,146.9c2.5,2,5.6,2.6,8.6,3.3c0.1,0,0.2,0.3,0.4,0.6C108.3,150.3,105.2,149,102.6,146.9z"/>
<path class="st1" d="M164.4,105.8l4.4-8.5l0.4,0.2l-4.4,8.5L164.4,105.8z"/>
<path class="st1" d="M149,74.8c0.3,0.5,0.6,0.9,0.9,1.4l2.6,4.1l-0.7,0.2c-0.4-1-1.1-2-1.8-2.9C149.1,76.9,149.2,75.8,149,74.8
	L149,74.8z"/>
<path class="st0" d="M172.1,103.8l-1.5,1.2l-0.3-0.2l2.5-3.7l0.4,0.2L172.1,103.8L172.1,103.8z"/>
<path class="st1" d="M127,211.2l-1.3,3.4l-0.3-0.1l0.8-3.6L127,211.2z"/>
<path class="st1" d="M128.5,207.8l0.6,1.1l-2.7,1.2c-0.1-0.3-0.2-0.6-0.3-0.9c0-0.1,0-0.2,0-0.3L128.5,207.8z"/>
<path class="st1" d="M161.4,246.1c0,0.2,0,0.5-0.1,0.6c-1.1,0.9-2.3,1.8-3.4,2.8l-0.2-0.2L161.4,246.1L161.4,246.1z"/>
<path class="st1" d="M127,197l-3.2-2.3l0.2-0.3l3.1,2.4L127,197z"/>
<path class="st1" d="M123.2,63l-0.3,3.8h-0.2l0.2-3.8L123.2,63z"/>
<path class="st1" d="M160.8,236.8l-2.2,2l-0.1-0.1l1.9-2.3L160.8,236.8z"/>
<path class="st1" d="M116.4,176.6l-3.2-1.5l0.1-0.2l3.3,1.4L116.4,176.6z"/>
<path class="st0" d="M116.7,85.9c0,0.6,0,1.1,0.1,1.7c0.1,0.3,0.2,0.7,0.3,1c0.3,0.6,0.5,1.3,0.6,1.9c0.2,0.4,0.4,0.9,0.7,1.3
	c0.1,0.2,0.1,0.4,0.2,0.6c0.4,0.7,0.7,1.4,1,2.2c0.4,1.3,0.6,2.6,0.9,3.9c0.1,0.4,0.7,0.7,0.9,1.1c0.3,0.7,0.6,1.4,0.8,2.1
	c0.7,2.4,1.8,4.6,3.3,6.6c1.3,2,2.2,4.4,3.4,6.5c0.6,1.1,1.4,2,2,3.1c0.8,1.6,1.5,3.2,2.2,4.9c0.2,0.7,0.3,1.3,0.3,2l0.6-0.4
	c1.3,3,2.5,6.1,3.8,9c0.7,1.6,1.7,3.1,2.4,4.8c1.7,3.7,3.3,7.4,5,11.1c1,2.2,2.1,4.4,3.1,6.6c0.6,1.1,0.9,2.4,1.1,3.6
	c0.2,1.3,0.9,2.5,2,3.3c1.2,1.1,1.1,2.7,1.6,4c0.2,0.5,0.2,1.1,0.4,1.6c0.5,1.6,1.1,3.1,1.6,4.7c0.1,0.2-0.2,0.4-0.2,0.5l0.8,1.7
	l-0.3,0.2c-3.9-4.8-5.5-10.8-8.3-16.3l1.4,4.4l-0.3,0.1c-1.2-2.3-2.4-4.5-3.5-6.8c-1.3-2.7-2.5-5.5-3.7-8.3c-0.2-0.5,0.1-1.1,0-1.6
	c-0.1-0.7-0.4-1.5-0.6-2.1c-0.6-1.6-1.3-3.3-2-5l-0.6,0.8c-1-2.1-2.1-4-3-6c-0.7-1.5-1.4-3-2.1-4.5c-0.4-0.7-0.7-1.4-0.9-2.1
	c-0.4-0.6-0.2-1.4,0.3-1.9c0.2-0.3,0.3-0.7,0.1-1.1c-0.3-0.8-0.7-1.6-1.1-2.4c-0.1-0.2-0.3-0.6-0.5-0.6c-1.5-0.3-1.7-1.3-1.7-2.6
	c-0.1-0.6-0.1-1.2-0.1-1.8l0.8,1.1l0.3-0.2c-0.4-0.9-0.9-1.8-1.4-2.7c-2.7-3.9-5-7.9-6.1-12.5c-0.1-0.5-0.3-0.9-0.4-1.4
	c0,0-0.1-0.1-0.2-0.1l0.2,1.8l-0.3,0.1c-2.5-4.2-3.8-8.9-6.4-13.1c0.1,0.6,0.2,1.2,0.4,1.7s0.5,1.2,0.7,1.8l-0.4,0.2l-1.6-2.5
	l0.2-1.9l1.1-0.1c-0.3-0.5-0.6-0.8-0.8-1.1s-0.6-0.6-0.5-0.9c0.4-2.1-1.2-3.5-1.8-5.3c-0.3-0.9-0.8-1.7-1-2.3c0.1-0.5,0.2-1,0.1-1.1
	c-1.5-1-1.4-2.7-1.9-4.1c-0.5-2.1-0.8-4.2-0.9-6.4c0-0.3,0.4-0.6,0.7-1.1l-2.3-6.2l0.2-0.1l1.2,1.5c0.6,3.2,2.5,6.2,2,9.8
	c0.1,0,0.2,0,0.2,0c0.3-0.1,0.5-0.2,0.8-0.3l1.1,6.7h0.3v-5.6h0.5l0.2,3.3h0.2l0.9-3.1h0.2v2.9h0.3l1.3-8.6h0.4
	c0.1,1.3,0.1,2.5,0,3.8c-0.4,2.7-0.9,5.3-1.3,8c0,0.1-0.2,0.3-0.1,0.3c1.2,1.6-0.7,3.3,0.4,4.9l0.7,0.1
	C116.7,85.4,116.7,85.7,116.7,85.9z M133.1,128.3h0.4V126h-0.4V128.3z M135.5,134.2l-0.4,0.2l1.5,2.7l0.2-0.1L135.5,134.2z"/>
<path class="st0" d="M110.7,66.1c-0.3-1.8-1.6-3.5-0.9-5.6c0.2-0.5-0.2-1.3-0.3-1.9c-0.2-1.1-1-2.2-0.1-3.4c0,0,0-0.1,0-0.1
	c0.2-2,0.2-2.1,2.2-1.5c1.4,0.4,2.9,0.7,3.8,1.8l-0.8,2l-1-1.8l-0.4,0.2c0.4,0.9,0.7,1.8,1.1,2.6c1.1,2.4,2.5,4.8,1.8,7.7
	c-0.4,1.8-0.7,3.6-1.1,5.4c-0.1,0.3-0.3,0.6-0.5,0.8c-0.2-4,0.6-8.1-0.7-12.1h-0.5l-1.2,6.5H112l-0.6-6.5h-0.3
	C110.3,62.1,110.9,64.1,110.7,66.1z"/>
<path class="st0" d="M130.1,107l1.9-1.3v0.8l0.8-0.7c0.2,2.5,0.9,4.9,0.6,7.2c-0.2,1.8,0.5,3.6-0.1,5.4c0,0.1,0.1,0.2,0.3,0.5
	l0.5-4.3h0.3l0.4,4.1l0.4,0.1l0.8-1.8c0.6,1.6,0.1,3.7,2.4,5v5.9l-0.2,0.1c-0.5-0.8-1.1-1.7-1.6-2.6c-0.6-0.9-1.3-1.8-1.8-2.8
	c-0.5-1-0.9-2.2-1.4-3.4c-1.5-0.9-1.4-3-2.4-4.6c-1.1-1.7-0.1-3.4,0-5.2l-1,2.4c-0.7-0.8-1.1-1.4-0.8-2.4c0.2-0.6-0.1-1.2-0.6-1.4
	c-0.1-0.1-0.3-0.1-0.5-0.1l0.2-1.1C129,107.6,129.6,108.2,130.1,107L130.1,107z"/>
<path class="st0" d="M98.2,130.3c1.2,1,2.4,2,3.6,3s2,1.8,3.1,2.6c0.3,0.2,0.9,0.1,1.4,0.1c-0.2-0.4-0.4-0.8-0.7-1.2
	c-0.6-0.5-1.2-1-1.8-1.4l0.3-0.4l7.2,5.8l0.1-0.1l-0.5-0.8l0.3-0.3c1.4,0.9,2.8,1.9,4.2,3c1.4,1.1,2.7,2.5,3.6,4
	c1.2,2.3,3.9,2.9,4.9,5.1c-2.1-0.3-3.8-1.5-5.5-2.8c-0.9-0.7-1.9-1.3-2.9-2c-1.6-1.1-3.2-2.1-4.7-3.4c-0.7-0.6-1.2-1.5-2-2.1
	c-2-1.5-3.9-2.9-5.8-4.5c-1.7-1.4-3.3-2.9-5-4.4L98.2,130.3z"/>
<path class="st0" d="M115.4,150.4l0.3-0.7l1.7,0.6l0.2-0.2c-0.3-0.3-0.6-0.6-0.9-0.9c-1.4-1.1-2.7-2.1-4.1-3.2
	c-0.1-0.1-0.1-0.3-0.2-0.5c-0.2-0.5-0.6-1-1.2-1.1c-0.9-0.4-1.7-1-2.5-1.6l0.2-0.4c0.9,0.2,1.8,0.5,2.6,1c3.8,2.9,7.5,5.9,11.2,8.8
	c1.1,0.9,2.2,1.9,3.3,2.9c-1.2,1.1-2.1,0-3.3,0.1c1.3,0.8,2.3,1.5,3.4,2.2c0.7,0.4,1.6,0.6,2.3,1.1c0.5,0.4,0.8,1,0.8,1.6l-2.1-1.6
	l-0.1,0.1l1.2,1.7l-0.3,0.3c-0.6-0.5-1.2-1-1.7-1.4c-2-1.6-4-3.1-6-4.7c-1.3-1.1-2.5-2.5-3.8-3.7
	C116.1,150.7,115.7,150.5,115.4,150.4L115.4,150.4z"/>
<path class="st0" d="M153,151.3c0.1-3.2,2.9-4.7,4.2-7.1l-0.5,1.8l0.4,0.2c0.4-0.8,0.8-1.5,1.2-2.2c0.3-0.4,0.8-0.7,1.1-1.1
	c0.4-0.4,0.7-0.9,0.9-1.5c0.5-1.8,1.4-3.4,2.7-4.6c1.2-1.2,2.1-2.7,3.1-4.1c0.6-0.8,1.3-1.4,2-2.2l0.3,0.2c-0.5,0.8-1,1.6-1.4,2.3
	c-0.9,1.5-1.7,3.1-2.7,4.6c-1.3,2.3-2.8,4.5-4.3,6.7c-1.5,2-3.4,3.7-5.2,5.5c-1.2,1.3-2.4,2.5-3.5,3.8c-0.4,0.4-0.4,0.7,0.2,1.2
	c0.4,0.4,0.3,1.4,0.4,2.2l-0.4,0.1l-2.6-5.5l0.2-0.2l1.2,0.9l-0.1-1.1L153,151.3z"/>
<path class="st0" d="M187.7,153.9c-0.8,2.9-1.3,5.8-2.9,8.6c0.4,1.5-0.7,4.3-2.1,4.4l0.4-1.8l-0.3-0.1c-0.4,0.6-0.8,1.2-1.1,1.8
	s-0.6,1.1-1.1,2l-0.5-1.3c-0.3,1.3-0.7,2.6-1.2,3.8c-0.7,1.1-1.6,2-2.7,2.8c0.1-0.5,0.3-0.9,0.5-1.4c0.4-0.7,1-1.3,1.5-1.9
	c0.1-0.2,0.3-0.4,0.2-0.5c-0.4-1.5,0.6-2.5,1-3.8c0.1-0.4,0.7-0.7,1-1.2c0.2-0.4,0.4-0.8,0.5-1.3c0.1-0.3,0-0.7,0.1-0.8
	c1.9-1.3,1.6-3.9,3.2-5.4C185.5,156.5,186.6,155.2,187.7,153.9z"/>
<path class="st0" d="M121.8,89.8l0.3-2l1.2,1.4l0.4-0.1c-1.7-2.2-0.5-4,0.6-6c1,1.4-0.8,2.8,0.1,4.2c1.2-1.6,0.7-3.7,1.5-5.4
	c0.6,1.3-2.1,13.8-3.2,14.9c-1-1.3,0-2.6,0-3.7l-1.6,0.7c-2.7-2.4-0.7-4.7,0.1-6.9h0.3c0,0.5,0,0.9,0,1.4s0,1,0.1,1.5L121.8,89.8z"
	/>
<path class="st0" d="M141,118.2c-0.1,1.2-0.2,2.4-0.4,3.6c-0.2,0.6-0.3,1.2-0.4,1.7c0,0.3,0.3,0.6,0.5,0.9c0.2-0.2,0.5-0.4,0.6-0.7
	c0.3-1.1,1.1-0.9,2.2-1l-1.2,1.5l1.3,0.6l-1.5,0.2c-0.1,1.7-0.3,3.3-0.4,4.9c-0.1,1,0.1,1.2,1.2,1.1l-0.9,1c0.5,1.1,0.2,2.4-0.8,3.1
	c-2-3-2.7-6.6-1.9-10.1c0.3-1.4,0.4-2.9,0.6-4.3c0.1-0.9,0.4-1.7,0.6-2.6L141,118.2z"/>
<path class="st0" d="M134.1,69.5l0.4,0.7l0.2-0.1l-0.8-3.4l0.4-0.1l1.9,6.4h0.2l-2.3-11.1l0.5-0.1c0.4,1.2,0.8,2.3,1.1,3.5
	c0.5,1.4,0.9,2.9,1.2,4.4c0,1.3-0.1,2.7-0.4,4c0,0.3,0,0.5,0,0.8c0.3,2.3,0.1,4.7-0.6,6.9c-0.1,0.4-0.6,0.9-0.8,0.9
	c-0.5,0-0.9-0.4-0.9-1.1c-0.1-1.2-0.2-2.4-0.4-3.5c0-0.3,0.2-0.6,0.3-0.8c0.1,0.3,0.2,0.6,0.3,0.9c0.1,0.9,0.1,1.8,0.3,2.6
	c0,0.1,0.3,0.2,0.5,0.4c-0.1-2-0.1-3.8-0.3-5.7s-0.6-3.6-0.9-5.4L134.1,69.5z"/>
<path class="st0" d="M103.7,62.1c-0.8-1.6-1.6-3.1-2.3-4.7c0-0.2,0-0.4,0-0.6c0.2,0,0.4,0,0.5,0c0.4,0.2,0.8,0.5,1.2,0.7
	c0.3-1.2-1.9-2-0.5-3.5l0.9,2.7l1.2-2.1c0.7,1.5,1.8,3,1.5,5.2c-0.2,1.3,0.6,2.9,1.2,4.2c0.9,1.9,0.8,3.9,0.9,6
	c-0.8-0.5-1.2-1.5-0.9-2.4c0.1-1.4-0.2-2.9-0.8-4.1c-0.8,0.7,1,2-0.6,2.7l-2.3-7.1l-0.3,0.1L103.7,62.1
	C103.7,62,103.6,62.1,103.7,62.1z"/>
<path class="st0" d="M193.4,203.1l0.6-1.2c-1.3-0.5-1.5-0.2-1.4,2.4l4.1-1.7c0.8,1.5,0.7,1.9-0.9,2.4l-5.1,1.7c-0.2,0-0.4,0-0.5,0
	c-0.8-1.9,1-1.5,1.7-2.1l-1.7,0.2c0.2-1.5,0.5-2.7,2-3.5s2.9-2,4.4-3c0.4-0.2,0.8-0.4,1.2-0.6c0.4,1.7-0.6,3.4-2.2,4
	c-0.4,0.2-1.1,0.1-0.4,0.8l-1.3,1.1L193.4,203.1z"/>
<path class="st0" d="M154.4,143.7l0.3-1.2l-1.6,2.3l-0.3-0.1l0.2-1.1l-0.2-0.2c-0.4,0.6-0.8,1.1-1.2,1.8c-0.5,1.1-0.9,2.2-1.4,3.2
	c-0.1,0.2-0.5,0.3-0.7,0.5c-0.1-0.2-0.2-0.4-0.4-0.6c-0.2-0.2-0.3-0.4-0.4-0.7c-0.1-0.3-0.2-0.7-0.2-1.1c0.3,0,0.1-1,0.7-0.4
	c0.2-0.2,0.6-0.4,0.7-0.7c0.3-0.8,0.4-1.7,0.6-2.3c0.5-0.3,1.2-0.5,1.3-0.7c0.3-1.3,1.1-2.4,2.3-3.1l0.3,0.5l2.2-5.5l0.5,0.1
	c-0.3,1.1-0.5,2.1-0.8,3.1c-0.3,0.7-0.4,1.5-0.1,2.2C156.9,140.8,155.8,142.9,154.4,143.7z"/>
<path class="st0" d="M182.6,210.7l-1-0.5l0.4-2l1.4,0.3l-0.3-1.3l-0.4,0.5c0-0.1-0.1-0.2-0.1-0.2c0.2-0.6,0.4-1.3,0.6-1.9
	c0.1-0.2,0.3-0.4,0.5-0.4c1.5,0.1,3,0.3,4.6,0.5c-0.2,0.7-0.5,1.5-0.8,2.6l-0.4-1c-0.1,0.1-0.2,0.2-0.2,0.3c-0.1,0.3-0.1,0.7-0.2,1
	c0,1,0.1,1.9-1.4,1.5c-0.6-0.1-1.2,0-1.8,0.1v1.1l1.4-0.4l-0.9,1.4l0.9,0.7l-0.3,0.4l-2.1-1.2l-0.8,0.4l-0.4-1.3l1.1-0.2
	L182.6,210.7z"/>
<path class="st0" d="M167.5,163.7c-0.3,1.6,1.4,2.9,0.5,4.6c-0.2,0.5-0.1,1.1-0.1,1.7c0,0.4,0,0.7-0.1,1.1c-0.9,2-1.8,4-2.7,6
	c-0.1,0.2-0.2,0.4-0.4,0.6c-0.7-1.3-0.5-2.8,0.4-3.9l-0.8,0.4l-0.2-0.1l2.1-4.8l-0.3-0.2l-0.7,1.5
	C164.4,168.6,165,166.8,167.5,163.7z"/>
<path class="st0" d="M116.7,85.9c0-0.3,0-0.5,0-0.8c-0.4-1.3-0.3-2.8,0.3-4c0.6-1.2,0.8-2.6,1.3-3.9c0.3-0.7,0.6-1.4,1.1-2.4
	c0,1.5,0,2.6,0,3.7c0,0.8-0.5,1.7,0.4,2.4c0.2,0.2,0.1,0.8,0,1.3c-0.3,1.9-0.6,3.7-0.9,5.6c-0.1,0.4-0.2,0.7-0.4,1.1L116.7,85.9z"/>
<path class="st0" d="M194.2,174.9c0.4-0.5,1.1-0.6,1.6-0.3c0,0,0,0,0.1,0.1c0.5,0.2,1,0.3,1.6,0.4c-1.9,1.4-3.7,2.9-5.6,4.4
	c-0.4,0.3-0.8,0.6-0.8,1.2c0,1.1-1.2,1.8-2.7,1.8l1.2-2.2l-0.3-0.2c-1.8,2.4-3.3,5.1-6.1,6.5l2.6-3.4l-0.9,0.2l-0.2-0.2l2.1-2.2
	c0,0,0.1,0,0.1,0c1.5,0.6,1.6-0.9,2.3-1.5s1.5-0.9,2.1-1.5c0.5-0.4,1.4-0.4,1.3-1.4c0-0.1,0.7-0.2,1-0.4c0.5-0.2,0.9-0.5,1.3-0.9
	l-1.4,0.5l-0.1-0.1L194.2,174.9L194.2,174.9z"/>
<path class="st0" d="M150.5,198.9l3.5,1.6l0.4-0.4l-1.1-0.3c1.3-1.2,2.9-0.5,4.3,1.9c-0.6,0.1-1.1,0.1-1.7,0.1
	c-0.5-0.1-1.1-0.2-1.6-0.3l-0.1,0.4c0.9,0.3,1.9,0.5,2.8,0.9c0.7,0.3,1.4,0.6,2,1c0,0-0.2,0.9-0.3,0.9c-2.1,0.1-4.1-0.5-5.8-1.6
	c-0.2-0.1-0.4-0.3-0.5-0.5C151.6,201.5,151.1,200.3,150.5,198.9z"/>
<path class="st0" d="M156,156l1.2-1.6l0.7,0.5l1.5-1.7c-0.1,0.6-0.2,0.8-0.3,1c-0.6,1.5-1.2,3.1-1.8,4.6c-0.1,0.2-0.2,0.4-0.3,0.5
	c-1.3,0.5-1,1.7-1.2,2.7c-0.2,0.9-0.4,1.7-0.8,2.5c-1-2.7,0.3-5.1,0.8-7.5c0-0.1,0-0.3,0.1-0.4c0-0.1-0.1-0.1-0.2-0.2l-0.5,0.9
	c-0.5-2.9,1.5-6.8,5.3-10c-0.6,0.9-1.3,1.7-1.9,2.6c-0.7,1-1.3,2-1.7,3.1C156.5,153.7,155.2,154.5,156,156z"/>
<path class="st0" d="M200.2,186.7c-0.7,2.4-1.3,4.6-2.1,6.7c-0.8,2.2-2.8,3.7-5.1,3.9c0.3-0.5,0.5-1,0.9-1.4c0.3-0.3,0.7-0.5,1-0.8
	c0.3-0.3,0.5-0.6,0.6-1c0.2-2.9,2.4-4.8,4-6.9C199.6,187,199.9,186.9,200.2,186.7z"/>
<path class="st0" d="M126.6,69.1l0.2,2.4l0.2,0.1l0.3-1.2h0.1c-0.1,1.6-0.3,3.2-0.3,4.7c0,1.8-1.2,3.1-2,4.6s-1.1,3.1-2.5,4.2
	c1.4-4.9,3-9.7,3.7-14.7L126.6,69.1z"/>
<path class="st0" d="M148.3,193.6l3.2,2.2l0.3-1c-4.1-2-5-2.9-5.1-5.1c0.3,0.4,0.7,0.7,0.8,1.2c0.1,0.9,0.7,1.1,1.4,1.5
	c1,0.6,2,1.2,3,1.9c0.3,0.2,0.3,0.8,0.3,1.4c0.5,0.9,2.3,0.2,2.3,2l-0.8,0.4l0.9,0.8c-2.3,0.8-4.9-0.4-5.7-2.7
	c-0.1-0.2-0.1-0.3-0.1-0.5c-0.2-0.6-0.5-1.2-0.8-1.7L148.3,193.6z M153.1,197.8l0.2-0.4l-3-1.5l-0.2,0.4L153.1,197.8z"/>
<path class="st0" d="M120.4,167.3l-2.7-1.6l-0.1,0.1l1.2,1.1c-1.4,0.1-2.9-0.4-3.9-1.4c-1.2-1-2.4-2-3.4-3.1
	c-1.2-1.6-3.3-2.2-4.3-4.2l6.8,3.9l-2.7-0.7l0.1-0.1l9.3,5.5L120.4,167.3z"/>
<path class="st0" d="M182.3,158.9c-0.9,1.2-1.3,2.5-2.7,2.7c-0.1,0-0.3,0.2-0.4,0.4c-0.7,1.2-1.4,2.5-2,3.8
	c-0.7,1.4-1.6,2.7-2.8,3.8c-0.4,0.5-0.9,1-1.4,1.5C173.2,167.3,179.1,159.5,182.3,158.9z"/>
<path class="st0" d="M175.9,148.4c-0.1-1-0.1-2,0-3c0.2-0.9,0.5-1.7,1-2.5c1.3-2.1,2.6-4.2,4-6.3c0.1,0.1,0.2,0.2,0.2,0.2
	c-0.8,2.6-1.5,5.3-2.3,8c-0.2,0.6-0.6,1.1-1,1.5C177.3,146.9,176.6,147.6,175.9,148.4z"/>
<path class="st0" d="M105.7,117.5c-0.3,0-0.7,0.1-0.9,0c-0.7-0.4-1.4-1-2.1-1.5c-1-0.7-2-1.2-2.9-1.9c-0.8-0.6-1.4-1.2-2.2-1.8
	c-0.8-0.5-1.5-1-2.2-1.6c-0.7-1.1-1.4-2.2-2-3.3l0.4-0.3c0.8,0.7,1.6,1.3,2.3,2c0,0-0.2,0.4-0.2,0.4c1,0.9,1.9,1.9,2.9,2.7
	c0.7,0.5,1.5,0.8,2.2,1.2c1.6,1.2,3.2,2.5,4.7,3.8L105.7,117.5z"/>
<path class="st0" d="M152.8,125.7c0.1,2.7-0.3,5.5-1.3,8c-0.4,0.8-1,1.8-0.8,2.6c0.6,2.9-1.1,5.1-1.6,7.7c-0.2,0.6-0.4,1.1-0.7,1.7
	c-0.5-1.4-0.5-2.9,0-4.2c1.1-3.3,2.1-6.7,3.1-10C152,129.6,152.4,127.6,152.8,125.7z"/>
<path class="st0" d="M159,159.1l-0.8,1.1l-0.3-0.1l2.1-4.9l0.3,0.1c-0.5,4.3-1.1,8.7-1.6,13.2c-2-1.2-0.9-3-1.4-4.4
	C156.6,162.2,158.7,161.1,159,159.1z"/>
<path class="st0" d="M156.1,208.9l3.9,1.4v0.3l-1.1,0.2l0.6,0.6c-0.8-0.3-1.8,0.2-1.9-1c0-0.1-0.4-0.3-0.6-0.3s-0.8,0-0.9-0.2
	c-0.4-0.5-1.1-1.1-1.1-1.6c0.1-0.9,1-0.9,1.8-0.7c0.4,0.2,0.8,0.2,1.2,0.1c-1-0.7-2-1.4-2.9-2.1c-0.2-0.2-0.3-0.4-0.4-0.6
	c0.2-0.1,0.5-0.2,0.7-0.2c1.5,0.2,2.9,0.9,4,2c0.3,0.4,0.4,0.9,0.3,1.3c0,0.2-0.6,0.5-0.9,0.5c-0.8,0-1.6-0.1-2.4-0.2L156.1,208.9z"
	/>
<path class="st0" d="M97.8,114.7c2.4,1.7,4.9,3.3,7.3,5.1c2.4,1.8,4.7,3.7,6.9,5.7c-0.5-0.1-1.1,0-1.4-0.2c-1.8-1.3-3.7-2.6-5.4-4
	c-1.4-1.1-2.7-2.3-4-3.4c-0.5-0.4-1.1-0.8-1.7-1.1c-0.8-0.4-1.7-0.8-1.9-1.7L97.8,114.7z"/>
<path class="st0" d="M128.3,80.6c0.1-2.1,0.8-4.5,0.1-6.4c-0.6-1.8,0.4-3.4-0.5-5.2c-0.7-1.3-0.4-3.1-0.4-4.6
	C130.1,69.4,130.4,75.3,128.3,80.6z"/>
<path class="st0" d="M100.8,65.5c-1.4-1.1-2.4-2.7-2.8-4.5c-0.2-1.2-0.3-2.5-0.2-3.7c0-0.1,0.4-0.2,0.7-0.4c0,0.5,0,0.7,0,0.7
	l1.8,2.1l-0.2-1.5l0.3-0.1l1.7,6l-2.8-3.5l-0.2,0.2l2.1,4.7L100.8,65.5z"/>
<path class="st0" d="M126.3,192c0.1,0,0.3,0.1,0.3,0c0.3-0.2,0.6-0.8,0.8-0.7c0.8,0.2,1.7,0.5,2.4,0.9c0.8,0.6,1.6,1,2.5,1.2
	c1.2,0.2,2.2,1.3,3.2,2.1l-0.3,0.4l-3-2.1c0.6,0.7,0.7,1.7,1.9,2c0.6,0.2,1.1,1,1.5,1.7c-1.8-0.1-3.4-1.1-4.3-2.7
	c-0.1-0.2-0.2-0.3-0.4-0.4c-0.8-0.4-1.6-0.8-2.4-1.2L126.3,192z"/>
<path class="st0" d="M141.8,220.2c1.7-0.3,2.5-0.4,6.2,1.5l-1-1.3c1.9-0.4,3.2,0.5,4.6,1.1v0.4c-0.6,0.1-1.1,0.3-1.7,0.3
	c-1.6,0.1-3.2,0-4.8,0.1c-0.2,0-0.4,0.3-0.7,0.4s-0.7,0.1-0.8,0C143.1,221.9,142.5,221.1,141.8,220.2z"/>
<path class="st0" d="M140.9,175.5l-1-2.1l-0.4,0.1v1.8c-0.1,0-0.3-0.1-0.4-0.1l-3.3-2.1c-1-0.6-1.7-1.6-2-2.7l5,2.4l0.2-0.2
	l-2.3-1.7c1.9-0.5,4.4,2.2,4.6,4.4L140.9,175.5z"/>
<path class="st0" d="M164.9,129.2c0.1-0.3,0.3-0.6,0.4-0.9c0.1-0.4,0.2-0.9,0.1-1.1c-1.1-1.3-0.1-2.4,0.3-3.4c1-1.9,2.1-3.8,3.3-5.6
	c0.5-0.6,1-1.1,1.6-1.5c-1.1,2.3-2.3,4.6-3.2,6.9c-0.4,1.3-0.8,2.5-1.1,3.8c-0.2,0.7-0.5,1.4-0.8,2L164.9,129.2z"/>
<path class="st0" d="M167,155.4c-0.1,1.2-0.1,2.4-0.2,3.7c-0.1,0.4,0,0.8,0.2,1.2c0.6,0.9,0.5,2-0.1,2.9c-0.5,0.9-1.1,1.8-1.6,2.7
	c-0.2,0.3-0.5,0.6-0.7,0.9l-0.3-0.2l1.1-5.7h0.3l0.2,1c0.6-2.2-0.1-4.5,0.9-6.6H167z"/>
<path class="st0" d="M137.8,108.9l0.3-1c0.8,1.5-0.4,7.6-1.6,8.6c-0.2-3.2-0.4-8.8,1.2-9.8v2.2H137.8z"/>
<path class="st0" d="M166.9,130.2c0.5-0.5,0.9-1,1.4-1.6c1.4-1.8,2.9-3.6,4.6-5.2c0.9-0.8,2.3-1,3.5-1.4l0.1,0.3l-9.4,8.2
	L166.9,130.2z"/>
<path class="st0" d="M184.6,196.6l-1.2-0.5l0.4-1.2c-0.8,0.1-0.7,0.1-1.6,2.5c-0.5,0.9-1.1,1.8-1.8,2.6c-0.6-0.7-0.4-1.3,0-2
	c0.4-0.6,0.6-1.3,0.7-1.9c0-1.4,0.5-2.1,1.8-2.2c0.3,0,0.6-0.3,0.9-0.4s0.6-0.2,0.9-0.3L184.6,196.6z"/>
<path class="st0" d="M95.8,120.6c3.4,2.2,5.9,5.2,8.4,8.2C102.4,128.7,96.3,122.7,95.8,120.6z"/>
<path class="st0" d="M166.2,178.2l0.1-1.2l-0.2,0.1c-0.1-0.3-0.4-0.6-0.3-0.8c0.3-0.9,0.7-1.8,1.1-2.6c0.5-0.7,0.9-1.5,1.5-2.2
	c0.2,1.1,0.3,2.2,0.3,3.3c-0.2,1.1-0.5,2.1-1.1,3c-0.2,0.4-0.8,0.5-1.3,0.7L166.2,178.2z"/>
<path class="st0" d="M141.7,214.9c2.5,1.1,5.4,0.7,6.9,3.5l-3.1,0.2v-0.4l1.1-0.2C144.6,217.5,142.4,217.8,141.7,214.9z"/>
<path class="st0" d="M185.7,179.9l-3.8,5.8c-0.1,0.3-0.3,0.5-0.5,0.8c-0.2,0.2-0.6,0.3-0.9,0.1l-0.5,1.5c-0.7-1.3-0.3-2.2,1-3.1
	c0.3-0.2,0.5-0.4,0.6-0.7c0.4-2,2.1-3.2,3.3-4.6c0-0.1,0.2-0.1,0.3-0.1L185.7,179.9z"/>
<path class="st0" d="M133.5,184.2c-2.4-1.3-5.2-1.9-5.9-5.1c1.7,1,3.5,1.9,5.1,3C133.2,182.4,133.2,183.4,133.5,184.2z"/>
<path class="st0" d="M124.1,100.2l-1.5-2.3c1.8-0.6,1.7-2.3,2.3-3.5c0.4-0.9,0.7-1.9,1-2.8C126.7,92.5,125.4,98.2,124.1,100.2z"/>
<path class="st0" d="M133.6,191.6c0.4-0.1,0.9-0.3,1.2-0.2c2.7,1.4,4.8,3.7,6.2,6.4c0,0,0,0.1,0,0.2c-2-0.9-2.6-1.7-2.5-2.8
	l-5.5-3.4L133.6,191.6L133.6,191.6z"/>
<path class="st0" d="M185.1,231.3c0.3-1.1,0.7-1.9,1.8-1.6c0.8,0.2,1.6,0.5,2.4,0.7c0.7,0.3,1.5,0.6,2.1,0.8l-0.8,1.2l-0.9-0.6
	l-0.2,0.2l0.6,0.8c-1.8,0.1-2.8-1.1-3.8-1.8L185.1,231.3z"/>
<path class="st0" d="M164.4,211.6l0.2-1.9l-0.7-0.4l0.4-0.6c-0.1-0.1-0.1-0.2-0.2-0.2c-1.4,0-1.4-1.3-2-2.1c0,0,0.5-0.6,0.6-0.6
	c0.8,0.3,1.5,0.7,2.1,1.3c0.6,1.1,1.1,2.2,1.4,3.4c0.1,0.2-0.4,0.8-0.7,1S164.9,211.6,164.4,211.6z"/>
<path class="st0" d="M170.3,196.7c0.3-0.6,0.6-1.3,1-1.9c0.1-0.1,0.4-0.1,0.6-0.1s0.2,0.3,0.1,0.5c-0.6,2.1-1.1,4.2-1.7,6.6
	c-1.2-1.2-1.6-2.4-1.1-3.6C169.6,197.6,169.9,197.1,170.3,196.7z"/>
<path class="st0" d="M91.6,105.6c-1.6,0.9-2.5,0.5-3.2-1.3l1.2,0.2l-2.6-3.4l0.9-0.6C89.4,102,91,103.4,91.6,105.6z"/>
<path class="st0" d="M100.9,66.7l2.1,2.4l-0.9-2.8l0.3-0.2c0.6,1.1,1.2,2.1,1.6,3.3s0.7,2.3,1,3.5l-0.5,0.2l-4.2-6L100.9,66.7z"/>
<path class="st0" d="M186.8,202.6l-0.6,1.7l0.3,0.2l0.9-1.1l1.5-0.2c0.1,1.2-0.2,1.6-1.3,1.6c-1.6-0.1-3.1-0.2-4.7-0.3
	c0-0.3-0.1-0.5,0-0.6c1-0.8,1.9-2,3.4-1.9C186.4,201.9,186.6,202.4,186.8,202.6L186.8,202.6z"/>
<path class="st0" d="M179,193.9c-0.4-2.1-0.2-2.6,1-2.6c0.4-2.3,1.8-3.7,4.2-3.6c-0.6,0.6-1.1,1.2-1.5,1.9c-0.7,1.7-3,2-3.2,4
	C179.4,193.6,179.1,193.8,179,193.9z"/>
<path class="st0" d="M156,150.3c-1.2,3-3.2,5.8-3.1,9.3C151.5,156.8,151.7,153.8,156,150.3z"/>
<path class="st0" d="M160.4,132.4l-0.5-0.3l-1.1,2.7l-0.4-0.1l1.3-4.7h0.2l0.2,1.3c0.9-2.7,0-5.6,2.4-7.4c-0.3,1.1-0.7,2.2-1,3.3
	c-0.1,0.4-0.6,1.1-0.5,1.3C162.1,130,160.6,131,160.4,132.4z"/>
<path class="st0" d="M108.3,51.7c2.4-1.5,6.2-1.2,7.9,0.9l-7.9-0.6L108.3,51.7z"/>
<path class="st0" d="M101.2,130.2c-3.2-2.1-6.3-4.4-8.1-7.9l0.2-0.2l8.1,7.9L101.2,130.2z"/>
<path class="st0" d="M187.4,198.9l0.5-0.4c0.1,0.8-1,2-2.6,2.4l1.5-1.7l-0.2-0.2L185,200c2.1-3.7,1.8-4.2,3.8-4.4
	c-0.1,1.3-0.3,2.4-1.7,3.1L187.4,198.9z"/>
<path class="st0" d="M154.9,225.7c-1.6,1.9-5.8,2.4-6.9,0.9C149.2,225.9,154,225.2,154.9,225.7z"/>
<path class="st0" d="M137.3,178l3,1.6c1,0.6,1.6,1.7,1.6,2.8c-2.8-0.1-3.4-2.5-4.8-4.1L137.3,178z"/>
<path class="st0" d="M146.9,197.6c1,0.5,2.2,0.5,2.7,2c0.5,1,1.1,2,1.8,2.9l-0.3,0.4c-1-0.6-1.9-1.4-2.7-2.1
	c-0.7-0.9-1.2-1.8-1.7-2.8L146.9,197.6z"/>
<path class="st0" d="M158.1,187.2c-0.4-0.3-0.9-0.4-1-0.8c-0.9-2.1-1.6-4.2-2.5-6.3c-0.2-0.6-0.5-1.2-0.7-1.8l0.4-0.2l4.3,8.6
	L158.1,187.2z"/>
<path class="st0" d="M130.5,99.2c-0.2,0.2-0.6,0.3-0.7,0.5c-0.6,1.5-1.2,3-1.8,4.4c-0.2,0.4-0.5,0.8-0.8,1.2l-0.5-0.1
	c0-0.6,0-1.3,0.2-1.9c0.2-1,0.6-1.9,1.2-2.7c0.4-0.6,0.9-1.2,1.4-1.7C129.6,98.7,130.1,99.1,130.5,99.2L130.5,99.2z"/>
<path class="st0" d="M126.4,94.4c1.4,2-0.5,3.5-0.4,5.4l0.9-1.2l0.3,0.1l-1.4,4l-0.4-0.1C124.6,99.9,126,97.3,126.4,94.4z"/>
<path class="st0" d="M119.1,131.5c-2.8-1.9-5.3-4.2-8.4-5.7c0.7,0,1.3,0.1,1.9,0.3C116.7,128.3,118.8,130.1,119.1,131.5z"/>
<path class="st0" d="M163.1,203.9c-0.8-1.5-1.6-2.9-2.5-4.5c1.4,0.1,3.1,3,3.1,4.9c-1.9,0.7-2.8-0.1-3.2-2.8l0.3-0.1
	c0.2,0.6,0.4,1.1,0.8,1.6C162.1,203.3,162.6,203.7,163.1,203.9z"/>
<path class="st0" d="M134,183c0.2,0.1,0.4,0.2,0.6,0.3c1.2,0.7,2.4,1.5,3.5,2.4c0.7,0.7,1.4,1.5,1.9,2.4c-1.8-0.2-3.3-1.4-3.8-3.1
	C135.2,185.8,134.3,185.1,134,183z"/>
<path class="st0" d="M83.4,94l3.8,6.3C85.3,100.2,82.6,95.8,83.4,94z"/>
<path class="st0" d="M145,190.1c-2.1-0.6-3.6-2.3-4-4.4C143.1,186.1,145.1,188.2,145,190.1z"/>
<path class="st0" d="M126.8,172.5c-1.8-0.1-7.3-3.9-7.4-4.9l1.5,0.6l-0.1-0.6l0.2-0.2c0.2,0.2,0.7,0.5,0.7,0.7
	c-0.2,1.1,0.8,1.2,1.3,1.7C124.3,170.6,125.6,171.6,126.8,172.5z"/>
<path class="st0" d="M176.1,180.1c0.4-0.7,0.9-1.4,0.1-2.2c0.2-0.3,0.4-0.6,0.6-0.8c0.4-0.5,0.7-0.9,1-1.5c0.3-0.9,0.7-1.8,1.2-2.6
	c0.1,0.9,0.1,1.8,0,2.8c-0.5,1.4-1.2,2.7-1.9,4c-0.1,0.3-0.5,0.4-0.7,0.7L176.1,180.1z"/>
<path class="st0" d="M185.3,218.6c-0.1-2.4-0.1-2.5,2-2.4c0.9,0,1.9,0.2,2.8,0.3l0.1,0.3L185.3,218.6z"/>
<path class="st0" d="M128.6,157.4l2.5,1.5c-0.5,1.2,0.9,1.8,1,2.9c0.1,0.4,0.6,0.9-0.4,1l0.2,0.9l-1.8-1l0.3-0.1l-0.2-1.2
	c-0.1-0.3-0.3-0.7-0.1-0.9c0.7-1.1,0.4-1.7-0.7-2.3C129,158.1,128.9,157.7,128.6,157.4L128.6,157.4z"/>
<path class="st0" d="M130.6,129.5l-6-4.1c1.3,0.1,2.5,0.2,3.7,0.3c0.3,0,0.6,0.5,0.8,0.8C129.6,127.4,130,128.3,130.6,129.5z"/>
<path class="st0" d="M146.4,162l4.5,9.5l-0.6,0.3c-1.5-3.2-3-6.4-4.5-9.6L146.4,162z"/>
<path class="st0" d="M152.5,212.6c0.1-1.1-0.4-1.4-1.2-1.8c-0.6-0.3-1.2-0.8-1.7-1.2l0.2-0.3c0.5,0.1,1.1,0.1,1.6,0.2
	c0.2,0,0.3,0.1,0.5,0.3c-0.4,1.5,0.9,0.8,1.4,1.1c0.9,0.5,1.8,1,2.7,1.6l-0.1,0.4L152.5,212.6z"/>
<path class="st0" d="M138.5,211c2-1.4,5.1,0,5.9,2.4c-0.8-0.4-1.7-0.1-2.1-1.2c-0.1-0.3-1.4-0.2-2.1-0.4
	C139.6,211.5,139.1,211.3,138.5,211z"/>
<path class="st0" d="M163.2,149.1l-1.1,0.2c0.6-2.6,3-4.5,2-7.4l1.6,0.7L163.2,149.1z"/>
<path class="st0" d="M100.4,110.4l-7.2-6.7C94.5,103.6,100.3,109.1,100.4,110.4z"/>
<path class="st0" d="M177.1,216.5c-0.5-1.1-0.3-2.4,0.4-3.3c0.4-0.6,1.6-0.6,2.5-0.9c0.1,0.3,0.4,0.8,0.3,1
	c-0.3,0.3-0.9,0.8-1.1,0.6c-0.8-0.4-0.8-0.2-0.9,0.5c-0.2,0.7-0.4,1.4-0.6,2.1L177.1,216.5z"/>
<path class="st0" d="M188.9,183.1h1.2c-0.2,0.4-0.4,0.7-0.6,1c-0.2,0.5-1,0.7-0.6,1.5c0.1,0.1-0.2,0.4-0.4,0.6
	c-1.2,0.8-2.4,1.6-3.6,2.3c0.5-0.9,1.1-1.8,1.7-2.6c0.5-0.6,1.3-0.9,1.8-1.5C188.7,184.1,188.7,183.6,188.9,183.1z"/>
<path class="st0" d="M146.8,193.8c-2,0.3-2.6-0.2-3.1-2.1c-0.1-0.6-0.6-1-0.7-1.6C144.6,191,145.9,192.3,146.8,193.8z"/>
<path class="st0" d="M87.7,69.3l4.8,6.1l-0.3,0.2c-2.3-1.4-3.7-3.7-5.1-5.9L87.7,69.3z"/>
<path class="st0" d="M133.6,79.3c-0.5,1.9-0.9,3.8-1.4,5.6c-0.5,1.9-1,3.7-1.5,5.6c-0.1-4,1.7-7.6,2.6-11.3L133.6,79.3z"/>
<path class="st0" d="M130.4,99.2c1.2-0.3,0.9,0.7,0.8,1.1c-0.2,1.7-0.6,3.3-0.9,4.9c-0.1,0.6-0.2,1.2-0.4,1.7l0,0l-1,0.5
	c0.3-1.3,0.5-2.3,0.7-3.3C130,102.5,130.2,100.8,130.4,99.2L130.4,99.2z"/>
<path class="st0" d="M186.9,202.6c0.8-1.2,1.2-2.9,2.8-3.5l0.5-0.2c0.4,1.3-0.2,2.6-1.4,3.2C188.1,202.4,187.7,203.3,186.9,202.6
	L186.9,202.6z"/>
<path class="st0" d="M145.3,204.6l0.9,0.8c0.1-0.2,0.3-0.6,0.4-0.6c1.7,0.3,3.4,0.7,5.1,1.1v0.4c-0.6,0-1.3,0.1-1.9,0.1
	c-1.3,0-2.5,0-3.8-0.1C145.4,206.2,145.1,205.6,145.3,204.6z"/>
<path class="st0" d="M144.5,206.4c-1-0.7-1.9-1.2-2.7-1.8c-0.2-0.1-0.2-0.6-0.2-0.8c0.2-0.1,0.5-0.1,0.7-0.1c0.4,0,0.8,0,1.2,0
	C144.7,203.8,144.9,204.3,144.5,206.4z"/>
<path class="st0" d="M177.4,202.6c0,0.7,0.3,1.7-0.1,2.1s-0.5,1.8-1.7,1.1c0,0.2-0.1,0.3-0.1,0.5c-0.1,0.3-0.1,0.6-0.2,0.9
	c0,0-0.4,0-0.4-0.1c-0.1-0.3-0.3-0.8-0.2-1c0.7-1.2,1.5-2.3,2.2-3.4C177.2,202.6,177.3,202.6,177.4,202.6z"/>
<path class="st0" d="M129.2,82.6l2.1-6.8l0.5,0.1c0,0.8-0.1,1.6-0.3,2.4c-0.3,1.1-0.6,2.1-1,3.2c-0.2,0.5-0.5,0.9-0.8,1.3
	L129.2,82.6z"/>
<path class="st0" d="M91.5,95c-1.7-0.6-4.3-3.9-4-5.5l4.2,5.3L91.5,95z"/>
<path class="st0" d="M187.1,209.4l1.7-3.1l0.5,1l2.9-0.4l0.1,0.3l-4.7,2.4L187.1,209.4z"/>
<path class="st0" d="M178.1,181.8c0.6,1,0.4,4.3-0.4,5.3C176.6,184.8,176.7,183.3,178.1,181.8z"/>
<path class="st0" d="M184,191.5c0.6-0.6,1.3-1.1,1.9-1.7c0.8-0.8,1.6-1.6,2.5-2.4c-1.6,2-2.1,5-5.2,5.4L184,191.5L184,191.5z"/>
<path class="st0" d="M158.8,135.9l-0.2,1.5l0.1,0.2l0.9-1.5l0.3,0.3c-0.2,1.9-1,3.7-2.1,4.4c-0.3-1.6-0.1-3.3,0.6-4.9L158.8,135.9z"
	/>
<path class="st0" d="M131.7,101.9l0.8-8.2c0.9,1.6,0.5,5.7-0.5,8.3L131.7,101.9z"/>
<path class="st0" d="M120.2,85l0.9-10c0.5,0.6,0.5,0.6,0.3,3.4c-0.1,1.2-0.2,2.3-0.4,3.4s-0.2,2.2-0.4,3.3L120.2,85z"/>
<path class="st0" d="M165.3,223.7c-0.9,1.5-1.8,1.8-3.1,0.8c-0.6-0.4-0.6-0.8,0.1-1.1c0.1,0,0.1,0,0.2-0.1
	C163.5,222.7,164.5,222.1,165.3,223.7z"/>
<path class="st0" d="M135.9,168.5l0.2-1.5c1.7,0.8,3.3,1.7,3.4,3.9L135.9,168.5z"/>
<path class="st0" d="M175.8,214.4c-0.4-0.4-1.2-0.8-1.1-1.1c0.1-1.3,1.3-0.5,1.9-0.9l0.2,0.2c-0.2,1.1-0.4,2.3-0.6,3.4
	c-1.2,0-1.8-0.4-1.8-1.5L175.8,214.4z"/>
<path class="st0" d="M133.5,207.9c2.1-0.1,3.9,1.2,4.6,3.2C136.3,210.6,134.6,209.5,133.5,207.9z"/>
<path class="st0" d="M155.2,125.4l1.6-10.4h0.3C157.1,118.5,156.5,122.1,155.2,125.4z"/>
<path class="st0" d="M183.9,198.4l1.8-2.3l0.4,0.2c-0.3,0.7-0.7,1.5-1.1,2.1c-0.9,0.9-1.8,1.7-2.8,2.5
	C182.1,199,182.6,198.3,183.9,198.4z"/>
<path class="st0" d="M107.9,125.3c-2.8-1.4-6.4-4.2-6.5-5.4l6.7,5.1L107.9,125.3z"/>
<path class="st0" d="M135.7,165.9c-1.6-1.5-2-3.6-2.8-5.5l0.4-0.1l0.3,1l0.3-0.1c0.3,0.3,0.6,0.7,0.8,1.1c0.6,1.1,1.1,2.3,1.6,3.5
	L135.7,165.9z"/>
<path class="st0" d="M133.6,191.6c-0.6-0.1-1.2-0.3-1.8-0.5c-1.3-0.5-2.6-1.1-3.8-1.7l0.2-0.5c0.9,0.2,1.8,0.4,2.7,0.7
	c0.8,0.3,1.5,0.6,2.2,1C133.4,190.8,133.4,191.2,133.6,191.6C133.6,191.6,133.6,191.6,133.6,191.6z"/>
<path class="st0" d="M91.1,96.1c1.8,1.9,4.5,2.7,5.7,5.2C94.3,100.2,92.9,98,91.1,96.1z"/>
<path class="st0" d="M87.8,76.1l4.3,5.9c-0.6-0.1-1.1,0-1.2-0.2c-1.1-1.7-2.1-3.5-3.1-5.2C87.7,76.5,87.8,76.3,87.8,76.1z"/>
<path class="st0" d="M131.1,131.7c-1.8-1-3.6-1.7-4.5-3.5C128.2,128.3,130.6,130.2,131.1,131.7z"/>
<path class="st0" d="M157.6,168c1.8,1.9,0.7,4.3,1.7,6.2C158.2,173.7,157.2,170.1,157.6,168z"/>
<path class="st0" d="M112.4,130.4c1.5-0.3,5,2,5.6,3.7L112.4,130.4z"/>
<path class="st0" d="M119.9,164.6c-1.8-1.1-4.1-1.4-5.6-3.2l0.2-0.4l5.6,3.1L119.9,164.6z"/>
<path class="st0" d="M143.1,195.5c-2.4-0.8-3.8-2.1-3.9-4.2l4.1,4L143.1,195.5z"/>
<path class="st0" d="M154.8,99.8c0.5,2.1,0.2,4.2-0.9,6.1C153.7,103.8,154,101.7,154.8,99.8z"/>
<path class="st0" d="M182.4,168.9c-0.6,1.4-0.4,3.4-2.6,3.6l0.5-3.2h0.3l0.2,0.9L182.4,168.9z"/>
<path class="st0" d="M132,166.8c0.4,0.4,0.8,0.8,1.2,1.1s1.4,0.2,1.1,1.3c0,0.1,0.6,0.3,0.9,0.5s0.8,0.6,1.3,0.9l-0.2,0.4
	c-0.7-0.2-1.3-0.4-1.8-0.8c-1.1-1.3-2.3-2.4-3.7-3.3L132,166.8L132,166.8z"/>
<path class="st0" d="M191.4,200.8c0.4-2.7,0.9-3,3.3-3C193.7,198.9,193.1,200.3,191.4,200.8z"/>
<path class="st0" d="M164.4,114.8c0.7,2,0.3,4.2-0.9,5.9c-1.1-1,0.1-1.9,0.2-2.8C163.8,116.8,164,115.7,164.4,114.8z"/>
<path class="st0" d="M122.4,118.7c1.8,0.6,3.3,1.9,4.2,3.6C125.3,120.9,123,120.9,122.4,118.7z"/>
<path class="st0" d="M159.4,217.5c-1,0.1-2.1,0.6-3.2-0.4l0.8-0.4l-1.3-0.8c1.2-0.6,2.1-0.8,2.9,0.3l-1.2,0.4v0.2l1.9,0.3
	L159.4,217.5z"/>
<path class="st0" d="M161.6,167.1c1.1,1.6,1.5,3.3,0,5.1V167.1z"/>
<path class="st0" d="M165,229.2l-2.2,0.6c0.9-1.9,1.6-2.4,2.7-2.3l-0.4,1.3l1.2-0.6l0.2,0.3l-1.6,1.8L165,229.2z"/>
<path class="st0" d="M157.9,213.2l3.1-0.3v2C160,214.5,158.7,215,157.9,213.2z"/>
<path class="st0" d="M165.3,151.9c-0.8,2.4-0.7,5-2.1,7.2l-0.3-0.1c0.6-2.4,1.3-4.9,1.9-7.3L165.3,151.9z"/>
<path class="st0" d="M155.8,217.8c-2,0.4-2.6,0-2.9-1.8C154.8,215.7,155.3,216,155.8,217.8z"/>
<path class="st0" d="M161.2,224.1c0.2,0.5,0.5,1.2,0.4,1.3c-0.8,0.6-1.6,1.1-2.5,1.6c-0.1,0.1-0.6-0.4-0.8-0.9l0.8,0.2l-0.2-0.3
	L161.2,224.1z"/>
<path class="st0" d="M130.3,63.9c-0.8-1.2-1.5-2.4-2.3-3.6c-0.3-0.5-0.5-1,0.2-1.4s1,0.1,1.3,0.7c0.1,0.3,0.2,0.5,0.2,0.8l-1-0.8
	l-0.2,0.1l2.1,4.1L130.3,63.9z"/>
<path class="st0" d="M131,71c1.1,1.7,0.9,3.2-0.7,4.8C130.5,74.2,130.7,72.6,131,71z"/>
<path class="st0" d="M161.1,113c-1-1.8-0.2-3.3,0.3-4.9C162.4,108.7,162.3,109.5,161.1,113z"/>
<path class="st0" d="M151.5,84.8l-0.3,7.1h-0.6c0.1-2.4,0.3-4.8,0.4-7.1H151.5z"/>
<path class="st0" d="M134.4,189.2l-5.1-4.5c2,1.1,4.1,2.1,5.4,4.1L134.4,189.2z"/>
<path class="st0" d="M176.8,155.8l1.9-6.3C179.4,150.7,178.2,154.1,176.8,155.8z"/>
<path class="st0" d="M142.1,197.9c1.7,0,2.8,1.1,3.7,2.5C143.2,199.8,141.9,198.9,142.1,197.9z"/>
<path class="st0" d="M139.1,96.3l-1.6,7.1l-0.4-0.1l1.3-7.1L139.1,96.3z"/>
<path class="st0" d="M168.4,197l0.1-0.8c-1,0.1-1.4-0.6-1.1-2.2l1.1,0.4l-0.1,1.2l0.9-0.8C169.9,195.8,169.6,196.6,168.4,197z"/>
<path class="st0" d="M130.2,70.8l-0.7-6.7C130.4,66.4,131.4,68.3,130.2,70.8z"/>
<path class="st0" d="M166,227.4l-1.6-2l1.5-1c0.4,0.5,0.7,1.1,0.9,1.6C166.9,226.3,166.4,226.8,166,227.4z"/>
<path class="st0" d="M135.1,96.9c0.9-1.6-0.2-3.8,1.5-5.1l0.4,0.1c-0.5,1.7-0.9,3.4-1.4,5.2L135.1,96.9z"/>
<path class="st0" d="M139.4,182.2c1.6,0.9,3.4,1.6,4,3.6l-0.2,0.3l-4.1-3.5L139.4,182.2z"/>
<path class="st0" d="M118,57.9c0.7,1.9,2.1,3.6,1.2,6.2l-1.5-6.1L118,57.9z"/>
<path class="st0" d="M143.9,181.1c1.7,0,2.4,1.1,3.4,2C146.1,183.9,146,183.8,143.9,181.1z"/>
<path class="st0" d="M110.5,132.9c0.4,0.2,0.8,0.4,1.2,0.6c0.6,0.4,1.2,0.8,1.7,1.3c0.2,0.2,0.2,0.6,0.2,0.9c-0.3,0-0.8,0.1-0.9,0
	c-0.9-0.8-1.7-1.6-2.5-2.4L110.5,132.9z"/>
<path class="st0" d="M158.6,192.6c1.5,1.7,2.7,5.1,2.1,6.1C159.9,196.6,159.2,194.6,158.6,192.6z"/>
<path class="st0" d="M144.8,194.6c2.6-0.1,3,0.2,3.5,2.4L144.8,194.6z"/>
<path class="st0" d="M144.7,175c1.1,1,1.6,2.5,1.4,4C145.5,177.7,143.6,176.9,144.7,175z"/>
<path class="st0" d="M136.4,140.6c1.7,1.1,2.9,3.5,2.6,5.1L136.4,140.6z"/>
<path class="st0" d="M99.1,77.2l1.8,0.8v-0.8l0.2-0.1l1,1.5l-0.2,0.2l-0.6-0.2l0.8,1.6C100.7,79.3,99.3,78.8,99.1,77.2L99.1,77.2z"
	/>
<path class="st0" d="M131.1,135.2l-2.1-2.4c0.8-0.2,1.5-0.5,1.7-0.3c0.7,0.6,1,1.6,0.8,2.5L131.1,135.2z"/>
<path class="st0" d="M185.9,213.9c-0.1-0.5-0.5-1.1-0.4-1.6s0.8-0.9,1.4-1.5C187.1,212.2,188.3,213.4,185.9,213.9z"/>
<path class="st0" d="M128,87.5c0.3-1.4,0.5-2.8,0.8-4.1c0-0.2,0.4-0.3,0.5-0.3s0.4,0.3,0.3,0.5c-0.4,1.4-0.8,2.8-1.2,4.1L128,87.5z"
	/>
<path class="st0" d="M120.3,72.9l0.3-6.1C121.6,68.1,121.4,70.4,120.3,72.9z"/>
<path class="st0" d="M116.2,168.9c0.1-0.1,0.2-0.4,0.3-0.4s0.3,0.1,0.4,0.2c0.6,0.6,1.2,1.3,1.9,1.8c0.7,0.4,1.4,0.8,2.1,1.2
	l-0.3,0.5c-1.1-0.4-2.1-1-3-1.8C117.1,169.9,116.9,169.2,116.2,168.9L116.2,168.9z"/>
<path class="st0" d="M122.6,167c0.5,0,0.9,0.1,1.3,0.3c1.1,0.6,2.1,1.2,3.1,1.8c0.2,0.2,0.5,0.4,0.6,0.7c-0.3,0-0.7,0.1-0.9-0.1
	c-1.1-0.7-2.1-1.4-3.2-2.2C123.2,167.3,122.9,167.2,122.6,167L122.6,167z"/>
<path class="st0" d="M135.5,102.1c-0.1,1.8-0.2,3.5-0.3,5.1C134.1,106.2,134.1,103.9,135.5,102.1z"/>
<path class="st0" d="M111.1,81.8l1.4,2.9l-0.4,0.3l-2.5-2.7L111.1,81.8z"/>
<path class="st0" d="M155.2,221.7l-4.2-1.2C153.2,219.7,154.4,220,155.2,221.7z"/>
<path class="st0" d="M155.7,223.7l-4.4-0.2C153,222.2,154.9,222.3,155.7,223.7z"/>
<path class="st0" d="M175.6,209.6c-0.2,1.1,0.6,0.5,1,0.6c0.6,1.6,0.1,2.1-1.7,2L175.6,209.6z"/>
<path class="st0" d="M127.4,177.9c-2.1,0.1-3.2-1.3-4.4-2.4l0.2-0.3L127.4,177.9z"/>
<path class="st0" d="M93.6,71.2c-0.8-0.8-2.3-0.9-2.2-2.5C93.7,68.1,93.1,70.1,93.6,71.2z"/>
<path class="st0" d="M156.1,164l0.7,3.9l-0.4,0.1c-1.3-1.1-1-2.5-0.7-3.9L156.1,164z"/>
<path class="st0" d="M152.2,96.5l-0.6,5.2l-0.4-0.1C151.1,99.8,151,98.1,152.2,96.5z"/>
<path class="st0" d="M148.7,225.5c1.4-0.4,2.5-2.1,4.6-0.8l-4.6,1.1L148.7,225.5z"/>
<path class="st0" d="M166.4,217.7l0.6,1.5l-2.2,1.3C164.1,218.7,165.8,218.8,166.4,217.7z"/>
<path class="st0" d="M128.7,90.5l-0.9,4.3l-0.4-0.1C126.6,93,127.9,91.8,128.7,90.5z"/>
<path class="st0" d="M138.1,183.9c-1.2-0.5-2.5-0.9-3-2.2c0.6-0.1,1-0.2,1.4-0.3c0.2,0,0.3,0.1,0.5,0.2
	C136.4,182.8,138.3,182.7,138.1,183.9z"/>
<path class="st0" d="M150.6,207.7c1.2-0.4,1.7,0,2.6,1.6C151.4,209.3,150.9,209,150.6,207.7z"/>
<path class="st0" d="M143.5,208c1.5,0.3,2.9,1.3,3.5,2.7C145.8,209.6,143.8,209.9,143.5,208L143.5,208z"/>
<path class="st0" d="M155.7,215.1c-0.3-0.4-0.7-0.7-0.7-0.8c0.1-0.4,0.6-0.9,0.7-0.9c0.5,0.3,1.1,0.6,1.6,1L155.7,215.1z"/>
<path class="st0" d="M133.5,139.2l0.8,1.6l0.6-1.2l1.5,2.8C134.9,142,133.7,140.7,133.5,139.2z"/>
<path class="st0" d="M99.1,77.2c-0.5-0.3-0.9-0.6-1.3-1c-0.6-1-1.1-2-1.6-3.2C98.2,73.9,98.1,75.9,99.1,77.2L99.1,77.2z"/>
<path class="st0" d="M181.6,212.8c1.2,0.2,1.4,0.9,1,1.6c-0.2,0.3-1,0.2-1.6,0.3l-0.2-0.4L181.6,212.8z"/>
<path class="st0" d="M145.5,214.6l-5-0.4c0.2-0.3,0.3-0.7,0.4-0.7c1.6,0.2,3.1,0.5,4.7,0.7L145.5,214.6z"/>
<path class="st0" d="M111.9,131.3l4.4,3.3l-0.3,0.4l-4.4-3.4L111.9,131.3z"/>
<path class="st0" d="M161.4,157.9c0,0.8-0.1,1.7-0.2,2.5c-0.2,0.8-0.5,1.6-0.9,2.3C160.2,160.8,160.9,158.2,161.4,157.9z"/>
<path class="st0" d="M169.2,228.5c0,0.4-0.1,0.9-0.3,1.2c-0.4,0.6-1,1.2-1.5,1.8c-0.1,0.1-0.5,0.1-0.7,0.1c0-0.2,0-0.4,0-0.7
	c0-0.1,0.1-0.2,0.2-0.3C167.6,230,168.3,229.4,169.2,228.5z"/>
<path class="st0" d="M122.6,167L122.6,167c-0.5-0.1-0.9-0.3-1.4-0.5c-0.5-0.3-1-0.7-1.5-1.1C121.2,165,122.7,165.9,122.6,167z"/>
<path class="st0" d="M163.2,215.2c-0.4-0.7-0.9-1.3-1.3-2c0.1-0.2,0.3-0.4,0.5-0.4c0.4,0,0.7,0,1.1,0.1v2.1L163.2,215.2z"/>
<path class="st0" d="M148.4,186.3c-1.5,0.5-2.2-1.1-3.4-1.3C145.9,184.4,147.5,185.1,148.4,186.3z"/>
<path class="st0" d="M136,111.4l-0.6,4.1C134.4,114,134.6,112.8,136,111.4z"/>
<path class="st0" d="M192.4,214.8l2.9-0.3C194.5,216.1,193.7,216.2,192.4,214.8z"/>
<path class="st0" d="M132.1,67.9c0.3,1.9,0.5,3.8,0.7,5.6h-0.3l-1-5.6L132.1,67.9z"/>
<path class="st0" d="M94.1,80.4l-2.4-3.5C93.2,77.2,94,78.5,94.1,80.4z"/>
<path class="st0" d="M166.2,191.4c-1.4-2.1-1.3-2.2,0.8-2.3L166.2,191.4z"/>
<path class="st0" d="M120.5,144.2l2.9,2.2C122.3,146.6,121,145.7,120.5,144.2z"/>
<path class="st0" d="M167.6,157.7v-4.4h0.4v4.4H167.6z"/>
<path class="st0" d="M116.7,59.7l-1.6-3.3c1.3,0.4,2.1,1.7,1.7,3C116.8,59.5,116.7,59.6,116.7,59.7z"/>
<path class="st0" d="M96.8,120.2l-2.9-3.6l0.3-0.3l3.4,3.2L96.8,120.2z"/>
<path class="st0" d="M136.4,200.9c-1-0.6-2.4-0.5-2.9-1.9l0.2-0.4l3,1.7L136.4,200.9z"/>
<path class="st0" d="M129.6,97.4l1.4-4.6C131.4,93.9,130.7,96.4,129.6,97.4z"/>
<path class="st0" d="M166.1,217.2c-0.6,0.3-1.1,0.5-1.7,0.7c-0.2,0-0.6-0.4-0.6-0.6s0.3-0.7,0.5-0.7c0.6,0,1.2,0.1,1.8,0.2
	L166.1,217.2z"/>
<path class="st0" d="M154.2,214.8c-1.4,0.5-2.1,0-2.5-1.5C152.6,213.9,153.8,213.4,154.2,214.8z"/>
<path class="st0" d="M145.1,110.8c0.2-1.4,0.4-2.5,0.6-3.6c0-0.1,0.2-0.3,0.3-0.3s0.4,0.2,0.4,0.3
	C146.1,108.4,146.5,109.7,145.1,110.8z"/>
<path class="st0" d="M180.4,179.9c0.4,1.4,0.7,2.6-0.6,3.5C179.7,182.3,179.4,181.1,180.4,179.9z"/>
<path class="st0" d="M120.3,172.9l4.1,1.5l-0.1,0.3c-0.7-0.1-1.5-0.3-2.2-0.5c-0.7-0.2-1.3-0.6-2-0.9L120.3,172.9z"/>
<path class="st0" d="M95.7,79.8c1,0.9,1.8,2,2.3,3.3l-0.3,0.2l-2.3-3.2L95.7,79.8z"/>
<path class="st0" d="M163.9,227.6c-0.5,0.4-1.1,0.8-1.7,1.2c-0.2,0.1-0.6-0.2-0.9-0.4c0.2-0.3,0.3-0.6,0.6-0.7
	c0.6-0.2,1.2-0.3,1.8-0.4L163.9,227.6z"/>
<path class="st0" d="M134.5,98.2c-0.2,1.6-0.4,3.1-0.7,4.8C133.2,102,133.5,100,134.5,98.2z"/>
<path class="st0" d="M133.6,83.9l-1.1,4.5l-0.4-0.1l0.9-4.6L133.6,83.9z"/>
<path class="st0" d="M178.6,148.7l1.6-3.9l0.4,0.1c-0.6,1.3-0.4,2.9-1.6,3.9L178.6,148.7z"/>
<path class="st0" d="M191.1,211.9c-0.4,0.5-0.6,1.2-1.1,1.4c-0.3,0.1-0.9-0.6-1.4-0.9l0.2-0.4l1,0.3l1-0.8L191.1,211.9z"/>
<path class="st0" d="M121.7,80.2l0.9-5.5l0.4,0.1l-1,5.5L121.7,80.2z"/>
<path class="st0" d="M184,191.5l-1.1,0.6c0-1.3,0.8-2.1,2.4-2.4L184,191.5L184,191.5z"/>
<path class="st0" d="M105.7,139.6l-4-3l0.2-0.3l4,3L105.7,139.6z"/>
<path class="st0" d="M123.2,112.2c0.2,0.1,0.6,0.1,0.7,0.3c0.7,1.3,1.2,2.6,1.6,4L123.2,112.2L123.2,112.2z"/>
<path class="st0" d="M181.6,227.5c-0.6,0.2-1.2,0.4-1.9,0.5c-0.3,0-0.6-0.1-0.7-0.3c-0.1-0.3,0-0.6,0.2-0.8c0.3-0.1,0.6-0.2,0.8-0.1
	C180.5,227,181.1,227.2,181.6,227.5z"/>
<path class="st0" d="M143.5,208c-1.1,0.8-1.9,0.3-2.2-1c0.5,0,1,0.1,1.5,0.2C143.1,207.4,143.3,207.8,143.5,208L143.5,208z"/>
<path class="st0" d="M187.7,175.9l-1.9,2.1l-0.4-0.2c0.3-0.7,0.7-1.3,1.1-1.9C186.6,175.7,187.1,175.8,187.7,175.9z"/>
<path class="st0" d="M91.8,70.4l2.9,3.2c-1.7-0.6-2.2-2.1-3.3-2.9L91.8,70.4z"/>
<path class="st0" d="M172.5,232.1l0.6,2.2C171.4,233.8,171.2,233.4,172.5,232.1z"/>
<path class="st0" d="M181.7,228.9l-1.4,1.5c-0.3-0.3-0.5-0.6-0.7-1c-0.1-0.2,0-0.5,0.2-0.6c0.1-0.1,0.4-0.1,0.6-0.1
	C180.8,228.7,181.1,228.8,181.7,228.9z"/>
<path class="st0" d="M172.2,175.6c-0.2-0.5-0.3-1.1-0.4-1.6c0-0.4,0.1-0.7,0.3-1c0-0.1,0.5-0.1,0.5-0.1c0.1,0.3,0.2,0.6,0.2,0.9
	C172.7,174.4,172.5,175,172.2,175.6z"/>
<path class="st0" d="M174.6,200.2c0.3-0.5,0.6-1,0.9-1.5c0.3-0.5,0.7-0.8,1.2-1.1l-1.4,2.9L174.6,200.2z"/>
<path class="st0" d="M175,146.4c-0.1,0.6-0.3,1.1-0.5,1.6c-0.1,0.2-0.5,0.3-0.7,0.5c-0.1-0.3-0.3-0.7-0.2-0.9
	c0.3-0.5,0.7-0.9,1.1-1.3L175,146.4z"/>
<path class="st0" d="M109.8,89.1l2,3.1l-0.4,0.3l-2-3.2L109.8,89.1z"/>
<path class="st0" d="M150.6,175.1c0.5,0.4,0.9,0.9,1.3,1.3c0.1,0.1-0.1,0.4-0.2,0.7c-0.2-0.1-0.5-0.1-0.7-0.2
	c-0.3-0.4-0.6-0.9-0.9-1.3L150.6,175.1z"/>
<path class="st0" d="M134.4,181.7c-0.7-0.4-1.7-0.6-1.1-2.2l1.6,1.9L134.4,181.7z"/>
<path class="st0" d="M161.4,104.8c0.1-1.4,0.2-2.9,0.4-4.3c0.1,1.4,0.6,2.9,0,4.3L161.4,104.8z"/>
<path class="st0" d="M97.3,77.6l1,1.8c-0.2,0.1-0.6,0.2-0.7,0.1C97,79.2,96.4,78.7,97.3,77.6z"/>
<path class="st0" d="M163.2,181.2c0.6,0.8,2.2,1.4,0.5,2.7l0.2-1.2l-0.5,0.4L163.2,181.2z"/>
<path class="st0" d="M100.4,71.1l1.8,2.5l-0.4,0.3l-1.9-2.4L100.4,71.1z"/>
<path class="st0" d="M142.7,116.6l0.8-3l0.5,0.1l-0.7,3L142.7,116.6z"/>
<path class="st0" d="M167.8,221.3l0.7,2.5C167.6,224.1,167.2,223.3,167.8,221.3z"/>
<path class="st0" d="M128.8,95l0.6-2.9c0.4,1,0.4,2.1-0.2,3L128.8,95z"/>
<path class="st0" d="M169.3,193.3c-1.2-1.4-1.2-2-0.2-3L169.3,193.3z"/>
<path class="st0" d="M178.9,220.4c0.6-0.9,0.1-2.3,1.8-2.2C180.3,219.1,180.1,220,178.9,220.4z"/>
<path class="st0" d="M163.8,222.1l-2.8,1.2c0.3-1,1.5-1.6,2.5-1.3C163.6,222.1,163.7,222.1,163.8,222.1z"/>
<path class="st0" d="M178.6,225.3l-0.3,1h-0.3L177,224l0.4-0.2C177.8,224.3,178.2,224.8,178.6,225.3L178.6,225.3z"/>
<path class="st0" d="M81.1,94.2l0.3,3.7h-0.4l-0.4-3.7L81.1,94.2z"/>
<path class="st0" d="M148.9,181.3l2.4,1.9l-0.3,0.4l-2.4-1.9L148.9,181.3z"/>
<path class="st0" d="M171.8,231.6l-1,2.2C170,232.6,170.4,231.7,171.8,231.6z"/>
<path class="st0" d="M142.2,83.3l-0.6,3.1l-0.5-0.1l0.6-3.1L142.2,83.3z"/>
<path class="st0" d="M134.3,85.7l0.4-3.1C135.5,82.9,135.4,83.8,134.3,85.7z"/>
<path class="st0" d="M180.4,194.6c-0.2,0.6-0.4,1.2-0.6,1.7c-0.1,0.1-0.4,0.2-0.5,0.3c-0.1-0.2-0.2-0.4-0.1-0.5
	C179.3,195.5,179.1,194.5,180.4,194.6z"/>
<path class="st0" d="M166.3,224.1l-0.5-1.6c0.3,0,0.8-0.1,0.9,0c0.2,0.5,0.3,1,0.3,1.5L166.3,224.1z"/>
<path class="st0" d="M136.4,145.7c0.2,0.7,0.4,1.4,0.6,2.1c0,0.1-0.3,0.3-0.4,0.5c-0.2-0.2-0.6-0.4-0.6-0.7c0-0.6,0.1-1.2,0.2-1.8
	L136.4,145.7z"/>
<path class="st0" d="M98.1,64.9l-1.6-3.3l0.4-0.2l1.4,3.4L98.1,64.9z"/>
<path class="st0" d="M92,58.8l1,2.9C91.9,61.2,91.6,60.3,92,58.8z"/>
<path class="st0" d="M120.2,149l-3.5-2l0.3-0.5L120.2,149L120.2,149z"/>
<path class="st0" d="M160.9,164.4l-0.7,2.5l-0.5-0.1l0.7-2.6L160.9,164.4z"/>
<path class="st0" d="M146.8,203.2l-2.4-1C145,201.5,146,201.8,146.8,203.2z"/>
<path class="st0" d="M141,209.8l-2.5-1.1C139.8,208.2,140.4,208.9,141,209.8z"/>
<path class="st0" d="M81.2,81.1l1,1.5L82,82.8c-0.4-0.2-0.9-0.2-1.2-0.5s-0.1-0.8-0.2-1.2L81.2,81.1z"/>
<path class="st0" d="M83.2,85.6c-1.1-1-1.2-1.3-0.6-2.2l1,2L83.2,85.6z"/>
<path class="st0" d="M146.9,212.3c1.6,0,1.7,1.1,2.2,1.8l-0.3,0.3L146.9,212.3z"/>
<path class="st0" d="M143.2,133.5l0.3-4h0.3l-0.2,4H143.2z"/>
<path class="st0" d="M141.9,158.6c-0.8-0.5-1.3-0.8-1.8-1.1c-0.1-0.1,0-0.4,0-0.6c0.3,0,0.8-0.1,1,0.1
	C141.4,157.5,141.7,158.1,141.9,158.6z"/>
<path class="st0" d="M148.9,173.4l-1.7-3.4l0.3-0.2l1.7,3.3L148.9,173.4z"/>
<path class="st0" d="M165.7,196.4l0.7,2.3c-0.7-0.1-1.2-0.8-1.1-1.5C165.3,196.8,165.4,196.6,165.7,196.4z"/>
<path class="st0" d="M126,148l2.4,1.8c-1.1,0.2-2.1-0.5-2.3-1.6C126,148.1,126,148.1,126,148z"/>
<path class="st0" d="M129.3,173.4l-2.5-2.1l0.3-0.3l2.6,2.1L129.3,173.4z"/>
<path class="st0" d="M144.9,118.1l-0.8,2.9l-0.5-0.1l0.9-2.9L144.9,118.1z"/>
<path class="st0" d="M171.4,169.7l-1.1,0.5c-0.4-1,0.2-1.4,0.9-2L171.4,169.7z"/>
<path class="st0" d="M162.9,211.8c-0.8,0.1-1.6,0.2-1.7-1.3l1.9,0.8L162.9,211.8z"/>
<path class="st0" d="M91.2,106.7c0.8-0.5,1.1-0.2,1.4,1.7L91.2,106.7z"/>
<path class="st0" d="M140.9,166.9l2.1,1.6l-0.4,0.5l-2-1.7L140.9,166.9z"/>
<path class="st0" d="M134.7,176.9c0.6,0.8,2.1,0.3,2.1,1.9l-2.4-1.6L134.7,176.9z"/>
<path class="st0" d="M98.8,88.9c-1.2,0-1.5-0.4-1.7-2L98.8,88.9z"/>
<path class="st0" d="M165.9,181.8l1.2-2.1C167.6,181,167.1,181.6,165.9,181.8z"/>
<path class="st0" d="M189.6,218.8l-2.4,0.3l-0.1-0.5l2.4-0.3L189.6,218.8z"/>
<path class="st0" d="M92.3,82.2l1,2.4C92.2,84,91.8,83,92.3,82.2z"/>
<path class="st0" d="M87,107.1l-1.2-2.3l0.5-0.2l1.2,2.3L87,107.1z"/>
<path class="st0" d="M98.3,67.2l1.6,2.2C99,69.3,99,69.3,98.3,67.2z"/>
<path class="st0" d="M145.1,137.5l-0.4,2.6l-0.5-0.1l0.5-2.6L145.1,137.5z"/>
<path class="st0" d="M146.3,86.8l0.5-2.8l0.4,0.1l-0.4,2.9L146.3,86.8z"/>
<path class="st0" d="M120.2,149l3.4,2l-0.3,0.4L120.2,149L120.2,149z"/>
<path class="st0" d="M123.2,112.2l-1.5-3.1l0.3-0.1C122.4,110.1,123.6,110.8,123.2,112.2L123.2,112.2z"/>
<path class="st0" d="M94.6,67.4l1.2,1.9l-0.3,0.2L94,67.8L94.6,67.4z"/>
<path class="st0" d="M181,193.8c-0.6-1.2,0.4-1.6,0.6-2.4l0.4,0.2L181,193.8z"/>
<path class="st0" d="M137.5,88l-0.2,2.9l-0.6-0.1c0.1-0.2,0.1-0.5,0.2-0.8s0.2-0.7,0.3-1.1S137.4,88.3,137.5,88L137.5,88z"/>
<path class="st0" d="M95.9,65.1l-1.2-2.7l0.4-0.2l1.2,2.7L95.9,65.1z"/>
<path class="st0" d="M118.6,102c-0.4-0.6-0.8-1.2-1.2-1.9c-0.1-0.1,0.1-0.3,0.2-0.5c0.2,0.1,0.5,0.1,0.6,0.2c0.3,0.7,0.5,1.4,0.7,2
	L118.6,102z"/>
<path class="st0" d="M102.2,89.8l-1.2-2.2l0.4-0.2l1.2,2.3L102.2,89.8z"/>
<path class="st0" d="M137.3,176.4l1.7,1.1C137.8,178,137.3,177.7,137.3,176.4z"/>
<path class="st0" d="M167.8,226.5c-0.1,0.4-0.2,0.9-0.3,1.3c0,0.1-0.5-0.1-0.8-0.1l0.5-1.4L167.8,226.5z"/>
<path class="st0" d="M146.2,129l-0.6,2.4C145,130.5,144.8,129.7,146.2,129z"/>
<path class="st0" d="M138.9,86.7l0.7-2.6l0.4,0.1l-0.7,2.6L138.9,86.7z"/>
<path class="st0" d="M140.4,109.8l-0.5,2.2l-0.5-0.1l0.5-2.2L140.4,109.8z"/>
<path class="st0" d="M139.6,199.9l-2.4-1.5l0.3-0.4l2.3,1.6L139.6,199.9z"/>
<path class="st0" d="M119.1,59.1l-1.4-3.4l0.2-0.1l1.5,3.4L119.1,59.1z"/>
<path class="st0" d="M161.4,219.2l-1.9,0.3l0.4-1.6L161.4,219.2z"/>
<path class="st0" d="M148.8,206.6l1.4,1.7l-0.4,0.3l-1.5-1.6L148.8,206.6z"/>
<path class="st0" d="M154.5,156.9l-0.4,3h-0.4l0.4-3H154.5z"/>
<path class="st0" d="M101,84.4l-1.3-2.1C100.4,82.3,101.1,83.3,101,84.4z"/>
<path class="st0" d="M89.3,88.4l-1.7-2C88.8,86.5,89,86.7,89.3,88.4z"/>
<path class="st0" d="M117.7,98.5c-0.4,0-0.6,0-0.6,0c-0.3-0.6-0.7-1.1-1-1.7c0.1-0.1,0.2-0.2,0.3-0.2L117.7,98.5z"/>
<path class="st0" d="M181.5,208.4c-0.3,0.5-0.6,1.1-0.9,1.6c0,0-0.5-0.1-0.5-0.1c0-0.3,0-0.5,0.1-0.8c0.3-0.3,0.7-0.6,1.1-0.8
	L181.5,208.4z"/>
<path class="st0" d="M197.7,200.2l0.4-2C199,199.3,198.9,199.6,197.7,200.2z"/>
<path class="st0" d="M103.9,77.1l-1.3-1.6l0.4-0.4l1.3,1.6L103.9,77.1z"/>
<path class="st0" d="M140.6,166.1l-1.7-1.5l0.3-0.3l1.7,1.5L140.6,166.1z"/>
<path class="st0" d="M128.6,157.4c-0.9,0-1.8-0.6-2-1.5l0.3-0.3L128.6,157.4L128.6,157.4z"/>
<path class="st0" d="M124.8,148.3l-1.2-1.6l0.4-0.3l1.3,1.6L124.8,148.3z"/>
<path class="st0" d="M117.3,123.5l2,1.9l-0.2,0.3l-2.1-1.8L117.3,123.5z"/>
<path class="st0" d="M116,104.5l1.8,2.3l-0.3,0.3l-1.7-2.3L116,104.5z"/>
<path class="st0" d="M130,102l-0.9,2.5l-0.4-0.1l0.8-2.5L130,102z"/>
<path class="st1" d="M133.1,128.3V126h0.4v2.4L133.1,128.3z"/>
<path class="st1" d="M135.5,134.2l1.3,2.8l-0.2,0.1l-1.5-2.7L135.5,134.2z"/>
<path class="st1" d="M153.1,197.8l-3-1.5l0.2-0.4l3,1.5L153.1,197.8z"/>
</svg>
