<?xml version="1.0" encoding="utf-8"?>
<!-- Generator: Adobe Illustrator 22.0.1, SVG Export Plug-In . SVG Version: 6.00 Build 0)  -->
<svg version="1.1" id="Layer_1" xmlns="http://www.w3.org/2000/svg" xmlns:xlink="http://www.w3.org/1999/xlink" x="0px" y="0px"
	 viewBox="0 0 300 300" style="enable-background:new 0 0 300 300;" xml:space="preserve">
<style type="text/css">
	.st0{fill:#FFFFFF;}
	.st1{fill:#232323;}
</style>
<path class="st0" d="M91.1,113.6L80.3,96.7l-2.1,0.4l-0.9,0.2l0.1,1.8l1.9,4.4l3.1,6.1l4.2,8.6L84,116l-2-2.1l1,3.2l-2.2-2.7
	l-0.2,1.3l3.6,4l1.1,7.9l0.5,3.8c0,0,3.3-3.3,4.4-2.1s0.3,6,0.3,6l1.5,4.7c0,0,3.5,1.8,5.2,6.6s4.5,12.1,4.5,12.1l2.6,0.2l48.9,24.7
	l69.3-11.9l-6-3.2l7-2.4l-4.8-1.5c0,0-0.6-1.5,7-1.6s19.6-7.3,19.6-7.3l-21.8,5.6l3.4-3.1l3.7-4.4l7.4-1.9l2.2-0.9l1-1.9l0.7-3.1
	l-1,0.3l-1,1l-0.3-1.3l-0.1-2.7l0.4-9.1l-0.4-2.8l-1.6,0.1l-6.4,5.4l-2.6,1.1l-5.4,5l4.9-13.1l0.9-8.5c0,0,0.3-10.6-2.1-9.9
	S221,113,221,113l-4.4,12.4l-31.7,18c0,0-25.2,24.2-34.3,10.2s-18.7-9.8-18.7-9.8s-23.5-5.2-24.7-9.2s-3-8.5-3-8.5l-3.4-12.6
	L91.1,113.6z"/>
<title>Artboard 1_1</title>
<path class="st1" d="M148.8,196.3l-1.1-0.1l-0.1,0.2l0.9,0.4l2,3.2l0.1-0.1l1,1l-0.3,0.4l-7.5-4.7c0,0.7,0,0.7,3,3.2l-0.1,0.3
	l-4.7-3.2l0.5-0.1l-1.1-0.9l0.1,1c-1.1-0.9-2-1.7-2.9-2.5c-0.5-0.5-1-1-1.5-1.5c-0.4-0.3-1.1-0.2-1.5-0.5s-0.1-1-0.4-1.4
	c-0.5-0.7-1-1.3-1.5-1.9l-0.5,0.4l1.2,1.4l-0.7,0.7l-2.8-3l-0.4,0.4c1.9,2.1,3.7,4.3,5.6,6.4l-0.1,0.1c-0.2-0.1-0.4-0.2-0.6-0.4
	c-3.3-3.7-6.8-7.3-10-11.1c-1.8-2.1-3.3-4.5-4.9-6.8c-0.5-0.9-1.5-1.5-2.6-1.6l9.2,12.7l-0.3,0.3l-1.6-1.8c0.1,0.8,0.1,1.5,0.2,2.1
	l-4.1-7.3l-0.2,0.1l1.2,4.4l0.3-0.1v-1c0.3,0.6,0.6,1.2,0.8,1.8c0.2,0.6,0.5,1.2,0.9,1.7c0.4,0.5,0.7,1,1.2,1.4l0.2-0.1l-0.2-1
	c1.2-0.3,1.1,1,1.3,1.4c0.5,1.1,1.3,1.4,2.5,1.5l-1.3,0.6l0.1,0.7l-1.4-1.3l-0.3,0.2l0.5,1l-0.2,0.1c-1.4-1.9-3-3.7-4.3-5.7
	s-2.4-4.3-3.6-6.4h-0.4c-0.3,1-0.4,2-0.3,2.9c0.2,0.9,1.1,1.6,1.5,2.7c-0.8-0.2-1.6-0.3-2.3-0.6c-0.2-0.1-0.4-0.4-0.4-0.6
	c0-1.6-1.2-2.4-2-3.7c-1,3.2-0.5,6.3,0.1,9.4c0.2,1.3,0.3,2.6,0.5,3.9l-0.4,0.1c-0.2-0.8-0.3-1.6-0.5-2.3c-0.8-3.7-1.6-7.4-2.4-11.1
	c-0.2-1.1-0.6-2.2-1-3.3c-0.2-0.5-0.2-1.4-1.2-1c-0.2-0.2-0.3-0.4-0.4-0.6c0-0.3,0.1-0.6-0.1-0.9c-0.2,0.6-0.4,1.2-0.7,1.7
	s-0.7,1-0.9,1.6c-0.2,0.3-0.3,0.7-0.3,1.1c0,2.5,0,4.9-0.1,7.4l-2.6-18.4l0.2-0.1l0.8,1.6l0.4-0.1c0-0.7-0.1-1.4-0.2-2.1
	c-0.2-1-0.5-2-1.1-2.9c-0.7-0.9-0.5-1.7-0.7-2.6c-0.3-1.6-0.6-3.4-2.3-4.4c-0.5-0.3-0.7-1.1-1-1.7c-0.4-0.8-0.9-1.6-1.3-2.4
	c-0.4-0.8-0.7-1.5-0.9-2.4c-0.5-1.9-0.9-3.7-1.3-5.6c0-0.5,0.1-1,0.3-1.4c1.8,4.1,2.6,8.6,4.5,12.6l0.4-0.1c-1.3-4.9-2.7-9.8-4-14.7
	l0.4-0.1l2.3,7.1l0.3-0.1l-2.1-9.1l0.4-0.1l1.4,4.3h0.2l-2-11.5l0.6-0.1c0.2,0.9,0.4,1.8,0.6,2.6c0.2,1.2,0.5,2.5,0.8,3.7
	c0.1,0.4,0.9,0.5,1.2,0.9c1.1,1.4,2.2,2.9,3.2,4.4c1.5,2.3,2.9,4.8,4.4,7.1c0.6,0.9,1.2,1.8,1.6,2.4l0.7-1.8l-2.4-2.6l0.2-0.2
	c0.2,0.1,0.6,0.2,0.7,0.4c1.3,2.1,3.5,2.1,5.5,2.7c4,1,8,0.5,12,0.6c1.5,0,2.9-0.1,4.4-0.2c0.3,0,0.7-0.2,0.9-0.4
	c-1.5-0.4-3.1-0.6-4.6-0.8c-1.5,0.1-3.1,0.2-4.6,0.5c-3.5,0.4-7-0.2-10.1-1.8c-1.1-0.7-2-1.5-2.8-2.5l0.6,0.3c0.2,0,0.4,0.1,0.5,0.2
	c1.6,1.4,3.5,2.4,5.6,2.7c2.6,0.6,5.4,0.6,8,0c-1.7-0.7-3.4-1.2-5.2-1.6c-1.5-0.3-3-0.4-4.4-0.6l-4.5-0.7c-0.2-0.5-0.4-1-0.7-1.4
	c-0.4-0.5-0.8-0.9-1.4-1.3c-0.4-0.2-0.9-0.4-1.4-0.5c-0.3-0.1-0.7-0.2-1.1-0.3v-0.3l1.1-0.2c-0.9-2-2.8-2.8-4.4-3.9
	c-0.6-0.5-1.2-1-1.8-1.6l0.3-0.4l2.5,1.8l0.2-0.2l-5.2-7.9l2-0.1l0.3-4.9l-0.3-0.1l-0.8,3.6l-0.3,0.1c-0.1-0.3-0.2-0.6-0.3-0.9
	c-0.2-0.8-0.2-1.6-0.2-2.5c0.1-1.2-0.6-1.6-1.5-1.9c-0.8-0.3-1.5-0.8-2.2-1.2l0.2-0.3l3.1,1.5l-0.5-2.5h-0.3l-0.1,1
	c-1.1,0.2-1.7-0.5-2.1-1.3s-0.6-1.7-1.9-1.4c0.6-0.9,0.6-2.1,0-3.1c-0.2-0.3-0.3-0.6-0.3-0.9c-0.1-0.4-0.1-0.9-0.2-1.3
	s-0.2-0.8-0.3-1.4c-0.6,0.5-1.1,0.8-0.5,1.6c0.1,0.4-0.1,0.8-0.4,1c-0.7,0.1-1.4,0.2-2.1,0.2c0.7-1.5,0-2.6-0.9-3.9
	c-1.3-1.9-2.9-3.6-3.5-5.9c-0.2-0.6-0.9-1-1.5-1.6c-0.7,1.3-0.9,2.9-2.7,2.7c1.7-1.3,1.2-3.1,1.2-4.8c0-0.6-0.6-1.2-0.9-1.9
	c-0.6,1.3-0.8,2.6-2.3,2.7c0.4,0.8,1.3,1.1,2.1,0.7c0.2-0.1,0.3-0.2,0.5-0.3c0,0.3,0,0.5,0,0.7s0,0.4,0,0.6l-1.8-0.1l-0.1,0.2
	l0.9,0.7l-0.3,0.1c0.2,0.7,0.4,1.5,0.7,2.2c1.3,2.6,2.6,5.1,3.9,7.7c0.1,0.2,0,0.5-0.2,0.8c-0.6-0.8-1-1.7-1.7-2.4
	c-1.4-1.7-1.6-3.9-2.7-5.7c-0.4-0.7-0.7-1.4-1.1-2.1c-1-1.7-2.1-3.3-2.9-5c-0.3-0.9-0.5-1.9-0.6-2.8c-0.1-0.3-0.2-0.7-0.2-1
	c0.5,0.2,1.1,0.2,1.3,0.6c0.3,0.4,0.4,0.8,0.3,1.3c0,0.9,0.1,1.5,1.3,1.1s0.8,0.6,0.9,1.1l-1.3,0.4v0.4l1,0.4l1.3-3.2
	c-0.7-0.8-1.5-1.6-2.3-2.5c-0.4-0.4-0.7-1-1-1.4l-0.4,0.2l-0.1,1.5l-1.2-1.5c0.5-0.4,1.1-0.8,1.6-1c0.5-0.1,1,0.1,1.3,0.4
	c1,1.3,1.9,2.6,2.8,4c1,1.6,1.9,3.2,2.9,4.7c0.3,0.5,0.8,0.9,1.1,1.4c1.3,2.2,2.6,4.4,4,6.8l1.7-8.3l-2,2.4c0.1-1.5,1.2-2.7,2.7-3
	c-0.1,1.2-0.2,2.4-0.4,3.5c-0.1,0.5,0.9,2,1.4,1.9c0.2,0,0.5-0.4,0.6-0.7c0.7-1.7,1.2-3.4,1.9-5.2c0.3-0.7,0.7-1.3,1.2-1.8
	c-0.4,2.1-2,3.9-1.3,6.1l4-6.4l0.4,0.2l-2.5,4l1.7-0.6l-4.9,6.1l0.3,0.3c0.8-0.6,1.6-1.2,2.3-1.8c0.9-0.9,1.8-1.8,2.8-2.5
	c1.1-0.8,2-1.8,2.7-2.9c0.8-1.3,1.8-2.6,2.7-3.8c0.2-0.2,0.6-0.2,1.1-0.4l-3.3,4.6c1.3-0.2,2.5-1,3.2-2.1c1.8-2.6,3.8-4.9,5.8-7.3
	c0.5-0.5,1-0.9,1.5-1.3l0.2,0.2c-0.8,1-1.7,1.9-2.6,2.9c-1.2,1.6-2.4,3.1-3.6,4.8c-0.8,1.2-1.5,2.6-2.3,3.8
	c-0.2,0.3-0.7,0.4-1.1,0.6c1.5-0.1,3-0.7,4.1-1.8c1-1.2,2-2.3,3-3.4c0.2-0.2,0.5-0.4,0.8-0.4c-0.7,1.3-2,2.2-2.5,3.8l-3.1,3.3
	c2.9,0.2,4-1.7,5.2-3.3c-0.2,1.2-0.9,2.3-1.8,3.1c-0.8,0.7-1.8,1-2.8,1c-1,0.2-1.9,0.5-2.8,0.8l1.8-2.7c-2.3,0.1-5.7,2.5-5.3,5.9
	l10.5-2.9l0.1,0.1l-1.1,0.6c3.7-0.4,7.3-1.8,10.3-4.1c-1.4,2-5.2,4.4-7,4.4l0.9-0.6l-0.1-0.1c-2,0.5-3.9,1-5.9,1.5s-4.1,0.7-5.8,2.3
	v-1c-0.6,0.5-2-0.3-1.9,1.5c0.8-1.2,1.6,0,2.5-0.3c2.2-0.7,4.5-1.1,6.8-1.7c0.3-0.1,0.6,0,0.8,0.3l-4.4,1.1v0.4
	c1.3-0.2,2.5-0.5,3.8-0.7s2.7-0.3,4.1-0.5s2.6-0.5,4-0.6s2.4-1.2,4-0.4l-2.4,0.6v0.3l1,0.2l-0.4,0.5l0.9,0.2c-0.5,0.2-1,0.6-1.4,0.5
	c-1.8-0.3-2.7,1-4,1.7c-1,0.6-2.1,1.2-3.1,1.8l-0.2-0.3l3.3-2.4c-3.3,0.2-6,1.7-9,4.5c5.3-1,10.7-1.9,16-3c0.3-0.1,0.7,0,1,0.1
	c0.9,0,1.9,0,2.8-0.2c0.4,0,0.7,0,1.3,0l-2.1,1.4c-0.3-0.3-0.6-0.8-0.8-0.8c-2.4,0.4-4.9,0.8-7.3,1.4c-2.2,0.6-4.4,1.3-6.6,2
	c-0.4,0.2-0.7,0.4-1.1,0.7l5.9,0.3v0.3c-0.8,0-1.5,0.1-2.2,0c-2.4-0.2-4.8-0.4-7.1,0.6c-1.5,0.5-2.3,2-2,3.5
	c1.6-0.2,3.2-0.2,4.7-1.4c3.3-0.1,6.5-1.4,9.8-2.3v-0.3H118v-0.3c2-0.5,4.3,1.2,6.1-0.8l0.3,1.3l-18.1,4.8c0.3,1.8,0.5,1.8,2.7,1.9
	c2.1,0.1,4.3,0.4,6.4,0.8c2.9,0.6,5.2,2.4,7.5,3.9c0.3,0.2,0.6,0.4,0.9,0.5c3.1,0.3,6.2,0.1,8.8-2c0.5-0.4,1-0.7,1.6-0.9l0.1,0.2
	l-3.2,2.2l0.6,0.6v0.1l-1.6-0.6l0.7,1.1c-2.4,0.6-5,1.3-7.5,1.9c-0.5,0.1-1.1,0-1.6-0.2c-2.1-0.9-4.2-0.2-6.3-0.2
	c-0.5,0-1,0.2-1.4,0.6c1.8,0.7,3.7,1.3,5.5,2c2.8,1.1,5.6,0.3,8.4,0c3-0.3,6-0.8,9-1.5c1.8-0.4,3.6-1,5.4-1.7c1-0.5,1.9-1,2.8-1.6
	l0.2,0.4l-5.4,3.4l0.3,0.5l11.7-4.7c-3.1,2.6-6.9,3.6-10.5,5.2v0.3c1.3-0.1,2.5-0.2,3.8-0.5c2.3-0.6,4.5-1.3,6.7-2.1
	c1.6-0.7,2.5-2.4,2.3-4.1c0-0.3,0.4-0.7,0.7-1l0.3,0.2l0.2,2.6l2.6-2l0.2,0.2c-1.4,1.3-2.9,2.6-4.3,4c-0.3,0.4-0.6,0.9-0.6,1.4
	c2.5-1,4.7-2.6,6.4-4.8c0.1,0.5,0.1,1.1,0,1.6c-0.1,0.2-0.5,0.4-0.7,0.6s-0.4,0.4-0.7,0.6c0.3,0.1,0.6,0.2,0.8,0.1
	c1.4-0.5,3.1-0.7,3.9-2.3l-0.2,1.4l-0.2-0.2l-4.2,5.3l0.2,0.2l2.9-1.5c-1.5,1.9-4.2,2.2-5.4,4.8l5-2.9c0.2-0.1,0.4-0.2,0.6-0.3
	c0.1,0,0.3,0.1,0.3,0.1c1.7-1.9,3.4-3.8,5.1-5.7c0.2-0.2,0.3-0.3,0.5-0.4l0.3,0.2l-1.2,1.9l0.2,0.2l3-2.8l0.2,0.1
	c-0.6,1.1-1.2,2.2-1.8,3.2c-0.7,1.1-1.3,2.2-1.7,3.3l4.9-3.8c0,0.1,0.1,0.5-0.1,0.6c-1.8,1.5-3.5,3-5.3,4.6
	c-0.3,0.2-0.5,0.5-0.6,0.8c3.9-0.9,6.3-3.8,8.7-6.6l0.3,0.2l-1.5,2.3l0.1,0.2c1-0.5,2-1,3-1.6c1-0.7,1.9-1.5,2.8-2.3
	c0.4-0.3,0.7-0.7,1.4-0.4c0.4,0.2,1.3-0.2,1.9-0.6c1-0.7,1.8-1.6,2.8-2.4c0.3-0.2,0.6-0.3,0.9-0.3l-0.9,0.8l0.6,0.4
	c-1,0.8-2,1.5-2.9,2.3c-0.3,0.3-0.5,0.7-0.9,0.9s-0.6,0-0.9-0.1c-2.1,0.5-2.4,2.7-3.7,4.1c-0.8,0.9-1.4,1.9-2.1,2.9l-4.3,5.8
	l0.3,0.2l5.8-5.7l0.2,0.2l-2.3,2.8c0.9-0.5,2-0.5,2.5-1.8c0.6-1.2,1.5-2.1,2.6-2.7c2-1.3,3.4-3.3,3.9-5.6c0.1-0.4,0.4-0.8,0.7-1.1
	c1.3-0.9,2.6-1.9,3.7-3.1c0.6-0.7,1.3-1.2,1.8-1.9c0.2-0.5,0.3-1,0.3-1.4c0.1-0.4,0.2-0.7,0.3-1l0.3,0.1l-0.3,2.3
	c1.4-0.9,2.6-1.6,3.7-2.4c2.4-1.6,4.9-3.3,7.3-5c1-0.7,1.9-1.5,2.9-2.2c0.2-0.2,0.4-0.5,0.6-0.5c0.9-0.2,1.5-1,1.6-1.8
	c0-0.2,0.3-0.4,0.6-0.9c0,0.4,0,0.8,0,1.2c0,0.3,0.1,0.6,0.2,0.8c1,0.8,1,1.3,0.3,2.4c-0.8,1.2-1.4,2.5-1.9,3.8
	c1.8-0.8,3.2-1.8,3.6-4c0.4-2.7,1.3-5.2,2-7.9c0.1-0.6,0.2-1.1,0.4-1.8l-2.1,1.9c0.7-2.2,2.8-3.5,5-3.3c0.3,0,0.7-0.3,1.3-0.5
	c-0.4,3-0.7,5.8-1,8.9c1-0.3,1.8-1.3,1.8-2.4c0.2-0.9,0.2-2,0.3-2.9c0.1-0.4,0.3-0.8,0.6-1.1c0.3-0.3,0.6-0.6,0.9-0.9
	c1-1.5,2.7-2.5,4.5-2.7c0.4,0,0.7-0.4,1-0.5c1.9,0.5,2.9,1.9,3.8,3.4c-0.2,0.3-0.3,0.6-0.3,1c0.2,2.2-0.3,4.5-1.3,6.4
	c0,0.1,0,0.2,0,0.3l0.5,0.2c-1.5,2.9-1.5,6.3-2.5,9.3c-1,3.1-1.6,6.2-2.4,9.3c1.3-1.9,2.4-4,3.4-6.1c0.4-1.2,0.8-2.4,1.1-3.7
	c0.5-1.5,1-3,1.3-4.5c0.4-2.1,0.7-4.3,0.8-6.5c0.1-1.9,1.2-3.9-0.6-5.6c0,0,0-0.1,0-0.1l1,0.6c-0.1-1,0.4-2.1-1.1-2.4
	c1.3-0.5,1.9-0.3,1.8,0.8c0,2.6-0.2,5.1-0.3,7.7c0,0.2-0.1,0.5-0.1,0.7c0,0.1,0.1,0.2,0.2,0.2c0.8-2.5,1.6-4.9,2.4-7.3l0.4,0.1
	c-0.1,0.5-0.2,1.1-0.3,1.6c-0.3,1.3-0.5,2.7-0.8,4c0,0.1-0.2,0.1-0.3,0.1c-0.2,1-0.5,2.1-0.8,3.4c1.4-1,0.8-2.3,0.8-3.4
	c0.6,0.4,1.1,0.8,0.9,1.7c-0.4,2-0.7,4.1-1.2,6.1c-0.8,3-1.7,5.9-2.4,8.9c0.9-1.5,1.7-2.9,2.6-4.4l0.3,0.2l-4.4,8.3
	c0.2-0.1,0.5-0.2,0.7-0.4c1.9-1.8,3.2-4.1,4-6.5c0.8-2.9,1.9-5.8,2.9-8.6c0-0.1,0.2-0.1,0.5-0.4c-0.5,1.9-1,3.5-1.4,5.1
	c-0.2,1.4-0.5,2.8-0.9,4.1c-0.6,1.5-1.3,3-2.1,4.4c-0.1,0.2-0.1,0.5-0.1,0.7c1.1-1,2-1.8,2.8-2.7c0.7-0.9,1.5-1.8,2.4-2.5
	c1.4-0.9,1.6-2,1.4-3.5c0.1,0.2,0.2,0.4,0.3,0.6c0.2,0.5-0.2,1.6,1.1,1.2c0.1,0,0.3,0.1,0.4,0.2c0.6,0.7,1.1,1.5,1.5,2.3
	c0.1,1,0.1,1.9-0.1,2.9c-0.2,2.4-0.5,4.9-0.8,7.6c-0.2-0.4-0.3-0.9-0.3-1.3c0.2-2.6,0.5-5.2,0.8-7.7c0-0.4,0-0.8-0.2-1.2
	c-0.2-0.4-0.5-0.7-0.8-1c-0.3,0.3-0.7,0.5-0.9,0.8c-0.8,1.5-1.9,3-0.9,5l1-0.7c-0.7,3.2-2.3,6.1-4.6,8.5l0.9-0.1
	c0,0.1-0.1,0.2-0.2,0.3c-0.9,0.7-1.8,1.4-2.7,2.1c-0.5,0.5-1.2,0.8-1.9,0.8c-0.5-0.1-1.1,0.6-1.7,1c-3,1.9-5.9,4-9.1,5.5
	c-2.7,1.2-5.2,2.7-7.4,4.6c-0.5,0.5-0.9,1.1-1.3,1.6c-1.6,1.9-3.2,3.7-4.8,5.6c0.8,0.2,1.7,0.4,2.5,0.7c1.4,0.4,2.8,0.9,4.1,1.5
	c1.1,0.5,2.4,0.3,3.3-0.4l-0.6-1.5l-6.4-1.4c-0.1,0-0.2-0.2-0.4-0.5l5.6,0.6l0.1-0.2l-2.5-0.6l6.8-1.3v-0.3h-8.1
	c0.4-0.2,0.6-0.4,0.9-0.4c2.5-0.1,5.1-0.2,7.6-0.2c2.3,0,4.7,0,7.3,0c-2.4,0.8-5-0.1-7,1.6c8.4,0,16.7-0.8,25-1.3l0.1,0.4
	c-0.9,0.1-1.9,0.4-2.8,0.4c-3.5,0.3-7.1,0.6-10.6,1c-2.3,0.2-4.6,0.6-6.9,1c-0.2,0-0.3,0-0.5-0.1c-2.5-1.1-5.2-0.5-7.8-0.9
	c5.1,2.1,10.6,1.6,15.9,1.6v0.3l-4.8,0.4v0.2l5.1,0.7l-0.1,0.4c-0.2,0-0.4,0-0.6,0c-3.7-0.5-7.4-0.9-11.2-1.4
	c-0.3,0-0.6,0.1-0.9,0.2c-0.8,0.3-1.6,0.7-2.5,1l1.5-1l-0.1-0.2h-1.8l0.4,1.2c0.6,0.7,0.6,2.1,2.2,1.7l-1.3-0.7l16.9,2.1v0.2
	c-2.1,0-4.2-0.4-6.2,0.1s-3.3,2-5.2,3.1l2.6,0.8v0.2l-4.9-0.7l-0.1,0.4l3.3,1.2l-0.1,0.4c-4.1-1.2-8.1-1.2-11.8,1.1
	c5.1,0.9,10.3,1.4,15.7-0.4c-0.9,0.8-2,1.2-3.2,1.2c-1.1,0.2-2.1,0.3-3.2,0.4s-2.3,0.2-3.6,0.3l1.7,0.6c-3.7,0.2-7.3-1.4-11.1-0.7
	l3.9,1.6l-0.1,0.4c-1.2-0.4-2.5-0.7-3.7-1.1c-1.1-0.3-1.6-0.1-1.8,0.8l-1.6,0.6v0.4l2,0.4c0.3,0.9,0.3,0.9,3,0.6l0.1,0.3
	c-0.2,0.1-0.5,0.3-0.8,0.4l-1,0.4l0.1,0.4l-1-0.8l0.6-0.2c-0.9-0.7-2.3-0.3-3.3,0.9l2.4-0.5l0.1,0.3l-1.6,0.9l4.3,1.7l-0.1,0.3
	l-3.3-1.2c-1-0.4-1.9-0.9-2.9-0.2c-0.2,0.2-0.4,0.4-0.6,0.6l3.3,1.1c-0.8,0.6-2.4,0-1.7,1.6l-4,1.4l-0.6,1.5l5,2.2l-0.1,0.2
	l-7.8-2.4c-0.5,1.8,1.6,1.1,1.5,2.5c-1.7-1.2-3.9-1.5-5.9-0.9l-0.8,1.2h1.4l0.1,0.2l-3.9,1.9l2.7,1.4l-0.1,0.4
	c-2.3-1.6-4.8-1.2-7.2-0.5v-0.3l2.7-0.8c-2.7-1.2-5-2.3-7.4-0.3c0.1,0.1,0.2,0.2,0.4,0.2c1.4,0.1,2.4,1,3.6,1.6
	c0.6,0.2,1.2,0.4,1.8,0.4c1.6,1.2,3.5,1.4,5.3,2h-1.7l3,1.6l-0.1,0.3c-1.6-0.6-3.1-1.3-4.8-1.9c-1-0.3-2-0.5-3-0.7
	c-0.4-0.1-0.9,0.1-0.6-0.6c-0.6-0.1-1.1-0.2-1.7-0.3c-0.3,0-0.6,0.1-0.9,0.2c-0.1-0.9-0.9-1.5-1.8-1.4c-0.1,0-0.2,0-0.3,0.1
	c-1.2,0.4-2.3,0.7-3.4-0.5c-0.1-0.1-0.7,0.1-1.1,0.1c-0.4,0-0.9-0.1-1.3-0.1c0.4-0.2,0.8-0.3,1.2-0.3c1.1,0,1.2,0,1.4-0.9
	c-0.9,0.1-1.8,0.3-2.8,0.3s-1.9-0.1-2.9-0.2c0.3,0.4,0.7,0.7,1.1,0.8c0.6,0.1,1.3,0.2,1.9,0.3l-1.1,0.4c3.1,1.6,6.4,1.1,9.4,1.9
	c-0.5,0.5-1,0.4-5-0.1c-1.7-0.2-3.4-0.3-5.2-0.5c1.6,1.4,3.5,1.4,5.4,1.6l-1.4,0.3l0.4,0.5c-0.1,0-0.2,0.1-0.3,0.1
	c-0.6-1-1.6-0.6-2.4-0.8c-2-0.4-4-0.5-6.1-0.5l7.6,3.7c-0.5,0-0.8,0.2-1,0.1c-2.4-1.1-4.9-2.2-7.3-3.3c-1.2-0.6-2.4-1.3-3.7-1.9
	c-0.7-0.2-1.5-0.3-2.2-0.4c-0.8-0.2-1.6-0.4-2.4-0.6s-1.9-0.5-2.2,0.8c-2.1-0.8-4.1-1.5-6.1-2.3c-0.4-0.2-0.8-0.5-1.1-0.8l6.8,2.4
	l0.7-2.1l-4-0.5v-0.2h3.9c-3-1.7-5.6-3.3-8.4-4.7c-1.1-0.6-2.3-0.8-3.4-1.4c-1.2-0.8-2.3-1.8-3.3-2.8c-1.2-0.9-2.6-1.4-4.1-1.3
	c2.6,2.8,5.2,5.6,8,8.2C146.1,194.7,147.4,195.5,148.8,196.3z M187.8,189l0.6-0.5c-2-1.2-3.1-1.3-4.3-0.4c1.3,0.3,2.3,0.5,3.4,0.7
	C187.6,188.8,187.7,188.9,187.8,189c-0.7,0.6,0.1,0.6,0.4,0.7c1.6,0.5,3.3,0.9,4.9,1.4c0.1,0,0.3-0.1,0.6-0.3
	c-1.3-0.6-2.4-1.2-3.6-1.6C189.3,189.1,188.5,189,187.8,189L187.8,189z M182.2,190.8c-0.4-1,0.6-0.9,1-1.5c-1.2-0.1-2.3-0.3-2.3,1.4
	L182.2,190.8c1.2,1.4,3.1,1.7,4.7,2.4c1.3,0.5,2.8,0,3.6-1.2l-5.5-1.8c-0.3,0.3-0.7,0.5-1.1,0.6
	C183.3,190.9,182.7,190.9,182.2,190.8L182.2,190.8z M169.5,153.8c0.9-1.4,1.9-2.9,2.8-4.3l-0.3-0.2c-1.2,1.8-3.4,2.8-3.8,5.3
	L169.5,153.8c0,0.2,0,0.5-0.2,0.6c-2,1.5-3.6,3.5-4.6,5.7c-0.4,0.8-0.9,1.5-1.4,2.4c1.2-0.1,2.3-0.8,3.1-1.7
	c0.2-0.2,0.5-0.3,0.8-0.4l-0.1,0.9l4.3-2.2l-9.2,9c4.3-1.7,8.2-3.3,10.3-7.5c1-2,2.4-3.8,3.6-5.8c1.1-1.6,1.5-3.5,1.2-5.4
	c-1.5,1.7-2.9,3.4-4.3,4.9c-1.9,2.1-3.9,4-5.8,6.1c0.4-0.6,0.8-1.2,1.2-1.7c2.7-3.2,5.4-6.4,8.1-9.6c0.4-0.6,1.1-1.3-0.2-2.1
	c-1.4,1.7-2.7,3.5-3.9,5.4C171.5,153.7,170.4,153.5,169.5,153.8L169.5,153.8z M156.8,149.3l0.2,0.4l2.8-1.7l-0.2-0.4l-1.3,0.6
	c-0.1-0.1-0.3-0.3-0.3-0.3c-1.9,0.7-4.1,0.5-5.4,1.9c-0.4-0.1-0.8-0.4-1-0.3c-1.1,0.5-2.2,1-3.3,1.6c-0.4,0.2-0.9,0.9-1.2,0.9
	c-1.2-0.1-1.4,0.7-1.7,1.2c2.3,0.6,3.7-1.4,5.7-2l-0.6,0.8c1.7-0.5,2.9-2.1,4.8-1.9l0.7-0.9l0.2,1.4c-0.4,0-0.8,0.1-1.1,0.2
	c-1.5,0.8-2.9,1.8-4.4,2.6c-0.5,0.4-1,0.7-1.5,0.9c-1.5,0.4-2.2,1.8-3.7,2.2c-1.4,0.5-2.8,1.3-4.1,2.1c-0.2,0.2-0.4,0.3-0.5,0.5
	l-3.5,1.4l0.1,0.3c0.6-0.1,1.2-0.5,1.6-0.4c1.3,0.4,1.5-0.5,1.8-1.3l0.5,1.1c0.8-0.7,2.5-0.3,2.8-1.8c1.1-0.5,2.2-0.9,3.2-1.4
	c1-0.4,1.9-1,2.8-1.6c0.8-0.5,2.1,0.4,2.5-1.1c0.1-0.4,1-0.6,1.5-0.9c1.2-1,2.3-2.1,3.3-3l-0.9-1.1L156.8,149.3z M169.8,167.2
	L169.8,167.2c-0.1,0.2-0.2,0.4-0.4,0.5c-3.4,1.9-6.8,3.9-10.1,5.8c-2.5,1.5-5.1,3-7.6,4.6l4.3,1l-0.5-1c0.2-0.1,0.4-0.1,0.7-0.2
	c0,0,0.1,0.1,0.1,0.2c0.9,1.1,2.3,1.8,3.8,1.7c1.9-0.1,3.8-0.1,5.6-0.3c1-0.2,2-0.6,2.9-1.2c2.5-1.8,5-3.7,7.4-5.7
	c1.5-1,2.7-2.4,3.5-4l-1-0.1c0.6-0.2,1.2-0.6,1.7-1c1.2-1.4,2.3-2.9,3.4-4.4c0.2-0.2,0.2-0.8,0.4-0.9c0.7-0.2,1.2-1,0.9-1.8
	c0-0.1-0.1-0.2-0.1-0.3c0.3-0.2,0.8-0.4,0.8-0.5c-0.4-1.7,1.1-2.6,1.5-3.9l-0.2,1.6c2.6-3.5,8.5-17.9,8.6-21c-1.3,1.9-3,3.2-3.4,5.4
	c-0.2,0.7-0.5,1.4-0.9,2l0.3-2.4l-1.3-1.1c0.6,0.1,1.1,0.3,1.2,0.2c0.9-1,1.4-2.4,1.3-3.8c-0.9,0.2-1.8,0.4-2.7,0.7
	c-0.4,0.2-0.7,0.6-0.9,1c-0.3,0.8-0.5,1.6-0.7,2.4c-0.4,1.8-0.8,3.5-1.4,5.2c-1.1,2.8-2.4,5.4-3.7,8.1c-0.7,1.4-1.7,2.7-2.4,4
	c-0.3,0.5-0.2,1.2-0.5,1.7c-0.9,1.4-2,2.8-3,4.1c-0.1,0.1-0.3,0.3-0.3,0.3c-1.2-0.6-1.3,0.6-1.7,1.1c-0.8,0.8-1.3,1.7-2.1,2.4
	c-1.8,1.6-3.7,3.1-5.6,4.6l0.2,0.3l9.4-3.6l0.1,0.4l-19.9,8.2l-0.4-1.1c3.4-0.8,6.6-2.3,9.4-4.3c3.7-2.5,7.2-5.9,7.4-7l-1,0.3
	c0.3-0.2,0.6-0.5,0.9-0.8c0.8-0.5,1.5-1,2.1-1.7c1.1-1.5,1.9-3.1,2.8-4.7c2.6-4.2,5.2-8.5,7.8-12.7c0.1-0.3,0.2-0.6,0.2-0.9
	l-0.9,0.5l-0.3-0.2c2.9-1.5,1.9-4.6,3-6.8c-0.3,0.2-0.5,0.5-0.6,0.8c-1.4,2.3-2.7,4.6-4.1,6.9c-0.1,0.2-0.4,0.6-0.4,0.7
	c0.8,0.8-0.2,1-0.5,1.3c-0.5,0.4-1,0.9-1.4,1.4c-0.9,1.3-1.7,2.6-2.6,3.9c-1.4,1.9-2.8,3.8-4.2,5.8c-0.6,0.8-1,1.6-1.5,2.5l0.1,0.1
	l1.2-0.7c-1.9,2.3-4.4,4-6,6.7L169.8,167.2z M202,162c0.8-0.6,1.6-1.1,2.5-1.5c1.5-0.7,2.8-1.9,3.5-3.4c0.5-0.9,0.9-1.8,1.4-2.7
	c2.5-4,4.9-8,6.4-12.6c1.1-3.5,2.7-6.8,4.1-10.2c0.4-1,1-2,1.5-3l0.4,0.2c-3.8,7.1-5.3,15.1-9.4,22.1c0.8-0.5,1.5-1.1,2.1-1.8
	c0.9-0.9,1.8-1.9,2.6-3c0.5-0.7,0.9-1.6,1.4-2.3c1.4-2.2,2.5-4.6,3.3-7.2c1.2-3.9,2.1-7.8,3.1-11.7c0.3-1.4,0.5-2.8,0.8-4.3
	l-0.3-0.1l-0.8,2.2l-0.2-1.4c-0.7,0.2-1.4,0.5-2.1,0.9c-1.4,1-2.7,2-3.9,3.1c-0.2,0.2-0.2,0.7-0.2,1.1c-0.1,0.2-0.2,0.5-0.2,0.7
	c0,0.3,0.2,0.7,0.1,0.9c-0.4,1-0.8,2-1.2,3c-0.2,0.3-0.4,0.6-0.6,0.9l-0.1-0.1l1-3.6c-0.5,0.3-0.9,0.7-1.1,1.2
	c-1.1,2.8-2.2,5.5-3.3,8.3c-0.1,0.5,0,1,0.1,1.4l-0.7-0.1c-1.3,3-2.6,5.9-3.9,8.8l-0.4-0.2c0.4-0.9,0.9-1.9,1.2-2.9
	c1.1-2.9,2.3-5.7,3.3-8.6s2.7-5.4,3.1-8.5s0.9-6,1.4-9.1c-1.1,0.8-2,1.5-1.7,3c0,0.2,0,0.3,0,0.5c-0.6,1.9-1.2,3.9-1.9,5.8l-0.6,1.8
	l-0.4-0.1c0.7-1.1-0.2-2.2,0.6-3.5s0.6-3,0.8-4.5c-0.9,0.4-1.7,0.9-2.5,1.5c-0.2,0.2-0.4,0.4-0.5,0.7c-0.4,1.7-0.7,3.4-1.2,5.1
	c-0.8,2.7-1.5,5.4-2.5,8.1c-0.9,2.5-2.3,4.8-3.3,7.3c-1.2,2.9-2.1,5.8-3.4,8.6c-1.8,3.7-3.8,7.3-5.7,11c-0.4,0.9-1,1.6-1.5,2.4
	l-0.4-0.3c1.5-2.7,2.9-5.4,4.4-8.1c0.9-1.8,1.8-3.6,2.6-5.4c0.6-1.4,1.1-2.8,1.5-4.2c0.1-0.4-0.2-1,0-1.4c1.4-3,3-5.9,4.2-9
	c1.2-2.8,2.1-5.7,3-8.6c0.5-1.5,0.8-3,1.2-4.8c-0.8,0.5-1.2,0.8-1.7,1.1c-0.9,0.7-2.2,1.2-2.6,2.2c-1.3,2.6-2.3,5.4-3.4,8.1
	c-0.3,0.7-0.6,1.4-1,2c-0.2,0.3-0.5,0.6-0.7,0.8c-0.2,0.2-0.3,0.4-0.4,0.6l-0.4-0.2l4.2-10c-1.2,0.2-2.2,1.1-2.5,2.4
	c-0.3,1.4-0.7,2.7-1.2,4c-0.9,2.4-1.8,4.8-2.8,7.1s-2,4.3-3,6.5c-1.4,3.2-2.4,6.6-4.5,9.5c-0.3,0.5-0.6,1.1-0.9,1.7
	c1.7,0.2,1.7,0.2,1.6,0.6c-0.7,0.1-1.5,0-2,0.4s-0.3,1.1-0.5,1.8c-0.4-0.1-1-0.1-0.8,0.9c0.1,0.3-0.2,0.7-0.4,1
	c-1.7,2.4-3.4,4.8-5.1,7.3c0,0.1,0,0.1,0,0.2l0.9-0.1l-2.1,2c0,0-0.1,0-0.1,0c-1.2,0.5-2.5,0.9-3.7,1.5c-0.5,0.3-1,0.8-1.5,1.2
	c0.3,0.2,0.6,0.2,0.9,0.2c2.4-0.7,4.8-1.4,7.2-2.2c0.3-0.1,0.6-0.3,0.8-0.6c0.5-1.2,0.9-2.5,1.3-3.8c0.1-0.2,0.2-0.4,0.4-0.5
	c1.3-1.4,2.9-2.6,3.8-4.2c1.9-3.4,3.4-7,4.9-10.6c1.1-2.5,1.9-5.2,2.8-7.8c0.2-0.4,0.4-0.8,0.7-1.1l0.3,0.2
	c-1.3,3.8-2.6,7.5-3.9,11.3c4.2-8.4,7.8-16.9,11.5-25.6c-0.4,1.8-1,3.6-1.7,5.4c-1,2.5-2.1,4.9-3.2,7.3c-0.7,1.6-1.4,3.1-2.1,4.7
	c-0.4,1-0.8,2-1.2,2.9c-0.7,1.6-1.2,3.3-2,4.9c-1.3,2.4-2.8,4.7-4.2,7.1l1.5-0.7c-2.4,3.7-6,6.2-8.1,10.2c3.6,0.2,4.5-2.9,6.7-4.7
	l-2.3,0.6l-0.1-0.3c0.2-0.1,0.4-0.2,0.6-0.3c1-0.4,2-0.9,3-1.4c1.8-1.2,2.5-3.5,4.5-4.6c0.1,0,0.1-0.1,0.2-0.1
	c2.8-3.9,5.1-8.2,6.8-12.7c0.6-1.8,1.2-3.7,1.8-5.5c0.9-2.7,1.8-5.5,2.8-8.2c0.5-1.5,1.1-2.9,1.7-4.4l0.3,0.1
	c-3.7,10.3-6.1,21.1-12.5,30.7c0.7-0.2,1.2-0.2,1.4-0.4c0.9-0.7,1.7-1.6,2.3-2.6c1.6-2.9,2.9-5.8,4.4-8.8c0.2-0.4,0.4-0.8,0.7-1.1
	l0.4,0.2C205.7,154.6,203.7,158,202,162z M220.5,150.5l-0.3-0.2l5.7-8.7l-0.3-0.2l-3.2,3.8l-0.5-0.3c4.2-6,6.6-12.7,8.5-20
	c-0.8,1.2-1.6,2.4-2.3,3.6c-1.2,2.6-1.7,5.5-3.6,8c-2.3,3.1-4,6.5-5.2,10.2c-0.7,2.5-2,4.7-3.9,6.4l1.3-2.4l-0.4-0.2l-2.8,5.9
	c2.8-1.1,3.7-3.9,5.7-5.7c-0.5,1-1,2-1.6,3c-0.1,0.4-0.2,0.8-0.3,1.3l-0.6,0.4c2.5-0.7,4.9-1.9,6.8-3.8c2-1.7,4-3.4,6-5.1
	c0.1-0.1,0.3-0.3,0.3-0.4c-0.8-0.7,0.2-1,0.4-1.3c0.5-0.5,1-1,1.5-1.4c1.4-1.3,2.9-2.6,4.3-3.9c0.2-0.3,0.4-0.6,0.3-1
	c-0.4-1.6-0.2-3.4,0.6-4.9c0.2-0.5,0.4-1.1,0.6-1.7c-0.8,0.4-1.6,1-2.2,1.7c-2.5,3.1-4.9,6.1-7.3,9.2c-0.8,0.9-1.4,1.3-2,1.2
	c1.1-1.4,2.6-2.3,3-4.1C225.5,142.6,223.5,146.9,220.5,150.5L220.5,150.5z M138.3,165.2c6.7,0.1,11.6-4.3,17.2-6.8
	c0-0.1,0.1,0,0,0.1c-0.6,0.6-1.1,1.2-1.7,1.8c6.7-3.7,12.3-8.5,16.1-15.7c-2.5,0.7-3.1,3.1-5,4c0.3-0.6,0.7-1.2,1.1-1.7
	c0.2-0.2,0.5-0.7,0.5-0.8c-0.8-0.8,0.1-1.1,0.5-1.4c0.4-0.4,0.9-0.9,1.5-1.2c-1.7,0.6-3.2,1.4-4.8,2.2c-0.1,0-0.2,0.1-0.3,0.2
	c0.6,1.3-0.7,1.1-1.2,1.6c-1.7,1.4-3.4,2.9-5,4.4c-0.4,0.3-0.7,0.7-1.1,1.1l0.2,0.3l1.8-1.1l0.2,0.3
	C151.7,156.8,145.5,161.7,138.3,165.2L138.3,165.2z M149.5,145.4c1.2-0.9,2.3-1.9,3.3-3c0.9-1.1,1.6-2.3,2.3-3.6
	c-2.8,1.9-5.5,4.1-7.9,6.5c-2.6,2.1-5.4,4.2-8.2,6l0.2,0.4l3.9-0.8l0.1,0.3c-1.5,0.5-3,0.9-4.5,1.4s-3,1-4.5,1.6s-2.6,1.4-4,1.8
	c-1.4,0.3-2.9,0.5-4.3,0.6l-0.1-0.5c0.3-0.1,0.5-0.2,0.8-0.3c0.9-0.1,1.7-0.2,2.6-0.3c1.3-0.4,2.8-0.4,3.9-1.5l-14.3,0.7
	c2.2,0.9,4,1.9,5.9,2.2s3.9-0.2,5.8-0.3v0.1l-3.4,0.7v0.4c0.7,0.2,1.5,0.2,2.2,0.1c3.8-1.4,7.7-2.7,11.4-4.3c2.7-1,5.1-2.6,7-4.7
	c1-1.2,2.1-2.4,3.1-3.6l-0.2-0.2L149.5,145.4z M117.9,168.3c-0.4-1.8-1.3-3.5-2.6-4.8c-0.5-0.5-1.2-0.9-1.4-1.5
	c-1.2-2.8-3.2-5-4.8-7.6c-1.4-2.4-2.6-5-3.8-7.5l0.3-0.2l3.1,5.3l0.3-0.2c-2.2-3.8-4.2-7.6-7.4-10.7c0.3,1.7,0.7,3.4,1.2,5
	c0.3,0.7,0.6,1.3,1.1,1.9c0.2,0.3,0.6,0.4,0.7,0.6c1.3,2.3,2.4,4.8,3.8,7c1.8,2.9,3.8,5.8,5.8,8.6c0.7,0.9,0.7,2.1,0.1,3.1
	l-6.6-11.1c0.4,1.4,0.8,2.7,1.3,4c0.5,1.1,1,2.2,1.7,3.2c1,2,1.9,4.1,2.7,6.3c0.2,0.4,0.5,0.7,0.8,1c1,0.7,1.8,1.6,2.6,2.4
	c0.8,1.1,0.6,1.2,1.7,1.2l-3.7-4.7l1-0.3l0.9,1.5l0.3-1.2c0.8,0.9,1.6,2,2.2,3.1c1.3,2.3,1.3,2.3,2.6,2.4c-1.5-2.4-3-4.8-4.4-7.2
	L117.9,168.3z M112.9,153.3c-0.1,0.4-0.3,0.6-0.2,0.8c0,1.3,0.5,2.6,1.4,3.6c1.6,1.6,3.2,3.1,4.8,4.7c0.3,0.3,0.5,0.6,0.7,1
	l-0.5,0.4l-3.1-3.9l-0.4,0.4c1,1.7,2.3,3.3,3.8,4.6c1.4,1.4,2.9,2.7,4.4,4s3,2.4,4.5,3.5l0.3-0.3l-9-8.2l0.3-0.3l2.2,2l0.3-0.3
	l-1-1.9c0.5-0.2,1-0.5,1.4-0.4c1.5,0.3,3,0.8,4.5,1.2c0.4,0.1,0.9,0.1,1.3,0c-0.3-1.2,0.8-0.8,1.3-1.1s0.7-0.4,1.1-0.7
	c-4.1,0-8-1.9-12.1-0.5v-0.3l3.6-0.8l-1.2-0.8c1.5,0.4,3.1,0.2,4.4-0.6c-0.8-0.1-1.5-0.2-2.3-0.2c-2-0.2-4.3,0.6-5.9-1.4
	c-0.5-0.4-1-0.8-1.6-1l0.1-0.4c2.1,0.6,4.1,1.9,6.6,0.9L112.9,153.3z M224.3,173.4v-0.3l-3-0.1c-1.5,0-2.9-0.4-4.1-1.3
	c-0.4-0.3-0.8-0.6-1.3-0.7c-1.3-0.3-2.6-0.5-3.7-0.7c-0.3-0.2-0.7-0.3-1.1-0.4c-1.5-0.3-3.1-0.6-4.6-0.9c-1.7-0.4-3.4,0.1-4.6,1.3
	c-0.9,0.9-0.9,1.5,0.1,2.2c-0.7,0.4-1.9-0.9-2.4,0.7l3,1.2c-1,0-1.8,0.1-2.2,1.2c0.4,0,0.7,0.1,1.1,0.3c0.9,0.6,1.8,1.1,2.9,0.6
	c0.3-0.1,0.7,0.1,1,0.1l0.7,0.1l-0.3-0.6l2.4-0.7c-0.5-0.1-1-0.1-1.5,0.1c-0.2,0-0.4,0-0.6-0.1l0.2-0.6l-1.1-0.6l0.1-0.2l3.9,0.4
	v-0.3l-5.4-1v-0.2l3.2-0.9l0.1,0.4l-1.1,0.3c0.3,0.3,0.6,0.4,1,0.4c0.8-0.1,1.6-0.2,2.4-0.2c2.4,0.3,4.7,0.6,7,1
	c0.7,0,1.3,0.1,2,0.3C220.5,174.8,222.4,174.3,224.3,173.4L224.3,173.4z M151.3,140.2l-0.2-0.3c-1.3,0.5-2.6,1-3.9,1.5
	c-0.2,0.1-0.4,0.4-0.6,0.6c-0.5,0.1-1,0.2-1.4,0.3c-3.5,1.4-6.7,3.5-10.3,4.7c-0.1,0-0.2,0.1-0.3,0.1l-5,1.7l-1.8,0.6
	c4.6,1.7,8.8,0.5,13-0.9c-2.6,2.1-5.9,2.1-8.9,3.2c1.7,0.2,3.3,0.2,5,0.1c0.4,0,0.8-0.5,1.2-0.8c1.7-1.2,3.5-2.4,5.2-3.7
	s3.2-2.4,4.8-3.7C149.1,142.5,150.1,141.3,151.3,140.2L151.3,140.2z M119.6,140.6h-9.8v-0.5h7.9c-2.8-1.7-5.6-3.4-8.9-3.1
	c-0.5,0-1.1-0.2-1.6-0.4l0.1-0.3h1.7l-1.9-1.6c-0.3-0.3-0.6-0.8-1-0.9c-1.3-0.2-2.7-0.3-4.1-0.5c1.8,2.8,3.2,5.8,6.3,7.6l-0.9,0.4
	l0.9,0.5c0.8-1.4,1.3-0.1,2.1,0l-0.8,0.5c0.6,0.3,1.1,0.5,1.7,0.8c0.1,0,0.3,0,0.4,0c0-1.1,0.6-0.3,0.9-0.3c1.1,0.3,2.2,0.5,3.4,0.6
	C118.4,143.3,119.2,142.6,119.6,140.6L119.6,140.6z M152.9,137.8l-0.2-0.1c-2.2,0.7-4.5,1.3-6.8,1.8c-1.7,0.2-3.4,1.5-5.1,0
	c-0.1-0.1-0.3,0.1-0.4,0.1l-4.2,1.8c-0.2,0.1-0.4,0.2-0.6,0.2l0.3-0.8c-2.2,0.4-4.3,0.9-6.5,1.2c-3.1,0.5-6.1,1-9.2,1.5
	c-0.4,0.1-0.7,0.3-1,0.4l0.1,0.5c2.2,0.2,4.4,0.5,6.7,0.6c2.1-0.1,4.1-0.5,6-1.3c2.2-0.7,4.6-0.8,6.9-1.3c1.8-0.4,3.6-0.9,5.4-1.4
	c2.5-0.7,5.1-1.4,7.6-2.2C152.2,138.8,152.5,138.2,152.9,137.8L152.9,137.8z M148.5,167l0.2,0.3c0.4-0.2,0.8-0.5,1.2-0.6
	c1.1-0.4,2.2-0.1,3.4-0.5c1.5-0.5,2.8-1.3,3.9-2.4c0.9-0.8,1.6-1.8,2.5-2.7c0.8-0.9,1.6-1.8,2.5-2.6c0.9-0.8,1.2-1.9,2.1-2.7
	c0.4-0.3,0.7-0.6,1.1-1c0.9-1,1.6-2.2,2.4-3.3c1.1-1.4,2.2-2.7,3.2-4.1c1.4-2,2.8-4,4.2-6l1.9-2.6l-0.2-0.2
	c-0.7,0.6-1.4,1.2-2.1,1.7c-1.3,1.1-2.4,2.4-3.3,3.9c-1.7,2.8-3.6,5.5-5.6,8.1c-1.9,2.3-4,4.4-6,6.6l0.9,0.3
	c-0.6,0.1-1.2,0.2-1.8,0.5c-0.8,0.6-1.4,1.3-2.1,1.9c-2,1.5-4,2.9-6,4.3C150,166.2,149.3,166.6,148.5,167z M198.4,135l-0.3-0.1
	c-0.6,0.8-1.1,1.6-1.4,2.5c-0.9,3.2-1.4,6.5-3.3,9.4c-0.7,1.1-1.2,2.3-1.7,3.5c-0.8,1.9-1.2,4.1-2.8,5.7c-1.3,1.2-1.2,3.2-2.4,4.6
	c-1.2,1.6-2.4,3.2-3.4,4.9c-0.6,0.9-1.2,1.7-1.8,2.6l0.3,0.2l2.9-2.9c-1.5,2.9-4.5,4.5-5.7,7.6c1.8-1.4,3.4-3.1,4.9-4.8
	c1-1.4,2-3,2.8-4.5c0.1-0.2-0.1-0.6-0.1-1c0.2-0.2,0.4-0.5,0.6-0.7c1-1.7,2.1-3.3,3.1-5c0.5-0.9,1-1.7,1.4-2.7
	c1.2-2.9,2.3-5.9,3.6-8.7C196.4,142,198.2,138.8,198.4,135z M160.3,165.6c-6.3,1.2-10.6,5.6-15.7,8.6c1.2-0.2,2.4-0.5,3.5-0.9
	c1.7-0.6,3.5-1.2,5.2-1.9c2.4-0.8,4.6-1.7,6.8-2.9c1.9-1.3,3.7-2.9,5.3-4.5c0.6-0.6,1.2-1.3,1.8-1.9l-0.3-0.3l-5,3.6
	c0-0.2,0-0.3,0.1-0.4c0-0.1,0.1-0.2,0.1-0.3c-1,0.5-0.9,2.2-2.5,2L160.3,165.6z M111.3,116.9c-2.4,0.3-4.9-0.4-7.1,1
	c-0.1-0.8-0.8-0.7-1.4-0.5c-0.4,0.2-0.6,0.6-0.6,1c-0.1,0.8,0.5,0.7,1.1,0.6c0.5,0,0.9,0,1.4,0.1v0.2l-2.5,0.5
	c0.2,1.7,0.3,3.2,0.6,4.8c0,0.2,0.5,0.4,0.7,0.4c0.8,0,0.9,0.4,0.8,1s-0.1,1-0.1,1.5l0.4,0.2c0.4-0.8,0.8-1.7,1.2-2.6
	c0.4-1,0.3-2.4,1.9-2.4c0.1,0,0.2-0.1,0.4-0.3l-1.1-0.1l-2.1-1.9l2.1,0.2c0.1-1.5,1.2-2.5,2.1-2.3L111.3,116.9z M190.6,188.8
	c1.6,0.4,3.1,1.2,4.5,1.1s2.8-1.3,4.5-2.1c-1.7-1.1-3.1-1.7-4.8-0.8c-0.3,0.1-0.8-0.1-1.2-0.2l0.1-0.4l2.4-0.3
	c-3.2-1.9-5.3-2.2-7.4-1c0.8,0.2,1.4,0.3,2,0.5s1.2,0.5,1.8,0.7c-2.5-0.3-4.8-1.3-7.4-0.8c1.1,0.8,2.3,1.4,3.6,2
	c0.7,0.3,1.4,1.2,2.2,0.3l0.2,0.1L190.6,188.8z M193.3,172c1.2,0.2,2,0.3,2.9,0.5c1.1,0.3,1.7-0.3,2.3-1c0.1-0.2,0.3-0.4,0.5-0.6
	c0.5-0.3,1-0.6,1.4-0.9c0.3-0.2,0.6-0.4,0.9-0.6c0.6-0.5,1.1-1,1.6-1.5c0.3-0.2,0.5-0.6,0.8-0.9c-1.9-0.3-3,1.6-4.7,1.8
	c0.3-0.4,0.8-0.7,1.2-1c2.1-1,4-2.3,5.7-3.9c0.8-0.7,1.5-1.8,2.3-1.9c1.4-0.1,1.6-1.2,2.3-1.9c0.5-0.6,0.9-1.2,1.2-1.9l-0.4-0.4
	c-2.2,1.8-4.4,3.6-6.6,5.3s-4.6,3.7-6.9,5.5C196.5,169.9,195,170.8,193.3,172z M159.4,157.8l-9.8,6h1.7c0,0.2-0.1,0.4-0.4,0.5
	c-5.7,0.9-10.7,3.7-16.2,5.2c0.4,0.2,0.7,0.3,1.1,0.3c5.9,0.5,10.9-1.8,15.5-5.3c0.3-0.3,0.6-0.7,0.9-0.9
	C155,162.1,157.4,160.1,159.4,157.8L159.4,157.8z M147,176.3c1.4,0.3,2.4,1.7,3.9,1c2.9-1.5,5.9-3,8.6-4.8c1.8-1.3,3.6-2.7,5.2-4.2
	l-0.2-0.4L147,176.3z M142.1,174.2c-0.1-0.1-0.2-0.1-0.3-0.2c-1.9-1-3.9-2-5.8-2.9c-1-0.5-2-0.8-3.1-1.1c-1.3-0.4-2.6-0.7-4-1
	c-0.4-0.1-0.8-0.3-1.2-0.4c-0.2,0-0.5,0.1-0.6,0.3c-0.1,0.2,0,0.4,0.1,0.6c1.5,1.3,3.1,2.5,4.6,3.8l0.2-0.2l-0.5-1.1
	c0.9,0.2,1.7,0.6,2.4,1.2c1.2,1.2,2.8,1,4.1,1.6c-1.5-1.5-1.5-1.5-1-2.1C138.4,174.5,139.7,175.9,142.1,174.2L142.1,174.2z
	 M142.5,173.3v0.4c0.6,0,1.1-0.1,1.7-0.2c1.2-0.5,2.3-1.1,3.4-1.7c0.8-0.5,1.5-1.1,2.1-1.8c0.4-0.4,0.8-0.9,1.2-1.2
	c0.9-0.6,1.8-1.1,2.7-1.6l-0.2-0.3c-0.5,0.2-0.9,0.3-1.4,0.5c-3.1,1-6.1,2-9.2,2.9c-0.9,0.3-1.7,0.4-2.6,0.5c-1.1,0-2.1-0.1-3.2-0.3
	c0.6,0.6,1.2,1.1,1.9,1.4c1.5,0.9,3,1.6,4.7,0.4c0.4-0.2,0.8-0.3,1.3-0.4l0.1,0.2L142.5,173.3z M183.5,140c0.8-0.9,1.7-1.7,2.7-2.3
	c0.9-0.4,1.6-1.2,1.9-2.2c0.2-0.9,0.9-1.6,1.8-1.9l-0.1,1.9c0.3-0.4,0.6-0.8,1-1.1c0.3-0.3,0.6-0.5,1-0.6c1.3,0,1.8-0.8,2.2-1.9
	c0.1-0.4,0.3-0.8,0.4-1.1l0.2,0.1l0.1,1.2c1.9-0.4,2.7-2.6,1.8-4.5c-1.3,0.8-2.5,1.6-3.7,2.5c-1.1,1-2.7,1.5-3,3.2v-0.6
	C185.7,135,184.3,136.6,183.5,140z M121.1,172.8c0.7,1.1,1.2,2.4,2.1,3.1s2.2,0.6,3.3,0.8l0.1-0.3l-1.4-1.5l0.3-0.3l2.7,2.2
	c0-1-1.5-1.3-0.8-2.7c1.2,2.9,3.4,3.7,6.3,4c-1.4-1.9-3.3-3.3-5.5-4.1l-5.6-4.5l-0.3,0.4c1,0.8,1.9,1.5,2.9,2.3
	c0.3,0.2,0.5,0.5,0.7,0.8c0,0-0.3,0.4-0.3,0.4c-0.3-0.1-0.6-0.2-0.9-0.4c-0.8-0.5-1.5-1.1-2.3-1.6l-0.2,0.3l0.4,1.2L121.1,172.8z
	 M109.7,165.5l-0.3,0.2c0.3,2.9,1.7,5.5,2.9,8c1.1-0.4,1.3-0.3,1.5,0.6c0.3,1.2,0.4,2.4,0.5,3.6c0,1.3,1.5,1.7,1.4,3.1
	c-0.1,0.5,0.8,1.2,1.2,1.9l1.1-3.1L109.7,165.5z M190.6,173.9l0.1-0.3l3.3,0.8c-1.1-1.1-2.4-1.8-3.8-0.9c-2.6,1.4-5.4,2.4-8.3,3
	c-1.2,0.4-2.4,0.9-3.5,1.6c5,0.1,10-1,14.5-3.2L190.6,173.9z M163.2,191.2v0.3l-3.1-0.4c1.9,1.9,4.2,2.2,6.4,2.8
	c-0.1,0.1-0.2,0.2-0.4,0.3l-0.4,0.1c2.7,2.1,5.8,2.1,8.9,2.2c-1.1-0.8-2.2-1.5-3.6-1c-0.3-0.5-0.4-1-0.7-1.3c-0.5-0.4-1.2-0.6-1.8-1
	c-1.2-0.9-2.5-1.4-4-1.6c-0.2,0-0.4-0.1-0.7-0.1v-0.2l1-0.1v-0.4l-3.5-0.4l-0.1,0.3L163.2,191.2z M139.2,138.6l-0.2-0.4l-0.7,0.1
	c-2.9,0.6-5.8,1.2-8.7,1.6c-1.9,0.3-3.9,0.2-5.9,0.5c-1.4,0.2-3.3-0.3-3.6,2.1c2.5-0.3,5-0.6,7.5-1c3.1-0.5,6.1-1.2,9.2-1.9
	C137.7,139.4,138.5,139.1,139.2,138.6L139.2,138.6z M166.6,139l-0.4-0.3l-6.5,6.8l-0.2-0.1l1-1.7c0,0-0.1,0-0.1-0.1l-0.2,0.1
	c-2,0.8-3.4,2.7-5.9,2.9c-1.3,0.1-2.5,1.5-3.8,2.4l0.1,0.2l10.2-3.1c-0.9-0.9,0-1,0.2-1.1C163.5,143.6,165.5,141.5,166.6,139
	L166.6,139z M98.2,118.2c0.9-0.6,1.3-1.9,2.7-1.7c0.1,0,0.4-0.6,0.4-0.9c0-0.5,0-0.9-0.1-1.4L98,115l-0.1-0.3
	c0.3-0.2,0.6-0.4,0.9-0.5c0.7-0.2,1.4-0.4,2-0.7c0.3-0.2,0.6-0.5,0.7-0.8c0.2-1,0.3-2,0.5-3.1c-0.8,0.4-1.6,0.9-2.4,1.3
	c-1.6,0.9-2.1,2.5-2.8,4c0,0.1,0.1,0.3,0.1,0.4c0.2,0.8,1,1.5,1,2.4C97.9,117.9,98.1,118,98.2,118.2z M139.3,185
	c-1-2.2-2.6-4.1-4.5-5.6c-1-0.8-2.5-1-3.8-1.5l-0.2,0.3c0.6,0.8,1.2,1.6,1.9,2.4c0.5,0.6,1.3,1.1,1.6,1.7
	C135.3,184.6,137.2,184.8,139.3,185z M186.2,139c-1.9,0.6-3.6,1.9-4.6,3.7c-1,1.7-2,3.4-3.2,5c-1.1,1.3-0.2,2.6-0.4,4
	c1.5-2.1,2.7-4.4,4-6.5S184.8,141,186.2,139z M218.4,124.1c1.1-0.6,2-1.1,2.9-1.6c0.3-0.2,0.6-0.6,0.9-0.7c1.3-0.4,1.5-1.3,1.4-2.4
	s-0.1-2.1-0.2-3.3c-0.3,0.4-0.8,0.7-0.9,1.2c-0.3,1.1-0.4,2.2-0.6,3.3c-1.2,0-0.6-0.8-0.6-1.2c0-0.6,0-1.2,0.1-1.7
	C218.9,118.8,219,120.1,218.4,124.1L218.4,124.1z M108.3,163.8h0.4c0.1-0.4,0.4-0.8,0.3-1.1c-0.5-1.6-1.2-3.2-1.8-4.8
	c-0.2-0.3-0.3-0.6-0.4-0.9c-0.3-3-1.6-5.8-3.6-8c0.9,3.6,1.9,7.2,2.8,10.7l0.3-0.1l0.3-0.8h0.3L108.3,163.8z M125.1,160.7v0.4
	c1.5-0.1,3,0.1,4.4,0.3c2.4,0.8,4.4-0.1,6.6-1.2c-0.4-0.2-0.7-0.5-1-0.6c-1.6-0.1-3.3-0.1-4.9-0.3
	C128.4,159.2,126.8,160.1,125.1,160.7z M172.8,184c1,1.3,2.6,1.9,4.2,1.4l-2.9-1.5l0.4-0.2c-1.2-1.3-2.9-1.8-4.6-1.5
	c-1.4,0.4-2.9,0.6-4.3,0.9c-0.5,0.1-1,0.3-1.6,0.4l0.1,0.5c2.4,0,4.8,0,7.3,0c0.4,0.1,0.8,0.2,1.2,0.4L172.8,184z M104.5,132.9
	c0.7,0.2,1.4,0.3,2.1,0.3c1.8-0.1,3.5-0.4,5-0.6l-8.3-3.6v3.1l1.4-0.2L104.5,132.9z M109.1,130.4l-0.1,0.5c0.8,0.3,1.7,0.5,2.6,0.9
	c2.2,1,4.7,0.5,6.8,2.1c0.8,0.6,2.2,0.4,3.6,0.6c-1.7-1.6-3.8-2.8-6.2-3.3C113.5,130.8,111.3,130.7,109.1,130.4L109.1,130.4z
	 M156.9,164.8c4.1-0.4,7.4-3.2,7.9-6.8h-1L156.9,164.8z M225.4,119.8h0.4c2-3.3,2-9.2-0.1-10.2l0.7,1.5l-1.1-0.5V119.8z M108.1,134
	c2.1,2.5,7.8,3.2,10.4,1.4L108.1,134z M131.1,182.3l0.4-0.4c-1.6-2.2-3.3-4.5-6.8-4.9c0.7,1.1,1.3,1.9,1.9,2.7s1.9,1.6,2.4,2.6
	c0.3,0.8,1.1,1.3,1.9,1.1c0-1-1-1.1-1.4-1.9c-0.8-1.9-1-1.8-0.8-2.2L131.1,182.3z M202.4,185.1c-4.5-2.6-3.8-3.1-7.9-1.7l5.3,2.3
	c0.2,0,0.3,0.4,0.5,0.4c1,0.4,2.1,0.1,2.9-0.6l-1.3-0.1L202.4,185.1z M142.2,142.8l-0.1-0.3l-12.5,3c1.7,0.3,3.6,0.9,5.2,0.5
	C137.4,145.2,139.8,144.1,142.2,142.8L142.2,142.8z M200.9,165.3l-0.1-0.2c-0.5,0.3-1,0.6-1.6,0.9c-0.9,0.5-1.7,1.5-2.6,1.5
	c-1.2,0-1.9,0.7-2.8,1.2c-0.8,0.4-1.5,0.9-2.1,1.5c-0.8,0.7-1.6,1.5-2.4,2.3l0.2,0.2C193.6,170.7,197.4,168.3,200.9,165.3
	L200.9,165.3z M140,180.2c2.5,2,4.4,4.7,8.1,3.3c-1.3-0.9-2.2-2.4-4-2.5c-1.2-0.1-2.4,0.3-3.4-0.8
	C140.6,180.2,140.5,180.2,140,180.2L140,180.2z M175,192c-2.3-1.4-5.1-1.9-7.8-1.5c0.1,0.2,0.3,0.5,0.5,0.6c1.2,0.7,2.5,1.4,3.8,2
	c0.3,0.1,0.7,0.1,1,0C173.4,192.8,174.2,192.4,175,192L175,192z M196,177.7v0.4c1.2,0.1,2.4,0.2,3.6,0.3c0.9-0.1,1.9-0.1,2.8,0
	c1.2,0.2,2.4,0.8,3.7,1.1c0.6,0,1.3,0,1.9-0.2l-0.1-0.3c-2.2-0.4-4.5-0.9-6.7-1.4c-0.4-0.1-0.8-0.3-1.1-0.5
	C199.1,176.3,197.6,176.6,196,177.7z M143.4,194.1c-3-2.7-5.5-5.8-8.7-8.3C136.9,189.4,139.5,192.5,143.4,194.1L143.4,194.1z
	 M107.7,115c-2-0.1-3.9,0.5-5.5,1.7c0.2,0.1,0.4,0.2,0.7,0.2c1.7-0.2,3.4-0.8,5.2-0.5c1.1,0.1,2.1,0,3.2-0.2c1-0.2,2-0.5,3-0.8
	l-0.1-0.6l-7.6,1.1L107.7,115z M112,144.9c1.9,3.2,5.4,2.4,8.1,3.4C117.6,146.5,115.1,145,112,144.9z M211,122.2
	c2.9-1.1,3.6-4.5,1.6-7.1C212.1,117.5,211.6,119.8,211,122.2z M207.6,177.6c2.7,1.4,4.5-1,6.8-1.3c-1.1-0.4-2.2-0.7-3.4-0.8
	c-1.1,0-2.2,0.2-3.2,0.4v0.2l1.4,0.4v0.4L207.6,177.6z M144.2,185.8c-0.9-0.7-1.8-1.5-2.7-2.2s-1.9-1.5-2.8-2.3l-2.4-2.1l-0.3,0.3
	c1.3,1.3,2.5,2.7,3.6,4.2C140.7,185.4,142.2,185.8,144.2,185.8L144.2,185.8z M130.2,167.7c-1.4-2.1-3.7-2.1-5.8-2.4l-0.6,0.9
	c0.4,0.1,1,0.2,1,0.4c0.1,1.3,1.4,1.1,2,1.3C127.7,168.3,129,167.8,130.2,167.7L130.2,167.7z M203.8,187.9c-0.7-0.2-1.6-0.6-2.2-0.4
	c-1.1,0.5-2.1,1.1-3,1.8c-0.6,0.4-1.2,1.1-2.1,0.9c-0.2,0-0.4,0.2-0.7,0.5C199,191.1,201.1,189,203.8,187.9L203.8,187.9z
	 M180.5,193.3c1,0.6,2,1,3.1,1.3c1.1,0.1,2.2,0.1,3.2-0.1l0.1-0.7l-5.9-1.8l0.1,0.4L180.5,193.3z M123.8,146.2v-0.3l-4.8-0.4
	c2.1,2.6,5,2.9,7.3,0.7l-3.7,0.6v-0.3L123.8,146.2z M190.9,180.9c2.1,0.5,3.9,2.4,6.4,1.1l-0.4-0.7c-0.7-0.1-1.5,0.1-2-0.2
	C193.2,179.9,192.5,179.7,190.9,180.9L190.9,180.9z M154.5,141.3c3.7-1.6,4.7-2.5,5.8-4.8c-1.2,0.5-2.4,1.1-3.4,1.9
	C155.9,139.3,155.1,140.3,154.5,141.3L154.5,141.3z M177.9,191.2c-0.1-1.7-3-3.1-5.1-2l3.2,0.6v0.3l-1.1,0.4l-0.1,0.3l2.8,1
	c0-0.1,0,0,0,0.2l2.3-0.4l-0.1-0.5L177.9,191.2z M153.7,172.5l-0.1-0.2c-1.6,0.4-3.2,0.9-4.8,1.4c-0.8,0.2-1.6,0.3-2.4,0.6
	c-0.3,0.1-0.4,0.6-0.6,0.9c0.3,0.1,0.7,0.4,1,0.3c1.6-0.5,3.1-1.1,4.6-1.7C152.2,173.3,152.9,172.9,153.7,172.5L153.7,172.5z
	 M130.3,184.5c2.1,2.5,4.4,4.9,6.9,7.1c-0.6-1-1.3-1.9-2-2.8c-0.7-0.9-1.4-1.9-2.1-2.8C132.5,184.9,131.4,184.4,130.3,184.5
	L130.3,184.5z M149.8,190.7l-0.1,0.4l8.9,4.9c-0.2-0.5-0.5-0.9-0.9-1.2c-1.9-1.2-3.7-2.4-5.7-3.6C151.2,191,150.5,190.8,149.8,190.7
	L149.8,190.7z M156.2,188.4c1.9,2.3,4.3,1.6,6.8,1.7C160.8,188.3,158.4,188.6,156.2,188.4L156.2,188.4z M214.8,115.7l-0.2,3.4h0.4
	v-6.3l-2.3-0.1l1.4,3.4L214.8,115.7z M101.7,126l0.3-0.1l-0.7-6.1l-1.8,0.5L101.7,126z M138.8,161.9c-3.1-0.2-5.5,1.9-8.5,2.2
	C131.4,165,135.4,163.9,138.8,161.9z M181.8,195.3c0-0.1-0.1-0.2-0.1-0.2c-0.6-0.3-1.3-0.6-1.9-0.8c-1.3-0.5-2,0.1-2.1,1.6l0.8-0.2
	l-0.5,0.7C179.1,196.9,179.4,196.8,181.8,195.3z M186.2,194.8c-0.4,1.5,1,1.6,1.5,1.8c1.4,0.7,2.5-0.9,3.8-1.2L186.2,194.8z
	 M157.6,141.2l-0.4-0.5c-0.8,0.6-1.7,1.1-2.4,1.7c-1,0.8-2,1.6-2.9,2.5c-0.2,0.2-0.2,0.6-0.3,1c0.4-0.1,0.7-0.2,1-0.4
	c0.7-0.6,1.4-1.3,2-2c0.2-0.3,0.4-0.6,0.5-0.9l0.1,0.2L157.6,141.2z M149,189.6l-6.3-3.1c0.4,0.7,0.9,1.3,1.6,1.7c1,0.6,2.1,1,3,1.7
	S148.5,190.4,149,189.6z M107.1,121.6c2.4,0.5,4.9-0.1,6.7-1.6l-1.1,0.2c-1.1,0.2-2.2,0.4-3.3,0.4
	C108.5,120.5,107.6,120.9,107.1,121.6L107.1,121.6z M203.2,183.9c-0.5-1.2-1.8-1.8-3-1.3c-0.2,0.1-0.3,0.2-0.5,0.3
	c2.6,1.9,4,2.2,5.3,0.8C204.1,183,204.1,183,203.2,183.9L203.2,183.9z M176.2,188.3c2.7,1.6,3.7,1.7,5.1,0.4
	C179.7,188.1,178.1,187.2,176.2,188.3L176.2,188.3z M218.7,117.7c-1.7,1.1-1,3.1-1.4,4.6s-0.6,3.4-1,5.1l0.4,0.1
	c0.5-0.9,0.8-1.9,1-2.9C217.7,122.3,217.6,119.9,218.7,117.7L218.7,117.7z M195.6,179.5l-0.1,0.4c1,0.2,2,0.4,3,0.6
	c0.4,0.1,0.8,0.2,1.1,0.4c0.7,0.7,1.8,0.7,2.5,0l-2.2-0.1C200.1,179.6,197.2,178.8,195.6,179.5L195.6,179.5z M133.1,147.2v-0.4
	c-1.1-0.4-2.2-0.4-3.2,0.2c-1.1,0.6-2.1,1.3-3.1,2v0.1L133.1,147.2z M159.8,193.8l-0.1,0.3c1.1,0.4,2.4,0.5,3.1,1.2
	c1,1,2,0.7,3.1,0.9C164.3,194.6,162.1,193.7,159.8,193.8z M173.5,177.3l-5.4,2.5C170.3,180.4,173,179.2,173.5,177.3z M153.2,183.6
	c-1.5-2.3-3.1-1.6-4.7-0.7c0.5,1.2,1.6,0.8,2.7,0.8l-0.6-0.6L153.2,183.6z M136,158.6l0.1,0.4c2.6,0,5.1-0.9,7.1-2.5L136,158.6z
	 M159.7,192.9l0.1-0.3l-2.4-1l0.4-0.2l-3.8-0.7C155.6,192.2,157.6,193,159.7,192.9L159.7,192.9z M206.6,120.3
	c-0.3,0.2-0.9,0.4-0.9,0.7c-0.1,1-0.9,1.1-1.6,1.6c-0.5,0.5-0.9,1-1.2,1.6C206.2,122.9,207.2,121.7,206.6,120.3L206.6,120.3z
	 M232.1,146.5l-0.3-0.4c-2.4,0.4-3.5,2.6-5.3,3.7l0.2,0.3L232.1,146.5z M197.6,130l0.3,0.1l1-2.3l0.2,0.1l-0.1,1.1l0.4,0.1l0.9-2.2
	l-2.8,0.6c-0.1,0.4-0.1,0.7-0.2,1.1C197.5,129.1,197.5,129.6,197.6,130z M101.3,118c-0.1-0.1-0.6-0.7-0.7-0.6
	c-0.7,0.5-1.4,1-2.1,1.6c0.4,0.2,0.8,0.7,1.1,0.6C100.3,119.5,101.5,119.8,101.3,118L101.3,118z M177.3,173l-0.2-0.3l-4,3.3
	C174.6,176.6,175.9,175.6,177.3,173z M168,167.1l-0.3-0.4l-4.9,3.9l0.2,0.2C164.7,169.6,166.9,169.2,168,167.1L168,167.1z
	 M142.6,179.1l0.2-0.4l-4.9-2.2l-0.2,0.4C138.8,178.6,141,178.3,142.6,179.1L142.6,179.1z M156.9,186.7c-1.5-1.3-3.2-1-5-1.2
	C153.3,187.3,155.1,186.7,156.9,186.7L156.9,186.7z M166,184.7L166,185l2.4,0.3v0.2l-1,0.2v0.4l2.1,0.4l0.1-0.3l-0.8-1h2.1v-0.4
	L166,184.7z M183,179.9l-3.8,0.4C180.3,181.6,182,181.4,183,179.9L183,179.9z M140.7,176h4.3c-1.1-1.2-2.9-1.3-4.1-0.2
	C140.8,175.8,140.8,175.9,140.7,176z M180.7,142.8l-0.2-0.2l-3.6,4.1l0.2,0.4c0.3-0.1,0.8-0.2,0.9-0.4
	C178.9,145.4,179.8,144.1,180.7,142.8L180.7,142.8z M129.2,146.8l-0.1-0.4c-1.8-0.2-3.2,0.9-4.8,1.5l0.1,0.3L129.2,146.8z
	 M175.4,179.9c0.7,0.5,0.7,0.5-0.5,1.4h3.8l0.1-0.2l-2-0.8l0.5-0.3l-0.1-0.2L175.4,179.9z M201.4,123.8l-3.2,2.5
	C200.1,126.6,201.1,125.6,201.4,123.8L201.4,123.8z M131.8,167.8l1.8-1.3l-3.9-0.4c0.3,0.3,0.3,0.5,0.5,0.6
	C130.6,167.1,131.2,167.4,131.8,167.8z M94.7,111.1l-1.7-0.6l0.4,3C94.8,113,94.4,111.9,94.7,111.1z M119.3,179.8l0.2-0.2l-2.9-4.6
	C116.9,176.9,117.8,178.6,119.3,179.8z M209.9,158l0.3,0.3c2.3-0.9,3.2-1.9,3-3.1L209.9,158z M170.8,200.8l0.1-0.6l-4.6-1.2
	l-0.1,0.5L170.8,200.8z M235.9,141.6l-3.8,3.3l0.2,0.2C233.9,144.5,235.2,143.2,235.9,141.6L235.9,141.6z M221.6,110.6
	c-1.5,0.5-2.2,2.2-1.7,3.6c0,0.1,0.1,0.1,0.1,0.2C220.5,113.1,221.1,111.8,221.6,110.6L221.6,110.6z M166.1,197.1
	c1.7,1,3.9,1.5,4.3,1.1C169.1,197.5,167.9,196.6,166.1,197.1L166.1,197.1z M212.4,174.6v0.4l3.9,0.5v-0.4
	C215.1,174.4,213.7,174.2,212.4,174.6L212.4,174.6z M150.3,180.9c-2-1.9-2.3-1.9-3.9-0.8L150.3,180.9z M151.7,186.6
	c-1-1.2-1.9-1.5-3.7-1.2C149.3,186,150.2,187.1,151.7,186.6L151.7,186.6z M138.5,166.3l-0.1-0.5l-5.2,1.3l0.1,0.4L138.5,166.3z
	 M119.4,167.2c0.1,1.7,1.3,3.1,2.9,3.5L119.4,167.2z M153.7,181.6c-0.8-1.7-2.1-1.7-3.3-2.1C151,181.1,152.5,180.9,153.7,181.6
	L153.7,181.6z M177.1,187.5l0.1-0.4l-3.8-0.3C175,188.1,175.6,188.2,177.1,187.5L177.1,187.5z M113.2,180.7h0.3
	c0.1-1.8-0.7-3.3-1.2-4.9l-0.3,0.1L113.2,180.7z M204.9,180.5l0.1-0.5l-3.9-0.7l-0.1,0.6L204.9,180.5z M143.6,178.2
	c0.9,1.6,1.6,1.8,3.2,0.6L143.6,178.2z M186.9,178.8v0.5c1,0.9,2.1,0.4,3.2,0.1V179L186.9,178.8z M162.6,196.6l-0.2,0.3
	c1.9,1.5,2.4,1.7,4,1.4L162.6,196.6z M169.4,190.2v-0.6h-3.7v0.4L169.4,190.2z M175.1,194.8c1.6,1.1,2,0.9,2.7-1L175.1,194.8z
	 M160.6,185.6l5.2,0.6v-0.3C164.2,185.3,162.4,185.2,160.6,185.6L160.6,185.6z M205.5,124.1c-1.9,0.3-2.8,1.2-2.8,2.6L205.5,124.1z
	 M133.1,168.3c1.1,1.1,1.2,1,3.5-0.7L133.1,168.3z M196.1,133.9l-0.2-0.2c-0.5,0.2-1.1,0.4-1.5,0.7c-0.3,0.2-0.3,0.7-0.5,1.1
	c0.4-0.1,0.9-0.1,1.2-0.3C195.5,134.8,195.9,134.4,196.1,133.9L196.1,133.9z M203.8,166.6c1.9-0.4,2.7-2,3.9-3.2L203.8,166.6z
	 M201.8,128.4l0.4,0.4l2.7-2.3l-0.3-0.4L201.8,128.4z M183.4,182.7l-0.1,0.4c0.5,0.2,1.1,0.3,1.6,0.4c0.4,0,0.8-0.5,1.1-0.7
	l-0.2-0.4L183.4,182.7z M114.7,134.3l0.1-0.5l-5.3-0.4v0.3L114.7,134.3z M223.2,113.5c1.1-0.2,1.4-1.7,0.5-3L223.2,113.5z
	 M219.2,117.4c1.8-0.1,2.4-0.6,2.4-2.1L219.2,117.4z M131.2,165.3c2.2,0.3,3.3,0,4.5-1.1L131.2,165.3z M156.6,183.6v0.4h4.5v-0.4
	H156.6z M115.3,144.8l2.8,1.5C117.8,145,117.8,145,115.3,144.8z M160,182.4c-1.1-1.5-1.6-1.6-2.7-0.6L160,182.4z M146.7,177.9
	c-1.1-1.6-1.1-1.6-3-1L146.7,177.9z M145.5,159.1l0.2,0.4l4.3-2.5l-0.1-0.3L145.5,159.1z M194.6,166.8l0.2,0.3l3.1-2.6
	C196.2,164.4,195.9,166.2,194.6,166.8L194.6,166.8z M218.9,113l-0.6,3.8C219.3,115.9,219.4,115.6,218.9,113z M107.3,163.5l-0.2,0.1
	l1,3.8l0.4-0.1L107.3,163.5z M144.5,195.3l-0.2,0.3c0.5,0.4,1,0.8,1.5,1.1s1,0.6,1.5,1l0.2-0.3L144.5,195.3z M176,182.9l2.5,1
	C178.1,182.6,177,182.7,176,182.9z M189.5,177.7c0.8,0.7,1.8,0.2,2.7,0.1C191.4,176.4,190.3,177.8,189.5,177.7L189.5,177.7z
	 M162.6,188l2.7,0.6l0.1-0.2l-2.1-1.2L162.6,188z M136.9,177.3l0.4-0.6l-2.5-1.2l-0.2,0.4L136.9,177.3z M192.9,176.6v0.6l2.5-0.3
	l-0.1-0.5L192.9,176.6z M178,179.2v0.5l2.7-0.3l-0.1-0.5L178,179.2z M220.7,114.7c1.2-0.2,1.5-1.2,0.9-2.4L220.7,114.7z
	 M171.1,185.5c0.7,1.2,1.7,0.6,2.6,0.8l0.1-0.5L171.1,185.5z M152.6,190l0.1-0.4c-1.2-0.8-1.8-1-2.5-0.4L152.6,190z M186.9,183.1
	l0.2,0.6l2.1-0.5c-0.2-0.3-0.4-0.7-0.5-0.7C188.1,182.7,187.5,182.9,186.9,183.1L186.9,183.1z M120.9,154.4V154l-4-0.4v0.3
	L120.9,154.4z M182.5,183.9l0.1-0.5l-2.6-0.7l-0.1,0.4L182.5,183.9z M105.8,129.5l0.2-0.2l-0.8-1.7l-0.9,1.1L105.8,129.5z
	 M122.8,177.3l-0.4,0.3l1.7,2.2l0.3-0.2L122.8,177.3z M164.7,187.1l-0.1,0.2h3.1v-0.2H164.7z"/>
<path class="st1" d="M84.4,138.5l-1.8-0.4c-0.6,2.5-0.2,5.1,1.1,7.2c-3-0.8-2.9-3.5-4.1-5.6l-0.4,2.9c-0.5-1.2-0.7-2.6-0.3-3.9
	c0.2-0.7,0.3-1.5,0.4-2.2c0-0.3-0.1-0.6-0.2-0.9l5.3-8.9l-0.9-0.2c0-0.2,0.1-0.4,0.2-0.6c1.3-1.5,1.1-3.8-0.5-5.1
	c-0.1-0.1-0.2-0.1-0.3-0.2c-0.4-0.2-0.9-0.3-1.4-0.2c-1.6,0.1-1.7,0.1-2.3-1.6c-0.2-0.6-0.5-1.2-0.8-1.7c0-0.1,0-0.2,0.1-0.6
	c1.3,1.5,2.1,3.5,4.6,2.6c-1.4-1.4-3.2-2.5-3.2-4.8l0.5,0.8c-0.2-2-0.6-3.9,0.1-5.8h0.3c0,1.3,0.1,2.6,0.4,3.9
	c0.5,1.3,1.1,2.6,1.8,3.8l-2.1-1.7l-0.3,0.3c1,0.9,1.9,1.9,2.9,2.8c0.2,0.1,0.7-0.1,1-0.2l1.6-0.5c-1.3,2.6,1.2,2.4,2.2,3.6l-2-0.5
	l-0.4,6.9l1.7-0.9l0.2,2.1l2.3-0.4v-0.4l0.2-0.1l1.7,3.7l-0.3,0.2l-0.9-0.7l0.8,2.3l0.2-0.1l0.3-1.8h0.4l0.3,1.4l0.3,0.1
	c0.2-0.8,0.5-1.5,0.7-2.3s0.3-1.4,0.4-2.2c0.1-0.2,0.2-0.3,0.4-0.3c0.1,0,0.3,0.2,0.3,0.3c-0.1,1.6-0.2,3.3-0.2,4.9
	c0,0-0.1,0.1-0.2,0.1l-0.3-1.5c-0.3,0.6-0.6,0.8-0.7,1.1c-0.5,3,0,6,1.4,8.7c0.6,1.5,1.1,3,1.4,4.6c0.6,2.7,1,5.4,1.5,8.1
	c0,0.1,0,0.3,0,0.4l-0.7-0.1v1.8l-0.7,0.3c0.1-3.2-1.4-6.1-3.1-9.1l-0.4,1.1c-0.5-2.2-1-4.5-1.6-6.8c-0.2-0.6-0.7-1.2-0.8-1.9
	c-0.2-0.8-0.2-1.6-0.2-2.4c0-3,0-6,0-8.9c-1.2-0.3-1.5,0.5-1.6,1.1c-0.3,2.6-0.5,5.2-0.7,7.8c0,0.6-0.1,1.2-0.4,1.8l-0.5-6.6
	c-1.3,1.6-2.3,3.2-1.2,5.4c0.5,1.3,0.9,2.6,1.2,3.9l-0.3,0.1l-0.6-1l-0.3,0.1c0.3,0.9,0.7,1.7,1.1,2.5c0.6,1.3,1.3,2.6,2,3.9
	c1.9,3.9,2.3,8.1,3.1,12.2c0.1,0.8,0.2,1.6,0.2,2.4c-1.5,0.1-0.6-1.6-1.5-1.9c-0.5,2.1-0.4,4.4-2.3,6.1c0.3-1.1,0.5-2.1,0.8-3.2
	c1-2.7,0.8-5.6-0.4-8.1c-1.9-3.8-3.1-8-3.5-12.2C85,141.7,84.7,140,84.4,138.5z M89.2,155.6l0.3-0.1c0.4-3.4-1.3-6.3-2.6-9.2
	l-0.5,0.1L89.2,155.6z M86.4,128.4l-2.7,3.9l0.4,0.3l3.2-3.1L86.4,128.4z M95.3,148.2c0.3,2.1,0.7,4.1,1,6.3
	C97.1,153.7,96.9,152.5,95.3,148.2L95.3,148.2z M81.1,139.6l0.6,0.1l0.3-2.8l-0.6-0.1L81.1,139.6z"/>
<path class="st1" d="M234.7,150.7l-0.7,1.7c2-0.6,3.8-1,5.6-1.7c1-0.4,2.1-3.2,2-4.3c0-0.4,0.1-0.8,0.2-1.1l0.4,0.1l-1,4.8l4.5-1.5
	l0.1,0.3c-1.5,0.6-3.1,1.2-4.6,1.9c-2.6,1.3-5.5,1.7-8.3,2.6c-1.3,0.5-2.5,1.2-3.6,2.1c-0.9,0.8-1.6,1.6-2.3,2.5l-0.3-0.3l2-2.6
	l-1.3,0.6l-0.5-0.5l1.1-0.3l-0.1-0.2h-0.6L234.7,150.7z"/>
<path class="st1" d="M108.9,128.5l3.4-0.4c0.8-0.1,1.6,0.1,2.2-0.8c0.2-0.3,1-0.2,1.6-0.2c2.9,0.4,5.8,0.6,8.6-0.6
	c1.8-0.8,3.6-1.6,5.1-2.2c-1.6,1.6-4.4,3.8-11.9,3.9l3.6,1c1.1,0.3,2.1,0.6,3.2,1.1c-5.2-1.1-10.3-2.5-15.6-1.4L108.9,128.5z"/>
<path class="st1" d="M245.4,155.5c-7.2,2.2-14.1,5.4-21.8,5.6c0-0.2,0.1-0.3,0.1-0.4c0.1-0.1,0.2-0.2,0.3-0.2
	C231.5,160.4,238.1,156.3,245.4,155.5z"/>
<path class="st1" d="M222.1,158.1l-8,1.4L214,159c0.6-0.3,1.3-0.5,2-0.6c2.5-0.3,4.4-1.6,6.4-3s4.1-2.5,6.1-3.7
	c0.1-0.1,0.3,0,0.5,0.2l-9.4,5.9c0.6,0,1,0.1,1.3,0c0.4,0,0.8-0.1,1.1-0.2L222.1,158.1z"/>
<path class="st1" d="M96.8,132.5c1.1,1.2,2.8,5.3,2.9,7.6c-0.6-0.9-1-1.9-1.2-3c-0.4-1.1-0.9-2.2-1.3-3.4c-0.5,1.2-0.2,2.6,0.6,3.6
	c0.2,0.2,0.5,0.4,0.5,0.7c0,0.5-0.2,1-0.2,1.5c0.1,0.6,0.2,1.2,0.3,1.7C96.4,138.2,95.7,133.4,96.8,132.5z"/>
<path class="st1" d="M101.2,164.5c0.9,3.7,2.3,7.4,1.7,11.3C102.4,172,101,168.4,101.2,164.5z"/>
<path class="st1" d="M233.5,113.3c0.3-0.2,0.6-0.5,0.9-0.7c0.7-0.4,1.1-0.2,1.1,0.6c0,0.9-0.1,1.8-0.2,2.7c-0.4,2.1-1,4.2-1.5,6.3
	c-0.2,0.8-0.3,1.5-0.5,2.2l-0.4-0.1c0.7-3.7,1.3-7.4,2-11.2l-1.2,0.4L233.5,113.3z"/>
<path class="st1" d="M213.2,188.6l16.2,2.6C227.2,191.6,214.4,189.6,213.2,188.6z"/>
<path class="st1" d="M132,198.7l0.8-0.7c0.1,0.2,0.3,0.3,0.3,0.5c0.5,1.8,2,2.7,3.3,3.9s2.5,2.2,3.8,3.4c0,0,0,0.1,0,0.2
	C138.8,205.8,134.7,201.6,132,198.7z"/>
<path class="st1" d="M236.5,123.4c-0.5-2.3-0.7-4.6-0.5-6.9h0.5V123.4z"/>
<path class="st1" d="M81.8,111c0.8,3.7,0.8,3.7,2.2,5l-0.2,0.3c-0.5-0.3-1.1-0.6-1.5-1C81.5,114,81.3,112.4,81.8,111z"/>
<path class="st1" d="M239.8,147.7c-0.4-1.5,0.1-3.5,0.8-4.1l-0.6,2.8l0.8-0.6l0.2,0.1L239.8,147.7z"/>
<path class="st1" d="M93.3,122.3l3.7,0.8C95.6,123.5,94.3,123.6,93.3,122.3z"/>
<path class="st1" d="M197.2,123.5l3.6-1.9l0.2,0.3l-3.5,2L197.2,123.5z"/>
<path class="st1" d="M227.1,155.8l-4.4,1.9l-0.1-0.3l4.3-2L227.1,155.8z"/>
<path class="st1" d="M237,116v-3.5h0.3v3.5H237z"/>
<path class="st1" d="M89.2,121.6l1.3,3.1l-0.2,0.1l-1.5-2.9L89.2,121.6z"/>
<path class="st0" d="M202,162c1.7-4,3.7-7.4,5.1-11l-0.4-0.2c-0.2,0.4-0.5,0.8-0.7,1.1c-1.5,2.9-2.9,5.9-4.4,8.8
	c-0.6,1-1.4,1.8-2.3,2.6c-0.2,0.2-0.7,0.2-1.4,0.4c6.5-9.6,8.9-20.4,12.5-30.7l-0.3-0.1c-0.6,1.4-1.2,2.9-1.7,4.4
	c-1,2.7-1.9,5.4-2.8,8.2c-0.6,1.8-1.1,3.7-1.8,5.5c-1.7,4.5-4,8.7-6.8,12.6c0,0.1-0.1,0.1-0.2,0.1c-1.9,1.1-2.7,3.3-4.5,4.6
	c-1,0.6-2,1-3,1.4c-0.2,0.1-0.4,0.2-0.6,0.3l0.1,0.3l2.3-0.6c-2.2,1.9-3.1,4.9-6.7,4.7c2.1-3.9,5.7-6.5,8.1-10.2l-1.5,0.7
	c1.5-2.5,2.9-4.8,4.2-7.1c0.8-1.6,1.4-3.2,2-4.9c0.4-1,0.8-2,1.2-2.9c0.7-1.6,1.4-3.1,2.1-4.7c1.1-2.4,2.2-4.9,3.2-7.3
	c0.7-1.7,1.3-3.5,1.7-5.4c-3.6,8.6-7.3,17.2-11.5,25.6c1.3-3.8,2.6-7.5,3.9-11.3l-0.3-0.2c-0.3,0.3-0.5,0.7-0.7,1.1
	c-1,2.6-1.8,5.2-2.8,7.8c-1.5,3.6-3.1,7.2-4.9,10.6c-0.9,1.6-2.5,2.8-3.8,4.2c-0.2,0.1-0.3,0.3-0.4,0.5c-0.5,1.3-0.9,2.5-1.3,3.8
	c-0.2,0.3-0.4,0.5-0.8,0.6c-2.4,0.8-4.8,1.5-7.2,2.2c-0.3,0.1-0.6,0-0.9-0.2c0.4-0.5,0.9-0.9,1.5-1.2c1.2-0.6,2.5-1,3.7-1.5
	c0,0,0.1,0,0.1,0l2.1-2l-0.9,0.1c0-0.1,0-0.1,0-0.2c1.7-2.4,3.4-4.8,5.1-7.3c0.2-0.3,0.5-0.7,0.4-1c-0.2-1,0.3-1,0.8-0.9
	c0.2-0.6,0.1-1.4,0.5-1.8s1.2-0.2,2-0.4c0.1-0.4,0.1-0.4-1.6-0.6c0.3-0.6,0.6-1.1,0.9-1.7c2.1-2.9,3.1-6.3,4.5-9.5
	c1-2.2,2.1-4.3,3-6.5s1.9-4.7,2.8-7.1c0.5-1.3,0.9-2.6,1.2-4c0.3-1.2,1.3-2.2,2.5-2.4l-4.2,10l0.4,0.2c0.1-0.2,0.3-0.4,0.4-0.6
	c0.3-0.3,0.5-0.5,0.7-0.8c0.4-0.6,0.7-1.3,1-2c1.1-2.7,2.1-5.5,3.4-8.1c0.5-0.9,1.7-1.5,2.6-2.2c0.4-0.3,0.9-0.6,1.7-1.1
	c-0.4,1.8-0.7,3.3-1.2,4.8c-0.9,2.9-1.8,5.8-3,8.6c-1.3,3-2.9,6-4.2,9c-0.2,0.4,0.1,0.9,0,1.4c-0.4,1.4-0.9,2.9-1.5,4.2
	c-0.8,1.8-1.7,3.6-2.6,5.4c-1.4,2.7-2.9,5.4-4.4,8.1l0.4,0.3c0.5-0.8,1.1-1.6,1.5-2.4c1.9-3.6,3.9-7.2,5.7-11
	c1.3-2.8,2.2-5.8,3.4-8.6c1-2.4,2.3-4.8,3.3-7.3c1-2.6,1.8-5.4,2.5-8.1c0.5-1.7,0.8-3.4,1.2-5.2c0.1-0.3,0.2-0.5,0.5-0.7
	c0.8-0.6,1.6-1.1,2.5-1.5c-0.2,1.5,0,3.3-0.8,4.5s0.2,2.4-0.6,3.5l0.4,0.1l0.6-1.8c0.6-1.9,1.3-3.9,1.9-5.8c0-0.2,0-0.3,0-0.5
	c-0.3-1.4,0.6-2.2,1.7-3c-0.5,3.1-1,6.1-1.4,9.1c-0.4,3-2.1,5.6-3.1,8.5s-2.2,5.7-3.3,8.6c-0.4,1-0.8,1.9-1.2,2.9l0.4,0.2
	c1.3-2.9,2.6-5.8,3.9-8.8l0.7,0.1c-0.1-0.5-0.1-0.9-0.1-1.4c1.1-2.8,2.1-5.6,3.3-8.3c0.2-0.5,0.6-0.9,1.1-1.2l-1,3.6l0.1,0.1
	c0.2-0.3,0.4-0.6,0.6-0.9c0.4-1,0.8-2,1.2-3c0.1-0.3-0.1-0.6-0.1-0.9c0-0.2,0.1-0.5,0.2-0.7c0.1-0.4,0-0.9,0.2-1.1
	c1.3-1.1,2.6-2.1,3.9-3.1c0.7-0.4,1.4-0.7,2.1-0.9l0.2,1.4l0.8-2.2l0.3,0.1c-0.2,1.4-0.4,2.9-0.8,4.3c-1,3.9-1.9,7.9-3.1,11.7
	c-0.8,2.5-1.9,4.9-3.3,7.2c-0.5,0.8-0.8,1.6-1.4,2.3c-0.8,1.1-1.7,2.1-2.6,3c-0.6,0.7-1.4,1.3-2.1,1.8c4.1-7,5.6-15,9.4-22.1
	l-0.4-0.2c-0.5,1-1.1,2-1.5,3c-1.4,3.4-3,6.7-4.1,10.2c-1.4,4.6-3.9,8.6-6.4,12.6c-0.5,0.9-0.9,1.8-1.4,2.7c-0.7,1.5-2,2.7-3.5,3.4
	C203.7,160.9,202.8,161.4,202,162z M204.5,158.5l0.4,0.2c2-1.8,7.1-13.9,6.6-16.1c-1,2.9-1.8,5.6-2.9,8.2S205.9,156,204.5,158.5
	L204.5,158.5z"/>
<path class="st0" d="M187,155.8c-0.4,1.3-2,2.2-1.5,3.9c0,0.1-0.5,0.3-0.8,0.5c0.4,0.7,0.2,1.5-0.5,1.9c-0.1,0.1-0.2,0.1-0.3,0.1
	c-0.2,0.1-0.2,0.6-0.4,0.9c-1.1,1.5-2.2,3-3.4,4.4c-0.5,0.4-1.1,0.8-1.7,1l1,0.1c-0.8,1.6-2,3-3.5,4c-2.4,1.9-4.9,3.9-7.4,5.7
	c-0.8,0.6-1.8,1.1-2.9,1.2c-1.8,0.3-3.7,0.2-5.6,0.3c-1.5,0.1-2.9-0.6-3.8-1.7c0-0.1-0.1-0.2-0.1-0.2c-0.2,0.1-0.5,0.1-0.7,0.2
	l0.5,1l-4.3-1c2.5-1.5,5-3.1,7.6-4.6c3.4-2,6.8-3.9,10.1-5.8c0.2-0.2,0.4-0.3,0.5-0.5l2.7-1.7h-0.1l1-0.3c-0.3,1.1-3.7,4.5-7.4,7
	c-2.8,2-6,3.5-9.4,4.3l0.4,1.1l19.9-8.1l-0.1-0.4l-9.4,3.6l-0.2-0.3c1.9-1.5,3.8-3,5.6-4.6c0.8-0.7,1.4-1.6,2.1-2.4
	c0.5-0.5,0.6-1.7,1.7-1.1c0,0,0.2-0.2,0.3-0.3c1-1.4,2.1-2.7,3-4.1c0.3-0.5,0.2-1.2,0.5-1.7c0.8-1.4,1.8-2.6,2.4-4
	c1.3-2.7,2.6-5.4,3.7-8.1c0.6-1.7,1-3.5,1.4-5.2c0.2-0.8,0.4-1.6,0.7-2.4c0.2-0.4,0.5-0.8,0.9-1c0.9-0.3,1.8-0.5,2.7-0.7
	c0.1,1.4-0.4,2.7-1.3,3.8c-0.1,0.1-0.5-0.1-1.2-0.2l1.4,1.1l-0.3,2.4l0,0c-0.2,0.2-0.3,0.4-0.5,0.7c-1.1,3-2.1,6-3.1,9
	c-0.2,0.8-0.4,1.6-0.5,2.4L187,155.8z"/>
<path class="st0" d="M220.5,150.5c3-3.6,5-7.8,8.7-10.8c-0.4,1.8-2,2.8-3,4.1c0.6,0.1,1.2-0.2,2-1.2c2.4-3.1,4.9-6.2,7.3-9.2
	c0.6-0.7,1.4-1.3,2.2-1.7c-0.2,0.6-0.4,1.1-0.6,1.7c-0.8,1.5-1,3.3-0.6,4.9c0.1,0.4-0.1,0.7-0.3,1c-1.4,1.3-2.9,2.6-4.3,3.9
	c-0.6,0.4-1.1,0.9-1.5,1.4c-0.2,0.3-1.2,0.6-0.4,1.3c-0.1,0.2-0.2,0.3-0.3,0.4c-2,1.7-4,3.4-6,5.1c-1.9,1.8-4.2,3.1-6.8,3.8l0.6-0.4
	c0-0.4,0.1-0.9,0.3-1.3c0.6-1,1.1-2,1.6-3c-2,1.8-2.9,4.6-5.7,5.7l2.8-5.9l0.4,0.2l-1.3,2.5c1.9-1.7,3.2-3.9,3.9-6.4
	c1.1-3.7,2.9-7.1,5.2-10.2c1.9-2.5,2.4-5.4,3.6-8c0.7-1.3,1.5-2.5,2.3-3.6c-1.9,7.3-4.3,14-8.5,20l0.5,0.3l3.2-3.8l0.3,0.2l-5.7,8.7
	L220.5,150.5z M233.3,140.4l-10.1,7.8C224.3,148.3,233.1,141.7,233.3,140.4z"/>
<path class="st0" d="M138.3,165.1c7.1-3.4,13.3-8.3,19.9-12.7l-0.2-0.3l-1.8,1.1l-0.2-0.3c0.4-0.4,0.7-0.7,1.1-1.1
	c1.7-1.5,3.3-2.9,5-4.4c0.5-0.4,1.8-0.3,1.2-1.6c0.1-0.1,0.2-0.1,0.3-0.2c1.6-0.8,3.2-1.6,4.8-2.2c-0.5,0.4-1,0.8-1.5,1.2
	c-0.3,0.4-1.2,0.6-0.5,1.4c0.1,0-0.3,0.5-0.5,0.8c-0.4,0.5-0.8,1.1-1.1,1.7c1.9-0.9,2.5-3.3,5-4c-3.8,7.2-9.4,11.9-16.1,15.7
	c0.6-0.6,1.1-1.2,1.7-1.8c0.1-0.1,0-0.2,0-0.1C150,160.9,145.1,165.2,138.3,165.1z M155.7,157.6l0.3,0.3l3.5-4.1l-0.3-0.2
	L155.7,157.6z"/>
<path class="st0" d="M149.5,145.4l1.1-0.2l0.2,0.2c-1.1,1.2-2.1,2.4-3.1,3.6c-1.9,2.1-4.3,3.7-7,4.7c-3.7,1.6-7.6,2.9-11.4,4.3
	c-0.7,0.1-1.5,0.1-2.2-0.1v-0.4l3.4-0.7v-0.1c-1.9,0.1-3.9,0.6-5.8,0.3s-3.7-1.4-5.9-2.2l14.3-0.7c-1.1,1.1-2.6,1.1-3.9,1.5
	c-0.9,0.2-1.7,0.3-2.6,0.3c-0.3,0.1-0.5,0.2-0.8,0.3l0.1,0.5c1.5-0.1,2.9-0.3,4.3-0.6c1.4-0.4,2.6-1.2,4-1.8s3-1.1,4.5-1.6
	s3-1,4.5-1.4l-0.1-0.3l-3.9,0.8l-0.2-0.4c2.8-1.8,5.6-3.9,8.2-6c2.5-2.4,5.1-4.5,7.9-6.5c-0.7,1.2-1.5,2.4-2.3,3.6
	C151.9,143.5,150.7,144.5,149.5,145.4z"/>
<path class="st0" d="M117.9,168.3l-0.6-0.2c1.5,2.4,3,4.8,4.4,7.2c-1.3-0.1-1.3-0.1-2.6-2.4c-0.6-1.1-1.3-2.1-2.2-3.1l-0.3,1.2
	l-0.9-1.5l-1,0.3l3.7,4.7c-1.1,0-0.9-0.1-1.7-1.2c-0.8-0.9-1.7-1.7-2.6-2.4c-0.3-0.3-0.6-0.6-0.8-1c-0.8-2.1-1.6-4.2-2.7-6.3
	c-0.7-1-1.3-2.1-1.7-3.2c-0.4-1.3-0.9-2.7-1.3-4l6.6,11.1c0.7-0.9,0.6-2.2-0.1-3.1c-2-2.9-4-5.7-5.8-8.6c-1.4-2.3-2.6-4.7-3.8-7
	c-0.2-0.3-0.6-0.4-0.7-0.6c-0.4-0.6-0.8-1.2-1.1-1.9c-0.5-1.6-0.9-3.3-1.2-5c3.2,3.1,5.2,7,7.4,10.7l-0.3,0.2l-3.1-5.3l-0.3,0.2
	c1.3,2.5,2.4,5.1,3.8,7.5c1.5,2.6,3.6,4.8,4.8,7.6c0.2,0.6,0.9,1,1.4,1.5C116.6,164.9,117.5,166.5,117.9,168.3z"/>
<path class="st0" d="M112.8,153.3l9.7,4c-2.4,1-4.5-0.3-6.6-0.9l-0.1,0.4c0.6,0.2,1.1,0.6,1.6,1c1.6,2.1,3.9,1.3,5.9,1.4
	c0.8,0,1.5,0.1,2.3,0.2c-1.3,0.8-2.9,1.1-4.4,0.6l1.2,0.8l-3.6,0.8v0.3c4.1-1.4,8,0.4,12.1,0.5c-0.4,0.2-0.7,0.4-1.1,0.7
	s-1.6-0.1-1.3,1.1c-0.4,0.1-0.9,0.1-1.3,0c-1.5-0.4-3-0.9-4.5-1.2c-0.4-0.1-0.9,0.3-1.4,0.4l1,1.9l-0.3,0.3l-2.2-2l-0.3,0.3l8.9,8.2
	l-0.3,0.3c-1.5-1.2-3.1-2.3-4.5-3.5s-3-2.6-4.4-4c-1.5-1.3-2.8-2.8-3.8-4.6l0.4-0.4l3.1,3.9l0.5-0.4c-0.2-0.4-0.4-0.7-0.7-1
	c-1.6-1.6-3.2-3.2-4.8-4.7c-0.9-1-1.4-2.3-1.4-3.6C112.6,153.9,112.7,153.6,112.8,153.3z"/>
<path class="st0" d="M224.2,173.4c-1.9,0.9-3.7,1.4-5.8,0.5c-0.7-0.2-1.3-0.3-2-0.3c-2.3-0.3-4.7-0.7-7-1c-0.8,0-1.6,0.1-2.4,0.2
	c-0.4,0-0.7-0.1-1-0.4l1.1-0.3l-0.1-0.4l-3.2,0.9v0.2l5.4,1v0.3l-3.9-0.4l-0.1,0.2l1.1,0.6l-0.2,0.6c0.2,0,0.4,0.1,0.6,0.1
	c0.5-0.1,1-0.2,1.5-0.1l-2.4,0.7l0.3,0.6l-0.7-0.1c-0.4-0.1-0.8-0.2-1-0.1c-1.1,0.5-2-0.1-2.9-0.6c-0.3-0.1-0.7-0.2-1.1-0.3
	c0.4-1.1,1.2-1.2,2.2-1.2l-3-1.2c0.5-1.5,1.7-0.2,2.4-0.7c-0.9-0.7-1-1.3-0.1-2.2c1.2-1.2,3-1.7,4.6-1.3c1.5,0.3,3.1,0.6,4.6,0.9
	c0.4,0.1,0.7,0.3,1.1,0.4c1.1,0.2,2.4,0.4,3.7,0.7c0.5,0.1,0.9,0.4,1.3,0.7c1.2,0.9,2.6,1.3,4.1,1.3l3,0.1L224.2,173.4z"/>
<path class="st0" d="M169.8,167.2l-1.7,0.5c1.6-2.7,4.1-4.4,6-6.7l-1.2,0.7l-0.1-0.1c0.5-0.8,1-1.7,1.5-2.5c1.4-1.9,2.8-3.8,4.2-5.8
	c0.9-1.3,1.7-2.6,2.6-3.9c0.4-0.5,0.9-1,1.4-1.4c0.3-0.4,1.3-0.5,0.5-1.3c-0.1-0.1,0.2-0.5,0.4-0.7c1.3-2.3,2.7-4.6,4.1-6.9
	c0.1-0.3,0.4-0.6,0.6-0.8c-1.1,2.2-0.1,5.3-3,6.8l0.3,0.2l0.9-0.5c0,0.3-0.1,0.6-0.2,0.9c-2.6,4.2-5.2,8.5-7.8,12.7
	c-1,1.6-1.8,3.2-2.8,4.7c-0.6,0.7-1.3,1.2-2.1,1.7c-0.3,0.2-0.6,0.5-0.9,0.8h0.1L169.8,167.2z"/>
<path class="st0" d="M151.3,140.2c-1.1,1.1-2.2,2.3-3.4,3.3c-1.5,1.3-3.2,2.5-4.8,3.7s-3.4,2.5-5.2,3.7c-0.4,0.3-0.8,0.8-1.2,0.8
	c-1.7,0.1-3.3,0.1-5-0.1c3-1.1,6.3-1,8.9-3.2c-4.2,1.4-8.4,2.6-13,0.9l1.8-0.6l5-1.7c0.1,0,0.2-0.1,0.3-0.1
	c3.6-1.2,6.8-3.3,10.3-4.7c0.5-0.2,0.9-0.3,1.4-0.3c0.2-0.2,0.4-0.5,0.6-0.6c1.3-0.5,2.6-1,3.9-1.5L151.3,140.2z"/>
<path class="st0" d="M119.6,140.6c-0.4,2-1.2,2.6-3.6,2.6c-1.1-0.1-2.3-0.3-3.4-0.6c-0.3,0-0.9-0.8-0.9,0.3c-0.1,0-0.3,0-0.4,0
	c-0.5-0.2-1-0.5-1.7-0.8l0.8-0.5c-0.8-0.1-1.3-1.4-2.1,0l-0.9-0.5l0.9-0.4c-3.2-1.8-4.6-4.8-6.3-7.6c1.4,0.1,2.7,0.2,4.1,0.5
	c0.4,0.1,0.7,0.6,1,0.9l1.9,1.6h-1.7l-0.1,0.3c0.5,0.2,1,0.4,1.6,0.4c3.4-0.3,6.1,1.3,8.9,3.1h-7.9v0.5H119.6z"/>
<path class="st0" d="M152.9,137.8c-0.4,0.4-0.7,1-1.2,1.1c-2.5,0.8-5.1,1.5-7.6,2.2c-1.8,0.5-3.6,1-5.4,1.4
	c-2.3,0.5-4.6,0.6-6.9,1.3c-1.9,0.8-3.9,1.2-6,1.3c-2.2-0.1-4.4-0.4-6.7-0.6l-0.1-0.5c0.3-0.2,0.6-0.3,1-0.4
	c3.1-0.5,6.1-0.9,9.2-1.5c2.1-0.4,4.2-0.8,6.5-1.2l-0.3,0.8c0.2-0.1,0.4-0.1,0.6-0.2l4.2-1.8c0.1-0.1,0.4-0.2,0.4-0.1
	c1.7,1.4,3.5,0.2,5.1,0c2.3-0.5,4.5-1.1,6.8-1.8L152.9,137.8z"/>
<path class="st0" d="M148.8,196.3c-1.4-0.8-2.7-1.6-3.9-2.6c-2.8-2.6-5.4-5.4-8-8.2c1.5-0.1,3,0.4,4.1,1.3c1,1,2.1,2,3.3,2.8
	c1,0.6,2.3,0.9,3.4,1.4c2.7,1.5,5.4,3,8.4,4.7h-3.7v0.2l4,0.5l-0.7,2.1L148.8,196.3L148.8,196.3z M150.6,195.7l0.1-0.4l-3.2-1
	l-0.1,0.3L150.6,195.7z"/>
<path class="st0" d="M167,160.5c2-2,3.9-4,5.8-6.1c1.4-1.6,2.8-3.2,4.3-4.9c0.3,1.9-0.1,3.8-1.2,5.4c-1.2,2-2.5,3.8-3.6,5.8
	c-2.1,4.2-6,5.8-10.3,7.5l9.2-9l-4.3,2.2L167,160.5L167,160.5z"/>
<path class="st0" d="M148.5,167c0.8-0.4,1.5-0.8,2.2-1.3c2-1.4,4-2.8,6-4.3c0.8-0.6,1.4-1.3,2.1-1.9c0.6-0.2,1.2-0.4,1.8-0.5
	l-0.9-0.3c2-2.2,4.2-4.3,6-6.6c2-2.6,3.9-5.3,5.6-8.1c0.8-1.5,1.9-2.8,3.3-3.9c0.7-0.5,1.4-1.2,2.1-1.7l0.2,0.2l-1.8,2.6
	c-1.4,2-2.8,4-4.2,6c-1,1.4-2.2,2.8-3.2,4.1c-0.8,1.1-1.5,2.2-2.4,3.3c-0.3,0.4-0.7,0.7-1.1,1c-0.9,0.8-1.2,1.9-2.1,2.7
	c-0.9,0.8-1.7,1.7-2.5,2.6c-0.8,0.9-1.6,1.9-2.5,2.7c-1.1,1.1-2.4,1.9-3.9,2.4c-1.1,0.4-2.3,0.1-3.4,0.5c-0.4,0.2-0.8,0.4-1.2,0.6
	L148.5,167z"/>
<path class="st0" d="M198.4,135c-0.2,3.8-2,7.1-3.5,10.5c-1.3,2.9-2.4,5.8-3.6,8.7c-0.4,0.9-0.9,1.8-1.4,2.7c-1,1.7-2.1,3.3-3.1,5
	c-0.2,0.2-0.4,0.5-0.6,0.7c0.1,0.4,0.2,0.8,0.1,1c-0.8,1.6-1.7,3.1-2.8,4.5c-1.5,1.8-3.1,3.4-4.9,4.8c1.2-3.1,4.2-4.7,5.7-7.6
	l-2.9,2.9l-0.3-0.2c0.6-0.9,1.2-1.7,1.8-2.6c1-1.7,2.1-3.4,3.4-4.9c1.2-1.4,1.1-3.4,2.4-4.6c1.7-1.5,2-3.7,2.8-5.7
	c0.5-1.2,1-2.4,1.7-3.5c1.9-2.8,2.4-6.2,3.3-9.4c0.4-0.9,0.9-1.7,1.4-2.5L198.4,135z"/>
<path class="st0" d="M160.3,165.6l-0.9,1.1c1.6,0.1,1.5-1.5,2.5-2c0,0.1,0,0.2-0.1,0.3c-0.1,0.1-0.1,0.3-0.1,0.4l5-3.6l0.3,0.3
	c-0.6,0.6-1.1,1.3-1.8,1.9c-1.6,1.7-3.4,3.2-5.3,4.5c-2.2,1.1-4.5,2.1-6.8,2.9c-1.7,0.7-3.4,1.3-5.2,1.9c-1.1,0.4-2.3,0.7-3.5,0.9
	C149.7,171.2,154,166.8,160.3,165.6z"/>
<path class="st0" d="M140.7,159.4c0.2-0.2,0.3-0.4,0.5-0.5c1.3-0.9,2.6-1.6,4.1-2.1c1.5-0.4,2.3-1.8,3.7-2.2
	c0.5-0.2,1.1-0.5,1.5-0.9c1.4-0.9,2.9-1.8,4.4-2.6c0.4-0.1,0.8-0.2,1.2-0.2l-0.2-1.4l-0.7,0.9c-1.9-0.3-3.1,1.4-4.8,1.9l0.6-0.8
	c-2,0.6-3.4,2.6-5.7,2c0.3-0.5,0.5-1.4,1.7-1.2c0.4,0,0.8-0.6,1.2-0.9c1.1-0.6,2.2-1.1,3.3-1.6c0.2-0.1,0.5,0.1,1,0.3
	c1.3-1.4,3.5-1.2,5.4-1.9c0.1,0,0.2,0.2,0.3,0.3l-1.5,1.1l-0.5,0.3l0.9,1.1c-0.9,0.9-2.1,1.9-3.3,3c-0.4,0.4-1.4,0.5-1.5,0.9
	c-0.4,1.6-1.7,0.6-2.5,1.1c-0.9,0.6-1.8,1.1-2.8,1.6c-1,0.5-2,0.9-3.2,1.4c-0.2,1.4-1.9,1.1-2.8,1.8L140.7,159.4L140.7,159.4z"/>
<path class="st0" d="M228.5,111.6c0,0,0,0.1,0,0.1c1.7,1.7,0.6,3.8,0.6,5.6c-0.1,2.2-0.4,4.4-0.8,6.5c-0.4,1.5-0.8,3-1.3,4.5
	c-0.3,1.3-0.6,2.5-1.1,3.7c-1,2.1-2.1,4.2-3.4,6.1c0.8-3.1,1.4-6.2,2.4-9.3s1-6.4,2.5-9.3l-0.5-0.2c0-0.2-0.1-0.3,0-0.3
	c1-2,1.5-4.2,1.3-6.4C228.3,112.2,228.4,111.9,228.5,111.6L228.5,111.6z"/>
<path class="st0" d="M111.2,116.9l-2.2,1.5c-0.8-0.2-2,0.8-2.1,2.3l-2.1-0.2l2.1,1.9l1.1,0.1c-0.2,0.2-0.3,0.3-0.4,0.3
	c-1.7,0-1.5,1.4-1.9,2.4c-0.4,0.9-0.8,1.8-1.2,2.6l-0.4-0.2c0-0.5,0.1-1,0.1-1.5s0-1.1-0.8-1c-0.2,0-0.7-0.2-0.7-0.4
	c-0.2-1.6-0.4-3.2-0.6-4.8l2.5-0.5v-0.2c-0.5-0.1-0.9-0.1-1.4-0.1c-0.6,0-1.1,0.1-1.1-0.6c0-0.4,0.3-0.8,0.6-1
	c0.5-0.2,1.3-0.3,1.4,0.5C106.3,116.5,108.9,117.2,111.2,116.9z"/>
<path class="st0" d="M190.6,188.8l0.5-0.9l-0.2-0.1c-0.9,0.9-1.5,0-2.2-0.3c-1.2-0.6-2.4-1.2-3.6-2c2.6-0.5,5,0.5,7.4,0.8
	c-0.6-0.2-1.2-0.5-1.8-0.7s-1.3-0.3-2-0.5c2.1-1.2,4.1-0.9,7.4,1l-2.4,0.3l-0.1,0.4c0.4,0.1,0.9,0.4,1.2,0.2c1.7-1,3.1-0.4,4.8,0.8
	c-1.6,0.8-3,1.9-4.5,2.1S192.1,189.2,190.6,188.8z"/>
<path class="st0" d="M193.3,172c1.7-1.2,3.2-2.1,4.6-3.2c2.4-1.8,4.6-3.7,6.9-5.5s4.4-3.5,6.6-5.3l0.4,0.4c-0.3,0.7-0.8,1.3-1.2,1.9
	c-0.7,0.7-0.9,1.8-2.3,1.9c-0.8,0.1-1.5,1.2-2.3,1.9c-1.7,1.5-3.7,2.8-5.7,3.8c-0.5,0.3-0.9,0.6-1.2,1c1.7-0.2,2.9-2.1,4.7-1.8
	c-0.3,0.3-0.5,0.6-0.8,0.9c-0.5,0.5-1.1,1-1.6,1.5c-0.3,0.2-0.6,0.4-0.9,0.6c-0.5,0.3-1,0.6-1.4,0.9c-0.2,0.1-0.4,0.3-0.5,0.6
	c-0.6,0.8-1.2,1.3-2.3,1C195.3,172.2,194.5,172.2,193.3,172z"/>
<path class="st0" d="M159.4,157.8c-2,2.3-4.4,4.2-7.1,5.7c-0.4,0.2-0.6,0.6-0.9,0.9c-4.6,3.5-9.6,5.8-15.5,5.3
	c-0.4,0-0.8-0.2-1.1-0.3c5.5-1.5,10.6-4.3,16.2-5.2c0.2-0.1,0.4-0.3,0.4-0.5h-1.7L159.4,157.8z"/>
<path class="st0" d="M147,176.3l17.5-8.4l0.2,0.4c-1.7,1.5-3.4,2.9-5.2,4.2c-2.8,1.8-5.7,3.3-8.6,4.8
	C149.4,178,148.3,176.6,147,176.3z"/>
<path class="st0" d="M142.1,174.2c-2.4,1.7-3.7,0.3-5-1.4c-0.5,0.6-0.5,0.6,1,2.1c-1.4-0.5-2.9-0.4-4.1-1.6c-0.7-0.6-1.5-1-2.4-1.2
	l0.5,1.1l-0.2,0.2c-1.5-1.2-3.1-2.5-4.6-3.8c-0.1-0.2-0.2-0.4-0.1-0.6c0.1-0.2,0.4-0.3,0.6-0.3c0.4,0.1,0.8,0.2,1.2,0.4
	c1.3,0.3,2.7,0.6,4,1c1,0.3,2,0.7,3,1.1c2,0.9,3.9,1.9,5.8,2.9C141.9,174.1,142,174.1,142.1,174.2z"/>
<path class="st0" d="M142.4,173.3l2.6-1.3l-0.1-0.2c-0.4,0.1-0.9,0.2-1.3,0.4c-1.7,1.2-3.2,0.5-4.7-0.4c-0.7-0.4-1.4-0.9-1.9-1.4
	c1,0.2,2.1,0.3,3.2,0.3c0.9,0,1.8-0.2,2.6-0.5c3.1-0.9,6.1-1.9,9.2-2.9c0.5-0.1,0.9-0.3,1.4-0.5l0.2,0.3c-0.9,0.5-1.8,1.1-2.7,1.6
	c-0.5,0.3-0.8,0.8-1.2,1.2c-0.7,0.7-1.4,1.3-2.2,1.8c-1.1,0.7-2.2,1.2-3.4,1.7c-0.5,0.1-1.1,0.2-1.7,0.2V173.3z M149.1,170.1
	l-0.1-0.3l-2.9,1.4l0.2,0.4L149.1,170.1z"/>
<path class="st0" d="M183.5,140c0.8-3.3,2.2-4.9,6.3-7.4v0.6c0.3-1.7,1.9-2.3,3-3.2c1.2-0.9,2.4-1.8,3.7-2.5
	c0.9,1.9,0.1,4.2-1.8,4.5l-0.1-1.2l-0.2-0.1c-0.1,0.4-0.3,0.8-0.4,1.1c-0.4,1-0.9,1.9-2.2,1.9c-0.4,0.1-0.7,0.3-1,0.6
	c-0.4,0.4-0.7,0.7-1,1.1l0.1-1.9c-0.9,0.2-1.6,1-1.8,1.9c-0.2,1-0.9,1.8-1.9,2.2C185.2,138.3,184.3,139.1,183.5,140z"/>
<path class="st0" d="M121.1,172.7h1.2l-0.4-1.2l0.2-0.3c0.8,0.6,1.5,1.1,2.3,1.6c0.3,0.2,0.6,0.3,0.9,0.4c0.1,0,0.4-0.3,0.3-0.4
	c-0.2-0.3-0.4-0.6-0.7-0.8c-0.9-0.8-1.9-1.5-2.9-2.3l0.3-0.4l5.6,4.5c2.2,0.9,4.1,2.3,5.5,4.1c-2.9-0.3-5.1-1.1-6.3-4
	c-0.7,1.4,0.7,1.7,0.8,2.7l-2.7-2.2l-0.3,0.3l1.4,1.5l-0.1,0.3c-1.1-0.2-2.4-0.2-3.3-0.8S121.8,173.9,121.1,172.7z"/>
<path class="st0" d="M169.4,153.9c1-0.4,2.1-0.1,2.8-1.4c1.2-1.9,2.5-3.7,3.9-5.4c1.3,0.8,0.6,1.5,0.2,2.1c-2.7,3.2-5.4,6.4-8.1,9.6
	c-0.4,0.5-0.8,1.1-1.2,1.7l0,0c-0.3,0.1-0.5,0.2-0.8,0.4c-0.7,1-1.8,1.6-3.1,1.7c0.6-0.9,1-1.6,1.4-2.4c1.1-2.2,2.7-4.2,4.6-5.7
	C169.4,154.4,169.4,154.1,169.4,153.9L169.4,153.9z"/>
<path class="st0" d="M109.7,165.4l8.2,14.4l-1.1,3.1c-0.5-0.7-1.3-1.4-1.2-1.9c0.2-1.4-1.4-1.8-1.4-3.1c0-1.2-0.2-2.4-0.5-3.6
	c-0.1-0.9-0.4-1-1.5-0.6c-1.3-2.6-2.7-5.1-2.9-8L109.7,165.4z"/>
<path class="st0" d="M191.1,143.8c0.4-0.6,0.7-1.3,0.9-2c0.4-2.2,2.1-3.6,3.4-5.4c0,3.2-5.9,17.5-8.6,21l0.2-1.6l0,0
	c0.2-0.2,0.4-0.3,0.5-0.5c0.7-1.9,1.4-3.7,2-5.6s1.1-4,1.6-6L191.1,143.8z"/>
<path class="st0" d="M190.6,173.9l2.2,1c-4.5,2.2-9.5,3.3-14.5,3.2c1.1-0.6,2.3-1.1,3.5-1.6c2.9-0.6,5.7-1.6,8.3-3
	c1.5-0.9,2.7-0.2,3.8,0.9l-3.3-0.8L190.6,173.9z"/>
<path class="st0" d="M163.2,191.2l-1.9-0.4l0.1-0.3l3.5,0.4v0.4l-1,0.1v0.2c0.2,0.1,0.4,0.1,0.7,0.1c1.5,0.1,2.8,0.7,4,1.6
	c0.6,0.4,1.3,0.6,1.8,1c0.3,0.3,0.4,0.8,0.7,1.3c1.4-0.5,2.5,0.1,3.6,1c-3.1-0.1-6.1-0.1-8.9-2.2l0.4-0.1c0.2,0,0.3-0.1,0.4-0.3
	c-2.2-0.6-4.4-0.9-6.4-2.8l3.1,0.4L163.2,191.2z"/>
<path class="st0" d="M139.2,138.6c-0.7,0.4-1.5,0.8-2.3,1.1c-3.1,0.7-6.1,1.3-9.2,1.9c-2.5,0.4-5,0.7-7.5,1c0.2-2.4,2.2-1.9,3.6-2.1
	c2-0.3,4-0.2,5.9-0.5c2.9-0.4,5.8-1.1,8.7-1.6l0.7-0.1L139.2,138.6z"/>
<path class="st0" d="M166.6,139c-1.1,2.5-3,4.6-5.5,5.9c-0.3,0.1-1.2,0.3-0.2,1.1l-10.2,3.1l-0.1-0.2c1.3-0.8,2.5-2.3,3.8-2.4
	c2.5-0.2,3.9-2.1,5.9-2.9l0.2-0.1c0,0,0.1,0,0.1,0.1l-1,1.7l0.2,0.1l6.5-6.8L166.6,139z"/>
<path class="st0" d="M98.2,118.2c-0.1-0.2-0.2-0.3-0.2-0.4c0.1-1-0.7-1.6-1-2.4c0-0.2-0.2-0.3-0.1-0.4c0.7-1.5,1.2-3.1,2.8-4
	c0.8-0.4,1.6-0.9,2.4-1.3c-0.2,1.1-0.3,2.1-0.5,3.1c-0.1,0.4-0.4,0.7-0.7,0.8c-0.6,0.3-1.3,0.4-2,0.7c-0.3,0.1-0.6,0.3-0.9,0.5
	L98,115l3.2-0.7c0.1,0.5,0.1,0.9,0.1,1.4c-0.1,0.3-0.3,0.9-0.4,0.9C99.5,116.3,99.1,117.6,98.2,118.2z"/>
<path class="st0" d="M139.3,185c-2.1-0.2-4-0.4-5-2.6c-0.3-0.7-1.1-1.1-1.6-1.7c-0.7-0.8-1.3-1.6-1.9-2.4l0.1-0.2
	c1.3,0.5,2.8,0.6,3.8,1.5C136.7,180.9,138.3,182.8,139.3,185z"/>
<path class="st0" d="M186.2,139c-1.4,2-2.9,4-4.3,6.2s-2.6,4.4-4,6.5c0.2-1.3-0.6-2.6,0.4-4c1.2-1.6,2.3-3.3,3.2-5
	C182.6,140.9,184.3,139.6,186.2,139z"/>
<path class="st0" d="M112.2,148.5l4.5,0.7c1.5,0.2,3,0.3,4.4,0.6c1.8,0.4,3.5,0.9,5.2,1.6c-2.6,0.6-5.4,0.6-8,0
	c-2.1-0.3-4.1-1.2-5.6-2.7C112.6,148.6,112.4,148.5,112.2,148.5L112.2,148.5z"/>
<path class="st0" d="M218.4,124.1c0.6-4,0.4-5.3,3-6.5c-0.1,0.6-0.1,1.2-0.1,1.7c0,0.4-0.6,1.2,0.6,1.2c0.2-1.1,0.3-2.2,0.6-3.3
	c0.1-0.4,0.6-0.8,0.9-1.2c0.1,1.2,0.1,2.2,0.2,3.3s-0.1,2.1-1.4,2.4c-0.4,0.1-0.6,0.5-0.9,0.7C220.4,123,219.6,123.5,218.4,124.1z"
	/>
<path class="st0" d="M108.3,163.8l-1.3-5h-0.2l-0.3,0.8l-0.3,0.1c-0.9-3.6-1.9-7.1-2.8-10.7c2,2.2,3.2,5,3.6,8
	c0.1,0.3,0.2,0.7,0.4,0.9c0.6,1.6,1.2,3.2,1.8,4.8c0.1,0.3-0.2,0.7-0.3,1.1L108.3,163.8z"/>
<path class="st0" d="M125.1,160.7c1.7-0.7,3.2-1.6,5.1-1.4c1.6,0.2,3.3,0.2,4.9,0.3c0.3,0,0.6,0.3,1,0.6c-2.2,1.1-4.2,2-6.6,1.2
	c-1.5-0.3-2.9-0.4-4.4-0.3L125.1,160.7z"/>
<path class="st0" d="M172.8,184l-0.2,0.5c-0.4-0.2-0.8-0.3-1.2-0.4c-2.4,0-4.8,0-7.3,0l-0.1-0.5c0.5-0.1,1-0.3,1.6-0.4
	c1.4-0.3,2.9-0.6,4.3-0.9c1.7-0.3,3.4,0.3,4.6,1.5l-0.4,0.2l2.9,1.5C175.4,185.9,173.7,185.3,172.8,184z"/>
<path class="st0" d="M104.5,132.9l0.2-0.9l-1.4,0.2V129l8.3,3.6c-1.5,0.2-3.3,0.4-5,0.6C105.9,133.2,105.2,133,104.5,132.9z"/>
<path class="st0" d="M109.1,130.4c2.2,0.3,4.5,0.4,6.7,0.8c2.3,0.5,4.4,1.6,6.2,3.3c-1.4-0.2-2.8,0-3.6-0.6
	c-2.1-1.6-4.6-1.1-6.8-2.1c-0.8-0.4-1.7-0.6-2.6-0.9L109.1,130.4z"/>
<path class="st0" d="M156.9,164.8l6.9-6.8h1C164.3,161.6,161,164.5,156.9,164.8z"/>
<path class="st0" d="M225.4,119.8v-9.2l1.1,0.5l-0.7-1.5c2.1,1,2.1,6.8,0.1,10.2H225.4z"/>
<path class="st0" d="M108.1,134l10.4,1.4C115.9,137.3,110.2,136.5,108.1,134z"/>
<path class="st0" d="M131.2,182.4l-2.4-2.9c-0.2,0.5,0.1,0.4,0.8,2.2c0.4,0.9,1.4,1,1.4,1.9c-0.8,0.2-1.7-0.3-1.9-1.1
	c-0.5-1-1.6-1.7-2.4-2.6s-1.2-1.7-1.9-2.7c3.5,0.4,5.1,2.6,6.8,4.9L131.2,182.4z"/>
<path class="st0" d="M202.5,185.1l-0.5,0.4l1.3,0.1c-0.8,0.7-1.9,1-2.9,0.6c-0.2-0.1-0.3-0.4-0.5-0.4l-5.3-2.3
	C198.7,182.1,198,182.6,202.5,185.1z"/>
<path class="st0" d="M142.2,142.9c-2.4,1.3-4.8,2.3-7.4,3.2c-1.6,0.4-3.4-0.1-5.2-0.5l12.5-3L142.2,142.9z"/>
<path class="st0" d="M182.2,190.8c0.6,0.1,1.1,0.1,1.7,0c0.4-0.2,0.8-0.4,1.1-0.6l5.5,1.9c-0.8,1.2-2.3,1.7-3.6,1.2
	C185.3,192.5,183.4,192.2,182.2,190.8L182.2,190.8z"/>
<path class="st0" d="M200.9,165.4c-3.5,2.9-7.3,5.4-11.4,7.4l-0.2-0.2c0.8-0.8,1.5-1.6,2.4-2.3c0.7-0.6,1.4-1,2.1-1.5
	c0.9-0.5,1.6-1.2,2.8-1.2c0.9,0,1.7-1,2.6-1.5c0.5-0.3,1-0.6,1.6-0.9L200.9,165.4z"/>
<path class="st0" d="M140.1,180.2c0.4,0,0.6,0,0.6,0c1,1,2.2,0.7,3.4,0.8c1.8,0.1,2.7,1.6,4,2.5
	C144.4,184.9,142.6,182.2,140.1,180.2z"/>
<path class="st0" d="M175.1,192c-0.9,0.4-1.7,0.8-2.5,1c-0.3,0.1-0.7,0.1-1,0c-1.3-0.6-2.6-1.3-3.8-2c-0.2-0.1-0.3-0.4-0.5-0.6
	C170,190,172.8,190.6,175.1,192z"/>
<path class="st0" d="M196,177.7c1.6-1.2,3.1-1.4,4-0.6c0.3,0.3,0.7,0.4,1.1,0.5c2.2,0.5,4.5,0.9,6.7,1.4l0.1,0.3
	c-0.6,0.2-1.2,0.2-1.9,0.2c-1.2-0.3-2.4-0.9-3.7-1.1c-0.9-0.1-1.9-0.1-2.8,0c-1.2,0-2.4-0.2-3.6-0.3L196,177.7z"/>
<path class="st0" d="M143.4,194.1c-4-1.6-6.5-4.7-8.7-8.3C137.9,188.3,140.5,191.5,143.4,194.1z"/>
<path class="st0" d="M107.7,115l-1.1,0.9l7.6-1.1l0.1,0.6c-1,0.3-2,0.6-3,0.8c-1,0.3-2.1,0.3-3.2,0.2c-1.8-0.3-3.5,0.3-5.2,0.5
	c-0.2,0-0.4-0.1-0.7-0.2C103.8,115.6,105.8,115,107.7,115z"/>
<path class="st0" d="M112,144.9c3.1,0.1,5.7,1.6,8.1,3.4C117.3,147.3,113.8,148.1,112,144.9z"/>
<path class="st0" d="M211,122.2c0.6-2.4,1.1-4.7,1.6-7.1C214.6,117.7,213.9,121.1,211,122.2z"/>
<path class="st0" d="M207.6,177.6l1.5-0.8v-0.4l-1.4-0.4v-0.2c1.1-0.2,2.1-0.3,3.2-0.4c1.2,0.1,2.3,0.4,3.4,0.8
	C212.1,176.6,210.3,178.9,207.6,177.6z"/>
<path class="st0" d="M144.1,185.8c-1.9,0-3.4-0.5-4.5-2.1c-1.1-1.5-2.3-2.9-3.6-4.2l0.3-0.3l2.4,2.1c0.9,0.8,1.9,1.6,2.8,2.3
	S143.2,185.1,144.1,185.8z"/>
<path class="st0" d="M130.1,167.7c-1.1,0.1-2.5,0.6-3.4,0.1c-0.6-0.3-1.9,0-2-1.3c0-0.1-0.7-0.2-1-0.4l0.6-0.9
	C126.4,165.6,128.7,165.6,130.1,167.7z"/>
<path class="st0" d="M203.7,187.9c-2.6,1.1-4.8,3.2-8,2.7c0.4-0.3,0.6-0.5,0.7-0.5c0.9,0.2,1.4-0.5,2.1-0.9c0.9-0.7,1.9-1.3,3-1.8
	C202.1,187.3,203,187.7,203.7,187.9z"/>
<path class="st0" d="M180.5,193.3l0.5-0.7l-0.1-0.4l5.9,1.8l-0.1,0.7c-1.1,0.1-2.1,0.2-3.2,0.1C182.5,194.3,181.4,193.9,180.5,193.3
	z"/>
<path class="st0" d="M123.7,146.2l-1.2,0.3v0.3l3.7-0.6c-2.3,2.1-5.2,1.9-7.3-0.7l4.8,0.4L123.7,146.2z"/>
<path class="st0" d="M190.8,180.9c1.7-1.2,2.4-1,4,0.2c0.4,0.3,1.3,0.2,2,0.2l0.4,0.7C194.8,183.3,192.9,181.4,190.8,180.9z"/>
<path class="st0" d="M154.5,141.3c0.7-1,1.4-2,2.3-2.9c1.1-0.7,2.2-1.4,3.4-1.9C159.2,138.9,158.2,139.7,154.5,141.3z"/>
<path class="st0" d="M177.9,191.2l1.9-0.1l0.1,0.5l-2.3,0.4c0-0.2,0-0.4,0-0.2l-2.8-1l0.1-0.3l1.1-0.4v-0.3l-3.2-0.6
	C174.8,188.1,177.8,189.5,177.9,191.2z"/>
<path class="st0" d="M153.7,172.5c-0.7,0.4-1.5,0.9-2.3,1.2c-1.5,0.6-3.1,1.2-4.6,1.7c-0.3,0.1-0.7-0.2-1-0.3
	c0.2-0.3,0.3-0.8,0.6-0.9c0.8-0.3,1.6-0.4,2.4-0.6c1.6-0.4,3.2-0.9,4.8-1.4L153.7,172.5z"/>
<path class="st0" d="M130.2,184.4c1.1-0.1,2.2,0.5,2.7,1.5c0.7,0.9,1.4,1.9,2.1,2.8c0.7,0.9,1.4,1.8,2,2.8
	C134.6,189.3,132.3,187,130.2,184.4z"/>
<path class="st0" d="M149.7,190.7c0.7,0.1,1.4,0.3,2.1,0.6c1.9,1.1,3.8,2.3,5.7,3.6c0.4,0.3,0.8,0.7,0.9,1.2l-8.9-4.9L149.7,190.7z"
	/>
<path class="st0" d="M156.1,188.4c2.3,0.2,4.6-0.1,6.8,1.7C160.4,190,158.1,190.7,156.1,188.4z"/>
<path class="st0" d="M214.7,115.7l-0.7,0.5l-1.4-3.4l2.3,0.1v6.3h-0.4L214.7,115.7z"/>
<path class="st0" d="M101.7,126l-2.2-5.6l1.8-0.5l0.7,6.1L101.7,126z"/>
<path class="st0" d="M138.8,161.9c-3.4,2-7.4,3.1-8.5,2.2C133.3,163.7,135.7,161.7,138.8,161.9z"/>
<path class="st0" d="M181.8,195.3c-2.4,1.5-2.8,1.6-3.8,1.1l0.5-0.7l-0.8,0.2c0.1-1.5,0.8-2,2.1-1.6c0.6,0.2,1.3,0.5,1.9,0.8
	C181.8,195.1,181.8,195.2,181.8,195.3z"/>
<path class="st0" d="M186.2,194.8l5.2,0.6c-1.3,0.4-2.3,1.9-3.8,1.2C187.1,196.4,185.8,196.3,186.2,194.8z"/>
<path class="st0" d="M125.3,188.7l0.2,1l-0.2,0.1c-0.4-0.5-0.8-0.9-1.2-1.4c-0.3-0.5-0.6-1.1-0.9-1.7c-0.2-0.6-0.4-1.2-0.8-1.8v1
	l-0.3,0.1l-1.2-4.5l0.2-0.1L125.3,188.7L125.3,188.7z"/>
<path class="st0" d="M157.6,141.2l-2.4,1.7l-0.1-0.2c-0.1,0.3-0.3,0.6-0.5,0.9c-0.6,0.7-1.3,1.4-2,2c-0.3,0.2-0.6,0.3-1,0.4
	c0.1-0.3,0.1-0.8,0.3-1c0.9-0.9,1.9-1.7,2.9-2.5c0.8-0.6,1.6-1.1,2.4-1.7L157.6,141.2z"/>
<path class="st0" d="M149,189.6c-0.5,0.8-1,0.9-1.8,0.3s-2-1.1-3-1.7c-0.7-0.4-1.2-1-1.6-1.7L149,189.6z"/>
<path class="st0" d="M107.1,121.6c0.6-0.7,1.4-1.1,2.3-1.1c1.1,0,2.2-0.2,3.3-0.4l1.1-0.2C112,121.6,109.5,122.2,107.1,121.6z"/>
<path class="st0" d="M203.2,183.9c0.9-1,0.9-1,1.8-0.3c-1.3,1.4-2.7,1.1-5.3-0.8c1.1-0.7,2.5-0.5,3.3,0.6
	C203,183.6,203.1,183.8,203.2,183.9z"/>
<path class="st0" d="M176.3,188.3c1.9-1.1,3.5-0.2,5.1,0.4C180,190,179,190,176.3,188.3z"/>
<path class="st0" d="M218.7,117.7c-1.1,2.2-1,4.6-1.1,6.9c-0.2,1-0.5,2-1,2.9l-0.4-0.1c0.3-1.7,0.5-3.4,1-5.1S217,118.8,218.7,117.7
	z"/>
<path class="st0" d="M195.6,179.6c1.6-0.7,4.4,0.1,4.5,1.3l2.2,0.1c-0.7,0.7-1.8,0.7-2.5,0c-0.4-0.2-0.7-0.3-1.1-0.4
	c-1-0.2-2-0.4-3-0.6L195.6,179.6z"/>
<path class="st0" d="M133.1,147.2l-6.4,1.8v-0.1c1-0.7,2-1.4,3.1-2c1-0.5,2.2-0.6,3.2-0.2L133.1,147.2z"/>
<path class="st0" d="M159.8,193.8c2.3,0,4.5,0.8,6.1,2.4c-1.2-0.2-2.2,0.1-3.1-0.9c-0.7-0.7-2-0.8-3.1-1.2L159.8,193.8z"/>
<path class="st0" d="M173.5,177.3c-0.5,1.9-3.2,3.1-5.4,2.5L173.5,177.3z"/>
<path class="st0" d="M153.2,183.6l-2.6-0.5l0.6,0.6c-1.1,0-2.1,0.4-2.7-0.8C150.1,181.9,151.8,181.3,153.2,183.6z"/>
<path class="st0" d="M136,158.6l7.2-2.1c-2,1.6-4.5,2.5-7.1,2.5L136,158.6z"/>
<path class="st0" d="M159.7,192.9c-2.1,0.1-4.2-0.7-5.7-2.1l3.8,0.7l-0.4,0.2l2.4,1L159.7,192.9z"/>
<path class="st0" d="M206.6,120.3c0.6,1.4-0.4,2.6-3.7,3.9c0.3-0.6,0.7-1.1,1.2-1.6c0.6-0.4,1.5-0.6,1.6-1.6
	C205.7,120.7,206.3,120.5,206.6,120.3z"/>
<path class="st0" d="M169.5,153.9l-1.4,0.9c0.4-2.5,2.7-3.6,3.8-5.3l0.3,0.2C171.3,151,170.4,152.4,169.5,153.9L169.5,153.9z"/>
<path class="st0" d="M187.8,189c0.8,0,1.5,0,2.3,0.2c1.2,0.4,2.3,1,3.6,1.6c-0.4,0.2-0.5,0.3-0.6,0.3c-1.6-0.4-3.3-0.9-4.9-1.4
	C187.8,189.6,187.1,189.6,187.8,189L187.8,189z"/>
<path class="st0" d="M232.1,146.6l-5.4,3.6l-0.2-0.3c1.9-1.1,2.9-3.4,5.3-3.7L232.1,146.6z"/>
<path class="st0" d="M197.6,130c-0.1-0.4-0.1-0.9-0.1-1.3c0-0.4,0.1-0.8,0.2-1.1l2.8-0.6l-0.9,2.2l-0.4-0.1l0.1-1.1l-0.2-0.1l-1,2.3
	L197.6,130z"/>
<path class="st0" d="M101.3,118.1c0.2,1.8-1,1.4-1.7,1.6c-0.3,0.1-0.7-0.4-1.1-0.6c0.7-0.6,1.4-1.1,2.1-1.6
	C100.7,117.4,101.2,118,101.3,118.1z"/>
<path class="st0" d="M177.3,173c-1.5,2.6-2.7,3.6-4.2,3.1l4-3.3L177.3,173z"/>
<path class="st0" d="M168,167.1c-1.1,2.1-3.3,2.5-5,3.8l-0.2-0.2l4.9-3.9L168,167.1z"/>
<path class="st0" d="M142.6,179.1c-1.6-0.8-3.8-0.5-4.9-2.3l0.2-0.4l4.9,2.2L142.6,179.1z"/>
<path class="st0" d="M156.9,186.7c-1.8,0-3.6,0.6-5-1.2C153.7,185.8,155.4,185.4,156.9,186.7z"/>
<path class="st0" d="M166,184.7h4.8v0.4h-2.1l0.8,1l-0.1,0.3l-2.1-0.4v-0.4l1-0.2v-0.2l-2.4-0.3L166,184.7z"/>
<path class="st0" d="M173.4,198.1c-0.6-0.1-1.3-0.1-1.9-0.3c-0.5-0.1-0.9-0.4-1.1-0.8c1,0.1,1.9,0.2,2.9,0.2s1.8-0.2,2.8-0.3
	c-0.2,0.9-0.4,0.9-1.4,0.9C174.1,197.8,173.7,198,173.4,198.1L173.4,198.1z"/>
<path class="st0" d="M183,179.8c-1,1.6-2.7,1.8-3.8,0.4L183,179.8z"/>
<path class="st0" d="M140.7,176c1.1-1.2,2.9-1.3,4.1-0.2c0.1,0.1,0.1,0.1,0.2,0.2H140.7z"/>
<path class="st0" d="M180.7,142.8c-0.9,1.3-1.7,2.6-2.7,3.9c-0.2,0.2-0.6,0.3-0.9,0.4l-0.2-0.4l3.6-4.1L180.7,142.8z"/>
<path class="st0" d="M129.2,146.8l-4.8,1.4l-0.1-0.3c1.6-0.6,3-1.8,4.8-1.5L129.2,146.8z"/>
<path class="st0" d="M175.4,179.9l1.7-0.1l0.1,0.2l-0.5,0.3l2,0.8l-0.1,0.2h-3.8C176.1,180.4,176.1,180.4,175.4,179.9z"/>
<path class="st0" d="M201.4,123.8c-0.3,1.8-1.3,2.8-3.2,2.5L201.4,123.8z"/>
<path class="st0" d="M131.8,167.8c-0.6-0.4-1.1-0.7-1.7-1c-0.1-0.1-0.2-0.3-0.5-0.6l3.9,0.4L131.8,167.8z"/>
<path class="st0" d="M187.8,189c-0.1-0.1-0.2-0.2-0.3-0.2c-1-0.2-2.1-0.4-3.4-0.7c1.2-0.9,2.3-0.7,4.3,0.4L187.8,189L187.8,189z"/>
<path class="st0" d="M94.7,111.1c-0.3,0.8,0.1,1.9-1.2,2.3l-0.4-3L94.7,111.1z"/>
<path class="st0" d="M119.3,179.8c-1.5-1.2-2.4-2.9-2.6-4.8l2.9,4.6L119.3,179.8z"/>
<path class="st0" d="M209.9,158l3.3-2.8c0.1,1.3-0.8,2.2-3,3.1L209.9,158z"/>
<path class="st0" d="M170.8,200.8l-4.6-1.2l0.1-0.5l4.6,1.2L170.8,200.8z"/>
<path class="st0" d="M235.9,141.6c-0.7,1.6-2,2.8-3.6,3.5l-0.2-0.2L235.9,141.6z"/>
<path class="st0" d="M221.6,110.6c-0.5,1.2-1,2.5-1.6,3.8c-0.7-1.4,0-3.1,1.4-3.7C221.4,110.6,221.5,110.6,221.6,110.6z"/>
<path class="st0" d="M166.1,197.1c1.7-0.6,3,0.4,4.3,1.1C170,198.7,167.8,198.2,166.1,197.1z"/>
<path class="st0" d="M212.4,174.6c1.3-0.4,2.8-0.3,3.9,0.5v0.4l-3.9-0.5L212.4,174.6z"/>
<path class="st0" d="M150.3,180.9l-3.9-0.8C148,179,148.2,179,150.3,180.9z"/>
<path class="st0" d="M151.7,186.6c-1.5,0.5-2.4-0.7-3.7-1.2C149.8,185.1,150.7,185.4,151.7,186.6z"/>
<path class="st0" d="M138.5,166.4l-5.2,1.2l-0.1-0.4l5.2-1.3L138.5,166.4z"/>
<path class="st0" d="M119.4,167.2l2.9,3.5C120.7,170.3,119.5,168.9,119.4,167.2z"/>
<path class="st0" d="M153.8,181.6c-1.3-0.6-2.8-0.4-3.3-2.1C151.7,179.9,153,179.9,153.8,181.6z"/>
<path class="st0" d="M177.1,187.5c-1.5,0.7-2.1,0.6-3.7-0.6l3.8,0.3L177.1,187.5z"/>
<path class="st0" d="M113.2,180.7l-1.2-4.8l0.3-0.1c0.5,1.6,1.3,3.1,1.2,4.9L113.2,180.7z"/>
<path class="st0" d="M204.9,180.5l-3.9-0.7l0.1-0.6l3.9,0.8L204.9,180.5z"/>
<path class="st0" d="M143.6,178.2l3.2,0.6C145.2,180,144.4,179.9,143.6,178.2z"/>
<path class="st0" d="M186.9,178.8l3.2,0.2v0.4c-1.1,0.4-2.1,0.8-3.2-0.1V178.8z"/>
<path class="st0" d="M162.6,196.6l3.8,1.7c-1.6,0.3-2.1,0.1-4-1.4L162.6,196.6z"/>
<path class="st0" d="M169.4,190.2l-3.7-0.2v-0.4h3.7L169.4,190.2z"/>
<path class="st0" d="M175.1,194.9l2.7-1C177.1,195.8,176.7,196,175.1,194.9z"/>
<path class="st0" d="M160.6,185.6c1.8-0.4,3.6-0.3,5.3,0.3v0.3L160.6,185.6z"/>
<path class="st0" d="M205.5,124.1l-2.8,2.6C202.7,125.3,203.6,124.5,205.5,124.1z"/>
<path class="st0" d="M133.1,168.3l3.5-0.7C134.4,169.4,134.3,169.5,133.1,168.3z"/>
<path class="st0" d="M196.1,133.9c-0.3,0.5-0.6,0.9-1,1.3c-0.3,0.2-0.8,0.2-1.2,0.3c0.1-0.4,0.2-0.9,0.5-1.1c0.5-0.3,1-0.5,1.5-0.7
	L196.1,133.9z"/>
<path class="st0" d="M140.7,159.4c-0.3,0.8-0.5,1.7-1.8,1.3c-0.5-0.1-1.1,0.3-1.6,0.4l-0.1-0.3L140.7,159.4L140.7,159.4z"/>
<path class="st0" d="M203.8,166.6l3.9-3.2C206.6,164.6,205.7,166.3,203.8,166.6z"/>
<path class="st0" d="M201.8,128.4l2.8-2.2l0.3,0.4l-2.7,2.3L201.8,128.4z"/>
<path class="st0" d="M183.4,182.7l2.5-0.3l0.2,0.4c-0.4,0.2-0.8,0.7-1.1,0.7c-0.6,0-1.1-0.2-1.6-0.4L183.4,182.7z"/>
<path class="st0" d="M114.7,134.3l-5.2-0.6v-0.3l5.3,0.4L114.7,134.3z"/>
<path class="st0" d="M223.3,113.5l0.5-3C224.6,111.8,224.3,113.3,223.3,113.5z"/>
<path class="st0" d="M182.2,190.8H181c0-1.7,1.1-1.5,2.3-1.4C182.9,190,181.8,189.9,182.2,190.8L182.2,190.8z"/>
<path class="st0" d="M219.3,117.4l2.4-2.1C221.7,116.8,221.2,117.3,219.3,117.4z"/>
<path class="st0" d="M131.2,165.3l4.5-1.1C134.5,165.3,133.5,165.6,131.2,165.3z"/>
<path class="st0" d="M156.7,183.6h4.5v0.4h-4.5L156.7,183.6z"/>
<path class="st0" d="M115.3,144.8c2.5,0.2,2.5,0.2,2.8,1.5L115.3,144.8z"/>
<path class="st0" d="M156.8,149.3l1.5-1.1l1.3-0.6l0.2,0.4l-2.8,1.7L156.8,149.3z"/>
<path class="st0" d="M160,182.4l-2.7-0.6C158.4,180.7,159,180.9,160,182.4z"/>
<path class="st0" d="M146.7,177.9l-3-1C145.6,176.2,145.6,176.2,146.7,177.9z"/>
<path class="st0" d="M145.5,159.1l4.3-2.4l0.1,0.3l-4.2,2.4L145.5,159.1z"/>
<path class="st0" d="M194.6,166.8c1.2-0.6,1.6-2.4,3.3-2.4l-3.1,2.6L194.6,166.8z"/>
<path class="st0" d="M218.9,113c0.4,2.7,0.4,2.9-0.6,3.8L218.9,113z"/>
<path class="st0" d="M107.3,163.5l1.2,3.9l-0.4,0.1l-1-3.8L107.3,163.5z"/>
<path class="st0" d="M144.5,195.3l2.9,2.1l-0.2,0.3c-0.5-0.3-1-0.6-1.5-1s-1-0.8-1.5-1.1L144.5,195.3z"/>
<path class="st0" d="M176,182.9c1.1-0.2,2.1-0.3,2.5,1L176,182.9z"/>
<path class="st0" d="M189.4,177.7c0.9,0.2,1.9-1.3,2.7,0.1C191.2,177.9,190.3,178.4,189.4,177.7z"/>
<path class="st0" d="M162.6,188l0.6-0.8l2.1,1.2l-0.1,0.2L162.6,188z"/>
<path class="st0" d="M136.9,177.3l-2.3-1.5l0.2-0.4l2.5,1.2L136.9,177.3z"/>
<path class="st0" d="M192.9,176.6l2.5-0.2l0.1,0.5l-2.5,0.3L192.9,176.6z"/>
<path class="st0" d="M178,179.2l2.7-0.3l0.1,0.5l-2.7,0.3L178,179.2z"/>
<path class="st0" d="M220.7,114.7l0.9-2.4C222.2,113.5,221.9,114.5,220.7,114.7z"/>
<path class="st0" d="M171.1,185.5l2.7,0.4l-0.1,0.5C172.8,186.1,171.8,186.6,171.1,185.5z"/>
<path class="st0" d="M152.6,190l-2.4-0.7c0.8-0.6,1.3-0.4,2.5,0.4L152.6,190z"/>
<path class="st0" d="M186.9,183.1c0.6-0.2,1.2-0.4,1.8-0.6c0.1,0,0.3,0.4,0.5,0.7l-2.1,0.5L186.9,183.1z"/>
<path class="st1" d="M169.8,167.2l2.8-1.6L169.8,167.2L169.8,167.2z"/>
<path class="st0" d="M216.6,168.4l-0.4-1.2h1.8l0.1,0.2L216.6,168.4L216.6,168.4z"/>
<path class="st0" d="M120.9,154.4l-4.1-0.5v-0.3l4,0.4L120.9,154.4z"/>
<path class="st0" d="M182.4,183.9l-2.6-0.7l0.1-0.4l2.6,0.7L182.4,183.9z"/>
<path class="st0" d="M105.8,129.5l-1.5-0.9l0.9-1.1l0.8,1.7L105.8,129.5z"/>
<path class="st0" d="M122.8,177.3l1.6,2.3l-0.3,0.2l-1.7-2.2L122.8,177.3z"/>
<path class="st0" d="M231.5,117.7c0.1,1.1,0.6,2.3-0.8,3.4C231,119.8,231.3,118.7,231.5,117.7z"/>
<path class="st0" d="M164.7,187.1h3.1v0.2h-3.1L164.7,187.1z"/>
<path class="st0" d="M89.2,155.6l-2.7-9.2l0.5-0.1c1.3,2.9,3,5.8,2.6,9.2L89.2,155.6z"/>
<path class="st0" d="M86.4,128.4l0.9,1.1l-3.2,3.1l-0.4-0.3L86.4,128.4z"/>
<path class="st0" d="M95.3,148.1c1.6,4.3,1.8,5.6,1,6.3C96,152.3,95.6,150.2,95.3,148.1z"/>
<path class="st0" d="M81.1,139.6l0.3-2.8l0.6,0.1l-0.3,2.8L81.1,139.6z"/>
<path class="st1" d="M204.5,158.5c1.4-2.5,2.9-5,4-7.6s1.9-5.4,2.9-8.2c0.5,2.2-4.6,14.3-6.6,16.1L204.5,158.5z"/>
<path class="st1" d="M191.1,143.8c-0.5,2-1,4-1.6,6s-1.3,3.8-2,5.6c-0.1,0.2-0.3,0.3-0.5,0.5c0.1-0.8,0.3-1.6,0.5-2.4
	c1-3,2.1-6,3.1-9C190.8,144.2,190.9,144,191.1,143.8z"/>
<path class="st1" d="M233.3,140.4c-0.2,1.3-9.1,7.9-10.1,7.8L233.3,140.4z"/>
<path class="st1" d="M155.7,157.6l3.6-4.1l0.3,0.2l-3.6,4.1L155.7,157.6z"/>
<path class="st1" d="M150.6,195.7l-3.2-1.1l0.1-0.3l3.2,1L150.6,195.7z"/>
<path class="st1" d="M149.1,170.1l-2.9,1.5l-0.2-0.4l2.9-1.4L149.1,170.1z"/>
</svg>
