<?xml version="1.0" encoding="utf-8"?>
<!-- Generator: Adobe Illustrator 22.0.1, SVG Export Plug-In . SVG Version: 6.00 Build 0)  -->
<svg version="1.1" id="Layer_1" xmlns="http://www.w3.org/2000/svg" xmlns:xlink="http://www.w3.org/1999/xlink" x="0px" y="0px"
	 viewBox="0 0 300 300" style="enable-background:new 0 0 300 300;" xml:space="preserve">
<style type="text/css">
	.st0{fill:#FFFFFF;}
	.st1{fill:#232323;}
</style>
<path class="st0" d="M76.4,257.7l-4.3-0.5c0,0-2.1,0.7-3.9-2.8l0.4-1.1c0,0,3.2,3.3,5.6,2.8l-3.9-14.1l6.1-1.2l1.4,1.3l1.8-0.7
	c0,0,1.6-2.3,1-5.3s-0.3-4.3-0.3-4.3l0.8-9.9l-1.8-9.8l5.5,6.1l-1.3-8.1l1.3,2l2,2.4l3.5,3.2l14.7,3l6.1-14l-2.1-26l5.4-21.2
	c0,0-1.1-1.6,1.5-1.4c0,0,0.8,0,1,1.5s1.5-5.8,1.5-5.8s-0.5,4.9,1.2,4.6l4.1-12.5c-1.9,3.6-5.5,11.4-4.1,20.9
	c0.8,5.5,2.9,9.5,5.2,13.7c2.4,4.5,6.7,11.1,13.9,17.7c0.4-2.7,0.7-6.7-0.2-11.5c-1.2-6.1-3.7-10.6-5.5-13.1
	c-0.6-0.4-7.6-5.3-7.6-13.8c0-5.8,3.2-9.8,4.2-10.9l1.7-0.2l-0.7,5.4l1.4,13.1l1.3-0.7c0,0-0.6-5.1-0.6-6.9s0.3-4.6,0.3-4.6
	s1.5-6.8,2.8-7.2l1.1-2.6l1.1,0.7l0,7.5l-0.3,4.3c-0.7,3.7-0.9,6.9-0.8,9.2c0,2,0.1,5.1,1.2,9c1,3.5,2.4,6.2,3.5,8
	c0.1-9,0.1-18.1,0.2-27.1c0,0,0.7-10.1-3.9-16.1c0.9,1.2,2.3,3.2,3.6,5.8c2,3.8,2,5.2,4.6,11.5c2.2,5.4,2.5,5,2.9,7
	c0.6,3.2,0.1,5.1,1.3,8.2c0.7,1.7,1.5,2.9,2.2,3.7c-0.3,0.3-0.7,0.8-0.9,1.5c-0.3,1.2,0.4,2.3,1.1,3.5c0.5,0.9,1.5,2.2,3.2,3.4
	c1.3-2.5,2.8-6.1,3.1-10.5c0.1-1.3,0.6-8.8-3.6-15.9c-1.8-3.1-3-3.5-6.4-8.9c-1.7-2.6-2.9-4.9-3.6-6.4c0.5,0.8,1.2,1.9,2.4,3.1
	c1.9,2,3.1,2.3,4.4,3.9c1.3,1.7,1.7,3.3,2,4.6c0.7,2.6,2.1,6.4,5.6,11.6c0.4,0.1,0.9,0.3,1.3,0c2-1.2-1.2-9.9-2.4-13
	c-0.7-2-1.6-4-4.4-10c-3.1-6.6-6.5-13.3-6.5-13.3c0,0,1.4,3.1,3.3,6.7c1.4,2.7,2.7,4.8,3.6,6.3c1.6-0.5,3.1-1,4.7-1.4l6.4-12.8
	l0.9-8.7l-1.5-4.1l1.9-6.6l0.8,1.4c0,0,1.7,3.6,2.5,5.7l1.3-9.7l2-7.8l4.7-4.5l1.4-2.8l0.9,3.3l3.6-6.5l5.1-6.9l2-2.2l1.8,12.7V90
	l1.2,0.1l1.1-13.1c0,0,3.9-14,8.5-1.5s4.4,3,4.4,3l1.4,0.7l1.5,3.2l-0.4,1.2l0.8-0.2l2.5,5.2l-1.7,6.1l-1.7,14.2l-6.3,26.3
	c0,0-6.3,14.5-7.7,15.8c0,0,4.7-2.8,5.8-1.9l-9,17c0,0,1.9-1.2,3.3-0.6l-2.8,6.3l-3.6,5.5l6.5-0.5l-44.9,44.7c0,0-9.9,10.6-6.7,12.1
	l10.1-1.7l4.6-0.3l9.1-3l0,2.4l-3.9,0.6c0,0-1.4,3.4-5.6,3.6c0,0-4.8,2.9-4.6,3.5s-2.7,1.4-2.7,1.4l-12.6,4.2c0,0-26,5.9-24.1,8.6
	l0.4,1.5l-10.4,1.8l-9.7-0.2l-1.3,4.4l-10.5-1l-8,3.4l-5.1,2.2l-1.7-2.5L76.4,257.7z"/>
<title>Artboard 2</title>
<path class="st1" d="M109.8,242.2l1.3-0.1l0.3-0.6c0.3,0.8,0.7,1.1,1.2,0.2c0.2-0.3,0.6-0.4,0.8-0.7c0.2-0.4,0.3-0.9,0.4-1.4
	l3.3-2.2c-0.3-1.4,0.3-2.2,2.2-2.5l-0.2,0.8c1.2-0.4,0.1-2.4,2.1-2.1l-1.3-0.8c3.3-1.4,7-1.8,9.1-5l1.3-0.9l-3.4-0.5l-0.4,0.5
	l1.2,0.6l-0.2,0.4c-0.4-0.3-1.1-0.5-1.3-0.9c-0.5-0.8-1.1-0.6-1.7-0.2c-1.3,0.9-2.6,1.9-3.9,2.9c-0.3,0.1-0.6,0.2-0.8,0.3l0,0
	c0.4-0.6,0.9-1.1,1.4-1.6c0.7-0.7,1.6-1.3,2.3-1.9l-0.2-0.4l-2.1,0.6l0.6,0.8c-2.5,0.3-6.3-2.6-6.8-4.4c1.8,1.8,3.3,3.4,5.8,3.6
	c-0.1-0.4-0.4-0.8-0.7-1.1c-0.5-0.4-1.1-0.5-1.5-1c-1.7-2.1-3.3-4.3-4.8-6.6c-0.3-0.5-1.1-1.3-0.5-2.1l0,0c1.3,2,2.5,4,3.8,5.9
	c0.9,1.2,1.6,2.5,3.1,3.3c1.1,0.5,2.3,0.5,3.4,0c0.2-0.2,0.3-0.6,0.2-0.9c-0.6-0.8-1.1-1.7-1.6-2.6c0.8,0.3,1.6,0.8,2.2,1.4
	c0.6,0.8,1.2,0.6,1.9,0.5c0.4,0,0.8,0,1.2,0.2c0.9-0.4,0.5-0.9-0.2-1.1c-2.2-0.9-3.7-2.8-5.4-4.4c-0.2-0.2-0.3-0.6-0.2-0.9l3.2,3
	l0.3-0.3l-1.1-1.5l0.2-0.2c1.2,0.9,2.4,1.8,3.5,2.7c1.1,1,2.6,1.3,4,0.8c-0.4-1.3-4-3.6-5.2-3.4c-1-1.1-2-2-2.8-3.1
	s-1.5-2.4-2.2-3.6l0.3-0.2l2.9,4.1c0.7-1.4,1.2-2.6,1.8-3.7l0.4,0.2c-0.2,0.9-0.6,1.8-1,2.7c-0.6,1-0.5,1.6,0.4,2.2
	c1.2,0.8,2.4,1.4,3.7,2l-0.3-0.6l0.2-0.2c0.4,0.3,0.8,0.5,1.1,0.8s1,1.1,1.1,1c0.8-0.3,1.5-0.8,2-1.4c1-1.5,1.6-3.1,2.6-4.6
	s0.8-2.8,0.6-4.4c-0.6,2-2.8,3.1-3.1,5.3c-0.1-1.3-1-2.5-2.3-2.8l0.4,1.6l-0.4,0.1l-0.6-2.2c-1,0.5-1.1,0.6-0.6,1.3
	c0.9,1.1,1.8,2.1,3,3.4l0.5-1.5c0.9,0.9,0.3,1.9,0.2,2.9c-1.8-1.4-2.7-3.6-5.1-4.2c-0.4,0.7-0.8,1.5-1.3,2.1c-0.2,0.2-0.6,0.3-1,0.5
	c0-0.3,0.1-0.7,0.2-1c0.5-0.9,1.1-1.8,1.7-2.7c0.1-0.3,0.1-0.6-0.1-0.9c-0.1-0.2-0.4-0.5-0.3-0.6c0.4-1.3,0.1-2.6-0.6-3.7
	c-0.7-1.2-1.1-2.6-1.4-3.9c0.2,0.1,0.4,0.3,0.5,0.5c0.4,0.8,0.8,1.7,1.2,2.6c0.4,0.9,0.9,0.9,1.4,0.1c-0.4,0.8-1.1,1.6,0.4,2.2
	c0.2-0.4,0.4-0.9,0.5-1.4c0-0.5-0.1-1.2-0.9-0.8c0.3-0.6,0.5-1.3,0.7-2c0-0.7-0.1-1.4-0.2-2.1l0.7,0.3c-0.7-1.8-1.8-3.4-3.1-4.7
	c-3.1-3.5-5.6-7.5-7.4-11.8c-0.3-0.6-0.6-1.1-1.1-1.6c0.6,5,2.3,9.7,4,14.4c-1.3-1-0.8-3-2.2-3.8c-0.3-1.1-0.2-2.5-0.9-3.1
	c-1-0.8-0.7-1.9-0.9-2.7c-0.8-2.5-1.2-5.2-1.8-7.8c-0.8-4.1-1.8-8.2-2.4-12.4c-0.3-2.4-0.4-4.8-0.3-7.2c0-1.1,0.7-2.1,1.8-2.4
	c0.1,0.9,0.2,1.7,0.2,2.5c0.1,2.6,0.3,5.2,0.2,7.9c0,5.1,1.2,10.1,3.7,14.5c0.4,0.9,0.9,1.8,1.4,2.6c0.1,0.1,0.3,0.2,0.7,0.4
	c2.5,3.8,4.6,8.3,7.6,12.2l0.4-0.1c0.1-0.4,0.2-0.8,0.2-1.2c0.2-2.4-0.3-4.8-1.6-6.9c-1.2-1.9-2-4.2-3.1-6.2s-2.5-3.8-3.7-5.8
	c-0.1-0.3-0.3-0.6-0.4-0.9c1.3,0.7,0.9,2.6,2.9,2.6l-5.2-8.4l-0.3,0.1l1.2,6.7l-0.3,0.1c-1.4-4.1-1.9-8.5-2.4-12.8s-1-8.8,0.2-13.2
	c0.1,3.3,0.2,6.7,0.2,10h0.3c0-0.4,0.1-0.7,0.2-1.1s0.1-0.6,0.1-0.9h0.3c-0.1,0.9-0.1,1.8,0,2.7c0.1,1.8,0.4,3.5,0.8,5.3
	c1.3,5,4.3,9.1,7.1,13.3c1.7,2.4,3.6,4.5,5.7,6.5l-1-2.6l0.8,0.5l-0.3-3.2l0.2-0.1c0.4,1.3,0.8,2.6,1.2,4c0.4,2.1,1.4,4.1,2.8,5.8
	c0.5,0.8,1,1.7,1.4,2.6c0.1-1.3,0.2-2.6,0.2-4c-0.1-0.8-0.2-1.6-0.4-2.3c0-0.2,0-0.5,0-0.7c0-0.7,0-1.3-0.1-2c-0.3-1-0.7-2-1.1-3
	c-0.6-1.8-1.1-3.7-1.7-5.5c-0.6-1.8-1.2-3.6-2-5.4c-1.6-3.3-2.2-7-3.3-10.4c-0.2-1.2-0.3-2.4-0.2-3.6c-0.1-2.4-0.3-4.7-0.5-7.1
	c0-0.4,0.1-0.7,0.1-1.1l0.9,0.9c-0.3-1.1,1.1-2.3-0.5-3.4l-0.2,2.5l-1-0.4c-0.4,1.1-0.7,2.3-1.2,3.4c-0.1,0.3-0.4,0.5-0.5,0.8
	c-0.1,0.4-0.2,0.8-0.2,1.1c-0.3,0.6-0.5,1.3-0.6,2c0.1,1.8,0.3,3.6,0.5,5.4c0,0.4,0.2,0.9,0.2,1.3l-0.3,0.1
	c-0.2-0.6-0.4-1.3-0.6-1.9c-1.1-3.3-0.8-6.9,0.6-10c0.6-1.2,1.4-2.4,2.1-3.6c0.7-1,0.7-2.3,0.1-3.4c-0.2-0.4-0.3-0.9-0.3-1.3
	l0.4-0.2l1.3,2.5c2.1-2.5,4.6-4.8,5.9-8.1l0.6,0.2c-5,8.6-6.3,17.6-3,27.2c0.1-0.1,0.2-0.3,0.3-0.4c0-0.1,0-0.2,0.1-0.4l0.4-0.1
	c0.3,1.2,0.6,2.4,1,3.5s0.5,2.6,1.7,3.5c0.6-2-0.7-3.8-0.3-5.7h0.4c0.4,1.9,0.7,3.7,1.2,5.6c0.9,3.3,1.8,6.6,2.8,9.8
	c0.1,0.3,0.5,0.5,0.8,0.8V180h0.1c0.1-0.9,0.1-1.7,0-2.6c-0.3-0.7-0.6-1.4-1-2c-0.2-0.4-0.6-1,0.4-1c0.1,0,0.2-0.4,0.4-0.8l-1.4,0.2
	l-0.4-1.2l1.6,1c-0.1-1.4-0.1-2.9,0-4.3c0.2-1.3,0.1-2.7-0.4-4c-0.3-0.6,0.2-1.6,0.2-2.4c-0.1-2-0.3-3.9-0.3-5.9
	c0-1.1,0.3-2.2,0.2-3.2c-0.2-1.9-0.6-3.8-0.8-5.7c-0.1-0.5,0.3-1.1,0.2-1.6c-0.2-0.7-0.5-1.4-0.9-2c-0.6-1.1-1.1-2.2-1.5-3.4
	c1,1.1,1.9,2.3,2.8,3.5c0.9,1.4,1.7,3,2.5,4.5c0.2,0.4,0.1,1.1,1,0.9c0.1,0.2,0.2,0.4,0.3,0.6c0.6,2.1,1.3,4.2,1.9,6.3
	c0.2,0.4,0.5,0.8,0.9,1.1v-1.9h0.5l-0.2,2.8l0.5-0.2c0.3,1.5,0.3,1.5-0.1,1.8c0.2,0.3,0.4,0.7,0.6,1.1c0.5,1.9,0.9,3.8,1.5,5.6
	c0.6,1.8,1.2,3.5,2,5.2c0.7,1.6,1.6,3.2,2.4,4.8l-0.9,0.7l-1.8-3.9l-0.3,0.2c0.5,1.2,1,2.4,1.4,3.6c0.1,0.5,0.1,0.9,0.1,1.4L152,179
	l3.4,6.6c0.9-3.7,0.9-3.8-0.9-4.3l1.9-0.5l0.2-0.9h0.2l0.1,1.2c0.6-2.9,2.1-5.6,0.9-8.8l-0.5,5.4l-0.3,0.1c-0.1-0.3-0.2-0.6-0.2-0.9
	c0.6-3.3,0.1-6.5-0.2-9.8c0-1.6-0.3-3.1-0.9-4.6c-0.9-2.1-2-4.1-3.1-6c-1-1.6-2.4-2.8-3.3-4.5c-0.9-1.5-2-2.8-3.1-4.2
	c-0.7-1.2-1.2-2.5-1.6-3.8l0.4-0.2c0.6,0.7,1.1,1.4,1.6,2c0.6,0.6,1.3,1.2,1.9,1.7c3,2.3,4.6,5.4,6,8.8c0.5,1.3,1.1,2.6,1.7,3.9
	c1,2.2,1.9,4.5,3,6.8c1.5-0.8,1-2.1,1.1-3.1c0.1-1.4,0-2.9-0.5-4.3c-0.7-2.5-1.6-5-2.8-7.3c-0.7-1.5-1.4-3.1-1.8-4.8
	c-0.5-1.6-1.2-3.1-2-4.6c-1.8-3.5-3.7-7-5.6-10.6c-0.2-0.5-0.4-1-0.7-1.5c0,0,0.1-0.1,0.3-0.3c0.7,1.4,1.4,2.7,2.2,4
	c1,1.9,2,3.7,3.1,5.5c0.4,0.5,0.9,1,1.6,1.3c-1.7-5.2-4-10.3-6.6-15.1l0.4-0.2l5,7.9l0.3-0.1l-4.1-8.4l0.2-0.2l2.4,3.3l-0.4-2.9
	l1.6,0.4l-0.8-1l0.2,0.1l-0.9-4.2c1.4,0.9,1.8,2.2,2.5,3.6c0.6-1.9,1.4-3.8,1.9-5.8c0-0.6-0.2-1.2-0.5-1.8c-0.4-0.9-1-1.7-1.5-2.6
	l0.3-0.2l2.2,2.6l1.4-7.4l0.2-0.1c0.2,0.4,0.3,0.9,0.4,1.3c0.1,0.6-0.1,1.2-0.1,1.8c0.1,0.4,0.3,0.7,0.5,1c0.1,0.2,0.2,0.4,0.1,0.6
	c-0.2,0.8-0.5,1.7-0.8,2.5c-0.7,1.6-0.6,2.1,0.7,3.2c0.6,0.5,1.3,0.9,2.2,1.5l0.4-3.3c0.3,2,0.7,4,1.2,6c0.7,1.9,1.7,3.8,2.8,5.5
	c0.1-4.3-0.8-8.6-2.8-12.4l0.4-0.2l1.6,3.3c-0.1-3.5,0.6-7,2.1-10.1l0.8,1.4l-0.3,0.1c-0.1-0.1-0.1-0.3-0.2-0.6
	c-1,2.6-1.9,5-1.2,7.9l0.3-1.3h0.3c0.1,1.1,0.1,2.1,0,3.2c-0.3,3,0.1,6.1,1,9c0.1,0.4,0.5,0.7,0.7,1c0.3,0.3,0.4,0.7,0.5,1.1
	c0.2,2.5,0.7,5,1.6,7.3c0.3,0.8-0.1,1.8-0.2,2.7c-1.3-3.1-1.1-6.8-4.1-9.3c1.7,4.6,2.2,9.4,4.6,13.9l0.2-1.2l1.4,6.4h0.4l0.8-4
	l0.6,0.1c-1.1,4.4-0.5,8.8,0.4,13.3c3.2-4.7,3.6-10.2,4.8-15.5c1.4-0.2,1.5-0.5,1.5-0.8c0.1-0.5,0.3-1.1,0.4-1.6
	c0.2-0.3,0.6-0.5,0.8-0.9c0.1-0.2,0.1-0.4,0.1-0.6c0.1-0.5-0.1-1.2,0.2-1.6c1.5-2.3,0.9-4.8,1.1-7.3c0-0.4,0.1-0.9,0.2-1.3v9.6
	c-0.9,1.4-1.6,3.9-1,4.8l3.2-8.6l-0.3-0.2l-1.1,2.5l-0.4-0.1c0.2-0.8,0.4-1.5,0.7-2.3c2.1-5.6,4-11.3,4.6-17.4
	c0.1-1.1,0.2-2.1,0.4-3.2c0-0.3,0.3-0.8,0.5-0.8c0.7,0,0.1,0.5,0.1,0.6c0.9,0.9,0.2,1.7-0.1,2.6c-0.1,0.6-0.2,1.3-0.2,1.9
	c-0.2,2.1-0.4,4.3-0.7,6.4c-0.3,1.8-0.4,3.5-0.4,5.3c0.7-2.2,1.3-4.4,2-6.6c0,0-0.3-0.1-0.6-0.2c0.4-0.5,1.7-0.6,0.7-1.7
	c-0.1-0.1,0.3-0.8,0.4-1.2c0.5-2.1,1-4.1,1.5-6.2c0-0.1,0.2-0.2,0.4-0.5v1.9l0.3-0.2c0.2,0.3,0.5,0.6,0.5,0.8
	c-0.6,2.1-1.2,4.2-1.9,6.3c-0.4,1.3-0.7,2.6-1.1,3.9c0.9,0.1,1-1.5,2-0.6l0,0l-2.9,4.7c-0.1,0.2-0.2,0.4-0.3,0.5c-2.1,1-2.6,3-3,5.1
	c-0.1,0.5-0.1,0.8-0.8,1.1s-0.9,1.5-1.5,2.4c1.5-0.2,1-1.7,2.1-2.1c0.8-0.3,1.1-1.6,1.5-2.1c0.5-0.4,0.9-0.8,1.3-1.2
	c1-1.2,1.9-2.4,2.9-3.6c0.1-0.1,0.3-0.1,0.7-0.2c-0.5,1.9-2.6,2.8-2.6,4.6c-0.6,0.4-1.2,0.9-1.8,1.4c-0.8,0.8-1.5,1.7-2.1,2.6
	c-0.3,0.5-0.6,0.9-0.8,1.4c-0.1,0.2-0.4,0.7-0.5,0.7c-1.8-0.2-1.4,1.4-1.9,2.2c-0.1,0.4-0.2,0.7-0.2,1.1l0.3,0.2l1.6-2.7l0.5,0.8
	c1.3-1.5,2.6-2.8,3.7-4.2s2.1-3,3.1-4.6c0.4,1.7-0.8,2.8-1.6,4c-1.2,1.9-2.3,3.8-3.4,5.7c-0.8,1.4-1.6,2.9-2.3,4.4
	c-0.2,0.4-0.4,0.8-0.5,1.2l0.3,0.2l5.4-7.5l0.1,0.7l0.6-0.3c-3.8,4.8-6.9,10.1-9.1,15.9c0.7-0.7,1.4-1.5,2.1-2.3c2.1-3,4.1-6,6.2-9
	c0.3-0.4,0.5-0.7,0.9-1l0,0c-0.5,1.1-1,2.2-1.6,3.2c-0.8,1.3-1.6,2.5-2.4,3.8c-0.1,0.3-0.2,0.7-0.1,1l0.3,0.1l0.8-1l-0.1-0.1
	c0.5-0.4,0.9-0.9,1.4-1.4c1.7-1.8,3.3-3.6,5-5.4c0.1-0.1,0.3-0.1,0.4-0.1l0.2,0.3c-0.9,0.7-1.7,1.4-2.4,2.3
	c-0.5,0.8-1.8,1.3-1.8,2.8c0.8-0.5,0.8-1.6,1.4-1.1c0.4-0.5,0.8-0.9,1.2-1.3c2.9-2,4.4-3.9,5.2-6.3l-1.5,0.7
	c0.9-1.1,1.7-2.4,2.4-3.6c1-2.2,1.8-4.4,2.5-6.7s1.4-4.4,2.1-6.6c0.3-0.7,0.5-1.4,0.6-2.1l-3.8,6.1l-0.4-0.2c2.7-5,5.5-10,6.5-15.8
	l-4.4,6.4l-0.3-0.1c0.1-0.5,0.3-1.1,0.5-1.6c2.7-4.4,4.9-9.1,6.5-14c0.9-2.7,1.1-5.7,1.6-8.6c0.3-1.6,0.6-3.2,0.9-4.8
	c0.5-2.1,0.7-4.2,0.8-6.3c-0.1-1.6-1-3.1-1.6-5c-0.9,1.9-1.2,4-0.7,6c0.2,0.7-0.3,1.6-0.5,2.4c-0.6,2.6-1.1,5.2-1.6,7.8
	c1.3-2.8,1.7-6,3.1-8.8l0.5,0.2c-0.1,0.5-0.2,1.1-0.4,1.6c-1.1,3.3-2.2,6.5-3.3,9.8c-0.1,0.2-0.2,0.3-0.4,0.4
	c-0.8,0.4-1.8,0.5-2.1,1.6c-0.5,1.4-1.1,2.8-1.9,4.1c-0.1,0.2-0.3,0.3-0.6,0.4c4.2-9.4,6.2-19.5,6.1-29.8c0.9,0.9,1.4,2,1.5,3.2
	c0.4,0.2,0.9,0.3,1,0.6c0.8,1.8,1.4,3.7,1.8,5.7c0.2,1.1,0,2.2-0.5,3.2c-1.1,2.6-1.2,5.4-1.6,8.1c-0.1,1.2-0.4,2.4-0.5,3.6
	c-0.1,3-0.2,6-0.2,9c0.1,4.6-0.7,9.2-2.1,13.5c-0.7,2.3-1.5,4.5-2.4,6.7c-1.1,2.4-2.5,4.6-3.7,6.9c-0.2,0.7-0.4,1.3-0.6,2
	c-1.4,3.4-3.4,6.6-5.9,9.4c-0.3,0.3-0.9,0.4-1.2,0.6c-0.7,0.6-1.3,1.3-2,1.9c-1.9,1.8-3.8,3.5-5.5,5.4c-1.4,1.4-2.4,3.1-3.7,4.6
	c-0.5,0.5-1.1,0.9-1.7,1.3c-0.6,0.4-1.1,0.8-1.7,1.2c-0.1,0.1-0.3,0-0.5,0c1.6-1.6,3.2-3.1,4.7-4.8c0.5-0.6,1-1.3,1.3-2l-0.3-0.2
	c-0.6,0.4-1.1,0.9-1.6,1.4c-1.1,1.3-2.9,2-3.6,3.7c-0.2,0.6-0.4,1.3-0.6,1.9l-1.8,3.3l0.4,0.3c1.2-0.9,2.6-1.5,3.4-2.6
	c2-3.1,4.6-5.7,7.7-7.9c0.3-0.2,0.8-0.4,1.2-0.4l-6.3,5.8l0.3,0.4c3.1-2.4,6.3-4.7,9.2-7.4s5.3-5.5,8.2-8.5l-0.2,0.9
	c-0.2,1.1-0.5,2.2-0.8,3.2c-0.5,1.5-1.1,2.9-1.9,4.2c-0.9,1.6-2,3.1-3,4.6c-0.1,0.3-0.2,0.6-0.2,0.9l4.6-3.9l0.2,0.2
	c-0.6,0.7-1.2,1.4-1.9,2.1s-1.3,0.9-1.1,2c0.1,0.4-0.9,0.9-1.4,1.3c-2,1.7-3.9,3.3-5.9,5c-1.2,1-2.4,2.3-3.8,2.6
	c-2.1,0.6-3.3,2.2-5,3.1s-3.5,2.2-5.3,3.3c-0.1,0.1-0.1,0.2-0.1,0.4l3.7-1.8c2.8-1.3,5.5-2.6,8.2-4c2.9-1.6,5.8-3.2,7.2-6.4
	c0.3-0.5,0.6-0.9,1-1.3l0.3,0.2l-1,2l0.2,0.1l1.9-2.7c0.4,2.1-1,3.4-2,4.7c-0.7,1-0.8,1.1-0.5,1.6l-2,2.4l0.2,0.3l3.7-3.2l0.3,0.4
	l-3,3c3.5-1,6.3-3.4,10-3.2l-7.3,6.4c-0.1,0.1-0.3,0.2-0.3,0.2c0.4,1.8-1.3,2.1-2.2,2.9c-0.8,0.6-1.5,1.3-1.9,2.3
	c-0.1,0.4-0.7,0.7-1,1.1c-0.5,0.9-1,1.8-1.4,2.8c3.8-2.4,7.5-5.1,12.2-5.5c-3.3,0.9-6.4,2.5-9.1,4.7h7.2v0.2
	c-0.8,0.2-1.6,0.4-2.4,0.5c-2.4,0.4-4.9,0.6-7.3,1.1c-0.6,0.1-1.1,0.6-1.4,1.2c-0.3,1.4-1.5,1.7-2.3,2.4c-0.4,0.4-0.9,0.7-1.3,1
	c-1.3,1.1-2.6,2.3-4.1,3.6c0.4,0,0.7,0,0.8-0.1c0.8-0.8,1.9-1,2.5-2c0.6-0.7,1.3-1.3,2.1-1.8c0.9-0.7,1.7-1.4,2.6-2.1
	c0.2-0.2,0.2-0.6,0.3-1l1.5-0.3c-2.6,4.6-6.9,7-10.9,9.7l0.3,0.4l3.5-2.2c0.2-0.2,0.4-0.3,0.7-0.5c1.7-0.7,3.4-1.4,5.2-2
	c2.3-0.6,4.8-0.5,7.1,0.4c-1,0-2.1,0.1-3.1,0c-1.8-0.1-3.5,0.4-4.9,1.5c-1.4,0.9-3.1,1.4-4.6,2.3s-2.8,2-4.2,3
	c-0.3,0.2-0.5,0.5-0.6,0.8l11.3-4.8l0.1,0.2l-2.5,1.6l1.3,0.2l0.1,0.4c-1.1,0.5-2.1,1.1-3.2,1.6c-2.2,1-4.6,1.8-6.7,2.9
	c-1.3,0.7-2.2,2-3.4,3c-1.5,1.2-3.1,2.5-4.7,3.6c-1.9,1.3-3.9,2.5-5.9,3.7c-3,1.8-6.1,3.5-9.2,5.3c-0.5,0.3-0.9,0.6-1.3,1.1
	c3.4-1.2,6.7-2.6,9.9-4.3c3.2-1.7,6.6-3.1,10.1-4.8c0.3-1.1,0.6-1.3,2.2-1.2c0.4-0.1,0.7-0.2,1-0.4c0.4-0.2,0.8-0.4,1.2-0.6l0.4,0.3
	c-0.3,0.5-0.6,1-1,1.5c-0.9,0.7-1.9,1.1-2.4,2.5c-0.4,1.1-1.7,1.9-2.6,2.9c-0.2,0.3-0.4,0.7-0.5,1.1l-2.6,2.1l0.2,0.3
	c1.1-0.6,2.3-1.2,3.5-1.7c0.3-0.1,0.7,0,1-0.1c1-0.2,1.9-0.4,2.9-0.7c0.4-0.2,0.8-0.3,1.1-0.4l-0.4,0.6l0.1,0.3l7.3-1.9l0.1,0.4
	c-0.2,0.2-0.4,0.4-0.6,0.5c-1.2,0.4-2.2,1.2-2.8,2.3c-0.2,0.3-0.4,0.5-0.7,0.6c-2.4,1-4.7,2-7.1,3.1c-0.4,0.2-0.9,0.5-1.3,0.7
	c-2.7,0.4-5.1,1.8-7.6,2.1c0,0.2,0,0.4,0,0.6c-0.8,0.2-1.7,0.3-2.5,0.6c-0.3,0.1-0.6,0.4-0.9,0.6s-0.4,0.3-0.5,0.3
	c-1.6-0.5-2.8,0.6-4.1,1c-2.1,0.7-4.2,1.3-6.4,1.7c-1.8,0.4-3.7,1-5.4,1.7c-1.2,0.4-2.2,0.9-3.3,1.6l10.1-1.7l0.1,0.3
	c-1.6,0.3-3.2,0.7-4.8,1s-3.3,0.5-4.9,0.9s-3.2,1-4.9,1.5c0.2,0.9-0.1,1.3-0.9,1.4c-0.9,0-1.9,0.3-2.5,1c-0.6,0.7-1.8,0.8-2.8,1.1
	c-0.2,0.1-0.3,0.2-0.5,0.4c0.2,0.1,0.5,0.3,0.7,0.3c2.2-0.8,4.4-1.6,6.6-2.3c3.5-1.1,7-2.2,10.5-3.3c0.2,0,0.4,0.3,0.5,0.3
	c0.5-0.4,1-0.7,1.6-1c1.1-0.4,2.2-0.6,3.2-1c1.9-0.8,3.6-1.8,5.5-2.6c1.4-0.6,2.9-1,4.4-1.5l0.4,0.4l-0.8,0.3l0.1,0.2l7-2.4l0.1,0.2
	l-2,1.1c5.2,0,10-1,14.8-0.1v0.3l-8.9,0.4l-0.1,0.2l1.2,0.5c-0.4,0.1-0.9,0.1-1.3,0.1c-3.7-0.3-7.1,0.9-10.4,2.1
	c-0.9,0.3-1.4,1.7-1.9,2.3l3.4-0.5l0.1,0.4c-4.6,1.4-9.6,1.4-13.8,4.8c0.4-1.1,2.3-2.4,3.2-2.9c2.5-1.1,5.3-1.8,7-4.2
	c0.4-0.6,1.3-0.8,2-1.2l-0.1-0.3c-1.9,0.9-3.8,1.7-5.6,2.8c-2.3,1.4-4.5,2.9-6.7,4.4c-0.4,0.2-0.8,0.2-1.2,0.1l3.4-2.4l-0.1-0.2
	l-27.9,8.2l0.1,0.5l11.8-3.5c3.9-1.1,7.8-2.2,11.8-2.2l0.1,0.6c-0.9,0-1.9,0.1-2.8,0.3c-1,0.3-2.1,0.6-3.1,1c-1,0.4-1.9,0.9-2.8,1.4
	c1.7,0,3.3,0.1,4.9-0.8c0.3-0.2,0.8-0.8,1.1,0.1c0.3,0,0.6,0,0.8-0.1c0.4-0.1,0.8-0.2,1.2-0.4l0.2,0.3l-6.3,3l0.1,0.3h2.8v0.2
	l-4.7,0.7v0.2l1.6,0.5c-2.2,0.4-4.2,0.7-6.2,1.1s-4,1.1-6,1.6c-0.2-0.7-0.6-0.7-3.2,0.8l7.3-0.5v0.3c-1.1,0.2-2.1,0.5-3.2,0.7
	c-0.9,0.1-1.7,0.1-2.6,0.3c-3,0.7-6,1.5-9,2.3c-1.8,0.5-3.6,1.2-5.3,1.7c-0.6,0.2-1.4,0.6-1.8-0.4c-0.1-0.2-1.1,0-1.7-0.1
	c-1.2-0.2-2.4-0.6-3.6-0.9c-0.3-0.1-0.5-0.1-0.8,0c-0.7,0.1-1.3,0.3-2.3,0.5c0.7,0.5,1.4,0.9,2.2,1.3c1.4,0.3,2.9,0.6,4.3,0.8
	c0.3,0,0.5-0.1,0.8-0.3c0.7-0.7,1.2-0.5,1.7,0.2l-3.2,0.9c1.6,1,3.1,0.5,4.7,0.4l-1.3,0.5l1.7,0.6v0.4c-4.6-0.9-8.7,1.1-13,1.8v0.4
	l2.5,1l-0.1,0.3c-1.2-0.4-2.4-0.7-3.7-1c-1-0.2-1.9-0.2-2.9-0.5c-0.6-0.2-1.2-0.5-1.8-0.7c-0.4-0.1-0.8-0.2-1.2-0.1
	c1,0.9,2.4,1.2,3.5,2.2s2.8,0.9,4.2,1.6c-1.7,0.1-3.3,0.2-5,0.4c-1.4,0.2-2.9,0.5-4.3,0.7c-0.5,0-1.1-0.1-1.6-0.3
	c-0.4,0-0.9-0.1-1.3-0.2l-5.5-1.4l-0.1,0.2c0.3,0.1,0.5,0.1,0.8,0.2c0.7,0.3,1.5,0.8,2.1,1.2c0.5,0.5,1.2,0.8,1.8,0.7
	c0.8,0,1.5,0.3,2.1,0.8c0.8,0.6,1.6,0.3,2.4,0.2c0.4-0.1,0.9-0.1,1.3-0.1l0.1,0.4c-1.4,0.4-2.7,0.8-4.1,1.1c-0.3,0-0.7,0-1-0.1
	c-1.6-0.2-3.1-1.1-4.8-0.1c-0.4,0.2-1.5-0.1-2-0.5c-1.3-0.9-2.7-0.4-4-0.5c-0.4,0-0.8-0.1-1.2-0.2c-1.1-0.2-1.3-0.8-0.7-1.7
	c0.2-0.2,0.1-0.6-0.1-1.2c-1.1,0.7-2.3,1.4-3.5,2c-1.3,0.5-2.6,0.9-3.9,1.2l-3,0.9c-0.8,0.2-1.5,0.3-1.7-0.9
	c-0.1-0.4-0.5-0.8-0.8-1.2c1.3-2,3.2-3.5,5.3-4.4c0.5-0.2,0.9-0.8,1.5-1c0.9-0.3,1.8-0.6,2.7-0.8l-0.7,2.1c-1.5,0.7-2.9,1.4-4.4,2.1
	c-0.2,0.2-0.4,0.5-0.4,0.8c0,0.1,0.5,0.4,0.7,0.4c1.3-0.3,2.8-0.4,3.9-1.2c0.7-0.5,1.2-1.4,2.2-1.6c0.5-0.1,1-0.4,1.4-0.2
	c2.1,0.6,3.6-0.8,5.2-1.6c2.1-1.1,4.1-2.4,6.1-3.7c0.2-0.3,0.4-0.6,0.4-1c0.1-0.4,0.1-0.9,0.1-1.3l0.9,1c0.1,0.1,0.2,0.3,0.4,0.5
	c1-0.6,1.8-1.1,2.7-1.7c1.3-0.9,2.7-1.7,3.9-2.6c2.7-2.1,5.2-4.3,7.8-6.4c1.7-1.4,3.6-2.6,5.3-3.8c0.2-0.1,0.4-0.1,0.7-0.1l0.2,0.3
	c-0.3,0.3-0.7,0.6-1.1,0.8c-0.6,0.4-1.2,0.6-1.8,1C109.8,241.5,109.9,241.9,109.8,242.2l-2.1,1.2l0.2,0.4l2.4-1.2L109.8,242.2z
	 M177.7,201.1c1.3,0.9-0.6,1.1-0.4,1.9c1.4-0.5,2.6-1.6,3.3-3L177.7,201.1l-3,1.4c0.4,0.2,0.9,0.2,1.4,0.1
	C176.9,202.4,177.8,202.2,177.7,201.1z M138,219c1.5-0.6,2.6-1.8,3.1-3.2c-0.9,0.5-1.7,1-2.5,1.6C138.2,217.8,138.2,218.5,138,219
	c-1.2-0.7-2.1-0.2-2.7,1.4L138,219z M162.9,170.4v-3h-0.3l-0.5,3.6l0.3,0.1L162.9,170.4c0,0.2,0.1,0.4,0,0.5
	c-0.7,1.3-0.8,2.8-1.3,4.1c-0.4,1.2-0.6,2.5-0.8,3.7c-0.6,2.4-1.1,4.9-1.7,7.3c-0.4,0.9-0.8,1.8-1.3,2.7l-2.4-1.1
	c0.1,0.5,0.2,1,0.4,1.4c0.3,0.4,0.7,0.9,1.1,1.3c0.8,0.9,1.2,0.9,1.8-0.1s1-2.4,1.6-3.6l0.4,0.5c0.2-0.4,0.4-0.8,0.6-1.2
	c1.1-3.8,3-7.4,2.9-11.4c0-0.5,0.5-1.1,0.8-1.6l0.3,0.1c-0.1,2-0.2,4-0.3,6.2c1-1.3,1.3-10,0.5-11.4l-1.1,0.8
	c0.2-0.7,0.4-1.4,0.6-2.2c0.2-1.3,0.1-1.6-0.9-2.4l0.3,4.5v2.2h-0.2l-0.5-1.2L162.9,170.4z M150.2,180.4c1.1,3.8,2.1,5.6,3.9,6
	c0-0.6,0-1.2-0.2-1.9c-0.8-2-1.7-4-2.8-5.9c-0.7-1-1.1-2.1-1.1-3.3c0-0.2-0.1-0.4-0.2-0.6c-0.5-1.1-1.1-2.2-1.4-3.3
	c-0.7-2.2-1.4-4.4-2.1-6.7l0.9-0.1c-0.5-2.2-1-4.4-1.6-6.5s-1.9-3.5-2.5-5.5l-0.4,0.2c0.8,3.7,1.7,7.3,2.5,11L145,164
	c-0.2-0.4-0.3-0.8-0.4-1.2c-0.8-3-1.5-5.9-2.3-8.9c-0.3-1.2-0.2-2.7-1.7-3.6l0.3,2.3c0.2,1.5,0.5,2.9,0.6,4.4
	c0.1,1.1-0.3,2.3-0.3,3.4c0,0.6,0.2,1.1,0.6,1.6c0.6,0.4,0.8,1.2,0.5,1.8c0,0.1-0.1,0.1-0.1,0.2c-0.5,0.7-0.3,1,0.4,1.3
	c0.2,0.1,0.2,0.5,0.4,0.7l-0.4,0.2c0.2,0.4,0.3,0.8,0.4,1.2c0.4,1.7,0.9,3.4,1.2,5.2c0.2,0.9,1.1,1.6,0.5,2.6
	c-0.1,0.1,0.1,0.4,0.2,0.6c1.1,2.7,2.2,5.5,3.4,8.2c0.6,1.1,1.3,2.3,2.1,3.3c0.4-2.2-0.1-4.4-1.3-6.3l1,1.1L150.2,180.4z
	 M144.1,242.3l-0.1-0.4c-4.8,0.9-9.6,2.2-14.1,4.1l5.1-3.4l0.2,0.3l-1,0.9l0.2,0.3l4.5-2.7c-0.2-0.2-0.5-0.2-0.8-0.1
	c-0.9,0.2-1.8,0.5-2.7,0.8c-2.8,1.1-6,1.3-8.5,3.2c-0.2,0.1-0.4,0.1-0.6,0.1c-0.8,0.1-1.5,0.1-2.3,0.2c-0.5,0.1-1.3,0.3-1.4,0.2
	c-0.5-0.9-1.2-0.4-1.8-0.4c-2.6,0.2-5.1,0.6-7.8,0.9c4,1.9,8.2,1.5,12.3,1.5v0.4l-14.2,3.1l0.8,0.5c1.8,1.1,3.6,0.3,5.4-0.1
	c2.4-0.6,4.7-1.5,7.1-2.3c1-0.3,2.1-0.5,3.1-0.9c3.9-1.3,7.7-2.7,11.6-4.1C140.6,243.8,142.4,243,144.1,242.3z M163.4,188.1l0.3,0.1
	c0.3-0.3,0.6-0.7,0.9-1c1.7-2.2,3.3-4.5,5.1-6.7c0.8-1,1.3-1.9,0.8-3.1c0-0.2,0-0.5,0.2-0.6c1.3-1.5,1.7-3.5,3.1-4.9
	c1-1.2,1.9-2.4,2.7-3.8c0-0.1,0.1-0.1,0.3-0.1l0.5,0.6l0.6-0.9l-0.9-0.1l2.6-3.7l-0.2-0.1l-2.8,1.6c0.2-0.5,0.2-0.9,0.4-1
	c1-0.8,2-1.5,2.9-2.4c0.4-0.4,0.9-1.1,0.8-1.5c-0.2-0.8,0.2-1.1,0.6-1.6c0.7-0.8,1.2-1.8,1.8-2.6l-0.3-0.2c-1.5,1.7-3.4,3-4.4,5.2
	s-2.7,4.1-4,6.2c-1,1.8-2.3,3.4-3.8,4.7l0.2-1.4c-0.5,0.7-0.9,1.5-1.3,2.3c-0.3,0.7-0.6,1.3-1.1,1.8c-0.5,0.5-0.3,1.6-0.4,2.4h0.2
	l1.2-1.9l-1.1,6.6h-0.6l-0.2-5.3c-0.2,0.3-0.4,0.6-0.5,1c-0.9,2.2-1,4.6-2.2,6.8C164.2,185.6,163.8,186.9,163.4,188.1z M166.3,190.1
	l0.3,0.3c8-2.4,14.7-7.1,21.2-12.1c-0.2,0-0.4,0-0.6,0.1c-3.1,2.2-6.2,4.4-9.8,5.9c-0.6,0.2-1.1,0.3-1.7,0.4l-0.1-0.4
	c0.5-0.1,1-0.3,1.5-0.6c1-0.6,1.8-1.4,2.8-2c1.6-0.9,3.3-1.6,4.9-2.5c1-0.6,2-1.3,2.9-2c0.4-0.4,0.8-0.8,1.2-1.2
	c-2.2,0.5-3.4,2.5-5.5,2c-3.5,1.6-7,3.2-10.5,4.8c-0.9,0.4-1.9,0.4-2.4,1.4c-0.2,0.5-0.4,1-0.7,1.5c-0.6,1-1.2,1.9-2.1,3.1l-0.2-1.6
	h-0.2L166.3,190.1z M169.3,147.3l-0.4,0.1c0,0.4,0,0.8,0,1.2c0.7,4.4,0.7,8.9,0,13.3c-0.1,1.3-0.7,2.5-1.7,3.4l-0.3-1.3h-0.4v11.9
	l0.1,0.1l1.4-7.4h0.2v3.3l0.4,0.1l1.7-7.1l0.5,0.1l-0.3,2.8c1.8-2,1.5-4.2,1.6-6.5l0.6,1c-0.1-1.5,0.5-3.1-0.8-4.4
	c-0.4-0.4-0.2-1.4-0.3-2.2s-0.3-1.4-0.5-2.1c-0.1-0.4-0.3-0.7-0.4-1.1C170.3,150.5,169.8,148.9,169.3,147.3L169.3,147.3z
	 M189.7,181.9c-2,1.1-3.8,2.1-5.7,3.1c-1.5,0.8-3,1.6-4.5,2.3c-0.8,0.4-1.8,0.5-2.6,0.9c-0.9,0.5-1.8,1-2.6,1.6
	c-0.4,0.3-0.7,0.6-1,0.9l1.1,0.1c-2,1.2-3.9,2.1-5.8,3.1c-0.6,0.4-1.2,1-1.6,1.6c-0.1,0.2,0,0.6,0,0.9c0.2,0,0.3,0,0.5-0.1
	c3.4-2.1,6.8-4.1,10.2-6.2c0.5-0.4,0.9-0.9,1.3-1.4l-0.2-0.3l1.5,0.2c-0.1-0.2-0.3-0.4-0.3-0.4c1.9-1.2,3.5-3,6-3.2
	c-0.1,0.2-0.1,0.4-0.2,0.4c-6,4.8-12.6,8.9-19.5,12.3C170.4,197.5,189.3,184.9,189.7,181.9L189.7,181.9z M132.6,197.3l-0.3,0.2
	c0.2,1.6-1,3.4,0.8,5.1l-1.3-0.3l0.5,1.6l0.7-0.2c0.6,1.9,1.4,3.7,2.4,5.3l-0.9-0.9v3.4h-0.3c0-1.1-0.1-2.1,0-3.2
	c0.2-1-0.3-2-1.2-2.4c-0.1,0.1-0.1,0.2-0.1,0.3c-0.2,1.2,0.1,2.7-1.2,3.5c-0.1,0.1-0.1,0.7,0,0.8c0.8,0.6,1.6,1,2.5,1.4
	c1,0.3,1.6-0.6,2-1.4c0.7-1.7,1.2-3.4,1.7-5.1c0.1-0.8,0.1-1.7,0-2.5l-0.4-0.1l-1.4,4c-0.2-1.1,0.7-2-0.2-2.8l0.8-1.5L132.6,197.3z
	 M159.3,139.3l0.5-0.2c-1.1-4.1-2.2-8.2-3.4-12.6c2.8,3,3.3,6.8,5.4,9.8l0.3-0.1c-1-3.3-2-6.7-3-10l0.5-0.2l1.2,2.3
	c-1.1-3-1.8-6.2-4.1-8.7c-0.3,1.1-0.5,2.2-0.7,3.3c-0.5,3.2-1.3,6.3,0.7,9.4c0.2,0.5,0.4,1,0.6,1.5
	C158,135.7,158.6,137.6,159.3,139.3L159.3,139.3z M176.3,161.5l0.5,0.3c0.6-0.8,1.8-1.3,1.2-2.7c1.1-1,2.3-1.9,3.3-3s2.2-2,2.4-3.2
	c0.3-1.7,1-3.2,1.8-4.7c0.6-1.3,1.3-2.6,2-3.9c-1.9,1.4-3,3.4-5,4.6c-0.3,0.2-0.5,0.5-0.6,0.8c-0.8,1.8-1.5,3.7-2.4,5.5
	C178.5,157.4,177.4,159.5,176.3,161.5L176.3,161.5z M150.8,206.1l0.3,0.2c0.8-0.7,1.6-1.5,2.3-2.2s1.7-1.9,2.5-2.8
	c1-1.1,1.3-2.9,3.1-3.3c0.3-0.1,0.5-0.5,0.7-0.8c0.4-0.9,0.9-1.7,1.3-2.6c0.3-0.4,0.5-0.8,0.7-1.2c0.4-1.3,0.8-2.7,1.2-4l-0.6-1.1
	c-1,1.6-2,3.2-3,4.9c-1.2,2.1-2.1,4.3-3.4,6.4c-1,1.3-2.1,2.6-3.2,3.9C152,204.2,151.4,205.2,150.8,206.1z M162.3,132.1
	c0.9,2.7,0.8,5.6,2.5,7.9c0,0,0,0.1,0.1,0.2c0.4,1.9,0.9,3.8,1.4,5.6c0.8,3.6,1.7,7.1,2.5,10.8C168.3,148,167.6,139.5,162.3,132.1
	L162.3,132.1z M148,199.6c0.5-0.4,0.8-0.5,0.9-0.7c0.4-1.8,0.9-3.5,1.2-5.3c0.2-1.2-0.3-1.6-1.6-1.7c-0.4,0-0.7-0.2-1.1-0.2
	s-0.6,0.3-0.6,0.4c-0.1,0.8-0.1,1.6,0,2.3c0.1,0.4,0.5,0.8,0.8,1.2l0.5-0.1c-0.3,1.5-0.6,2.9-0.9,4.4c-0.2,0.9,0.3,1.4,1.1,1.3
	c0.9-0.2,1.7-0.5,2.5-0.9c0.4-0.3,0.6-0.8,0.7-1.3c0-0.8,0-1.6-0.1-2.4c0-0.7-0.1-1.5-0.2-2.2h-0.4c-0.3,1.1-0.7,2.2-1,3.4
	s-0.1,2.4-1.4,3.1L148,199.6z M145.9,184.8l-3.6-5.2c0,0.7,0,1.4,0.1,2.1c0,0.6-0.1,1.2-0.2,1.8c0,0.2,0,0.5,0.1,0.7
	c0.4,1.1,0.9,2.3,1.3,3.4c0.9,1.8,2.7,3,4.7,3.1c-0.7-1.1-1.3-2-2-2.9c-0.4-0.5-0.9-1-1.3-1.5C144.4,185.4,144.6,185,145.9,184.8
	L145.9,184.8z M163.1,154.7c1-2.8-3.5-15.4-7.1-19C158.4,142,160.8,148.4,163.1,154.7L163.1,154.7z M136,199.9l0.2-0.2
	c-0.1-0.2-0.3-0.3-0.4-0.5c-1-1.7-2.4-3.3-2.8-5.1c-0.1-1.4-0.6-2.8-1.4-4.1c-0.9-1.1-1.7-2.2-2.6-3.3c-0.7-0.9-1.4-1.7-2.1-2.6
	l-0.3,0.2l4.3,8.8l0.1-1.4l0.5-0.2c0.5,1.4,0.5,3,1.4,4.3C133.8,197.4,134.8,198.7,136,199.9z M154.2,209.2c0.9,0.2,1.7,0.6,2.3,0.4
	c1.8-0.5,3.6-1.2,5.4-1.9c0.5-0.2,1-0.5,1.4-0.8c-0.8-0.1-1.6-0.2-2.4-0.1c-1.1,0.3-2.2,1.3-3.4,0l1.3-0.4l-0.8-0.8
	c0.9-0.4,2.1,0.5,2.4-0.9c-2.3-1.5-3.1,1.2-4.7,1.7C155.1,206.8,154.8,208.2,154.2,209.2L154.2,209.2z M171.3,219.5l-0.3-0.4
	l-14.7,5.8c2.8-0.3,5.5-0.9,8.2-1.6c1.8-0.7,3.6-1.5,5.3-2.5C170.3,220.4,170.8,220,171.3,219.5L171.3,219.5z M86,260.2
	c2.8,0.9,5.2,1.6,7.7,2.4c0.6,0.2,1.5,0.4,1.7,0.1c0.7-1,1.8-0.5,2.6-0.8c0.4-0.1,0.7-0.2,1.1-0.2c-0.8-0.2-1.7-0.4-2.5-0.5
	c-0.9-0.2-1.6-1.2-2.8-0.7l0.8,0.9l-0.2,0.3c-0.3-0.1-0.6-0.1-0.8-0.3c-0.6-0.8-1.5-1.2-2.5-1.2c-0.9,0-1.8-0.2-2.6-0.6
	C87.5,258.7,87,259.3,86,260.2z M190.4,165.9l-0.3-0.3l-1.8,1.1c-2.6,1.6-5.1,3.1-7.7,4.8c-0.4,0.3-0.7,0.7-0.9,1.1
	c3.5-0.9,6.7-2.6,9.4-4.9C189.6,167.1,190.1,166.5,190.4,165.9L190.4,165.9z M139.8,209.5c-0.8-1.4,0.8-1.1,0.9-1.8s0.7-1.4,0-2.4
	l-0.4,0.8l-1-2c-0.3,0.5-0.6,1.1-0.8,1.7c-0.1,2.5-0.2,5-0.3,7.5c1.5-0.5,2.4-3,2.3-4.4c0-0.1,0-0.3-0.1-0.6L139.8,209.5z
	 M192.5,177.3l-0.2-0.3l-13.3,8.9C182,185.6,189.9,180.4,192.5,177.3L192.5,177.3z M141.5,169.2c-0.5,5.1,0.4,9.8,4,13.6
	c-0.1-0.9-0.3-1.9-0.7-2.7c-0.5-1.1-1.2-2.1-1.8-3.1c-0.1-0.2,0.2-0.6,0.2-0.8L141.5,169.2z M174.4,213c-1,0.5-2,0.9-3.1,1.4
	c-0.6,0.3-1.2,0.6-1.7,1c-0.2,0.2-0.4,0.7-0.5,0.7c-2.2-0.1-3.5,1.4-4.9,2.4c-1.8,0.3-3.4,1.2-4.6,2.5
	C165,219.4,170.1,216.7,174.4,213z M129.4,240.9c-0.8-0.4-1.7-0.7-2.5-0.9c-0.9,0-1.9,0.1-2.8,0.3c-0.9,0.1-1.8,0.2-2.7,0.4
	s-1.7,0.6-2.6,0.8c0.4,0.1,0.8,0.2,1.2,0.1c1.5,0.1,3.3-1.6,4.5,0.7c0,0.1,0.2,0.1,0.3,0.1c1,0,2.1,0,3.1,0c0.8,0,1.4-0.5,1.5-1.3
	C129.4,241.1,129.4,241,129.4,240.9L129.4,240.9z M109,256.7c-1.1-0.1-1.9-0.2-2.8-0.3c-2-0.1-2-0.1-2.5-0.7h7.3
	c-3.2-1.4-6.5-0.4-9.8-1.1c1.1,1.1,2.3,2.1,3.5,3c0.2,0.1,0.5,0.2,0.7,0.1C106.6,257.5,107.7,257.1,109,256.7z M165.5,210.1
	l-0.1-0.3c-0.7,0.4-1.5,0.8-2.2,1.1c-2.1,0.7-3.8,2.5-6.1,2.7c-0.1,0-0.2,0.2-0.3,0.3c1.8,0.9,7.5-1,9.3-3.1l-1.7,0.3l-0.1-0.1
	L165.5,210.1z M145.5,229.7c1.6,0,3.1,0.1,4.6-0.8c1.4-0.8,2.9-1.5,4.5-2c-3.2-0.6-6,1-9,1.5L145.5,229.7z M117.8,248.7
	c-0.2-0.1-0.4-0.1-0.5-0.1c-2.6-0.1-5.3-0.2-7.9-0.2c-1.1,0-2.2,0.1-3.6,0.1C110,251.2,113.9,249.5,117.8,248.7L117.8,248.7z
	 M155.8,193.9l1.6-2.4c-0.6-0.7-1.1-1.3-1.6-1.9s-0.9-0.5-1.4,0.1s0.1,1,0,1.2C153.7,192.4,154.7,193.1,155.8,193.9L155.8,193.9z
	 M172.2,221.8l0.1,0.3c2.9-0.1,11-2.9,12.1-4.3L172.2,221.8z M170,204.7l-0.1-0.2l-7.6,0.6v0.5c1.7,1.2,3.6,0.5,5.4,0.5
	C168.6,206,169.3,205.1,170,204.7z M151.1,185.4c-0.4,1.9,0.2,3.8,1.6,5.1c0.8-1,1.4-2.1,0.9-3S152.1,186.2,151.1,185.4L151.1,185.4
	z M177.1,177.3l7.2-5.2l-0.2-0.3C181.6,173.4,178.1,173.6,177.1,177.3L177.1,177.3z M137,180.1c-0.3-2.7,0.4-5.8-2.4-7.7
	C135.4,175,135.5,177.8,137,180.1z M137,220.4l-2.4,1.2l0.6,1c-0.4,0.4-0.9,1.1-1.2,1.1c-1.6-0.3-2.2,1.1-3.3,1.6
	c0.9,0.8,1,0.8,1.5,0.1c0.1-0.2,0.3-0.4,0.4-0.5c1-0.6,2-1.2,3-1.8c0.2-0.1,0.1-0.5,0.2-0.7l1.8-0.9L137,220.4z M89.2,264l0.2-0.5
	c-0.5-0.3-1-0.6-1.5-0.9c-0.6-0.3-1.2-0.5-1.9-0.7s-1-1-1.5-0.6c-0.1,0.5-0.2,0.9-0.2,1.4c0.1,0.4,0.3,0.8,0.5,1.1l0.9-0.6
	c0.1-0.1,0.2-0.2,0.3-0.3C86.9,264.5,88.2,263.8,89.2,264z M166.9,200.5c-0.4,0.3-0.8,0.6-1.2,0.9c-0.4,0.2-0.9,0.3-1.3,0.4
	c-0.2,0-0.5,0-0.7,0c-1.1,0.4-2.3,0.7-3.4,1.1c-0.2,0.1-0.4,0.4-0.7,0.6c1.7-0.1,3.3-0.5,4.9-0.6S166.6,202,166.9,200.5L166.9,200.5
	z M146.6,212.6c-2.5,1-4.5,2.7-5.9,5C143.2,216.5,145.3,215.3,146.6,212.6L146.6,212.6z M143.4,202.4l0.4,0.1c1.1-1.1,1.1-2.6,1.2-4
	c0-0.4-0.5-1,0.4-1.2c0.2-0.1,0.1-1.2,0.2-1.8h-0.4v1.4c-0.9-0.6-1.1-0.2-1.2,0.5s-0.4,1.5-0.5,2.3S143.5,201.5,143.4,202.4
	L143.4,202.4z M184.7,190.6l-0.2-0.2c-1.2,0.8-2.5,1.6-3.7,2.4s-2.4,1.8-3.7,2.6l0.2,0.2C180.4,194.9,182.5,192.8,184.7,190.6
	L184.7,190.6z M152.8,195.5c-1.5,0.6,0,1.8-0.6,2.4l0.3,0.1l2.7-3.3l-1.4-1.9l-0.3,0.2L152.8,195.5z M146,205.2l0.4,0.2l3.3-3.6
	l-3-0.2L146,205.2z M173.2,198.5c-0.4-0.1-0.6-0.3-0.8-0.2c-2,0.4-4.8,2.7-5.4,4.6L173.2,198.5z M139.4,185.1l0.4-0.1l-2.1-8.8
	l-0.5,0.1c0.2,0.8,0.3,1.6,0.5,2.3s0.8,1.5,0.6,2C137.6,182.4,138.9,183.6,139.4,185.1L139.4,185.1z M208,123l-0.2,1.6
	c0.9-2,1.4-4.2,1.5-6.4l-0.4-0.1c-0.7,1.7-1.3,3.4-2,5.2L208,123z M173.8,175.6l0.3,0.3c2.2-1.3,3.2-3.6,4.7-5.6
	c-1,0.5-1.9,1.1-2.7,1.8c-0.7,0.7-0.5,2-1.5,2.5C174.3,174.8,174.1,175.3,173.8,175.6L173.8,175.6z M164.4,134.2l0.4-0.1
	c-1.2-2.2-0.4-5.2-2.7-7.1l-0.5,0.2L164.4,134.2z M161.4,161.6c0.6-2.6,0.3-5.2-0.7-7.7C160.3,156.5,161.2,159,161.4,161.6
	L161.4,161.6z M170.1,205.8c2.5,0.6,3.8-1.2,5.4-2.4C173.4,203.6,171.5,204.5,170.1,205.8L170.1,205.8z M163,230.4
	c-2.4,0.5-4.7,1.6-6.5,3.2C159.2,233.3,160.9,231.6,163,230.4z M152.2,225.1v-0.5c-2.1-1.2-3.9,0-5.7,0.6v0.4L152.2,225.1z
	 M168.3,218.9c2.5-0.4,4.8-1,6.1-3.6L168.3,218.9z M98.9,250.8l-0.3-0.4c-1.6,1.2-3.2,2.3-4.9,3.5l0.2,0.4c0.6-0.5,1.8,0,2.1-1.2
	c0-0.1,0.2-0.3,0.3-0.3C97.9,253,98.1,251.4,98.9,250.8z M183.8,166.9c1.5-0.2,7-4.6,7.9-6.2L183.8,166.9z M153.7,200.4l-0.4-0.2
	l-4.7,7.2l0.3,0.2c0.9-1.1,1.8-2.2,2.5-3.4S153,201.7,153.7,200.4L153.7,200.4z M155.6,217.5l0.1,0.2l-2.1,1.3
	c2.1,0.4,3.1-1.4,4.7-2c-1.3-0.4-3.2,0-3.8,0.9L155.6,217.5z M120,244.2l0.2,0.4c3.7,0,5.9-0.7,6.1-1.7L120,244.2z M139.4,199.8h0.4
	c0.7-1.8,0.5-3.7-0.9-4.6L139.4,199.8z M143.9,209.8l-3.3,4.4c1.3-0.9,2.6-2,3.7-3.1C144.8,210.5,144.9,210.1,143.9,209.8
	L143.9,209.8z M150,189.9l0.2-0.2l-0.6-2.2c0,0,0-0.1,0-0.1c-0.3-0.6-1.4-0.4-2.4,0.4L150,189.9z M133.3,171.3l-1.8-7.2l-0.4,0.1
	C131.6,166.6,131.9,169.1,133.3,171.3L133.3,171.3z M191.1,180.2c2.1-0.7,3.6-2.4,4-4.6L191.1,180.2z M154.4,216.1l0.1,0.3
	c3.9-0.3,5.1-0.6,5.9-1.9L154.4,216.1z M130.6,149.7l2-5.1C130.6,146.3,129.9,148,130.6,149.7L130.6,149.7z M170,209.8l-0.2-0.3
	c-1.9,0.9-3.5,2.2-4.8,3.8l0.2,0.3L170,209.8z M83.6,263.8c-0.4-0.8-0.6-1.7-0.9-1.7c-0.6,0-1.2,0.3-1.7,0.6c-0.2,0.1,0,0.7,0,1.1
	H83.6z M146.4,224c-1.4-1-2.4-1-3.4,0C143.5,225.2,144,225.2,146.4,224z M109.7,244.5v0.6c1.9,0.4,3.9,0.3,5.7-0.3L109.7,244.5z
	 M152.6,213.5c2.2,0.6,3.9-0.7,5.7-1.4l-0.1-0.4L152.6,213.5z M141.1,210.1c1.8-0.6,1.4-2.2,2.3-2.9l-1.6-0.1L141.1,210.1z
	 M178.6,179c2-0.4,4-0.8,5.2-2.8L178.6,179z M174.8,179.9c-1.9,0.1-3.6,1.4-4.2,3.2L174.8,179.9z M146.3,222.7
	c1.9,0.7,4.3,0.2,5-1.1L146.3,222.7z M146.2,220.7l3.9-0.6c-0.9-1-2.4-1.1-3.4-0.2C146.5,220.1,146.3,220.4,146.2,220.7L146.2,220.7
	z M159.8,135.4l-0.4,0.1l1.9,6.4l0.4-0.1C161.1,139.6,160.4,137.4,159.8,135.4L159.8,135.4z M145,190.7l-0.4,0.2l0.9,2.3
	c0.3-0.2,0.9-0.3,1-0.5C146.8,191.5,145.9,191,145,190.7z M158.9,179.1l-0.4-0.1c0,1.6-1.5,3-0.7,4.7h0.4
	C158.4,182.1,158.6,180.6,158.9,179.1L158.9,179.1z M80.9,261.8l2.2-0.7c1.5-0.4,1.5-0.4,1.4-1.1C83.4,260.8,81.5,259.7,80.9,261.8
	L80.9,261.8z M100.1,252.8l-0.1-0.4c-0.5,0-1,0.1-1.5,0.3c-0.2,0.2-0.3,0.6-0.3,0.9c0.4,0.5,0.9,1,1.5,1.4l0.3-0.3l-0.4-1.6
	L100.1,252.8z M202.3,137.2l0.3,0.1c0.3-1.2,1.9-2,1.2-3.6l1.2-0.7h-1.3L202.3,137.2z M167.9,191.4c-2.7-0.1-3.2,0.2-3.1,1.7
	L167.9,191.4z M173,177.2c-0.6,1.3-2.2,2-2.3,3.6C171.7,179.7,173,178.9,173,177.2z M161.1,208.9c2.8,0,3.4-0.3,4.2-1.9L161.1,208.9
	z M97.5,256.8c-0.6-0.5-1.2-1.1-1.8-1.5c-0.2-0.1-0.5,0.1-0.8,0.1c0,0.3,0.1,0.5,0.2,0.8C95.6,257,96.5,256.9,97.5,256.8z
	 M128.3,239c1.6,0.4,2.9-0.6,4.3-0.8C131.1,237.8,129.6,238.1,128.3,239z M101.5,250.7c0.9,0.6,1.7,1.4,3,1
	C103.5,250.1,102.5,249.8,101.5,250.7z M174.7,189c-2.2,0.4-4.1,1.6-4.6,2.9L174.7,189z M126.2,225.5c0.8,0.9,2.2,0.9,3,0.1
	c0.1,0,0.1-0.1,0.1-0.2C128.4,224.8,127.2,224.8,126.2,225.5L126.2,225.5z M205.6,130.4l0.4,0.2c1.5-1,0.9-2.8,1.6-4.1l-0.4-0.1
	L205.6,130.4z M162.3,166.5c1.2-1.9,0.2-3.7,0-5.5V166.5z M190.2,176c1.6-0.1,2.4-1.1,2.6-3.1c-0.9,0.2-1.2,0.7-0.8,1.5L190.2,176z
	 M118.2,236.9l0.1,0.4l3.5-0.2l-1.2-1.1L118.2,236.9z M163.4,144.5l0.3-0.1c-0.4-1.6-0.2-3.4-1.6-4.8L163.4,144.5z M173.3,179
	l0.6,0.5l2.5-3.2l-0.3-0.3L173.3,179z M185.3,188.3l0.3,0.3l3.7-3.2l-0.3-0.3L185.3,188.3z M157.1,150.1c0.6,1.5,1.1,2.8,1.7,4.1
	C159,152.9,158,150.4,157.1,150.1L157.1,150.1z M157.3,183.9c-1,1.3-1.2,2.2-0.8,3.2C156.7,185.9,158.4,185.4,157.3,183.9
	L157.3,183.9z M187.5,131.7l-0.4-0.1c-0.3,1.2-0.6,2.3-0.9,3.5l0.6,0.1L187.5,131.7z M152.7,127l-0.6,0.1l1,3.6l0.5-0.1L152.7,127z
	 M165,145.2h-0.3l0.9,4.9l0.4-0.1L165,145.2z M155.6,137.7l-0.4,0.1l0.9,3.6l0.5-0.1L155.6,137.7z M149,148.7l-0.4,0.4l2.5,2.9
	l0.3-0.3L149,148.7z M162.5,195.8l2.6-1C163.8,194.2,163,194.5,162.5,195.8L162.5,195.8z M146.7,206.9l0.3,0.3
	c1.1-0.9,1.9-2.1,2.3-3.4L146.7,206.9z M124.7,237.5c-0.1-1.2-0.1-1.2-2.6,0H124.7z M131.6,207.2h0.4c-0.1-0.9,1.1-1.9-0.4-3.1
	L131.6,207.2z M134.3,232.5v0.4l3.6-0.2v-0.6L134.3,232.5z M148.6,210.2l-0.4-0.4l-2.6,2.3l0.3,0.3L148.6,210.2z M143.7,207.7
	l0.4,0.1c0.9-0.6,0.8-1.6,0.7-2.4l-0.4-0.1L143.7,207.7z M188.8,174.3l-0.2-0.2l-3.6,2.7l0.2,0.3L188.8,174.3z M145.2,204.7
	c0.2-0.6,0.3-1,0.4-1.5s0.1-0.9,0.3-1.7C144.6,203,144.5,203.6,145.2,204.7z M91.8,259.5c-0.4-1.1-1.1-1.2-2.6-0.4L91.8,259.5z
	 M174.9,163.5l-0.3-0.1l-1.8,3.6l0.5,0.2C173.8,165.9,174.4,164.7,174.9,163.5L174.9,163.5z M104.9,249.7l-0.1,0.3l3.8,0.8l0.1-0.4
	L104.9,249.7z M132.3,239.2l-0.2-0.3l-1.2,0.9c-0.6-0.7-0.7-0.7-1.4,0.1C130.6,240.8,131.4,240,132.3,239.2L132.3,239.2z
	 M113.1,242.2v0.4c0.2,0,0.5,0,0.7,0s0.4,0.1,0.7,0.1l-1.2,0.4v0.1l1.4-0.2l-0.1-1.2L113.1,242.2z M157.7,143.7l-0.4,0.1l0.8,2.3
	C159.3,144.8,158.1,144.3,157.7,143.7L157.7,143.7z M129.9,230l-1.5,1.3l0.2,0.4l1.7-0.6L129.9,230z M147.2,197.2l-0.5-0.1l-0.6,3
	l0.3,0.1L147.2,197.2z M114.6,241.2l2.6,0.4C116.9,240.6,115.9,240.4,114.6,241.2L114.6,241.2z M129.2,233.7v0.6l2.2-0.2v-0.4H129.2
	z M151.8,220.2c0.8,0.7,1.6,0.5,2.4-0.5L151.8,220.2z M195.5,160.9c-0.1-0.1-0.2-0.1-0.3-0.1l-1.9,2.4l0.3,0.3L195.5,160.9z
	 M143.4,188.4l-1-2.2C142.2,187.1,141.8,188,143.4,188.4L143.4,188.4z M159.1,151.8l0.5-0.1l-0.9-2.4l-0.5,0.2L159.1,151.8z
	 M141.3,230.5L141.3,230.5l3.5-0.1v-0.3L141.3,230.5z M156.1,146l0.4-0.1l-0.9-2.5l-0.5,0.2L156.1,146z M196.2,176.8l2.1-1.8
	C197,174.9,196.5,175.6,196.2,176.8L196.2,176.8z M190,164.6c1.2,0.2,1.8-0.2,2-1.4L190,164.6z"/>
<path class="st1" d="M96.2,177.2l-0.3,3.7h0.2c0.1-0.8,0.2-1.6,0.4-2.5c0.1-0.3,0.2-0.5,0.4-0.7c0.1,0.2,0.1,0.5,0.2,0.8
	c0,0.2,0.1,0.4,0.1,0.5l1.2,0.2l-0.2,3.4l0.3,0.1c0.2-0.2,0.4-0.5,0.6-0.8c0.6-1.9,1-3.8,1.4-5.7c0.1-0.9,0.5-0.9,1-1.1
	c-0.9,1.5-0.2,3.1,0,4.7c0.3-0.3,0.6-0.6,0.8-1c0.2-0.9,0.4-1.8,0.5-2.7c0.3-3.1,0.4-6.3,0.8-9.4c0.3-1.8,0.8-3.6,1.5-5.3
	c-0.1,0.9-0.2,1.8-0.3,2.7c-0.3,2.7-0.6,5.4-0.8,8.2c0,0.4,0.3,0.7,0.4,1.1h0.4l-0.7,1.9l0.5,0.4l-1.1,0.3l-0.1,1.5h0.8
	c-0.6,5.8-0.8,11.5,0.9,17.1v-6.3l0.3-0.1c0.1,0.2,0.2,0.5,0.2,0.7c0.4,3.8,0.8,7.7,1.3,11.5c0.2,1,0.4,2,0.7,2.9
	c0.1,0.4,0.3,0.7,0.4,1.1l0.5-0.4c-0.2-1.7-0.3-3.4-0.5-5.1s-0.2-3.3-0.4-5c-0.2-1.4-0.8-2.9-0.7-4.2c0.4-4.2-0.2-8.4,0.2-12.6
	c0.3-2.7,0.7-5.4,1-8.1c0.4-2.9,0.8-5.8,1.3-8.6c0.5-2.3,1.1-4.5,2-6.7c-1.5,5.3-2.3,10.8-2.4,16.2c0.4-4,3-7.6,2.4-11.9l0.7-0.1
	l0.4-1.4h0.2l0.2,1.5l3.3-0.9c-0.2,0.3-0.4,0.7-0.6,0.8c-1.3,0.1-1.5,1.2-1.5,2.1c-0.1,2.5-0.2,4.9-0.2,7.4
	c-0.1,5.3,0.4,10.6,1.4,15.8c0.8,3.7,1.9,7.4,3.3,11c0.7,1.8,1.6,3.6,2.2,5.4c-4.5-7-6.3-15-8.1-23c-0.1,0.9-0.2,1.8-0.2,2.7
	s0.1,2,0.2,3s0.1,1.9,0.3,2.8c0.4,2.2,0.8,4.4,1.1,6.6c0.1,0.5-0.5,1-0.4,1.5c0.4,4.1,1.3,8.1,2.7,11.9c0.1,0.3,0.2,0.5,0.2,0.8
	c0,0.2,0,0.4-0.1,0.6c-0.4-0.7-0.8-1.5-1.1-2.3c-0.7-2.5-1.3-5-1.9-7.6s-1-5.2-1.6-7.9l-1.1,0.6l0.6-1.9c-0.7,0-1,0.4-0.9,1.1
	c0,1.8,0.1,3.7,0.3,5.5c0.3,1.6,0.7,3.1,1.2,4.6c0.3,1.2,0.6,2.4,0.9,3.6l-0.3,0.1l-1-2.2l-0.4,0.1c0.1,0.6,0.2,1.1,0.2,1.7
	c0.1,3.4,0.1,6.8,0.4,10.2c0.3,1.2,0.7,2.3,1.3,3.3l0,0c-0.3-0.1-0.6-0.3-0.8-0.4c-0.4-0.3-0.7-0.6-1.1-0.8l-0.4,0.3l0.9,1.7
	c0.2,0.3,0.5,0.7,0.4,0.8c-0.5,0.9,0.2,1.4,0.5,2.1s0.6,1.3,0.8,2l-0.3,0.2l-0.8-1.4l-0.6,0.3c-0.6-1.8-1.2-3.6-1.8-5.3l-0.4,0.1
	l0.1,1c-1.4-1.6-1.8-3.7-3.6-4.7c0,0,0-0.1,0-0.1c0.3-1.4-1-2-1.5-3.1c-0.2-0.4-0.7-0.6-1.1-1c-1-1.2,0.2-3.3-1.6-4.4l-0.5,0.1
	l0.8,5.5c-2-4.4-2.3-9.1-3.7-13.5c-0.1,0.4-0.2,0.8-0.1,1.3c0.4,5.7,1.6,11.3,3.6,16.6c0.6,1.6,1.1,3.3,1.7,5
	c0.3,0.9,0.7,1.7,1.1,2.6c-0.4-0.8-0.9-1.6-1.3-2.3c-0.5-0.9-1.1-1.8-1.8-2.6c-0.6-0.4-1.1-1.1-1.2-1.8c-0.2-0.9-0.7-1.3-1.7-0.5
	c-0.8-2.9-1.6-5.8-2.4-8.6h-0.2l0.6,6.2l-0.9-0.6l-0.3,0.2c0.5,3.1,1.3,6.1,2.6,8.9c-0.3-0.1-0.5-0.4-0.6-0.7
	c-0.8-1.8-1.6-3.6-2.3-5.5c-0.4-1.1-0.7-2.3-0.9-3.4c-0.2-1.5,0.1-3.1-0.1-4.6c-0.6-3.3-1.3-6.6-2.1-9.8c0-0.1-0.2-0.3-0.4-0.4
	c-0.9,4-0.6,8.2,0.8,12.1c0.4,1.4-0.1,3.3,1.5,4.2c0,0,0,0.2-0.1,0.3c-0.7,1.9,0.8,3.3,1.4,4.8s1.5,2.6,1.7,4.5
	c-0.5-0.3-0.8-0.4-1-0.6c-1.1-1.9-2.1-3.9-3.1-5.9c-0.1-0.2,0-0.6-0.2-0.8c-0.7-0.6-0.7-0.6,0-1.1l-1.4-0.3l0.9-0.5
	c-1.8-0.5-1.5-2.2-2.1-3.4c-0.5-1.3-0.9-2.5-1.3-3.9l-0.5,0.1c0.2,1,0.4,2,0.6,2.9c0.1,0.4,0.1,0.8,0.1,1.2c0,0.2-0.4,0.4-0.3,0.6
	c0.1,0.6,0.3,1.1,0.6,1.7c0.3,0.7,0.6,1.4,0.9,2.1l-0.4,0.3l-0.6-0.9l-0.3,0.1c0.5,1.5,1.1,3,1.9,4.4c0.9,1.4,1.9,2.7,3,3.9
	c1.8,2.3,3.5,4.7,5.2,7c0.2,0.3,0.4,0.6,0.7,0.8l0.4-0.2c-0.3-0.8-0.4-1.7-0.6-2.6c0-0.9,0.1-1.7,0.3-2.5l0.4,0.1c0,1.6,0,3.3,0,4.9
	c0,0.4,0.4,0.8,0.6,1.1l0.3-0.2c-0.2,1.5-1.1,3.2,1.2,4.2l0.1-1.9l0.7-0.1v1.7l0.6-0.1l1.7,2.5l0.5-0.2c0-1.7,1.2-3.2,0.5-5
	c0.6,0,1-0.3,0.4-1c-0.3-0.5-0.7-1-1.1-1.4c-1-1-2.1-2-3.2-3c0.1,0,0.4-0.3,0.6-0.2c0.4,0.2,0.6,0.5,0.9-0.1
	c0.2,0.1,0.4,0.2,0.6,0.4c0.5,0.7,0.9,1.5,1.5,2.2c0.4,0.4,0.9,0.7,1.4,1l0.1-1.5l0.4-0.1c0.4,0.8-0.5,2.1,0.8,2.6
	c1,0.4,1.9,0.9,2.9,1.4c0.8,0.5,1.7,0.8,2.7,0.6l0.1-0.4l-1.2-0.2c-0.2-0.5-0.5-0.9-0.9-1.4c-0.8-0.9-1.7-1.6-2.6-2.4
	c-0.5-0.5-1-1.2-1.7-0.5l-0.6-2.1v-0.1l0.8-0.5c1.5,3.5,5.1,3.6,7.7,5.4l-0.1,0.3l-2.9-0.9l-0.2,0.3c0.5,0.4,1.1,0.9,1.5,1.4
	c0.4,0.6,1.1,0.7,1.7,0.4c0.1-0.1,0.2-0.1,0.3-0.2L116,232c0.5-0.3,0.8-0.5,1.1-0.6l2.5-1.4l0,0c-0.6,0.6-1.1,1.1-1.7,1.7
	c-0.2,0.3-0.4,0.6-0.6,0.9l-3.2,1.4l2.5,1.4h-2.9l-0.3-0.4l-1.8,0.9l-0.2-0.2l0.8-0.8c-0.8-0.4-1.3,0-1.9,0.6
	c-1.1,1-2.5,1.8-3.7,2.7c-1.7,1.4-3.4,2.8-5,4.1c-0.4,0.3-0.8,0.7-1.3,1.2l0.3-1.6l-4.6,3c-1.3-0.3-2,1.3-3.3,2.1l-0.3-1.4L91,245
	c1.8-0.6,1.1-1.8,0.8-2.9c-0.2-0.7-0.2-1.5-0.4-2.5l0.6,0.8l0.4-5.4l-1,0.1l-0.1-0.3l1.2-0.5l-1.5-3.9l0.3-0.1
	c0.7,1.2,1.3,2.5,1.8,3.8c0.4,1.4,0.7,2.9,0.9,4.4c2.4-2.5,0.7-4.7,0.2-7c0.2,0.3,0.4,0.5,0.6,0.8s0.4,0.6,0.6,0.9
	c0.7-0.6,0.8-1.6,0.4-2.4c-1.5-1.6-3-3.2-4.5-4.8c-0.3-0.3-0.6-0.5-0.8-0.8l-0.3,0.2l3.9,5.2l-0.4,0.3c-0.3-0.2-0.5-0.5-0.7-0.8
	c-0.8-1.5-1.8-2.7-3.7-2.7c-0.4-0.1-0.7-0.3-0.9-0.6c-1.2-1.7-2.3-3.5-3.4-5.2c-0.5-0.7-1.1-1.3-1.5-2c-0.3-0.4-0.5-1-0.8-1.5
	c-0.7-0.9-1.4-1.8-2.2-2.7c-0.5,3.8,2,6.1,3.7,9.1l0.6-1.2c0.1,0.6,0.2,0.9,0.3,1.1c0.2,0.8,0.4,1.6,0.6,2.4
	c0.2,0.6,0.3,1.3,0.2,1.9c0,1.2,0.4,2.4,1,3.4c0.8,1.3,1.6,2.6,2.6,3.9c-0.8-0.2-0.7,0.4-0.6,1c0.2,1,0.3,2.1,0.4,3.1
	c-1.2-2.7-2.2-5.4-3.5-8s-3-5.1-4.6-7.8c-0.6,1.4-0.1,2.4,0.4,3.4c1.4,2.7,2.7,5.6,3.7,8.5c0.7,2.4,2.1,4.3,3.2,6.5
	c0.1,0.1,0.2,0.3,0.3,0.4l2.5-6.8c1,1.8-0.7,2.7-0.8,4c0,1.2-0.3,2.3-0.4,3.4l-0.3-0.6c-0.1,1.9,1.7,2.7,2.3,4.3
	c-1.5-0.2-1.6-1.9-2.7-2.5l-1.1,0.8l0,0c-0.6-1.6-1.2-3.3-1.8-4.9c-0.2-0.3-0.4-0.6-0.8-0.7c-1.4-0.5-1.4-1.6-1.7-2.8
	c-0.4-0.9-1.1-1.7-1.9-2.4c-0.3-0.2-0.7-0.4-1.1-0.5l0.3-0.4c-0.1,0.2-0.2,0.4-0.2,0.5c0.4,1.2,0.8,2.5,1.4,3.6
	c0.7,1.3,1.6,2.4,1,4.1c-0.2,0.5,0.5,1.2,0.6,1.8s0.8,1.4,0,2.3c-0.7-2.2-1.5-4.3-3.7-5.7l0.9,1.8c-0.2,0.1-0.3,0.1-0.5,0.2
	c-0.2,0.1-0.4,0.3-0.5,0.4c0,0.2,0,0.5,0.2,0.7c0.6,0.4,0.7,0.9,0.9,1.6c0.5,1.5,1,3.2,3.1,3.6l-0.8,0.6c0.3,1.1,2.7,0.9,1.8,2.9
	l-5.7-2.8l-0.7,1.4l5.3,1.9h-1.5l-0.1,0.4l1.7,0.3l0.1,0.2c-0.3,0.1-0.7,0.3-1,0.3c-1.3-0.3-2.5-0.8-3.8-1.1
	c-0.3-0.1-0.6,0.1-0.9,0.1c-1-0.1-2-0.2-3.3-0.4c1.6,1.6,3.6,1.8,5.3,2.6c-1.7,0.3-3.1-0.6-4.6-1.1l-0.3,0.9
	c0.4,0.8,3.8,1.4,4.9,0.9c-0.3,1.1-2,1.4-5.9,1.3c-2.4-0.1-3.7-2.2-5.6-3.1c-0.3,1.4,0.8,2.5,3.2,3.1c-1.5,0.6-4.2-1.2-3.9-2.8
	c0.2-1.1-0.5-1.4-1-2c-0.3-0.4-0.6-0.9-0.8-1.4c2.3,1.6,4.2,3.8,6.9,4.7c-5.2-3.8-7.3-8.6-5.4-15l0.7,0.1c-0.1-0.3-0.1-0.6-0.1-0.9
	c0-0.3,0.1-0.7,0.2-1l0.7,1.2l0.3-0.1l-0.6-3.6c0.9-0.4,1-1.2,0.2-2.2c-0.4-0.5-0.7-1-0.9-1.6c2.5,1.8,4.4,4.1,5.7,6.9l0.3-0.2
	l-1.5-4.2c0.4,0.1,0.9,0.1,1.2,0.4c0.5,0.6,0.1,1.9,1.6,1.9c0.2,0,0.4,0.6,0.6,0.9l1.5,2.7c0.2-1.8-0.3-3.5,1.4-4.5
	c-0.5,1.6-0.9,3.2,0.5,4.9c0.1-2,0.5-3.7-0.3-5.4c-0.7-1.5-1.6-2.9-2.3-4.4c-1-2.2-2.4-4.3-4-6.2c-0.2-0.2-0.3-0.4-0.3-0.6
	c0-1.6-1.2-2.3-2.1-3.2c-0.3-0.3-0.6-0.4-1-0.5c-2.8-0.4-5.7-0.6-8.5-1.1c-1.7-0.5-3.3-1.1-4.9-1.8l0.2-0.4l5.8,1.8v-0.9
	c1.8,0.9,3.4,1.4,5.3,0.9c0.1,0,0.4,0.3,0.6,0.4l-0.2,0.4l1.3,0.1l0.2-0.3l-3.4-2.9l0.4-0.4c2.1,1.2,3.3,3.8,6.3,3.9
	c-0.1,0.2-0.3,0.4-0.4,0.5c-0.1,0.1-0.3,0.1-0.5,0.2l8,8c0.5-1.1,0.4-1.2-1.2-3.8l0.7-0.5l-0.7-0.9l-0.2,0.1l0.2,0.7l-0.2,0.3
	c-1.2-0.8-2.3-1.8-3.3-2.9c-1.2-1.4-2.6-2.6-4.2-3.5c-1.3-0.9-2.7-2.1-4.1-2.2c-1.8-0.1-2.4-1.8-4-1.8l0.1-0.4l1.2-0.3l-1.2-0.9
	l0.1-0.3l3.3,0.9l0,0h-1.8c1.7,1.2,3,2.5,5.1,2.1l-0.2-0.7l0,0c1.5,1,3.3,0.9,5.3,0.7l-0.6,0.7l6.3,8.5c0.3-1.2,0.1-2.5-0.6-3.6
	c-0.5-1-1.2-1.9-2.1-2.6c-0.9-0.6-1.3-2.3-1.7-3.5c-0.7-1.9-1.2-3.9-1.8-5.9c-0.1-0.2-0.1-0.5-0.2-0.8c-0.1-0.2-0.1-0.4-0.2-0.6
	l0.4-3h0.2l0.4,1.4c1.5-0.1,1.2,1.8,2.2,2.2l0.7-0.8l2,3.2l0.8-0.9l2.8,4c-0.5-2.9-0.5-3.6,0.2-4.2c0.2,1.4,0.5,2.7,0.9,4.1
	c1.2,3.1,2.9,6.1,5.1,8.6c1.1,1.3,2.3,2.5,3.5,3.6l-0.6-1.9h0.2l4.4,6.4l0.4-0.2c-0.1-2.2-0.8-4.4-2-6.2c-1.4-1.8-2.9-3.6-4.5-5.1
	l0.2,1.5c-0.2-0.3-0.7-0.5-0.7-0.8c-0.1-2.7-1.7-4.9-2.6-7.4c-0.7-2.1-1.3-4.1-1.7-6.2c-0.7-2.6-1.4-5.1-2.1-7.7
	c-0.1-0.5,0.2-1.1,0.2-1.7c0-0.6,0-1.1-0.1-1.7c-0.3-2.3-0.7-4.5-1-6.8c0-0.2,0.1-0.3,0.3-0.7l1.3,7.6l0.4-0.1
	c0.1-1.8,0.2-3.5,0.4-5.3c0.1-1,0.3-2,0.5-3c0-0.2,0.4-0.4,0.6-0.7l-0.8,6.8l0.3,0.1c0.8-2.5,1.4-5.1,2.3-7.5s0.1-5.1,1.6-7.3
	c-1.1,7-0.2,13.9,0.2,20.9l0.3,0.1c0.1-0.4,0.2-0.7,0.3-1.1c0.3-3.5,0.6-6.9,1-10.4c0.1-0.4,0.3-0.8,0.5-1.1l0.5,0.1
	c0,0.4-0.1,0.9-0.1,1.4c-0.3,3.5,0,6.9,1,10.3c0.1,0.5,0.7,0.8,0.8,1.3c0.2,0.9,0.3,1.9,0.4,2.9c0.2,1.2,0.5,2.3,0.7,3.5l0.3-0.1
	c-0.2-1.2-0.3-2.4-0.4-3.7c-0.2-1.7-0.2-3.4-0.4-5.1c-0.1-0.7-0.3-1.3-0.6-1.9c0-0.2,0-0.5,0-0.8c0-1.4-0.1-2.8,0-4.2
	c0.1-2.5,0.3-4.9,0.5-7.4c0-0.4-0.2-0.9-0.3-1.3l1.7-11h0.3c0.1,0.7,0.1,1.3,0.1,2c-0.1,1.2-0.3,2.4-0.5,3.6
	C96.1,176.6,96.2,177,96.2,177.2L96.2,177.2z M72.6,252.1c0.4-1-0.6-1.4-1-2c0-0.1-0.4-0.1-0.5,0s-0.2,0.4-0.2,0.5
	C71.5,251,72.1,251.5,72.6,252.1l-1.4,0.3l3.4,2.9C74.7,253.9,73.9,252.6,72.6,252.1z M111.5,164.7h-0.4c-0.3,1.2-0.7,2.4-1,3.6
	s-0.8,2.6-0.4,3.7c0.4,1,0.3,2.1-0.2,3c0.4,0.6,0.8,1,0.8,1.5c0.2,1.3,0.2,2.7,0.3,4s0.2,2.7,0.4,4h0.4c0-1.7,0-3.3,0-5
	c0-0.8-0.1-1.6,0-2.4s0.3-1.4,0.3-2.1c0-0.3-0.3-0.7-0.3-1c0.2-1,0.3-2.1,0.3-3.2C111.4,168.8,111.4,166.7,111.5,164.7L111.5,164.7z
	 M110.3,208.8c-0.6-5.8,0.3-11.8-2.3-17.4C108.4,197.3,108.5,203.1,110.3,208.8L110.3,208.8z M101.2,238.7l-1.4,1.3
	c0.2-1,0-2,0.4-2.4c0.8-0.8,0.4-1.6,0.5-2.4c0-0.1-0.3-0.5-0.5-0.5c-0.2,0-0.5,0.2-0.6,0.4c-0.7,1.6-1.4,3.1-2.1,4.7
	c-0.1,0.3-0.1,0.6-0.1,0.9c0.2,0.5,0.4,1.1,0.6,1.6C99.1,241.1,101.3,241.1,101.2,238.7L101.2,238.7z M100.3,230.9l0.2-0.2
	c-0.2-0.8-0.7-1.4-1.4-1.7l-1.8-2.4l-0.3,0.2c0.3,1,0.6,2,0.8,3s0.3,2.1,0.5,3l-1.1-0.1v0.3l1.3,0.8l-0.4,0.4l-0.7-0.3l-0.3,1.9
	l0.8-0.9l0.2,0.1l-0.8,2.7c0.7-1,1.4-2.1,1.9-3.3c0.5-1.3,1.2-2.8-0.2-4.1c-0.2-0.2-0.1-0.7-0.1-1l0.3-0.1L100.3,230.9z M71.8,216.7
	c1.5,2.7,3.7,5.1,6.3,6.7C76.2,220.9,75.3,217.7,71.8,216.7z M96.9,238.8c-0.3,0.1-0.4,0.1-0.4,0.1c-1.1,1.9-2.2,3.9-3.3,5.9
	c0.2,0.2,0.4,0.4,0.6,0.5c0.8-0.7,1.9-1.3,2.3-2.3C96.6,241.6,96.8,240.2,96.9,238.8z M105.8,237c2.1-0.1,3.2-1.8,4.7-2.6V234
	l-2.6-0.6c-0.3,0.7-0.5,1.3-0.8,1.9S106.3,236.3,105.8,237L105.8,237z M101,190.9c-0.3,1.9,0.7,6.6,1.8,7.4
	C102.3,195.8,102.8,193.2,101,190.9z M108.5,212l0.3-0.1l-2.7-9.2l-0.4,0.1C105.7,206.1,107.4,209,108.5,212z M106,237.7
	c-1.6-1.2-1.6-1.2-2.3,0.2c-0.1,0.2-0.4,0.4-0.6,0.5c0.7-2.3,0.7-2.3-0.2-3l-1,4.4L106,237.7z M75.8,249.1l-1.6-1.7l0.2-0.2l1,0.5
	c-0.2-1.1-2-3-3.4-3.5c0.3,0.6,0.6,1,0.8,1.4c0.1,0.3,0.3,0.6,0.3,0.8C73.1,247.9,74.3,249.1,75.8,249.1
	C75.8,249.1,75.8,249.1,75.8,249.1z M75.3,238.9c0.4,3.4,3,4.8,4.8,6.8l0.3-0.2L75.3,238.9z M110.3,213.5c0.5-2.4-0.8-4.3-1.7-6.4
	C108.3,209.4,109.6,211.4,110.3,213.5L110.3,213.5z M109.9,178.2l-0.4-0.3c-0.1,0.2-0.2,0.4-0.2,0.7c0.1,2.3,0.2,4.5,0.3,7.2
	c0.5-0.5,0.8-0.8,0.8-1C110.3,182.6,110.1,180.4,109.9,178.2L109.9,178.2z M102.7,182.7c-0.7,2.6-0.9,5.3-0.4,8h0.4V182.7z M69,243
	l-0.5,0.2c0.7,1.6,1.3,3.1,2,4.7c0.1,0.2,0.5,0.3,0.8,0.5c0-0.3,0.2-0.8,0-1C70.6,246,69.8,244.5,69,243z M98.5,192.1h0.7l-0.7-8.6
	h-0.4L98.5,192.1z M107.8,230.8c0.9,1.2,2.2,2.1,3.7,2.5c0.2,0.1,0.6-0.3,0.6-0.3c-0.1-0.4-0.2-1-0.5-1.1
	C110.4,231.5,109.2,231.2,107.8,230.8z M78.5,252.5l-4.3-2.9C74.2,251.4,75.9,252.6,78.5,252.5z M73.3,241.8l0.2-0.1
	c-0.7-1.4-1.3-2.8-2-4.3c-0.3,0.6-0.5,1.2-0.7,1.9c0,0.4,0.3,0.8,0.5,1.1l0.6-0.6L73.3,241.8z M83.3,250.8l0.3-0.4l-2.7-2.4
	l-0.8,1.2L83.3,250.8z M68.2,244.1l-0.5,0.1c0.2,1.1,0.4,2.3,0.7,3.4c0.1,0.2,0.6,0.4,1.1,0.7L68.2,244.1z M76.5,209.6l-0.4,0.1
	l1.4,4.3C78.1,212.2,77.3,210.9,76.5,209.6L76.5,209.6z M82,233.6l0.3-0.2l-1.7-4l-0.3,0.1c0.1,0.9,0.3,1.9,0.6,2.8
	C81.1,232.8,81.6,233.1,82,233.6z M97.1,195.9l-0.4,0.1l0.9,6.8l0.4-0.1L97.1,195.9z M97.4,180.2H97l-0.5,5.8h0.4L97.4,180.2z
	 M69.4,217l3.1,2C71.8,217.1,71.2,216.6,69.4,217z M100.6,180.6h-0.6l0.2,4.1h0.3V180.6z M84.4,197.2l-0.4,0.1l0.9,4.4
	C85.2,200.2,85.1,198.6,84.4,197.2z M74,224.7l-0.2,0.3l2.8,3.4l0.4-0.3L74,224.7z M82.8,231.7l-0.4,0.1l1.6,3.7l0.3-0.1L82.8,231.7
	z M101.6,202.7h0.6l-0.7-3.2l-0.3,0.1L101.6,202.7z M95.7,237.8l-0.5-0.2l-1.1,3.1l0.3,0.1L95.7,237.8z M83,223.9l-0.3,0.2l1.5,2.9
	l0.4-0.2L83,223.9z"/>
<path class="st1" d="M194.2,92.8l-0.5-2.8h-0.4c-0.3,8.3-0.1,16.5,0.7,24.8h-0.6c-0.3-3.6-0.7-7.2-1-10.9l-0.7,0.5
	c-0.1-4.1-0.2-7.9-0.4-11.8h-0.2l-0.4,4.1c-0.8-4.7,0-9.3-0.2-14c-1.9,7.3-2.6,14.7-3.3,22.5c-0.6-2.4-0.2-13.9,1-21.2
	c-2.2,2.1-2.6,4.8-2.8,7.6c-0.1,1.7-0.6,3.3-0.8,5s-0.2,3.2-0.4,4.7c0,1.3-0.2,2.5-0.5,3.8c0-2.4-0.1-4.8,0-7.1s0.4-4.8,0.4-7.2
	c-0.8,1-1.8,1.7-1.8,3.2c-0.1,2.7-0.6,5.5-0.7,8.2c0,2.4,0.3,4.9,0.6,7.3c0.3,2.5,0.7,5,1.1,7.5c0,0.2,0,0.5-0.2,0.7
	c-1.4-7-3.6-14-2.4-21.4l-1.2,2.3l-0.3-0.1c0.2-1.8,0.1-3.7-0.1-5.5c-0.3-1.3,0.7-2.3,0.4-3.5c0-0.1,0.3-0.5,0.5-0.6
	c0.3-0.1,0.6,0,0.9,0.1c0.1,0,0.1,0.4,0.1,0.6c-0.4,1.5-0.8,3-1.2,4.5c1,0,2.3-3.1,1.9-4.1c0.3-0.2,0.6-0.3,0.7-0.6
	c1.2-2.4,2.6-4.7,4.3-6.9c0.6-0.8,1.5-1.5,2.2-2.3c0.3-0.4,0.5-0.9,0.9-1.3s0.9-0.6,1.1-0.4c0.5,0.4,1.6,0.4,1.3,1.6
	c-0.3,1,0.4,1.7,0.8,2.5c0.3,0.7,0.4,1.4,0.4,2.1c0,1.5,0,2.9,0,4.4c0,0.2,0.1,0.4,0.2,0.5c0.1-1.7,0.1-3.5,0-5.2
	c-0.5-3.7-0.4-4.8,1.2-7.3c-0.2,5.5-0.3,10.7-0.5,15.8L194.2,92.8z"/>
<path class="st1" d="M206.2,89.3c0,0,0.2,0.3,0.2,0.6c-0.7,1.9-1.4,3.8-2.1,5.7c-0.1,0.3-0.3,0.5-0.5,0.5c0.4-2.6,0.8-5.2,1.3-8.1
	l-1.1,1.5l-0.4-0.2l0.9-7.3H204l-2.9,12.6h-0.3l0.4-2.5c0.5-2,0.8-4.1,0.9-6.1c-0.1-1.7,0.8-3,1-4.5c0.2-1.8,0.2-3.7,0.1-5.5
	c0-0.2,0.1-0.7,0.1-0.7c1.5-0.3,1.5-1.9,2.5-2.6c-0.1,0.6-0.1,1.2,0,1.8c0.1,0.4,0.3,0.9,0.6,1.2c0.6,0.7,1,1.6,1.3,2.5
	c0.4,2.9,0.1,5.9-0.8,8.7C206.6,87.7,206.4,88.4,206.2,89.3z"/>
<path class="st1" d="M169.8,117c0-0.4,0.1-0.8,0.1-1.2c0-2.2-0.2-4.3-0.1-6.5c0.1-3.4,0.9-6.7,2.4-9.7c0.4-0.7,0.7-1.4,1-2.1h1.1
	l0.4-0.5l-0.6-0.4c0.4,0,1.2,0.4,1.8,0.1s1-1.1,1.8-1.6c-0.1,0.4-0.2,0.8-0.4,1.1c-1,0.9-1.6,2-1.9,3.3c-0.4,1-0.8,2-1.3,2.9
	l-0.6-0.8l-0.6,1.8l0.8,0.2c-0.1,0.1-0.1,0.2-0.1,0.2c-0.8-0.2-1,0.3-1,1c-0.1,0.7,0,1.4,0.3,2.1c0.3,0.7-0.4,1.8-0.4,2.7
	c0,2.2,0.1,4.4,0.2,6.6c0,0.8-0.1,1.5-0.4,2.3c-0.3-2.2-0.5-4.5-0.8-6.7c-1.2,1.7-0.9,3.7-1.3,5.5L169.8,117z"/>
<path class="st1" d="M137.6,153.6l-0.4-7.5l-0.3-0.1l-1,2.1l-0.4-0.2c0.4-0.9,0.8-1.7,1.1-2.6c0.2-0.3,0.2-0.7,0.2-1.1
	c-0.2-0.9-0.5-1.8-0.7-2.7c-0.1-0.4,0-0.9,0.2-1.2C137.7,144.6,138.2,149.1,137.6,153.6z"/>
<path class="st1" d="M88,245.6c0,0.6-0.1,1.3-0.1,1.9c-0.1,0.9-0.1,1.8-0.3,2.7c0,0.2-0.4,0.3-0.7,0.5c-0.1-0.6-0.2-1.3-0.2-1.9
	c0-1-0.3-1.9-1-2.6c-0.8-0.9,0-1.9,0.2-2.9h0.5v2.9l0.8-1.1L88,245.6L88,245.6z"/>
<path class="st1" d="M81.5,266.5l0.6-1.3c1.9,2,4.5,1.7,6.9,1.8C86.4,268.2,84,267.6,81.5,266.5z"/>
<path class="st1" d="M175.9,143.6l-1.2-12.4h0.3C175.8,135.3,176.1,139.5,175.9,143.6z"/>
<path class="st1" d="M123.4,145.9c-1,2.9-2,5.9-3.1,9C119.8,153.3,122.2,146.6,123.4,145.9z"/>
<path class="st1" d="M72.7,234.7c-1.7-0.4-5.1-4.3-4.9-5.4L72.7,234.7z"/>
<path class="st1" d="M197.7,84.9l-2.2,8.5l-0.4-0.1c0.7-2.8,1.4-5.7,2.1-8.5L197.7,84.9z"/>
<path class="st1" d="M132.7,155.2l0.9,0.7c-0.8,1.4-0.3,2.9-0.6,4.7c-0.2-0.3-0.6-0.5-0.6-0.8c-0.1-1.4,0-2.8,0-4.2
	C132.4,155.5,132.6,155.3,132.7,155.2z"/>
<path class="st1" d="M126,206c-1.1-1.5-2.2-3-3.3-4.4l0.3-0.3c1.3,1.3,2.5,2.8,3.3,4.4L126,206z"/>
<path class="st1" d="M126.5,228.7c-1.2,1.5-3.1,2.4-5,2.4L126.5,228.7z"/>
<path class="st1" d="M137.3,157.9l-0.3-4.1C137.8,154.4,137.9,157.1,137.3,157.9z"/>
<path class="st1" d="M192.5,128.8c0-0.5,0.1-1,0.3-1.4c0.7-1.1,1.6-2,2.4-3l0.3,0.2L192.5,128.8L192.5,128.8z"/>
<path class="st1" d="M135.5,161.8l1,3.8c-0.6-0.2-1-0.3-1-0.4c-0.2-1.1-0.3-2.2-0.5-3.3L135.5,161.8z"/>
<path class="st1" d="M117.1,214.1l1.6,3C117.7,217.3,116.8,215.8,117.1,214.1z"/>
<path class="st1" d="M190.9,148.6l2.2-3.3l0.4,0.3C192.6,146.7,192.2,147.9,190.9,148.6L190.9,148.6z"/>
<path class="st1" d="M134.2,159.2l0.9-0.5l0.4,2.7l-0.4,0.1c-0.1-0.3-0.2-0.6-0.3-1S134.5,159.8,134.2,159.2z"/>
<path class="st1" d="M185.1,215.6l-3.5,0.8C183.1,215.1,184.7,214.8,185.1,215.6z"/>
<path class="st1" d="M96.2,177.2c0.3-0.4,0.6-0.9,0.9-1.4c0.1-0.3,0.2-0.7,0.3-1C97.8,177.1,97.5,177.6,96.2,177.2L96.2,177.2z"/>
<path class="st1" d="M119.3,158.4l0.7-3.1l0.4,0.1l-0.6,3.1L119.3,158.4z"/>
<path class="st1" d="M84.6,212l2,2.4l-0.4,0.3l-1.9-2.4L84.6,212z"/>
<ellipse class="st1" cx="106.1" cy="178.1" rx="0.2" ry="2.8"/>
<path class="st1" d="M139.6,248.1l-2.6,0.5l-0.1-0.5l2.6-0.4L139.6,248.1z"/>
<path class="st1" d="M66.1,213.6c1.2-0.1,2.4,0.4,3.1,1.4l0,0L66.1,213.6L66.1,213.6z"/>
<path class="st1" d="M190.1,115.6l0.2-2.6h0.4l-0.2,2.6H190.1z"/>
<path class="st1" d="M183.5,120.6l-0.4-2.6h0.5L183.5,120.6L183.5,120.6z"/>
<path class="st0" d="M104.8,220.6c-0.4-0.9-0.8-1.7-1.1-2.6c-0.6-1.6-1.1-3.3-1.7-5c-2-5.4-3.2-11-3.6-16.6c-0.1-0.4,0-0.9,0.1-1.3
	c1.3,4.4,1.7,9.1,3.7,13.5l-0.8-5.5l0.5-0.1c1.7,1.1,0.5,3.2,1.6,4.4c0.4,0.3,0.9,0.6,1.1,1c0.5,1,1.8,1.7,1.5,3.1c0,0,0,0.1,0,0.1
	c1.8,1,2.2,3.1,3.6,4.7l-0.1-1l0.4-0.1c0.6,1.7,1.2,3.5,1.8,5.3l0.6-0.3l0.8,1.4l0.3-0.2c-0.3-0.7-0.6-1.3-0.8-2s-1-1.2-0.5-2.1
	c0.1-0.1-0.2-0.6-0.4-0.8l-0.9-1.7l0.4-0.3c0.4,0.3,0.7,0.6,1.1,0.8c0.3,0.2,0.5,0.3,0.8,0.4c-0.6,0.9,0.2,1.6,0.5,2.1
	c1.4,2.3,3.1,4.4,4.8,6.6c0.3,0.4,1,0.6,1.5,1c0.3,0.3,0.6,0.7,0.7,1.1c-2.5-0.2-4.1-1.9-5.8-3.6c0.4,1.8,4.3,4.8,6.8,4.4l-0.6-0.8
	l2.1-0.6l0.2,0.4c-0.8,0.6-1.6,1.2-2.3,1.9c-0.5,0.5-1,1.1-1.4,1.6l-2.5,1.4c-0.3,0.1-0.6,0.3-1.1,0.6l0.3-1.3
	c-0.4,0.5-1.2,0.5-1.7,0.1c-0.1-0.1-0.2-0.2-0.2-0.3c-0.5-0.5-1-1-1.5-1.4l0.2-0.3l2.9,0.9l0.1-0.3c-2.5-1.7-6.2-1.9-7.7-5.4
	l-0.8,0.5c-0.2-0.4-0.3-0.8-0.5-1.3C105.8,223,105.6,221.4,104.8,220.6L104.8,220.6z M117.3,226.9c-2.8-1.4-5.7-2.5-7.8-5.1
	C111,225.2,114.1,226.2,117.3,226.9L117.3,226.9z"/>
<path class="st0" d="M150.2,180.4l-0.3,1.7l-1-1.1c1.2,1.9,1.7,4.1,1.3,6.3c-0.8-1-1.5-2.2-2.1-3.3c-1.2-2.7-2.2-5.4-3.4-8.2
	c-0.1-0.2-0.2-0.5-0.2-0.6c0.7-1-0.3-1.7-0.5-2.6c-0.4-1.7-0.8-3.4-1.2-5.2c-0.1-0.4-0.3-0.8-0.4-1.2l0.4-0.2
	c-0.1-0.2-0.2-0.6-0.4-0.7c-0.7-0.3-0.8-0.6-0.4-1.3c0.5-0.6,0.4-1.4-0.1-1.9c-0.1-0.1-0.1-0.1-0.2-0.1c-0.4-0.4-0.6-1-0.6-1.6
	c0-1.1,0.3-2.3,0.3-3.4c-0.1-1.5-0.4-3-0.6-4.4l-0.3-2.3c1.5,0.9,1.4,2.4,1.7,3.6c0.8,3,1.5,5.9,2.3,8.9c0.1,0.4,0.3,0.8,0.4,1.2
	l0.4-0.1c-0.8-3.7-1.7-7.3-2.5-11l0.4-0.2c0.6,1.9,2,3.4,2.5,5.5s1,4.3,1.6,6.5l-0.9,0.1c0.7,2.3,1.3,4.5,2.1,6.7
	c0.4,1.1,1,2.2,1.4,3.3c0.1,0.2,0.2,0.4,0.2,0.6c0.1,1.2,0.5,2.3,1.1,3.3c1,1.9,2,3.9,2.8,5.9c0.2,0.6,0.2,1.2,0.2,1.9
	C152.3,186,151.3,184.2,150.2,180.4z"/>
<path class="st0" d="M144.1,242.3c-1.8,0.7-3.5,1.4-5.2,2.1c-3.8,1.4-7.7,2.8-11.6,4.1c-1,0.4-2.1,0.5-3.1,0.9
	c-2.4,0.8-4.7,1.7-7.1,2.3c-1.7,0.4-3.6,1.2-5.4,0.1l-0.8-0.5l14.3-3.1v-0.4c-4.1,0-8.3,0.4-12.3-1.5c2.7-0.3,5.3-0.6,7.8-0.9
	c0.6,0,1.3-0.5,1.8,0.4c0.1,0.2,0.9-0.1,1.4-0.2c0.8-0.1,1.5-0.1,2.3-0.2c0.2,0,0.4,0,0.6-0.1c2.5-1.9,5.7-2.1,8.5-3.2
	c0.9-0.3,1.8-0.6,2.7-0.8c0.3-0.1,0.6,0,0.8,0.1l-4.5,2.7l-0.2-0.3l1-0.9l-0.2-0.3l-5.1,3.4c4.5-1.9,9.3-3.3,14.1-4.2L144.1,242.3z"
	/>
<path class="st0" d="M163.4,188.1c0.3-1.3,0.8-2.5,1.4-3.8c1.2-2.1,1.3-4.6,2.2-6.8c0.1-0.4,0.3-0.7,0.5-1l0.2,5.3h0.6l1.1-6.6
	l-1.2,1.9H168c0.1-0.8-0.1-2,0.4-2.4c0.5-0.5,0.8-1.2,1.1-1.8c0.4-0.8,0.8-1.6,1.3-2.3l-0.2,1.4c1.5-1.3,2.8-2.9,3.8-4.7
	c1.2-2.1,2.9-4,4-6.2s2.9-3.5,4.4-5.2l0.3,0.2c-0.6,0.9-1.1,1.8-1.8,2.6c-0.4,0.5-0.8,0.8-0.6,1.6c0.1,0.4-0.4,1.1-0.8,1.5
	c-0.9,0.9-2,1.6-2.9,2.4c-0.2,0.1-0.2,0.5-0.4,1l2.8-1.6l0.2,0.1l-2.7,3.7l0.9,0.1l-0.6,0.9l-0.5-0.6c-0.1,0.1-0.2,0.1-0.3,0.1
	c-0.8,1.3-1.7,2.6-2.7,3.8c-1.4,1.5-1.8,3.4-3.1,4.9c-0.1,0.2-0.2,0.4-0.2,0.6c0.5,1.3-0.1,2.1-0.8,3.1c-1.8,2.2-3.4,4.5-5.1,6.7
	c-0.3,0.4-0.6,0.7-0.9,1L163.4,188.1z"/>
<path class="st0" d="M166.3,190.1l1.1-2.8h0.2l0.2,1.6c0.8-1.2,1.5-2.1,2.1-3.1c0.3-0.5,0.5-1,0.7-1.5c0.5-1,1.5-1.1,2.4-1.4
	c3.5-1.5,7-3.2,10.5-4.8c2.1,0.4,3.4-1.5,5.5-2c-0.4,0.4-0.7,0.8-1.2,1.2c-0.9,0.7-1.9,1.4-2.9,2c-1.6,0.9-3.3,1.6-4.9,2.5
	c-1,0.6-1.8,1.4-2.8,2c-0.5,0.2-1,0.4-1.5,0.6l0.1,0.4c0.6-0.1,1.2-0.2,1.7-0.4c3.6-1.4,6.6-3.7,9.8-5.9c0.2-0.1,0.4-0.2,0.6-0.1
	c-6.5,5-13.3,9.6-21.2,12.1L166.3,190.1z"/>
<path class="st0" d="M169.3,147.3c0.5,1.6,0.9,3.2,1.4,4.9c0.1,0.4,0.3,0.7,0.4,1.1c0.2,0.7,0.3,1.4,0.5,2.1s-0.1,1.7,0.3,2.2
	c1.3,1.4,0.7,2.9,0.8,4.4l-0.6-1c-0.1,2.3,0.2,4.5-1.6,6.5l0.3-2.8l-0.5-0.1l-1.7,7.1l-0.4-0.1v-3.3h-0.2l-1.4,7.4l-0.1-0.1v-11.9
	h0.4l0.3,1.3c1-0.8,1.6-2.1,1.7-3.4c0.7-4.4,0.7-8.9,0-13.3c0-0.4,0-0.8,0-1.2L169.3,147.3z"/>
<path class="st0" d="M162.9,170.4l0.7-0.9l0.5,1.2h0.2v-2.2l0,0l1.1-0.8c0.8,1.4,0.5,10.1-0.5,11.4c0.1-2.2,0.2-4.2,0.3-6.2
	l-0.3-0.1c-0.3,0.5-0.8,1.1-0.8,1.6c0.1,4.1-1.8,7.7-2.9,11.4c-0.2,0.4-0.4,0.8-0.6,1.2l-0.4-0.5c-0.5,1.3-1,2.5-1.6,3.6
	s-1,1-1.8,0.1c-0.4-0.4-0.7-0.8-1.1-1.3c-0.2-0.4-0.3-0.9-0.4-1.4l2.4,1.1c0.5-0.8,1-1.7,1.3-2.7c0.7-2.4,1.2-4.9,1.7-7.3
	c0.2-1.3,0.4-2.5,0.8-3.7c0.6-1.4,0.6-2.8,1.3-4.1C163,170.7,163,170.5,162.9,170.4L162.9,170.4z"/>
<path class="st0" d="M189.7,181.9c-0.4,3-19.3,15.6-23.5,15.8c6.9-3.4,13.5-7.5,19.5-12.3c0.1-0.1,0.1-0.3,0.2-0.4
	c-2.5,0.2-4.1,2-6,3.2c0,0,0.1,0.2,0.3,0.4l-1.5-0.2l0.2,0.3c-0.4,0.5-0.8,1-1.3,1.4c-3.4,2.1-6.8,4.1-10.2,6.2
	c-0.1,0.1-0.3,0.1-0.5,0.1c0-0.3-0.1-0.7,0-0.9c0.4-0.6,1-1.2,1.6-1.6c1.9-1.1,3.9-2,5.8-3.1l-1.1-0.1c0.3-0.3,0.6-0.6,1-0.9
	c0.8-0.6,1.7-1.2,2.6-1.6c0.8-0.4,1.8-0.5,2.6-0.9c1.5-0.7,3-1.5,4.5-2.3C185.9,183.9,187.8,182.9,189.7,181.9z"/>
<path class="st0" d="M132.6,197.3l4.1,5.3l-0.8,1.5c0.9,0.8,0,1.8,0.2,2.8l1.4-4l0.4,0.1c0.1,0.8,0.1,1.7,0,2.5
	c-0.5,1.7-1,3.4-1.7,5.1c-0.3,0.8-1,1.7-2,1.4c-0.9-0.3-1.8-0.8-2.5-1.4c-0.1-0.1-0.1-0.7,0-0.8c1.4-0.9,1-2.3,1.2-3.5
	c0-0.1,0.1-0.2,0.1-0.3c0.9,0.4,1.4,1.4,1.2,2.4c-0.1,1,0,2.1,0,3.2h0.3v-3.4l0.9,0.9c-1-1.7-1.8-3.5-2.4-5.3l-0.7,0.2l-0.5-1.6
	l1.3,0.3c-1.8-1.7-0.6-3.5-0.8-5.1L132.6,197.3z"/>
<path class="st0" d="M159.3,139.4c-0.7-1.8-1.4-3.6-2.1-5.5c-0.1-0.5-0.3-1-0.6-1.5c-1.9-3-1.1-6.2-0.7-9.3c0.1-1.1,0.4-2.2,0.6-3.2
	c2.3,2.5,3,5.7,4.1,8.7l-1.2-2.3l-0.5,0.2c1,3.3,2,6.7,3,10l-0.3,0.1c-2.1-3-2.6-6.9-5.4-9.8c1.2,4.4,2.3,8.5,3.4,12.6L159.3,139.4z
	"/>
<path class="st0" d="M176.3,161.6c1.1-2.1,2.2-4.2,3.2-6.4c0.9-1.8,1.6-3.7,2.4-5.5c0.1-0.3,0.4-0.6,0.6-0.8c2-1.1,3.1-3.2,5-4.6
	c-0.7,1.4-1.3,2.7-2,3.9c-0.9,1.4-1.5,3-1.8,4.7c-0.2,1.1-1.5,2.2-2.4,3.2s-2.2,2-3.3,3c0.5,1.4-0.7,1.9-1.2,2.7L176.3,161.6z"/>
<path class="st0" d="M150.8,206.1c0.6-0.9,1.2-1.9,1.8-2.8c1.1-1.2,2.2-2.5,3.2-3.9c1.3-2.1,2.3-4.3,3.4-6.4c0.9-1.6,2-3.2,3-4.9
	l0.6,1.1c-0.4,1.4-0.8,2.7-1.2,4c-0.2,0.4-0.4,0.8-0.7,1.2c-0.4,0.9-0.8,1.8-1.3,2.6c-0.2,0.3-0.4,0.7-0.7,0.8
	c-1.8,0.4-2.1,2.2-3.1,3.3c-0.8,1-1.6,1.9-2.5,2.8s-1.5,1.5-2.3,2.2L150.8,206.1z"/>
<path class="st0" d="M162.3,132.1c5.3,7.4,6,15.9,6.4,24.6c-0.9-3.6-1.7-7.2-2.5-10.8c-0.4-1.9-0.9-3.8-1.4-5.6c0-0.1,0-0.2-0.1-0.2
	C163.1,137.6,163.2,134.7,162.3,132.1z"/>
<path class="st0" d="M148,199.6l0.4,1.3c1.4-0.7,1.1-2,1.4-3.1s0.7-2.2,1-3.4h0.4c0.1,0.7,0.1,1.5,0.2,2.2c0.1,0.8,0.1,1.6,0.1,2.4
	c0,0.5-0.3,1-0.7,1.3c-0.8,0.4-1.6,0.7-2.5,0.9c-0.8,0.2-1.3-0.4-1.1-1.3c0.3-1.5,0.6-2.9,0.9-4.4l-0.5,0.1
	c-0.3-0.4-0.7-0.8-0.8-1.2c-0.1-0.8-0.1-1.6,0-2.3c0-0.2,0.4-0.4,0.6-0.4s0.7,0.2,1.1,0.2c1.3,0.1,1.8,0.5,1.6,1.7
	c-0.3,1.8-0.8,3.6-1.2,5.3C148.8,199.1,148.5,199.2,148,199.6z"/>
<path class="st0" d="M145.9,184.8c-1.2,0.2-1.5,0.6-0.9,1.4c0.4,0.5,0.9,0.9,1.3,1.5c0.7,0.9,1.3,1.9,2,2.9c-2-0.1-3.8-1.3-4.7-3.1
	c-0.5-1.1-0.9-2.2-1.3-3.4c-0.1-0.2-0.1-0.5-0.1-0.7c0-0.6,0.2-1.2,0.2-1.8c-0.1-0.7-0.1-1.4-0.1-2.1L145.9,184.8z"/>
<path class="st0" d="M163.1,154.7c-2.4-6.3-4.7-12.6-7.1-19C159.7,139.3,164.2,151.8,163.1,154.7z"/>
<path class="st0" d="M136,199.9c-1.2-1.2-2.2-2.5-3-3.9c-0.9-1.3-1-2.9-1.4-4.3l-0.5,0.2l-0.1,1.4l-4.2-8.8l0.3-0.2
	c0.7,0.9,1.4,1.7,2.1,2.6c0.9,1.1,1.7,2.2,2.6,3.3c0.8,1.2,1.3,2.6,1.4,4.1c0.4,1.8,1.8,3.4,2.8,5.1c0.1,0.2,0.3,0.3,0.4,0.5
	L136,199.9z"/>
<path class="st0" d="M154.2,209.2c0.5-1,0.9-2.4,1.6-2.6c1.6-0.5,2.4-3.2,4.7-1.7c-0.3,1.4-1.5,0.5-2.4,0.9l0.8,0.8l-1.3,0.4
	c1.2,1.2,2.2,0.3,3.4,0c0.8-0.1,1.6-0.1,2.4,0.1c-0.5,0.3-1,0.5-1.4,0.8c-1.8,0.7-3.5,1.4-5.4,1.9
	C155.9,209.8,155.1,209.4,154.2,209.2z"/>
<path class="st0" d="M171.3,219.5c-0.5,0.5-1,1-1.6,1.3c-1.7,1-3.4,1.8-5.3,2.5c-2.7,0.8-5.4,1.3-8.2,1.6l14.8-5.8L171.3,219.5z"/>
<path class="st0" d="M86,260.2c1-0.9,1.5-1.4,2.6-0.6c0.8,0.4,1.7,0.7,2.6,0.6c1,0,1.9,0.5,2.5,1.2c0.1,0.2,0.5,0.2,0.8,0.3l0.2-0.3
	l-0.8-0.9c1.2-0.5,1.9,0.5,2.8,0.7c0.8,0.1,1.7,0.2,2.5,0.5c-0.4,0-0.8,0.1-1.1,0.2c-0.9,0.3-1.9-0.2-2.6,0.8
	c-0.2,0.2-1.1,0-1.7-0.1C91.2,261.8,88.7,261,86,260.2z"/>
<path class="st0" d="M190.4,165.9c-0.4,0.6-0.8,1.2-1.3,1.7c-2.7,2.3-5.9,4-9.4,4.9c0.3-0.4,0.6-0.7,0.9-1.1
	c2.5-1.6,5.1-3.2,7.7-4.8l1.8-1.1L190.4,165.9z"/>
<path class="st0" d="M139.8,209.5l0.6-1.1c0.1,0.3,0.1,0.5,0.1,0.6c0.2,1.4-0.7,3.8-2.3,4.4c0.1-2.6,0.1-5.1,0.3-7.5
	c0.2-0.6,0.4-1.2,0.8-1.7l1,2l0.4-0.8c0.7,0.9,0.1,1.6,0,2.4S139,208.1,139.8,209.5z"/>
<path class="st0" d="M192.5,177.3c-2.6,3.1-10.5,8.3-13.6,8.6l13.3-8.9L192.5,177.3z"/>
<path class="st0" d="M141.5,169.2l1.8,6.9c-0.1,0.2-0.3,0.6-0.2,0.8c0.6,1.1,1.3,2.1,1.8,3.1c0.4,0.9,0.6,1.8,0.7,2.7
	C141.9,178.9,141,174.3,141.5,169.2z"/>
<path class="st0" d="M174.4,213c-4.3,3.7-9.4,6.4-14.8,8.1c1.2-1.3,2.8-2.2,4.6-2.5c1.4-1,2.7-2.5,4.9-2.4c0.2,0,0.3-0.5,0.5-0.7
	c0.6-0.4,1.1-0.7,1.7-1C172.4,213.9,173.4,213.5,174.4,213z"/>
<path class="st0" d="M129.4,240.9c0.1,0.8-0.4,1.5-1.2,1.6c-0.1,0-0.2,0-0.3,0c-1,0.1-2.1,0-3.1,0c-0.1,0-0.3,0-0.3-0.1
	c-1.2-2.2-3-0.6-4.5-0.7c-0.4,0-0.8,0-1.2-0.1c0.8-0.3,1.7-0.6,2.6-0.8s1.8-0.3,2.7-0.4c0.9-0.2,1.9-0.3,2.8-0.3
	C127.7,240.1,128.5,240.5,129.4,240.9z M125,242l2.4-0.7l-0.1-0.3C126.6,241.4,125.4,240.3,125,242z"/>
<path class="st0" d="M109,256.7c-1.3,0.4-2.4,0.8-3.6,1.1c-0.2,0.1-0.5,0-0.7-0.1c-1.3-0.9-2.4-1.9-3.5-3c3.3,0.6,6.6-0.3,9.8,1.1
	h-7.3c0.5,0.6,0.5,0.6,2.5,0.7C107.1,256.5,108,256.6,109,256.7z"/>
<path class="st0" d="M165.6,210.1l-1.3,0.9l0.1,0.1l1.7-0.3c-1.9,2.1-7.5,4-9.3,3.1c0.1-0.1,0.2-0.3,0.3-0.3c2.3-0.2,4-2,6.1-2.7
	c0.8-0.3,1.5-0.7,2.2-1.1L165.6,210.1z"/>
<path class="st0" d="M145.5,229.7l0.2-1.3c3-0.5,5.8-2.1,9-1.5c-1.6,0.5-3.1,1.2-4.5,2C148.6,229.8,147.1,229.6,145.5,229.7z"/>
<path class="st0" d="M117.9,248.7c-3.9,0.8-7.8,2.5-12.1-0.2c1.4-0.1,2.5-0.1,3.6-0.1c2.6,0,5.3,0.1,7.9,0.2
	C117.5,248.6,117.7,248.6,117.9,248.7z"/>
<path class="st0" d="M155.8,193.9c-1.1-0.8-2.1-1.5-1.4-3c0.1-0.2-0.5-0.7,0-1.2s0.9-0.6,1.4-0.1s1.1,1.2,1.6,1.9L155.8,193.9z"/>
<path class="st0" d="M179.6,166.1c0.2-0.6,0.4-1.3,0.6-1.9c0.7-1.7,2.5-2.4,3.6-3.7c0.5-0.5,1-1,1.6-1.4l0.3,0.2
	c-0.4,0.7-0.8,1.4-1.3,2C182.8,162.9,181.1,164.4,179.6,166.1C179.6,166.1,179.6,166.1,179.6,166.1z"/>
<path class="st0" d="M172.2,221.8l12.2-4c-1.1,1.4-9.3,4.3-12.1,4.3L172.2,221.8z"/>
<path class="st0" d="M170,204.7c-0.7,0.5-1.4,1.3-2.2,1.3c-1.8,0-3.8,0.7-5.4-0.5v-0.5l7.6-0.6L170,204.7z"/>
<path class="st0" d="M151.1,185.4c1,0.8,2.1,1.3,2.5,2.1s-0.1,2.1-0.9,3C151.4,189.2,150.8,187.3,151.1,185.4z"/>
<path class="st0" d="M177.1,177.3c1-3.7,4.5-3.9,7.1-5.5l0.2,0.3L177.1,177.3z"/>
<path class="st0" d="M137,180.1c-1.5-2.4-1.6-5.1-2.4-7.7C137.4,174.4,136.8,177.4,137,180.1z"/>
<path class="st0" d="M137,220.4l0.7,1.2l-1.8,0.9c-0.1,0.2,0,0.6-0.2,0.7c-1,0.6-2,1.2-3,1.8c-0.2,0.1-0.3,0.3-0.4,0.5
	c-0.5,0.7-0.6,0.7-1.5-0.1c1.1-0.6,1.7-1.9,3.3-1.6c0.3,0.1,0.8-0.7,1.2-1.1l-0.6-1L137,220.4z"/>
<path class="st0" d="M89.2,264c-1-0.2-2.3,0.5-3.1-0.9c-0.1,0.1-0.2,0.2-0.3,0.3l-0.9,0.6c-0.2-0.4-0.4-0.7-0.5-1.1
	c0-0.5,0-1,0.2-1.4c0.5-0.5,1,0.4,1.5,0.6s1.3,0.4,1.9,0.7c0.5,0.3,1,0.6,1.5,0.9L89.2,264z"/>
<path class="st0" d="M134.3,214.9l-0.5,1.5c-1.2-1.3-2.2-2.3-3-3.4c-0.6-0.7-0.4-0.8,0.6-1.3l0.6,2.2l0.4-0.1l-0.4-1.6
	C133.4,212.5,134.3,213.6,134.3,214.9L134.3,214.9z"/>
<path class="st0" d="M166.9,200.5c-0.2,1.5-0.8,2.3-2.4,2.4s-3.1,0.5-4.9,0.6c0.2-0.2,0.4-0.5,0.7-0.6c1.1-0.4,2.3-0.8,3.4-1.1
	c0.2-0.1,0.4,0,0.7,0c0.5-0.1,0.9-0.2,1.3-0.4C166.1,201.2,166.5,200.9,166.9,200.5z"/>
<path class="st0" d="M146.6,212.6c-1.3,2.7-3.5,3.9-5.9,5C142.1,215.3,144.2,213.6,146.6,212.6z"/>
<path class="st0" d="M143.4,202.4c0.1-0.9,0.1-1.9,0.3-2.8s0.4-1.5,0.5-2.3s0.3-1.1,1.2-0.5v-1.4h0.4c-0.1,0.6,0,1.7-0.2,1.8
	c-0.9,0.2-0.4,0.8-0.4,1.2c-0.2,1.4-0.1,2.9-1.2,4L143.4,202.4z"/>
<path class="st0" d="M184.7,190.6c-2.1,2.2-4.3,4.3-7.4,5.1l-0.2-0.2c1.2-0.9,2.4-1.8,3.7-2.6s2.5-1.6,3.7-2.4L184.7,190.6z"/>
<path class="st0" d="M152.8,195.6l0.6-2.4l0.3-0.2l1.4,1.9l-2.7,3.3l-0.3-0.1C152.8,197.3,151.3,196.1,152.8,195.6z"/>
<path class="st0" d="M146,205.2l0.7-3.6l3,0.2l-3.3,3.6L146,205.2z"/>
<path class="st0" d="M173.1,198.5l-6.2,4.3c0.6-1.9,3.4-4.1,5.4-4.6C172.5,198.2,172.8,198.4,173.1,198.5z"/>
<path class="st0" d="M139.4,185.1c-0.5-1.4-1.8-2.6-1.1-4.5c0.2-0.5-0.4-1.3-0.6-2s-0.3-1.6-0.5-2.3l0.5-0.1l2.1,8.8L139.4,185.1z"
	/>
<path class="st0" d="M208,123l-1.2,0.3c0.7-1.8,1.4-3.6,2-5.2l0.4,0.1c0,2.2-0.5,4.4-1.5,6.4L208,123z"/>
<path class="st0" d="M173.9,175.6c0.3-0.4,0.4-0.9,0.8-1.1c1.1-0.5,0.8-1.8,1.5-2.5c0.8-0.7,1.7-1.3,2.7-1.8
	c-1.5,1.9-2.5,4.3-4.7,5.6L173.9,175.6z"/>
<path class="st0" d="M164.5,134.2l-2.8-7l0.5-0.2c2.3,1.8,1.5,4.8,2.7,7.1L164.5,134.2z"/>
<path class="st0" d="M161.4,161.6c-0.2-2.6-1.1-5.1-0.7-7.7C161.7,156.3,162,159,161.4,161.6z"/>
<path class="st0" d="M170.1,205.9c1.5-1.4,3.4-2.3,5.4-2.4C173.9,204.6,172.6,206.4,170.1,205.9z"/>
<path class="st0" d="M163,230.4c-2,1.2-3.8,2.9-6.5,3.2C158.3,231.9,160.6,230.8,163,230.4z"/>
<path class="st0" d="M152.1,225.1l-5.7,0.5v-0.4c1.9-0.6,3.7-1.8,5.7-0.6V225.1z"/>
<path class="st0" d="M168.3,218.9l6.1-3.6C173.1,218,170.7,218.6,168.3,218.9z"/>
<path class="st0" d="M98.9,250.8c-0.8,0.6-1,2.2-2.5,1.9c-0.1,0-0.3,0.2-0.3,0.3c-0.3,1.3-1.5,0.7-2.1,1.2l-0.2-0.4
	c1.6-1.2,3.3-2.3,4.9-3.5L98.9,250.8z"/>
<path class="st0" d="M183.8,166.9l7.9-6.2C190.8,162.3,185.4,166.7,183.8,166.9z"/>
<path class="st0" d="M153.7,200.4c-0.8,1.3-1.5,2.6-2.3,3.8s-1.7,2.3-2.5,3.4l-0.3-0.2l4.7-7.2L153.7,200.4z"/>
<path class="st0" d="M155.6,217.5l-1,0.4c0.6-0.9,2.5-1.3,3.8-0.9c-1.6,0.6-2.6,2.4-4.7,2l2.1-1.3L155.6,217.5z"/>
<path class="st0" d="M120,244.2l6.2-1.3c-0.2,1-2.4,1.7-6.1,1.7L120,244.2z"/>
<path class="st0" d="M139.4,199.8l-0.5-4.6c1.4,0.9,1.6,2.8,0.9,4.6L139.4,199.8z"/>
<path class="st0" d="M143.9,209.8c1,0.3,0.9,0.7,0.4,1.2c-1.1,1.1-2.4,2.2-3.7,3.1L143.9,209.8z"/>
<path class="st0" d="M150,189.9l-2.8-2.1c1-0.8,2.1-0.9,2.4-0.4c0,0,0,0.1,0,0.1l0.6,2.2L150,189.9z"/>
<path class="st0" d="M133.3,171.3c-1.4-2.2-1.8-4.7-2.1-7.1l0.4-0.1L133.3,171.3z"/>
<path class="st0" d="M191.2,180.2l4-4.6C194.8,177.8,193.3,179.6,191.2,180.2z"/>
<path class="st0" d="M154.4,216.1l6-1.6c-0.8,1.3-2,1.6-5.9,1.9L154.4,216.1z"/>
<path class="st0" d="M130.6,149.7c-0.8-1.7,0-3.4,2-5.1L130.6,149.7z"/>
<path class="st0" d="M170.1,209.8l-4.8,3.8l-0.2-0.3c1.3-1.6,2.9-2.9,4.8-3.8L170.1,209.8z"/>
<path class="st0" d="M83.6,263.8H81c0-0.4-0.1-0.9,0-1.1c0.5-0.4,1.1-0.6,1.7-0.6C83,262.1,83.2,263,83.6,263.8z"/>
<path class="st0" d="M146.4,224c-2.3,1.2-2.9,1.2-3.4,0C144,223.1,145,223.1,146.4,224z"/>
<path class="st0" d="M138,219c0.2-0.5,0.2-1.3,0.6-1.6c0.8-0.6,1.6-1.2,2.5-1.6C140.6,217.2,139.5,218.4,138,219z"/>
<path class="st0" d="M109.7,244.6l5.7,0.2c-1.8,0.6-3.8,0.7-5.7,0.3L109.7,244.6z"/>
<path class="st0" d="M177.7,201.1l2.9-1.1c-0.7,1.4-1.8,2.5-3.3,3C177.1,202.2,179,202,177.7,201.1L177.7,201.1z"/>
<path class="st0" d="M152.6,213.6l5.6-1.7l0.1,0.4C156.5,212.9,154.8,214.1,152.6,213.6z"/>
<path class="st0" d="M141.1,210.2l0.7-3l1.6,0.1C142.5,208,142.9,209.6,141.1,210.2z"/>
<path class="st0" d="M178.6,179l5.2-2.8C182.7,178.2,180.7,178.6,178.6,179z"/>
<path class="st0" d="M174.8,180l-4.2,3.2C171.2,181.4,172.8,180.1,174.8,180z"/>
<path class="st0" d="M146.3,222.7l5-1.1C150.6,222.9,148.1,223.4,146.3,222.7z"/>
<path class="st0" d="M146.2,220.6c0.6-1.2,2-1.7,3.2-1.2c0.3,0.1,0.5,0.3,0.8,0.6L146.2,220.6z"/>
<path class="st0" d="M159.8,135.3c0.7,2.1,1.3,4.3,2,6.4l-0.4,0.1l-1.9-6.4L159.8,135.3z"/>
<path class="st0" d="M145,190.7c0.9,0.4,1.8,0.8,1.4,2c-0.1,0.2-0.6,0.3-1,0.5l-0.9-2.3L145,190.7z"/>
<path class="st0" d="M158.9,179.1c-0.3,1.5-0.5,3.1-0.8,4.6h-0.4c-0.8-1.7,0.7-3.1,0.7-4.7L158.9,179.1z"/>
<path class="st0" d="M80.9,261.8c0.6-2.1,2.5-1,3.6-1.8c0.1,0.7,0.1,0.7-1.4,1.1L80.9,261.8z"/>
<path class="st0" d="M100.1,252.8l-0.5,0.4l0.4,1.6l-0.3,0.3c-0.5-0.5-1-0.9-1.4-1.5c-0.1-0.3,0-0.7,0.3-0.9c0.5-0.2,1-0.3,1.5-0.3
	L100.1,252.8z"/>
<path class="st0" d="M202.3,137.2l1.4-4.2h1.3l-1.2,0.7c0.8,1.6-0.9,2.4-1.2,3.6L202.3,137.2z"/>
<path class="st0" d="M167.9,191.4l-3.1,1.7C164.7,191.6,165.2,191.3,167.9,191.4z"/>
<path class="st0" d="M164.2,168.4l-0.3-4.5c1,0.8,1.1,1,0.9,2.4C164.7,166.9,164.4,167.7,164.2,168.4L164.2,168.4z"/>
<path class="st0" d="M173,177.2c0,1.7-1.3,2.5-2.3,3.6C170.8,179.2,172.4,178.5,173,177.2z"/>
<path class="st0" d="M161.2,208.9l4.2-1.9C164.6,208.5,163.9,208.8,161.2,208.9z"/>
<path class="st0" d="M97.5,256.8c-1,0.2-1.9,0.3-2.4-0.6c-0.1-0.3-0.2-0.5-0.2-0.8c0.3,0,0.6-0.2,0.8-0.1
	C96.3,255.7,96.9,256.2,97.5,256.8z"/>
<path class="st0" d="M128.3,239c1.3-0.9,2.8-1.2,4.3-0.8C131.2,238.4,129.9,239.4,128.3,239z"/>
<path class="st0" d="M101.5,250.7c1-0.9,2.1-0.6,3,1C103.2,252.1,102.4,251.3,101.5,250.7z"/>
<path class="st0" d="M174.7,189l-4.6,2.9C170.6,190.6,172.5,189.4,174.7,189z"/>
<path class="st0" d="M126.2,225.4c1-0.6,2.2-0.6,3.2-0.1c-0.8,0.9-2.1,1-3,0.2C126.3,225.5,126.3,225.5,126.2,225.4z"/>
<path class="st0" d="M205.6,130.3l1.6-4l0.4,0.1c-0.8,1.3-0.1,3.1-1.6,4.1L205.6,130.3z"/>
<path class="st0" d="M162.3,166.5V161C162.5,162.8,163.5,164.6,162.3,166.5z"/>
<path class="st0" d="M190.2,176l1.8-1.6c-0.5-0.8-0.2-1.3,0.8-1.5C192.6,174.9,191.8,176,190.2,176z"/>
<path class="st0" d="M118.2,236.9l2.4-0.9l1.2,1.1l-3.5,0.2L118.2,236.9z"/>
<path class="st0" d="M163.4,144.6l-1.3-4.9c1.4,1.4,1.2,3.1,1.6,4.8L163.4,144.6z"/>
<path class="st0" d="M173.3,179l2.7-3l0.3,0.3l-2.5,3.2L173.3,179z"/>
<path class="st0" d="M185.3,188.3l3.7-3.3l0.3,0.3l-3.7,3.2L185.3,188.3z"/>
<path class="st0" d="M157.1,150.1c0.9,0.3,1.9,2.9,1.7,4.1C158.3,152.9,157.7,151.6,157.1,150.1z"/>
<path class="st0" d="M157.3,183.9c1.1,1.5-0.6,2-0.8,3.2C156.1,186.1,156.3,185.2,157.3,183.9z"/>
<path class="st0" d="M129.8,206.7c0.9-0.4,1,0.3,0.9,0.8c-0.1,0.5-0.2,0.9-0.5,1.4C128.7,208.2,129.5,207.4,129.8,206.7L129.8,206.7
	z"/>
<path class="st0" d="M187.5,131.6l-0.7,3.5l-0.6-0.1c0.3-1.2,0.6-2.3,0.9-3.5L187.5,131.6z"/>
<path class="st0" d="M152.7,127l0.9,3.5l-0.5,0.1l-1-3.6L152.7,127z"/>
<path class="st0" d="M165,145.2l1,4.9l-0.4,0.1l-0.9-4.9L165,145.2z"/>
<path class="st0" d="M155.7,137.6l1,3.6l-0.5,0.1l-0.9-3.6L155.7,137.6z"/>
<path class="st0" d="M177.7,201.1c0.1,1.1-0.8,1.3-1.6,1.5c-0.5,0.1-0.9,0-1.4-0.1L177.7,201.1L177.7,201.1z"/>
<path class="st0" d="M149.1,148.7l2.4,3l-0.3,0.3l-2.5-2.9L149.1,148.7z"/>
<path class="st0" d="M162.9,170.3l-0.5,0.6l-0.3-0.1l0.5-3.6h0.3C162.9,168.3,162.9,169.3,162.9,170.3L162.9,170.3z"/>
<path class="st0" d="M162.6,195.8c0.5-1.3,1.2-1.6,2.6-1L162.6,195.8z"/>
<path class="st0" d="M146.7,206.9l2.6-3.1c-0.4,1.4-1.2,2.6-2.3,3.4L146.7,206.9z"/>
<path class="st0" d="M124.8,237.5h-2.6C124.7,236.3,124.7,236.3,124.8,237.5z"/>
<path class="st0" d="M131.6,207.2v-3.1c1.5,1.1,0.2,2.1,0.4,3.1L131.6,207.2z"/>
<path class="st0" d="M134.3,232.5l3.6-0.3v0.6l-3.6,0.2V232.5z"/>
<path class="st0" d="M148.7,210.2l-2.8,2.2l-0.3-0.3l2.6-2.3L148.7,210.2z"/>
<path class="st0" d="M143.7,207.7l0.7-2.5l0.4,0.1c0.1,0.9,0.1,1.8-0.7,2.4L143.7,207.7z"/>
<path class="st0" d="M188.8,174.3l-3.5,2.7l-0.2-0.3l3.6-2.7L188.8,174.3z"/>
<path class="st0" d="M138,219l-2.7,1.4C135.9,218.8,136.8,218.4,138,219L138,219z"/>
<path class="st0" d="M145.2,204.7c-0.7-1.1-0.6-1.7,0.7-3.2c-0.1,0.8-0.2,1.2-0.3,1.7S145.4,204.1,145.2,204.7z"/>
<path class="st0" d="M91.8,259.5l-2.6-0.4C90.7,258.3,91.5,258.4,91.8,259.5z"/>
<path class="st0" d="M174.9,163.5c-0.5,1.2-1.1,2.5-1.6,3.7l-0.5-0.2l1.8-3.6L174.9,163.5z"/>
<path class="st0" d="M104.9,249.6l3.8,0.7l-0.1,0.4l-3.8-0.8L104.9,249.6z"/>
<path class="st0" d="M132.2,239.2c-0.8,0.8-1.7,1.6-2.8,0.6c0.8-0.8,0.9-0.8,1.4-0.1l1.2-0.9L132.2,239.2z"/>
<path class="st0" d="M113.1,242.2l1.6-0.3l0.1,1.2l-1.4,0.2v-0.1l1.2-0.4c-0.3-0.1-0.5-0.1-0.7-0.1s-0.4,0-0.7,0L113.1,242.2z"/>
<path class="st0" d="M157.7,143.6c0.4,0.7,1.6,1.2,0.4,2.4l-0.8-2.3L157.7,143.6z"/>
<path class="st0" d="M129.9,230l0.4,1.1l-1.7,0.6l-0.2-0.4L129.9,230z"/>
<path class="st0" d="M147.2,197.1l-0.8,2.9l-0.3-0.1l0.6-3L147.2,197.1z"/>
<path class="st0" d="M114.6,241.1c1.3-0.7,2.3-0.5,2.6,0.4L114.6,241.1z"/>
<path class="st0" d="M129.2,233.6h2.2v0.4l-2.2,0.2L129.2,233.6z"/>
<path class="st0" d="M151.8,220.2l2.4-0.5C153.4,220.7,152.6,220.9,151.8,220.2z"/>
<path class="st0" d="M195.5,160.9l-1.9,2.6l-0.3-0.3l1.9-2.4C195.3,160.8,195.4,160.8,195.5,160.9z"/>
<path class="st0" d="M143.4,188.4c-1.6-0.4-1.2-1.3-1-2.2L143.4,188.4z"/>
<path class="st0" d="M159.1,151.7l-0.9-2.4l0.5-0.2l0.9,2.4L159.1,151.7z"/>
<path class="st0" d="M141.3,230.5l3.5-0.4v0.3L141.3,230.5L141.3,230.5z"/>
<path class="st0" d="M156.1,146l-1-2.5l0.5-0.2l0.9,2.5L156.1,146z"/>
<path class="st0" d="M109.8,242.2l0.4,0.4l-2.4,1.2l-0.2-0.4L109.8,242.2L109.8,242.2z"/>
<path class="st0" d="M196.2,176.9c0.3-1.3,0.8-1.9,2.1-1.8L196.2,176.9z"/>
<path class="st0" d="M190,164.6l2-1.4C191.8,164.4,191.1,164.9,190,164.6z"/>
<path class="st0" d="M107.6,224.6l0.6,2.1c0.7-0.7,1.2,0,1.7,0.5c0.9,0.8,1.8,1.6,2.6,2.4c0.3,0.4,0.6,0.9,0.9,1.4l1.2,0.2l-0.1,0.4
	c-0.9,0.2-1.9,0-2.7-0.6c-1-0.5-1.9-1-2.9-1.4c-1.3-0.5-0.3-1.8-0.8-2.6l-0.4,0.1l-0.1,1.5c-0.5-0.3-1-0.6-1.4-1
	c-0.6-0.7-1-1.5-1.5-2.2c-0.1-0.2-0.4-0.2-0.6-0.4c-0.3,0.6-0.5,0.3-0.9,0.1c-0.2-0.1-0.5,0.1-0.6,0.2c1.1,1,2.2,2,3.2,3
	c0.4,0.4,0.8,0.9,1.1,1.4c0.5,0.7,0.2,0.9-0.4,1c0.8,1.8-0.4,3.3-0.5,5l-0.5,0.2l-1.7-2.5l-0.6,0.1v-1.7l-0.7,0.1l-0.1,1.9
	c-2.3-1.1-1.4-2.7-1.2-4.2l-0.3,0.2c-0.2-0.4-0.6-0.8-0.6-1.1c-0.1-1.6,0-3.3,0-4.9l-0.4-0.1c-0.2,0.8-0.3,1.7-0.3,2.5
	c0.1,0.9,0.3,1.7,0.6,2.6l-0.4,0.2c-0.2-0.3-0.4-0.5-0.7-0.8c-1.8-2.3-3.5-4.7-5.2-7c-1.1-1.2-2.1-2.5-3-3.8
	c-0.7-1.4-1.4-2.9-1.9-4.4l0.3-0.1l0.6,0.9l0.4-0.3c-0.3-0.7-0.6-1.4-0.9-2.1c-0.2-0.5-0.4-1.1-0.6-1.7c0-0.2,0.3-0.4,0.3-0.6
	c0-0.4,0-0.8-0.1-1.2c-0.2-1-0.4-1.9-0.6-2.9l0.5-0.1c0.3,1.3,0.8,2.6,1.3,3.9c0.6,1.2,0.3,2.9,2.1,3.4l-0.9,0.5l1.4,0.3
	c-0.7,0.5-0.7,0.4,0,1.1c0.2,0.1,0,0.6,0.2,0.8c1,2,2,4,3.1,5.9c0.1,0.2,0.5,0.3,1,0.6c-0.2-1.9-1.1-3.1-1.7-4.5s-2.1-2.9-1.4-4.8
	c0-0.1,0.1-0.3,0.1-0.3c-1.7-1-1.1-2.8-1.5-4.2c-1.4-3.9-1.6-8.1-0.8-12.1c0.2,0.2,0.3,0.3,0.4,0.4c0.7,3.3,1.5,6.5,2.1,9.8
	c0.3,1.5,0,3.1,0.1,4.6c0.2,1.2,0.5,2.3,0.9,3.4c0.7,1.9,1.5,3.7,2.3,5.5c0.1,0.3,0.4,0.5,0.6,0.7c-1.3-2.8-2.1-5.8-2.6-8.9l0.3-0.2
	l0.9,0.6l-0.6-6.2h0.2c0.8,2.9,1.6,5.7,2.4,8.6c1-0.7,1.5-0.4,1.7,0.5c0.2,0.7,0.6,1.4,1.2,1.8c0.7,0.8,1.3,1.6,1.8,2.6
	c0.5,0.8,0.9,1.5,1.3,2.3v-0.1C105.2,222.3,106.2,223.7,107.6,224.6z"/>
<path class="st0" d="M111.5,164.7c-0.2,2.1-0.1,4.1,0.1,6.2c0,1.1,0,2.1-0.3,3.2c0,0.3,0.3,0.7,0.3,1c0,0.7-0.3,1.4-0.3,2.1
	s0,1.6,0,2.4c0,1.7,0,3.3,0,5h-0.4c-0.1-1.3-0.3-2.7-0.4-4s-0.1-2.7-0.3-4c-0.1-0.5-0.5-0.9-0.8-1.5c0.5-0.9,0.6-2,0.2-3
	c-0.3-1.1,0.2-2.5,0.4-3.7s0.6-2.4,1-3.6L111.5,164.7z"/>
<path class="st0" d="M110.3,208.8c-1.8-5.7-1.9-11.5-2.3-17.4C110.6,197,109.7,203,110.3,208.8z"/>
<path class="st0" d="M101.2,238.7c0.2,2.4-2.1,2.4-3.1,3.5c-0.2-0.5-0.4-1-0.6-1.6c-0.1-0.3,0-0.6,0.1-0.9c0.7-1.6,1.4-3.1,2.1-4.7
	c0.1-0.2,0.4-0.4,0.6-0.4c0.2,0,0.5,0.3,0.5,0.5c-0.1,0.8,0.3,1.6-0.5,2.4c-0.4,0.4-0.3,1.4-0.4,2.4L101.2,238.7z"/>
<path class="st0" d="M100.3,230.9l-1.1-1.6l-0.3,0.1c0,0.3-0.1,0.8,0.1,1c1.4,1.3,0.7,2.7,0.2,4.1c-0.5,1.2-1.1,2.3-1.9,3.3l0.8-2.7
	l-0.2-0.1l-0.8,0.9l0.3-1.9l0.7,0.3l0.4-0.4l-1.3-0.8v-0.3l1.1,0.1c-0.1-1-0.2-2-0.5-3s-0.6-2-0.8-3l0.3-0.2l1.8,2.3
	c0.7,0.3,1.3,0.9,1.4,1.7L100.3,230.9z"/>
<path class="st0" d="M71.8,216.7c3.5,1,4.3,4.2,6.3,6.7C75.5,221.7,73.4,219.4,71.8,216.7z"/>
<path class="st0" d="M96.9,238.8c-0.1,1.4-0.4,2.8-0.8,4.2c-0.4,0.9-1.5,1.5-2.3,2.3c-0.2-0.1-0.4-0.3-0.6-0.5
	c1.1-2,2.2-3.9,3.3-5.9C96.6,238.9,96.6,238.9,96.9,238.8z"/>
<path class="st0" d="M105.8,237c0.5-0.7,0.9-1.2,1.2-1.8s0.5-1.2,0.8-1.9l2.6,0.6v0.4C108.9,235.2,107.9,236.9,105.8,237z"/>
<path class="st0" d="M101,190.9c1.8,2.3,1.3,5,1.8,7.4C101.7,197.5,100.7,192.8,101,190.9z"/>
<path class="st0" d="M108.5,212c-1.1-3-2.8-5.9-2.9-9.2l0.4-0.1l2.7,9.2L108.5,212z"/>
<path class="st0" d="M106,237.7l-4.1,2.2l1-4.4c0.9,0.7,0.9,0.7,0.2,3c0.2-0.2,0.5-0.3,0.6-0.5C104.4,236.5,104.3,236.5,106,237.7z"
	/>
<path class="st0" d="M75.8,249.1c-1.5,0-2.7-1.2-2.7-2.7c0,0,0,0,0,0c0-0.2-0.2-0.6-0.3-0.8c-0.2-0.4-0.5-0.8-0.8-1.4
	c1.4,0.5,3.2,2.4,3.4,3.5l-1-0.5l-0.2,0.2L75.8,249.1z"/>
<path class="st0" d="M75.3,238.9l5.2,6.5l-0.3,0.2C78.3,243.6,75.7,242.2,75.3,238.9z"/>
<path class="st0" d="M110.2,213.5c-0.7-2.1-1.9-4.1-1.7-6.4C109.4,209.2,110.7,211.1,110.2,213.5z"/>
<path class="st0" d="M109.9,178.2c0.2,2.2,0.4,4.4,0.5,6.6c0,0.2-0.4,0.5-0.8,1c-0.1-2.6-0.2-4.9-0.3-7.2c0-0.2,0.1-0.5,0.2-0.7
	L109.9,178.2z"/>
<path class="st0" d="M102.7,182.7v8h-0.4C101.9,188,102,185.3,102.7,182.7z"/>
<path class="st0" d="M69,243c0.8,1.5,1.6,2.9,2.3,4.4c0.1,0.3,0,0.7,0,1c-0.3-0.2-0.7-0.3-0.8-0.5c-0.7-1.6-1.3-3.1-2-4.7L69,243z"
	/>
<path class="st0" d="M98.5,192.1l-0.4-8.6h0.4l0.7,8.6L98.5,192.1z"/>
<path class="st0" d="M107.8,230.8c1.5,0.4,2.7,0.7,3.8,1.1c0.3,0.1,0.4,0.7,0.5,1.1c0,0.1-0.5,0.4-0.6,0.3
	C110,232.9,108.7,232,107.8,230.8z"/>
<path class="st0" d="M72.6,252.1c1.3,0.5,2.1,1.9,2,3.3l-3.4-2.9L72.6,252.1L72.6,252.1z"/>
<path class="st0" d="M66.2,213.6l3.1,1.4l0.2,0.7c-2.1,0.3-3.4-1-5.1-2.1H66.2z"/>
<path class="st0" d="M78.5,252.5c-2.6,0.1-4.3-1-4.3-2.9L78.5,252.5z"/>
<path class="st0" d="M73.3,241.8l-1.3-2.1l-0.6,0.6c-0.2-0.4-0.6-0.8-0.5-1.1c0.2-0.6,0.4-1.3,0.7-1.9c0.7,1.5,1.3,2.9,2,4.3
	L73.3,241.8z"/>
<path class="st0" d="M83.3,250.8l-3.2-1.6l0.8-1.2l2.7,2.4L83.3,250.8z"/>
<path class="st0" d="M68.2,244.1l1.3,4.2c-0.5-0.3-1-0.4-1.1-0.7c-0.3-1.1-0.4-2.3-0.7-3.4L68.2,244.1z"/>
<path class="st0" d="M76.4,209.6c0.9,1.3,1.7,2.6,1,4.4l-1.4-4.3L76.4,209.6z"/>
<path class="st0" d="M82,233.6c-0.4-0.4-0.9-0.8-1.1-1.3c-0.3-0.9-0.4-1.8-0.6-2.8l0.3-0.1l1.7,4L82,233.6z"/>
<path class="st0" d="M97.1,195.9l0.9,6.8l-0.4,0.1l-1-6.8L97.1,195.9z"/>
<path class="st0" d="M97.4,180.2l-0.5,5.8h-0.4l0.5-5.8L97.4,180.2z"/>
<path class="st0" d="M69.4,217c1.8-0.4,2.4,0.1,3.1,2L69.4,217z"/>
<path class="st0" d="M100.6,180.6v4.1h-0.3l-0.2-4.1L100.6,180.6z"/>
<path class="st0" d="M84.4,197.2c0.6,1.4,0.8,2.9,0.5,4.4l-0.9-4.4L84.4,197.2z"/>
<path class="st1" d="M107.6,224.6c-1.5-0.9-2.5-2.3-2.8-4c0.9,0.9,1.1,2.4,2.4,2.7C107.3,223.8,107.5,224.2,107.6,224.6L107.6,224.6
	z"/>
<path class="st0" d="M74,224.7l2.9,3.3l-0.4,0.3l-2.8-3.3L74,224.7z"/>
<path class="st0" d="M72.7,252c-0.6-0.5-1.2-0.9-1.7-1.5c0-0.1,0.1-0.4,0.2-0.5s0.5-0.1,0.5,0C72,250.7,73,251.1,72.7,252L72.7,252z
	"/>
<path class="st0" d="M82.8,231.6l1.5,3.8l-0.3,0.1l-1.6-3.7L82.8,231.6z"/>
<path class="st0" d="M101.6,202.7l-0.5-3.1l0.3-0.1l0.7,3.2L101.6,202.7z"/>
<path class="st0" d="M95.7,237.8l-1.3,3l-0.3-0.1l1.1-3.1L95.7,237.8z"/>
<path class="st0" d="M83,223.9l1.6,2.9l-0.4,0.2l-1.5-2.9L83,223.9z"/>
<path class="st1" d="M117.3,226.9c-3.2-0.7-6.3-1.6-7.8-5.1C111.6,224.4,114.5,225.5,117.3,226.9z"/>
<path class="st1" d="M125,242c0.3-1.7,1.5-0.6,2.3-1l0.1,0.3L125,242z"/>
</svg>
