<?xml version="1.0" encoding="utf-8"?>
<!-- Generator: Adobe Illustrator 22.0.1, SVG Export Plug-In . SVG Version: 6.00 Build 0)  -->
<svg version="1.1" id="Layer_1" xmlns="http://www.w3.org/2000/svg" xmlns:xlink="http://www.w3.org/1999/xlink" x="0px" y="0px"
	 viewBox="0 0 300 300" style="enable-background:new 0 0 300 300;" xml:space="preserve">
<style type="text/css">
	.st0{fill:#232323;}
	.st1{fill:#FFFFFF;}
</style>
<title>Artboard 1</title>
<path class="st0" d="M57.7,175.4l-1.1,0.4l-0.4-6.2l1.7,1.6v-0.8l0.4-0.4c1-0.1,0.8,0.7,1,1.2c0.1,0.2,0.2,0.4,0.3,0.6
	c0.2-0.2,0.5-0.3,0.5-0.5c0-1.6,0.5-3.2-0.4-4.8c-0.2-0.3-0.3-0.5-0.4-0.6c0.2-0.6,0.5-1.1,0.4-1.5s-0.7-0.5-1-0.7
	c2-0.4,1-2.4,1.8-3.4c0.3-0.2,0.6-0.5,0.9-0.8c0.2-0.2,0.3-0.4,0.5-0.7c0.1,0.3,0.4,0.6,0.3,0.9c0,0.8-0.2,1.5-0.3,2.2
	c0,0.5,0,1,0.1,1.5c2.3-3,2.2-6,1.9-9.3l1.1,0.5l-0.3-2.3h0.6l0.7,1.6l0.3-0.1c-0.3-0.8,0.7-1.8-0.6-2.4c-0.2-0.1,0.1-0.9,0.1-1.4
	c0.9,0.4,1.2,0.2,1.4-0.7c0.3-1.1,0.8-2.1,1.5-3c0,0.8-0.6,1.6,0.3,2.3c0.1,0.1-0.3,1-0.4,1.5c0,0.2,0.1,0.4,0.2,0.6l-0.5,0.7
	l-0.4-0.1l0.4-2.2c-1.4,0.8-1.8,3.7-0.8,5.9c0.1-0.4,0.2-0.8,0.4-0.9c1.3-0.8,0.5-2.3,1.2-3.3l-0.3-0.1c2-1.9,2.9-4.4,4.1-6.8
	l1.2-0.2L73,146l0.2,0.2c0.2-0.1,0.4-0.1,0.5-0.2c0.4-1.2,1.2-2.2,2.2-2.9c0.7-0.4,0.8-1.7,1.3-2.6c0.3-0.7,0.8-1.4,1.2-2.1l0.3,0.2
	l-1.7,3.6l0.2,0.1l2.1-2.4c-0.6,1-1.1,2-1.7,2.9s-1.6,2.1-1,3.6l-1-0.4c-0.6,1.4-0.7,3-0.2,4.4c0.1,0.3,0.3,0.5,0.6,0.6
	c0.3,0,0.5-0.2,0.7-0.4c0.3-0.7,0.6-1.5,0.9-2.2c0.8-2.6,1.5-5.2,2.2-7.8c0-0.2-0.3-0.4-0.5-0.7c0.3-0.5,0.6-1,0.9-1.5
	c0.2-0.2,0.4-0.3,0.7-0.4c0.1,0.3,0.3,0.7,0.2,1c-0.6,1.6-1.4,3.1-1.9,4.8c-0.3,1.1-0.5,2.2-0.6,3.4c-0.2,0.8-0.4,1.6-0.5,2.5
	l0.4,0.1c0.4-0.8,0.7-1.6,1.1-2.4c0.8-2,1.6-3.9,2.4-5.9c0.4-1.2,1-2.5,1.6-3.6c0.8-1.4,1.2-3.2,3.1-3.5l-0.8-1.3l-2.1,3l-0.3-0.2
	c0.6-0.9,1.1-1.8,1.6-2.7c0.4-0.7,0.6-1.4,1.1-2.1c0.2-0.3,0.6-0.4,1-0.6c0.4,0.9,0.7,0.1,0.8-0.1c0.6-0.8,1.1-1.7,1.5-2.2
	c0.6-0.1,1.1,0,1.2-0.2c0.4-0.6,0.8-1.3,1.1-2l2.2-3.8l0.3,0.6l2.5-5l0.2,0.1l-0.6,2l0.4,0.2l1.3-2.1c-0.2,1.4-1.2,2.9,0.2,4.2
	l-1.2-0.5l-0.5,1.7l1.3-0.6c-2.2,1.8-2.5,4.4-3.2,7.2l1.4-1.2l0.3,0.1l-1.2,2.9l0.3,0.2c0.3-0.3,0.6-0.6,0.8-1
	c0.5-0.8,0.9-1.6,1.4-2.4l-0.6,2.6c-2,1.4-3.3,3.1-3.2,4.4l1.6-1.8c0.6-0.6,1.1-1.2,1.6-1.8c0.1-0.2,0-0.6,0-0.9
	c1.3-0.7,0.6-2.1,1.1-3l-0.5,0.6l0.7-3.6l-0.6,0.3c0.2-0.6,0.6-1.2,1-1.7c0.8-0.9-0.4-1-0.6-1.6c1.4,0.4,1.5-0.7,1.8-1.5
	c0.2-0.6,0.2-1.3,0.4-1.8c0.4-1.4,1-2.8,1.4-4.2c0.2-0.9,0.3-1.8,0.3-2.7c0.1-0.9,1-1.7,0.8-2.8c0-0.2,0.3-0.6,0.6-0.8
	c0.4-0.3,0.6-0.4,0.4-1.1c-0.1-0.8,0.1-1.6,0.5-2.3c0.7-1.1,0.9-2.4,0.6-3.6l0.3,0.1c0.2-0.4,0.5-0.8,0.4-1.1c-0.3-1.5-0.6-3-1-4.5
	h-0.6l-0.2,1.5l-0.3,0.1l-0.6-2.8c0.6,0.3,1,0.5,1.4,0.7s0.6,0.3,0.7,0.6c0.4,1.2,0.7,2.4,1,3.6c0.1,0.5,0.2,0.9,0.2,1.4l1-1.6
	l0.2,0.1c0,0.3-0.1,0.6-0.2,0.8c-1.2,2-0.3,3.9,0.5,5.7c1,2.2,2.3,4.2,3.6,6.4c-0.7-0.9-1.5-1.7-2.3-2.5c-0.9-0.8-1-2.1-2-2.7
	c-0.8-0.5,0-2.3-1.6-2.5c-0.5,2.6-1,5.2-1.6,7.9c-1,0-0.7,1-0.8,1.7c-0.4,1.8-0.8,3.5-1.1,5.3c-0.2,1.2-0.3,2.5-0.5,3.8
	c0,0.2,0.2,0.5,0.4,0.8h0.4l2.3-10.8h-0.1l0.8-1.5c0,1.7-0.3,3.4-0.7,5c-0.5,1.6-0.3,3.4-0.3,5.2l-0.8-0.2l0.2,3.1h0.3l1-1.8
	l0.5,1.8c0.9-1.6,2.2-2.7,1.7-4.5c-0.1-0.2,0.4-0.6,0.5-0.9c0.2-0.4,0.4-0.8,0.5-1.2c0-0.8-0.1-1.6-0.2-2.5c1.9,1.1,0.8,3.5,2.3,4.7
	c-0.6,0.9-0.5,2.1,0.2,2.8l0.2-2h2.3c-0.4,0.7-0.8,1.5-1.1,2.2c-0.1,0.9-0.2,1.9-0.1,2.9c0,0.3-0.1,0.7-0.1,1H111
	c0,1.4-0.8,2.9,0.1,4.6c0.5-1.7,1.1-3,0.4-4.6l1.1,1.2l0.8-2.6c1,1,0.4,1.7,0,2.4c-0.4,0.6-0.6,1.3-0.8,2c1.1-0.5,2-3.2,1.7-4.2
	c-0.1-0.3,0-0.6,0.1-0.9c0.9-2,1.9-4,2.7-6.1c0.2-0.5-0.1-1.3-0.2-2l-1.2,0.2c0.2-1.3-0.7-2-1.3-2.9c-1.1-1.5-2.2-3-3.4-4.5l0.4-0.3
	c0.9,1,1.8,2.1,2.7,3.2c0.7,0.8,1.2,1.8,1.8,2.6c0.1,0.1,0.4,0.1,0.9,0.1l-1.9-2.7l0.1-0.1l2.2,2.4l0.3-0.3l0.7-0.6l0.2,0.1
	l-0.4,0.9c0.8-0.2,1.5-0.1,1.6,1c0,0.4-0.2,1.1,0.7,1.3c0.3,0.1,0.3,1.3,0.4,2.2l0.6-0.3l1.2,2h0.4c1.5-3.8,3-7.5,4.5-11.3l-0.2-0.2
	l-2.8,3.4l-0.3-0.3c1-1.2,2.1-2.4,3.1-3.8c0.7-0.9,1.3-1.9,1.8-3c0.4-1.1,0.7-2.3,0.9-3.5c0-0.4-0.1-0.9-0.2-1.3
	c0-0.2,0.1-0.3,0.2-0.5h0.3c0.1,0.7,0.1,1.4,0,2.1c-0.1,0.7-0.6,1.4,0.5,1.6c0.1,0,0.1,0.3,0.1,0.5c-1.2-0.3-1.3,0.7-1.5,1.3
	c-0.7,2-1.3,4-2,6c-0.5,1.5-0.9,3-1.5,4.5c-0.4,0.7-0.8,1.4-1.3,2.1c-0.1,0.2-0.2,0.5-0.2,0.7c2.8-2.3,3.4-6,5.2-8.9l0.5,0.2
	l-0.7,3.5l0.3,0.1c0.4-0.7,0.8-1.4,1.2-2c0.1-0.2,0.4-0.2,0.5-0.3c0.3-0.1,0.5-0.3,0.7-0.5c0.8-1.1,1.6-2.3,2.4-3.4
	c0.2-0.1,0.4-0.1,0.6,0c0.3,0.3,0.6,0.6,0.7,1c0,0.1-0.2,0.5-0.3,0.5c-2.1-0.3-2.1,1.7-2.8,2.8s-1.1,2.5-1.8,3.7
	c-0.5,0.9-0.6,2-1.2,2.8c-0.1,0.2,0.1,0.6,0.2,1.2l-0.9-0.8l-0.5,2.4c0.8,0.3,0.2,1.2,0,1.7c-0.8,1.9,0.4,3.2,0.9,4.8l-0.8,0.2
	l-0.4-1.2h-0.4l-0.9,3.8l0.2,0.1l1.4-1.9l0.3,0.2c-0.4,0.6-0.8,1.2-1.2,1.8c-0.9,0.9-1.2,1.7-0.5,2.8l-1.2,0.4l-0.1-1.6h-0.2l-0.4,2
	l-0.3-2.3h-0.3l-1.1,5.1c1.7-0.5,1.9-0.9,1.7-2.7l1,0.2l0.1,1.3l1.5-1.4l-0.7-0.9c0.7,0.4,1.2,0.5,1.7-0.4c0.4-0.6,0.9-1.2,1.4-1.8
	l-0.3-0.3l-0.9,0.5c-0.1-0.2-0.1-0.3-0.1-0.4c0.4-0.5,0.9-1,1.3-1.4c0.9-0.5,1.7-1.1,2.4-1.8c0.6-0.8,1.1-1.8,1.4-2.7l0.4-0.7v1.5
	l0.2,0.1l1.3-2.2l-0.3-0.3l-2.7,2.1c-0.7-1.2,0.2-2.7-0.4-4l0.3-0.1l0.8,1.6c1.1-0.7,1.7-1.9,1.5-3.2c-0.1-1-0.4-2,0.8-3.1v3h0.3
	l0.5-1.2l0.4,2.3c0.9-2,0.7-4,1.3-5.9s1.3-3.8,2-5.9v2.6c0.9-0.2,2-0.7,2.6-0.4s1,1.5,1.6,2.4c1.2-0.9,2.2-2.2,2.8-3.6
	c0.5-1.4,0.7-3,1.1-4.5l0.6,3.5c1-1.1,1.6-2.5,1.7-4c0.1-0.4,0.1-0.8,0.2-1.1c0.2-1,0.4-2,0.6-3c0.3-2.1-0.6-4.1-1.3-6.1
	s-2.8-2.7-4.6-3.4c-1.3-0.6-2.7-1-4-1.6c-0.5-0.3-0.9-0.7-1.3-1.1l7.5,3c-0.3-1.2-0.6-2.3-2-2.6c-0.8-0.2-1.1-0.9-1.1-2
	c0-0.3-0.4-0.6-0.6-0.8c-0.3-0.3-0.6-0.5-0.9-0.7l0.2-0.3l3.1,2l-1-0.1c1,1.3,1.6,2.7,3.8,2.4c-0.3-0.2-0.6-0.4-0.9-0.7
	c-0.2-0.2-0.3-0.4-0.4-0.6l0.8-0.4l-1-3.1l0.8,0.1l-0.2-1l1.6,1.8l0.1-0.1l-1.1-0.3c0.3,1,0.6,1.8,0.8,2.5c0.3,1,0.5,2,0.8,2.9
	c0.1,0.5,0.4,1,0.6,1.6c1.8-2.3,1.9-3.3,0.5-5.1c0.6,0,1.1,1,1.4-0.1c0.4,1.3,0.8,2.4,1.2,3.7l5.2-5.3l0.3,0.3
	c-0.7,0.8-1.4,1.6-2.1,2.4s-1.4,1.5-2.1,2.3c-1.2,1.3-1,3-0.9,4.5c0.1,0.6,1,1.2,1.4,1.8c1.6,2,3.1,3.9,4.6,5.9
	c0.3,0.3,0.6,0.5,1,0.7v2.1l-0.6-0.9c-0.7,0.4-1,0.8-0.6,1.5c0.7,1.3,1.4,2.7,2.1,4c0.1,0.1,0.3,0.2,0.7,0.4l-0.1-1.8l1.1,0.5
	l-0.1,2.2l1-0.4c-0.5,1-0.7,2.1-1.7,2.9c-0.4,0.4-0.6,1-0.6,1.6c0,0.6,0.1,1.2,0.2,1.8c0.8,0,1.2-0.5,1.1-1.2c0-1.1,0.3-2.2,1-3.1
	c1.2-2.1,2.2-4.2,3.4-6.3c0.6-1.1,1.5-2,2.4-2.8l-4,7.2l1.1-0.5l0,0c-0.7,1-1.4,2.1-2,3.2c-0.4,0.7-0.7,1.4-1.1,2.1l0.4,0.3l1.6-1.6
	c0.3,0.8-0.1,1.4-0.7,1.9s-1.2,1.3-2.3,1.1c-0.4-0.1-0.9,0.6-0.4,1.2c0.2,0.3,0.4,0.5,0.5,0.8l3.9-2.1l0.2,0.3c-1,0.7-2,1.4-3,2
	c-0.8,0.5-2.4,0.4-1.4,2.1c0.1,0.2-0.4,0.6-0.4,1c0.1,0.4,0.2,0.8,0.3,1.2c0.3-0.2,0.6-0.3,0.8-0.5c1.1-1,2.3-1.9,3.3-3
	c1.6-1.7,3.2-3.5,4.8-5.2c0.2-0.2,0.3-0.5,0.5-0.7c2-1.5,2-3.5,1.6-5.7c-0.1-0.6-0.1-1.1-0.2-1.7l0.3-0.1l0.8,4
	c0.8-2.4,1.5-4.5,2.2-6.7l0.2,0.1c-0.8,3.3-1.5,6.7-2.4,10.1l1.4-0.2c0.3,1-0.3,1.3-1,1.6c-0.5,0.4-0.9,0.9-1.1,1.5
	c2.2-0.6,4.1-2.1,5.2-4.1l-0.6-0.3l2.6-1.4l-1.3,2l1.9-0.5c-0.6,0.5-0.4,1.4-1.3,0.9c-0.1,0-0.3,0.2-0.4,0.4
	c-0.4,0.4-0.8,0.8-1.1,1.1c0,0.3,0.1,0.8,0,1c-0.4,0.5-0.9,1-1.4,1.5c-0.4,0.4-0.8,0.9-1.1,1.4l0.2,0.2l2-1.7
	c-0.7,0.7-0.9,1.7-0.5,2.6l-0.6-0.2l-1.1,1.5l0.3,0.3l1.4-1.6c0.4-0.3,0.9-0.5,1.3-0.8s1-0.9,1.8-0.7c0.3,0.1,0.9-0.4,1.1-0.8
	c1-1.3,1.9-2.7,2.9-4.1c0.8-1.1,1.6-2.1,2.3-3.2c0.3-0.9,0.7-1.8,0.9-2.7c0.9-2.1,2-4.1,3-6.1c0.6-1.3,1.2-2.6,1.8-3.8l0.3,0.1
	c-0.5,1.2-1.1,2.3-1.5,3.5c-0.9,2.4-1.7,4.9-2.7,7.3c-1,2.2-2.1,4.3-3.4,6.4c-1.1,1.7-2.6,3.1-3.9,4.7c-0.7,0.9-1.3,2-1.8,3.1
	c0.7-0.5,1.7-0.9,2-1.6c0.8-1.8,2.4-2.7,3.6-3.9c1.2-1.1,2.5-2,3.9-2.9c0.2-0.1,0.5-0.1,0.7-0.1l-7.6,7.2l0.1,0.2l1.4-0.4l0.1,0.2
	c-0.2,0.1-0.3,0.2-0.5,0.3c-2.7,1.1-4.6,3.2-6.7,5.1c-0.6,0.5-1.3,1-0.9,2.2c1.7-0.9,3.8-0.5,5.3-2.6c1-1.4,3.1-2.2,4.7-3.2l0.6-0.4
	l-1.1-0.2c1-2.8,3.5-3.4,5.9-4.3c-0.4,0.3-0.7,0.6-1.1,0.9c-1,0.6-2,1.2-3,1.8l0.3,0.5l4.7-3l-1-0.2l2.4-1.2l0.2,0.2l-0.8,0.4
	c1.1,0.2,2.3-0.5,2.6-1.6l1.7,0.7l-2.3,1.7c-0.4,0-0.9-0.2-1.1-0.1c-1.4,0.7-2.7,1.5-3.9,2.4c-2.1,1.7-4.1,3.4-6,5.2
	c-0.4,0.5-0.7,1-1,1.6l0.4,0.4l2.1-1.3l0.3,0.2l0.1-1.1c0.6-0.5,1.1-1,1.8-1.4c0.4-0.2,0.9,0,1.4-0.2c1.1-0.2,2.2-0.5,3.2-1
	c0.8-0.7,1.4-1.5,1.9-2.5c0.2-0.5,0.4-0.9,0.7-1.3l-0.7,3.1h1l-1.4,1.2l0.2,0.3l1.9-0.4l0.2,0.3c-1.9,0.8-1.7,2.8-2.9,4.5l2-0.5
	c-1.6,0.7-3.4,1.2-3,3.8l1.4-0.4L195,134l2,0.1v0.3c-0.9,0.1-1.7,0.2-2.6,0.2c-1.1,0-1.4,0.6-1.6,1.5c2,0.6,3.1,1,4.4-0.1l0.3,0.9
	c1,0.1,1.9-0.6,2.1-1.5c0.4-0.8,0.9-1.5,1.5-2.2c-0.4-0.8,0.6-0.6,1.4-0.9l-1.4,3.2l0.2,0.2c0.4-0.3,0.7-0.6,1-1
	c0.7-1.1,1.4-2.2,2.1-3.3c0.1-0.2,0.4-0.3,0.6-0.4c0,0.1,0,0.3,0,0.4c-0.6,0.9-1.2,1.8-1.8,2.7c-0.5,0.7-0.4,0.9,0.4,1.5l2.5-5
	l-0.3-0.2l-0.9,0.6c0.6-0.8,1.2-1.6,1.8-2.4c0.4-0.7,1-1.3,1.6-1.9c-1.2,3.4-2.4,6.8-3.6,10.2c1.4-0.2,1.3-0.2,2-1.8
	c0.2-0.4,0.7-0.7,1.1-1.1c0.5,2.2-1.1,3.8-2.2,5.9l9.8-3l0.1,0.4l-3.6,1.2c-2,0.6-4,1.2-5.9,2.1c-0.8,0.4-1.2,1.7-1.8,2.6
	c0,0.1,0.2,0.3,0.3,0.4c0.3,0.2,0.7,0.4,1,0.6c1.3,0.6,2.7,0.8,3.9,1.7c0.9,0.5,2,0.7,3,0.7c2.1,0.2,4.3,0.2,6.5,0.3l0.1,1.4
	l-2.2,0.2v0.2l6.4,1.4l-0.1,0.5c-0.3,0-0.7,0-1,0c-2.9-0.4-5.7-0.7-8.6-1.1c-1.6-0.2-2.9,0.5-4.5,1.4l5.1,1.2h-3.5
	c1.1,1.5,2.8,1,4.3,1.6c-0.2,0.1-0.3,0.2-0.5,0.2c-0.1,0-0.3,0-0.4,0.3l3.9-0.2v0.3l-2.3,0.7l2.3,0.6v0.1h-4.8v0.4l7.4,1.7l-0.1,0.4
	c-2.4-0.4-4.7-0.8-7.1-1.2c-0.7-0.1-1.3-0.2-2-0.2c-0.3,0-0.5,0.3-0.9,0.5l-1.5-0.1l-0.1,0.4c1.2,0.3,2.5,0.5,3.7,0.9
	c0.5,0.2,1,0.5,1.4,0.9c0.5,0.3,1,0.6,1.5,0.9c-0.1,0.1-0.3,0.2-0.4,0.2c-0.9-0.3-1.8-0.7-2.8-0.9c-0.5-0.1-1.3-0.5-1.5,0.4
	c1.6,0.8,3,1.8,4.9,1.3l-0.2-1c0.2,0.2,0.5,0.3,0.7,0.4c0.6,0.3,1.2,0.5,2.2,0.9l-3.2,0.3l0.7,1c-3-1.7-5.8,0.9-8.9,0
	c2,2.1,3.9,3.6,6.6,4c3.3,0.5,6.5,1.5,9.5,2.9l-10.4-2.7l-0.1,0.5l2.8,0.7v0.2l-1.5,0.1l3.7,3.4c-2.4-1.1-4-3.6-6.7-4.1l-0.3,0.4
	l1.4,0.7l-0.3,0.3l-0.6-0.2c0,0.1,0,0.2,0,0.2c1.8,1.5,3.6,3,5.4,4.5c0.6,0.4,1.2,0.6,1.9,0.6c1.1,0.1,2.1,0,3.2,0v0.4l-3.4,0.3
	l7.5,8.8l-0.2,0.2l-3.5-2.6c0,0.6-0.2,1.2,0,1.5c1,2,2.2,3.9,3.3,5.9l-0.3,0.2c-0.6-0.7-1.2-1.5-1.7-2.4c-2-3.5-3.9-7-7.3-9.5
	c-0.7-0.5-1.4-1.5-2.1-1.5c-2.1-0.2-4-2-6.4-0.8c2.3,1.9,5.1,2.6,8,3.4L215,179l-3.6-0.9l6.4,8.7l-0.3,0.4c-0.3-0.1-0.6-0.3-0.8-0.6
	c-2.3-3.1-4.9-6-7.8-8.5c-1.8-1.5-3.8-1.5-5.8-1.8l1.1,2.3c-1.8-1-3.9-1.3-5.9-1c0.8,2.3,3.1,1.8,4.9,2.2l-0.1,0.4h-1.8l2.9,2.6
	l-0.1,0.2l-2.6-1.1l-0.2,0.3l2,1.6c-1-0.1-1.7-0.1-2.3-0.8s-1.7-1.3-2.3-1.1c-0.7,0.2-1.5,0.2-2.1-0.1c0.5,0.7,0.6,1.2,1,1.4
	c1.3,0.8,2.4,2.1,4.2,2.3c0.9,0.1,1.8,1.1,2.4,1.9c1.2,1.6,2.2,3.3,3.3,5c0.7,1,1.4,2,2.1,3l-0.3,0.3c-0.9-1-1.8-2.2-2.8-3.1
	s-2.2-1.8-3.4-2.6s-2.2-1.8-3.1-2.5l7.2,7.5l-0.3,0.4l-10.7-9.7l-0.3,0.3l8.2,7.9l-0.4,0.4l-5.3-5l-0.3,0.3l4.7,4.9l-0.2,0.2
	c-1.1-0.7-2.2-1.4-3.2-2.2c-1.7-1.3-3.3-2.7-5-4c-0.3-0.2-0.7-0.3-1.1-0.3c-0.6,0-1.2,0-1.9,0l-0.1,0.4l3.4,1.2
	c-0.8,0-1.3,0.9-2.4,0.1c-0.9-0.7-2.4-0.4-3.7-0.3c2.6,1.8,5.8,1.2,8.4,2.8l-6.6-1.3c0,0.9,0.1,0.9,1.8,1.5l-0.1,0.7l-5.2-1.4
	l-0.3,0.4c0.4,0.7,0.9,1.3,1.4,1.8c1.7,1.5,3.5,3,5.3,4.4c0.6,0.4,1.4,0.5,2.1,0.5c2.7,0,5.3,0,8,0.3c-1.1,0.1-2.1,0.2-3.2,0.2
	s-2,0-3,0.1c-0.4,0.1-0.9,0.2-1.3,0.4l0.1,0.4l-4.2-0.7l-0.2,0.6l-2.2-0.3l1.1,2.2c-1.3-1-1.9-2.7-4-2.9l0.7,3.1l-0.3,0.1
	c-0.2-0.9-0.6-1.8-1-2.6c-0.6-0.7-1.4-1.3-2.2-1.6c0.8,5.1,2.6,9.9,1.8,15.3c-0.4-1.9-0.7-3.6-1-5.2h-0.2l-0.4,3
	c-0.3-4.3-0.3-8.7-3.1-12.7c0.1,1.2,0.1,2.3,0.4,3.2c0.3,1.4,0.4,1.4-0.2,3.1c-0.4-1.5-0.2-3.1-1.5-4.2v5.7h-0.4
	c-0.1-1.1-0.2-2.1-0.2-3.2c-0.1-2.3-0.2-4.5-1.5-6.6c-0.2-0.3-0.4-0.7-0.7-0.8c-1.3-0.4-2.6-0.6-3.9-1c-0.8-0.2-1.6-0.6-2.7-1
	c0.4,1.9,0.6,3.4,1.9,4.6c0.2,0.1,0.1,0.6,0.1,0.9c0.5,1.6,1,3.1,1.4,4.6l-1.1,0.9c-0.1-1.2,0-2.6-1.2-3.3v10.9
	c-0.7-1.4-1.7-2.8-1.2-4.5c0.4-0.9-0.1-1.9-1-2.3c-0.1,0-0.2-0.1-0.3-0.1c-0.3-0.1-0.6-0.3-0.9-0.6c-0.6-0.4-1.1-0.4-1.5,0.3
	c0.3,0.5,0.5,1,0.7,1.6c0.1,0.2-0.1,0.4-0.1,0.7c-0.2-0.1-0.5-0.3-0.6-0.4c-0.3-0.8-0.4-1.5-0.6-2.3c-0.2-1.1-0.8-2-1.7-2.6
	c-1.1-0.7-2.2-1.6-3.4-2.5l-0.1,1.4c-0.6-1.2-1.2-2.3-1.8-3.4h-0.5c-1.5,4.7-4,9.1-7.2,12.9l3.3-7.2l-0.3-0.1l-0.5,0.4l-0.2-0.1
	c0.3-0.9,0.7-1.7,0.9-2.6c0.4-1.4,0-1.9-0.9-1.9c-0.5-0.7-0.8-1.5-1.3-1.6c-1.7-0.6-3.3-1.6-4.4-3.1c-0.8-1-1.7-0.5-2.6-0.3
	c-0.3,0.3-0.3,0.7-0.2,1.1c0.7,0.9,1.6,1.7,2.3,2.6h-0.8c-1.7,7.4-1.4,15.1,1,22.3l-0.4,0.1c-0.2-0.5-0.4-1-0.6-1.6
	c-1.3-4.6-1.9-9.4-1.5-14.2c0.1-1.9,0-3.7,0.1-5.6c0-0.3,0.4-0.6,0.7-0.9c0.2-1.2-0.8-1.6-1.8-2.1c-0.3,2.9-0.5,5.6-0.8,8.7
	l-0.5-0.9c-0.2,1.9-1.3,3.6-0.8,5.9l-1.9,3.3l-0.3-0.2c0.1-0.4,0.3-0.9,0.4-1.3c0.3-0.7,0.2-1.5-0.4-2.1c-0.3-0.4-0.4-0.8-0.4-1.3
	c-0.1-1.7-0.1-3.4-0.3-5.1c-0.1-0.5-0.3-1-0.5-1.4c0-0.2,0-0.4,0-0.6c0.4-2.3-0.5-4.4-1-6.6h-0.3l-0.3,1.3c-0.3-0.6-0.4-1.3-0.8-1.5
	c-0.5-0.2-1.1-0.2-1.6-0.2c0,2-0.3,3.9,0.1,5.7s1.5,3.2,2.4,4.9l-0.2,0.2l-1.6-2.5l-0.9,0.7c0-0.3,0-0.6-0.1-0.9
	c-0.2-1.2-0.5-2.4-0.7-3.6c0.2-0.2,0.5-0.4,0.5-0.5c0.1-0.9,0.1-1.7-0.1-2.6c-0.3-0.9,0-2.4-1.6-2.5c-0.6-0.1-1.2-0.2-1.8-0.4l2,1.4
	c-0.7,0.4-0.8,0.6-0.4,1.5c0.5,1,0.9,2.1,1.4,3.1c-0.4-0.3-0.7-0.7-0.9-1.1c-0.7-1.2-1.3-2.5-1.9-3.7l-0.3,0.1l3,6.3l-0.4,0.2
	c-0.2-0.3-0.5-0.6-0.6-1c-0.4-0.9-0.7-1.9-1.2-2.7c-0.3-0.4-0.8-0.7-1.4-1.1l0.6-0.5c0.1-1.6-2-1.4-2.6-2.5l0.5-0.6l-2.1-1.4
	l-0.3,0.4l0.9,0.6c-0.1,0.5-0.2,0.8-0.2,1c1.1,2.9,2.7,5.6,4.6,8.1c1.1,1.3,2,2.8,3,4.2c0.5,0.6,1,1.2,1.5,1.8l-0.4,0.3l-5.4-6.4
	l-0.2,0.1c1.3,2.5,2.6,5,3.8,7.5c-3.4-2.9-4.3-7.3-6.6-11c0.1-0.3,0.1-0.5,0-0.8c-0.3-1.4-0.8-2.7-1.4-4c-0.6-0.9-1.3-1.6-2.2-2.2
	c-0.6-0.5-1.3-1-2.1-1.3c-0.5-0.3-1.1-0.6-1.5,0.2c-0.1-0.4-0.2-0.7-0.4-1.1l-1.8-1.9l-0.4,1.4c-1.9-1.1-3.3-2.9-3.7-5.1l0.9,0.4
	l0.3-0.3l-1.3-1.8l-0.4,0.2l0.5,1.1l-1.6-1.3l-0.4,0.2l0.4,3.2h0.7c0,0.4-0.2,0.8-0.1,0.9c1,0.9,2.1,1.8,3.2,2.5
	c0.7,0.4,1.7,0.4,2.2,1.2c0.3,0.4,1,0.5,1.5,0.7c0.1,0,0.3-0.4,0.4-0.5c0.4,0.3,0.7,0.5,1.1,0.8c0.5,0.4,0.8,1,1.4,1.4
	c0.8,0.6,1.6,1.1,2.4,1.6l-0.2,0.3l-1.9-0.7c0.2,0.6,0.5,1.1,0.8,1.6c0.8,1,1.8,1.8,2.6,2.8c0.2,0.5,0.3,1.1,0.1,1.6
	c-0.3-0.6-0.6-1.1-0.9-1.7c-1.2-1.5-2.8-2.7-3.6-4.4c-1.1-2.3-3.3-2.4-5-3.6c-0.8-0.6-1.7-1-2.7-1.6c1.2,2.4,3.6,3,5.5,4.3l-3.1-0.5
	l0.7,1.2l-0.9,0.1l-0.1,1l1.7,1.3l-0.2,0.2l-1.9-0.8c0.1,1.8,0.2,3.5,0.5,5.2c0.5,1.8,1.1,3.5,1.8,5.2l-0.3,0.1
	c-0.6-1.6-1.4-3.2-1.8-4.9c-0.4-1.5-0.4-3-0.7-4.5c-0.3-0.9-0.8-1.7-1.4-2.4c0.3,2.9,0.3,5.9,2,8.5l-0.3,0.2
	c-0.5-0.5-0.9-1.1-1.1-1.8c-0.4-1.4-0.6-3-0.8-4.4c-0.2-0.9-0.3-1.9-0.5-2.8c0-0.2-0.5-0.3-0.8-0.4s-0.4-0.1-0.5-0.2
	c-0.5-1.9-2.6-2.2-3.7-3.6c0.1,1.1,0.2,2.2,0.3,3.4c0,0.2,0.3,0.3,0.5,0.4c0.5,0.4,1.1,0.8,1.6,1.3c0.8,0.7,0.1,1.3-0.1,1.9
	c-0.1,0.3,0,0.6,0.1,0.9c0.4,1.2,0.8,2.5,1.2,3.7c0,0.3,0,0.6-0.1,0.8c-0.9-1.3-1.7-2.4-2.6-3.7v1.2l-0.3,0.1l-0.8-2.7h-0.2l0.1,1.5
	c-0.9-1.2-0.9-2.9-3.2-3l2.4,5.4l-0.2,0.1l-5.4-4c0.2,1.6,1.2,3,2.6,3.8l-0.5-1.5l0.4-0.2l1.8,3.8c-0.8-0.3-1.5-0.6-2.2-1
	c-1.4-1-2.7-2.1-4.1-3.3l1.2,4.3l-0.3,0.2c-0.4-0.4-0.7-0.9-0.9-1.4c-0.3-1.4-0.4-2.8-0.7-4.2c-0.2-0.6-0.4-1.2-0.7-1.8l-0.4,0.1
	l0.3,1.9l-0.3,0.1c-0.2-1-0.5-2.1-0.7-3.1c-0.9,1.1-0.6,2.3-0.3,3.4c0.2,0.7,0.5,1.4,0.6,2.2c0,0.1-0.3,0.5-0.6,0.5
	s-0.5-0.2-0.8-0.4l-0.2,0.8l-0.6-0.4c-0.6-2.6-2.7-3.7-4.8-5.3c0.1,0.6,0.2,1.3,0.4,1.9c0.3,0.5,0.6,1.1,0.9,1.6l-1.4-1.3
	c0.7,2.5,2,4.7,3.7,6.6c-1.7-0.8-3.2-1.5-4.8-2.3c-0.2-0.1-0.2-0.4-0.3-0.5l2.7,1.1c-1.2-2.5-1.3-2.6-3-2l0.3,1
	c-1.1-1.1-2.6-1.2-4-1.6c-0.3-0.1-0.6-0.2-0.8-0.4c-1.1-0.8-2.2-1.7-3.3-2.5l-0.3,0.3l0.6,1.2l-0.1,0.2c-0.6-0.6-1.3-1.1-1.9-1.8
	c-1.1-1.2-1.6-1.2-2.4,0.6l-3.2-2.5l-0.3,1.5c-1.8-0.6-2.4-1.9-2.7-3.6l1.5,1.2l0.3-0.4c-0.5-0.5-0.9-0.9-1.5-1.3
	c-0.1-0.1-0.7,0.1-0.7,0.2c0,0.5,0,1,0,1.5l-0.7-0.6c-0.6,0.6-1.1,1.4-1.4-0.3c-0.2-1-1-1.9-1.7-3.1l-0.8,1.8h-2.6l0.9-3.9l-1,0.1
	c0.2-1,1.8-1.4,1.1-2.6c-1,1.1-2,2.1-3.2,3c-1.3,0.7-2.8,1.2-4.3,1.5c-0.9,0.2-1.1-1-0.9-1.2c0.8-0.9,0.1-1.8,0.3-2.6
	c0.3-0.8,0.7-1.5,1.1-2.2c1.1-1.4,2.2-2.8,3.4-4.2c0.5-0.6,0.6-1-0.3-1.4C58.8,176.4,58.2,175.9,57.7,175.4l1.5-0.1l0.2-0.4l-2-2.3
	C56.9,173.8,56.6,174.7,57.7,175.4z M102.7,135.2l1.6-3.3l-0.4-0.2l-1.4,3.3c-0.6,0.7-1.3,1.4-0.9,2.5L102.7,135.2z M84.1,159.7
	c-0.4,0.2-0.7,0.5-1,0.8c-0.3,0.4-0.5,0.8-0.7,1.2l0.4,0.2c0.4-0.3,0.8-0.7,1.2-1.1C84.2,160.6,84.1,160.1,84.1,159.7l0.6-0.8
	l-1.1-0.3l1.2-1.9l-0.3-0.2l-2,2.9L84.1,159.7z M160.9,121.2l0.8,0.9c0.5-0.8,1.4-1.5,0.8-2.8C161.8,119.9,160.5,119.8,160.9,121.2
	c-0.7-0.6-1-0.2-1.1,0.6c0,0.6,0,1.1,0,1.7c1-0.2,1.5-0.7,1-1.7C160.7,121.6,160.9,121.4,160.9,121.2z M186.6,141.6l-0.3-1.3
	c-1.3,0.7-1.4,0.8-0.7,2L186.6,141.6c0.2,0.1,0.5,0.5,0.6,0.5c0.6-0.2,1.2-0.5,1.7-0.8c0.2-0.1,0.4-0.4,0.4-0.5
	c-0.1-0.2-0.3-0.4-0.6-0.5C187.6,139.8,187.2,140.1,186.6,141.6z M175.6,158l-2.5-0.4c-0.1,0.9,0.2,1.1,0.9,0.9
	C174.5,158.3,175,158.2,175.6,158c0.1,0.2,0.2,0.5,0.4,0.5c0.5,0.3,1.1,0.5,1.6,0.6c1.4,0.2,2.7,0.3,4.1,0.4l0.1-0.5L175.6,158z
	 M77.1,182.6c-0.3-0.8-0.9-1.6-1.6-2.1l0.2,3L77.1,182.6c-0.8,1.3,0.4,2.5,0.1,3.6l1.3,0.5l-0.5-1.7c0-0.7,0-1.5,0-2.2
	C77.9,181.9,77.4,182.3,77.1,182.6L77.1,182.6z M88.1,191.7c-1.4-0.3-0.6-1.9-1.5-2.5c0,0.5,0,1,0.1,1.6c0,0.2,0,0.5,0.1,0.7
	c0.1,0.6,0.3,1.2,0.4,1.8c0.2,0.5,0.9,1,0.8,1.3c-0.4,1,0.4,1.3,0.9,1.8c0.1-0.3,0.2-0.7,0.1-1C88.7,194.1,88.3,192.9,88.1,191.7
	l1.8,1.2c0-0.2,0-0.4,0.1-0.5c1.1-0.7,0.4-0.9-0.3-1.2s-1.4-0.8-2.1-1.1L88.1,191.7z M187.7,137.9c-0.4-1.1-1.3-0.1-1.9-0.4
	l-0.5,1.9l0.4,0.3L187.7,137.9l1.9,0.4l-1.1,0.9c2,0.9,3.1,0.2,3.3-2C190.4,137.3,188.9,136.8,187.7,137.9L187.7,137.9z M87.7,137.3
	l1.3-2.1l-0.3-0.3h1.3l0.1-0.2l-1.1-0.6l1.7-1.3l-0.1-0.3c-0.6-0.1-1.5-0.5-1.8-0.2c-0.5,0.4-0.6,1.3-0.8,2c-0.1,0.3-0.1,0.8-0.3,1
	c-0.6,0.4-0.7,1.1-0.3,1.7C87.5,137.1,87.6,137.2,87.7,137.3c-0.8,0-1.5,1.3-1.4,2.4L87.7,137.3z M204.5,145.7l1.4-0.7
	c-0.9-0.5-1.7-0.9-2.3,0.2L204.5,145.7c-0.4,0.2-0.8,0.3-1.2,0.4c-0.8,0-1.3,0.6-1.3,1.4c0,0,0,0,0,0l6.5-1.1V146
	c-0.7-0.2-1.4-0.3-2.1-0.4C205.7,145.6,205.1,145.6,204.5,145.7L204.5,145.7z M69.8,184.1l-0.2-1.6l-0.3-0.1l-1.4,2.2l0.3,0.2
	L69.8,184.1l-1.7,2.4l0.3,0.3c-1.1,1.7-0.6,2.5,2.2,3.1c-0.2-0.7-0.5-1.4-0.9-2.1c-0.6-0.7-0.5-1.7,0.1-2.3
	C70.1,185.1,69.9,184.5,69.8,184.1z M139.5,119.8l-1.3,2l0.3,0.3l2.3-2.4L139.5,119.8c0.8-0.3,1.2-1.1,1-1.9
	c-0.1-0.5-0.3-1.1-0.4-1.7c-0.2-0.8-0.3-1.6-0.5-2.4h-0.3c-0.3,2.1-1.7,4.1-0.6,6.4L139.5,119.8z M95,187.1c-0.8,1.6-0.5,2.5,1,3.7
	l0.6-0.9l1.2,3.4l0.6-0.1c0-0.7-0.1-1.3-0.3-2c-0.5-1.2-1.1-2.3-1.7-3.5C96.1,187,95.7,186.5,95,187.1c0.5-1.1-0.2-1.5-1.2-1.9
	l0.2,2.3L95,187.1z M69.4,164l0.9-2.5C69.2,161.8,68.9,162.6,69.4,164l-1,2.7l-0.2-0.1l0.2-3.3h-0.4c-0.1,0.4-0.2,0.9-0.3,1.3
	c0,0.7,0,1.3-0.2,2c-0.8,1.6-1.2,3.3-1.2,5.1l1.1-0.8l0.5-4h0.5v3c1.4-0.1,0.6-1.7,1.3-2.5l0.6,0.8c0.8-0.6,0.7-1,0.2-1.5
	c1.2,0.5,0.7-1,1.5-1.1l-0.1,1.3h0.2l0.7-3c-0.8,1-2.5,1.2-2.3,2.8c-1.1-0.3-1-1.2-0.9-2C69.5,164.5,69.5,164.3,69.4,164z
	 M191,172.3c0.4-1.1-0.3-1.2-1.1-1.4l1-0.6c-0.5-1.1-1.7-1.6-2.9-1.2c0.3,0.4,0.6,0.8,1,1.2c0.2,0.2,0.5,0.4,0.5,0.5
	C189.4,171.9,190.3,171.9,191,172.3c1.1,0.8,2.3,1.7,3.4,2.5c0.6,0.4,1.2,0.7,1.9,1c-1.8-2.4-1.8-2.4-1.3-2.9
	c0.5,1.5,0.5,1.5,3.9,0.8l-1.5-0.1l0.1-0.6l-1.2-0.4c-0.3-0.1-0.8-0.5-1-0.4c-0.9,0.8-1.4,0.1-2.1-0.3
	C192.5,171.4,191.5,171.6,191,172.3z M99.4,131.1l-0.7,1.2l-1.2,2l0.4,0.2c0.8-1.2,2.3-1.9,2.4-3.6L99.4,131.1l0.5-1
	c0.5-0.7,0.9-1.4,1.2-2.1c0.3-0.8,0.5-1.5,0.7-2.3c0-0.5,0-0.9,0-1.4l-1.1,0.5l-0.1-1.3h-0.5l-2,8.1L99.4,131.1z M118.6,127.3
	c-0.2,0.4-0.4,0.8-0.7,1.2c-0.7,1-1.5,2-2.2,3.1c-0.2,0.4-0.5,0.9-0.6,1.4c1,0.4,1.5,0,1.8-1c0.3-0.8,0.7-1.5,1.2-2.2
	c0.4-0.8,0.8-1.6,1.3-2.5L118.6,127.3c0.7-0.9,1.4-2,2.2-3s1-2.4,0.3-3.2c-0.6-0.6-1.3-1-1.6-1.8c0-0.1-0.3,0-0.5,0
	c-0.8,3.7-0.3,7.6-3.1,10.6l0.3,0.1C117,129.1,117.8,128.2,118.6,127.3z M152.9,107.3l0.5-1.7c-1.2,0.8-1.2,1.1-0.7,1.9
	c-0.2,0.7-0.5,1.4-0.9,2.1c-0.8,0.9-1.5,1.8-2.2,2.8c-0.9,1.6-0.8,3.6-1.9,5.1c0,0,0.1,0.1,0.2,0.5l2.4-2.3c0.4-0.1,0.8-0.1,1.1-0.2
	s0.4-0.1,0.7-0.2c-0.1,0.3-0.3,0.5-0.5,0.7c-0.7,0.6-1.4,1.1-2.1,1.7c-0.2,0.1-0.3,0.3-0.5,0.5c-0.7,0.4-1.3,0.8-1.9,1.3
	c-0.7,0.8-1.3,1.7-1.9,2.7l-0.3-0.2l0.4-1.4l-0.2-0.2c-0.6,0.9-1.2,1.8-1.8,2.8c-0.1,0.2,0,0.5,0,0.8c0.8,0,0.4,0.3,0.2,0.7
	c-0.3,0.5-0.6,1-0.8,1.4l-2.4,0.2l1.9-3.6L141,123c1.1-0.8,1.8-2,2.1-3.3c0.1-0.2-0.2-0.5-0.4-1.1c-0.3,0.7-0.3,1.2-0.5,1.3
	c-1,0.8-2,1.5-3,2.2s-1.2,1.1-0.5,2.1l1.9-0.8c-0.7,1.1-2.5,1.5-1.8,3.3l-1.4-0.8l-0.3,0.3l1.3,1.5l0.8-0.6l0.3,1.8
	c-1-0.7-1.4-0.1-1.8,0.6c-0.5,1.1-1.1,2.2-2.5,2.6c-0.3,0-0.7,0-1,0c3.6-2.2,4.3-3.7,2.1-5.5l-2.3,2.7c-0.9-0.3-1.9,1.4-2.8,5.4
	l1.4-1c1,0.9,1.3-0.5,2.1-0.8c-0.2,0.7-0.4,1.7-0.9,1.9c-1.4,0.7-1.9,2-2.5,3.3c1.3-0.8,2.5-1.7,3.6-2.7c0.5-0.7,1.1-1.4,1.5-2.1
	c1.2-1.4,2.3-3,4.6-3.1l-4.9,6.4c2.1-0.4,3.8-1.8,4.6-3.8c-0.2-0.3-0.2-0.6-0.1-0.9c0.5-0.7,1.1-1.4,1.6-2.2l-0.3-0.2l-1,0.2l4.5-6
	c1.7,1,1-1.9,2.4-1.8c0,2.5-2.2,4.2-2.4,6.6c1.2-1.4,2.2-2.9,3.2-4.4c0.3-0.3,0.6-0.6,1-0.8l0.3,0.3c-1.5,2.3-3.1,4.7-4.7,7.2
	c0.4,0,0.6,0.1,0.7,0c3.2-2.4,6.1-5.3,8.3-8.6c0.3-0.4,0.7-0.9,0.7-1.3c-0.2-1.8-0.5-3.7-0.9-5.7l-0.9,1.1l-1.1-0.6
	c0.6-0.7,1.5-1.3,1.6-2c0.1-1.1-0.3-2.2-0.6-3.7c-0.5,2-1.1,3.7-2.6,4.8c-0.1-0.2-0.1-0.3-0.1-0.4c0.9-1.8,1.8-3.7,2.6-5.6
	C153.3,108.2,153,107.7,152.9,107.3L152.9,107.3z M201.2,161.2l-2.1,0.7l0.1,0.4l3.5-0.5v-0.4L201.2,161.2l0.7-0.7l-1.4,0.2
	l-0.4-0.9c0.7-0.2,1.1-0.7,2,0c0.7,0.8,1.8,0.9,2.8,0.5c0.4-0.1,0.8-0.2,1.2-0.2v0.2l-1.4,0.5l0.1,0.3c2,0.7,4.1,0.2,6.1,0.2
	l0.1-0.4l-4.1-1.1c-0.1-0.1-0.1-0.5-0.3-0.6c-1.3-0.4-2.6-0.7-3.9-0.7c-1.9,0.1-3.5,1.5-5.5,1c-0.1,0-0.3,0.1-0.6,0.2l0.7,1.2
	c-1.7-1.4-1.7-1.4-2.6-0.7c1.6,1.2,3.7,1.6,5.6,0.9C200.5,161.1,200.9,161.1,201.2,161.2L201.2,161.2z M61.3,167.1l0.8-0.9l0.8,2
	c0,0.8-0.2,1.6-0.5,2.4c-0.4,0.8-0.9,1.5-1.4,2.2l0.5,0.4c-1.1,1.1-1.1,1.1-0.6,3.4l0.8-2.9h0.3l0.2,1.9l0.3,0.1
	c0.6-0.9,1.3-1.7,1.9-2.6c0.2-0.3,0.1-1,0.2-1c1.5-0.5,1.3-1.9,1.7-3l-0.3-0.2l-1.2,1.2c-0.3-1.4,0-2.9,0.7-3.3l-1.1-5.4l-0.4-0.1
	l-1.1,4.1l-0.3-0.1l0.1-1.7h-0.3l-0.6,2.1h-0.2l-0.4-3.1l-0.4,0.1c0.1,1.4-1.2,2.9,0.6,4.1C61.4,166.7,61.4,167,61.3,167.1
	c-0.3,1.5-0.9,2.9-0.4,4.4C61.6,170,62.3,168.6,61.3,167.1z M97.4,185.3l1,3.4l-1-0.8l-0.2,0.2l1.1,2l1-2.7l0.3,0.1l-0.3,2.8
	l1.5-0.3c-0.2,1.6-0.9,3.1,0.5,4.3c1.2,1,2.3,1.9,3.5,2.9l0.4-0.3l-1.1-2c-0.8,0.6-1.2,0.5-1.3-0.3c-0.4-1.8-0.8-3.6-1.1-5.3
	c1.4-0.5,1.6-1.3,0.5-2.3l-0.9,0.6c0-0.9,0.2-1.9-0.2-2.6c-0.7-1.2-1-2.5-1-3.8c-0.1-0.4-0.3-0.7-0.7-0.9c-0.7-0.2-1.5-0.4-2.3-0.5
	l0.5,2l-1,0.9l-1.1-3.1c-0.4,1.8-0.1,2.6,1.1,3.3c0.2,0.1,0.3,0.3,0.3,0.5C97.2,183.9,97.3,184.6,97.4,185.3l-1.6-0.4l0.6-0.3
	c-0.4-0.4-0.8-0.8-1.1-1.2c-0.5-0.8-0.9-1.6-1.4-2.6c-0.4,0.6-0.8,0.9-0.8,1.2c0.1,0.8,0.4,1.6,0.9,2.3c0.7,0.7,1.6,1.4,2.4,2
	L97.4,185.3z M86,166.2l-0.1-0.1c1.1-0.4,2.2-0.8,3.2-1.3c2.6-1.3,5.4-2.3,8.3-3c1.6-0.5,3.3-1.1,4.8-1.8l-0.2-0.4l-2.2,1.2l1.4-1.9
	c-0.8-0.1-1.6-0.1-2.5,0c-0.9,0.3-1.7,0.7-2.5,1.2c-1.2,0.7-2.6,0.9-4,0.6c-0.3-0.1-0.8,0.2-1.1,0.3s-1,0.5-1.5,0.6
	c-1.9,0.6-3.6,1.8-5.7,2.1c-1.4,0.2-2.7,1.6-4.1,2.4c-1.3,0.8-2.6,1.5-4,2.2c-1.3,0.6-2.5,1.4-3.7,2.2c-0.6,0.4-1.4,0.4-2,0.8
	c-1.2,0.9-2.8,1.1-3.7,2.7c-0.8,1.3-2.2,2.3-3.4,3.4c-0.7,0.6-1.5,1.1-2.1,1.8c-1.2,1.3-2.3,2.6-3.4,4c-0.7,0.9-1.3,1.9-1.8,2.9
	c0.7,0.3,1.4,0.7,1.9,0.6c0.8-0.2,1.6-0.5,2.2-1c2.4-1.7,4.3-3.8,5.7-6.4c0.5-0.9,1.1-1.9,2.5-1.7c0.1,0,0.3-0.2,0.4-0.3
	c1.4-1.1,2.6-2.6,4.2-3.2c3.3-1.5,6.2-3.7,9.3-5.6c1.2-0.6,2.4-1.1,3.7-1.6C85.7,166.5,85.8,166.4,86,166.2z M156.9,115.2
	c-0.4-1.5-0.7-2.8-1.1-4.2c-0.7,1-1.1,1.5-0.8,2.7c0.5,2,0.3,4.2,0.5,6.3l0.5,0.2c1.1-1.4,2.3-2.8,3.4-4.2c0.4-0.6,0.7-1.4,1.2-1.7
	c0.9-0.5,0.8-1.2,0.6-1.8c-0.3-1.1-0.8-2.2-1.4-3.2c-0.7-0.8-1.3-1.7-1.7-2.7c-0.2-0.4-0.4-0.8-0.6-1.2l0.6-0.5l1,1.8l0.3-0.3
	l-3.7-4.3l-0.4,0.2c-0.2,1.4-0.3,2.9-0.2,4.3c0.4,1.9,1.3,3.7,1.8,5.6C157.4,113.1,157.4,114.2,156.9,115.2L156.9,115.2z
	 M133.5,154.4l0.1-0.5c-0.3-0.2-0.7-0.5-1-0.5c-1.6,0.1-3.2,0.2-4.9,0.4c-1.1,0.1-2.2,0.3-3.3,0.3c-1.6,0.1-3.2,0.1-4.8,0.2
	c-0.7,0.1-1.4,0.4-2,0.5c-1.9,0.2-3.8,0.5-5.6,1c-2.7,0.9-5.2,2-7.8,3.1c-0.4,0.2-0.8,0.4-1.1,0.7c4.3-0.8,8.8-1.5,13.3-2.3
	c1.3-0.2,2.8-0.3,3.9-1.4l-1.6-0.4v-0.3c1.8,0.4,3.5-0.5,5.4-0.3C127.2,155.2,130.4,154.7,133.5,154.4L133.5,154.4z M164.7,195.1
	c0.4,1.8,0.8,3.4,1.2,5.1c0.2,0.7,0.7,1.4,0.6,2c-0.1,0.8,0.2,1.5,0.9,1.9c0.8,0.6,1.7,1.1,2.9,1.9c0-1.2,0-2,0-2.8
	c0.2-1.5-0.3-3-1.3-4.1c-0.6-0.8-1.1-1.6-1.6-2.5C166.9,195.5,165.8,195,164.7,195.1L164.7,195.1z M93.7,196.1l0.4-0.1
	c-0.5-3.7-0.9-7.4-1.4-11.2l-0.7,1l-0.8-1.7h-0.3c-0.3,1.6-1.2,3.1-0.6,4.8C91,191.5,92.2,193.9,93.7,196.1L93.7,196.1z
	 M185.9,133.1c2.5-0.5,4.4-1.4,5.3-3.6l0.2,0.3l-0.2,0.8c1.7-1.1,2.1-1.8,1.8-3.1l-1.3,1.6c0.1-0.9,0.2-1.7,1.3-2
	c0.4-0.1,0.7-0.6,1.1-0.9l-0.2-0.3c-1.3,0.4-2.5,0.8-3.8,1.3c-0.6,0.3-1.7,0.3-1.3,1.5c0,0.1-0.3,0.5-0.5,0.6
	C186.7,129.9,187.1,131.7,185.9,133.1L185.9,133.1z M89,190.1l1.2-6.9c1.1-0.1,0.6-0.9,0.4-1.8l-0.5,0.8l-2-4.1
	c-0.7,1.5-0.9,3.3-0.5,4.9h1C87,185.6,87.3,189.1,89,190.1z M182.6,181.2c0.3,0.3,0.5,0.5,0.7,0.7c1.7,1.3,3.5,2.5,5.2,3.8
	c0.5,0.5,1.1,0.8,1.8,1.1c1,0.3,2.1,0.5,3.1,0.7l0.1-0.4c-1.4-1.7-1.9-4.5-5-4.2l1.1,2.2l-0.2,0.2
	C187.9,183.1,185.9,181.3,182.6,181.2L182.6,181.2z M83.2,189.3l-0.4-0.6l-0.1,0.1l1.9,2.9c-0.2-3.6-0.4-7.3-0.6-10.5
	c-0.8-0.7-1.5-1.1-1.8-1.7c-0.3-0.7-0.4-1.5-0.4-2.2h-0.4c-0.2,0.5-0.3,1-0.2,1.5c0.1,0.5,0.6,0.9,1.1,1.5l-1.6-0.4v3.5l0.2,0.1
	l0.9-1.5l0.2,0.1l-0.1,2.4h0.2l0.9-2.5l0.4,0.1L83.2,189.3z M70.9,152.9c-3.9,1.1-3.5,4.7-4.3,7.4c0.4,0.3,0.9,0.5,1.2,0.9
	s0,0.9,0,1.7c1.7-2.2,0.8-4.7,1.9-6.7C70.7,156.1,71.4,154.4,70.9,152.9z M117.6,177.6l0.2,1l-0.2,0.1l-1.2-1.7
	c-0.1,0.4-0.2,0.8-0.3,1.2c0,0.4,0.1,0.7,0.3,1.1c0.3-0.1,0.6-0.2,1-0.3c0.3-0.1,0.7-0.1,1-0.1c-0.8,1.5,0.8,1.4,1.5,2.2
	c-1-0.1-1.7-0.2-2.4-0.3c-0.3,0-0.6,0-0.9,0.1c0.2,0.2,0.3,0.6,0.6,0.7c0.4,0,0.7,0,1.1-0.1c1.3,1.8,3.8,0.7,5.2,2.2l0.3-0.3
	l-0.9-1.8l0.9,0.2c-0.8-1.7-1.2-1.9-2.9-1.7c-0.6,0.1-1.4,0.2-1.5-0.7C119.4,177.8,119.4,177.7,117.6,177.6z M129.8,186.3
	c0,0.2-0.1,0.3-0.1,0.4c0.8,1,1.1,2.4,2.5,3.1c0.3,0.1,0.5,0.5,0.7,0.8c0.4,0.6,1,1.2,1.5,1.8c0.6,0.4,1.2,0.7,1.9,0.9l0.3-0.3
	l-0.8-2.4l0.7-0.2C134.1,188.8,132.6,186.6,129.8,186.3z M74.6,150.3c-2,2.5-4.1,4.9-3.4,8.3c0.9-0.6,1.7-1.3,2.4-2
	C74.9,154.9,76,152.9,74.6,150.3L74.6,150.3z M119.9,130.2c-1.8,1.9-4.2,3.4-3.4,6.7l-0.5-0.8v1.9l1-0.8l0.3-0.3l0.5,1.1
	c1-1.5,1.8-2.9,2.7-4.3c0.1-0.3,0.2-0.6,0.1-0.9C120.4,132,120.1,131.1,119.9,130.2L119.9,130.2z M78,158.2l0.2,0.1
	c0.6-1.1,1.1-2.1,1.7-3.1c0.4-0.8,0.8-1.9,1.4-2.1c1.4-0.5,1.7-1.2,1.2-2.5c-0.1-0.3,0.1-0.7,0.2-1c0.4-1.2,0.8-2.5,1.3-3.7
	l-0.4-0.2c-0.9,1.9-1.8,3.9-2.7,5.8c-0.3,0.7-0.4,1.4-1.5,1.3c-0.2,0-0.6,0.3-0.6,0.5C78.5,154.8,78.2,156.5,78,158.2z M140.5,196.1
	c0.8,2.1,0,4.5,1.5,6.5c1.7-6.3,0.6-6.2-1.7-9.1c-1.6,1-0.7,2.3-0.5,3.9L140.5,196.1z M122.9,123.9c-0.6,0.8-1.1,1.7-1.6,2.4
	c-0.8,1.1,0.1,1.2,0.8,1.4c-1.4,1.1-1.8,3-1,4.6c0.4-1,0.7-1.9,1.1-2.8c0.2-0.3,0.5-0.6,0.9-0.7c0.8-0.2,1.7-2.1,1.3-2.8
	S123.5,124.7,122.9,123.9L122.9,123.9z M104.1,184c1.9,0.3,3.4,1.6,5.5,1.1c-0.1-0.2-0.3-0.4-0.4-0.5c-0.5-0.4-1.1-0.8-1.7-0.2
	c-0.4-0.5-0.7-1-1.1-1.5s-0.7-0.7-1.1-1l0.2-0.2l4.4,2.2c0.3-1.2-0.3-1.5-1-1.7c-1.5-0.4-3-0.6-4.6-0.9c-0.2,0-0.6,0.1-0.6,0.2
	c-0.2,0.6-0.3,1.3-0.5,2.2l1.4-0.8l0.2,0.2L104.1,184z M210.1,153l-0.1-0.3l-2.6,0.2v-0.3l1.4-0.4l-0.1-0.4c-2.3,0.3-4.5,1-6.5,2.1
	c1.6,1.3,3-0.2,4.6,0.1l-0.6,0.5h6.7c-1.8-1.2-3.7-0.5-5.5-0.4l-0.1-0.3L210.1,153z M78.7,177.7c-1.4-0.9-1.7-0.8-2.2,0.9l1.5,0.3
	l-0.1,0.3l-1.3,0.2c1.3,2.2,1.3,2.2,2.5,2.1l-0.5,2.1l1.2,0.1c-0.1-1.4-0.1-2.8,0-4.1c0.2-1.3-0.7-2-1.4-2.8L78.7,177.7z
	 M88.1,171.2l0.1,0.3c0.9-0.5,2.2-0.7,2.8-1.4c1.3-1.9,3.6-1.6,5.2-2.8c1.4-1.1,3.4-1.3,5.1-2c0.4-0.1,0.7-0.5,1.1-0.6
	c1.2-0.3,2.5-0.6,3.7-0.9c0.2-0.1,0.4-0.3,0.6-0.4l-0.2-0.3c-2,0.9-4,1.5-6.2,2c-2.2,0.3-3.8,1.7-5.7,2.2c-1.1,0.4-2.2,0.9-3.2,1.5
	c-0.3,0.2-0.5,0.6-0.8,1L88.1,171.2z M72.8,184.9c-0.3-0.4-0.3-0.5-0.4-0.5s-0.3,0-0.3,0c-0.6,1.1,0.3,1.7,0.8,2.6l0.6-0.9l0.1,2.2
	h0.3c0.6-1.1,1.5-2,1.1-3.4c-0.2-0.7-0.4-1.4-0.6-2.1c-0.2-0.3-0.6-0.6-0.9-0.8c-0.3,0.3-0.5,0.6-0.7,1
	C72.7,183.5,72.7,184.2,72.8,184.9z M155.8,99.5c-0.1,0.7-0.4,1.6-0.1,2c1.3,1.4,2.9,2.7,4.4,4c0.4-0.3,0.5-0.8,0-1.6
	C158.9,102.3,158.1,100.4,155.8,99.5z M200.5,162.7l-0.1,0.5l4.2,1.2c0.1,0,0.2,0.1,0.3,0.1c0.9,1.6,2.4,1.3,3.8,1.4
	c-1-1-2.1-1.9-3.3-2.7c-0.8-0.5-1.6-0.8-2.5-0.9C202,162.3,201.2,162.4,200.5,162.7L200.5,162.7z M88.4,197.9l-1.6-0.3l0.1-0.3
	l1.5,0.2l0.2-0.3c-1.5-0.9-1.5-3.6-4.2-3.1c-0.1,0-0.3-0.1-0.7-0.3c0.3,1.3,0.6,2.3,2.1,2.6l-1.2,1
	C85.7,198.7,87.2,197.4,88.4,197.9z M100.6,136.5l-0.4-0.4c-0.7,0.8-1.4,1.6-2.2,2.4c-1.9,1.9-1.6,4.6-2.4,6.8c0,0.1,0,0.2,0.1,0.8
	c0.5-0.5,0.9-1.1,1.3-1.7c0.3-0.6,0-1.5,0.1-1.9c0.6-1.4,1.4-2.8,2.3-4.1C99.8,137.9,100.2,137.2,100.6,136.5L100.6,136.5z
	 M142.3,178.6c0.1,1.6,1.1,2.5,2.2,2.3l4.4,3.4l0.2-0.3c-0.4-1.3-2.1-1.4-2.5-3C146.2,179.1,144.5,178.2,142.3,178.6L142.3,178.6z
	 M72.9,167.3c1.1-0.9,2.3-1.5,2.8-2.4c0.5-1.2,0.8-2.5,1-3.7l-0.4-0.1l-1,1.9l-1-0.4l0.5-0.9l-0.3-0.1C73.3,163.1,73,165,72.9,167.3
	z M158.2,185.5l-0.4,0.2c0.3,0.6,0.6,1.1,0.8,1.7s0.6,1.2,0.8,1.8c0.1,0.4,0,0.9,0.2,1.2c0.8,1.3,2.2,2.1,3.8,2.2
	C161.9,190.1,160.1,187.7,158.2,185.5L158.2,185.5z M185.7,154.7l-0.1,0.3l-5.5-0.3c1.1,0.4,2.2,0.7,3.4,0.7c1.3,0,2.6-0.6,3.8-0.3
	s1.5-0.8,2.6-1c-2.6-1.1-4.7-1-5.6,0.3L185.7,154.7z M141.6,117.9c0.2-0.6,0.6-1.1,1-1.6c1.1-0.9,1.3-2.2,0.2-3.2
	c-0.5-0.5-1.4-0.5-1.9,0.1c0,0,0,0,0,0.1C140.1,114.1,140.6,117.3,141.6,117.9L141.6,117.9z M174.3,180.2c2.1,1.2,3,3.6,5.6,3.8
	c0.4-1.2-0.4-2-1.8-3.1C177,180,175.9,180.1,174.3,180.2L174.3,180.2z M137.5,171.2c-0.8-2.3-2.9-2.2-4.9-2.7c0.3,1,0.5,1.8,0.8,2.4
	c0.1,0.2,0.5,0.2,0.7,0.3c0.7,0.2,1.5,0.3,2.2,0.5c0.4,0.2,0.7,0.4,1,0.7l0.2-0.3l-0.7-0.4L137.5,171.2z M105.8,187.2h0.3
	c0,0.6,0,1.3,0,2c0.1,1,0.3,1.2,1.2,0.9c-0.1-2.3,0.1-4.7-3-5.3l-0.2,1.1h0.2l0.4-0.8h0.4c-1,1.2-0.9,3,0.3,4c0,0,0.1,0.1,0.1,0.1
	L105.8,187.2z M80.8,147.2l0.4,0.2c2.2-3.6,4-7.5,5.1-11.5l-0.3-0.1L80.8,147.2z M89.8,144.8c-1.1,1.8-2.3,3.4-1.2,5.4l-1.7,1.6
	l1.1,0.1l-0.9,2.1l0.5,0.2c0.3-0.8,1-1.5,1-2.2c-0.1-1,0.3-1.9,1.2-2.4C88.9,148.1,90.7,146.5,89.8,144.8L89.8,144.8z M209.6,174.3
	l0.1-0.6l-8.9-4.1l-0.2,0.4c0.9,0.5,1.7,1.1,2.6,1.6s1.8,0.8,2.8,1.3l-0.4,1.2L209.6,174.3z M90.9,172c-0.9,0.6-1.7,1.4-2.4,2.2
	c-0.5,0.8-0.8,1.7-1,2.7l0.3,0.2c0.4-0.3,0.7-0.6,1-0.9c0.3-0.4,0.4-1,0.7-1.1c1.4-0.4,0.6-1-0.1-1.6c1.3-0.1,2.7,0.4,3-1.4
	l-0.7-0.4l1.2-1.3l-0.3-0.2l-2.4,2.1L90.9,172z M88.2,142.9l0.3,0.1c0.5-0.7,1.1-1.3,1.5-2c0.5-0.7,0.8-1.5,1.1-2.3
	c0.2-0.7,0.3-1.4,0.3-2.1h0.3l-0.1,1.9c1.2-1.4,1.7-3.3,1.2-5.1L88.2,142.9z M162,197.1l0.2,1.7l0.3-0.4c0.3,0,0.6,0,0.8,0.1
	c0.4,0.3,0.8,0.6,1.1,1c0.1-1.2-0.4-2.4-1.5-3c-0.5-0.4-0.9-0.8-1.1-1.4c-0.6-0.9-1-1.7-1.7-2.8C159.6,194.7,161,196,162,197.1z
	 M91.3,146.8c2.6,0.1,1.6-2.2,2.8-3l-1.3-0.6c2.1-1.4,2.7-3.4,3-5.6l-0.4-0.2L91.3,146.8z M143.7,120l1.2-0.2
	c0.8-0.2,1.4-0.3,1.3-1.5c0.1-1.1,0.3-2.2,0.7-3.2l-0.4-0.2l-0.9,1.2l-0.2-0.2l0.3-0.8l-0.4-0.2c-0.3,0.6-0.6,1.3-0.9,1.9
	c-0.1,0.4,0.1,0.9,0,1.3C144.2,118.8,144,119.4,143.7,120z M165.6,132.4l-6.5,5l0.1,0.3c0.7-0.3,1.4-0.7,2.1-1.1
	c1.1-0.5,2-1.2,2.8-2.1c0.5-0.6,1.1-1,1.9-1.2c0.7-0.3,1.7-0.5,2-1.5l-0.2-0.4l-2.1,1.3L165.6,132.4z M189.2,179.8
	c-0.3-0.3-0.5-0.5-0.8-0.7c-0.9-0.5-2.2-0.8-2.8-1.6c-1.4-2-3.3-1.6-5.1-1.5c0.4,0.2,0.8,0.3,1.3,0.3c1.2-0.2,2.3,0.6,2.5,1.8
	c0.2,0.6,0.6,1,1.1,1.3C186.7,179.6,187.9,179.7,189.2,179.8L189.2,179.8z M148.9,129.8l0.2,0.4c0.6-0.4,1.3-0.8,1.9-1.2
	s1-1,1.6-1.1c1.5-0.3,2.5-1.6,2.5-3.1C153,126.4,150.3,127.4,148.9,129.8L148.9,129.8z M155.9,188.4c-1.5-2.2-1.9-5.2-4.7-6.9
	C151.8,184.3,153.5,186.8,155.9,188.4L155.9,188.4z M146.6,190.7c0-1.3-0.1-2.6-0.5-3.9c-0.2-0.6-1.4-0.8-2.1-1.2
	C143.8,188,144.7,190,146.6,190.7L146.6,190.7z M150.6,195.8l0.3-0.3l-3.4-6.9l-0.4,0.1l0.8,3.1l-0.4,0.3L150.6,195.8z M164.8,148.7
	l-0.1-0.5l-8.6,1.6c1.2,1,2.4,0.6,3.4,0.4c1-0.2,2-0.5,2.9-0.9L164.8,148.7z M120.5,168.7c-0.8-1.2-3.2-1.8-5.4-1.1
	c0.3,0.3,0.7,0.5,1.1,0.6c0.5,0.2,0.9,0.2,1.4,0.4l-0.4,0.4c0.4,0.2,0.8,0.6,1.2,0.6C119.1,169.3,119.8,169,120.5,168.7L120.5,168.7
	z M189.6,191.6c-0.1-1-2.2-2.6-3.4-2.6l0.4,0.8l-2.3-1.1C186.4,191.5,185.3,191,189.6,191.6L189.6,191.6z M159.4,124.4l-1.4,0.2
	l1.1-2.5c-1.7,1-2.8,2.8-3,4.7l0.8,0.9l-0.2-0.8C157.4,125.8,159.1,125.9,159.4,124.4z M200.5,140.6l-1.5,1.6
	c2.8,0.5,2.7-1.8,3.5-3.2c-1.5-0.8-2.6-0.1-2.7,1.5L200.5,140.6z M104.8,191.7c-0.1-0.2-0.4-0.8-0.6-1.3s-0.6-1-0.9-1.6
	c-0.9,1.5-0.6,4.8,0.3,5.5L104.8,191.7z M180,143.7c-2.1-0.6-3.3,1.1-4.9,2.2c0.6,0,1.3,0,1.9-0.1c0.6,0,1.1,0,1.9,0
	c0.3-0.3,0.5-0.6,0.8-0.9C179.8,144.5,179.9,144.1,180,143.7L180,143.7z M151.8,190.1c-0.8,2.5-0.3,3.7,1.8,4.1
	C154.3,192.5,153.5,190.7,151.8,190.1L151.8,190.1z M157.4,182.9l5,6.8C162.6,188,158.8,183,157.4,182.9L157.4,182.9z M188,194.8
	l-0.3,0.1c0.3,0.8,0.4,2,1,2.3c1.4,0.6,2.9,1.1,4.3,1.5l0.1-0.2L188,194.8z M71.4,181.8c1.4-2.4,1.4-2.4,0.9-3.4l-4,3.6l0.2,0.3
	l2.8-1L71.4,181.8z M161.8,116.8h-0.3l0.5-2c-2.2,1.2-1.4,3.2-1.8,4.7c1,0,2-0.1,2.2-1.3C162.5,117.8,162,117.3,161.8,116.8
	L161.8,116.8z M198.6,172.2c0.9,2,4.1,2.4,5.8,1.8C202.8,172.6,200.7,172.6,198.6,172.2L198.6,172.2z M123.5,186.8
	c0.1-1.8-2-3.2-3.8-2.8C120.1,185.6,121.7,186.8,123.5,186.8L123.5,186.8z M184.5,153.1c-1.2-0.1-2.5-0.1-3.7-0.3s-2.5,0.6-3.7-0.2
	c-0.2-0.1-0.7,0.1-1.2,0.1C178.9,153.8,181.7,154.4,184.5,153.1L184.5,153.1z M151.1,189.5l-2.9-0.6l-0.2,0.2l2.7,3.9l0.4-0.2
	c0-0.5-0.1-1.1-0.1-1.6S151.1,190.3,151.1,189.5L151.1,189.5z M136.1,141.3c-1,0.4-1.9,0.7-2.9,0.9c-1.5,0.3-2.7,1.4-3.2,2.8
	c0.9-0.5,1.7-1,2.6-1.6c0.3-0.1,0.6-0.2,0.9-0.3C134.5,142.9,135.6,142.7,136.1,141.3L136.1,141.3z M76.7,165l3.1-1.7
	c-0.2-0.3-0.3-0.7-0.4-1.1c0-0.4,0.1-0.8,0.2-1.1C77.7,161.7,76.9,162.4,76.7,165z M71,163.5l0.3,0.1c1-1.4,1.9-2.9,2.7-4.5
	c0.4-1.2,2-2.1,1.3-3.7c-0.8,1.3-1.6,2.5-2.2,3.8S71.7,162,71,163.5z M115.6,179.3c-0.2-1.9-1.1-2.8-2.7-2.6c-0.3,0-0.9,0.2-0.9,0.3
	c0,0.4,0.1,0.8,0.3,1.1c0.3,0.3,0.7,0.5,1.1,0.6c0.2,0.1,0.4,0,0.6,0C114.5,178.8,115,179,115.6,179.3L115.6,179.3z M86.7,181.1
	l-0.4-0.1c-1.4,1.1-1.5,4.6,0.1,6.3c0.1-1.2,0.1-2.1,0.2-3.4l-0.8,1L86.7,181.1z M136.9,141.4l4.1-3.5l-0.3-0.5l-4.5,2.6
	L136.9,141.4z M109.2,180l0.1-0.4c0.3-0.1,0.7-0.1,1-0.2c0.2-0.1,0.4-0.3,0.5-0.5c0-0.2-0.1-0.4-0.3-0.5c-1.2-0.3-2.3-0.5-3.6-0.7
	l3.3,3.9C110.5,180.5,110.6,179.9,109.2,180z M173.4,119.2l-0.4-0.4c-1.7,1.2-3.6,2.2-4.5,4.2l0.4,0.4L173.4,119.2z M76.5,192.6
	c-0.1-0.6-0.1-1.3,0-1.9c0.6-1.3,0.3-2.8-0.9-3.6C75,189,75.4,191.9,76.5,192.6z M107,131l-0.2,0.2c-0.7,1.1-1.1,2.7-2.1,3.4
	c-1.3,0.9-1.6,2.1-2.3,3.2C104.4,135.9,107,134.4,107,131z M115.8,138.9l-0.4-2.1c-0.4,0.5-0.6,0.8-0.8,1c-0.3,0.5-0.6,1-0.9,1.6
	l1.7,0.7c1.8-1.2,1.8-1.2,1.6-1.9L115.8,138.9z M169,144.7l0.1,0.4c0.4-0.1,0.9-0.3,1.3-0.5c1.4-0.9,3.2,0,4.7-1
	c0.6-0.2,1.3-0.3,1.9-0.3l-0.1-0.6c-1.3,0.2-2.6,0.4-3.9,0.7S170.4,144.3,169,144.7z M191.6,143.5c-0.3-0.2-0.6-0.4-0.8-0.5
	c-0.2-0.2-0.5-0.5-0.7-0.7c-0.3-0.1-0.7-0.3-0.9-0.2c-0.4,0.3-0.7,0.7-0.8,1.1c0,0.4,0.1,0.7,0.4,1
	C189.2,144.6,191.1,144.1,191.6,143.5L191.6,143.5z M152.3,189.2c-0.6-2-2.2-3.5-4.1-4C149.1,187.2,150.9,188,152.3,189.2
	L152.3,189.2z M65.5,159.2h0.3c0.2-0.7,0.4-1.4,0.7-2.1c0.6-1.3,0.2-1.9-1.5-2.3L65.5,159.2z M156.3,131.5l0.2,0.3
	c2.2-0.6,4.1-2.3,4.1-4L156.3,131.5z M164.7,125.9c-0.8,0.4-1.6,0.8-2.5,1.2c-1.2,0.6-1.3,0.8-1,2.3
	C162.2,127.9,164.4,128.1,164.7,125.9L164.7,125.9z M158,189.8c-0.4-1.8-1.2-3.5-2.3-5C155.5,186.7,156.4,188.6,158,189.8z
	 M142.5,193.7l0.2-0.1c0-0.7,0-1.4,0-2.1c0-1.6-0.1-1.9-2.2-2.4L142.5,193.7z M111.1,143.7c0.6-0.6,1-1.1,1.5-1.6
	c0.9-0.8,1-1.1,0.1-2.1c-0.6,0.7-1.2,1.4-1.8,2.1C110,143,110,143.2,111.1,143.7L111.1,143.7z M138.3,149.6c1.7-0.2,3.6,0.7,5.2-1.2
	C141.6,148.4,139.9,148.2,138.3,149.6L138.3,149.6z M181,145l3.5-0.2l-0.1-0.4l0.9-0.9h-3.8L181,145z M187.3,176.2
	c1.5,1.8,3.8,1.8,5.7,2.6C191.7,176.9,189.3,177,187.3,176.2L187.3,176.2z M194.7,168.1c0.2-1.6-0.2-1.9-2.3-2.2
	c-0.5,1.6,0.2,2.6,1.9,2.7l-1.4-1.2l0.1-0.2L194.7,168.1z M109.6,133.1l-0.3-0.3c-0.3,0.2-0.8,0.3-0.9,0.6c-0.4,1.5-0.7,3-1,4.4
	C108.6,136.6,109.4,134.9,109.6,133.1L109.6,133.1z M201,165.3c-0.6-1.1-1.6-1.8-2.8-2c-0.3-0.1-0.8,0.6-1.2,0.9
	c0.1,0.2,0.2,0.4,0.4,0.6c0.6,0.4,0.8,0.1,1-0.4c0-0.1,0.3-0.1,0.4-0.2C199.1,165.5,199.5,165.7,201,165.3z M185.3,187.4
	c-0.7-1.5-2.3-2.4-3.9-2C182.1,186.8,183.7,187.6,185.3,187.4z M83.6,180.3l0.2-0.1l0.4-4.6c-0.3,0.3-0.7,0.8-0.9,0.8
	c-1-0.1-0.9,0.8-0.8,1.1C82.8,178.5,83.1,179.4,83.6,180.3z M113.1,188.6c-0.3,1.7,0.3,2.6,1.3,3.1l1.4-1.1L113.1,188.6z M101.9,128
	c1.2-0.2,2.2-0.2,2.2-1.5c0-1-0.7-1.4-1.5-1.6L101.9,128z M72.7,189.5c0.5-1.1,0.3-1.8-0.7-2.5c-0.7,1.1-0.3,2.1,0.1,3.1
	c0,0.1,0.4,0.1,0.7,0.2l0.3,0.9l0.3-0.1C73.3,190.5,74,189.7,72.7,189.5L72.7,189.5z M108.4,140l0.5,0.2c1-1.6,2.4-3.1,2-5.4
	c-0.9,0.3-0.9,0.9-0.9,1.5c0,0.3,0,0.7-0.2,1C109.4,138.3,108.9,139.2,108.4,140z M126.1,130.6c0.4-1.9,0.8-3.6,1.3-5.6
	c-0.4,0.2-0.6,0.2-0.6,0.3c-0.4,1.3-0.8,2.6-1.2,3.9C125.4,129.7,124.9,130.5,126.1,130.6L126.1,130.6z M181.6,191.7
	c0.8,1.8,0.4,4,3,4.3C183.6,194.7,183.5,192.8,181.6,191.7L181.6,191.7z M152.5,96.5c-0.2,1.4,0.4,2.7,1.6,3.5l1.1-0.7L152.5,96.5z
	 M151,142.1h-0.3l0.1,1.1c-1.1,0.8-2.5,0.5-3.2,1.8c2,0.2,4.8-1.4,4.5-2.8l-0.7,1.2L151,142.1z M157.6,196.8c-1,1.7-1.7,3.6-1.9,5.6
	C156.5,200.5,157.8,198.9,157.6,196.8L157.6,196.8z M123.2,129.3l-1.7,4.5C123.3,133.1,124.2,130.3,123.2,129.3L123.2,129.3z
	 M91.4,129.6l0.4,0.3l3.2-5.7l-0.3-0.2C92.7,125.2,92.8,127.9,91.4,129.6L91.4,129.6z M135,172.9c1,1.6,2.3,2.2,3.4,1.7
	C138.2,173.4,136.9,172.8,135,172.9z M73.3,147.8h-0.4c-0.2,1.1-0.3,2.2-0.4,3.3c0,0,0.7,0.2,0.8,0.1c0.4-0.4,0.7-0.8,1-1.3
	L73.3,147.8z M156.5,196.2l-1.8-0.7l-0.1,0.2l1.3,1.1l-0.1,0.2l-1.3-0.3l0.8,2.5h0.5L156.5,196.2z M167.5,193
	c-0.4,0.9,0.8,4,1.9,5.1C169.3,196.2,168.6,194.4,167.5,193L167.5,193z M172.4,192.3c0.4,1.5,1.3,2,3.3,1.9
	C174.8,193.2,174.1,191.9,172.4,192.3L172.4,192.3z M206.8,176.3c-1.3-1.3-3.2-1.8-5-1.2l-0.1,0.3L206.8,176.3z M178,147.3l-4.4,1.2
	C176,149.1,177.4,148.8,178,147.3L178,147.3z M190.8,188.4c-0.8-1-4-2.1-4.6-1.6C187.4,188,189.1,188.5,190.8,188.4L190.8,188.4z
	 M196.2,137.6c-1.1-0.2-1.8-0.3-2.6-0.4c-1.2-0.2-1,1-1.5,1.6C193.7,139.4,194.5,137.8,196.2,137.6L196.2,137.6z M177.6,125l0.4,0.4
	c2.1-0.6,2.6-2.9,4.2-4.1l-0.3-0.3L177.6,125z M90.8,135l0.3,0.1l3.2-6.6l-0.4-0.2l-3,6.3C90.9,134.7,90.8,134.9,90.8,135z
	 M145.8,183.8l0.2-0.4l-3.5-2.3C142.8,183.3,144.4,183.4,145.8,183.8L145.8,183.8z M151.8,177.2l2.9,3.1
	C154.6,177.8,153.8,177,151.8,177.2L151.8,177.2z M153.1,133.1l-0.3-0.2c-0.4,0.5-0.8,1.1-1.3,1.6s-1.8,0.6-1.2,1.9
	c0,0-0.2,0.2-0.3,0.3C151.1,135.6,153.1,135.1,153.1,133.1L153.1,133.1z M200.9,153l0.2,0.4l5.2-2.3l-0.1-0.3
	C204.2,150.7,202.7,152.3,200.9,153z M163.9,135.9c2,0.1,4.4-1.7,4.2-3L163.9,135.9z M206.1,171.1c-0.4-1.4-2.4-2.2-4.6-1.9
	L206.1,171.1z M112.3,189.2c0.8-1.9-1.3-2.3-1.7-3.7l-1,0.5C111.3,186.6,111,188.6,112.3,189.2L112.3,189.2z M158,119.8
	c-2.1,1.2-2.4,2-1.7,4L158,119.8z M211,173.2l0.3-0.4l-4.4-3.3l-0.4,0.5L211,173.2z M137.5,177l-0.2,0.4l0.9,1.1
	c0.5,0,0.9,0,1.2-0.1c0.3-0.1,0.6-0.1,0.9-0.2c-0.2-0.3-0.3-0.8-0.6-0.9C139,177.2,138.3,177.1,137.5,177z M154.1,107.2
	c0.1,1.7,0.2,3.2,0.2,4.9C155.6,110.5,155.5,109.2,154.1,107.2L154.1,107.2z M109.4,124l-0.5-0.1l-0.8,4.5
	C109.1,127.2,109.6,125.6,109.4,124z M124.6,124.3c0.7-1.2,1.2-2.2,1.9-3.2c0.5-0.7,0.2-1-0.3-1.5
	C125.7,121.2,124.6,122.5,124.6,124.3z M141.5,181.8c-0.1-2.1-1.4-3-2.9-2.3L141.5,181.8z M170.1,179.9c0.5,1.3,0.7,2.9,2.4,3.7
	C172.5,181.6,170.8,181.1,170.1,179.9L170.1,179.9z M195.9,141.9c0.9,0.1,0.9,0.1,1.9-1.5l0.4,0.6l0.4-1.1
	C196.5,139.9,196.4,139.9,195.9,141.9L195.9,141.9z M178.8,191.4c-0.3-2.6-1-3.6-2.3-3.2L178.8,191.4z M162.5,184.4
	c0.5,1.2,1,2.3,1.6,3.5C164.8,185.9,164.1,184.3,162.5,184.4L162.5,184.4z M118,120.4l-0.4-0.1l-1.5,4.8l0.8,0.1
	C117.3,123.5,117.7,121.9,118,120.4L118,120.4z M111.2,169.9v0.4c0.4,0.1,0.8,0.3,1.2,0.4c0.4,0.1,0.7,0.1,1.1,0
	c0.3-0.1,0.7-0.2,1-0.3c-0.3-0.3-0.5-0.9-0.8-0.9C112.9,169.5,112.1,169.6,111.2,169.9L111.2,169.9z M117.9,175.4l-1.4-1.6
	c-0.2,0.2-0.7,0.5-0.7,0.6c0.1,0.6,0,1.5,1,1.6C117.1,176,117.3,175.7,117.9,175.4L117.9,175.4z M149.7,134c-1.7,0-2.6,1.3-3.8,2.6
	C147.8,136.3,148.5,134.8,149.7,134z M172,118.1c1.3,0.1,2.5-0.9,2.6-2.3c0-0.3,0-0.6-0.1-0.9L172,118.1z M203.9,135.9
	c-1.3-0.3-1.7,0-2.4,1.6C202.5,138,203.3,137.5,203.9,135.9L203.9,135.9z M79.8,186.8h0.3l0.5-2.4c-1.8-0.4-1.8-0.4-1.4,1.1
	C79.4,186,79.6,186.4,79.8,186.8z M156.4,195.7l0.3-0.3l-1.8-2.6l-0.3,0.1v1.9L156.4,195.7z M118.4,150.6c-1,0-1.7,0.4-1.8,1.7
	c1-0.6,2.7,0.4,2.8-1.7l-1.4,1.3l-0.2-0.2L118.4,150.6z M177.8,118.6l-0.3-0.3c-2.8,1.6-2.9,1.7-2.8,3.2L177.8,118.6z M180.7,181.1
	c1.3,1.9,3.7,3.3,5,3.3L180.7,181.1z M103.9,144.6l-0.1-0.2l-2.9,2.2l0.2,0.4c0.6-0.1,1.2-0.4,1.7-0.7
	C103.2,145.8,103.6,145.3,103.9,144.6L103.9,144.6z M162.1,193.4l-0.3,0.2l2.2,3C164,194.4,163.9,194.1,162.1,193.4L162.1,193.4z
	 M171.8,137.6l-4,1.2C169.8,139.4,171.3,139,171.8,137.6L171.8,137.6z M199.2,167.5l-3.2-1c0.3,1.1,1.4,1.7,2.4,1.5
	C198.7,167.9,199,167.7,199.2,167.5L199.2,167.5z M149.8,173.5c0.7,1.2,1.7,1.1,2.7,1.1C151.9,173.3,151.1,173,149.8,173.5
	L149.8,173.5z M130.5,133.6l-0.2-0.2c-0.5,0.5-1,1.1-1.4,1.8c-0.1,0.2,0.3,0.7,0.5,1.1l0.7-0.2L130.5,133.6z M179.9,156.8v0.3
	c1.1,0.1,2.2,0.2,3.4,0.3c0.2,0,0.4-0.3,0.5-0.5c-0.2-0.2-0.4-0.5-0.5-0.4C182.2,156.6,181.1,156.7,179.9,156.8L179.9,156.8z
	 M125.6,140.5l0.1,0.3c2,0.3,2.6,0.1,3.4-1.4L125.6,140.5z M185.5,131.7c-1.2-0.1-2.3,0.6-2.7,1.7
	C183.9,133.8,184.4,133.5,185.5,131.7L185.5,131.7z M161.9,112.6l0.6-0.3c-0.7-1.6-1.6-3.2-2.7-4.6c0.3,0.8,0.8,1.6,1.2,2.4
	S161.6,111.7,161.9,112.6z M135.3,183.9c0.3,0.4,0.9,0.8,0.9,1.2c0.2,1.3,0.2,1.4,1.5,1.4C137.4,185.3,136.5,184.3,135.3,183.9
	L135.3,183.9z M109.8,172.6l-0.2,0.5c0.5,0.3,1,0.6,1.5,0.9c0.2,0.1,0.6-0.1,0.9-0.1c-0.2-0.4-0.2-1-0.5-1.1
	C111,172.7,110.4,172.6,109.8,172.6L109.8,172.6z M138.3,183.3l3.5,3C141.3,184.8,139.9,183.6,138.3,183.3L138.3,183.3z
	 M156.1,129.2l-0.2-0.4c-1,0.5-2.1,1-3.1,1.5c-0.2,0.1-0.2,0.6-0.3,1.1L156.1,129.2z M124.6,177.6c0,1.5,1,2.8,2.5,3.1L124.6,177.6z
	 M96,120.1l-1.3,3l0.4,0.3l1.7-2.2L96,120.1z M101.7,139.5l-1.2,3.1l0.3,0.1l1.9-2.5L101.7,139.5z M91.2,175.1c-0.9,0.9-1.2,4-0.7,5
	C90.7,178.6,91,176.9,91.2,175.1z M96.9,177.4l2.4,0.2l-1.7-1.9c-0.2,0.2-0.5,0.4-0.6,0.6C96.9,176.7,96.9,177.1,96.9,177.4z
	 M95,193.7h0.4c0.6-2.1,0.5-2.4-1.1-3.9c0.3,0.5,0.6,1,0.8,1.6C95.1,192.2,95.1,193,95,193.7z M113.6,164.5l0.1,0.7l3.9-0.8
	l-0.1-0.5L113.6,164.5z M197.3,174.6l-0.1,0.4c1,0.7,2.2,0.8,3.3,0.4v-0.5L197.3,174.6z M107,179.6l-2.6-2
	C104.1,179.1,104.4,179.3,107,179.6L107,179.6z M191,141.3c0.6,0.9,1.2,1,1.8,0.6c0.3-0.3,0.6-0.7,0.8-1.1l-0.3-0.3L191,141.3z
	 M86.3,172.6l-0.2-0.4c-1,0.5-2.5,0.2-3,1.7l0.2,0.4L86.3,172.6z M117.4,172.3l-0.2,0.4l3.7,2.4l0.3-0.4L117.4,172.3z M95.9,175.8
	l-2.3,0.7v0.3l2.3,0.6L95.9,175.8z M199.8,170.1c-1.1-0.6-2.1-2-3.8-0.9L199.8,170.1z M188.2,134.2l0.1,0.3c0.7,0,1.3-0.1,2-0.2
	c0.2-0.1,0.5-0.5,0.6-0.8s-0.2-0.6-0.2-0.6L188.2,134.2z M95.5,197.9l0.4-0.1l-1-3.5C94.6,195.6,94.4,197,95.5,197.9z M197,158.8
	l2.6-0.5C198,157.1,197.1,157.3,197,158.8z M176,128.2c-2,0.6-3,1.7-2.6,2.5L176,128.2z M128.8,184.6l-2.3-2.3l-0.2,0.2
	C127.1,183.2,126.7,185.1,128.8,184.6L128.8,184.6z M130.2,136.7l-2.3,1.9C129.5,139.3,130.3,138.6,130.2,136.7L130.2,136.7z
	 M165,130.6l0.2,0.2c1-0.7,2.3-1.1,2.6-2.6l-0.3-0.3L165,130.6z M120,137.1c2-0.2,2.5-1,1.5-2L120,137.1z M87.3,149.5v-0.2l-0.8-0.2
	l0.4-0.8l-0.4-0.2l-1.2,2.9l0.4,0.2l0.8-1.6L87.3,149.5z M162.7,200.3l0.3-0.2l-2.4-2.9C160.5,198.9,161.9,199.4,162.7,200.3
	L162.7,200.3z M175.7,173.9l2.6,0.5C177.6,172.8,177,172.7,175.7,173.9L175.7,173.9z M170.9,123.5c1.8-0.3,2.2-0.8,2.5-2.7
	L170.9,123.5z M86.9,133.1l0.4,0.2l1.9-3.6C88.6,130.9,86.9,131.4,86.9,133.1L86.9,133.1z M212.2,162.3v-0.2h-4.4v0.4L212.2,162.3z
	 M159.7,118.7c-1.6,0.4-1.3,1.8-2,2.8l0.4,0.2L159.7,118.7z M179.7,199.8c0.6-1.2-0.2-3.1-1.2-3.1L179.7,199.8z M193.7,185.6
	l-0.4,0.2l3,3.2l0.3-0.3L193.7,185.6z M108.5,194.3c1.2,0,0.7-1,1-1.4l-1.2-0.9l-0.2,0.2L108.5,194.3z M93.7,158.9l-0.2-0.3
	l-3.4,1.7l0.1,0.3C91.4,160.1,92.8,160.1,93.7,158.9z M185.5,136.3l0.2,0.3l3.8-1.4C187.7,135,186.5,135.2,185.5,136.3L185.5,136.3z
	 M143.5,194.3h0.3c0.1-1.2,0.3-2.5,0.4-3.7C143.1,191.7,143.8,193.1,143.5,194.3L143.5,194.3z M114.5,142.5l-2.4,2.1
	c0.6,0,1,0.2,1.2,0.1C113.9,144.2,114.7,143.9,114.5,142.5L114.5,142.5z M112.4,136.8l0.4,0.1l1-2.3l0.4,0.1l-0.6-1h-0.4
	L112.4,136.8z M115.1,168.6c-1.4-1.2-1.5-1.2-3.1,0.5L115.1,168.6z M185.6,146.2l2-0.4c-0.1-0.2-0.2-0.6-0.4-0.6
	C186.5,145,185.7,144.5,185.6,146.2L185.6,146.2z M126.9,190l0.3-0.3c-0.4-0.5-0.8-0.9-1.2-1.4s-0.7-0.6-1-0.9l-0.4,0.4L126.9,190z
	 M172.1,172l0.8-1.8l-1.7-0.3l-0.2,0.3L172.1,172z M93.9,169.7l0.3,0.5l2.8-1.9l-0.2-0.3L93.9,169.7z M106.8,126.5l0.4,0.1l0.5-3.4
	C106.9,124.1,106.5,125.3,106.8,126.5L106.8,126.5z M99.8,179.5c-0.7-1.3-1.7-1.5-2.9-0.7L99.8,179.5z M150.8,152.4l3.3-0.3
	C153.1,151.4,151.7,151.5,150.8,152.4L150.8,152.4z M145,139.2l3-1.3C146.5,137.4,145.8,137.7,145,139.2z M145.8,184.4l-0.3,0.4
	c0.2,1.2,1.2,1.3,2.1,1.6l0.2-0.3L145.8,184.4z M122,174.7l0.1-0.3c-0.8-1-1.4-2.2-2.9-1.8L122,174.7z M179,137l-0.2-0.4l-3.5,1.8
	l0.2,0.4L179,137z M162.1,130.8l-0.1-0.2l-2.2,2l1.4,0.3L162.1,130.8z M130,163.2c-1.1-0.8-2.6-0.8-3.7,0H130z M193.3,175.2
	c0.6,1.2,1.9,1.7,3.1,1.2L193.3,175.2z M118.1,140.9l-0.5-0.4l-1.7,2.3l0.5,0.4L118.1,140.9z M181.1,131.7c-1.4-0.6-2.2-0.1-2.4,1.1
	L181.1,131.7z M195,149.9l2.1-0.8l-0.1-0.4c-0.7,0-1.3,0-2,0C195,149.1,194.9,149.5,195,149.9L195,149.9z M202.6,142.9l0.1,0.4
	c0.3,0,0.9,0.2,1,0c0.3-0.5,0.4-1.1,0.6-1.6l-0.5-0.3L202.6,142.9z M156,191.4l1.7,2.1C158,191.7,157.6,191.2,156,191.4z
	 M67.2,180.9c-1.4,0.3-2.5,1.5-2.7,2.9L67.2,180.9z M162.7,122.5l-0.4-0.2l-1.4,1.6l1.5,0.5L162.7,122.5z M190.4,136.1l0.2,0.3
	c1.9,0.1,1.9,0,1.9-1.5L190.4,136.1z M192.4,148.8l-0.1-0.6c-0.7,0-1.3,0-2,0c-0.2,0-0.3,0.4-0.5,0.6c0.2,0.1,0.4,0.4,0.6,0.4
	C191.1,149.1,191.8,149,192.4,148.8L192.4,148.8z M152.3,94l1.2,1.4l0.4-0.1l-0.3-2.1L152.3,94z M140.8,207.4h0.5l0.5-2.5
	c-0.3,0-0.6,0-0.9,0.1C140.8,205.8,140.8,206.6,140.8,207.4z M153.4,196.7l0.3-0.3l-1.7-1.6C151.9,196,152.3,196.6,153.4,196.7z
	 M152.3,105.1c1.1-0.8,1.1-1.5,0-2.5V105.1z M158.6,126.9c2.6-0.6,2.6-0.7,2.1-1.7L158.6,126.9z M123.8,165c0.8,1.3,1.6,1.3,2.8,0.4
	L123.8,165z M194,142.6l-0.6,0.1v1.6l1.2-0.4L194,142.6z M113,174.1c0.3,0.2,0.6,0.5,0.8,0.5c0.5-0.1,0.9-0.3,1.3-0.5
	c0-0.2-0.1-0.4-0.2-0.6C114.2,173.6,113.4,173,113,174.1z M66.8,161.1c-1.7,0.8,0,2.3-0.7,3.3l0.4,0.1L66.8,161.1z M178.9,127.2
	c-0.9-0.3-1.9,0.6-2.6,2.2L178.9,127.2z M125.9,169.7l0.1-0.4l-2.7-0.9l-0.2,0.5L125.9,169.7z M74.1,148.1l0.7-2.5
	C73.7,145.9,73.6,146.3,74.1,148.1z M148.6,113.4l-0.4-0.2c-1,0.7-0.8,1.9-0.8,3L148.6,113.4z M118.9,175.8l3.3,1.2
	C121.3,176.2,120.5,175.1,118.9,175.8z M147.1,178.5c-0.6-1.3-0.7-1.4-1.6-1.2C145.9,178.6,146.1,178.7,147.1,178.5z M188.5,161.2
	l-0.1,0.3l2.6,0.6l-0.1-0.3l0.9-0.5L188.5,161.2z M122.3,178.9l0.3-0.5l-2.2-1.3l-0.3,0.5L122.3,178.9z M184.3,141.3l-2,0.9l0.2,0.2
	h2.2L184.3,141.3z M109.5,120.4l-0.3-0.2c-1,0.3-1.3,0.9-0.8,2L109.5,120.4z M174.8,126.4l-0.3-0.4l-2.4,1.5l0.3,0.4L174.8,126.4z
	 M153.2,100.4l0.6,2.4C154.8,101.4,154.8,101.3,153.2,100.4L153.2,100.4z M106.3,128l-0.4-0.1l-1.1,2.6l0.5,0.2L106.3,128z
	 M84.3,154.5l1.3-2C84.6,152.8,83.7,153.1,84.3,154.5L84.3,154.5z M102.9,139.6l1.4-2.5C102.3,138.4,102.1,138.9,102.9,139.6
	L102.9,139.6z M146,149.2l-0.1-0.6l-2.3,0.7l0.1,0.5L146,149.2z M158.2,173.6c-0.6,0.9-0.2,1.4,1.9,1.7L158.2,173.6z M86,178.6
	c-1,0.6-0.9,1.3-0.8,2.5C85.7,180.1,86.6,179.6,86,178.6L86,178.6z M186.9,195.8l0.2-0.2l-2.5-3.4c0.6,1.2,1.2,2.3,1.9,3.3
	C186.6,195.6,186.7,195.7,186.9,195.8L186.9,195.8z M81.1,190.7l0.6-0.1l-0.7-2.3l-0.5,0.1L81.1,190.7z M103.3,176.8l-0.7,0.1
	l0.2,1.7c0.2-0.1,0.6-0.1,0.6-0.2C103.4,177.9,103.4,177.4,103.3,176.8z M120.3,169.3v0.3l0.5,0.8l1.7-0.2v-0.3L120.3,169.3z
	 M174.1,186.5c-0.4-1.7-0.7-2.1-1.9-2.2L174.1,186.5z M105.1,148.7c1.8,0.2,2.2,0,2.3-1.3L105.1,148.7z M115.6,170.4l1.6-0.6v-0.3
	l-2-0.6L115.6,170.4z M81.9,156.7l-0.5-0.3l-1.2,2l0.4,0.3L81.9,156.7z M152.4,93.2c1.3-1,1.3-1.4,0.4-2.7L152.4,93.2z M196.7,138.4
	c1.5,0.4,1.8,0.2,1.7-1.2L196.7,138.4z M93.3,133.4l0.4,0.1l1.2-2.9l-0.4-0.2L93.3,133.4z M71.3,149.6c-0.9-0.1-1.4,0.4-1.5,2.2
	L71.3,149.6z M118.8,143.9l0.1,0.5c0.8,0.5,1.4,0.2,1.9-0.8L118.8,143.9z M142.6,133.4l1.5-1.5l-0.3-0.4l-1.7,0.4L142.6,133.4z
	 M171.2,188.2l-0.2,0.2c0.8,1.8,0.8,1.8,1.9,2L171.2,188.2z M193.7,141.8c1.5,0.4,1.9,0.2,1.7-1.1L193.7,141.8z M186,162.4l0.1-0.5
	l-2.6-0.5l-0.1,0.5L186,162.4z M150.6,182.8l0.1-0.1c-0.2-0.6-0.5-1.3-0.7-1.9c-0.1-0.1-0.4-0.2-0.5-0.3c0,0.2-0.1,0.5,0,0.6
	C149.8,181.7,150.2,182.2,150.6,182.8z M171.6,193.3l0.4-0.3l-1.2-2l-0.4,0.3L171.6,193.3z M163.6,199.4l-0.3,0.2l1.4,2.1l0.4-0.3
	L163.6,199.4z M127.9,185.8c0.1,0.7-0.1,1.6,1.1,1.5C129.5,186,128.3,186.1,127.9,185.8L127.9,185.8z M199.8,153.2l-1.4-0.7
	l-0.1,1.7l0.3,0.1L199.8,153.2z M184.1,130.9v0.2c0.3-0.1,0.7-0.2,1-0.1c0.9,0.3,0.9,0.3,0.9-0.9L184.1,130.9z M139.7,158.1v0.1h2.9
	v-0.4L139.7,158.1z M114.9,136.1l-0.4-0.3l-1.6,2l0.4,0.3L114.9,136.1z M99.8,140.5l0.4,0.2l0.7-2.5l-0.3-0.1L99.8,140.5z
	 M129.6,177.5l0.3-0.4l-2.2-1.4l-0.2,0.3L129.6,177.5z M199.6,152.2l0.2,0.5c0.9,0.1,1.4-0.7,2.1-1.1l-0.1-0.3L199.6,152.2z
	 M194.2,151.2l-0.4-0.3c-1.1-0.1-1.1,0.5-0.5,1.6L194.2,151.2z M90.4,150.2c-1.4,0.7-1.4,0.9-0.9,2.3L90.4,150.2z M83.7,152.5
	c1.5-0.5,1.2-1.4,1-2.3L83.7,152.5z M204,157.4V157l-2.4-0.2v0.5H204z M81.6,174.3c-1.3,0.1-1.5,0.6-0.9,1.9L81.6,174.3z
	 M120.5,138.7l-0.4-0.3l-1.3,2l0.4,0.2L120.5,138.7z M91.1,147.6c-1-0.2-1.1,0.5-1.3,1.3C90.7,148.8,91.4,148.7,91.1,147.6z
	 M182.9,147.6l-0.2-0.6l-1.6,0.4c0.1,0.2,0.2,0.6,0.3,0.6C181.9,147.8,182.4,147.7,182.9,147.6z M159.2,145.3l0.1,0.3l2.4-0.8
	l-0.1-0.4L159.2,145.3z M102.7,132l-0.3-0.2l-1.7,2.8l0.3,0.2L102.7,132z M166.2,154.1c-0.1-0.6-1.6-0.7-3-0.3L166.2,154.1z
	 M102.8,158.8l0.3,0.4l2.2-1.9l-0.1-0.2L102.8,158.8z M189.3,166.1l0.2-0.5l-1.9-0.9l-0.2,0.4L189.3,166.1z M139.9,186l-0.1,0.2l2,2
	l0.3-0.4L139.9,186z M99.5,174v-1.2c-0.2,0.3-0.5,0.5-0.8,0.7c-0.3,0.1-0.7,0.2-1,0.3l0.1,0.2H99.5z M165.2,181.1
	c0.4,1.8,0.6,2,1.7,1.6L165.2,181.1z M132,181.4l0.4-0.3c-0.5-0.5-0.3-1.7-1.8-1.6L132,181.4z M166.4,178l0.4-0.5l-1.6-1.1l-0.2,0.3
	L166.4,178z M101.3,121c-0.7,0.6-1.1,1.3-0.3,2.2L101.3,121z M161.5,124.6l0.2,1.5l1.4-1.3L161.5,124.6z M130.1,189.6l0.4-0.3
	l-1.3-1.6l-0.4,0.4L130.1,189.6z M148.5,187.5l-0.3,0.5l1.8,0.8l0.2-0.4L148.5,187.5z M104.5,141.2c0.9-0.5,1.2-1.1,0.5-2.1
	L104.5,141.2z M186.2,175.3l0.4-0.5l-1.8-1.4l-0.2,0.3L186.2,175.3z M107.7,172.3l-0.2,0.3c0.3,0.3,0.5,0.7,0.8,0.7s0.5-0.4,0.8-0.6
	l-0.1-0.3L107.7,172.3z M140.6,174.3c0.4,1.5,1.3,1.1,2.4,0.9L140.6,174.3z M94.2,178.9l-0.6,0.3l0.9,1.4l0.4-0.2L94.2,178.9z
	 M107.1,145.3l-0.3-0.4l-1.7,1.5l0.3,0.3L107.1,145.3z M139,146.9v-0.3h-2.5v0.3H139z M156.5,190.6l0.3-0.4l-1.7-1l-0.3,0.4
	L156.5,190.6z M207.4,150l0.1,0.4l2.3-0.6l-0.1-0.4L207.4,150z M144.6,193.9l1.8-1C144.7,192.6,144.7,192.6,144.6,193.9z
	 M175.9,185.7l-0.3,0.2c0,0.8,0.3,1.4,1.7,1.4L175.9,185.7z M194.6,150.8l0.4,1.5l1.1-1.5H194.6z M131,169.9l0.4-0.6
	c-0.3-0.2-0.7-0.5-1.1-0.6c0,0-0.3,0.4-0.4,0.6L131,169.9z M145,191.3v0.3l1.1,0.7l0.2-0.2c-0.1-0.3-0.1-0.8-0.4-1
	S145.3,191.2,145,191.3z"/>
<path class="st0" d="M120.2,197.4l-0.6-3.7l0.3-0.1l3.1,7h0.2v-0.8l0.3-0.1l2.5,5.9l-4.4-3.5c-0.8-0.6-1.5-1.2-2.2-1.8
	C118.7,199.4,119.1,198.2,120.2,197.4c-0.7,2,0.4,3.9,2.7,4.6c-0.6-1.4-1.2-2.8-1.9-4.1C121,197.6,120.5,197.6,120.2,197.4z"/>
<path class="st0" d="M168,111.5c0.2-0.6,0.4-1.1,0.7-1.7c1.5-2.1,3.5-3.9,4.3-6.4c0.4-1.1,0.9-2.1,1.4-3.1l-0.2,1.8l1.5-1.8l0.2,0.1
	c-0.4,0.7-0.8,1.5-1.2,2.2c-0.8,1.3-1.4,3-2.5,3.9c-1.2,1.1-2.3,2.3-3.2,3.6C168.7,110.7,168.3,111.1,168,111.5L168,111.5z"/>
<path class="st0" d="M187.7,111.9c-0.2,0.9-6,6.7-7.5,7.3L187.7,111.9z"/>
<path class="st0" d="M139.1,100.6l-4.9,4.4C135.5,103.1,136.9,101.3,139.1,100.6z"/>
<path class="st0" d="M156.9,90.9l5.6-3.7l0.2,0.3l-5.6,3.9L156.9,90.9z"/>
<path class="st0" d="M84,131.2l1.5-4l0.6,0.2l-1.6,3.9L84,131.2z"/>
<path class="st0" d="M58.3,169.9l-0.4,0.4c-0.9-1.1,0.2-1.9,0.4-2.9l0.4,0.1L58.3,169.9z"/>
<path class="st0" d="M187.5,121.8l3-1.8l0.3,0.4l-2.9,1.8L187.5,121.8z"/>
<path class="st0" d="M122.6,109.2c-0.3,1.3-0.7,2.6-1,3.9l-0.4-0.1l1-3.9L122.6,109.2z"/>
<path class="st1" d="M179.2,121.9l-1.4,1.6l-0.3-0.3l1.1-1.5L179.2,121.9L179.2,121.9z"/>
<path class="st0" d="M168.1,211.4l-1.1-3.2l0.4-0.1l1.1,3.2L168.1,211.4z"/>
<path class="st1" d="M86,166.2c-0.1,0.2-0.3,0.3-0.5,0.4c-1.3,0.5-2.5,1-3.7,1.6c-3.1,1.9-5.9,4.1-9.3,5.6c-1.6,0.7-2.8,2.1-4.2,3.2
	c-0.1,0.1-0.3,0.3-0.4,0.3c-1.4-0.2-2,0.8-2.5,1.7c-1.4,2.5-3.4,4.7-5.7,6.4c-0.7,0.5-1.4,0.8-2.2,1c-0.5,0.1-1.2-0.4-1.9-0.6
	c0.6-1,1.2-1.9,1.8-2.8c1.1-1.4,2.2-2.7,3.4-4c0.6-0.7,1.4-1.2,2.1-1.8c1.2-1.1,2.7-2,3.4-3.4c0.9-1.6,2.5-1.8,3.7-2.7
	c0.6-0.4,1.3-0.5,2-0.8c1.2-0.8,2.4-1.6,3.7-2.2c1.4-0.6,2.7-1.3,4-2.2c1.4-0.8,2.7-2.2,4.1-2.4c2.1-0.3,3.8-1.5,5.7-2.1
	c0.5-0.2,1-0.4,1.5-0.6s0.8-0.4,1.1-0.3c1.4,0.3,2.8,0.1,4-0.6c0.8-0.5,1.7-0.9,2.5-1.2c0.8-0.1,1.6-0.1,2.5,0l-1.4,1.9l2.2-1.2
	l0.2,0.4c-1.6,0.7-3.2,1.2-4.8,1.8c-2.9,0.7-5.6,1.7-8.3,3c-1,0.5-2.2,0.9-3.2,1.3L86,166.2z"/>
<path class="st1" d="M152.1,115.4l1.1,0.6l0.9-1.1c0.3,2.1,0.7,3.9,0.9,5.7c0,0.4-0.4,0.9-0.7,1.3c-2.3,3.3-5.1,6.3-8.3,8.6
	c-0.1,0.1-0.3,0-0.7,0c1.6-2.5,3.2-4.8,4.7-7.2l-0.3-0.3c-0.4,0.2-0.7,0.5-1,0.8c-1,1.5-2,3-3.2,4.4c0.2-2.4,2.4-4.1,2.4-6.6
	c-1.4,0-0.7,2.9-2.4,1.8l-4.5,6l1-0.2l0.3,0.2c-0.5,0.7-1.1,1.4-1.6,2.2c-0.1,0.3-0.1,0.6,0.1,0.9c-0.8,1.9-2.5,3.3-4.6,3.8l4.9-6.4
	c-2.3,0.1-3.4,1.7-4.6,3.1c-0.5,0.7-1,1.4-1.5,2.1c-1.1,1-2.3,1.9-3.6,2.7c0.6-1.3,1.1-2.5,2.5-3.3c0.5-0.3,0.7-1.2,0.9-1.9
	c-0.8,0.3-1.1,1.6-2.1,0.8l-1.4,1c0.8-3.9,1.9-5.7,2.8-5.4l2.3-2.7c2.1,1.8,1.5,3.3-2.1,5.5c0.3,0,0.7,0,1,0
	c1.3-0.3,1.9-1.4,2.5-2.6c0.3-0.7,0.8-1.3,1.8-0.6l-0.3-1.8l-0.8,0.6l-1.3-1.5l0.3-0.3l1.4,0.8c-0.8-1.9,1-2.3,1.8-3.3l0.4-0.4
	l1.1-0.2l-1.9,3.6l2.4-0.2c0.2-0.4,0.5-0.9,0.8-1.4c0.2-0.3,0.6-0.7-0.2-0.7c0-0.3-0.1-0.6,0-0.8c0.6-0.9,1.2-1.8,1.8-2.8l0.2,0.2
	L145,122l0.3,0.2c0.6-0.9,1.2-1.8,1.9-2.7c0.6-0.5,1.2-1,1.9-1.3c0.2-0.1,0.3-0.3,0.5-0.5c0.7-0.6,1.4-1.1,2.1-1.7
	C151.8,115.8,152,115.6,152.1,115.4L152.1,115.4z"/>
<path class="st1" d="M156.9,115.2c0.5-0.9,0.5-2.1,0-3c-0.6-1.9-1.5-3.7-1.8-5.6c-0.1-1.5-0.1-2.9,0.2-4.3l0.4-0.2l3.7,4.3l-0.3,0.3
	l-1-1.8l-0.6,0.5c0.2,0.4,0.4,0.8,0.6,1.2c0.5,1,1.1,1.9,1.7,2.7c0.6,1,1.1,2.1,1.4,3.2c0.2,0.6,0.3,1.3-0.6,1.8
	c-0.6,0.3-0.8,1.1-1.2,1.7c-1.1,1.4-2.2,2.8-3.4,4.2l-0.5-0.2c-0.1-2.1,0.1-4.3-0.5-6.3c-0.3-1.2,0.1-1.8,0.8-2.7
	C156.2,112.4,156.5,113.7,156.9,115.2z"/>
<path class="st1" d="M97.4,185.4c-0.1-0.7-0.2-1.4-0.4-2.1c0-0.2-0.2-0.4-0.3-0.5c-1.2-0.8-1.6-1.6-1.1-3.3l1.1,3.1l1-0.9l-0.5-2
	c0.8,0.1,1.5,0.3,2.3,0.5c0.4,0.2,0.6,0.5,0.7,0.9c0,1.3,0.3,2.7,1,3.8c0.4,0.7,0.2,1.7,0.2,2.6l0.9-0.6c1,0.9,0.9,1.8-0.5,2.3
	c0.4,1.8,0.8,3.6,1.1,5.3c0.2,0.9,0.6,0.9,1.3,0.3l1.1,2l-0.4,0.3c-1.2-0.9-2.3-1.9-3.5-2.9c-1.4-1.2-0.8-2.7-0.5-4.3l-1.5,0.3
	l0.3-2.8l-0.3-0.1l-1,2.7l-1.1-2l0.2-0.2l1,0.8L97.4,185.4L97.4,185.4z"/>
<path class="st1" d="M133.6,154.5c-3.2,0.2-6.3,0.8-9.5,0.6c-1.9-0.1-3.6,0.8-5.4,0.3v0.3l1.6,0.4c-1.1,1.1-2.6,1.2-3.9,1.4
	c-4.5,0.8-9,1.6-13.3,2.3c0.3-0.3,0.7-0.5,1.1-0.7c2.6-1.1,5.1-2.3,7.8-3.1c1.8-0.5,3.7-0.8,5.6-1c0.7-0.1,1.4-0.4,2-0.5
	c1.6-0.1,3.2-0.1,4.8-0.2c1.1-0.1,2.2-0.2,3.3-0.3c1.6-0.1,3.2-0.3,4.9-0.4c0.3,0,0.7,0.3,1,0.5L133.6,154.5z"/>
<path class="st1" d="M61.3,167.1c0-0.1,0.1-0.4,0.1-0.4c-1.8-1.2-0.5-2.7-0.6-4.1l0.4-0.1l0.4,3.1h0.2l0.6-2.1h0.3l-0.1,1.7l0.3,0.1
	l1.1-4.1l0.4,0.1l1.1,5.4c-0.6,0.4-1,1.9-0.7,3.3l1.2-1.2l0.3,0.2c-0.5,1-0.2,2.4-1.7,3c-0.2,0.1,0,0.8-0.2,1
	c-0.6,0.9-1.3,1.8-1.9,2.6l-0.3-0.1l-0.2-1.9h-0.3l-0.8,2.9c-0.5-2.3-0.4-2.3,0.6-3.4l-0.5-0.4c0.5-0.7,0.9-1.4,1.3-2.2
	c0.3-0.8,0.5-1.6,0.5-2.4l-0.8-2L61.3,167.1L61.3,167.1z"/>
<path class="st1" d="M164.8,195.1c1.1-0.1,2.1,0.4,2.7,1.4c0.5,0.9,1,1.7,1.6,2.5c1.1,1.1,1.5,2.6,1.3,4.1c-0.1,0.8,0,1.6,0,2.8
	c-1.1-0.7-2.1-1.2-2.9-1.9c-0.7-0.4-1-1.1-0.9-1.9c0.1-0.6-0.4-1.3-0.6-2C165.5,198.5,165.2,196.9,164.8,195.1z"/>
<path class="st1" d="M93.8,196.1c-1.6-2.2-2.8-4.6-3.5-7.2c-0.5-1.7,0.3-3.2,0.6-4.8h0.3l0.8,1.7l0.7-1c0.5,3.8,0.9,7.5,1.4,11.2
	L93.8,196.1z"/>
<path class="st1" d="M201.2,161.2c-0.4-0.1-0.7-0.1-1.1,0c-1.9,0.7-4,0.4-5.6-0.9c0.9-0.6,0.9-0.6,2.6,0.7l-0.7-1.2
	c0.2-0.1,0.4-0.2,0.6-0.2c2,0.5,3.7-0.9,5.5-1c1.3,0.1,2.6,0.3,3.9,0.7c0.2,0,0.3,0.5,0.3,0.6l4.1,1.1l-0.1,0.4
	c-2-0.1-4.1,0.4-6.1-0.2l-0.1-0.3l1.4-0.5V160c-0.4,0-0.8,0.1-1.2,0.2c-0.9,0.5-2,0.3-2.8-0.5c-0.8-0.7-1.2-0.2-2,0l0.4,0.9l1.4-0.2
	L201.2,161.2L201.2,161.2z"/>
<path class="st1" d="M152.1,115.4c-0.2,0.1-0.4,0.1-0.7,0.2s-0.7,0.1-1.1,0.2l-2.4,2.3c-0.2-0.3-0.3-0.4-0.2-0.5
	c1.1-1.6,1-3.5,1.9-5.1c0.7-1,1.4-1.9,2.2-2.8c0.4-0.7,0.7-1.4,0.9-2.1l0.2-0.2c0.1,0.4,0.4,1,0.2,1.3c-0.8,1.9-1.7,3.7-2.6,5.6
	c-0.1,0.1-0.1,0.2,0.1,0.4c1.4-1.2,2-2.8,2.6-4.8c0.3,1.5,0.7,2.6,0.6,3.7C153.6,114.1,152.7,114.7,152.1,115.4L152.1,115.4z"/>
<path class="st1" d="M186,133.1c1.1-1.3,0.7-3.2,2.5-3.8c0.2-0.1,0.6-0.4,0.5-0.6c-0.4-1.2,0.7-1.2,1.3-1.5c1.2-0.5,2.5-0.9,3.8-1.3
	l0.2,0.3c-0.4,0.3-0.7,0.8-1.1,0.9c-1.1,0.3-1.2,1.1-1.3,2l1.3-1.6c0.3,1.3-0.1,1.9-1.8,3.1l0.2-0.8l-0.2-0.3
	C190.3,131.7,188.5,132.6,186,133.1z"/>
<path class="st1" d="M89,190.1c-1.7-1-2-4.5-0.4-7.2h-1c-0.4-1.7-0.2-3.4,0.5-4.9l2,4.1l0.5-0.8c0.2,0.9,0.7,1.6-0.4,1.8L89,190.1z"
	/>
<path class="st1" d="M182.7,181.2c3.2,0.1,5.2,1.9,6.9,4.1l0.2-0.2l-1.1-2.1c3.1-0.3,3.6,2.4,5,4.2l-0.1,0.4
	c-1.1-0.2-2.1-0.4-3.1-0.7c-0.6-0.3-1.2-0.7-1.8-1.1c-1.7-1.2-3.5-2.5-5.2-3.8C183.2,181.8,183,181.5,182.7,181.2z"/>
<path class="st1" d="M83.2,189.3V182l-0.4-0.1l-0.9,2.5h-0.2l0.1-2.4l-0.2-0.1l-0.9,1.5l-0.2-0.1v-3.5l1.6,0.4
	c-0.4-0.6-0.9-1-1.1-1.5c0-0.5,0.1-1.1,0.3-1.5h0.4c0,0.8,0.1,1.5,0.4,2.2c0.3,0.6,1,1,1.8,1.7c0.2,3.3,0.4,6.9,0.6,10.5l-1.9-2.9
	l0.1-0.1L83.2,189.3z"/>
<path class="st1" d="M70.9,152.9c0.5,1.5-0.2,3.3-1.2,3.3c-1.1,2-0.2,4.5-1.9,6.7c0-0.8,0.2-1.3,0-1.7s-0.8-0.6-1.2-0.9
	C67.5,157.6,67.1,154,70.9,152.9z"/>
<path class="st1" d="M118.6,127.3l-2.4,2.6l-0.3-0.1c2.8-3,2.3-7,3.1-10.6c0.2,0,0.5,0,0.5,0c0.3,0.9,1,1.2,1.6,1.8
	c0.8,0.8,0.6,2.2-0.3,3.2S119.3,126.3,118.6,127.3L118.6,127.3z"/>
<path class="st1" d="M117.6,177.6c1.8,0.1,1.7,0.1,1.8,1.8c0.1,0.9,0.8,0.8,1.5,0.7c1.7-0.1,2,0.1,2.9,1.7l-0.9-0.2l0.9,1.8
	l-0.3,0.3c-1.5-1.6-4-0.4-5.2-2.2c-0.4,0.1-0.7,0.1-1.1,0.1c-0.2-0.1-0.4-0.5-0.6-0.7c0.3-0.1,0.6-0.1,0.9-0.1
	c0.7,0.1,1.5,0.2,2.4,0.3c-0.7-0.8-2.3-0.7-1.5-2.2c-0.3,0-0.7,0.1-1,0.1c-0.3,0.1-0.6,0.2-1,0.3c-0.1-0.3-0.2-0.7-0.3-1.1
	c0-0.4,0.1-0.8,0.3-1.2l1.2,1.7l0.2-0.1L117.6,177.6z M120.4,181.4l2,0.6l0.1-0.3l-1.3-1.2L120.4,181.4z"/>
<path class="st1" d="M97.6,128.6c-0.5,0.8-0.9,1.6-1.4,2.3c-0.2,0.4-0.5,0.7-0.8,1l-0.3-0.2l1.2-2.9l-0.3-0.1l-1.4,1.1
	c0.6-2.8,1-5.3,3.2-7.2l-1.3,0.6l0.5-1.7l1.2,0.5l0,0c0.1,0.6,1.3,0.7,0.6,1.6c-0.4,0.5-0.8,1.1-1,1.7l0.6-0.3
	C98.1,126.4,97.8,127.6,97.6,128.6L97.6,128.6z"/>
<path class="st1" d="M79.1,139.9c0.2,0.2,0.6,0.5,0.5,0.7c-0.7,2.6-1.4,5.2-2.2,7.8c-0.2,0.8-0.5,1.5-0.9,2.2
	c-0.1,0.2-0.4,0.4-0.7,0.4c-0.3-0.1-0.5-0.3-0.6-0.6c-0.5-1.4-0.5-3,0.2-4.4l1,0.4c-0.6-1.5,0.3-2.5,1-3.6S78.6,140.8,79.1,139.9
	L79.1,139.9z"/>
<path class="st1" d="M119.8,188.4c-0.1,0.2-0.3,0.6-0.4,0.5c-0.5-0.2-1.2-0.3-1.5-0.7c-0.6-0.8-1.5-0.8-2.2-1.2
	c-1.1-0.7-2.2-1.6-3.2-2.5c-0.1-0.1,0-0.5,0.1-0.9h-0.7l-0.4-3.2l0.4-0.2l1.6,1.3v0.3c0.4,2.2,1.8,4,3.7,5.1l0.4-1.4l1.8,1.9
	C119.5,187.8,119.7,188.1,119.8,188.4L119.8,188.4z"/>
<path class="st1" d="M129.8,186.3c2.8,0.3,4.4,2.5,6.8,3.9l-0.7,0.2l0.8,2.4l-0.3,0.3c-0.7-0.2-1.3-0.5-1.9-0.9
	c-0.6-0.5-1.1-1.1-1.5-1.8c-0.2-0.3-0.4-0.6-0.7-0.8c-1.4-0.6-1.7-2.1-2.5-3.1C129.6,186.6,129.7,186.5,129.8,186.3z"/>
<path class="st1" d="M74.6,150.4c1.4,2.5,0.4,4.5-1,6.3c-0.7,0.7-1.5,1.4-2.4,2C70.5,155.2,72.6,152.9,74.6,150.4z"/>
<path class="st1" d="M119.9,130.3c0.2,0.9,0.5,1.7,0.6,2.5c0.1,0.3,0,0.6-0.1,0.9c-0.8,1.4-1.7,2.8-2.7,4.3l-0.5-1.1l-0.3,0.3
	l-1,0.8v-1.8l0.5,0.8C115.7,133.7,118.1,132.2,119.9,130.3z"/>
<path class="st1" d="M78,158.2c0.3-1.7,0.5-3.4,0.8-5c0-0.2,0.4-0.5,0.6-0.5c1,0.2,1.2-0.6,1.5-1.3c0.9-2,1.8-3.9,2.7-5.8l0.4,0.2
	c-0.4,1.2-0.8,2.5-1.3,3.7c-0.1,0.3-0.3,0.7-0.2,1c0.5,1.3,0.2,2-1.2,2.5c-0.6,0.2-1,1.4-1.4,2.1c-0.6,1-1.2,2.1-1.7,3.1L78,158.2z"
	/>
<path class="st1" d="M140.5,196.1l-0.6,1.2c-0.2-1.5-1.1-2.9,0.5-3.9c2.2,2.9,3.4,2.8,1.7,9.1C140.5,200.5,141.3,198.2,140.5,196.1z
	"/>
<path class="st1" d="M122.9,123.9c0.6,0.9,1.1,1.5,1.5,2.2s-0.5,2.6-1.3,2.8c-0.4,0.1-0.7,0.4-0.9,0.7c-0.4,0.9-0.8,1.8-1.1,2.8
	c-0.8-1.6-0.4-3.5,1-4.6c-0.8-0.2-1.6-0.4-0.8-1.4C121.8,125.5,122.3,124.7,122.9,123.9z"/>
<path class="st1" d="M104.1,184l0.6-0.9l-0.2-0.2l-1.4,0.8c0.2-0.9,0.3-1.6,0.5-2.2c0-0.1,0.4-0.3,0.6-0.2c1.5,0.3,3.1,0.6,4.6,0.9
	c0.7,0.2,1.3,0.5,1,1.7l-4.4-2.2l-0.2,0.2c0.4,0.3,0.8,0.6,1.1,1s0.8,1,1.1,1.5c0.7-0.6,1.2-0.2,1.7,0.2c0.2,0.2,0.3,0.3,0.4,0.5
	C107.5,185.6,106,184.3,104.1,184z"/>
<path class="st1" d="M210,153l-2.7,0.7l0.1,0.3c1.8-0.1,3.7-0.8,5.5,0.4h-6.7l0.6-0.5c-1.6-0.3-3.1,1.2-4.6-0.1
	c2-1.1,4.2-1.9,6.5-2.1l0.1,0.4l-1.4,0.4v0.3l2.6-0.2L210,153z"/>
<path class="st1" d="M78.7,177.7l-0.2-0.9c0.7,0.8,1.6,1.4,1.4,2.8c-0.1,1.4-0.1,2.8,0,4.1l-1.2-0.1l0.5-2.1
	c-1.1,0.1-1.1,0.1-2.5-2.1l1.2-0.2l0.1-0.3l-1.5-0.3C77,176.9,77.3,176.8,78.7,177.7z"/>
<path class="st1" d="M99.4,131.1l-1.3,0.5l2-8.2h0.5l0.1,1.3l1.1-0.5c0,0.5,0,0.9,0,1.4c-0.1,0.8-0.4,1.6-0.7,2.3
	c-0.4,0.7-0.8,1.4-1.2,2.1L99.4,131.1L99.4,131.1z"/>
<path class="st1" d="M88.1,171.2l2.6-1.5c0.3-0.3,0.4-0.8,0.8-1c1-0.6,2.1-1.1,3.2-1.5c2-0.6,3.6-1.9,5.7-2.2c2.1-0.5,4.2-1.1,6.2-2
	l0.2,0.3c-0.2,0.1-0.4,0.4-0.6,0.4c-1.2,0.3-2.5,0.6-3.7,0.9c-0.4,0.1-0.7,0.4-1.1,0.6c-1.7,0.6-3.7,0.9-5.1,2
	c-1.6,1.2-3.9,0.9-5.2,2.8c-0.5,0.8-1.8,1-2.8,1.4L88.1,171.2z"/>
<path class="st1" d="M191,172.3c0.5-0.8,1.6-1,2.4-0.5c0.6,0.4,1.2,1.1,2.1,0.3c0.1-0.1,0.6,0.2,1,0.4l1.2,0.4l-0.1,0.6l1.5,0.1
	c-3.4,0.7-3.4,0.7-3.9-0.8c-0.5,0.5-0.5,0.5,1.3,2.9c-0.6-0.3-1.3-0.6-1.9-1C193.4,174,192.2,173.1,191,172.3L191,172.3z"/>
<path class="st1" d="M69.4,164c0.1,0.3,0.1,0.5,0.2,0.8c-0.1,0.9-0.2,1.7,0.9,2l0,0c0.6,0.5,0.7,0.9-0.2,1.5l-0.6-0.8
	c-0.7,0.8,0.1,2.3-1.3,2.5v-3h-0.5l-0.5,4l-1.1,0.8c0-1.8,0.4-3.5,1.2-5.1c0.1-0.7,0.2-1.3,0.2-2c0-0.4,0.2-0.9,0.3-1.3h0.4
	l-0.2,3.3l0.2,0.1L69.4,164L69.4,164z"/>
<path class="st1" d="M72.8,184.9c-0.1-0.7-0.1-1.3,0-2c0.2-0.4,0.4-0.7,0.7-1c0.3,0.3,0.7,0.5,0.9,0.8c0.3,0.7,0.5,1.4,0.6,2.1
	c0.4,1.4-0.5,2.4-1.1,3.4h-0.3l-0.1-2.2l-0.6,0.9c-0.5-0.8-1.4-1.4-0.8-2.6c0,0,0.2-0.1,0.3,0S72.5,184.5,72.8,184.9z"/>
<path class="st1" d="M155.8,99.5c2.2,0.9,3.1,2.8,4.2,4.4c0.5,0.8,0.5,1.3,0,1.6c-1.5-1.4-3.1-2.6-4.4-4
	C155.4,101.2,155.8,100.2,155.8,99.5z"/>
<path class="st1" d="M200.5,162.7c0.8-0.2,1.5-0.4,2.3-0.4c0.9,0.1,1.8,0.4,2.5,0.9c1.2,0.8,2.3,1.7,3.3,2.7c-1.4,0-2.9,0.2-3.8-1.4
	c0-0.1-0.2-0.1-0.3-0.1l-4.2-1.2L200.5,162.7z"/>
<path class="st1" d="M88.4,197.9c-1.2-0.4-2.7,0.8-3.8-0.5l1.2-1c-1.5-0.3-1.8-1.3-2.1-2.6c0.4,0.2,0.6,0.3,0.7,0.3
	c2.7-0.6,2.7,2.2,4.2,3.1l-0.2,0.3l-1.5-0.2l-0.1,0.3L88.4,197.9z"/>
<path class="st1" d="M100.6,136.5c-0.4,0.7-0.8,1.4-1.2,2c-0.9,1.3-1.6,2.6-2.3,4.1c-0.2,0.4,0.2,1.3-0.1,1.9
	c-0.4,0.6-0.8,1.1-1.3,1.7c-0.1-0.6-0.2-0.7-0.1-0.8c0.8-2.3,0.5-4.9,2.4-6.8c0.8-0.8,1.4-1.6,2.2-2.4L100.6,136.5z"/>
<path class="st1" d="M142.3,178.6c2.2-0.4,3.9,0.4,4.4,2.3c0.4,1.6,2,1.7,2.5,3l-0.2,0.3l-4.4-3.4
	C143.5,181.1,142.5,180.2,142.3,178.6z"/>
<path class="st1" d="M72.9,167.3c0.2-2.2,0.4-4.2,1.6-5.8l0.3,0.1l-0.5,0.9l1,0.4l1-1.9l0.4,0.1c-0.2,1.3-0.5,2.5-1,3.7
	C75.1,165.8,74,166.4,72.9,167.3z"/>
<path class="st1" d="M158.2,185.5c1.9,2.2,3.6,4.6,5.2,7.1c-1.5-0.1-2.9-0.9-3.8-2.2c-0.2-0.3-0.1-0.8-0.2-1.2
	c-0.2-0.6-0.5-1.2-0.8-1.8s-0.5-1.1-0.8-1.7L158.2,185.5z"/>
<path class="st1" d="M185.7,154.7l-1.3-0.4c0.8-1.2,3-1.4,5.6-0.3c-1.1,0.2-1.2,1.3-2.6,1s-2.6,0.3-3.8,0.3c-1.2,0-2.3-0.2-3.4-0.7
	l5.5,0.3L185.7,154.7z"/>
<path class="st1" d="M141.6,117.9c-1-0.7-1.5-3.8-0.7-4.7c0.5-0.6,1.3-0.6,1.9-0.2c0,0,0,0,0.1,0c1.1,1,0.9,2.2-0.2,3.2
	C142.2,116.8,141.9,117.3,141.6,117.9z"/>
<path class="st1" d="M174.3,180.2c1.6-0.1,2.7-0.3,3.9,0.7c1.4,1.1,2.1,1.9,1.8,3.1C177.3,183.9,176.4,181.4,174.3,180.2z"/>
<path class="st1" d="M137.5,171.2l-0.6,0.4l0.7,0.4l-0.2,0.3c-0.3-0.3-0.6-0.5-1-0.7c-0.7-0.2-1.5-0.3-2.2-0.5
	c-0.3-0.1-0.7-0.1-0.7-0.3c-0.3-0.7-0.5-1.4-0.8-2.4C134.6,169,136.6,168.8,137.5,171.2z"/>
<path class="st1" d="M105.8,187.2l-0.3,2.1c-1.2-1-1.4-2.8-0.5-4c0,0,0.1-0.1,0.1-0.1h-0.4l-0.4,0.8h-0.2l0.2-1.1
	c3.1,0.6,3,3.1,3,5.3c-0.9,0.3-1.2,0.2-1.2-0.9c0-0.6,0-1.3,0-2L105.8,187.2z"/>
<path class="st1" d="M80.8,147.2l5.2-11.5l0.3,0.1c-1.1,4.1-2.9,7.9-5.1,11.5L80.8,147.2z"/>
<path class="st1" d="M89.8,144.8c0.9,1.7-0.9,3.3,0,4.9c-0.8,0.5-1.3,1.4-1.2,2.4c0.1,0.7-0.6,1.5-1,2.2l-0.5-0.2l0.9-2.1l-1.1-0.1
	l1.7-1.6C87.5,148.2,88.7,146.6,89.8,144.8z"/>
<path class="st1" d="M209.6,174.4l-4.1-0.2l0.4-1.2c-0.9-0.4-1.9-0.8-2.8-1.3s-1.7-1-2.6-1.6l0.2-0.4l8.9,4.1L209.6,174.4z"/>
<path class="st1" d="M95,187.1c0.8-0.5,1.1-0.1,1.5,0.6c0.6,1.2,1.2,2.3,1.7,3.5c0.2,0.7,0.3,1.3,0.3,2l-0.6,0.1l-1.2-3.4l-0.6,0.9
	C94.5,189.6,94.3,188.8,95,187.1L95,187.1z"/>
<path class="st1" d="M90.9,172l-0.6,0.1l2.4-2.1l0.3,0.2l-1.1,1.4l0.7,0.4c-0.3,1.7-1.7,1.2-3,1.4c0.6,0.7,1.5,1.2,0.1,1.6
	c-0.3,0.1-0.4,0.8-0.7,1.1c-0.3,0.3-0.6,0.6-1,0.9l-0.3-0.2c0.2-0.9,0.5-1.8,1-2.7C89.3,173.4,90.1,172.6,90.9,172z"/>
<path class="st1" d="M88.2,142.9l4.5-9.4c0.5,1.8,0.1,3.7-1.2,5.1l0.1-1.9h-0.3c0,0.7-0.1,1.4-0.3,2.1c-0.3,0.8-0.6,1.6-1,2.3
	c-0.4,0.7-1,1.3-1.5,2L88.2,142.9z"/>
<path class="st1" d="M162,197.1c-1-1.1-2.4-2.3-1.8-4.7c0.6,1,1.1,1.9,1.7,2.8c0.3,0.5,0.7,1,1.1,1.4c1,0.6,1.6,1.8,1.5,3
	c-0.3-0.4-0.7-0.7-1.1-1c-0.3-0.1-0.5-0.1-0.8-0.1l-0.3,0.4L162,197.1z"/>
<path class="st1" d="M91.3,146.8l4.1-9.3l0.4,0.2c-0.3,2.1-0.9,4.1-3,5.6l1.3,0.6C93,144.5,93.9,146.9,91.3,146.8z"/>
<path class="st1" d="M141,123l-0.4,0.4l-1.9,0.8c-0.7-1-0.6-1.4,0.5-2.1s2-1.4,3-2.2c0.2-0.2,0.2-0.6,0.5-1.3
	c0.2,0.6,0.4,0.9,0.4,1.1C142.8,121,142.1,122.2,141,123z"/>
<path class="st1" d="M143.7,120c0.3-0.6,0.5-1.2,0.7-1.8c0.1-0.4-0.1-0.9,0-1.3c0.3-0.7,0.6-1.3,0.9-1.9l0.4,0.2l-0.3,0.8l0.2,0.2
	l0.9-1.2l0.4,0.2c-0.4,1-0.6,2.1-0.7,3.2c0,1.1-0.5,1.3-1.3,1.5L143.7,120z"/>
<path class="st1" d="M139.5,119.8l-0.8,0.5c-1-2.4,0.4-4.3,0.6-6.4h0.3c0.2,0.8,0.3,1.6,0.5,2.4c0.1,0.6,0.2,1.1,0.4,1.7
	C140.7,118.7,140.3,119.5,139.5,119.8L139.5,119.8z"/>
<path class="st1" d="M165.6,132.4l0.1,0.4l2.1-1.3l0.2,0.4c-0.3,1-1.2,1.1-2,1.5c-0.7,0.2-1.4,0.6-1.9,1.2c-0.8,0.9-1.8,1.6-2.8,2.1
	c-0.7,0.4-1.4,0.7-2.1,1.1l-0.1-0.3L165.6,132.4z"/>
<path class="st1" d="M189.2,179.8c-1.3-0.1-2.5-0.3-3.8-0.5c-0.5-0.2-0.9-0.7-1.1-1.3c-0.2-1.2-1.3-2-2.5-1.8
	c-0.4,0-0.9-0.1-1.3-0.3c1.8,0,3.7-0.4,5.1,1.5c0.6,0.8,1.8,1.1,2.8,1.6C188.7,179.3,189,179.6,189.2,179.8z"/>
<path class="st1" d="M148.9,129.8c1.5-2.4,4.1-3.4,6.3-5.1c0,1.5-1.1,2.8-2.5,3.1c-0.6,0.1-1.1,0.7-1.6,1.1s-1.3,0.8-1.9,1.2
	L148.9,129.8z"/>
<path class="st1" d="M155.8,188.4c-2.3-1.6-4-4.1-4.7-6.9C153.9,183.2,154.3,186.2,155.8,188.4z"/>
<path class="st1" d="M146.5,190.7c-1.8-0.6-2.7-2.7-2.6-5.1c0.8,0.4,1.9,0.6,2.1,1.2C146.4,188.1,146.5,189.4,146.5,190.7z"/>
<path class="st1" d="M150.6,195.8l-3.2-3.5l0.4-0.3l-0.8-3.1l0.4-0.1l3.4,6.9L150.6,195.8z"/>
<path class="st1" d="M69.8,184.1c0,0.5,0.3,1.1,0.1,1.4c-0.6,0.6-0.7,1.6-0.1,2.3c0.4,0.7,0.7,1.4,0.9,2.1c-2.8-0.6-3.3-1.4-2.2-3.1
	l-0.3-0.3L69.8,184.1L69.8,184.1z"/>
<path class="st1" d="M97.4,185.3l-0.9,0.9c-0.9-0.6-1.7-1.3-2.4-2c-0.5-0.7-0.8-1.5-0.9-2.3c0-0.2,0.3-0.5,0.8-1.2
	c0.6,1.1,1,1.9,1.4,2.6c0.3,0.4,0.7,0.9,1.1,1.2l-0.6,0.3L97.4,185.3L97.4,185.3z"/>
<path class="st1" d="M164.7,148.8l-2.4,0.7c-1,0.3-1.9,0.6-2.9,0.9c-1,0.2-2.2,0.6-3.4-0.4l8.5-1.6L164.7,148.8z"/>
<path class="st1" d="M204.5,145.7c0.6-0.1,1.2-0.2,1.9-0.2c0.7,0.1,1.4,0.2,2.1,0.4v0.5l-6.5,1.1c0-0.8,0.6-1.4,1.3-1.4c0,0,0,0,0,0
	C203.7,146.1,204.1,145.9,204.5,145.7L204.5,145.7z"/>
<path class="st1" d="M120.5,168.7c-0.7,0.3-1.4,0.6-2.2,0.8c-0.4,0.1-0.8-0.4-1.2-0.6l0.4-0.4c-0.4-0.1-0.9-0.2-1.4-0.4
	c-0.4-0.1-0.8-0.3-1.1-0.6C117.2,166.9,119.7,167.5,120.5,168.7z"/>
<path class="st1" d="M87.7,137.3c-0.6-0.4-0.7-1.1-0.3-1.7c0.1-0.1,0.2-0.2,0.3-0.3c0.2-0.2,0.2-0.7,0.3-1c0.2-0.7,0.3-1.6,0.8-2
	c0.3-0.3,1.2,0.1,1.8,0.2l0.1,0.3l-1.7,1.3l1.1,0.6l-0.1,0.2h-1.3l0.3,0.3L87.7,137.3L87.7,137.3z"/>
<path class="st1" d="M133.5,198c-0.5-1-0.9-2.1-1.4-3.1c-0.4-0.8-0.3-1,0.4-1.5l-2-1.4c0.6,0.2,1.2,0.3,1.8,0.4
	c1.6,0.1,1.2,1.6,1.6,2.5c0.2,0.8,0.2,1.7,0.1,2.6C134,197.6,133.6,197.8,133.5,198L133.5,198z"/>
<path class="st1" d="M189.6,191.6c-4.3-0.6-3.2-0.1-5.2-3l2.3,1.1l-0.4-0.8C187.4,189,189.4,190.6,189.6,191.6z"/>
<path class="st1" d="M159.4,124.4c-0.2,1.5-2,1.4-2.6,2.6l0.2,0.8l-0.8-0.9c0.2-2,1.3-3.7,3-4.7l-1.1,2.5L159.4,124.4z"/>
<path class="st1" d="M200.5,140.6l-0.7-0.1c0.1-1.6,1.2-2.2,2.7-1.5c-0.8,1.4-0.6,3.7-3.5,3.2L200.5,140.6z"/>
<path class="st1" d="M104.8,191.7l-1.2,2.7c-0.9-0.8-1.2-4-0.3-5.5c0.3,0.6,0.6,1.1,0.9,1.6S104.7,191.5,104.8,191.7z"/>
<path class="st1" d="M187.7,137.9c1.2-1.2,2.7-0.6,4.1-0.7c-0.2,2.2-1.3,2.8-3.3,2l1.1-0.9L187.7,137.9L187.7,137.9z"/>
<path class="st1" d="M180,143.7c-0.1,0.4-0.2,0.8-0.3,1.2c-0.2,0.3-0.5,0.6-0.8,0.9c-0.8,0-1.3,0-1.9,0c-0.6,0.1-1.3,0.1-1.9,0.1
	C176.6,144.8,177.9,143.1,180,143.7z"/>
<path class="st1" d="M88,191.6c0.3,1.2,0.6,2.4,0.9,3.6c0.1,0.3,0,0.7-0.1,1c-0.4-0.6-1.2-0.8-0.9-1.8c0.1-0.3-0.6-0.8-0.8-1.3
	c-0.2-0.6-0.3-1.2-0.4-1.8c0-0.2-0.1-0.5-0.1-0.7c-0.1-0.5-0.1-1-0.1-1.6C87.5,189.8,86.6,191.3,88,191.6L88,191.6z"/>
<path class="st1" d="M151.9,190.1c1.6,0.7,2.4,2.5,1.8,4.1C151.6,193.7,151,192.6,151.9,190.1z"/>
<path class="st1" d="M157.4,182.9c1.4,0.1,5.3,5.1,5,6.8L157.4,182.9z"/>
<path class="st1" d="M188,194.8l5.2,3.7l-0.1,0.2c-1.5-0.4-2.9-0.9-4.3-1.5c-0.6-0.3-0.7-1.5-1-2.3L188,194.8z"/>
<path class="st1" d="M68.8,150.7l0.3,0.1c-0.6,1,0.1,2.5-1.2,3.3c-0.2,0.1-0.2,0.5-0.4,0.9c-1-2.2-0.6-5.2,0.8-5.9l-0.4,2.2l0.4,0.1
	L68.8,150.7L68.8,150.7z"/>
<path class="st1" d="M71.4,181.8l-0.1-0.5l-2.8,1l-0.2-0.3l4-3.6C72.8,179.4,72.8,179.4,71.4,181.8z"/>
<path class="st1" d="M161.8,116.8c0.2,0.5,0.7,1,0.6,1.4c-0.2,1.2-1.2,1.2-2.2,1.3c0.4-1.6-0.4-3.5,1.8-4.7l-0.5,2L161.8,116.8z"/>
<path class="st1" d="M198.6,172.2c2.1,0.4,4.1,0.3,5.8,1.8C202.7,174.6,199.6,174.2,198.6,172.2z"/>
<path class="st1" d="M123.4,186.8c-1.7,0-3.3-1.2-3.8-2.8C121.5,183.6,123.5,185.1,123.4,186.8z"/>
<path class="st1" d="M184.5,153.1c-2.9,1.3-5.6,0.7-8.6-0.3c0.6-0.1,1-0.3,1.2-0.1c1.2,0.7,2.5,0,3.7,0.2S183.3,153,184.5,153.1z"/>
<path class="st1" d="M151.1,189.6c0,0.7,0,1.3,0,1.8s0.1,1.1,0.1,1.6l-0.4,0.2l-2.7-3.9l0.2-0.2L151.1,189.6z"/>
<path class="st1" d="M136.1,141.3c-0.5,1.4-1.6,1.5-2.7,1.8c-0.3,0.1-0.6,0.2-0.9,0.3c-0.8,0.6-1.7,1.1-2.5,1.6
	c0.5-1.4,1.7-2.4,3.2-2.7C134.2,142,135.1,141.7,136.1,141.3z"/>
<path class="st1" d="M76.7,165c0.2-2.6,1-3.3,2.9-3.9c-0.1,0.4-0.2,0.7-0.2,1.1c0.1,0.4,0.2,0.8,0.4,1.1L76.7,165z"/>
<path class="st1" d="M71,163.5c0.7-1.4,1.3-2.9,2-4.3s1.5-2.5,2.2-3.8c0.7,1.6-0.8,2.5-1.3,3.7c-0.7,1.6-1.6,3.1-2.7,4.5L71,163.5z"
	/>
<path class="st1" d="M115.6,179.3c-0.6-0.2-1.1-0.4-1.6-0.6c-0.2-0.1-0.4,0-0.6,0c-0.4-0.1-0.8-0.3-1.1-0.6c-0.2-0.3-0.3-0.7-0.3-1
	c0-0.1,0.6-0.3,0.9-0.3C114.5,176.5,115.4,177.3,115.6,179.3z"/>
<path class="st1" d="M86.7,181.1l-0.9,3.8l0.8-1c-0.1,1.2-0.1,2.2-0.2,3.4c-1.6-1.6-1.5-5.2-0.1-6.3L86.7,181.1z"/>
<path class="st1" d="M118.6,127.4l0.8-0.1c-0.5,0.9-0.9,1.7-1.3,2.5c-0.5,0.7-0.8,1.4-1.2,2.2c-0.3,1.1-0.9,1.4-1.8,1
	c0.2-0.5,0.4-0.9,0.6-1.4c0.7-1,1.5-2,2.2-3.1C118.2,128.1,118.4,127.7,118.6,127.4L118.6,127.4z"/>
<path class="st1" d="M136.9,141.4l-0.8-1.4l4.5-2.6l0.3,0.5L136.9,141.4z"/>
<path class="st1" d="M109.2,180c1.3-0.2,1.3,0.4,0.9,1.5l-3.3-3.9c1.3,0.2,2.5,0.4,3.6,0.7c0.2,0.1,0.3,0.3,0.3,0.5
	c-0.1,0.2-0.3,0.4-0.5,0.5c-0.3,0.1-0.7,0.2-1,0.2L109.2,180z"/>
<path class="st1" d="M173.4,119.3l-4.5,4.2l-0.4-0.4c0.9-2,2.8-3,4.5-4.2L173.4,119.3z"/>
<path class="st1" d="M76.5,192.6c-1-0.7-1.5-3.6-0.9-5.5c1.1,0.8,1.5,2.3,0.9,3.6C76.4,191.3,76.4,191.9,76.5,192.6z"/>
<path class="st1" d="M107,131c0,3.4-2.7,4.9-4.6,6.8c0.7-1.1,1-2.4,2.3-3.2c1-0.7,1.4-2.2,2.1-3.4L107,131z"/>
<path class="st1" d="M115.8,138.9l1.1-0.6c0.3,0.7,0.3,0.7-1.6,1.9l-1.7-0.7c0.3-0.5,0.6-1.1,0.9-1.6c0.2-0.3,0.4-0.5,0.8-1
	L115.8,138.9z"/>
<path class="st1" d="M169,144.7c1.3-0.4,2.6-0.9,4-1.3s2.6-0.5,3.9-0.7l0.1,0.6c-0.7,0-1.3,0.1-1.9,0.3c-1.4,1-3.2,0.1-4.7,1
	c-0.4,0.2-0.8,0.4-1.3,0.5L169,144.7z"/>
<path class="st1" d="M191.6,143.5c-0.5,0.6-2.4,1.2-2.8,0.8c-0.3-0.3-0.4-0.6-0.4-1c0.2-0.5,0.4-0.9,0.8-1.1
	c0.2-0.1,0.6,0.1,0.9,0.2c0.3,0.2,0.5,0.4,0.7,0.7C191,143.1,191.3,143.3,191.6,143.5z"/>
<path class="st1" d="M152.4,189.2c-1.5-1.2-3.3-2-4.1-4C150.2,185.7,151.7,187.2,152.4,189.2z"/>
<path class="st1" d="M65.5,159.2l-0.5-4.4c1.8,0.4,2.1,1,1.5,2.3c-0.3,0.7-0.5,1.4-0.7,2.1L65.5,159.2z"/>
<path class="st1" d="M156.3,131.5l4.4-3.6c0,1.7-1.9,3.4-4.1,4L156.3,131.5z"/>
<path class="st1" d="M164.7,125.9c-0.3,2.2-2.5,2-3.4,3.5c-0.3-1.5-0.2-1.7,1-2.2C163.1,126.8,163.9,126.3,164.7,125.9z"/>
<path class="st1" d="M158,189.8c-1.6-1.1-2.5-3-2.3-5C156.8,186.3,157.6,188,158,189.8z"/>
<path class="st1" d="M205.1,131.1l0.9-0.6l0.3,0.2l-2.5,5c-0.9-0.6-0.9-0.8-0.4-1.5c0.6-0.9,1.2-1.8,1.8-2.7
	C205.2,131.4,205.1,131.2,205.1,131.1L205.1,131.1z"/>
<path class="st1" d="M142.5,193.7l-2-4.6c2,0.6,2.2,0.8,2.2,2.4c0,0.7,0,1.4,0,2.1L142.5,193.7z"/>
<path class="st1" d="M125,135.4c0.2,1.8,0,2.3-1.7,2.8l1.1-5.1h0.3L125,135.4L125,135.4z"/>
<path class="st1" d="M111.1,143.6c-1.1-0.4-1.2-0.7-0.2-1.6c0.7-0.7,1.3-1.4,1.8-2.1c0.9,1,0.8,1.3-0.1,2.1
	C112.1,142.5,111.7,143,111.1,143.6z"/>
<path class="st1" d="M138.4,149.6c1.5-1.4,3.3-1.2,5.2-1.2C141.9,150.3,140,149.4,138.4,149.6z"/>
<path class="st1" d="M181,145l0.4-1.5h3.8l-0.9,0.9l0.1,0.4L181,145z"/>
<path class="st1" d="M187.3,176.3c2,0.7,4.4,0.6,5.7,2.6C191.1,178.1,188.8,178,187.3,176.3z"/>
<path class="st1" d="M194.7,168.1l-1.6-0.9l-0.1,0.2l1.4,1.2c-1.7-0.1-2.4-1.1-1.9-2.7C194.5,166.1,194.8,166.5,194.7,168.1z"/>
<path class="st1" d="M109.6,133.2c-0.2,1.8-1,3.4-2.2,4.8c0.3-1.5,0.6-3,1-4.4c0.1-0.3,0.6-0.4,0.9-0.6L109.6,133.2z"/>
<path class="st1" d="M201,165.3c-1.5,0.4-1.9,0.2-2.2-1.1c-0.1,0.1-0.4,0.1-0.4,0.2c-0.2,0.5-0.5,0.9-1,0.4
	c-0.2-0.2-0.3-0.4-0.4-0.6c0.4-0.4,0.9-1,1.2-0.9C199.4,163.5,200.4,164.2,201,165.3z"/>
<path class="st1" d="M185.3,187.4c-1.6,0.2-3.2-0.6-3.9-2C183,185,184.6,185.8,185.3,187.4z"/>
<path class="st1" d="M215.6,160.3l0.2,1c-1.9,0.5-3.3-0.6-4.9-1.3c0.2-0.9,0.9-0.5,1.5-0.4c0.9,0.3,1.8,0.6,2.8,0.9
	C215.3,160.6,215.5,160.4,215.6,160.3L215.6,160.3z"/>
<path class="st1" d="M83.6,180.3c-0.4-0.9-0.7-1.8-1-2.7c-0.1-0.3-0.2-1.2,0.8-1.1c0.3,0,0.6-0.5,0.9-0.8l-0.4,4.6L83.6,180.3z"/>
<path class="st1" d="M113.1,188.6l2.7,2l-1.4,1.1C113.5,191.2,112.9,190.3,113.1,188.6z"/>
<path class="st1" d="M77.1,182.6c0.4-0.3,0.8-0.7,0.9,0.2c0,0.8,0,1.5,0,2.2l0.4,1.6l-1.3-0.5C77.4,185.1,76.2,183.8,77.1,182.6
	L77.1,182.6z"/>
<path class="st1" d="M101.9,128l0.7-3.1c0.8,0.2,1.5,0.6,1.5,1.6C104.2,127.8,103.1,127.8,101.9,128z"/>
<path class="st1" d="M72.7,189.5c1.3,0.2,0.6,1,0.7,1.6l-0.3,0.1l-0.3-0.9c-0.3-0.1-0.6-0.1-0.7-0.2c-0.4-1-0.8-2.1-0.1-3.1
	C73,187.8,73.2,188.4,72.7,189.5z"/>
<path class="st1" d="M108.4,140c0.5-0.9,1-1.7,1.5-2.6c0.1-0.3,0.2-0.7,0.2-1c0-0.6,0-1.2,0.9-1.5c0.4,2.3-1,3.8-2,5.4L108.4,140z"
	/>
<path class="st1" d="M126.1,130.6c-1.3-0.1-0.7-0.9-0.6-1.5c0.3-1.3,0.8-2.6,1.2-3.9c0-0.1,0.2-0.1,0.6-0.3
	C126.9,127,126.5,128.8,126.1,130.6z"/>
<path class="st1" d="M181.6,191.8c1.9,1,1.9,2.9,3,4.3C182,195.8,182.4,193.6,181.6,191.8z"/>
<path class="st1" d="M191,172.3c-0.6-0.3-1.6-0.3-1.5-1.5c0-0.1-0.3-0.3-0.5-0.5c-0.4-0.4-0.7-0.8-1-1.2c1.1-0.3,2.3,0.2,2.8,1.2
	l-1,0.6C190.7,171.1,191.4,171.2,191,172.3L191,172.3z"/>
<path class="st1" d="M152.5,96.5l2.7,2.8l-1.1,0.7C152.9,99.2,152.3,97.8,152.5,96.5z"/>
<path class="st1" d="M151,142.1l0.4,1.4l0.7-1.2c0.3,1.3-2.4,3-4.5,2.8c0.7-1.3,2.2-1,3.2-1.8l-0.1-1.1L151,142.1z"/>
<path class="st1" d="M157.6,196.8c0.1,2.1-1.2,3.7-1.9,5.6C156,200.4,156.6,198.5,157.6,196.8z"/>
<path class="st1" d="M123.2,129.4c1,0.9,0.1,3.8-1.7,4.5L123.2,129.4z"/>
<path class="st1" d="M175.6,158l6.2,1l-0.1,0.5c-1.4-0.1-2.7-0.2-4.1-0.4c-0.6-0.1-1.1-0.3-1.6-0.6
	C175.8,158.4,175.7,158.2,175.6,158L175.6,158z"/>
<path class="st1" d="M91.4,129.6c1.3-1.7,1.2-4.3,3.3-5.6l0.3,0.2l-3.2,5.7L91.4,129.6z"/>
<path class="st1" d="M135,172.9c1.9-0.1,3.2,0.5,3.4,1.7C137.3,175.1,136.1,174.5,135,172.9z"/>
<path class="st1" d="M73.3,147.8l1,2.1c-0.3,0.5-0.6,0.9-1,1.3c-0.2,0.1-0.8-0.1-0.8-0.1c0.1-1.1,0.3-2.2,0.4-3.3L73.3,147.8z"/>
<path class="st1" d="M156.5,196.2l-0.8,2.9h-0.5l-0.8-2.5l1.3,0.3l0.1-0.2l-1.3-1.1l0.1-0.2L156.5,196.2z"/>
<path class="st1" d="M57.7,175.4c-1.1-0.7-0.8-1.6-0.2-2.9l2,2.3l-0.2,0.4L57.7,175.4L57.7,175.4z"/>
<path class="st1" d="M167.5,193c1.2,1.4,1.8,3.2,1.9,5.1C168.3,197,167.1,193.8,167.5,193z"/>
<path class="st1" d="M172.3,192.3c1.8-0.3,2.4,0.9,3.3,1.9C173.6,194.3,172.8,193.8,172.3,192.3z"/>
<path class="st1" d="M206.7,176.2l-5-0.9l0.1-0.3C203.5,174.4,205.4,174.9,206.7,176.2z"/>
<path class="st1" d="M177.9,147.2c-0.6,1.6-1.9,1.9-4.4,1.2L177.9,147.2z"/>
<path class="st1" d="M190.7,188.4c-1.7,0.2-3.4-0.4-4.6-1.6C186.7,186.3,190,187.3,190.7,188.4z"/>
<path class="st1" d="M196.1,137.6c-1.6,0.2-2.4,1.8-4.1,1.2c0.6-0.6,0.3-1.8,1.5-1.6C194.3,137.3,195.1,137.4,196.1,137.6z"/>
<path class="st1" d="M177.6,124.9l4.3-4l0.3,0.3c-1.6,1.2-2.1,3.5-4.2,4.1L177.6,124.9z"/>
<path class="st1" d="M90.8,135c0-0.1,0.1-0.3,0.1-0.4l3-6.3l0.4,0.2l-3.2,6.6L90.8,135z"/>
<path class="st1" d="M145.8,183.8c-1.4-0.4-3.1-0.5-3.2-2.7l3.5,2.3L145.8,183.8z"/>
<path class="st1" d="M151.8,177.2c2-0.2,2.7,0.5,2.9,3.1L151.8,177.2z"/>
<path class="st1" d="M111.6,127.2c0.7,1.5,0,2.9-0.4,4.6c-1-1.7-0.1-3.1-0.1-4.6L111.6,127.2L111.6,127.2z"/>
<path class="st1" d="M153.1,133.1c0,1.9-2,2.4-3.1,3.6c0.1-0.1,0.3-0.2,0.3-0.3c-0.6-1.3,0.6-1.4,1.2-1.9s0.9-1,1.3-1.6L153.1,133.1
	z"/>
<path class="st1" d="M200.9,153c1.8-0.7,3.2-2.3,5.3-2.2l0.1,0.3l-5.2,2.3L200.9,153z"/>
<path class="st1" d="M163.9,135.9l4.2-3C168.3,134.2,166,136,163.9,135.9z"/>
<path class="st1" d="M97,131.1c0,0.3,0.2,0.7,0,0.9c-0.5,0.6-1.1,1.2-1.6,1.8l-1.6,1.8C93.8,134.3,95,132.5,97,131.1L97,131.1z"/>
<path class="st1" d="M206.1,171.1l-4.6-1.9C203.7,168.8,205.7,169.7,206.1,171.1z"/>
<path class="st1" d="M186.6,141.5c0.6-1.5,1-1.8,2.1-1.4c0.3,0.1,0.5,0.3,0.6,0.5c0,0.1-0.2,0.4-0.4,0.5c-0.5,0.3-1.1,0.6-1.7,0.8
	C187.1,142,186.8,141.7,186.6,141.5L186.6,141.5z"/>
<path class="st1" d="M112.3,189.2c-1.4-0.6-1-2.6-2.7-3.2l1-0.5C111.1,186.9,113.2,187.3,112.3,189.2z"/>
<path class="st1" d="M126.9,134.5l0.7,0.9l-1.5,1.4l-0.1-1.3l-1-0.2l0,0c0.1-0.7,0.3-1.4,0.4-2h0.2l0.1,1.6L126.9,134.5L126.9,134.5
	z"/>
<path class="st1" d="M158,119.8l-1.7,4C155.6,121.8,155.9,121,158,119.8z"/>
<path class="st1" d="M88.4,199.7l-0.3-1c1.6-0.5,1.7-0.5,3,2l-2.7-1.1L88.4,199.7z"/>
<path class="st1" d="M211,173.2l-4.5-3.2l0.4-0.5l4.4,3.3L211,173.2z"/>
<path class="st1" d="M137.5,177c0.8,0.1,1.5,0.2,2.3,0.3c0.2,0.1,0.4,0.6,0.6,0.9c-0.3,0.1-0.6,0.2-0.9,0.2c-0.4,0-0.7,0-1.2,0.1
	l-0.9-1.1L137.5,177z"/>
<path class="st1" d="M88.1,191.7l-0.5-1.6c0.7,0.3,1.3,0.8,2.1,1.1s1.4,0.5,0.3,1.2c-0.1,0.1-0.1,0.3-0.1,0.5L88.1,191.7L88.1,191.7
	z"/>
<path class="st1" d="M154.1,107.2c1.3,2,1.4,3.3,0.2,4.9C154.3,110.4,154.2,108.9,154.1,107.2z"/>
<path class="st1" d="M109.4,124c0.2,1.6-0.2,3.2-1.3,4.4l0.8-4.5L109.4,124z"/>
<path class="st1" d="M70.4,166.9c-0.2-1.6,1.5-1.8,2.3-2.8l-0.7,3h-0.2l0.1-1.2C71.2,165.9,71.6,167.5,70.4,166.9L70.4,166.9z"/>
<path class="st1" d="M124.6,124.3c-0.1-1.8,1-3.2,1.6-4.8c0.5,0.5,0.8,0.9,0.3,1.5C125.8,122.1,125.3,123.2,124.6,124.3z"/>
<path class="st1" d="M141.4,181.8l-2.9-2.3C140.1,178.7,141.3,179.7,141.4,181.8z"/>
<path class="st1" d="M170.1,179.9c0.8,1.2,2.4,1.8,2.4,3.7C170.7,182.8,170.6,181.2,170.1,179.9z"/>
<path class="st1" d="M195.9,141.9c0.4-1.9,0.5-2,2.8-1.9l-0.4,1.1l-0.4-0.6C196.9,142,196.9,142,195.9,141.9z"/>
<path class="st1" d="M178.8,191.4l-2.3-3.2C177.8,187.8,178.6,188.8,178.8,191.4z"/>
<path class="st1" d="M162.5,184.4c1.6-0.1,2.3,1.6,1.6,3.5C163.5,186.6,163,185.5,162.5,184.4z"/>
<path class="st1" d="M118,120.3c-0.3,1.6-0.7,3.1-1.1,4.8l-0.8-0.1l1.5-4.8L118,120.3z"/>
<path class="st1" d="M111.2,169.8c0.8-0.2,1.6-0.3,2.5-0.4c0.3,0,0.5,0.6,0.8,0.9c-0.3,0.1-0.7,0.2-1,0.3c-0.4,0.1-0.7,0.1-1.1,0
	c-0.4-0.1-0.8-0.2-1.2-0.4L111.2,169.8z"/>
<path class="st1" d="M99.3,131.2l0.9-0.2c-0.1,1.7-1.6,2.4-2.4,3.6l-0.4-0.2l1.2-2L99.3,131.2L99.3,131.2z"/>
<path class="st1" d="M117.9,175.4c-0.5,0.3-0.8,0.6-1,0.6c-1,0-0.9-0.9-1-1.6c0-0.2,0.4-0.4,0.7-0.6L117.9,175.4z"/>
<path class="st1" d="M149.7,134c-1.2,0.8-1.9,2.4-3.8,2.6C147.1,135.2,148,134,149.7,134z"/>
<path class="st1" d="M160.9,121.2c-0.5-1.5,0.9-1.3,1.6-1.9c0.6,1.3-0.3,1.9-0.8,2.8L160.9,121.2L160.9,121.2z"/>
<path class="st1" d="M172,118.1l2.5-3.1c0.4,1.3-0.4,2.7-1.6,3C172.6,118.1,172.3,118.2,172,118.1z"/>
<path class="st1" d="M203.9,135.9c-0.6,1.6-1.4,2.1-2.4,1.6C202.2,135.8,202.6,135.6,203.9,135.9z"/>
<path class="st1" d="M61.3,167.1c1,1.5,0.3,2.9-0.4,4.3C60.5,169.9,61,168.5,61.3,167.1z"/>
<path class="st1" d="M79.8,186.8c-0.2-0.4-0.4-0.9-0.6-1.3c-0.4-1.5-0.4-1.6,1.4-1.1l-0.5,2.4L79.8,186.8z"/>
<path class="st1" d="M156.4,195.7l-1.8-0.8V193l0.3-0.1l1.8,2.6L156.4,195.7z"/>
<path class="st1" d="M187.7,137.9l-2.1,1.8l-0.4-0.3l0.5-1.9C186.3,137.9,187.2,136.9,187.7,137.9L187.7,137.9z"/>
<path class="st1" d="M118.4,150.6l-0.6,1.1l0.2,0.2l1.4-1.3c-0.1,2.1-1.8,1-2.8,1.7C116.8,151,117.4,150.6,118.4,150.6z"/>
<path class="st1" d="M177.8,118.6l-3.1,2.9c-0.2-1.5-0.1-1.6,2.8-3.2L177.8,118.6z"/>
<path class="st1" d="M180.7,181.1l5,3.3C184.4,184.4,182,183,180.7,181.1z"/>
<path class="st1" d="M193.1,120.3l1,0.2l-4.7,3l-0.3-0.5c1-0.6,2-1.2,3-1.8C192.5,120.9,192.8,120.6,193.1,120.3L193.1,120.3z"/>
<path class="st1" d="M84.1,159.7l-1.7-0.3l2-2.9l0.3,0.2l-1.2,1.9l1.1,0.3L84.1,159.7L84.1,159.7z"/>
<path class="st1" d="M103.9,144.6c-0.3,0.6-0.7,1.2-1.2,1.7c-0.5,0.3-1.1,0.5-1.7,0.6l-0.2-0.4l2.9-2.2L103.9,144.6z"/>
<path class="st1" d="M162.1,193.4c1.8,0.7,1.9,0.9,1.9,3.2l-2.2-3L162.1,193.4z"/>
<path class="st1" d="M171.8,137.6c-0.6,1.3-2,1.8-4,1.2L171.8,137.6z"/>
<path class="st1" d="M199.2,167.6c-0.8,0.7-2.1,0.6-2.8-0.3c-0.2-0.2-0.3-0.5-0.4-0.7L199.2,167.6z"/>
<path class="st1" d="M149.8,173.6c1.3-0.6,2.1-0.3,2.7,1.1C151.4,174.7,150.4,174.7,149.8,173.6z"/>
<path class="st1" d="M130.6,133.7l-0.5,2.4l-0.7,0.2c-0.2-0.4-0.6-0.9-0.5-1.1c0.4-0.6,0.9-1.2,1.4-1.8L130.6,133.7z"/>
<path class="st1" d="M179.9,156.8c1.1-0.1,2.2-0.2,3.4-0.3c0.2,0,0.4,0.3,0.5,0.4c-0.2,0.2-0.4,0.5-0.5,0.5
	c-1.1-0.1-2.2-0.2-3.4-0.3L179.9,156.8z"/>
<path class="st1" d="M125.6,140.6l3.5-1.1c-0.8,1.5-1.4,1.7-3.4,1.4L125.6,140.6z"/>
<path class="st1" d="M185.6,131.7c-1.1,1.8-1.6,2.1-2.7,1.7C183.3,132.3,184.4,131.7,185.6,131.7z"/>
<path class="st1" d="M161.9,112.6c-0.3-0.8-0.6-1.7-1-2.5s-0.9-1.6-1.2-2.4c1.1,1.4,2,3,2.7,4.6L161.9,112.6z"/>
<path class="st1" d="M135.3,183.9c1.2,0.4,2.1,1.4,2.4,2.6c-1.2,0-1.3-0.1-1.5-1.4C136.2,184.7,135.7,184.3,135.3,183.9z"/>
<path class="st1" d="M109.8,172.6c0.6,0,1.2,0.1,1.8,0.2c0.2,0.1,0.3,0.7,0.5,1.1c-0.3,0-0.7,0.2-0.9,0.1c-0.5-0.3-1-0.6-1.5-0.9
	L109.8,172.6z"/>
<path class="st1" d="M138.3,183.4c1.6,0.3,3,1.4,3.5,3L138.3,183.4z"/>
<path class="st1" d="M156.1,129.2l-3.6,2.2c0.1-0.5,0.1-1,0.3-1.1c1-0.6,2.1-1,3.1-1.5L156.1,129.2z"/>
<path class="st1" d="M124.6,177.6l2.5,3.1C125.6,180.3,124.6,179,124.6,177.6z"/>
<path class="st1" d="M96,120.1l0.8,1l-1.8,2.3l-0.4-0.3L96,120.1z"/>
<path class="st1" d="M101.6,139.5l1.1,0.7l-1.9,2.5l-0.3-0.1L101.6,139.5z"/>
<path class="st1" d="M91.2,175.1c-0.2,1.8-0.5,3.4-0.7,5C90,179.1,90.3,176.1,91.2,175.1z"/>
<path class="st1" d="M96.9,177.4c0-0.3,0-0.7,0.1-1c0.1-0.2,0.4-0.4,0.6-0.6l1.7,1.9L96.9,177.4z"/>
<path class="st1" d="M95,193.7c0.1-0.7,0.1-1.5,0.1-2.2c-0.2-0.6-0.4-1.1-0.8-1.6c1.7,1.5,1.7,1.7,1.1,3.9L95,193.7z"/>
<path class="st1" d="M113.6,164.5l3.9-0.6l0.1,0.5l-3.9,0.8L113.6,164.5z"/>
<path class="st1" d="M197.3,174.6l3.3,0.2v0.5c-1.1,0.5-2.4,0.4-3.3-0.4L197.3,174.6z"/>
<path class="st1" d="M107,179.6c-2.5-0.2-2.8-0.5-2.6-2L107,179.6z"/>
<path class="st1" d="M77.1,182.6l-1.5,0.9l-0.2-3C76.2,181,76.7,181.7,77.1,182.6L77.1,182.6z"/>
<path class="st1" d="M190.9,141.3l2.2-0.8l0.3,0.3c-0.2,0.4-0.5,0.8-0.8,1.1C192.1,142.3,191.5,142.2,190.9,141.3z"/>
<path class="st1" d="M86.3,172.6l-2.9,1.7l-0.2-0.4c0.4-1.5,1.9-1.2,3-1.7L86.3,172.6z"/>
<path class="st1" d="M117.4,172.3l3.8,2.4l-0.3,0.4l-3.7-2.4L117.4,172.3z"/>
<path class="st1" d="M95.9,175.8l-0.1,1.6l-2.3-0.6v-0.3L95.9,175.8z"/>
<path class="st1" d="M199.8,170.1l-3.8-0.9C197.7,168.1,198.7,169.4,199.8,170.1z"/>
<path class="st1" d="M188.2,134.2l2.5-1.4c0,0,0.2,0.4,0.2,0.6s-0.3,0.7-0.6,0.8c-0.7,0.1-1.3,0.2-2,0.2L188.2,134.2z"/>
<path class="st1" d="M95.5,197.9c-1.1-1-0.9-2.3-0.6-3.6l1,3.5L95.5,197.9z"/>
<path class="st1" d="M197,158.8c0.2-1.5,1-1.6,2.6-0.5L197,158.8z"/>
<path class="st1" d="M175.9,128.2l-2.6,2.5C172.9,129.9,173.9,128.8,175.9,128.2z"/>
<path class="st1" d="M128.8,184.6c-2,0.5-1.7-1.4-2.6-2l0.2-0.2L128.8,184.6z"/>
<path class="st1" d="M130.2,136.7c0.2,1.9-0.7,2.5-2.3,1.9L130.2,136.7z"/>
<path class="st1" d="M164.9,130.6l2.6-2.6l0.3,0.3c-0.4,1.4-1.6,1.9-2.6,2.6L164.9,130.6z"/>
<path class="st1" d="M120,137.1l1.5-2C122.4,136.1,121.9,136.9,120,137.1z"/>
<path class="st1" d="M160.9,121.2c0,0.2-0.2,0.4-0.1,0.6c0.5,1,0,1.4-1,1.7c0-0.6,0-1.1,0-1.7C159.9,121.1,160.2,120.6,160.9,121.2
	L160.9,121.2z"/>
<path class="st1" d="M87.3,149.5l-0.7-0.1l-0.8,1.6l-0.4-0.2l1.2-2.9l0.4,0.2l-0.4,0.8l0.8,0.2L87.3,149.5z"/>
<path class="st1" d="M162.7,200.3c-0.8-0.9-2.2-1.5-2-3.1l2.4,2.9L162.7,200.3z"/>
<path class="st1" d="M175.7,174c1.2-1.3,1.9-1.1,2.6,0.5L175.7,174z"/>
<path class="st1" d="M170.9,123.5l2.5-2.7C173.2,122.7,172.7,123.2,170.9,123.5z"/>
<path class="st1" d="M87,133.1c-0.1-1.6,1.6-2.2,2.3-3.4l-1.9,3.6L87,133.1z"/>
<path class="st1" d="M212.3,162.3l-4.4,0.3v-0.4h4.4V162.3z"/>
<path class="st1" d="M69.9,184l-1.7,0.8l-0.3-0.2l1.4-2.2l0.3,0.1C69.7,183,69.8,183.5,69.9,184L69.9,184z"/>
<path class="st1" d="M159.8,118.7l-1.6,3l-0.4-0.2C158.5,120.5,158.2,119,159.8,118.7z"/>
<path class="st1" d="M179.8,199.8l-1.2-3.1C179.6,196.7,180.4,198.7,179.8,199.8z"/>
<path class="st1" d="M193.8,185.6l3,3.1l-0.3,0.3l-3-3.2L193.8,185.6z"/>
<path class="st1" d="M108.6,194.3l-0.3-2.1l0.2-0.2l1.2,0.9C109.2,193.3,109.8,194.3,108.6,194.3z"/>
<path class="st1" d="M93.7,158.9c-0.9,1.2-2.3,1.2-3.5,1.6l-0.1-0.3l3.4-1.7L93.7,158.9z"/>
<path class="st1" d="M185.5,136.3c0.9-1.1,2.2-1.3,3.9-1.1l-3.8,1.4L185.5,136.3z"/>
<path class="st1" d="M143.6,194.3c0.2-1.2-0.5-2.6,0.8-3.7c-0.1,1.2-0.3,2.5-0.4,3.7L143.6,194.3z"/>
<path class="st1" d="M114.5,142.5c0.2,1.3-0.6,1.7-1.2,2.1c-0.2,0.1-0.6,0-1.2-0.1L114.5,142.5z"/>
<path class="st1" d="M112.4,136.8l0.7-3.1h0.4l0.6,1l-0.4-0.1l-1,2.3L112.4,136.8z"/>
<path class="st1" d="M115.1,168.6L112,169C113.6,167.3,113.7,167.3,115.1,168.6z"/>
<path class="st1" d="M185.6,146.2c0.1-1.7,0.9-1.2,1.6-1.1c0.2,0.1,0.3,0.4,0.4,0.6L185.6,146.2z"/>
<path class="st1" d="M126.9,190l-2.3-2.1l0.4-0.4c0.3,0.3,0.7,0.6,1,0.9s0.8,0.9,1.2,1.4L126.9,190z"/>
<path class="st1" d="M172.1,172.1l-1.1-1.9l0.2-0.3l1.7,0.3L172.1,172.1z"/>
<path class="st1" d="M93.9,169.8l2.8-1.8l0.2,0.3l-2.7,1.9L93.9,169.8z"/>
<path class="st1" d="M106.8,126.5c-0.2-1.2,0.1-2.4,0.9-3.3l-0.5,3.4L106.8,126.5z"/>
<path class="st1" d="M99.8,179.5l-2.9-0.7C98.1,178,99.1,178.3,99.8,179.5z"/>
<path class="st1" d="M150.8,152.5c0.9-0.9,2.3-1,3.3-0.3L150.8,152.5z"/>
<path class="st1" d="M145,139.2c0.8-1.5,1.4-1.8,3-1.3L145,139.2z"/>
<path class="st1" d="M145.8,184.4l2.1,1.6l-0.2,0.3c-0.9-0.3-1.9-0.4-2.1-1.6L145.8,184.4z"/>
<path class="st1" d="M122,174.7l-2.8-2.1c1.5-0.4,2.1,0.9,2.9,1.8L122,174.7z"/>
<path class="st1" d="M179,137l-3.5,1.8l-0.2-0.4l3.5-1.8L179,137z"/>
<path class="st1" d="M162.1,130.8l-1,2l-1.4-0.3l2.2-2L162.1,130.8z"/>
<path class="st1" d="M130,163.2h-3.7C127.4,162.4,128.9,162.4,130,163.2z"/>
<path class="st1" d="M84.1,159.7c0,0.4,0.1,0.9-0.1,1.1c-0.3,0.4-0.7,0.8-1.2,1.1l-0.4-0.2c0.2-0.4,0.4-0.9,0.7-1.2
	C83.4,160.2,83.7,159.9,84.1,159.7L84.1,159.7z"/>
<path class="st1" d="M193.3,175.1l3.1,1.2C195.2,176.8,193.9,176.3,193.3,175.1z"/>
<path class="st1" d="M118.1,140.8l-1.7,2.2l-0.5-0.4l1.7-2.3L118.1,140.8z"/>
<path class="st1" d="M181,131.6l-2.4,1.1C178.8,131.5,179.6,131.1,181,131.6z"/>
<path class="st1" d="M201.2,161.2l1.5,0.1v0.4l-3.5,0.5l-0.1-0.4L201.2,161.2L201.2,161.2z"/>
<path class="st1" d="M194.9,149.9c0-0.4,0-0.8,0.1-1.1c0.7,0,1.3,0,2,0l0.1,0.4L194.9,149.9z"/>
<path class="st1" d="M95,187.1L95,187.1l-1,0.4l-0.2-2.3C94.8,185.6,95.5,186,95,187.1z"/>
<path class="st1" d="M202.5,142.9l1.2-1.5l0.5,0.3c-0.1,0.6-0.3,1.1-0.6,1.6c-0.1,0.1-0.6,0-1,0L202.5,142.9z"/>
<path class="st1" d="M156,191.4c1.6-0.2,1.9,0.3,1.7,2.1L156,191.4z"/>
<path class="st1" d="M67.2,180.9l-2.7,2.9C64.8,182.4,65.8,181.3,67.2,180.9z"/>
<path class="st1" d="M162.8,122.5l-0.2,2L161,124l1.4-1.6L162.8,122.5z"/>
<path class="st1" d="M190.4,136.1l2.1-1.2c0,1.5,0,1.5-1.9,1.5L190.4,136.1z"/>
<path class="st1" d="M192.4,148.8c-0.7,0.1-1.3,0.3-2,0.4c-0.2,0-0.4-0.2-0.6-0.4c0.2-0.2,0.3-0.6,0.5-0.6c0.7,0,1.3,0,2,0
	L192.4,148.8z"/>
<path class="st1" d="M152.3,94l1.3-0.8l0.3,2.1l-0.4,0.1L152.3,94z"/>
<path class="st1" d="M140.8,207.4c0-0.8,0-1.6,0-2.4c0.3-0.1,0.6-0.1,0.9-0.1l-0.5,2.5L140.8,207.4z"/>
<path class="st1" d="M153.4,196.7c-1.1,0-1.5-0.7-1.4-2l1.8,1.6L153.4,196.7z"/>
<path class="st1" d="M152.3,105.1v-2.5C153.4,103.6,153.4,104.3,152.3,105.1z"/>
<path class="st1" d="M158.6,126.9l2.1-1.7C161.2,126.2,161.1,126.2,158.6,126.9z"/>
<path class="st1" d="M123.8,165l2.8,0.4C125.3,166.3,124.6,166.3,123.8,165z"/>
<path class="st1" d="M194,142.6l0.5,1.4l-1.2,0.4v-1.6L194,142.6z"/>
<path class="st1" d="M139.5,119.8l1.3-0.2l-2.3,2.4l-0.3-0.3L139.5,119.8L139.5,119.8z"/>
<path class="st1" d="M113,174.1c0.4-1,1.3-0.5,1.9-0.6c0.1,0.2,0.2,0.4,0.2,0.6c-0.4,0.2-0.8,0.4-1.3,0.5
	C113.6,174.6,113.3,174.2,113,174.1z"/>
<path class="st1" d="M66.8,161.1l-0.3,3.4l-0.4-0.1C66.8,163.4,65.2,161.9,66.8,161.1z"/>
<path class="st1" d="M186.6,141.5l-1,0.8c-0.6-1.2-0.6-1.4,0.7-2C186.5,140.7,186.6,141.2,186.6,141.5L186.6,141.5z"/>
<path class="st1" d="M178.8,127.2l-2.6,2.2C176.9,127.8,177.9,126.9,178.8,127.2z"/>
<path class="st1" d="M125.8,169.7l-2.7-0.8l0.2-0.5l2.7,0.9L125.8,169.7z"/>
<path class="st1" d="M74.1,148.1c-0.5-1.9-0.4-2.3,0.7-2.5L74.1,148.1z"/>
<path class="st1" d="M102.5,135l1.4-3.4l0.4,0.2l-1.6,3.3L102.5,135z"/>
<path class="st1" d="M148.6,113.4l-1.2,2.8c0-1.1-0.2-2.3,0.8-3L148.6,113.4z"/>
<path class="st1" d="M118.9,175.8c1.6-0.7,2.4,0.4,3.3,1.2L118.9,175.8z"/>
<path class="st1" d="M147.1,178.5c-0.9,0.2-1.2,0.1-1.6-1.2C146.4,177.1,146.5,177.1,147.1,178.5z"/>
<path class="st1" d="M188.5,161.2l3.2,0.1l-0.9,0.5l0.1,0.3l-2.6-0.6L188.5,161.2z"/>
<path class="st1" d="M122.3,178.9l-2.2-1.4l0.3-0.5l2.2,1.3L122.3,178.9z"/>
<path class="st1" d="M184.3,141.3l0.3,1.1h-2.2l-0.2-0.2L184.3,141.3z"/>
<path class="st1" d="M109.5,120.4l-1.1,1.7c-0.6-1-0.3-1.7,0.8-2L109.5,120.4z"/>
<path class="st1" d="M174.9,126.3l-2.4,1.5l-0.3-0.4l2.4-1.5L174.9,126.3z"/>
<path class="st1" d="M153.2,100.3c1.6,1,1.6,1.1,0.6,2.4L153.2,100.3z"/>
<path class="st1" d="M106.3,128l-1,2.7l-0.5-0.2l1.1-2.6L106.3,128z"/>
<path class="st1" d="M84.3,154.4c-0.6-1.3,0.4-1.6,1.3-2L84.3,154.4z"/>
<path class="st1" d="M102.8,139.6c-0.7-0.8-0.5-1.2,1.4-2.5L102.8,139.6z"/>
<path class="st1" d="M145.9,149.2l-2.4,0.6l-0.1-0.5l2.3-0.7L145.9,149.2z"/>
<path class="st1" d="M158.2,173.6l1.9,1.7C158,175,157.6,174.6,158.2,173.6z"/>
<path class="st1" d="M86,178.6c0.6,1.1-0.2,1.6-0.8,2.5C85.1,179.9,85,179.1,86,178.6z"/>
<path class="st1" d="M186.8,195.8c-0.1-0.1-0.2-0.2-0.3-0.3c-0.7-1-1.4-2.2-1.9-3.3l2.5,3.4L186.8,195.8z"/>
<path class="st1" d="M81.1,190.7l-0.5-2.3l0.5-0.1l0.7,2.3L81.1,190.7z"/>
<path class="st1" d="M103.3,176.8c0,0.5,0.1,1.1,0.1,1.6c0,0.1-0.4,0.1-0.6,0.2l-0.2-1.7L103.3,176.8z"/>
<path class="st1" d="M120.3,169.3l2.1,0.6v0.3l-1.7,0.2l-0.5-0.8L120.3,169.3z"/>
<path class="st1" d="M174.1,186.5l-1.9-2.2C173.4,184.4,173.7,184.8,174.1,186.5z"/>
<path class="st1" d="M105.1,148.7l2.3-1.3C107.3,148.7,106.9,148.9,105.1,148.7z"/>
<path class="st1" d="M115.6,170.4l-0.4-1.4l2,0.6v0.3L115.6,170.4z"/>
<path class="st1" d="M81.9,156.7l-1.3,1.9l-0.4-0.3l1.2-2L81.9,156.7z"/>
<path class="st1" d="M152.4,93.2l0.4-2.7C153.8,91.8,153.7,92.2,152.4,93.2z"/>
<path class="st1" d="M196.7,138.4l1.7-1.2C198.5,138.6,198.2,138.9,196.7,138.4z"/>
<path class="st1" d="M93.3,133.4l1.3-2.9l0.4,0.2l-1.2,2.9L93.3,133.4z"/>
<path class="st1" d="M71.2,149.6l-1.5,2.2C69.8,150,70.3,149.4,71.2,149.6z"/>
<path class="st1" d="M204.5,145.7l-1-0.5c0.7-1,1.4-0.7,2.3-0.2L204.5,145.7L204.5,145.7z"/>
<path class="st1" d="M118.8,143.9l1.9-0.4c-0.4,1.1-1,1.4-1.9,0.8L118.8,143.9z"/>
<path class="st1" d="M142.6,133.4l-0.5-1.4l1.7-0.4l0.3,0.4L142.6,133.4z"/>
<path class="st1" d="M171.1,188.2l1.7,2.2c-1.1-0.2-1.1-0.2-1.9-2L171.1,188.2z"/>
<path class="st1" d="M193.6,141.8l1.7-1.1C195.5,142,195.2,142.2,193.6,141.8z"/>
<path class="st1" d="M186,162.4l-2.6-0.5l0.1-0.5l2.6,0.5L186,162.4z"/>
<path class="st1" d="M150.6,182.8c-0.4-0.6-0.9-1.1-1.2-1.7c-0.1-0.1,0-0.4,0-0.6c0.2,0.1,0.5,0.1,0.5,0.3c0.3,0.6,0.5,1.3,0.7,1.9
	L150.6,182.8z"/>
<path class="st1" d="M171.6,193.3l-1.2-2.1l0.4-0.3l1.2,2L171.6,193.3z"/>
<path class="st1" d="M163.6,199.4l1.5,2l-0.4,0.3l-1.4-2.1L163.6,199.4z"/>
<path class="st1" d="M127.8,185.8c0.5,0.4,1.6,0.2,1.1,1.5C127.8,187.3,127.9,186.5,127.8,185.8z"/>
<path class="st1" d="M199.8,153.2l-1.1,1l-0.3-0.1l0.1-1.7L199.8,153.2z"/>
<path class="st1" d="M97,131.1L97,131.1l0.6-2.5l0,0l0.5-0.6C97.6,129.1,98.3,130.4,97,131.1z"/>
<path class="st1" d="M184.1,130.9l1.9-0.8c0,1.2,0,1.1-0.9,0.9c-0.3,0-0.7,0-1,0.1L184.1,130.9z"/>
<path class="st1" d="M175.6,158c-0.5,0.2-1,0.3-1.6,0.5c-0.7,0.3-1,0.1-0.9-0.9L175.6,158z"/>
<path class="st1" d="M139.7,158.1l2.8-0.2v0.4h-2.9L139.7,158.1z"/>
<path class="st1" d="M113.5,181.8v-0.3l-0.5-1.1l0.4-0.2l1.3,1.8l-0.3,0.3L113.5,181.8z"/>
<path class="st1" d="M114.8,136.2l-1.5,2l-0.4-0.3l1.6-2L114.8,136.2z"/>
<path class="st1" d="M99.8,140.5l0.9-2.4l0.3,0.1l-0.7,2.5L99.8,140.5z"/>
<path class="st1" d="M69.4,164c-0.5-1.4-0.2-2.2,0.9-2.5L69.4,164L69.4,164z"/>
<path class="st1" d="M129.6,177.6l-2.1-1.6l0.2-0.3l2.2,1.4L129.6,177.6z"/>
<path class="st1" d="M199.6,152.2l2.2-0.9l0.1,0.3c-0.7,0.4-1.2,1.2-2.1,1.1L199.6,152.2z"/>
<path class="st1" d="M194.2,151.2l-0.9,1.3c-0.6-1.1-0.5-1.6,0.5-1.6L194.2,151.2z"/>
<path class="st1" d="M90.4,150.2l-0.9,2.3C88.9,151.2,89,151,90.4,150.2z"/>
<path class="st1" d="M83.7,152.6l1-2.3C84.9,151.2,85.2,152.1,83.7,152.6z"/>
<path class="st1" d="M204,157.4h-2.4v-0.5l2.4,0.2V157.4z"/>
<path class="st1" d="M81.6,174.3l-0.9,1.9C80.1,174.9,80.3,174.4,81.6,174.3z"/>
<path class="st1" d="M120.5,138.7l-1.4,1.9l-0.4-0.2l1.3-2L120.5,138.7z"/>
<path class="st1" d="M91.1,147.6c0.3,1.1-0.4,1.2-1.3,1.3C90,148.1,90.1,147.4,91.1,147.6z"/>
<path class="st1" d="M182.9,147.6c-0.5,0.1-1,0.2-1.5,0.3c-0.1,0-0.2-0.4-0.3-0.6l1.6-0.4L182.9,147.6z"/>
<path class="st1" d="M159.2,145.3l2.4-0.9l0.1,0.4l-2.4,0.8L159.2,145.3z"/>
<path class="st1" d="M102.5,135l0.2,0.1l-1.1,2.4C101.2,136.4,101.8,135.7,102.5,135z"/>
<path class="st1" d="M102.7,132l-1.7,2.8l-0.3-0.2l1.7-2.8L102.7,132z"/>
<path class="st1" d="M166.2,154.2l-3-0.3C164.6,153.4,166.1,153.6,166.2,154.2z"/>
<path class="st1" d="M102.8,158.8l2.4-1.7l0.1,0.2l-2.2,1.9L102.8,158.8z"/>
<path class="st1" d="M189.3,166.2l-1.9-1l0.2-0.4l1.9,0.9L189.3,166.2z"/>
<path class="st1" d="M139.9,186l2.2,1.8l-0.3,0.4l-2-2L139.9,186z"/>
<path class="st1" d="M99.5,174h-1.7l-0.1-0.2c0.3-0.1,0.7-0.2,1-0.3c0.3-0.2,0.6-0.4,0.8-0.7L99.5,174z"/>
<path class="st1" d="M165.2,181.1l1.7,1.6C165.8,183.1,165.5,182.9,165.2,181.1z"/>
<path class="st1" d="M132,181.4l-1.4-1.9c1.4-0.1,1.2,1.1,1.8,1.6L132,181.4z"/>
<path class="st1" d="M166.4,178l-1.5-1.3l0.2-0.3l1.6,1.1L166.4,178z"/>
<path class="st1" d="M152.9,107.3l-0.2,0.2c-0.5-0.8-0.5-1.1,0.7-1.9L152.9,107.3z"/>
<path class="st1" d="M101.3,121l-0.3,2.2C100.2,122.3,100.6,121.7,101.3,121z"/>
<path class="st1" d="M161.5,124.7l1.7,0.2l-1.4,1.3L161.5,124.7z"/>
<path class="st1" d="M130.1,189.6l-1.4-1.6l0.4-0.4l1.3,1.6L130.1,189.6z"/>
<path class="st1" d="M148.5,187.5l1.7,1l-0.2,0.4l-1.8-0.8L148.5,187.5z"/>
<path class="st1" d="M104.5,141.2l0.5-2.1C105.7,140.1,105.4,140.7,104.5,141.2z"/>
<path class="st1" d="M186.2,175.2l-1.5-1.6l0.2-0.3l1.8,1.4L186.2,175.2z"/>
<path class="st1" d="M107.7,172.3l1.4,0.1l0.1,0.3c-0.3,0.2-0.6,0.6-0.8,0.6s-0.6-0.5-0.8-0.7L107.7,172.3z"/>
<path class="st1" d="M140.6,174.3l2.4,0.9C141.9,175.3,141,175.8,140.6,174.3z"/>
<path class="st1" d="M94.2,178.9l0.7,1.5l-0.4,0.2l-0.9-1.4L94.2,178.9z"/>
<path class="st1" d="M87.7,137.3l-1.4,2.4C86.2,138.7,86.9,137.4,87.7,137.3L87.7,137.3z"/>
<path class="st1" d="M107.1,145.3l-1.8,1.4l-0.3-0.3l1.7-1.5L107.1,145.3z"/>
<path class="st1" d="M139,146.9h-2.6v-0.3h2.6V146.9z"/>
<path class="st1" d="M156.5,190.6l-1.6-1.1l0.3-0.4l1.7,1L156.5,190.6z"/>
<path class="st1" d="M207.4,150l2.3-0.6l0.1,0.4l-2.3,0.6L207.4,150z"/>
<path class="st1" d="M144.6,193.9c0-1.3,0-1.3,1.8-1L144.6,193.9z"/>
<path class="st1" d="M175.9,185.7l1.3,1.6c-1.3,0-1.6-0.6-1.7-1.4L175.9,185.7z"/>
<path class="st1" d="M194.6,150.8h1.5l-1.1,1.5L194.6,150.8z"/>
<path class="st1" d="M131,169.9l-1.1-0.6c0.1-0.2,0.4-0.6,0.4-0.6c0.4,0.2,0.7,0.4,1.1,0.6L131,169.9z"/>
<path class="st1" d="M145,191.3c0.3-0.1,0.8-0.3,1-0.1s0.3,0.6,0.4,1l-0.2,0.2l-1.1-0.7L145,191.3z"/>
<path class="st1" d="M120.2,197.4c0.3,0.1,0.7,0.2,0.8,0.5c0.7,1.3,1.2,2.7,1.9,4.1C120.6,201.2,119.6,199.4,120.2,197.4
	L120.2,197.4z"/>
<path class="st0" d="M120.4,181.4l0.7-0.9l1.3,1.2l-0.1,0.3L120.4,181.4z"/>
</svg>
