<?xml version="1.0" encoding="utf-8"?>
<!-- Generator: Adobe Illustrator 22.0.1, SVG Export Plug-In . SVG Version: 6.00 Build 0)  -->
<svg version="1.1" id="Layer_1" xmlns="http://www.w3.org/2000/svg" xmlns:xlink="http://www.w3.org/1999/xlink" x="0px" y="0px"
	 viewBox="0 0 1920 1080" style="enable-background:new 0 0 1920 1080;" xml:space="preserve">
<style type="text/css">
	.st0{fill:#FFFFFF;}
	.st1{fill:#232323;}
</style>
<path class="st0" d="M326.5,259.2c0,0-18.9,18.6-34.6,27.7c-15.6,9.2-26.5,18.3-26.5,18.3L251.5,325l-35,14.4l-9.2,4.7l-18.3,27.7
	l3.4,22.4l-10.3,56.4l-42,115.4l-11.7,112.2l7.7,12.9l1.4,4.8l15.3,23.1l11.3,5.7l18.1,23.9l16.2,7.8l19.3,20.4
	c0,0,19.8,22.7,28.3,24.7c8.5,2,21.3,6.2,21.3,6.2l24.5,16.8l40.7,27.9l22.7,9.2l32.6,19.6c0,0,37.9,21.8,49.8,22.7
	s15.4,2.8,15.4,2.8h19l14.7,2.3l35.1-3.3l37.7,19.1l80.8,1.4l43.7-10.2l73.5,4.5l98.3-1.7l94.4-2.8l114.8-16.8l54.1-7.6l30.1-20.3
	l85.6-15l59.8,7.7c0,0,49.9,13.3,63.5,10.1c13.6-3.2,97.2,11,97.2,11l78-28.3l61.4-4.4l54.9,11.9l92.6,6.7l58.5-0.9l5.8-40.5
	l-4.5-37.8l-11-10.5l-14.7-6.3l-27.4-2.6l-21.9-19.2l-50.3-29.4l-33.2-4.8l-32.5,2.9l-14.2,7.6c0,0-10.1,7.2-11.1-0.6
	c0,0-29.5,5.2-33.1-0.8c-3.6-5.9-49.9-6.3-49.9-6.3s-60.1-6-90-25.6c-29.9-19.6-52.5-24.3-52.5-24.3l-66.9-39.2
	c0,0-59.5-42.5-62.6-47.8s-29.5-28.8-29.5-28.8l-16.4-26.3l-26.2-22.7l-15.1-16.5l-36.2-45.8l-11.8-6.9l-6.3-9.1l-13.2-10
	l-29.9-33.3l-12.9-8.4l-0.6-31.6l-19.9-34.1l-26.8-23.5L969.3,274l-41.1-16.8L905.5,234l-26.3-7.6l-71.3-10.1l-29.3-13.1l-24.1,2.2
	c0,0-46.7-4.2-63.2-14.8c-16.5-10.6-48.4-21.5-48.4-21.5s-11.9-3.9-16.2-9.5c-4.2-5.6-11.2-5.9-11.2-5.9l-61.8,1.7l-74.4,14
	l-28.2,8.7l-29.6,14.3l-41.4,8.1l-32.4,37.2l-8.1,13.2L326.5,259.2z"/>
<title>Artboard 1</title>
<path class="st1" d="M1822.9,828.4l-14.7,22.1c0.8,6.2,1.8,13.9,2.9,22.5l-10.4-3.2c-2.9,16.2-16.2,17.5-28.3,20.1
	c-5.2,1.1-10.7,1-16.1,1c-4.6,0-9.4,0.6-12-5.6c-1.2-2.8-6.6-3.6-9.2-6.3c-4.8-5-10.7-5.1-16.8-6.6c-6.8-1.8-12.4-0.3-18.3,0.5
	c-25.1,3.5-49.6-1-74.1-4.8s-49.2-7.9-74-2.1c-3.3,0.7-6.5,1.7-9.6,2.8c-1.4,0.5-2.4,2.1-3.6,3.2c1.3,1.3,2.5,3.4,4,3.7
	c3,0.6,6.2,0.2,9.3,0.3c4,0.2,8.1,0.5,12.1,0.8l0.5,3.1c-3,0.8-6.1,2.2-9.1,2.2c-4.2,0-8.4-1.4-12.6-1.7c-1.3-0.1-2.7,1.4-4.1,2.2
	c1.2,0.8,2.3,1.5,3.5,2.3c8.4,5.8,17.2,1.5,25.9,1.1c6.2-0.3,12.4,0,19.2-0.7l-14.7-4.5l-0.6-1.1c4-0.4,8.1-1.9,11.8-1.1
	c9.9,2.1,19.7,3.8,29.9,2.4c5.5-0.7,6.8,0.6,9.2,5.5l-22.4-1.8c-0.3,7.3,0.1,7.7,11.3,10.8l-21.9,8.7c-0.6-4.5-0.9-7.2-1.1-8.8
	l-22.7-3.5l-0.6,2.8l13.7,4.5c-6.8,0-12.2,0.3-17.5,0c-41.1-2.9-82.2-5.7-123.3-9.2c-12.4-1.1-24.8-3.8-36.9-6.8
	c-7.6-1.9-15.5-1.7-23.1,0.3c-3.1,0.8-7.4,1.6-9.6,0.1c-12.7-8.2-27.1-7-41-8c-15.8-1.2-31.7-1.5-46.7-7.9c-2.1-0.9-6.5-0.2-7.7,1.4
	c-3.1,4-6.7,3.9-10.8,3.5c-43.3-4.2-85.8,0.9-127.6,12.4c-5.6,1.5-11,3.6-16.2,6.4c-3.5,2-6,5.6-8.9,8.5c-0.1-0.2-0.6-1.6-1.2-3.1
	c-27.5,0.2-54,7.2-80.9,11.3c-29,4.4-58.1,8.5-87.3,10.2c-57,3.3-114.3,3.5-171.2,7.9c-20.5,1.6-39.9-1-59.8-3.2
	c-15.4-1.5-30.9-0.5-46,3c-31.7,7-63.8,9.3-96.1,4.5c-9.8-1.5-19.3-5.5-28.6-9.1c-22.9-8.8-35.6-10.2-55-4.6
	c-3.2-8.2-9.8-8.6-17.9-8.1c-24.7,1.4-47-6.7-68.2-19c-9.6-5.6-19.8-10.4-29.8-15.3c-7.1-3.5-13.2-7.5-18.6-13.8
	c-2.6-3-9.6-2.3-14.6-3.3c-1.8-0.3-4-0.1-5.4-1c-10.3-7.1-20.5-14.2-30.5-21.8c-7.5-5.6-14.4-12-21.7-17.8c-1.6-1.3-3.7-2.7-5.6-2.9
	c-16-1.9-29.5-8.8-40.9-19.9c-8.7-8.4-16.9-17.3-25.6-25.8c-4.1-4-8.4-8.6-13.4-11c-10.3-4.8-17.1-13.3-24.5-21
	c-3.1-3.2-5-7.6-7.7-12l-11.3-3.7l-10.8-24.6l1.5-1c2.7,3.5,5.6,6.9,8.2,10.6c4.5,6.5,8.9,12.9,17.6,14.5c1.4,0.3,2.8,2.6,3.6,4.3
	c5.4,12.2,14.4,20,27,24.6c4.1,1.5,7.9,5,10.7,8.4c5.8,7.1,10.8,14.9,16.4,22.1c7.8,9.9,17.1,17.7,29.9,20.3
	c15.4,3.1,27.7,11.8,39.7,21.5c11.6,9.4,23.9,18,36.1,26.7c1.7,1.2,4.4,2.3,6.2,1.8c7-1.9,12.2,1.5,17.5,4.8
	c13.4,8.5,26.6,17.4,40.2,25.6c14.9,9,30.8,15.4,48.5,16.2c7,0.3,13.7,2,17.7,9.1l2.1-1c-1-3.4-1.9-6.7-3.2-11.2l34.2,5.7
	c-0.2,0.8-0.9,3.1-1.7,5.9c9.7,0.7,17.3-3.1,25-7.4c7.7-4.3,15.4-8,23.2-11.8c1.3-0.6,3-0.4,4.8-0.6c0.2,3.9,0.5,7.4,0.7,11.2
	c8.6,0.3,8.5-5.7,8.4-12.1l12,4.1c-10.2,14.6-11.1,15.6-20.4,12.2c0.5,3.3,1,6.4,1.6,9.7c11.5-3.7,22.4-11.2,35.7-8.1l1.4-1.4
	c-1.5-2.1-3.1-4.1-4.8-6c-1.8-1.7-3.7-3.4-5.7-4.9l1-1.7h10.8c3.4,9,6.9,18.2,10.4,27.6c6.8-1.2,10.9-4.9,12-13.1
	c0.8-6.2,0.2-12.6,1.3-19.7c1.3,1.8,2.7,3.4,3.8,5.3c5,8.4,10,8.5,15.7,0.3c3.2-4.6,7-8.8,11.4-12.3c-3.7,7.4-7.4,14.7-1,21.5
	c1.6,1.7,7.4,0.3,10.8-1.1c5.2-2,10.2-5.1,7.8-12.5l1.5-1.1c1.6,1.4,4.1,2.6,4.6,4.3c1.3,5.1-3.9,10.2-13,13.2v18.6
	c9-3.4,11-10.8,12.2-18.5c9.6,1.6,10.7,1.2,29.8-11.2c-3.3-4.9-6.6-9.8-10-14.7c4.4-3.7,9.4-0.6,13.7,11.6c5.1-3.6,10-6.7,14.3-10.5
	c0.6-0.5-1.6-4.2-2.5-6.6c6.3-4,11.5,1.4,12.3,14.3c-4.9-4.4-9.6-4.2-14.3-0.1c-5.8,5.1-10.4,10.5-4.3,19c5.8,0.6,10.9-2.2,15.5-6.5
	c3.2-3.2,6.6-6.1,10.2-8.8c1.8-1.3,4.6-1.3,6.9-1.9l1.1,2l-11.2,9c3.7,3.4,7.2,3,9.7,0c3.7-4.4,7.4-9.1,9.7-14.2s5.3-5.9,9.3-3.4
	c3.7,2.2,7,5.3,11.4,8.8l22.1-20.4c-3.8,11.3-7,20.8-10.1,30.3l2.2,1.8l11.4-6.8c-5.2,11.3-17.4,14.3-23.5,23.3
	c12.4,0.7,31.1-9.6,35.2-20c2.1-5.3,1.8-11.5,3.7-16.9c1.7-4.8,5-9,7.7-13.5l2.9,1.3c-4.3,12.9-8.5,25.8-12.7,38.6
	c7,1.6,24.2-10.2,24.1-18.6c0-2.6-2.5-5.2-4.1-8.5l16.4-3.1c-3.5,7.7-7,15.5-10.5,23.2l2.3,1.7l8.6-5.1
	c1.8,10.2-11.1,11.1-12.5,20.9c5.6-1.9,10.3-3.4,14.8-5.2c1.8-0.7,3-2.8,4.7-3.7c11.3-5.6,10.7-14.9,7.9-25
	c-0.2-0.6-0.4-1.3-0.6-1.9s-0.2-1.3-0.4-2.6c6.4,2.9,10.3,0,13.8-5c-1.2,15.2-7.5,28.3-16.4,41.6c10-2.7,18.1-6.3,23.7-13.6
	c2-2.9,2.9-6.4,2.6-9.9c-0.4-3.9,0.7-5.6,4-7.2c3-1.3,5.5-3.5,8.2-5.4l1.8-3.4c2.3,3.5,4.3,7.3,7.2,10.3c4.6,4.8,8.2,3.7,10.1-2.7
	c0.4-1.3,0.4-2.8,1.1-3.9c1.2-1.9,2.7-4.8,4.2-4.8c1.8-0.1,3.9,2.2,5.6,3.6c2.6,2.2,5.1,4.6,8.9,8L909,915.4l28-15.7l1,1.6l-13,8.7
	c9.8,5.2,20.3-1,26.7-15.2c6.6,5.9,8.5,5.7,13.9-1.2c3.1-4,6.4-7.8,9.6-11.7l1.9,1.2l-12.5,21.8c12.4-1.5,13.9-4.1,16.9-26.9
	l6.5,9.1l5.2-6.6c0.8,13.6-11.5,18.1-17.8,28.2c3.9-0.9,7.1-0.9,9.4-2.4c6.7-4.4,13.4-8.9,19.3-14.4c7.5-7,7.2-9.1,2.5-18.2
	c-2.3-4.4-4.1-9-6.2-13.5l2.2-1.5l11.8,18.6c1.2-1.2,2.4-2.4,3.7-3.6c-4.2,11.8-3.6,15.2,3.2,17.8c-0.9,7.8-8,8.5-13.3,11.2l0.7,2.2
	l22.2-6.4l-2.5-5.7l0.8-1.6l7.6,4.5l3.7-4.9c0.9,3,1.6,5.4,2.7,9.5l24.9-17.5v-19.7l8.9,12.4c-1.6,3.3-4,8.2-6.9,14.2
	c7.6-4.6,17.4,2.7,23.7-6.7c-6.5-1-6.5-5-3.7-9.1c3.6-5.2,7.8-10,11.8-14.9l1.9,0.9v16c9.6-0.3,7.2-9.8,12.5-14.1
	c5.3,13.1-8.3,16.9-11.4,25.6c8.6-1,14.5-5.8,18.8-12.6c3.4-5.3,6.2-10.9,9.2-16.4c4.2-7.5,5.1-7.6,10.4-1.3
	c6.1-5.5-9.2-10.2,0.1-16.2l7.7,13.9c1.6-4.6,2.5-7.1,3.7-10.5c2.7,2.8,5,5.4,7.4,7.9c4.1,4.1,8.2,3.5,8.8-2.2
	c0.5-4.9-1.8-10.1-3-15.2c-0.4-1-1-1.8-1.7-2.6l1.6-1.6c1.2,1.7,2.2,3.6,3.7,5c1.8,1.5,3.8,2.8,5.8,4l3.7-6.3
	c6.6,2.5,2.1,8.5,3.2,13.9l10.2-2.8c-2.1-2.9-3.9-5.2-5.7-7.7l15.3-4.6c-0.4,3.6-0.9,8.6-1.6,15.3c4.4-1.7,9-2.9,12.9-5.3
	c4.2-2.6,7.5-3,11.7-0.4c5.2,3.1,7.7,1.9,8.8-4.1c0.6-3.3,0.6-6.8,2.5-10.2v15c5.3,2.4,10.8,5.5,16.6,7.6c8.9,3.2,11.6,2.2,17-5.2
	c0.9,1.2,0,5.5-2.7,12.8c13.5,2.3,15.2,1.7,18-8c3.5,2.9,6.7,5.5,9.9,8.2c6.1,5.1,8.3,4.8,13.4-2.6l5.9,11.5
	c18.7-7.2,36.7,2.1,55.4,4.1c1.3,0.1,2.7,0.7,4,0.5c9.1-1.8,18.2-0.6,27.3-1c2.5-0.1,4.9-2.8,7.7-4.6c0.4,0.9,1,2.6,2,5
	c3.7-1.7,7-3.5,10.5-4.8c3.3-1.2,6.8-2.8,10.2-2.8c9.8,0.2,9.8,0.4,11.9-8.5l11.1,8.8l-6,2.4c4.2,5.1,8,5.7,10.3,0.7
	c2.5-5.1,4.3-11.6,3.3-16.9c-0.5-2.7-7.9-4.1-12.3-5.9c-1.1-0.5-2.5-0.3-4.2-0.4l6.4-9.4l-1.7-2.2l-22.1,8c-0.4-2.3-0.7-4.2-1.1-6.4
	c-11.7,8.1-24.1-0.2-37.5,2.2c5.7-14.9,23.8-13.6,29.2-26.2c6.3,2.2,7.8,17.7,18.5,5c4.2,8.7-8.7,9.5-6.1,16.8
	c6.2,1.6,10-2.5,13.8-6.5c4.1-4.4,8.4-8.1,15.4-6.5c-1.5,4.3-2.9,8.3-4.7,13.6c18-1.9,17.6-19.3,27.2-28.2
	c0.9,8.2-0.6,14.5-5.9,18.3c2.2,4.7,3.9,9.3,6.4,13.4c1.5,2.1,3.8,3.5,6.3,4.1c2.2,0.5,4.8-0.5,7.9,0.2l-7.7,5.2
	c3,5.8,6.3,6.4,13.8,1.6c-3-7-6-14.1-9.6-22.7l12.9-5c-3.3,12.4-0.4,20.9,8.3,27.2c7.3-4.1,7.6-7.8,1.4-21.8
	c5.8-1.5,7.8-0.6,9.2,4.7c0.8,3,1,6.2,1.8,9.2c1.2,4.8,4.6,6.5,9.2,5.4s5.2-4.4,4.4-8.3c-0.5-2.6-1.2-5.2-2.3-10.1
	c6.9,3.7,12.4,6.5,17.8,9.7c7.8,4.7,8.7,4.3,9.9-4.5c0.2-1.4,1.6-2.7,2.5-4c1.5,1,3.5,1.7,4.4,3.1s0.8,3.4,1.6,6.8l35.6-15.4
	l1.2,1.8l-27.7,19.7l1.1,2.4c12.9-5,26-9.4,38.5-15.1c8.1-3.7,9.8-9,10.1-20.5l42.8-8c3.1,7.7-5.2,10-7.9,15.2
	c8.3-0.9,12.9-4,22.6-15.2c4.4,5.4,4.3,9.7-1.3,13c-4.8,2.9-10,5-15.3,6.5c-10,2.6-18.7,7.1-25.8,14.7c-2.9,3.1-6.2,5.8-9.8,8.1
	c-2.1,1.3-5,1.4-7.6,2c-0.3-0.7-0.6-1.4-0.9-2.2l22.7-15.8c-5-6.7-10.4-8.2-17-3.8c-5.4,3.6-10,8.2-15,12.3
	c-3.3,2.7-6.6,5.3-10.2,8.2c19.9,13.5,36.2,2.4,53.4-6.8c-2.4,2.6-4.8,5.2-7.3,7.7c-2.8,2.6-5.8,4.9-8.9,7.5
	c6.3,5.4,11.6,2.7,16.7-0.8c5.4-3.7,10.7-7.6,16.1-11.4l2,2.4l-11.2,9.7c3,7,4.4,7.5,10.4,3.5c1.2-0.7,2.2-1.5,3.1-2.6
	c7.3-10.2,16.9-10,27.4-6.3c13.1,4.6,26.1,9.2,39.3,13.5c12.8,4.4,26.8,3.8,39.2-1.8c-2.4-3.2-4.6-6.1-6.8-9c-3.8-5-3.9-10.2-1-15.7
	c3.7-6.8,7.2-13.6,10.8-20.4l-2.1-2.1c-5.5,4.1-11.4,7.9-16.6,12.4c-7,6.2-14.3,11.3-25.9,11.2c1.6-3.3,2.8-5.8,3.9-8.1l-16.8-1.2
	c1-9.1,2.3-19.6,3.6-31.3c1.8,2.7,3.6,5.5,5.4,8.3h2.2l2.4-6.2l2.4,1.3v11.3l6.4,5.2c5.5-10,3.3-20.8,3.7-31.1
	c9.6-0.3,13.5,2,16.1,10l-4.2-2c0.3,9.7,5.8,12.9,18.8,11.2c0.7-14-7.3-24-22-26c-8.7-1-17.4-1.3-26.1-1
	c-15.8,0.4-31.6,2.6-47.4-1.4c-3.8-1-9.4,1.3-13,3.7c-9.2,6-18.9,8.3-29.8,8.3c-21.6,0.1-42.8-2.1-63.7-8.3
	c-4.3-1.3-9.7,1.4-14.6,2.3c-2,0.4-4.3,1.4-6.1,0.9c-21.5-6-43.1-12-64.4-18.5c-14.1-4.3-27.7-10.1-38.2-21.6
	c13.3-4.6,24.8,1.9,36.7,5.1c13.6,3.6,26.8,9,41.3,7.3c1.5-0.2,3.8-0.2,4.5,0.7c4.8,6,10.6,3.1,16.3,2.5c8.5-0.9,16.5,0.7,22.8,8.8
	l5.9-7.8l16.7,12.1c11.1-5.1,14.3-11.1,12.8-25.4l42,13.3c-2.2-9.3-8.2-16.1-16-21.7l1.3-1.9c4.2,2,8.4,4.1,12.6,6.1
	c3.8,1.8,3.8,1.9,4-3l9.5,3.8c-5-11-17.7-18.6-31.7-19.7c-14.7-1.1-29,0.8-43.2,4.5c-4.4,1.2-7.4,2.7-3.5,8.2l-11.1,0.7
	c-0.3-0.8-0.8-1.4-0.7-1.5c4-3.8,7.5-9.5,12.4-11.1c27.8-8.9,55.3-5.2,82.3,4.3c25,8.8,47.9,22.8,67.1,41.1c1.6,1.5,4.1,2.9,6.2,2.9
	c27.6-0.2,53.9,18.3,62.7,44.2c0.4,0.8,0.8,1.5,1.3,2.2V828.4z M915.8,888c-13.6,7.3-25.8,13.1-35.2,26
	C896.5,910.1,909.1,904.7,915.8,888z M630.7,893.9c-15,0.7-16.4,13.9-22.9,22.9c7.8,2,10.5-3,13.1-7.7c2.2-3.9,4.4-7.5,9.8-4.4
	V893.9z M1799.6,854.2c-2.8-8.7,5.9-16.2,0.8-24.8c-3.6,2.5-6.6,4.4-9.3,6.7c-3.8,3.3-4.5,8.8-1.6,11S1795.5,851.3,1799.6,854.2
	L1799.6,854.2z M1681.2,863.7c12.4,2.6,23.8,1.2,33.6-7.5C1702.3,853,1691.6,858,1681.2,863.7L1681.2,863.7z M1692,753.8
	c9.1,5.5,14.8,16.7,29,17C1713.3,759.7,1702.5,757,1692,753.8z M715.6,910.7c14.6-3.8,29-5.3,35.2-20.7L715.6,910.7z M1469,863.7
	c7.5,1.2,9.6-0.7,13.1-11.9l-10.6-2.8c-0.3,3.3-0.4,5.5-0.8,7.6C1470.3,859.1,1469.6,861.4,1469,863.7L1469,863.7z M1402.4,827.5
	c9.2,6.6,16.8,4.7,20.6-3.8L1402.4,827.5z M766.3,886.8c-1.5,6.9-10.7,7.6-8.3,15.5C767.3,900.3,770.4,895.7,766.3,886.8z
	 M895.8,890.4L884,887c-0.5,5.7-1,10.1,5,12L895.8,890.4z M1684.7,760.3l-1.8,1.3c-0.7,3.7-1.5,7.5-2.4,11.8l12.4-4.4L1684.7,760.3z
	 M1143.9,871c-6.3-2.2-10-1.3-12.8,2.5c-0.5,0.9-0.7,2-0.4,3c0.1,0.6,1.5,1.5,1.8,1.4C1135.9,876,1139.2,873.9,1143.9,871z
	 M1593.9,850l0.8,2.1l12.9-1.6c-2.3-1.8-4-4.3-5.2-4.1C1599.4,847,1596.7,848.7,1593.9,850L1593.9,850z M1477.7,879.2
	c4.6,6.4,8.3,7,12.7,3.6L1477.7,879.2z"/>
<path class="st1" d="M192.5,394.1c-11-18.1-5.3-37.8,14.8-50.1c-1.8,6.8-3.5,13.4-5.4,19.9c-2.3,8.2-3.3,8.9-12.9,7.8l4.6,11.5
	c5.4-6.7,7.8-7,14.2-2.3c2.5,1.8,4.9,3.9,7,6.2c9.8,11,15.8,5.6,25.2,1.5c8.4-3.7,18.1-4.5,27.5-5.4c-11.8,5.7-26.6,3.1-36.1,16.3
	l14.2,1c-3.8,5.4-9.1,5.4-14.2,5.4c-4.9,0.1-9.3-0.6-11.8,5.7c-1.3,3.1-6.2,4.8-9.4,7.2c-1.9,1.5-3.7,3.1-5.9,5.1
	c3.8,2.8,7.1,5.3,10.7,8c1.3-1.5,2.4-2.7,3.5-3.9l16.3,13.7l-0.5,2.1c-14.6-0.2-18,9.8-20.8,20.8c-2,7.9-2.9,16.4-9.6,22.5
	c-1,0.9-0.5,4.1,0.1,5.9c3.6,10.5,5.2,21.2,3.8,32.7c-8.1-0.9-10.2,4.5-11.6,11c3.1,1.9,9.1-5.7,9.4,3.1
	c11.1-6.4,15.1-4.6,25.1,11.5c1.9-0.8,4-2.5,5.8-2.1c14.7,2.8,26-4.7,35.5-13.7c6.6-6.3,13-6.3,20.3-5.7c-0.7,9.2-1.3,18-2.2,26.8
	c-0.6,6.3,2.6,9.5,8.2,11.3c2.3,0.7,4.6,1.7,6.9,2.7c5.7,2.7,7.7,7.1,5.4,13.6l-6-3.7c-2.4,5.1-0.6,21.4,3.1,23.7
	c2,1.3,5.5,0.7,8.3,0.3c5.7-0.7,11.3-1.8,18.7-3c-1.7,6.2-2.6,10.7-4.2,15c-2.9,7.7-6.2,15.3-9.2,23c-2.6,6.5-8.5,8.4-14.5,4.4
	c-2.6-1.7-5-3.7-7.4-5.5l-2,0.6c0.2,4.1,0.4,8.1,0.6,10.9c-5.9-1-12.3-1.9-18.6-3.2c-1.7-0.3-4.2-1.2-4.7-2.5
	c-4.4-11.1-13.5-17.6-23.1-23.6c-4.6-2.8-9-5.8-13.7-8.8c-4.4,6.4-8.7,12.6-12.8,19c-1.2,2.1-2.3,4.4-3,6.7
	c-0.9,2.5-1.1,6.9-2.5,7.3c-4.3,1.2-9.6,2.3-13.5,0.8c-4.9-1.9-9.1-6.2-13.2-9.8c-4.7-4.1-8.9-8.8-13.8-12.7
	c-1.6-1.3-4.5-1.2-6.8-1.7c-0.4,2.3-1.4,4.7-1,6.9c1,5.3,2.2,10.5,3.8,15.6c1.7,5.8-0.3,8.1-7,8.3l34,26.2c2.6-4.8,1.5-8.8-2-12.1
	c-3.1-2.9-6.5-5.5-9.8-8.2l1.8-2.3c3.1,2,7,3.4,9.2,6.1c5.9,7.3,11,15.2,16.4,22.8c5.2,7.2,9.9,15,15.9,21.5
	c8.6,9.4,19.7,11.4,32.6,8c-13.5-16.8-33.8-27.3-40.2-49.2c13.2-2,18.6,0.7,25.6,12.5c0.7,1.2,2.3,1.9,3.6,2.6
	c13.1,6.7,26.6,12.6,39.2,20.1c16.5,9.9,32.7,19.7,51.3,25.9c7.9,2.6,15.1,8.5,24,9.9c0.9,0.2,1.7,0.5,2.5,0.8
	c5.8,1.8,9,5.5,8.6,12.1c-8.7,2.8-13.3-4.9-20.2-7.5c0.2,8.3,4.5,13.3,11.7,15.6c7,2.2,14.5,3.2,21.3,5.7c4.6,1.7,8.4,5.4,12.6,8.1
	c1.7,1.1,3.7,2.3,5.6,2.5c20.9,2.4,40.2,8.7,56.2,23c2,1.8,3.9,3.7,5.8,5.6c10.7,11.5,11.2,14.3,4.4,27.9c-0.8,1.2-2.1,2.1-3.6,2.2
	c-9,0.5-14.8,5.6-19.5,12.7c-0.7,1.1-1.5,2.2-2.3,3.3c-8.3,12.1-8.7,12.1-22.8,6.5c-2.8-1.1-6.2-2.1-9-1.6c-30.2,5.8-56.7-3-80.6-21
	c-10.9-8.2-21.1-17.4-31.8-25.9c-2.8-2.2-5.9-3.8-9.3-4.8c-13.6-3.7-27.3-6.8-40.9-10.6c-14.1-4-25.3-12.3-33.8-24.1
	c-6.1-8.5-12-17.3-17.6-26.2c-7.4-11.6-16.6-21-29.5-26.4c-4.9-2-9.3-5.1-14.3-7.9l3.3-5.7c-0.6-0.7-0.9-1.5-1.4-1.7
	c-9.2-2.5-14-9.5-18.5-17.2c-4.4-7.4-8.7-7.9-15.5-2.6l6.8,9.9l-2,2c-3.3-3.1-7.9-5.6-9.5-9.4c-4.3-10.5-7.2-21.5-10.9-32.2
	c-1.6-4.6-3-9.4-5.5-13.4c-13.8-21.9-12.4-50.1,3.4-70.5c1.6-2.1,3.1-5.1,3-7.6c-0.4-10.3,2.7-19.4,8.1-27.9
	c7.2-11.5,14.3-22.9,12.6-37.3c9.2-20.1,14.5-42.9,37.8-53.1c1.6-0.7,2.8-3.4,3.2-5.4c0.5-2.6,0-5.4,0.1-8
	C179.2,410.2,181.6,404.8,192.5,394.1z M204.1,403.3c-17.6,4.2-20.5,18.3-17.9,31.4c1.3,6.4,0.4,11.1-4,15.8
	c-1.6,1.7-1.9,4.7-3.2,8.4l14.2-7.1c-4.5-25.1-4.4-26.3,4.4-31.5c-1.4,4.8-2.3,8.1-3.3,11.5l1.1,0.4l19.5-28.1
	c-7-2.3-8.3,1.9-10.1,5.5c-2.7,5.3-3.3,5.6-7.9,4L204.1,403.3z M149.6,507.3c7.9,0.1,15.2-10.9,14.2-23.6
	c-1.6,7.6-5.1,10.3-10.4,9.1C152.1,498,150.8,502.7,149.6,507.3L149.6,507.3z M169.8,477.9c7.5-6.3,17.5-10.2,20.5-20.5
	C184.5,465.4,171.1,465.9,169.8,477.9L169.8,477.9z M457,811.4l-13.2-5.2l-1,1.5c5.2,3.5,4.9,12.6,14.1,12.3L457,811.4z
	 M292.7,788.2l-11.2-14.6c-2.8,3.9-2.5,8,0.4,11.8C284.5,788.9,287.7,790.9,292.7,788.2z M303.8,786.7l1.9-1.6l-11.7-12.6
	C292.8,781.7,294,783.2,303.8,786.7z M214,442.5l0.4,1.7l-11.7,6.7l1.4,1.8c2.4-0.8,5.4-1.1,6.9-2.7C212.6,448.1,213,445,214,442.5z
	 M218.6,551.2l3.6,5.1c1.3-1.5,3.6-3.2,3.5-4.6c-0.1-1.8-2.3-3.5-3.6-5.2L218.6,551.2z M312.7,638.1c2.5-2.8,4.6-4.9,6.4-7.3
	c0.4-0.9,0.4-1.9,0-2.8c-0.5-0.7-1.3-1.1-2.1-1.1C313.5,626.9,310.5,633.5,312.7,638.1L312.7,638.1z M429.4,832.4
	c2.9-4.5-0.1-6.8-3-7.8c-1.8-0.7-4.5,1-6.7,1.6c1.3,1.7,3,2.9,5,3.7C426.2,830.6,427.7,831.5,429.4,832.4z M246.2,758l2.4,1.4
	c1.4-1.9,3.8-3.8,3.8-5.6s-2.6-3.6-4.1-5.3c-1.8,2.2-2,3.2-2.1,4.3C246.1,754.6,246.2,756.3,246.2,758z M284.5,760.1
	c2.2,2.2,4.4,4.3,6.8,6.2c0.8,0.6,2.4,0.4,3.4,0.1c0.5-0.1,1-1.5,0.9-2.2C295.2,760.8,289.1,758.2,284.5,760.1L284.5,760.1z
	 M204.7,506.1c1-6.9-2.9-8.1-7.8-8.8C195.1,503.8,199.6,504.5,204.7,506.1z M353.4,801.3l-9.8-7.4v9.1L353.4,801.3z M437.7,852.3
	c-0.8-4.1-1.4-7.6-2.4-12.8C430.3,847.6,430.7,849.3,437.7,852.3L437.7,852.3z M285.5,629.3l1-1.6c-5.8-7.6-7.1-8.2-10.6-4.2
	L285.5,629.3z"/>
<path class="st1" d="M663.7,584.8l-13.1,2.8l30.7-51.1c-7.9-8.3-14-7.8-18.5,0.8c-0.6-0.3-1.1-0.7-1.6-1.1c-10.1-10-11-9.7-15.8,3.5
	c-2.1,5.3-4.8,10.3-8,15c-2.2-8.2,6.3-16.7-2.9-24.8c6.7,0.7,9.5-1.8,8.7-7.8c15.1,7.4,20.2,7,24-1.5c7.8,4.2,14.3,4,15.8-0.8
	c0.7-2.3-0.9-5.2-1.4-7.9l-2.4-0.1l5.6-5.2c1.4,6,10.4,9.8,3.4,17.1c7.2,4.1,13.9,2.8,28.6-5.7c8.1,9.3-3.9,13.2-5.5,20.1
	c6.4,2.6,11-0.8,14.8-4.8c6.8-7,13-14.6,19.8-22.5l-7.6-3.4l17.4-8.6l1.1,1.1l-17.6,25.3c5.3-0.5,9.4,0.1,12.3-1.5
	c3.5-2,6.3-5.6,8.8-9c2.3-3.1,3.8-6.8,6.6-11.9c-0.5,10.4-5.3,16.4-11.2,21.6c-3.8,3.2-7.7,6.1-11.8,8.8c-1,0.7-2.6,1.3-3.5,1
	c-9-3.3-13.7-1.3-19.3,9.6l10.6,1.5v0.4c-8.7,0-17.4-0.4-26.1,0.1c-10.7,0.6-15.2,7.9-11.8,18.4l20.9-12.1l2.1,2.5
	c-3.7,4.1-7.3,8.4-11.2,12.3c-5.6,5.7-11.4,11.2-17.6,16.2c-1.8,1.5-6,1.6-8.3,0.5c-5.5-2.6-8.5-0.3-11.1,3.9
	c-2.5,4-4.6,8.1-6.9,12.2c6.5,5.6,12,3.5,20.7-8.3c0.5,0.4,1.1,0.7,1.4,1.2c4.6,8.1,10.2,8.9,16.4,1.2c3.8-4.7,5.7-10.8,8.6-16.7
	c6.3,4.8,12.7,2.5,19.3-1.1c2-1.1,4.5-1.2,6.8-1.8c0.3,2.2,0.5,4.5,0.8,7.2c5.8,1.2,7.7-2.6,8.8-7.5c1-4.3,2.2-8.5,3.4-13.1
	c-2.9-4.7-6.3-2.6-10.1-0.6c-2.8,1.4-5.9,2.2-9,2.3c4.4-10.8,20.1-2.2,24.6-15.6c1.1,2.3,2.3,4.6,3.8,7.8c6.6,0.8,11-3.5,14.2-15.8
	c-7.2-1.9-9.3-0.6-13.3,6.9c0.2-1.9,0.6-3.7,1-5.5c0.6-2.1,1.6-4.1,2.1-5.5l17.8-1.3c-1.8,8.8,6.5,6.5,11.7,8.8
	c-3,1.5-5.6,2.8-8.2,4c-5.8,2.8-10.6,4.5-9.3,13.8c0.9,6.7-4.6,14.2-7.4,21.8c10.9,1.2,13.4-8.6,17.5-15.8c3,1.8,5.8,4.6,8.8,4.8
	c3.3,0.3,6.9-1.4,10-3c5.4-2.8,10.2-6.5,15.7-9.1c4.7-2.3,9.8-3.5,15.6-5.5c2-7.9,1.1-14.8-2.8-17.7c3.4-5.8,10-6.2,18.4-1.1
	c7.5,4.6,8.8,9.2,4.4,16.6c6.7-0.9,14.7-6.1,17.3-11.4c0.5-1,0.7-2.8,0.1-3.4s-2.4-0.8-3.4-0.4c-2.8,0.9-5.5,2.2-9.9,4
	c3.5-7.3,3.4-11.6-5.1-11.3c3.9-5.7,8.6-5.9,12.7-3.2c4.6,3,9.2,6.6,12.4,11c3.8,5.3,7.3,4.9,11.8,2c3-2,5.8-4.1,9.6-6.8L888,520.3
	c0.6,3.7,0.9,6.1,1.5,10.1l-17.7-5.5c-0.2-0.8-0.5-1.6-0.7-2.5c3.9-4.1,7.5-8.5,11.8-12.2c6.1-5.2,11.6-10.5,12.4-19.1
	c0.1-1,2.1-1.9,3.2-2.8c0.2,1.5,1,3.1,0.6,4.3c-0.8,2.2-2.4,4.2-3.7,6.4c7.5,2,7.5,2,14.3-9.2c2.8,0.9,5.7,2,8.5,2.8
	c4.1,1.2,7,0.1,10.5-3c9.8-8.9,22.6-8.4,35.1-9.9c-7.2,12.1-8.9,13.6-16.6,13.6c3.7,5.5-9.4,8.4-1.4,14.8l58.1-31.9
	c0.5,0.8,1,1.6,1.5,2.5c-3.7,2.4-7.2,5.7-11.3,7.1c-15.4,5.5-26.6,16.2-37.2,27.9c-8.6,9.5-17.3,18.8-26.2,28
	c-15.5,15.9-34.6,20.6-56.1,17.2c-11.4-1.8-21.7-0.3-31.2,6.6c-7.5,5.4-16.2,7.2-25.4,7.5c-8.2,0.3-9.6,1.6-11.4,8.1
	c-8.9,2.1-17.3,4.2-25.8,6.1s-16.8,3.5-25.5,5.2c-0.7-12.8,3.3-21.3,12.4-27.8c-6.2-5.2-10.3-5-14.5,1.8c-3.7,6.1-6.3,12.8-9.7,19.1
	c-2.6,4.9-5.5,9.5-8.4,14.5c-8.8-7.9-12.9-7.3-23.3,3.1v-13.8l-1.6-1.2c-8.6,20.8-27.7,18.2-44.2,21.1c-8.5,1.5-16.4,4.2-23.2,11.5
	c10.9,3.8,20.8,9.5,31.5,1c1.1-0.9,3.4-0.6,5.1-0.4c26.3,2.9,51.8-1,76.9-8.5c1.7-0.5,4.1-1,4.7-2.2c4.7-10.4,14-9.2,22.4-8.4
	c9.8,0.9,19.3,3.4,29,5c10.5,1.7,21,1.9,30.8-3.2l1,1.6c-1.9,1.2-3.8,3.4-5.8,3.6c-13.8,1.2-27.7,2-41.5,2.8
	c-13.2,0.7-26.5,0.8-37.7,9.5c-1.2,0.9-3.4,1.9-4.3,1.4c-7-3.8-10,3.2-14.9,5c-11.4,4.2-23.1,7.9-34.9,10.9
	c-8.2,2.1-16.8,2.7-25.1,4.4c-1.9,0.4-3.5,2.5-5.3,3.8c1.5,1.7,2.8,4.3,4.6,4.9c4.9,1.5,9.2,2.8,8.2,7.1c3.1,3,5,5.5,7.4,7
	s5.4,2.8,7.9,2.5c12.4-1.6,24.7-3.8,37.1-5.8c2.2-0.3,4.3-0.5,8-1c-8,8.2-17.1,10.4-26.2,11.6c-34.4,4.6-68.8,8.8-103.2,13
	c-4.6,0.6-9.4,0-14.1-0.1c-4-0.1-7.6-0.6-5.2-7.9c-13.4,3.1-25.3,5.8-37.2,8.6c-12.6,2.9-25.2,5.2-36.8-4.1c-4.2,5.8-9.3,5-15.1,3.3
	c-7.2-2.2-14.5-3.6-22.8-5.6l10.4-1.7c-2.4-6.9-5.9-8.7-14.6-8.3c-4.9,0.3-9.8,0.2-14.6-0.4c-4.5-0.7-7.7-3.1-6.6-8.9
	c0.2-1.4-2.5-4.4-4.2-4.8c-3.4-0.8-7.1-0.2-11.2-0.2c1.7-7.1-2.4-10.7-7.5-12.8c-9-3.6-17.9-8.8-28.1-3.2c-0.6,0.3-1.7-0.2-2.5-0.5
	c-9.4-3.5-18.8-6.8-28.1-10.5c-3.9-1.5-7.3-3.8-10.1-6.8l7.4,1.4c-0.2-6.9-6.5-6.3-10.1-8.8c6.5-5,6-8.5-1.6-12.1
	c-4.6-2.2-9.8-3.8-7.5-12.6l6.1,9.1c10.2-9-0.9-21,4.6-31.1c-6.8-1.6-10.9,0.3-12.3,7.4c-4.9-7,0.4-16.7-7.7-23
	c-6,10.9-9,21.3-3.8,32.9c-4.9,4.3-7.2,0.5-7.5-3.3c-0.7-6.2-0.4-12.5,0.8-18.6c1.1-4.9-0.1-7-4.3-8.6c-4-1.5-7.9-3.2-11.9-4.5
	c-5.9-1.8-6.9-5.7-5.2-11c0.5-1.7,1.2-3.4,1.9-5c6.1-15.3-0.9-26.2-17.6-27.5c-13.6-1.1-19.9,1.2-29.7,10.6c-6.7-2-4.5-6.8-3.2-11.5
	c-7.2-1.4-10.6,3.5-14,8.4L253,513c1.4-2.2,2.7-4.4,3.9-6.8c1.3-3,2.3-6.2,3.4-9.3c-3.4,1-7.4,1.3-10,3.3c-3.2,2.5-5.2,6.5-7.6,9.6
	c-1.9-3.2-1.6-3.1,3.5-11c2.2-3.5,3.2-7.8,3.8-12.2c-10.3,3.7-13.6,13.9-21.7,22c2.7-17.8,18.7-25.8,23.8-41.4
	c-9.3,1.6-13.8,8.8-19.9,13.8c3.2-16,26.2-27.8,40.8-19.6l-16.5,0.9c-0.3,8.2,3.5,12.9,12,14.9c5,1.2,10,2.4,15,3.6s7.2,4.2,4.5,10
	l10.2,0.5c-0.7,10.1,1.4,11.9,13.9,11.2c2.3-4.8-11.3-11.2,1.5-14.9c-4.2-9.8-9.2-19.6,0.5-29c10.3,9.7,13.9,20.4,8.6,28.7
	c2.8,1.3,5.5,3.5,8,3.3c1.8-0.1,4.5-3.6,4.6-5.6c0.3-5.9-0.1-11.8-1-17.6c-0.8-5-2.5-10-3.8-14.9l2.1-0.7c2.6,5.1,5.1,10.2,7.9,15.2
	c2.6,4.6,5,9.8,8.8,13.3c3.3,3,8.5,3.9,12.7,5.8c1.5,0.8,2.9,1.7,4.3,2.7c-0.2,1-0.4,1.9-0.6,2.9l16-5.7l1.5,0.9
	c-1.3,2.3-2.2,5.2-4.1,6.8c-3.5,3-8.1,4.9-11.5,8.1c-1.5,1.4-1.3,4.7-1.8,7.2c2.2,0.4,4.9,1.7,6.5,1c7.7-3.5,15.3-7.4,22.8-11.4
	c9.4-5,18.9-9.4,30-7.7c1.2,0.2,2.3,0.9,2.8,1.9l-5.9,1.8c7.2,5.8,24.2,4.5,38.9-3.7c7.2-4,14-8.6,14.4-20.4l-11.9,7.2
	c-1.3-6.7,1.7-11.8,6.7-15.5c11-8.2,23.4-10.7,36.8-7.3c4.5,1.1,4.8,2.3,3.4,13.1c-5.8,0.5-11.7,0.9-17.6,1.7
	c-1.9,0.3-3.7,1.9-5.5,2.9c1.3,1.5,2.6,3,3.9,4.5c1,1,1.9,2.2,2.5,3.4c0.1,0.3-1.2,1.7-2.1,2c-6.9,2.1-6.9,2.1-7.7,9
	c-12.1,1.9-24.3,4.1-34.3,12.1l0.6,2.3l10.4-3c-1,8.9-6.6,12.8-13.4,14.7c-9.6,2.7-19.5,4.4-31,6.8l7.3,2.7c0.1,0.5,0.2,1,0.3,1.5
	c-4.3,0.7-8.7,1.7-13,2c-3.6,0.1-7.2-0.1-10.7-0.7c-4.1-0.5-5.9,1.2-7.1,5.1c-1,3-3.8,5.5-5.8,8.2l-1.5-0.9c0.3,0.5,0.5,1.1,0.7,1.7
	c1.1,7.7,4.1,13.8,9.7,19.9c4.1,4.5,3.5,13.1,5.1,19.9l-2.1,1.7l-11-2.1c0.7,14,15.1,13.8,22.9,22.4c-0.6-3.2-1-5-1.6-8.1
	c9.7,8.2,16.2,19.9,31.5,17.2c-1.9-2.6-3.2-4.4-5.5-7.5c3.3,1.1,5.5,1.5,7.3,2.6c2.4,1.6,4.8,3.3,7,5.2c6.5,5,13.3,8.7,22.5,1.2
	v12.8l19.4-6c6.9,8.7,14.6,8.6,23.9-2.3l2.4,9.4c11.3-1.4,23.2-1.9,34.6-4.4c27.5-6,54.8-13.1,82.2-19.5c5.2-1.1,10.4-2,15.7-2.6
	c5.1-0.7,8.8-2.4,9.4-8.4C659.7,592.5,661.5,590,663.7,584.8z M544.7,654.1c-1.7-2.4-2.7-5.1-4.3-5.6c-1.4-0.5-3.9,1.1-5.5,2.2
	c-3.1,2.3-4.9,7.2-10.4,3.4c-3.6-2.5-8.2-5.5-12.2-5.4c-10.9,0.5-21.6,2.5-33.1,4c3.4,4,11.7-0.1,10.5,9l-21.1-4.1
	c7.6,10,27.5,12,40.1,5.8c-4-3.2-12.7-0.6-12.5-8.8c7.9,0.5,15.2,0.9,22.5,1.4c4.9,0.3,9.2,1.5,9.4,7.6c-4.9,2.7-9.3-6.1-14.3,0.3
	c8.6,10,21.4,2.5,31.4,9c-1.8-10.3,5.2-7.6,10.3-8.6c-1.8-1.5-3.9-2.5-6.2-2.9c-2.9-0.3-5.8,0.5-8.7,0.2c-2.1-0.3-4.1-1.7-6.1-2.6
	c1.7-1.3,3.4-2.4,5.2-3.5C540.5,654.9,541.9,654.8,544.7,654.1L544.7,654.1z M707,530.3c-8.7-3.1-16.6-1.5-20.2,5.5
	c-5.7,10.8-9.9,22.4-15,34.4c12.6-1.7,15.6-7,12.8-20.2c3.9-2.8,8.1-5.3,11.8-8.5S703.3,534.2,707,530.3z M566.7,647.2
	c11.3,11.8,30.4,12.6,40.7,2.6c0.7-2.6,1.5-5.3,2.7-9.7C596.5,648.5,582.9,651.6,566.7,647.2z M405.5,505.4
	c10.9,7.3,19.7,7.6,24.5,1.1c-4.1-1.2-8.3-2.4-12.4-3.7C413,501.2,408.6,500,405.5,505.4z M662.8,668.7c-8.8-9.5-24-11.3-31.4-5.4
	L662.8,668.7z M674.8,575.8l-1.1-2c-10-1.3-13.4,0.8-12.4,9.4L674.8,575.8z M451.7,648.7c13.6,5.7,13.6,5.7,17.2,0.7
	C462.9,651.3,458.5,640.8,451.7,648.7L451.7,648.7z"/>
<path class="st1" d="M617.4,240.3c-0.5-6.8-1.1-14-1.8-22.4c12.6-0.2,24.3-1.2,33.9,4.5c0.3,4.4,0.6,7.6,0.9,10.9
	c0.2,1.8,1.4,4,0.6,5.1c-4.2,6.4,1.1,8.7,5,10.2c5.9,2.4,12.4,3.6,18.6,5.2c1.5,0.4,3.3,0.2,4.5,1c8.8,5.6,16.5,1.7,24.9-1.6
	c12.5-4.9,25.3-8.8,38.4-11.7c17.8-3.7,34.8-0.9,49.2,11.2c13.6-11,33.6-10.2,38.3,2.4c-3.4-1.1-6.4-2.5-9.4-2.8
	c-4.1-0.4-8.5-0.7-12.5,0.3c-7.3,1.9-7.5,3.6-2.5,9.4c1,1.2,1.4,2.9,2.4,5.2l-5.3-1l-1.2,1.5l5.9,3.3l-0.6,2.6l-16.8,0.8
	c-0.3,0.6-0.6,1.3-0.9,1.9l8.1,4.6l0.2,1.4c-2.5,0-5-0.1-7.4,0c-3,0.1-6,0.4-9,0.6l4.1,7.2c-10.4,5.8-35.1,3.9-40.9-3.7
	c-16.9,5-34.1,6.6-51.4,1.3c-1.1-0.3-2.1-0.6-3.2-1c-11.6-4.5-11.6-4.5-17,7.6c11.1,5,12.6,16.1,17.3,26.8l-32.1,2.7
	c0.3,2.4,0.4,4.1,0.7,6c-0.8,0.3-1.6,0.6-2.4,0.7c-10.3-0.4-20.6-0.9-30.8-1.3c-10.6-0.3-20.9-0.6-29.3,8.3c-1.7,1.8-8.3,0.1-12-1.5
	c-3.9-1.7-7.1-4.6-12-1.5c1.4,2.9,2.7,5.6,4.7,9.6l-26.8,5.9l-1.1-1.4c1.1-1.2,2.2-2.5,3.1-3.9c0.8-1.4,1.5-2.7,2.1-4.2
	c-1.6-0.4-3.3-1.2-4.7-1c-3.5,0.6-6.9,1.9-10.4,2.7c-0.9,0.2-2-0.4-5.2-1c13.8-4.7,17.5-13.6,15-26.1l16,3.8l1-2l-11.8-8.6
	c10.3-10.8-5.8-13.7-6.9-22.7c2.8,2.7,5.2,4.8,7.3,7c5.3,5.6,5.6,5.6,12.2,0.8c-0.8-5.2-3.8-8.3-8.7-10.6
	c-5.6-2.7-10.7-6.4-17.1-10.3c-4.1-0.3-10-0.7-15.8-1.1c-4.9-0.4-8.7,0.4-9.8,6.4s-5.9,4.7-10.2,4.4c1-7.9,8.9-15.4,18.5-17.2
	c2.2-0.4,4.7,1,8.8,2c0.5-1.2,1.7-4.1,3-7.4h15.3l0.8,1.1l-7.6,5.4c2.1,5.6,8,8,13,7.3c10.8-1.4,17.5-9,20.3-17
	c8-1.7,14.5-3.3,21.1-4.5s13-2.1,19-3.1c-6.1-7.6-27.7-7.6-40.9,2c-0.2-2.9-1.3-5.5-0.4-6.8c1.9-2.9,4.9-7.3,7.3-7.2
	C594.4,237.3,605.6,239,617.4,240.3z M758.4,250.4c9.7,4.8,20.1,2.3,27.4,9.3l-4.5,6c4.9,1.2,9.1,5.3,14.3,0.2
	C786.4,254.1,775,248.5,758.4,250.4L758.4,250.4z M648.2,235.9c-11.8-7.3-17.4-8.1-21.5-3.4c3.5,2.3,7,4.5,10.5,6.9
	C642.1,242.8,645.8,242.2,648.2,235.9z M760.4,280.3c4.1-1.3,7.5-2.7,11-3.5c3.7-0.8,7.5-1,11.9-1.5c-6.6-9.2-15.8,0.9-23-4.3
	L760.4,280.3z M631.6,255c4.2-0.4,7.8-0.7,11.3-0.9c3.7-0.2,7.5-0.2,8.1-5h-22.4C630.1,252,630.9,253.6,631.6,255z M663,290
	l-0.5-3.5c-3.9,0.3-7.9,0.1-11.6,1.2c-1.4,0.4-1.8,3.9-2.7,5.9l1.6,1L663,290z M578.8,266.7l-6.6,4.1c1.7,1.1,3.4,3.2,5,3.1
	c2.4-0.2,4.7-1.9,7-3L578.8,266.7z M777.5,287.8c-6.9-6.7-11-6.1-13.4,0H777.5z M719.9,265.3l0.2,2c2.8,0.8,5.5,1.9,8.3,2.1
	c1.5,0.1,3-1.5,4.5-2.4c-1.1-1.3-2.3-3.8-3.3-3.8C726.5,263.5,723.2,264.6,719.9,265.3z M681.3,311c-3.5-1.2-5.5-2.5-6.3-2
	c-2.3,1.5-4.2,3.7-6.2,5.7c1.3,0.8,3,2.6,3.7,2.2C675,315.8,677.2,313.9,681.3,311z"/>
<path class="st1" d="M635.1,190.6l3.8,4.3l-0.5,1.8c-2.4-0.8-5.2-1.1-7.1-2.6c-2.4-1.9-3.7-5.1-6.1-7.1c-1.8-1.5-4.6-1.9-7-2.8
	c0.8,2.4,1,5.2,2.4,7.2c1.7,2.5,4.5,4.3,6.4,6.7c0.9,1.1,1,2.8,1.7,4.9c-21-1.7-40.9,10.5-61.4,1.1c-0.3,0.6-0.7,1.2-1,1.8l7.2,4.5
	c-11.3,14.1-21.5,17.4-31.6,8.1l12.1-0.7c0.6-9.6-3.1-13.1-18.1-17.4c3.4-6.2,10-9.4,17.9-7.6c8.4,2,16.6,5,24.9,7.6
	c2.7,0.9,5.4,1.9,8.7,3.1c2.7-11.1-8.7-16.5-8.6-26.4c33.8,2.4,67.5,3.9,100.1,14l0.8-1.9c-6.7-3.8-13.2-8-20.1-11.2
	c-13.5-6.2-28.2-10.2-39.7-20.6c-1.2-1.1-3.8-1.2-5.7-1.1c-19.7,1.2-39.4,1.4-58.9,4c-29.2,3.9-58.3,9.1-87.4,14.4
	c-6.8,1.1-13.3,3.6-19.2,7.3c-15.2,10.2-31.6,16.8-49.9,17.8c-10.4,0.6-18.1,5.6-24.4,13.4c-3.5,4.4-7.2,8.6-11.2,12.5
	c-4.7,4.5-9.8,8.5-15.3,12c4.6-12.7,12.2-23.1,21.9-32c10.8-9.8,23-16,38.2-15.1c12,0.7,22.7-4.3,33.1-9.6c13.6-6.8,26.4-15.4,42-17
	c14.2-1.5,28.6-2,42.8-4.2c8.2-1.3,16-5.1,24-7.8c1.5-0.5,2.9-1.4,4.4-1.4c23.3-0.1,46.6-0.1,68.2-0.1c3.6,3.2,6.1,5.4,8.6,7.5
	c0.7,0.6,2,0.9,2.1,1.5c0.8,8.1,7.9,6.6,12.8,8.6c16.5,6.8,33.2,13.2,49.5,20.7c25.9,11.9,52.6,17,81,12.5c2-0.3,4.8-0.4,6.2,0.7
	c11.4,9.4,25.2,10.8,39,12.8c15.2,2.2,30.4,4.5,45.6,7.2c12.7,2.2,25.3,5,37.9,7.8c1.8,0.6,3.4,1.8,4.5,3.4
	c12.7,17.9,30.3,28.2,51.3,32.9c5.5,1.2,9.1,4.2,13.3,7.9c11.9,10.4,24.8,19.7,37.1,29.6c2.5,2,4.6,4.5,6.2,7.3
	c7.9,14.3,15.5,28.7,23.1,42.9c-1,0.6-3.4,1.3-3.5,2.2c-0.5,6.4-0.5,12.9-0.5,19.4c0,0.6,1.9,1.8,2.5,1.5c1.3-0.5,3-1.6,3.2-2.7
	c0.5-2.6-0.2-5.4,0.2-8c0.3-1.6,1.8-3,2.8-4.6c1.3,1.2,3.6,2.4,3.7,3.6c0.1,3.8-0.7,7.6-1.1,11.5l-2.5,1.1l17.4,10.1
	c1.6,9.7,6.5,19.2,20.6,21.2l-7,9.4c-3.7-2.7-7.8-4.9-10.7-8.2c-7.7-8.6-8.3-8.9-17.5-2.9l-7.2-11.4c-11.9,18-23.7,35.8-35,53.1
	l-10.8-4c8.2-10.2,16.6-20.8,25-31.2c-5.1-0.1-7,4.7-9.7,8.1c-2.3,3-4.4,4-8.3,3.7c-4.9-0.4-9.8,0-14.6,1.2c-8,2-9.5,5.1-7.8,13.2
	l-10.5,3.6l5.3-10.9h-7.7c-3,16.4-9.8,22.1-26.8,22.8c-5.6,0.2-11.2,0-16.8,0l0-1.8l12-2.1c-12.9-11.1-26.4,0.7-38.7-5.7l36.1-12.1
	l2.2,8.1l15.2-15.4l-1.3-1.5c3.8,1.5,7.5,3.6,11.5,4.3c6.4,1.1,5.9-4.3,6.2-6.8c8.4-1.3,16.5-1.1,23.3-4c5.3-2.3,8.5-9.1,13.5-12.6
	s12.3-4.6,16.8-8.7c8.4-7.7,10-18.8,10.4-29.6c0.8-15.5-3-30.9-10.8-44.4c-2.2-3.3-5-6.2-8.4-8.2c-8.6-5.6-16.3-11.6-20.8-21.3
	c-1-2.2-4.1-3.8-6.6-5c-7.5-3.7-15.8-6-20.7-14.1c-1.2-2.1-5.6-2.1-8.5-3.3c-11.2-4.8-22.5-9.6-33.5-14.7c-2.3-1-4.1-2.8-5.2-5.1
	c-3.8-10-13.1-12.4-21.2-16.4s-15.9-7.9-25.7-8.6c-23.1-1.7-46.6-1.1-68.9-8.9c-2.7-1-5.8-1.5-8.1-3.2c-9.3-6.9-19.5-7.6-30.8-6.4
	c-23.5,2.3-46.1-4.5-69.1-8.3c-12.5-2.1-25.3-3-37.9-5.1c-6.2-1-12.2-3.4-18.2-5.2L635.1,190.6z M953.5,441.6
	c-11.2,2.3-12.7,3.5-14,10.8C948.4,453.8,952.4,450.8,953.5,441.6L953.5,441.6z M1047.5,391.2c0.1-1.2,0.2-2.3,0.3-3.5l-9-1
	c0.3,1.2,0.3,3.4,0.8,3.5C1042.2,390.8,1044.9,391.1,1047.5,391.2L1047.5,391.2z"/>
<path class="st1" d="M1432.4,697c0.8,6.3,4.4,8.5,10.9,9.7c12.5,2.4,24.6,6.7,36.9,9.9c7.3,1.9,14.8,3.3,22.7,5
	c-12.2,2-23.9,1.1-35.5-1.8c-21.3-5.2-40.9-14.2-59.3-26c-2.6-1.7-5.4-3.1-8.4-4c-32.9-9.3-62.7-25-90.4-44.8
	c-3.4-2.5-7.2-4.5-11.1-6c-16.3-5.8-31-15.5-42.7-28.3c-3.2-3.5-6-5.4-10.9-4c-2.3,0.7-5.1-0.5-7.5-0.7c-0.2-4.2,0.7-8.5-1-11
	s-6.7-2.7-9.1-5c-5.5-5.1-10.3-11.1-15.6-16.5c-5.8-6-11.7-12.1-18-17.7c-2-1.7-5.6-1.4-8.2-2.6c-1.9-0.9-3.3-2.7-5-4l1.3-1.9
	l9.5,5.3c1.1-7.4-1.1-12.3-7.7-14.5c-6.1-2.1-12.6-3-18.9-4.4c-2.4-0.5-4.8-1-7.2-1.5c1.2-3,1.2-3,20.1-3.5
	c-7.5-17.5-22.6-17.5-38.5-17.8c0.7-2.5,1.2-4.7,1.9-7.3l-4.1-1.6c0.5-0.7,0.8-1.5,1.3-1.7c6.7-2.4,12.4-2.5,18.9,2.5
	c14.9,11.5,32.2,20.9,41.3,37.8s23.4,29.1,36.4,42.5c16.7,17.3,33.7,33.6,56.4,43.3c8,3.5,14.7,10.1,22,15.2c0.5,0.5,1,0.9,1.6,1.3
	c16.4,8.6,32.6,17.6,49.2,25.7c5.7,2.7,12.4,3.2,18.6,4.7c1.6,0.4,3.7,0.6,4.7,1.6C1399.2,688.6,1414.9,694.3,1432.4,697z"/>
<path class="st1" d="M280.8,341.7l-11-9.7c5.8-3.5,16-4.4,30.5-1.6l-7.1,8l6.2,4.8c5.4-2.7,9.7-5.2,14.3-7
	c7.9-3.1,17.5-3.5,20.7-13.8c0.3-0.9,3.1-1,4.7-1.3c8.1-1.3,16.1-2.5,24.4-3.8c1.2,3.6,0.9,4.5-3,5.4c-0.2,0.1-0.4,0.1-0.7,0.1
	c-19.4-3.4-28.5,10.3-38.3,23.2l29.1-7.5l1.3,2.1c-4.1,3.5-7.8,8-12.5,10.2c-20.4,9.5-41.2,13.7-62.1,1.1c-0.9-0.5-2.2-1.1-3.1-0.8
	c-8.9,3.4-17.1,1.3-25-3.1c-0.2-0.1-0.8,0.3-1.7,0.6c0.1,1.2,0.3,2.4,0.6,3.6c1.2,3.2,1.1,6.3-2.8,6.5c-1.4,0.1-3.9-3.1-4.4-5.2
	c-1.1-5.5-1.4-11.2-2-17.1c3.4,0.7,5.4,8.6,10.2,3.5c1.7-1.8,0.8-5.9,1.4-11.5l-34,11c-1.4-4.4,2.8-6.7,6.4-8.3
	c6.9-2.8,13.9-5.2,21-7.1c5.2-1.5,8.9-4,11.7-9c6.6-11.9,16.8-20.3,27.9-27.7s22.4-14,33.4-21.4c7.4-4.9,14.4-10.5,22.6-15
	c-5.1,5.9-9.3,13-15.4,17.6c-13.4,10-27.9,18.7-41.7,28.1c-6.1,4.1-11.9,8.8-17.5,13.5c-2.7,2.1-4.8,4.7-6.3,7.7
	c-2.3,5.1-6.2,11.6-4.7,15.7c2.6,6.9,10,10.6,18.1,10.6c2.4,0,4.9,0,7.3,0L280.8,341.7z"/>
<path class="st1" d="M376.5,658c-5.5,3.6-5.2,5,2.7,12.1l2.8-5.2c0.6,0.1,1.6,0,1.7,0.3c0.8,2.1,2.3,4.5,1.8,6.5
	c-1.5,6.5-0.5,10.8,8.2,10.6c-0.7,1.5-1.5,3-2.3,4.5c-1.1,1.7-3.8,4.2-3.5,4.7c1.4,2.2,3.4,3.9,5.8,4.9c4.2,1.4,8.7,1.9,13.9,2.9
	c-3,5.3,0.1,7.5,4.1,9.2s8.4,3.2,12.3,5.2s5.2,4.9,1.8,8.5l-17.5-12l-1.6,1.7l0.5,4.8c-17.3-5.8-30.3-17-41.8-32.5
	c-1.5,4.7-2.7,8.3-3.8,11.9l-1.8,0.6l-5.5-14.2c-29.8-4.8-29.8-4.8-34.9,1.6l-12.3-18.8C323.4,659.4,367.2,654.5,376.5,658z"/>
<path class="st1" d="M589.5,409.3c-1.6,10-7.9,15.6-16.6,18.5c-9.1,3-18.5,5-27.7,7.7c-6,1.8-11.7,4-17.8,6.1l1.5-10.7
	c-8.8-1.1-13.2,1.6-15.5,9.2c-5-5-4.2-10.2,2.7-18.3c4.7,0.6,9,1.5,13.4,1.6c1.7,0,3.4-1.7,5-2.6c-1.4-1-2.8-2-4.3-2.9
	c-1-0.5-2.4-0.2-3.2-0.8c-1-0.7-1.7-1.8-1.9-3c0.1-1,0.8-2,1.8-2.4c19.8-2.6,39.2-10.4,59.6-4C587.3,408.2,588.4,408.7,589.5,409.3z
	"/>
<path class="st1" d="M793.8,598.8c0.9-2.6,1.1-6.5,2.9-7.7c4.4-2.7,9.6-4.4,14.6-6c5.2-1.7,10.5-2.8,15.8-4.1
	c15.8-4,31.5-8,47.3-12.2c18.3-4.8,36.9-9,54.9-14.8c12.6-4.1,22.6-12.6,29.2-24.5c0.9-1.4,2.4-2.3,4-2.5c1,0,2.6,1.8,2.8,3.1
	s-0.8,2.8-1.8,3.7c-6.6,6.3-14,11.9-19.9,18.8c-10.7,12.8-23.2,18.8-40.5,19.7c-27.8,1.3-54.5,9.8-80.8,18.6
	c-8.9,3-17.7,5.9-26.6,8.9L793.8,598.8z"/>
<path class="st1" d="M266.2,410.7l-25,3.2c2.2,7.7,8.7,12.2,19,11.9c7.5-0.3,15-2.6,22.4-3.9c-0.7,4.8-0.9,5-9,10.3l11-2.8l0.7,1.9
	l-15.4,7.2l4.9,3.8c-2.6,1.3-4.8,2.9-7.3,3.6c-13,3.6-31-8.8-32.4-22.3c-1-9.3,3-14,12.3-14.4c4.9-0.2,9.8-0.2,14.7-0.2
	C263.1,409,264.1,409.8,266.2,410.7z"/>
<path class="st1" d="M1098.8,434.9l-3.3,1.6c0,0.4,0.1,0.8,0.1,1.2c1.3,0,3,0.5,3.7-0.1c5.5-4.4,7.5-1.3,10.5,3.4
	c5.4,8.5,12,16.1,17.9,24.2c5.8,8,11.1,16.4,15.8,25.1c-6.4-7.5-13.5-13.3-24.6-13.8c4.2-15.6-7-22.1-16.7-29.8
	c-4.3-3.4-7.8-7.9-11.9-11.6c-1.5-1.4-3.5-2.7-5.4-2.9c-6.5-0.5-13-0.5-19.4-0.8c-2.8-0.1-5.5-0.7-8.9-1.1c4.8-2.5,8.7-4.5,12.6-6.7
	C1084.3,415,1092.8,418.2,1098.8,434.9z"/>
<path class="st1" d="M337.7,404.9c-1.6,7.8-2.3,13.4-9.4,15.6c-7.3,2.3-14.7,3-20.5-1.7c-10.5-8.5-20.2-17.9-29.1-28.1L337.7,404.9z
	 M315.1,415.9c0.3,0.9,0.6,1.9,0.9,2.8l14.8-4.4l-0.9-2.8L315.1,415.9z"/>
<path class="st1" d="M493,214.6c13.8-6.7,14.9-7.5,15.5-11c7.7-1.3,18.2,4.3,18.3,9.6l7.5,1.3c-1.2,4.6-2.8,8.4-3,12.3
	s0.9,7.6,1.5,12.4c-6.5-0.4-13.4-0.5-20.1-1.4c-1.5-0.2-3.9-2.9-3.9-4.5c0.2-11-1.6-13.8-12.4-17.4
	C495.6,215.6,494.8,215.3,493,214.6z"/>
<path class="st1" d="M993.4,336c7.2,5.8,5.5,14.4,7.3,21.8c0.2,0.7-1,1.9-1.7,2.6c-8.2,7.9-16.5,15.7-25.4,24.1
	c-7.5-2.1-16.3-4.1-22.8,5.3l-1.3-1.1c1.5-2,2.6-4.4,4.5-5.8c3.9-2.9,8.3-5.2,12.4-8c5-3.2,9.1-6.9,4.9-14.4l11.4-2.3
	c-4-6-2.7-10.2,4-13.5C989.5,343.4,991,339.4,993.4,336z"/>
<path class="st1" d="M563.9,702v-11l62.5,3.7c-6.2,4.8-18.7,0.6-16.8,13.1h-24.2v-1.2l13.3-1.9c-0.1-0.7-0.1-1.4-0.2-2.1
	C587.5,695.6,576,700.8,563.9,702z"/>
<path class="st1" d="M611.8,575.8l-10.3,8.7c2-5.5,3.1-9.4,4.7-13.1c4.5-10.2,9.5-20.2,13.8-30.5c3.4-8.1,2.8-9.2-6-13.1
	c3.5-1.4,6.3-2.3,8.8-3.8c1.4-0.9,2.4-2.3,2.8-3.9c0.2-0.8-1.6-2.5-2.8-2.9c-6.1-2.1-4.9-5.2-1.6-8.9c6.5-7.3,13.9-14,17.1-24.4
	c0,2.8,0.5,5.6-0.1,8.2c-0.5,2.3-2.1,4.5-3.5,6.4c-4,5.4-6.7,10.5-5.6,18.2c0.9,6.6-2.1,13.9-4.4,20.5c-2.4,6.9-6.5,13.3-8.9,20.2
	C613.8,563.1,613.2,569.1,611.8,575.8z"/>
<path class="st1" d="M441.5,732.7l-8.9-1.3c8.4-4.9,16-4.3,22.8-0.1c11.9,7.4,23.1,15.7,34.9,23.8c-3.4,3-3.4,3-20.7-3v-9.5
	l-33.9-2.8l-0.1-2.2L441.5,732.7z"/>
<path class="st1" d="M1039.7,446.5c-11,16.9-31.3,14.3-43.5,26.1c-1.5-11.4,3-17.5,13.6-18c5.8-0.3,5.2-3.3,3-8.1H1039.7z"/>
<path class="st1" d="M1710.4,801c7.6,5.8,8.9,14.2,7,23l-26.2,6.7c-3.5-5.2-0.3-9.3,3.5-13.3C1699.8,812,1705,806.6,1710.4,801z"/>
<path class="st1" d="M490.2,585.5c8.2,1.4,16.5,2.4,24.5,4.4c6.7,1.7,10.2-2.2,13.3-6.5c3.2-4.5,5.5-9.6,8.3-14.4l1.9,0.5
	c-1.1,3.4-1.3,7.5-3.3,10.2c-5.4,7.4-11.2,14.5-17.5,21.2c-1,1.1-5.3-0.8-8-1.5s-5.6-1.7-8.7-1.1c-1.4-2.2-2.5-4.8-4.4-6.5
	s-4.7-2.6-7-3.8L490.2,585.5z"/>
<path class="st1" d="M1060.9,452.5c-3.1-4.2,7.1-10-2.8-13.3h21.8c4.3,3.1,7.1,6,10.6,7.5c4.3,1.9,6.1,4.2,4,8.9
	C1083.3,453.2,1072.6,447.1,1060.9,452.5z"/>
<path class="st1" d="M741.6,483.6c-9.5,12.9-23.3,18.3-38.3,21.7c6-8.1,11.8-16.2,17.9-24.1c1.1-1.3,2.7-2.1,4.4-2.1
	c1,0.2,1.6,2.6,2.3,4c0.2,0.6-0.1,1.4,0.1,2c0.6,1.9,1.4,3.8,2.1,5.7c1.6-1.3,3.2-2.5,4.7-3.9c1.8-1.7,3.5-3.5,5.2-5.3L741.6,483.6z
	"/>
<path class="st1" d="M874.4,472.7l-10.2,2.7c2.5-3.9,4.4-6.9,6.4-9.9c3.5-5.3,6.7-10.9,10.7-15.7c1.6-1.9,5.2-2.1,7.7-3
	c-0.2,3.2-0.9,7-0.4,7.1c3.3,0.9,6.6,1.5,10,1.9l2.8,14.4c-1.5-0.8-4.1-3.2-6.4-2.9s-4.6,3-7.1,4.8c-2.7-2.9-2.7-2.9,4.6-11.2
	c-3.4-0.7-6.2-2.1-8.7-1.7C879.3,460,876.2,464.9,874.4,472.7z"/>
<path class="st1" d="M988.1,380.9c8.9-8.9,18.8-16.4,22-31.4c3.3,5.1,7.8,9.1,7.6,12.9c-0.2,4-4.2,9.1-8,11.1
	C1003.1,377,995.4,378.5,988.1,380.9z"/>
<path class="st1" d="M582.5,739.7l-31-6.3l2.5,5.7l-1.3,1.3l-7.5-7.8c6.3-3.8,37.5-3.2,48.6,0.7l-11.9,5
	C582.1,738.6,582.3,739.1,582.5,739.7z"/>
<path class="st1" d="M666.2,500.8l4-3.3l1.4,0.9c-1.8,3.2-3.5,6.4-6,10.8l-9.9-7.4c-5.9-1.2-9,2.9-10.2,9.8l-5.5-6.6l21.3-14.4
	l-3-4.1L666.2,500.8z"/>
<path class="st1" d="M1585.8,728.7c-8.8,7-40.7,2.6-52.4-3.4C1551.4,719.4,1567.5,730.5,1585.8,728.7z"/>
<path class="st1" d="M938.5,871.1L950,870c1.4,6,2.6,11.3,4,17.8c-7.7-1.8-10,11.9-19.6,5.9C947.1,881.4,947.7,879.3,938.5,871.1z"
	/>
<path class="st1" d="M922.9,604.5c13.6-9.2,37.8-17.9,51.3-16.8l-50.7,18.6C923.3,605.7,923.1,605.1,922.9,604.5z"/>
<path class="st1" d="M1027,887.1c2.3-4.9,3.7-8.6,5.7-11.8c4.9-8.1,4.9-9-1.8-14.9c7.3-1,12.5,4.5,10.4,11.1
	c-1.2,4-2.2,8.1-3.5,12.8L1027,887.1z"/>
<path class="st1" d="M655.6,542.1c4.5,12.8-2.1,26.6-14,33.3C646.4,564.1,651,553.1,655.6,542.1z"/>
<path class="st1" d="M554.6,836.4c4.5,6.9,6.4,15.3,15.6,17.4c-3.3,0-7.4-1.2-9.6,0.3c-2.8,1.8-4,6-6.2,9.7
	C547.9,854.2,556.8,845.4,554.6,836.4z"/>
<path class="st1" d="M330.2,446.1c10.4-9.4,35.3-16.8,38.9-12.2l-38.3,14.4L330.2,446.1z"/>
<path class="st1" d="M592.2,566c-0.4,3.3,0,7-1.4,9.7c-2.8,5-6,9.8-9.8,14.2c-0.7,0.8-4.1,0.5-5.2-0.5c-1.5-1.4-1.8-3.9-3-6.8
	c9.6-1.7,14.7-8.1,17-17.2L592.2,566z"/>
<path class="st1" d="M224.5,371.6c-2.6,6-1.5,10.2,6.1,11.5c-4.4,4-8.1,3.1-11.2,0c-2.6-2.8-4.8-5.8-6.6-9.1
	c-0.8-1.4-0.3-3.5-0.4-5.4c1.8-0.1,3.8-0.5,5.5-0.1C220,369.1,221.9,370.4,224.5,371.6z"/>
<path class="st1" d="M580.3,559.6c-4.7,10.1-9.1,20.2-14.2,30.1c-1.2,2.2-4.4,3.4-6.7,5.1l-1.3-1.5c6.7-11.5,13.5-23.1,20.2-34.7
	L580.3,559.6z"/>
<path class="st1" d="M630,731.5c0.5-3.1,0.9-5.2,1.4-7.8h10.9c-1,10.3,10.5,8.5,14.2,15C646.2,740.6,640,729.7,630,731.5z"/>
<path class="st1" d="M895.9,402.7c3.6-8,9-9.9,21.9-8.2C915.6,402.3,910.1,404.4,895.9,402.7z"/>
<path class="st1" d="M417.4,646.5l24.4,1.2l0.1,3c-5.9,1.4-11.7,3.3-17.7,4C419.6,655.3,416,653.2,417.4,646.5z"/>
<path class="st1" d="M1283.3,799.1c4.9-7.7,10.9-11.8,20-10.8l-7.6,10.8H1283.3z"/>
<path class="st1" d="M761.6,304.6c10.4-6.9,22.2-4.5,33.6-4.9c0.1,0.8,0.2,1.5,0.3,2.3l-33.5,4.4
	C761.8,305.8,761.7,305.2,761.6,304.6z"/>
<path class="st1" d="M337.9,599.2l2.9-6.9c5.9,7.5,12.1,14.3,11.1,24.7c-5.7,0.5-5.8-3.2-6.5-6.7
	C344.6,605.6,345.5,599.6,337.9,599.2z"/>
<path class="st1" d="M559.8,565.9c-0.7,9.9-6.7,15-13.7,19.6C546,575.6,550.8,568.5,559.8,565.9z"/>
<path class="st1" d="M1737.7,798.5c1.3,9.1-2,16.4-4.8,23.9c-6.7-2.6-7.3-4.2-3.9-9.5C1731.8,808.5,1734.4,804,1737.7,798.5z"/>
<path class="st1" d="M945.6,463c6.7-1,12.5-1.3,17.8-2.9s10.2-4.6,16.6-7.7C970.8,464.3,958.7,467.9,945.6,463z"/>
<path class="st1" d="M735,679.8l33.9-4.2l0.2,1.9c-10.9,4.9-22.5,4.5-34.1,4.4L735,679.8z"/>
<path class="st1" d="M1379.9,820.7l23.2-14.7l1,1.5c-5.9,7.4-12.4,14.1-22.6,15.2L1379.9,820.7z"/>
<path class="st1" d="M913.7,465.4h16.7v7.5l-12.4,1.5c0.8-1.9,1.6-3.7,2.8-6.4l-7.1-1C913.7,466.4,913.7,465.9,913.7,465.4z"/>
<path class="st1" d="M1209.2,700.4c-4.3,6-5.4,6.2-23.9,4.9C1188.6,701.5,1188.6,701.5,1209.2,700.4z"/>
<path class="st1" d="M556.1,545.5c2.2-4.1,4.1-7.8,6-11.2c4,3.1,4,15.8-0.6,23.4C560,553.3,562.7,547.1,556.1,545.5z"/>
<path class="st1" d="M625.8,572.6c-0.9-3.1-1.7-6-2.6-9.3l8.9-3.4c1.3,7.6-2.6,12.5-8.1,16.3c-1.8,1.2-4.6,0.9-7,1.3l-0.5-2.5
	L625.8,572.6z"/>
<path class="st1" d="M1189.6,600.2c6.5,2,13.4,3.4,14,12.3C1189.1,608.2,1188.7,607.9,1189.6,600.2z"/>
<path class="st1" d="M360.1,634.5c-6.7-0.9-8.4-4.1-7.1-13.7C360.4,621.4,361.8,624.1,360.1,634.5z"/>
<path class="st1" d="M594.7,819.4c11.1-5.4,22.6-3.9,24.1,2.9L594.7,819.4z"/>
<path class="st1" d="M716.5,335.1l-18.8-6.3C703.6,322.8,711,324.4,716.5,335.1z"/>
<path class="st1" d="M777.7,770.5c-0.3,10.6-10.6,8.1-15,14.4C764.2,776.8,768.4,773,777.7,770.5z"/>
<path class="st1" d="M528.8,549.9c7,4,1.8,7.9,2.6,13l-12.3-4.2C521.3,553.2,530.3,558.8,528.8,549.9z"/>
<path class="st1" d="M1089.4,567.6l-15.7,4.8c-2-6,4.1-8.9,14.8-7.2L1089.4,567.6z"/>
<path class="st1" d="M1762.4,853.3h16.9C1774.7,858.8,1768.1,859.5,1762.4,853.3z"/>
<path class="st1" d="M619,800.8c-0.5,2.6-0.5,3-0.5,3c-4.4,0.2-8.8,0.4-13.2,0.4c-0.2,0-0.4-2.6-0.6-4L619,800.8z"/>
<path class="st1" d="M733.4,846.4h-7.8v-8.2h7.8V846.4z"/>
<path class="st1" d="M1201.3,619.9c-7.1,4.6-12.6,8.1-18.1,11.7l-1.9-0.6c0.6-1.6,0.8-3.9,1.9-4.6c4.2-2.5,10.5-1.6,12.1-8
	L1201.3,619.9z"/>
<path class="st1" d="M735.7,501.4c2-7.1,7.5-10.4,14-12.8l1.4,1.5l-13.9,12.6L735.7,501.4z"/>
<path class="st1" d="M662.9,791.8c-6.1,4.8-13.3-0.1-19.8,2.1c-0.1-0.9-0.2-1.8-0.3-2.8l19.6-2.5L662.9,791.8z"/>
<path class="st1" d="M1436.1,724.3c-8.5,1.4-12.9-1.1-14.1-10.2L1436.1,724.3z"/>
<path class="st1" d="M1067.2,590.2l-15.3,4.3l-0.6-2.1c3.7-6.1,9.8-4.1,15.3-4.2L1067.2,590.2z"/>
<path class="st1" d="M358.8,639.4c5.5-1.7,8.1,1.3,9.6,5.5c0.4,1.2-1.1,2.9-1.7,4.4c-1.4-0.7-3.4-1-4.2-2.2
	C361,645.1,360.2,642.5,358.8,639.4z"/>
<path class="st1" d="M1048.1,483.4l-22.4,4.4C1031.5,481.9,1039.9,480,1048.1,483.4z"/>
<path class="st1" d="M410.3,409.3l14.5-6c-0.4,2.2-0.3,4.5-1,4.9c-3.9,1.8-8,3.1-12.1,4.6L410.3,409.3z"/>
<path class="st1" d="M1089.3,505.8c1.1-5.3,0.5-10.5,6.7-11.3c0.2,3.4,0.4,6.6,0.6,10.8L1089.3,505.8z"/>
<path class="st1" d="M758.5,469c3.5,6.8-2,10.7-5,16.9C749.7,477.8,758.4,474.6,758.5,469z"/>
<path class="st1" d="M1733.3,840.2c7.4-4.2,11.1,6,17.9,4.6C1744.1,848,1739.1,842.5,1733.3,840.2z"/>
<path class="st1" d="M439.4,690.4l20,4.7C451.3,699.3,442.8,696.7,439.4,690.4z"/>
<path class="st1" d="M542.5,774.1l13.8,2.6C550.8,781.8,544.7,780.8,542.5,774.1z"/>
<path class="st1" d="M1367.9,818.4l12.8-10.1C1379.7,815.6,1376.2,818.6,1367.9,818.4z"/>
<path class="st1" d="M668.5,400.7c0.4,2.4,1.5,5,1,7.2c-0.4,1.8-2.9,3.1-4.5,4.6c-0.2-1.9-0.7-3.8-0.4-5.6c0.3-2.1,1.4-4,2.1-6
	L668.5,400.7z"/>
<path class="st1" d="M1396.3,791.7c-0.7,3.2-1.4,6.4-2.1,9.6l-1.5,1c-1.1-2-3.6-4.4-3.1-6c0.7-2.4,3.3-4.3,5.1-6.5
	C1395.2,790.5,1395.7,791.1,1396.3,791.7z"/>
<path class="st1" d="M820.7,634.4h-18.3c0-0.4-0.1-0.9-0.1-1.3h18.2L820.7,634.4z"/>
<path class="st1" d="M750.7,819c-2.7,5.4-7.9,3.9-12.5,4l-0.7-1.9l12.2-4.5L750.7,819z"/>
<path class="st1" d="M789.2,776.6c-0.8,6.1-2,7-12.2,7.2l10.7-8.8C788.2,775.5,788.7,776.1,789.2,776.6z"/>
<path class="st1" d="M821,643.2h-15.6C808.3,640.3,808.3,640.3,821,643.2z"/>
<path class="st1" d="M1326.4,791.6c-4.1-5.4-1.2-7.5,1.7-9c1.2-0.6,3.1,0,4.7,0.1L1326.4,791.6z"/>
<path class="st1" d="M738.6,655.1h-15.7v-1.6h15.7C738.6,654,738.6,654.6,738.6,655.1z"/>
<path class="st1" d="M791.6,318.2l-15.8-0.8l-0.1-1.7h15.9L791.6,318.2z"/>
<path class="st1" d="M1045,886l10.2-7.2C1056.1,882,1054,884.4,1045,886z"/>
<path class="st1" d="M1387.5,696l7.9,8.8c-3.3,0-5.6,0.7-6.3-0.1c-1.8-1.9-2.8-4.5-4.1-6.8C1385.8,697.2,1386.7,696.5,1387.5,696z"
	/>
<path class="st1" d="M1155.8,662.3c-2.2-7.2-1.5-8.2,7-8.6L1155.8,662.3z"/>
<path class="st1" d="M1123.5,597.8l6.6-7.4c0.6,8.4,0.6,8.5-4.8,9.1L1123.5,597.8z"/>
<path class="st1" d="M548.1,705.5l-8.4-6.7l8.4-2.4V705.5z"/>
<path class="st1" d="M1220.9,700c3.4-7.8,8.8-5.7,13.3-6.2c0.2,0.7,0.4,1.3,0.6,2L1220.9,700z"/>
<path class="st1" d="M806.5,548.3l-8.3-6c2.1-1.1,5-3,5.1-2.8c1.8,2.5,3.4,5.2,4.9,7.9L806.5,548.3z"/>
<path class="st1" d="M745.6,790.3l-10.1,4.1c0.8-7.2,5-6.8,9.2-6.2L745.6,790.3z"/>
<path class="st1" d="M630.5,782c-2.7-0.3-5.4-0.8-8.1-1.4c-0.5-0.1-0.4-2.3-0.6-3.5l9.1,1.5C630.9,779.7,630.7,780.9,630.5,782z"/>
<path class="st1" d="M659.8,770.7c4.7-7,6.5-7.2,12.7-1.9L659.8,770.7z"/>
<path class="st0" d="M915.8,888c-6.8,16.7-19.3,22.1-35.2,26C890,901,902.3,895.2,915.8,888z"/>
<path class="st0" d="M630.7,893.8v10.8c-5.4-3.1-7.6,0.5-9.8,4.4c-2.7,4.7-5.3,9.7-13.1,7.7C614.2,907.7,615.6,894.5,630.7,893.8z"
	/>
<path class="st0" d="M1799.6,854.1c-4-2.8-7.1-4.9-10.1-7.1s-2.2-7.8,1.6-11c2.7-2.3,5.7-4.2,9.3-6.7
	C1805.5,837.9,1796.8,845.5,1799.6,854.1z"/>
<path class="st0" d="M1681.2,863.7c10.5-5.7,21.1-10.6,33.6-7.5C1705,864.8,1693.6,866.3,1681.2,863.7z"/>
<path class="st0" d="M1692,753.8c10.5,3.2,21.3,5.9,29,17C1706.8,770.5,1701.1,759.3,1692,753.8z"/>
<path class="st0" d="M715.6,910.7l35.2-20.7C744.6,905.4,730.2,906.8,715.6,910.7z"/>
<path class="st0" d="M1469,863.7c0.6-2.3,1.3-4.7,1.7-7c0.4-2.1,0.4-4.3,0.8-7.6l10.6,2.8C1478.6,863,1476.4,864.9,1469,863.7z"/>
<path class="st0" d="M1402.4,827.6l20.6-3.8C1419.2,832.3,1411.7,834.2,1402.4,827.6z"/>
<path class="st0" d="M766.3,886.8c4.1,8.9,1.1,13.5-8.3,15.5C755.6,894.4,764.7,893.7,766.3,886.8z"/>
<path class="st0" d="M895.8,890.4L889,899c-6-1.8-5.5-6.2-5-12L895.8,890.4z"/>
<path class="st0" d="M1684.7,760.3l8.2,8.8l-12.4,4.4c0.9-4.4,1.6-8.1,2.4-11.8L1684.7,760.3z"/>
<path class="st0" d="M1143.9,871c-4.7,2.9-8,5-11.4,6.9c-0.3,0.2-1.7-0.8-1.8-1.4c-0.2-1-0.1-2.1,0.4-3
	C1133.9,869.7,1137.5,868.9,1143.9,871z"/>
<path class="st0" d="M1593.9,850c2.8-1.3,5.5-3,8.4-3.5c1.3-0.2,3,2.2,5.2,4.1l-12.9,1.6L1593.9,850z"/>
<path class="st0" d="M1477.7,879.2l12.7,3.6C1486,886.2,1482.3,885.6,1477.7,879.2z"/>
<path class="st0" d="M204.1,403.3l-7.2,10.3c4.6,1.6,5.2,1.3,7.9-4c1.8-3.5,3.1-7.8,10.1-5.5l-19.5,28.1l-1.1-0.4
	c1-3.4,1.9-6.7,3.3-11.5c-8.8,5.2-8.9,6.4-4.4,31.5L179,459c1.4-3.8,1.6-6.7,3.2-8.4c4.4-4.7,5.3-9.4,4-15.8
	C183.6,421.6,186.5,407.5,204.1,403.3z"/>
<path class="st0" d="M149.6,507.4c1.2-4.7,2.5-9.4,3.8-14.5c5.2,1.3,8.8-1.5,10.4-9.1C164.8,496.5,157.5,507.5,149.6,507.4z"/>
<path class="st0" d="M169.8,477.9c1.4-12,14.8-12.5,20.5-20.5C187.2,467.8,177.3,471.6,169.8,477.9z"/>
<path class="st0" d="M457,811.4v8.6c-9.2,0.3-8.9-8.9-14.1-12.3l1-1.5L457,811.4z"/>
<path class="st0" d="M292.7,788.2c-5,2.7-8.2,0.6-10.8-2.8c-2.9-3.8-3.2-7.9-0.4-11.8L292.7,788.2z"/>
<path class="st0" d="M303.8,786.7c-9.9-3.5-11.1-5-9.8-14.3l11.7,12.6L303.8,786.7z"/>
<path class="st0" d="M214,442.5c-1,2.5-1.4,5.6-3.1,7.5c-1.5,1.6-4.5,1.9-6.9,2.7l-1.4-1.8l11.7-6.7L214,442.5z"/>
<path class="st0" d="M218.6,551.2l3.6-4.7c1.3,1.7,3.4,3.4,3.6,5.2c0.1,1.4-2.3,3.1-3.5,4.6L218.6,551.2z"/>
<path class="st0" d="M312.7,638.1c-2.2-4.6,0.8-11.1,4.3-11.3c0.9,0,1.7,0.4,2.2,1.1c0.4,0.9,0.4,1.9,0,2.8
	C317.3,633.1,315.2,635.3,312.7,638.1z"/>
<path class="st0" d="M429.4,832.4c-1.7-0.9-3.2-1.8-4.7-2.5c-2-0.8-3.7-2.1-5-3.7c2.3-0.6,4.9-2.2,6.7-1.6
	C429.3,825.5,432.2,827.8,429.4,832.4z"/>
<path class="st0" d="M246.2,758c0-1.7-0.1-3.5,0-5.2c0.1-1.1,0.3-2.1,2.1-4.3c1.5,1.8,4.1,3.5,4.1,5.3s-2.4,3.7-3.8,5.6L246.2,758z"
	/>
<path class="st0" d="M284.5,760.2c4.6-2,10.7,0.7,11.2,4.1c0.1,0.7-0.4,2.1-0.9,2.2c-1.1,0.3-2.7,0.5-3.4-0.1
	C289,764.4,286.7,762.3,284.5,760.2z"/>
<path class="st0" d="M204.7,506.1c-5-1.5-9.6-2.2-7.8-8.8C201.8,498,205.6,499.2,204.7,506.1z"/>
<path class="st0" d="M353.4,801.3l-9.8,1.7v-9.1L353.4,801.3z"/>
<path class="st0" d="M437.7,852.3c-7-3-7.4-4.6-2.4-12.8C436.3,844.7,437,848.2,437.7,852.3z"/>
<path class="st0" d="M285.5,629.3l-9.5-5.9c3.4-3.9,4.8-3.3,10.6,4.2L285.5,629.3z"/>
<path class="st0" d="M544.6,654.2c-2.7,0.7-4.1,0.8-5.2,1.4c-1.8,1.1-3.5,2.3-5.2,3.5c2,0.9,4,2.3,6.1,2.6c2.8,0.4,5.8-0.5,8.7-0.2
	c2.3,0.4,4.5,1.4,6.2,2.9c-5,1-12.1-1.8-10.3,8.6c-10-6.5-22.8,1-31.4-9c4.9-6.4,9.4,2.4,14.3-0.3c-0.2-6.1-4.5-7.2-9.4-7.6
	c-7.3-0.5-14.6-0.9-22.5-1.4c-0.2,8.3,8.6,5.6,12.5,8.8c-12.6,6.2-32.5,4.2-40.1-5.8l21.1,4.1c1.2-9.1-7.1-5-10.5-9
	c11.5-1.5,22.2-3.6,33.1-4c4-0.2,8.6,2.8,12.2,5.4c5.5,3.8,7.3-1.1,10.4-3.4c1.6-1.2,4.1-2.7,5.5-2.2
	C542,649.1,542.9,651.7,544.6,654.2z"/>
<path class="st0" d="M707,530.3c-3.8,4-7,7.9-10.7,11.2s-7.9,5.7-11.8,8.5c2.8,13.3-0.1,18.5-12.8,20.2c5.2-12,9.4-23.6,15-34.4
	C690.5,528.8,698.4,527.2,707,530.3z"/>
<path class="st0" d="M566.7,647.2c16.2,4.5,29.8,1.4,43.4-7.1c-1.2,4.4-2,7.1-2.7,9.7C597.2,659.8,578.1,658.9,566.7,647.2z"/>
<path class="st0" d="M405.5,505.4c3.1-5.4,7.5-4.2,12-2.6c4.1,1.4,8.3,2.5,12.4,3.7C425.2,513,416.4,512.7,405.5,505.4z"/>
<path class="st0" d="M662.8,668.7l-31.4-5.4C638.8,657.3,654.1,659.2,662.8,668.7z"/>
<path class="st0" d="M674.8,575.8l-13.5,7.4c-1-8.6,2.4-10.8,12.4-9.4L674.8,575.8z"/>
<path class="st0" d="M451.7,648.7c6.9-7.9,11.2,2.7,17.2,0.7C465.3,654.4,465.3,654.4,451.7,648.7z"/>
<path class="st0" d="M758.4,250.4c16.6-1.9,28,3.7,37.2,15.5c-5.2,5.1-9.4,1-14.3-0.2l4.5-6C778.5,252.7,768.1,255.2,758.4,250.4z"
	/>
<path class="st0" d="M648.2,235.9c-2.4,6.3-6.1,6.9-11,3.5c-3.4-2.4-7-4.6-10.5-6.9C630.9,227.8,636.4,228.6,648.2,235.9z"/>
<path class="st0" d="M760.4,280.3V271c7.1,5.1,16.3-4.9,23,4.3c-4.4,0.5-8.2,0.7-11.9,1.5C767.9,277.6,764.5,279,760.4,280.3z"/>
<path class="st0" d="M631.6,255c-0.7-1.4-1.5-2.9-3-6H651c-0.6,4.8-4.4,4.8-8.1,5C639.3,254.2,635.8,254.6,631.6,255z"/>
<path class="st0" d="M663,289.9l-13.1,4.6l-1.6-1c0.9-2.1,1.3-5.5,2.7-5.9c3.6-1.1,7.7-0.9,11.6-1.2L663,289.9z"/>
<path class="st0" d="M578.8,266.6l5.4,4.2c-2.3,1.1-4.6,2.8-7,3c-1.6,0.1-3.3-2-5-3.1L578.8,266.6z"/>
<path class="st0" d="M777.5,287.8h-13.4C766.5,281.6,770.6,281.1,777.5,287.8z"/>
<path class="st0" d="M719.9,265.3c3.3-0.8,6.5-1.9,9.8-2.1c1,0,2.2,2.4,3.3,3.8c-1.5,0.8-3.1,2.5-4.5,2.4c-2.8-0.2-5.6-1.3-8.3-2.1
	L719.9,265.3z"/>
<path class="st0" d="M681.3,311c-4.1,2.8-6.3,4.8-8.8,5.9c-0.7,0.3-2.5-1.4-3.7-2.2c2-1.9,3.9-4.2,6.2-5.7
	C675.8,308.6,677.8,309.9,681.3,311z"/>
<path class="st0" d="M953.5,441.6c-1.1,9.2-5.1,12.1-14,10.8C940.8,445.1,942.3,443.9,953.5,441.6z"/>
<path class="st0" d="M1047.6,391.2c-2.7-0.2-5.3-0.5-7.9-1c-0.5-0.1-0.6-2.3-0.8-3.5l9,1C1047.7,388.9,1047.6,390,1047.6,391.2z"/>
<path class="st0" d="M315,416l14.8-4.5l0.9,2.8l-14.8,4.4C315.6,417.8,315.3,416.9,315,416z"/>
</svg>
