<?xml version="1.0" encoding="utf-8"?>
<!-- Generator: Adobe Illustrator 22.0.1, SVG Export Plug-In . SVG Version: 6.00 Build 0)  -->
<svg version="1.1" id="Layer_1" xmlns="http://www.w3.org/2000/svg" xmlns:xlink="http://www.w3.org/1999/xlink" x="0px" y="0px"
	 viewBox="0 0 400 400" style="enable-background:new 0 0 400 400;" xml:space="preserve">
<style type="text/css">
	.st0{fill:#FFFFFF;}
	.st1{fill:#232323;}
</style>
<path class="st0" d="M198.4,13.1l-1,13.5l2.1,4.9l-3.2,7.1l2.4,3.1l-1.4,6.8l1.1,7.6l-1.4,5.5L196,75c0,0-0.9,6.9-0.6,9.5
	c0.3,2.7-1.5,5.7-0.1,9l-0.9-1.2l-0.7,6.2l0.9,8.4l-4.7,8.2l-8.7,13.9l-8.3,16.2l-5.4,9.2l-12.9,28l-0.6,2.2c0,0-12,17.9-12.3,20
	l-2.8,3.8c0,0-12.2,27-10.5,31.8l-0.2,27.5l4.9,24l8.9,30.4l9.1,9.3l2,1.3l5.2,5.4l5.6,3.9l10.2,3.3l1.9,1.2c0,0,1.3-2.7,8.2,4.4
	l3.9,2.8l12.2,5.1l7.5-0.6l1.2,0.6c0,0,3.2,2.5,6.6,3.5l13,4.1l8.5-2.2l21.6-13.8c0,0,8.9-17.2,12.9-16.1c0,0,7.6-15,9.4-23.2
	s5.5-23.7,5.5-23.7l2.2-17.5c0,0-1.6-17.9-10.2-38.4c0,0-1.1-5-12.5-15.6c-11.5-10.6-22.3-9.1-22.4-18s-11.7-44.8-11.7-44.8
	l-0.5-2.5l-3.7-15.4l3.3-0.8l2.8-3.7l0.9-1.1l2.3-15.4l-3-14.6l-1.2-2.8l-1-0.8l-19.9-13.3l-0.9,1.4l-4.1,1.8l-1.2,1l-6,8.7
	l-1.4-1.2c0,0-0.1-1.1-0.6-1.6s0-5.3,0-5.3s-0.4-2.2,0.3-2.4s0.6-7.7,0.6-7.7l0.4-7.7l0-17.5l0.7-12.6l0.8-6.6l0.6-1.9l-0.5-8.9
	l-0.5-15.3L198.4,13.1z"/>
<title>Artboard 2</title>
<path class="st1" d="M193.6,214.7c0.3-1.5,1.7-2.6,3.2-2.5c2.1-0.3,4.2-0.7,6.2-1.4c2.8-0.9,5.5-1.9,8.4-2.9l0.2,1.1
	c2.5-1.8,4.3,0.1,6.2,1c3,1.4,5.9,2.8,8.9,4.2c1,0.4,2.2,0.4,3.2,0.9c1.4,0.7,2.5,1.8,3.9,2.4c1.1,0.4,2.3,0.6,3.5,0.5
	c-3-2-6-4.1-9.1-6c-0.7-0.4-1.7-0.2-2.5-0.5c-0.7-0.3-1.2-0.7-1.6-1.3l6.4,1.6c-0.9-1.3-1.8-2.6-2.7-3.7c-2.2-2.7-4.9-5-8-6.7
	c-2.8-1.7-5.5-3.6-8.3-5.3c-0.7-0.5-1.6-0.7-2.4-1.1c-0.4-0.2-0.6-0.7-0.9-1l0,0c1.8,0.6,1.9,0.5,2.4-1.2l-4.3,0.4l-0.1-0.4l4.2-1
	c-1.1-0.5-2.3-1.5-3.5-1.5c-1.5-0.1-3,0.6-4.7,0.6l6.4-1.8l-1.5-0.7h3.3l1.9-2.9l6.3,6.1c1,0.8,3.1,0.2,2.7,2.7l2.9,0.5l-6.6-7
	c0.1,0.6,0.2,1.1,0.4,2l-1.7-1.6l0.5-0.2c-0.1-0.8-0.3-1.5-0.6-2.2c-1.3-1.2-2.4-2.6-3.5-4l3.6,3l0.3-0.3c-1.4-2-2.6-4.1-4.1-6
	c-0.6-0.5-1.4-0.8-2.2-0.6c-3.4,0.9-6.7,1.9-10.2,2.8c0.6-0.3,1.1-0.6,1.8-0.9c2.8-0.9,5.6-1.6,8.3-2.6c0.4-0.1,0.8-0.7,1.1-1.1
	c-0.5-0.2-1.1-0.6-1.6-0.5c-2.4,0.5-4.9,1.1-7.3,1.7l-0.3-0.4c0.3-0.2,0.5-0.6,0.8-0.7c0.9,0,1.7-0.1,2.6-0.3
	c0.8-0.4,1.6-0.8,2.2-1.4l2.3,0.5l0.3-0.6l-1.6-2.1l0.8-0.7l-2.5-1.2l0.1-0.4c1.3-0.2,2.5-0.3,3.8-0.3c1.3,0.1,1.7-0.4,1.5-1.7
	c0-0.8,0-1.5,0.1-2.3l1.7,1.3c-1.4-3.4-1.4-3.4-4.5-2.9c-1.6,0.3-3.4,0-4.6,1.6c-0.2,0.3-1,0.2-1.5,0.2c-1.4,0-2.8,0-4,0l4.1-1.8
	l-0.1-0.6c-3.6,1.9-6.1-1.3-9.2-1.6c1.5-0.9,2.6,0,3.9,0.4s2.7-0.5,4.1-0.8l-0.1-0.5l-3.7,0.4l-0.1-0.4c1.5-0.5,3-0.8,4.5-0.9
	c1.6,0.2,3.3,0.5,4.9,0.9l-8.1,1.9v0.6c0.7,0,1.4,0,2.1,0c1.3,0,2.6-0.1,4-0.2c1.8,0,3.6,0.1,5.4-0.2c0.4,0,0.9-1.1,0.9-1.8
	c0-1,0-2.2-1.4-2.3s-3.1,0-4.7,0c-1.1,0-2.3,0-3.4-0.2l2-0.2l-1.5-1l6.7,0.7l0.1-0.6c-3.9-1.4-8-0.6-12-0.6v-0.8
	c3.8-0.3,7.5-0.6,11.2-0.7c1.6-0.1,2.1-0.5,2.8-2.2c0.6-2.1,1-4.3,0.9-6.5c0.1-1.5-0.3-3.1-0.2-4.6s0.7-3,0.9-4.6
	c0.1-0.8,0-1.6-0.4-2.3c-0.5-0.9-1.2-1.7-1.9-2.5l0.4-0.3l3.6,4.2h0.4l-1.2-4.6c2.1,2.6,1.2,7,5.5,8c0-0.1,0.1-0.4,0-0.4
	c-2.2-2-2.8-4.8-3.7-7.5c-0.7-1.6-1.6-3.1-2.6-4.6c-0.3-0.5-0.7-1-1-1.6l0.4-0.3l1.8,2.4c-0.2-2.8-2.2-5.7-3.8-4.5l-0.4-0.3l1.7-1.7
	c-2.4-2.5-4.9-4.8-8.7-5.3l-0.1,1.2l-2.6,0.4l3.5,1.6l-5.7,0.7c-0.5-0.5-0.8-1.1-1.3-1.2c-1.7-0.6-3.4-1.1-5.2-1.6l0.1-0.5l6.5,1.8
	l-0.7-1.1l4.3-0.4l-5.3-2.1l0.1-0.3l3.1,0.4l0.2-0.6l-4.6-1.5l-0.1-0.4l2.5-0.6c-0.3-2.7-4.1-2.9-4.2-6c-0.1-2.5-0.3-5-0.5-7.4
	l0.6-0.1l0.3,3.4c0.4,2.4,1.4,3.2,3.2,2.8c-0.8-1-1.7-1.9-2.6-2.9c-0.1-0.1-0.5,0.1-0.7,0.1l1.7-4.1c-0.2-0.6-0.4-1.1-0.8-1.6
	c-1-1-1.4-2.5-1.2-3.9c0.1-1.8,0.4-3.7,0.3-5.5c-0.1-1.5-0.4-3-0.7-4.5c0.4-0.8,0.6-1.6,0.8-2.4c0.1-2-0.2-4.1-0.1-6.1
	c0-1.2,0.5-2.3,0.6-3.4c0.4-2.9,0.7-5.8,0.9-8.8c0.1-0.7-0.1-1.5-0.1-2.2c0.1-1.7,0.2-3.5,0.3-5.2c0.1-0.7,0.4-1.5,0.2-2
	c-1.2-3.2-0.5-6.5,0-9.7c0.3-1.3,0.2-2.6-0.4-3.7c-0.6-1.1-0.1-3.1,0.6-4.3c1.1-1.8,1.3-4,0.7-6c-0.8-2.4-0.3-4.6-0.1-6.9
	c0.5-4.4,0.9-8.9,1.5-13.3c0.3-1.7,0.8-3.5,1.4-5.1c0.1-0.3,0.7-0.5,1.1-0.7c0.3-0.3,0.6-0.6,0.9-0.9h0.8c-0.3,1.8-0.3,3.7-1.1,5.3
	c-1.1,2.5-0.4,4.8-0.3,7.2c0,0.8,0,1.6,0,2.4c-0.1,2.8-0.4,5.5-0.5,8.3c-0.1,2.1,0,4.2,0,6.6c-1-3.6-2-6.8-2.9-10l-0.5,0.1
	c0.4,1.9,0.7,3.7,1.2,5.6c0.5,2.1,1.5,4.1,1.6,6.2c0.2,2.4-0.4,4.8-0.4,7.2c-0.1,2.6-0.1,5.2,0,7.7c0.1,1.8,0.6,3.7,0.8,5.5
	c0.2,1.2,0.4,2.4,0.4,3.5c-0.1,0.9-0.5,1.7-1,2.5c-1.3,2.2-0.4,4.4-0.4,6.6c0,4,0.7,8.1-0.9,12c-0.6,1.4-0.1,3.2-0.3,4.8
	c-0.2,0.8-0.4,1.5-0.8,2.2l-2-7.9l-0.7,0.1c0.2,2.5-0.7,4.9,1.1,7.4c1.6,2.4,2,5.3,1.2,8.1l-2.3-5.7c-0.8,1.8-1.3,3.5,0.4,5
	c0.5,0.4,0.5,1.5,0.6,2.2c0.1,0.8,0.1,1.5,0,2.3l1.9-2.3c-0.1,1-0.2,1.9-0.3,2.9c-0.2,0-0.4-0.2-0.5-0.1c-1.8,1.4-1.9,3.2,0.1,5.1
	l-0.9-3.4l1.8,0.4l-0.5-2.1c0.9-0.6,2.4-0.8,1.3-3l1.9,1.7c-0.2-1.3-0.4-2.5-0.6-3.9l-2.3,2.3c1.5-3.2,4.1-5.9,7.4-7.5
	c-1.6,1.2-0.6,2,0.4,2.8c0-0.5-0.1-1.1-0.1-1.7l1.3,1.1c-0.2-1.3-0.3-2.2-0.4-3.2c1.2-0.9,1.2-0.9,2.2,0.8c0.9-0.5,2.8-0.1,1.9-2.7
	l2.4,1.6l-1.5-2.9c1.4-1.1,2.2-1.1,4.4,0.5l0.1-0.5c1.1,0.2,2.3,0,3.2,0.5c2.1,1.2,3.9,2.9,6,4c1.4,0.9,3,1.4,4.7,1.5
	c1.6,0,2.2,0.4,2.5,1.8c0.4,2,0.5,3.9-0.9,5.6c-0.3,0.3-0.2,1-0.4,1.9l1.4-1.1c2.9,3.3,4.5,7.5,4.6,11.8c0.2,7.1-1.2,14-2.8,20.9
	c0.2-1.6,0.4-3.2,0.6-4.8s0.4-3.1,0.5-4.3c0.4-2.1,0.8-4,1.2-6.2l-2.9,0.7l0.5,1.4l-1.7-0.8l0.2,1.5l-1.3-0.2c0.4,0.8,0.7,1.3,1,1.8
	l-3-1.1c1.4,1.8,2.3,3.1,3.3,4.4l-0.1,0.2l-2.5-1.4l-0.4,0.4l2.4,2.5c0.1,0,0,0.1-0.1,0.1c-0.2,0-0.4,0-0.7-0.1l0.4,1l-1.1,0.2
	l0.7,2.2l-0.4,0.2l-1.4-2l-0.4,0.2c0.1,0.4,0.2,0.8,0.3,1.4l-1.4-0.8l-0.3,0.5l3,2.2l-2.2-0.3l2.1,1.9l-1.8,2.3l-1.9-0.7
	c1,1.4,2.3,2.1,3.5,1.5c1.1-0.6,1.9-1.8,3-2.8c-0.6,1.6-0.6,3.2-2.8,3.7c-0.4,0.1-0.9,1.5-0.8,2.3c0.3,4.1,0.7,8.2,1.1,12.3
	c0,0.5,0,1,0,1.7l-1.2-0.7c0.1,1.8,0.1,1.8,1.4,2.5c0.2,0.1,0.2,0.5,0.3,0.8c2.5,6.2,4.9,12.4,7.4,18.6c2.7,6.5,5.6,13,8.3,19.5
	c0.4,1.2,0.7,2.4,0.9,3.7c1.3,5.5,4.7,10.3,9.6,13.2c4.4,3,8.4,6.4,12,10.3c2.8,2.8,4.8,6.3,7.1,9.6c0.7,1.1,1.1,2.4,1.4,3.6
	c-1.6-2-1.8-5.2-5.2-5.6c-0.5,2.1,1,2.9,3,3.7l-1.8,0.2c0.3,0.4,0.5,1,0.8,1c3.6,1,6.4,3.7,7.6,7.2c0.9,2.4,2.7,4.4,4,6.6
	c3.2,5.4,4.1,11.4,3.7,17.5c-0.3,3.9-1.3,7.8-2,11.6c-0.8,4.5-1.6,8.9-2.2,13.4c-0.7,5.1-0.8,10.3-1.6,15.4
	c-0.8,5.9-2,11.7-3.4,17.4c-1.7,6-4.9,11.5-9.2,16c-1,1.1-2.6,1.6-4,2.4c-1.3,0.8-2.3,2.1-2.7,3.6c-0.9,2.7-0.7,6.1-3.5,7.9
	c-1.8,1.1-3.7,2-5.7,2.9c-2.1,0.8-3.9,2-5.5,3.6c-2,2.1-4.7,3.6-7.1,5.3c-0.3,0.2-1-0.1-1.3,0.2c-1.1,0.8-2.2,1.6-3.3,2.3
	c-5.1,2.8-10.3,2.3-15.7,1c-4.9-1-9.6-2.8-13.8-5.4c-0.3-0.2-0.6-0.4-0.9-0.6c-0.1-0.1-0.1-0.2,0-0.7l6.6,3.5l0.3-0.3
	c-0.4-0.6-0.7-1.2-0.9-1.8c-0.3-0.7-0.4-1.5-0.3-2.3c0.5-2.3,1.6-4.6,1.6-7c0.1-3.8,1.7-6.8,3-10.1c0.8-2,0.8-4.2,1-6.4
	c-2.3,4.9-5.2,9.5-5.7,15.1c-0.1,1.1-0.1,2.8-1.7,3.3c-0.2,0-0.2,0.4-0.3,0.7c-0.4,1.7-0.8,3.5-1.1,5.3l-4.1-1.7l0.4,1.2
	c-2.2,0.3-4.5,1-6.7,0.7s-4.6-1.4-6.8-2.2c-2.1-0.8-4.2-1.9-6.2-3c5.4,1.2,10,5.6,16,4.4l-0.5-3.6l-1,0.8c-1.4-4.7,0.1-9,1.1-13.4
	c-0.4,3.8-0.7,7.7-1.1,11.6l0.7,0.1c0.5-2.4,1.1-4.7,1.6-7c1.6,1.1,0.4,2.3,0.2,3.5c-0.3,1.3-0.5,2.6-0.6,3.9c0,0.5,0.5,1.1,0.9,1.7
	c1-4.2,1.8-8.1,2.7-11.9l0.7,0.1l-2,10.4l0.3,0.1c1-2.6,2-5.2,3-7.9s0.5-5.7,3.1-7.6c-1.4,4.9-2.8,9.7-4.2,14.5l0.8,0.3
	c2.4-6.5,4.7-13,7.1-19.4l-0.6-0.3l-2.3,4.3l-0.3-0.1c0.1-1.1,0.2-2.1,0.4-3.7l0.4,1.5l0.3,0.1c0.4-1.8,0.9-3.5,1.3-5.3l-0.3-0.1
	c-1.1,2.1-2.1,4.2-3.3,6.6c0.2-0.9,0.2-1.9,0.3-2.8c-0.1-0.9,1.1-2-0.5-2.7c0-0.2,0-0.5,0.1-0.7c1.5-3.4,2.9-6.8,4.4-10.1
	c0.3-0.4,0.5-0.8,0.9-1.2l-4.4,13l0.8,0.3l3.3-10.5l0.4,0.1l-1,4.3l0.3,0.1l1-2.8l0.4,0.1c-0.6,2.4-1.2,4.8-1.8,7.2l0.5,0.1
	c0.9-2.9,1.8-5.8,2.6-8.7l0.6,0.2c-2.6,9.3-5.1,18.6-7.6,27.9l0.6,0.2c1.4-4,2.7-8.1,4.4-12.1s3.6-7.8,5.5-11.6
	c-0.6,2.4-1.3,4.7-1.9,7.1c-0.3,1.6-0.2,3.4-0.6,5c-1,3.5-2.4,7-3.2,10.5c-0.4,2.2-0.6,4.4-0.6,6.7l1.1-1.2
	c-0.2,2.6-2.1,4.8-0.3,7.5l9.4,2.1l0.2-0.6c-2-1.4-5.3,0.3-6.7-2.5c0.1-0.1,0.2-0.3,0.2-0.2c2.5,1,2.5,1,2.2-1.8
	c-0.5-4.6,0.9-9,2.2-13.3c0.6-2,1.4-3.9,1.4-6.3s1.2-4.7,2-7.1c1.4-4.1,2.8-8.2,4.2-12.4c0.3-1.1,0.5-2.2,0.4-3.4L230,327l-0.5-0.2
	c0.1-0.5,0.2-0.9,0.3-1.4c1-4.4,2-8.8,3-13.2c0.2-0.9,0.5-1.8,0.8-2.7c1.5-3.2,0.5-6.1-1.4-9l2.1,0.4c0.1-1.5,1-1.5,2.3-0.7
	c0-1,0.3-1.9,0.1-2c-0.5-0.3-1.2-0.2-2-0.5l2.9-0.9v2.8l6.2-5.6c0.8-0.1,1.6-0.4,2.3-0.8c1.6-1.2,3-2.7,4-4.5
	c1.2-2.2,3.3-3.9,5.1-5.6c1.2-1.2,2.6-2.2,4.5-1.7c0.5,0.2,1.1,0.4,1.6,0.6l0,0.6l-7,3.2V285l-0.4-0.2c-1.1,1.6-2.2,3.1-3.5,4.9
	c1.7-1.1,3.5-2.2,5.4-3.2c2.6-1.2,4-0.2,5.7,2.1c1.3,1.8,0,3.4,0.6,5c0.1,0.8,0.1,1.5,0,2.3c1.3-3.1,1.3-6.7,0-9.8
	c1.6,0.4,2.8,1.8,3,3.5c0.5,3.8,0.8,7.6,0.9,11.4c0.1,3.5,0.1,7.1,0,10.6c-0.1,1.8-0.6,3.6-0.7,5.4c-0.3,3.5-0.5,7-0.7,10.5
	c0,0.3,0,0.6-0.1,0.9c-1.6,3-0.1,6-0.3,9.2c1.7-0.8,2.9-2.3,3.2-4.1c0.9-4.1,1.7-8.2,2.5-12.2c0.2-0.6,0.4-1.2,0.7-1.7
	c-0.2-0.8-0.4-1.7-0.5-2.5c0-5.9,0.3-11.9,0-17.8c-0.3-4.8-1.1-9.6-2.2-14.3c-0.5-1.9-1.6-3.7-3-5.1c-0.8-0.8-2.6-0.7-4.2-1
	c1.4-0.1,2.7-0.3,4-0.3c0.4,0,0.8,0.2,1.1,0.5c2.9,3.3,5.8,6.6,8.7,10c0.1,0.3,0.2,0.5,0.3,0.8c-0.6-0.5-1-0.7-1.3-1
	c0.2,1.1,0.4,2.2,0.7,3.4c1.9,0.1,1.7,1.6,1.6,2.9c-0.3,3.1-0.4,6.4-1.4,9.3c-1.2,3.8-0.6,7.4-0.4,11.1s0.2,7.7-1.4,11.4
	c-0.5,1-0.8,2.1-1.1,3.2c-0.1,0.3,0.2,0.7,0.4,1.1c0.4-0.2,1-0.4,1.1-0.8c1.2-4.6,2.4-9.1,3.4-13.8s1.9-9.3,2.8-14
	c0-0.2,0-0.3-0.2-0.6c-0.6,2.3-1.3,4.6-1.9,6.8l-0.5-0.1c0.2-0.9,0.4-1.7,0.7-2.6c1.5-4.6,2.2-9.5,1.9-14.4c-0.1-1.5,0-3,0.3-4.5
	c0.6-4-0.3-7.6-1.7-11.4c-1.1-3-3.4-4.2-5.9-5c-1.4-0.5-2.9-0.2-4,0.8c-2,1.7-4.6,2.5-7.2,1.9c-4-0.7-8.4-0.8-11.7,1.6
	c-1.9,1.4-5.2,3-4.3,6.8c0.1,0.2-0.3,0.5-0.8,1.2c-0.3-3,0.6-5.2,1.8-7.6h-5.1c1.2-1.6,2.3-1.6,3.7-1.5c1.9,0.1,3.9,0.9,5.8-1
	c-1.8-0.1-3.2-0.2-4.6-0.3c-1.1-0.1-2.2-0.4-3.3-0.4c-0.5,0-1,0.4-1.7,0.8c0.3-1.1,0.6-2.2,1-3.4c0.7-2.4,1.1-4.8,2-7.1
	s2.3-4.1,3.1-6.2c1.1-2.5,1.8-5.2,2.6-7.8c0.1-0.5,0.1-0.9,0-1.4l-0.5-0.1c-1.3,3.5-2.6,7-3.9,10.5l-0.5-0.1
	c0.1-0.9,0.3-1.8,0.4-2.8l-0.1,0.1c0.8-2.4,1.6-4.8,2.2-7.3c0-0.9-0.1-1.9-0.4-2.7v0.1l1,0.2l0.7-1.8c-0.1,1.2-0.2,2.4-0.3,3.6h0.2
	l1.7-4.9l0.3,0.1l-0.9,3.9l0.5,0.1c0.1-0.3,0.2-0.5,0.3-0.8c0.9-2.9,1.7-5.9,2.5-8.8c0.1-0.4-0.3-1-0.4-1.5l-0.4,0.1
	c-0.4,1.7-0.7,3.4-1.1,5.5c-0.2-0.9-0.3-1.4-0.5-2.3l-1.9,5.2l2-6.2c0.5-1.5,1.6-2.9-0.8-4.1c-1-0.5-1.6-2-2.4-3l-0.4,0.2
	c0,0.3,0.1,0.6,0.1,0.9c0.8,1.6,0.8,3.5,0,5.1c-0.4,1-0.6,2.1-0.7,3.1c-0.8,3.5-1.6,7.1-2.4,10.6l-0.5-0.1c0.1-0.7,0.2-1.3,0.3-2
	s0.3-1.5,0.4-2.2l2.4-10.3c0.6-2.1,0.3-4.3-0.8-6.1c0.4,6.4-2,12.2-2.5,18.3c-0.2,2.5-1.4,5-2.3,7.4c0.5-2.8,1-5.5,1.4-8.3
	c0.5-3.1,1.1-6.1,1.4-9.3c0.2-2.8,0.3-5.5,0.2-8.3c0-0.5-0.7-1-1-1.5l-0.4,0.2v3.1c0.4-0.5,0.6-0.8,0.9-1.2
	c-0.9,7.1-1.8,14.1-2.7,21H240c0.2-2.2,0.9-4.5,0.6-6.6c-0.5-3.7,0.8-7,1.1-10.6c0-0.7-0.1-1.4-0.4-2c-1.7,5.1-1.7,10.5-3.1,15.7v-8
	c-0.1-0.1-0.2-0.1-0.2-0.1s-0.1,0.1-0.1,0.1c-0.1,0.1-0.3,0.2-0.4,0.3c0.4-2.9,0.7-5.6,1-8.4l-0.6-0.1c-2.1,6.9-1.2,14.3-3.3,21.3
	c0.3-3.2,0.6-6.4,0.8-9.7l-0.5-0.1l-1.2,8.7h-0.3l0.8-13.1l-0.4-0.1c-0.2,0.5-0.4,1.1-0.6,1.6h-0.2l0.2-2.6h-0.5
	c-0.2,1.5-0.4,3-0.5,4.5h0.3l0.7-1c-0.2,2.7-0.4,4.8-0.6,6.9H232v-4.5h-0.5c-0.1,0.7-0.2,1.3-0.3,2h-0.3l0.8-9.6l-0.3-0.1l-0.9,1.5
	c0.4-2,0.6-3.4,0.9-5c-1.1,0.2-2.2,0.5-3.3,0.8c-0.4,0.3-0.7,0.7-0.7,1.2c0,5.5,0.2,11.1,0.2,16.6c0,1.4-0.3,2.7-0.8,4V239l-0.4-0.1
	c-0.3,4.5-0.6,9-0.9,13.5H225v-11.7h-0.5c-0.4,4.2-0.8,8.4-1.2,12.7c-0.5-3.3,0.3-6.6-0.6-9.7c-0.3-3,0.5-6.2-1-9.1
	c-0.6,3.2,0.4,6.6-1.2,9.7v-9.4h-0.7v13.3h-0.8c-0.1-1-0.2-2-0.2-3c0-2,0.1-4.1,0-6.1c-0.2-2.2-0.7-4.4-1.1-6.6
	c-1.6,3.7,0.8,7.5-0.5,11.3l-1.7-13.3l-0.7,0.1l0.8,8.6l-0.5,0.1c-0.1-1.1-0.3-2.1-0.4-3.2H214v4.8c0,0.5,0.2,1.2-0.1,1.4
	c-1.5,1.4-1.1,3.2-1.2,4.9c-0.3,3.8-1.1,7.6-1.3,11.4c-0.1,3.7,0.1,7.5,0.7,11.2c0.3-0.9,0.6-1.8,1.1-3.3c0.3,2.3-1.3,4.6,1.7,5.5
	l-0.8,0.7c1.4,2.2,3.3,0.9,5,0.7c4-0.5,8-1.5,12.1-0.6c0.9,0.1,1.8,0.4,2.6,0.8c-1.4-0.2-2.8-0.2-4.2-0.2c-3.1,0.1-6.3,0.4-9.3,1
	c-2.1,0.6-4.1,1.6-5.7,3c-2.8,2.1-5.9,3.8-9.2,5.1c-1.5,0.7-2,1.9-2.6,3.2c-1,2.2-1.1,4.6-0.2,6.8c0.4,1.2,1,2.4,1.5,3.6
	c0.1,0.2,0.5,0.3,0.7,0.4c0.1-0.3,0.4-0.6,0.4-0.9c-0.2-0.8-0.5-1.6-0.7-2.4l0.6-0.2c0.4,1,1,1.9,1.4,3c1,2.6,3,4.6,5.5,5.8
	c0.9,0.4,1.9,0.6,2.9,0.5c1.3,0,2.6-0.2,4.3-0.4c-1.1,1-1.7,1.6-2.4,2.2c-3.1,2.4-6.8,4.1-8.7,7.8c-1.1,2.1-2.3,4.1-3.5,6.2l0.5,0.3
	l3.4-5.1l0.7,2.3l2.4-3.6l0.5,0.2c-0.6,1.4-1.2,2.8-1.9,4.1c-0.8,1.6-1.7,3.1-2.7,4.6s-1.8,2.7-2.8,4l-0.6-0.4l5.4-8.3l-0.4-0.3
	c-1.3,1.9-2.6,3.8-3.9,5.7l-0.5-0.9l-1.8,2.2l-0.3-0.1l1.4-2.8l-1.4-0.6l2-3.1l-0.6-0.5c-1.3,1.6-2.7,3.2-4,4.9
	c-1.9,2.5-3.9,5.1-5.7,7.7c-2.2,3.3-4.3,6.8-6.5,10.2c-0.2,0.3-0.5,0.6-0.8,0.9c0.4-0.7,0.7-1.4,0.9-2.2c0.1-0.5,0.1-1,0-1.5h-0.6
	l-1.6,4.4l1.4-0.7c-1.6,2.8-0.3,5.6,0.4,8.9c-3.3-3.8-3.1-7.5-1.5-11.4c-3,3.3-3.5,8.6-1,9.7l-1,0.9v0.5l2.3-0.2l1.9,3.8
	c-3.5-1.1-5.1-3.4-6.8-6.4l1.8,0.7c-0.3-1.1-0.6-2.1-1-3.6c-0.9,1.1-1.8,2.2-2.6,3.3c-0.2,0.3,0.3,1.1,0.7,1.5
	c1.2,1.2,2.6,2.3,3.8,3.6c-2.9-1.2-4.5-4.5-8.2-4.4l3.2-2.1l-0.3-0.5c-0.7,0.4-1.4,0.9-2,1.3l-0.2-0.2l1.5-2.1v0.1c1-1,2-2,3-3
	c0.6-0.7,1.3-1.3,2-1.9L180,343l0.7,0.4c2.6-1.6,2.8-4.8,4.4-7l-0.4-0.4c-4,2.5-8,5-12.2,7.6l1.6,1.9c-5.1,0.7-16.2-6-20.9-12.7
	l2-0.4c-0.1,0.6-0.1,1.2-0.1,1.4c3.4,0.1,4.9-2.3,6.4-4.6l0.4,0.4l-0.7,1.2l5.6-2.8l-5.2,4l0.5,0.7c2.9-0.8,4.3-3.8,6.8-5.2
	l-2.2,0.5l7.8-5l0.2,0.4l-4.1,3l0.2,0.4l2.1-1l0.2,0.3c-0.7,0.5-1.5,0.9-2.2,1.4c-1.3,0.8-2.5,1.7-3.7,2.6c-0.7,0.6-1,1.7-1.6,2.4
	c-0.8,0.8-1.6,1.5-2.5,2.1l0.4,0.5l1.9-0.8l0.1,0.2l-2.5,2c-1.4-1.9-2.6-0.1-3.8,0.2l2.7-2.4l-0.6-0.6l-3.5,2.8l0.3,0.4l1.2-0.2
	l1.6,0.4l-1.5,0.9v0.4l2.1,0.1l0.1,1c2.2-1,2.7-4.4,5.7-3.5c-1.4,1.2-2.9,2.5-4.4,3.9c1.7,2,2.3,2,4.2,0.5c2.1-1.7,4.3-3.3,6.5-4.8
	c0.3-0.2,0.9,0,1.2,0l-4.2,4.1l0.5,0.5l6.2-3.6l0.2,0.5c-1.2,1.4-2.4,2.9-3.6,4.3c-0.3,0.3-0.7,0.4-1.1,0.4l1.6-2.4l-0.4-0.4l-5.8,4
	l3.2,1.1l7.9-6.2c3.5,0,4.3-3.8,6.9-5c-0.2,0.3-0.5,0.6-0.7,0.8s-0.5,0.5-1.1,1.1c3.1-0.8,3.9-3,5.2-4.9l-0.5,1.7l0.3,0.2
	c1.1-2,2.2-4,3.3-6l-6.2,4.4l-0.2-0.3l13.5-12.9l-1.5-0.1l-0.5-0.5c0-1.3-0.6-0.5-1-0.3c-1.8,1.3-3.7,2.7-5.5,4
	c-0.6,0.5-1.2,0.8-1.9,0.9c0.5-0.5,1-1,1.6-1.5c3.2-2.4,6.4-4.7,9.6-7.1c1.2-0.9,2.2-1.9,3.1-3c0.5-0.9,1.5-1.5,2.5-1.6
	c0.6-0.1,1.2-1.2,2.1-2.3c-1.8,0.2-2.2,2.9-3.7,1.3l-3.6,3.4l-0.1-0.1c0.5-2.5,2.9-3.6,4.3-5.5c0.7-1,1.6-1.9,2.5-3l-1.1-1.3
	c-0.2,0.1-0.5,0.1-0.6,0.2c-2.5,2.7-4.9,5.4-7.4,8c-0.8,0.7-1.6,1.4-2.5,1.9l-0.4-0.4l1.7-1.8l-0.2-0.3l-1.9,1.2l-0.2-0.2l1.4-2
	l-2.3,1.3l-0.1-0.2l2.4-2.6l-6.9,4c3.2-3.5,8.1-4.9,10.1-9.6l0.4,0.4l-0.8,1.5l0.5,0.3l3.9-5.7l-0.6-0.5c-1,0.9-2.1,1.8-3,2.8
	s-1.9,2.2-2.9,3.3c-0.8,0.9-1.4,2.1-3,1.5c-0.4-0.2-1.1,0.4-2,0.8l2.2-2.7l-1.9,0.3c2.3-2.1,4.5-4,6.6-6l-0.4-0.4l-9.2,7.1l-0.4-0.5
	l2.2-1.8l-0.2-0.3l-1.5,0.8l-0.4-0.4c1.4-1.5,2.8-3,4.3-4.6l-1.1-0.5l1.3-1.8l-1.6,0.4l2.1-2.5l-3.7,2.3c-0.9-2.2,2.9-0.9,1.8-3.1
	l-1.9,0.9l-0.3-0.2c0.9-1.2,1.7-2.4,2.5-3.6c0.2-0.3,0.2-0.7,0.1-1c-0.2-0.2-0.6-0.3-0.9-0.3c-4.2,2.4-9.5,2.1-13.2,5.7
	c-0.2,0.2-0.4,0.3-0.7,0.4c-2.2,0.7-4.3,1.5-6.6,2c-5.2,1.1-10.4,2-15.6,3c-1.1,0.2-2.3,0.3-3.4,0.3l-0.1-0.5
	c2.9-0.6,5.8-1.2,8.6-1.8s6.1-1,9.1-1.7s5.7-1.8,8.6-2.7l-0.1-0.5l-3.9,0.6l-0.1-0.3c0.4-0.2,0.7-0.4,1.1-0.6
	c6.5-1.4,12.8-3.8,18.6-7.1c0.7-0.4,2,0,2.7-0.4c2-1.2,3.9-2.6,4.9-4.8c0.1-0.2,0.1-0.5,0.2-0.5c2.1-0.7,1-1.5-0.2-2.5
	c3.3,1.1,3.1-3.3,5.8-3.3c-0.2,1.2-2.4,2.1,0,3.6c-1.3,0.9-2.5,1.6-3.6,2.3s-1.3,1.6-0.3,2.8c3.5-1.8,8.5-0.5,10.8-5.4
	c-3.4-2.8-5.3-6.5-4.5-11.2c-1.5,1.6-0.6,7,1.4,9.7c-0.7,0-1.4-0.1-2-0.3c-0.4-0.4-0.6-1-0.5-1.6c0.3-1.2,0.2-1.8-1.2-1.7
	c0-3.5,0.6-7,1.9-10.3c1.7-4.7,2.1-9.8,1.1-14.8c-0.3-1.9-0.1-3.9,0.4-5.7c0.1-0.6,0.2-1.1,0.3-1.7l-0.6-0.1
	c-0.2,0.6-0.4,1.1-0.6,1.7c-0.1,0-0.3,0-0.3,0c-0.7-3.8-3-6.8-5-10c-0.9-1.4-2-2.8-0.8-4.6c0.2-0.3-0.1-0.9-0.2-1.7
	c1.3-0.3,2.5-0.5,3.7-0.8c0.3-0.1,0.7-0.2,1-0.3c0.8,0,1.8-0.3,2.4,0.1c2.4,1.5,4.7,3.2,7,4.9c0.4,0.4,0.6,0.9,0.6,1.4
	c0.1,2.5,0,4.9,0,7.4h0.6l0.4-7.1l0.2-0.1c0.2,0.9,0.3,1.7,0.6,3.1l0.5-1.8c0.3,1.4,0.7,3.1,1.2,5l2.1-0.8c0.3,2,0.6,3.9,1,5.8h0.2
	c0.1-1.7,0.2-3.4,0.4-5s-0.4-2.2-2-2c-0.3,0-0.7,0-1,0l-0.1-0.6c1-0.1,2-0.3,2.9-0.3c4.1-0.1,8-1.3,11.5-3.5
	c2.7-1.5,5.2-2.3,7.7,0.3c2.2-0.7,3.3,1.6,4,2.5c1.5,1.8,3.3,3.4,5.2,4.7c2,1.5,4.3,2.6,6.4,4c2.6,1.8,5.1,3.8,7.6,5.7
	c0.2,0.1,0.4,0.4,0.6,0.5c2.7,0.3,2.8,2.5,2.9,4.4c0.3,2.1-0.3,4.2-1.7,5.8c-3.2,3.4-6.1,7.3-9.7,10.3c-2.7,2.3-5,5.4-8.8,6.2
	c-0.3,0-0.5,0.3-0.6,0.8c0.4,0,0.9-0.1,1.3-0.2c3.2-1.1,6.1-3,8.4-5.5c2.5-2.9,5.3-5.6,7.9-8.4c0.9-0.9,1.6-1.9,2.2-3
	c1-1.7,1.9-1.7,3.4-0.5c3.9,3,3.9,7.5,5.2,11.7c1.2,3.9,1.2,7.8,1.5,11.8c0,0.3,0,0.5,0.1,0.8c1.9,3.4,1.5,7.5,4.1,11.2
	c0.1-1.2,0.1-2.4,0-3.6c-0.8-4.3-1.8-8.6-2.5-13c-0.4-2.1,0.3-4.5-0.3-6.5c-0.9-3.1-2.5-6-3.6-9.1c-0.6-1.6-1.7-3-3.2-4
	c-0.6-0.7-1.2-1.4-1.6-2.2c1.5,0.9,3,2,4.3,3.2c1.2,1.5,2.3,3.1,3.1,4.7c0.4,0.8,0.7,1.6,0.9,2.4l0.6-0.1c0-0.6-0.1-1.3-0.3-1.9
	c-1.4-2.7-2.8-5.4-4.2-8.1c-0.1-0.2-0.3-0.4-0.5-0.6c-1.9-1.8-3.7-3.7-5.6-5.5c-0.2-0.2-0.4-0.3-0.6-0.5c-1.9-2.9-5.3-4-7.2-6.9
	c-0.2-0.4-0.9-0.4-1.4-0.6l-0.4,0.6c-4.6-4.7-9.2-9.4-13.9-14c-2.5-2.4-4.9-4.8-8.7-5.6c-2-0.3-3.9-0.8-5.8-1.5
	c-3.1-1.3-5.9-3.1-9-4.4c-5-1.9-9.6-5.3-15.3-4.6c-0.6,0-1.1,0.1-1.7,0.2c-5,1.6-9.9,3.3-14.9,4.9L193.6,214.7z M235.1,109l-1.7-0.4
	l-0.2,0.4l2.5,2l-1.2,0.2l1.5,2.1l-0.2,0.3l-3-1.8c0.1,1.3,1.3,2.3,2.6,2.3c0,0,0.1,0,0.1,0c1.4,0,1.3-1.1,1.5-2.2
	c0.2-1.7-0.9-2.3-2-3l1.8,0.1c-0.2-1.4-0.5-2.6-0.7-3.8l0.1-0.1l-0.4-1.9l-1.9,2.4C234.3,106.7,234.7,107.8,235.1,109z M238.1,229.8
	v-0.9c-2.1,0.3-1.7,1.8-1.7,3.4L238.1,229.8c1.3,1.2,0.8,2.7,0.8,4.1c0,1,0,2,0,3c0.5-1.9,0.9-3.8,1.1-5.8c0.1-0.3,0.3-0.6,0.5-0.9
	c0.4-0.5,0.7-1,1-1.5c0.1-0.3-0.3-1.1-0.4-1.1c-0.6,0-1.2,0.1-1.7,0.4C238.9,228.6,238.4,229.1,238.1,229.8L238.1,229.8z
	 M260.1,241.2c-0.2,1.1-0.5,2.1-0.8,3.6c0.8-0.3,1.7-0.4,1.9-0.8c0.3-0.8,0.4-1.7,0.3-2.5C261,241.4,260.5,241.3,260.1,241.2l-4.8-4
	l-0.6,0.4c0.1,0.9,0.2,1.8,0.4,3l0.8-1.5c0.7,1.8,1.3,3.5,2,5.4c0.2-0.6,0.5-1.2,0.8-1.8C259.2,242.2,259.6,241.7,260.1,241.2
	L260.1,241.2z M234,168l1.9,0.9l0.4-0.2l-3-7l-0.4,0.1c0.2,0.7,0.3,1.5,0.6,2.4l-5.8-7.6l-0.6,0.4l6.6,9.6l-1.1-0.1L234,168
	c-1.3-0.1-0.9,0.7-0.4,1.2c1.2,1,2.5,1.9,3.7,2.8l0.3-0.4c-0.5-0.6-1.1-1.2-1.6-1.7S234.7,168.6,234,168L234,168z M258.9,312
	l-0.9-1.4c0,2.8,0,4.9,0,7c0,3.3,0.8,6.7-0.7,9.8c-0.2-2.6-0.4-5.3-0.6-8c-0.4,2.8-0.5,5.7-0.4,8.5c0,2,0.3,4,0.4,6.1
	c0.1,1.2,0,2.5,0,3.8v3.6h0.5c0.2-0.5,0.3-1.1,0.4-1.6c0.4-7.5,0.8-15,1.2-22.4C258.7,315.5,258.8,313.7,258.9,312
	c0.1-0.4,0.2-0.6,0.3-0.9c0.6-5.2,0.2-10.5-1.4-15.6c0,1.3,0,2.1,0,3c0.2,3.5,0.5,6.9,0.7,10.4C258.6,309.9,258.8,311,258.9,312z
	 M261.5,323.8c1.6-4,1-8.2,0.9-12.3h-0.6C261.7,315.6,261.6,319.7,261.5,323.8c-0.5,2-0.9,4.1-1.4,6.1c0-3.2,0.5-6.3,0.5-9.4
	s-0.2-6.1-0.3-9.2c-0.7,1.6-1.2,3.3-1.3,5c-0.2,5-0.2,10,0.2,15c0.1,1.9-0.1,3.7-0.5,5.5c-0.3,1-0.5,2.1-0.7,3.1
	c-0.1,1.7,0,3.4,0,5.1l0.7,0.2c0.3-0.6,0.9-1.2,0.9-1.8c0.1-2.2-0.1-4.5,0.2-6.8c0.4-3,1.3-5.9,1.8-8.9
	C261.8,326.5,261.7,325.2,261.5,323.8L261.5,323.8z M228.1,343.1c0.8-2.9,1.5-5.9,2.3-8.8c0.3-1,0.4-2.1,0.6-3.1
	c-1.8,4-4.1,7.8-3.7,12.6L228.1,343.1c-2,4.9-4.8,9.6-4.4,15.2l2.1-5.9l0.2,0.1c-0.8,3.2-1.6,6.5-2.4,9.7l6.7,0.8
	c0.1,0,0.5,0.4,0.8,0.4c2.3-0.2,4.6-0.6,6.9-0.9c1.9-0.3,3.8-0.6,4.7-2.8c0.4-0.7,1-1.3,1.7-1.8c3.4-2.4,6.8-4.6,10.1-7
	c1.9-1.4,4.1-2.4,5.2-4.7l-0.4-0.5l-4,2.9c0.3-1.9,0.5-3.5,0.7-5.2l0.5,0.1c-0.1,0.9-0.2,1.8-0.3,2.9c1.5-1.4,1.6-2.6,0.4-3.7
	c-0.4-0.4-0.6-0.9-0.8-1.4c-0.2-1-0.3-2.1-0.4-3.1h-0.2l-0.8,11.1h-0.2v-7.2l-0.2-0.1c-0.4,1.5-0.8,3-1.2,4.7l-0.8-1.4l-0.5,0.1v4.2
	H251V342c-1.6,1.5-0.6,3.7-1.5,5.5c-0.2-5.5-0.4-10.7-0.6-16h0.5c0.1,2.2,0.2,4.5,0.4,7.3c0.5-0.9,0.9-1.3,0.9-1.7
	c0.3-2.8,0.5-5.7,0.5-8.5c-0.1-3.1-0.5-6.3-0.9-9.4c-0.1-2.2-0.5-4.4-1.2-6.5c-0.6-1.2-1-2.6-1-4c0.1-1.8-0.1-3.7-0.2-5.5h-0.6v4.1
	H247c-0.3-1.4-0.6-2.8-0.9-4.1c-0.2,1.8-0.7,4.1,0.3,5.2c1.9,2.1,0.5,4.5,1.6,6.6l-0.6,0.2c-0.4-1.2-0.9-2.5-1.3-3.7l-0.2,0.1
	l1.6,10.1l-0.7,0.1c-0.8-4.3-1.5-8.5-2.3-13l1.3,0.5c-0.3-2.6-0.6-4.9-0.9-7.4l-1.3,0.6c-0.2-1.6-0.4-3-0.6-4.4h-0.5
	c-0.1,0.8-0.1,1.7,0,2.5c0.4,2.3,0.9,4.7,1.3,7c1.1,5.2,2.1,10.4,3.2,15.6c0.3,1.5,0.5,3,0.7,4.8c-0.5-0.2-0.9-0.2-0.9-0.3
	c-1.4-5.6-2.7-11.2-4-16.8h-0.5l1,10.2l-0.5,0.1l-3.7-14.4l0.2-0.1c0,0.7-0.1,1.5-0.1,2.2h-0.4c-0.1-2.3-0.3-4.6-0.4-6.9l-0.7,0
	c0.2,2.7,0.4,5.5,0.7,8.4l-1.2-1.7c-0.1,0.5-0.1,1-0.1,1.5c1.1,4.9,2.2,9.7,3.3,14.6c0.5,1.7,0.9,3.5,1.3,5.3
	c0.9,7.3,0.8,14.7-0.1,22c-0.8,6-2.2,7.5-7.1,8.3l3.6-15.8l-0.8-0.2c-1.7,5.4-3.3,10.8-4.9,16.2c0.1-2.7,0.4-5.4,0.9-8
	c0.1-0.8,0.6-1.7,0.3-2.4c-0.7-2.1,0.4-3.8,1-5.6c0.4-1.2,0.8-2.4,1.2-3.5l-0.8-0.3c-1.2,3.5-2.3,7-3.6,10.5
	c-0.5,1.3-1.2,2.6-1.8,3.9l-0.3-0.2l2.4-8.5l-0.7-0.2l-1.2,2.4c2-5.7,1.3-12,4.5-17.4c-0.8,3.9-1.6,7.7-2.3,11.5
	c3.4-2.6,4.6-6.1,4.8-12c-0.8,2.1-1.5,4-2.2,5.8c0.1-1.8,1-3.8,0.6-5.2c-0.8-2.4,0.8-3.8,1.2-5.6c0.1,0.8,0,1.5-0.1,2.3
	c-0.1,0.7-0.1,1.5-0.2,2.2c1-3.2,3.8-5.9,2.2-9.6l-1.3,4.1c-0.2-3,1.8-5.9,0.2-8.9c-0.5,1.7-0.6,3.5-1,5.2s-0.9,3.5-1.4,5.3
	c-1.1,4.3-1.1,4.3-2,4.7c0.9-3.5,1.8-6.8,2.8-10.3l-1.1,0.2l2.5-7.3l-0.2-0.1l-1.1,1.9c0-0.3-0.1-0.5-0.2-0.8
	c-0.1-0.1-0.2-0.1-0.4-0.2c-0.6,3-1.2,6-1.8,8.9l0.6-0.5c-0.2,0.9-1,1.5-1.1,2.2c-0.3,2.7-0.4,5.4-0.7,8c-0.1,1,0,2.5-0.6,2.9
	c-1.3,0.9-1.2,2-1.3,3.2c-0.1,1.8-0.8,3.4-0.3,5.4c0.5,2.4-0.8,5.3-1.3,7.9c-0.4,2-0.7,4-1.1,5.9c0,0.2-0.1,0.3-0.2,0.8l-0.4-1.6
	c-0.3,0.7-0.5,1-0.7,1.4c0.4-2.3,1.2-4.6,1.5-6.9c0.1-1.7,0.3-3.4,0.8-5C228.4,345.9,228.1,344.5,228.1,343.1L228.1,343.1z
	 M216.1,95.2c-0.8,0.7-1.8,1.2-2.1,2c-1,2.3-2,3.1-4.3,2.7c-0.1,0-0.2,0.1-0.3,0.2l0.7,1.8l-2.1-1.9l-0.4,0.3l1.2,2.7l-1.6-1.2
	l-0.3,0.2l0.7,2l-0.3,0.2l-1.8-2.1l-0.3,0.2c0.6,1.2,1.2,2.3,1.9,3.6l-3,0.3c0.5,1.3,1.1,2.5,1.7,3.9c0.1-0.1-0.1,0.1-0.3,0.3
	c-2.1,2.1-2.1,2.2,0.1,4c3.1,2.6,6.4,5.2,9.5,7.7c1.5,1.2,3,2.5,4.9,4.1c0.3-3.2,0.1-5.9,0.8-8.5l0.5,0.1l0.1,1.4
	c1.2-0.5,2.2-0.9,0.7-2c0.2-0.1,0.4-0.4,0.5-0.3c0.8,0.6,1.5,1.1,2.2,1.7l0.5-0.4c-1-1.1-2.1-2.2-3.1-3.2l1.1-0.5l-1.9-1.5l0.2-0.4
	l2.4,1.1l0.4-0.5l-2.8-3l1.1,0.2c0.4,0.1,0.8,0.1,1.2,0.2c-0.1-0.4-0.3-0.8-0.5-1.2c-0.6-0.6-1.1-1.1-1.8-1.6l0.3-0.4l2.5,1.8
	l0.4-0.4c-0.6-0.8-1.2-1.6-1.9-2.2c-0.8-0.7-1.7-1.3-2.6-1.8l1.3-1.2l-1.4-0.7c0.4-0.4,0.6-0.8,0.9-1.3c0.7-2.2,1.3-4.4,2-6.6
	c0.3-0.9-1-3.5-1.8-4c-1-0.6-2.4-1.2-2.7-2.1c-0.7-1.9-1.9-3.7-3.3-5.1v3.5c1.8,1.2,2.2,4.4,5.1,4.6v1.8c-1.9-0.6-4,0-5.2,1.6
	L216.1,95.2z M250.7,224.8c-0.1,0.3-0.2,0.6-0.3,0.9c4,2.1,8.5,3.1,12.5,5.2l-5.6-1.6L257,230l9.5,4l-0.1,0.2l-3-0.9
	c0,0.5,0.2,0.7,0.4,0.8c1.3,0.7,3.3,1,3.9,2.1s1.7,1.7,2.3,2.8c0.7,1.4,2.7,2.2,4.1,3.3c0.5,0.4,1.6,1,1.5,1.1
	c-0.7,1.8,0.9,2.2,1.7,3.3l0.1-1l4.3,4l0.4-0.2c-0.4-1.5-1-2.9-1.7-4.3c-1.3-2.1-3.1-4-4.3-6.2c-0.9-1.6-2.4-2.1-3.8-2.8
	c-0.6-0.4-1.2-0.8-1.7-1.4c-0.6-0.6-1-1.7-1.8-2c-3.9-1.9-7.1-4.9-11.3-6.1C255.2,226.2,252.9,225.5,250.7,224.8L250.7,224.8z
	 M252.5,243.5l-0.7-0.1c-0.1,1.2-0.4,2.3-0.7,3.5c-0.9,2.6-1.9,5.1-2.8,7.7c-0.8,2.1-1.5,4.1-2.4,6.2c-1.2,3-2.4,5.9-3.5,8.9
	c-0.1,0.7-0.1,1.4,0.1,2.1c0.4-0.5,0.8-1.1,1.1-1.8c1-2.8,2-5.7,2.9-8.5l0.8,0.3c-0.1,0.6-0.3,1.3-0.5,1.9c-1.4,2.2-2.7,6.6-2.3,8.6
	c1.6-2.8,0.8-6.4,4-8.4c-0.9,2.7-1.7,5.1-2.6,7.5l0.5,0.2l0.9-1.3c0.1,0.5,0.2,1,0.2,1.4h0.5c0.2-1,0.4-2,0.8-3.4l-1,1l-0.3-0.2
	l2.2-4.1l0.5,0.2l-0.8,3.2l0.6,0.2l3.8-9.9l-0.6-0.2l-1.5,3.3l-0.3-0.1v-4.1c-0.9,2-1.6,3.6-2.3,5.2l-0.4-0.2l1.7-5.6l-1.1-0.3
	l-1.3,4.8c-1.1-1-0.4-2.3,0-3.5c1.3-3.8,2.8-7.5,4.1-11.3C252.5,245.6,252.5,244.6,252.5,243.5L252.5,243.5z M238.5,325.4l-0.9,4.5
	l0.5,0.2c0.6-0.6,1.1-1.3,2-2.3v4.4h-0.4l0.1-1.7h-0.2l-5.4,18.1l0.7,0.2c1.5-5.1,3-10.3,4.5-15.1c0.1,0.9,0.4,1.8,0.8,2.6
	c1.1,1.5,0.3,2.8-0.4,4.2l0.5-2.9l-0.5-0.1c-0.6,1.7-1.1,3.3-1.7,5l0.5,0.2l1.2-1l-0.6,3.4c3.7-7,2-13.5,0-19.9
	c0,0.5,0.1,1.1,0.2,1.8C239.2,326.5,239,326.2,238.5,325.4L238.5,325.4z M285.1,283.8h0.7c0.6-3.4,0.6-7-0.1-10.4
	c-0.4-1.6-0.1-3.4,1-4.1v6.2c1.6-2.2,1.7-2.9,1-4.5c-0.2-0.5-0.3-1.1-0.4-1.6c-0.8-2.7-1.4-5.5-2.4-8.1c-0.5-1.2-1.6-2.2-2.4-3.3
	c0,0.9,0.3,1.8,0.7,2.6c1.4,3,2.5,5.9,1.8,9.5c-0.5,2.9-0.3,6-0.3,9.1C284.7,280.6,285,282.2,285.1,283.8z M250.2,305.1l-0.6,0.1
	c0.7,7.2,1.4,14.4,2.1,21.6h0.8c-0.4-4.1-0.8-8.1-1.2-12.2h0.3l0.2,2.4h0.3c0.1-0.4,0.1-0.8,0.2-1.1h0.2l0.6,11.6l0.9-0.1
	c-0.6-6.1-0.4-12.3-2.1-18.4l0.3,4.5h-0.3l-0.5-2.4l-0.5,1.2C250.8,309.6,250.5,307.3,250.2,305.1L250.2,305.1z M228.9,98.3v-0.6
	l-5.1-3.4v2.4c-2.2,0.6-0.4,2.9-1.4,4c-0.1,0.3-0.1,0.6,0,0.8c1.2,1.3,2.4,2.6,3.5,3.7c-0.1-1-0.2-2-0.3-3.1l1.6,0.3
	c-0.8-1-1.3-1.6-1.8-2.2l0.2-0.3l2,1.1l0.3-0.2l-1.6-2.6L228.9,98.3z M248,220.2c-6.3-1.1-11.1-5.4-16.8-7.7
	c0.1,0.4,0.1,0.6,0.1,0.6c3.5,2,7.1,4.1,10.6,6c1.5,0.9,3.7,1.2,4.6,2.4c1.8,2.5,4.4,1.5,5.8,2.2l-5.2-5.6L248,220.2z M272.2,304.7
	l0.5,0.2c0.4-0.6,1.1-1.2,1.1-1.8c0.1-5.2-0.2-10.4-2.4-15.2c-0.2-0.5-0.8-0.9-1.2-1.3l-0.4,0.3c0.6,3.1,1.2,6.2,1.8,9.2
	C272.1,299,274,301.6,272.2,304.7L272.2,304.7z M238.8,346.6c-1.1,4.2-2.2,8.5-3.2,12.8c1-0.4,2.4-0.3,2.4-2.7s1.6-4.7,2.2-7.2
	c0.6-2.2,0.9-4.5,1.3-6.7l-0.6-0.1c-0.6,1.6-1.2,3.2-1.9,5.1C238.9,347.2,238.9,346.8,238.8,346.6z M254.2,311.9h0.1v17.9l-0.5-0.6
	l-0.6,7.7h0.8c2-6.9,1.2-13.9,1-20.9l0.5,1.3v-5.9h-0.3c-0.1,0.8-0.3,1.6-0.4,2.4h-0.3L254.2,311.9z M255.9,211.2
	c2,0.1,2.3-0.2,1.7-1.5c-0.3-0.6-0.7-1.5-1.2-1.6c-2-0.6-2.8-2.6-4.5-3.5c-0.4-0.2-0.9-0.5-1.3-0.8l-0.3,0.5l2.9,2.2l-0.3,0.4
	l-4.3-1.9c1.5,2.2,4.5,2.1,5.9,4.5c0.4,0.6,1.6,0.7,2.6,1.1L255.9,211.2z M288.2,253.7c1.5-1.4,1-2.8,0.3-3.9
	c-2.1-3.8-4.3-7.5-6.6-11.2c-0.4-0.7-1.4-1.1-2.2-1.7c3.1,5.2,6.2,10.2,9.2,15.2l-0.4,0.3l-1.1-0.6L288.2,253.7z M232.4,94.8
	c0-1.6,0.1-2.9,0-4.1c-0.1-0.5-0.4-0.9-0.9-1.1c-1.8-0.3-3.6-0.4-6-0.6L232.4,94.8z M256.9,263.6l-0.3-0.1c-0.6,0.8-1.6,1.5-1.7,2.3
	c0,2.1-1,4.1-2.8,5.4c-0.1,0.1-0.1,0.3-0.1,0.4l0.4,0.4c2-1.9,3.9-3.8,6-5.8c1.4,0.3,2-0.9,2.2-2.5l-2.2,1.5l-0.6-0.8
	c-0.5,0.9-1,1.7-1.4,2.5l-0.3-0.1L256.9,263.6z M223.8,120.4l0.2-0.7c-0.6-0.1-1.4-0.5-1.6-0.2c-0.6,0.6-1,1.3-1.3,2.1
	c-0.2,0.5,0.1,1.2,0,1.7c-0.5,3.7,1,6.6,4.1,7.8c-0.7-1-1.3-2.1-1.9-3.1c-0.6-1.2-0.9-2.5-1.4-3.8l1.4-1.4l-1.2-0.6l0.8-1.9
	L223.8,120.4z M241.1,179.5l-0.3,0.3c2.1,4.3,4.2,8.5,6.2,12.8l0.4-0.2c-1.4-3.4-2.6-6.9-4.1-10.2
	C242.7,181.1,241.9,180.2,241.1,179.5z M267.1,248.9c2.1-2.2-0.7-5.4-4.3-6.1v1.7l0.5-0.3L267.1,248.9z M249.5,270.9
	c3.9-2.5,5.6-7.4,5-9.5L249.5,270.9z M222.4,161.2c-2-6.1-2-6.1-3.1-6.4C219.1,158.9,220.2,161.2,222.4,161.2z M253.4,353.5
	l-0.4-0.8l-10.1,7.4l0.4,0.6L253.4,353.5z M197,61.7c-0.7,2.4,0,5,2.2,7.3C199.6,66.7,198.9,64.2,197,61.7z M227.5,131.1
	c-1.3-2.2-0.4-5.2-3.8-5.9C224.1,127.7,224.5,129.9,227.5,131.1L227.5,131.1z M196.2,70.2c-0.8,3.1,1.2,4.8,2.6,6.8
	C199.4,74.2,197.6,72.3,196.2,70.2z M258.2,255.5c2.5-3.1,1.1-6.3,1-9.3c-1.5,1.9-1.6,3.3-0.4,3.4
	C258.6,251.4,258.4,253.3,258.2,255.5L258.2,255.5z M216.4,145.3c1.6-5.3,1.6-5.3-0.5-7.3C216.1,140.7,216.2,143,216.4,145.3z
	 M236.6,176.3l0.5-0.6c-1.9-2.1-4.5-3.3-6.8-4.8l-0.5,0.8L236.6,176.3z M239.1,176.2c-0.7-2.8-2.9-4-5.2-5.9
	C234.4,173.9,237.4,174.4,239.1,176.2L239.1,176.2z M212.5,351.5c-3.2,5.2-3.2,5.3-1,6.2C211.8,355.6,212.2,353.6,212.5,351.5z
	 M217.5,173.2c-1.8-1.6-1.8-4.6-4.3-6.1C213.3,170.3,214.9,172.1,217.5,173.2L217.5,173.2z M230.1,198.8l-2.1-2.9
	c0,3.3,1.4,4.6,4.4,4.5l-1.1-1.4l1.2,0.1v-0.5L230.1,198.8z M220.8,149.5l1.1-2.3l-2.2-3.7l-0.6,0.4l1.8,2.9
	c-0.7,0.3-1.5,0.4-1.7,0.8C218.8,149,219.7,149.4,220.8,149.5L220.8,149.5z M272.1,223.3c-0.2-2-4.5-4.2-7.2-3.6L272.1,223.3z
	 M254.2,236.8c-1.8,0.1-2.5,4-1,6.9C253.6,241.2,253.9,239,254.2,236.8L254.2,236.8z M231.8,189.1c-2.2-1.7-3.5-4.6-7.1-4.8l4.3,2.5
	l-0.2,0.4l-2.5-1.1l-0.2,0.6L231.8,189.1z M270.2,326.1c-0.5,2.1-1,4.1-1.6,6.4C270.5,332,271.1,329.4,270.2,326.1L270.2,326.1z
	 M230.9,96c0.1-2-0.8-2.9-3.2-3.3c0.2,1.2,0.5,2.3,0.7,3.4l0.5-0.1l-0.3-2.2l0.4-0.1l1.1,3.3l0.3-0.1c-0.1-0.6-0.2-1.2-0.3-1.8h0.2
	L230.9,96z M264.1,324.7l-1.1-0.2l-1.2,7.2l0.7,0.1C263,329.5,263.5,327.1,264.1,324.7L264.1,324.7z M250.3,256.4l1,0.2
	c-0.5-2.9,2.6-4.9,1.3-8L250.3,256.4z M277.2,232.9l-0.5,0.5l3.9,3.4C280.7,234.2,279.2,233.3,277.2,232.9z M269.7,247.7v7.6
	C271.2,254,271.4,249.9,269.7,247.7L269.7,247.7z M226,196.7l-0.6,1.3l1.6,0.6c0.1-0.8,0.4-1.7,0.2-2.3c-0.6-1.3-1.1-1.4-2.2-0.7
	L226,196.7z M207.4,226.8l-0.6,0.2c0.9,2.6,1.9,5.2,2.8,7.9l0.6-0.2C209.3,232,208.3,229.4,207.4,226.8z M213.5,230.1h-0.9l0.4,6
	h0.5V230.1z M252.1,258.1l1,0.1l0.6-5.4l-0.8-0.1C252.6,254.5,252.4,256.3,252.1,258.1z M252.1,335.6l0.4,0c0.1-2.5,0.3-5.1,0.4-7.6
	h-0.9V335.6z M261.2,336.2h-0.6c-0.1,0.3-0.1,0.6-0.1,0.9c0.1,1.8,0.3,3.5,0.5,5.4C263,340.4,260.9,338.3,261.2,336.2L261.2,336.2z
	 M214.9,151.5l-0.5,0.4l4,6l0.6-0.4L214.9,151.5z M252.1,343.8c2.4-3.7,2.6-4.7,1.6-6c-0.2,1.1-0.4,2.1-0.7,3.1
	S252.4,342.9,252.1,343.8z M258.6,209.3c-0.1,2,0.8,2.9,2.8,3.2C261.3,210.7,259.7,210.4,258.6,209.3z M214.8,175.3l-0.3,0.3
	l3.2,2.4l1.3-1.4L214.8,175.3z M262.3,338.3h0.8l0.4-5.4l-0.7,0C262.6,334.8,262.5,336.6,262.3,338.3L262.3,338.3z M230.2,146.8
	c0.9-1.6,0.4-4.9-1.1-6.1C229.6,142.9,229.9,144.8,230.2,146.8z M262,216.1c0.4-2.3-0.2-2.9-2.9-2.8L262,216.1z M255.6,250.2
	l0.6,0.1c0.1-2.3,0.3-4.7,0.4-7l-0.7-0.1L255.6,250.2z M223.5,241.9h0.3l0.3-6h-0.7V241.9z M280.4,251.6c-0.5-2.5-2.2-3.3-3.9-4.2
	l-0.3,0.4L280.4,251.6z M226.1,199.7v-0.4l-3.6-0.2c0.7,1.3,1.1,2,1.5,2.7c0.2,0,0.4-0.1,0.6-0.2c-0.1-0.6-0.3-1.1-0.4-1.7
	L226.1,199.7z M166.6,341.9c2.1,0.2,3.1-0.9,3.3-2.9L166.6,341.9z M271,311.5l0.7,0l0.7-5.4l-0.7-0.1L271,311.5z M281.1,254.6
	l-0.5,0.6l3.3,3l0.6-0.6L281.1,254.6z M256.2,298.5h-0.7c0.1,2.6,0.2,5.1,0.3,7.7h0.3V298.5z M253.2,302.3l-0.6,0.1
	c0.2,2.2,0.3,4.3,0.5,6.5l0.6,0L253.2,302.3z M234.1,191.5l0.3-0.7l-5.1-1.9l-0.2,0.6L234.1,191.5z M287,253.1l-0.6,0.3
	c0.9,1.8,1.7,3.6,2.6,5.4l0.5-0.2L287,253.1z M198.8,38.4l0.8-0.1l-0.4-4.4l-0.8,0.1C198.6,35.5,198.7,36.9,198.8,38.4z M198.6,51.3
	l0.7-0.1l-0.8-5.4l-0.5,0.1L198.6,51.3z M200.2,57.1h0.4v-6.3h-0.4V57.1z M199,60.1l0.5-0.1l-1.6-5.3l-0.6,0.2L199,60.1z
	 M264.4,236.9c0.7,2.4,2.7,1.8,4,2.7l0.3-0.6L264.4,236.9z M275.7,327.9l-0.8-0.3c-0.2,0.9-0.4,1.7-0.7,2.6s-0.6,1.5-1,2.3l0.6,0.2
	C274.4,331.1,275,329.5,275.7,327.9L275.7,327.9z M235,202.1l-0.3,0.6l3.4,1.8c0.1-0.3,0.3-0.6,0.4-0.9L235,202.1z M240.3,353.7
	l-0.9-0.2l-1,3.3l0.9,0.3C239.6,355.9,240,354.8,240.3,353.7L240.3,353.7z M224.4,106.9l0.6-0.7l-2.7-2.2l-0.6,0.7L224.4,106.9z
	 M235,208.1l0.5-0.8l-2.3-1.8l-0.4,0.5l1.3,0.6l-1.1,0.4v0.4L235,208.1z M272.7,231.3l-0.6,0.6l3.8,3.5l0.4-0.4L272.7,231.3z"/>
<path class="st1" d="M136.1,247.5c-0.7,3.4-1.5,6.8-2.1,10.1c-0.5,2.4-0.7,4.9-0.7,7.3l1-5.2h0.4c-0.2,1.2-0.3,2.4-0.5,3.6
	c-0.1,1.4-0.3,2.8-0.3,4.1s-0.3,2.7,1.3,3.4c-0.1-1.5-0.3-2.7-0.4-4.1l1.4-0.3l-0.9-2.2h1.2c-0.4-0.9-0.7-1.9-0.9-2.9
	c0-1.1,0.2-2.1,0.5-3.1l16.2,13.2l-0.3,0.4l-14.9-11.9c-1.4,1.5-0.4,3.7,3.4,7.9l-3-2c0.2,0.8,0.1,1.2,0.4,1.5c1.3,1.7,3,3,5,3.8
	c2,1,3.7,2.4,5.1,4.2l-11-6.6l-0.3,0.3l5.5,5l-1.2,0.6c2.9,1.9,5.6,4,8.2,6.2l-0.5,0.5l-11.5-8.2l-0.4,0.4l4.3,4l-0.5,0.5l-4-3
	l-0.3,0.4c2.6,2.7,5.9,4.6,9.2,6.5c-1,0.6-1,0.6-3.7-1.4l0.1,1.4l-3.2-2.6l2.2,1l0.1-0.2l-4.7-3.7l-0.4,0.5l2.9,2.5
	c-0.4,1-0.7,2-1.3,3.5c1.8-1.2,2.6-0.5,3.6,0.6c1.4,1.4,3.1,2.5,4.4,4.1c-1.1-0.7-2.2-1.5-3.4-2.2c-0.5-0.3-1.3-0.5-1.6-0.2
	c-0.4,0.5-0.7,1.1-0.8,1.8c0,0.4,0.1,0.9,0.2,1.3l-0.6,0.1c-0.1-0.7-0.3-1.3-0.5-2c-0.3-0.6-0.5-1.1-0.9-1.7l-0.7,0.2
	c0.1,1.4,0.1,2.7,0.2,4.1l-1.1-0.8l-0.3,0.4l1.9,1.5l-2,0.1c0.4,2.9,0.8,3.3,2.2,2.3c1.5,2.6,4,2.5,6.4,2.5c1-0.1,2.1-0.1,3.1,0.1
	c4.2,1.2,8.1,0.2,12.1-0.9c0.6-0.2,1.3-0.2,1.9-0.2c-6.6,3.2-13.6,2.2-20.5,1.6l-3.8-0.6c0.1,1.2,0.7,2.9,0.3,3
	c-1.6,0.9-0.4,1.6-0.2,2.9c0.2-0.9,0.5-1.7,0.8-2.5c0.7-1.2,0.9-2.9,2.8-2.8c2.1,0.5,4.2,1,6.4,1.3c1.1,0.1,2.2,0.1,3.3,0l0.1,0.7
	c-1.4,0.3-2.9,0.5-4.3,0.8c-1.1,0.3-2.2,0.6-3.3,1l0.1,0.8h8.5v0.2l-7,1.3l0.1,0.7l5-0.6l0.1,0.4L148,303l0.1,0.3l2.8-0.4l0.1,0.2
	c-0.8,0.4-1.6,1.1-2.4,1.1c-1.4,0-1.7,0.5-1.9,1.9l8.4-1.5l0.1,0.4c-1.8,0.4-3.5,0.7-5.3,1.1c-1.4,0.3-1.9,1.1-1.3,2.2l4.2-1.3
	l0.3,0.6l-4.7,2.4l0.1,0.2l5-1l0.1,0.3l-5.7,1.7l0.2,0.8l2.2-0.6c0.1,0.7,0.3,1.5,0.5,2.5l2-0.4l0.1,0.2l-2.4,1.2l0.1,0.5l6.2-1.7
	l0.1,0.4l-3.6,1.4l0.3,0.7l7.5-2.6l0.1,0.3l-8,3.7l0.9,2l7.1-2.9l0.2,0.4l-12.5,6.7l0.4,0.8c6.1-2,11.3-5.8,17.1-8.4
	c-3.6,2.3-7.3,4.4-9.6,8.4l3.6-2.1l0.3,0.3l-4,3.2l0.4,1.8c2.7-1.1,4.5-3.6,7.2-4.5l0.3,0.4l-9.8,6.8l1.1,0.6
	c-0.6,1-3.6,1.3-4.7,0.4c-2.1-1.6-4.2-3.3-6.4-5c-0.1-0.1-0.2-0.2-0.3-0.3c-0.5-1.1-1.3-2-2.3-2.5c-1.7-1.2-3-3-3.6-5
	c-1.2-3.3-2.1-6.7-2.6-10.2c-0.5-4.2-1.5-8.3-3.2-12.2c-1.6-3.5-2.1-7.6-2.9-11.5c-0.6-2.6-0.9-5.3-1.4-7.9
	c-0.4-2.3-0.5-4.9-1.6-6.8c-1.5-2.6-0.8-5.4-1.4-8c0.2,0.9,0.4,1.8,0.7,2.7c0.1-0.1,0.3-0.1,0.3-0.1c0.3-5.1,0.4-10.2,0.8-15.2
	c0.2-3,1.1-6,1.1-9.1c0.1-6.1,2.5-11.7,4.3-17.3c1.6-5,4.1-9.7,6.2-14.5l0.6,0.3c-1.7,3.9-3.6,7.7-5.1,11.6s-2.6,8.1-3.9,12.2
	l0.5,0.2c0.5-1.6,1-3.1,1.6-4.6c0.3-0.7,1.1-1.2,1.4-1.9c0.6-1.2,1.1-2.4,1.6-3.6c0.3-0.5,0.6-1,1-1.5l0.8,0.5
	c0.6-1.2,1.3-2.4,1.9-3.7l-0.4-0.2l-2.3,3.5h-1.5c1.2-2.5,7.2-7.3,11.6-8.9l-6.5,4.7l0.4,0.5c1.3-1,2.7-2,4.1-2.9
	c1.3-0.7,2.7-1.3,4.2-1.8c1.5-0.6,3-0.9,3.1-2.9l-4.1,2c5.3-4,11.3-6.9,17.7-8.6l-2,1.4l0.3,0.2l8.5-2.6l-0.7,1.8l2.1-0.5l0.2,0.4
	l-3,1.3l0.1,0.4c1,0,1.9-0.2,2.8-0.6c0.7-0.7,1.4-1.4,1.9-2.3h-2l10.9-3.8l-0.2,1.1c2.1-1.7,5.2-1.3,6.8-3.7
	c0.2-0.4,1.2-0.3,1.8-0.4s0.7-0.3,0.7-1.1c0-0.2,0.1-0.4,0.2-0.5c0.8-0.4,1.9-1.2,2.4-1c1.8,0.9,2.9-0.9,4.4-0.8
	c1.8,0.2,3.5,0.6,5.3,0.9c0.7,0.1,1.5,0.2,2.2,0.3l0,0c-1.1,0.2-2.1,0.3-3.2,0.3c-2.6-0.3-5.1-0.9-7.5,0.5c-1.3,0.7-2.9,1.1-4.1,2
	c-2.4,2-4.6,4.2-6.8,6.3c-0.6,0.6-1.1,1.4-1.2,2.3l2.1-1l0.3,0.4l-3.6,2.4l0.4,0.6l4.5-2.9c0.2,1.2-1.1,2.6-2.5,3
	c-1.8,0.5-3.4,1.5-5.2,2.1s-3.1,1.6-3.3,3.8l-0.5-0.4c0.5-1.3,0.9-2.6,1.4-3.8c-1.7,1.1-4.5,0.8-4.9,3.6l0.4-1.9l-0.4-0.2l-1.6,1.8
	l0.2-1.6c-3.2,0.4-6.4,0.7-9.2,2.3l0.2,0.5l1.4-0.7c0.5,1.2,1,2.3,1.6,3.6l1.1-0.8c0.5,0.4,1,1.4,2,0.1c0.2-0.3,1.4,0.1,2.2,0.1
	c1.4-0.1,3.2,0.8,3.6-1.7v1.6l0.4,0.2l1.2-1.4l0.4,1.5l1-1.2l2.5,0.6v0.3l-6.5,0.8l0.8,1c-5.1-1.5-9.5,0.2-13.8,2.1l2.5-0.3v0.1
	c-2.9,1-5.8,1.9-8.6,2.9c-3.8,1.3-6.5,3.9-9,6.9c-0.3,0.5-0.7,1-1.1,1.5c-4.2,4-5.9,9.3-7.7,14.6c-0.5,1.6-0.7,3.4-1.4,5
	c0-1-0.1-1.9-0.1-2.9c0.1-1.5,0.4-3,0.8-4.4c0.7-1.4,1.5-2.7,2.4-4c0.1-0.1,0-0.3,0-0.5l-1.5,1.3l3.1-7.5l-1.5,0.9
	c0.1-0.3,0.2-0.5,0.4-0.8c0.2-0.2,0.5-0.4,0.7-0.6c3.2-1.6,5.5-4.5,6.5-7.9c0-0.1,0.2-0.1,0.3-0.2c0.1,0.4,0.1,0.8,0.3,1.6l2.8-2.6
	c0.3,0.6,1.1,0.7,1.6,0.4c0.3-0.2,0.6-0.6,0.6-1c0.1-1.9,1.2-2.4,2.6-3c0.6-0.3,1.2-0.7,1.8-1.1c-3.5-0.1-7.6,2.5-9.6,5.8l0.1-1.3
	c-0.4,0.3-0.7,0.4-0.9,0.6c-1.6,1.2-3.2,2.6-4.6,4c-1.1,1.3-3.3,1.9-2.8,4.3c0,0.1-0.1,0.2-0.2,0.3c-0.1-0.5-0.2-0.9-0.4-1.5
	c-2.6,3.1-4.2,7-4.6,11l-0.2-2.5h-0.4c-1.1,3.7-2.2,7.4-3.3,10.8l-0.4-0.5c-1.2,5.2-1.2,10.6,0,15.9l-0.6,0.1
	c-0.5-3.3-0.9-6.5-1.4-9.8c-0.6,6.7,1.6,13.1,2.2,19.6l0.8,0.1c0.4-1.2,0.8-2.5,1.2-3.7c0.1,0.7,0.1,1.5,0.2,2.2h0.9l0.3-3.8
	l-0.4-0.1l-1,1.7c0.1-0.9,0.2-1.7,0.2-2.6c-0.3-3.8,0.2-7.6,1.4-11.2c0.1-0.7,0.1-1.3,0.1-2C133.4,252.5,133.7,249.6,136.1,247.5z
	 M160.4,210.3c2.4-0.2,4.5-0.4,6.7-0.4c0.4,0,0.9,0.7,1.3,0.6c1.6-0.1,3.2-0.4,4.9-0.7c-0.9-1.1-2.3-1.5-3.7-1.1
	c-1.3,0.2-2.6,0.3-3.9,0.3C164,209.1,162.1,209.1,160.4,210.3z M135,277.4c0.5-3.5,0.1-5.1-1.3-6.2
	C132.6,275.7,132.6,275.7,135,277.4z M146.2,326c2.6,1.6,7.8-1.5,9.5-3.3L146.2,326z M157.6,207l-4.9,3.2l0.3,0.5
	c0.3,0,0.6-0.1,0.9-0.2c1.2-0.6,2.4-1.1,3.6-1.6c1.6-0.4,2.1-0.9,1.9-3.1l-1.7,2.8V207z M150.1,329.8l0.2,0.5l4.1-2l-0.8,1.1
	l0.3,0.4l2.4-1.5l-0.8-1.8L150.1,329.8z M135.4,282.8c-0.2-1.1-0.3-2.2-0.5-3.2c-0.2-0.7-0.5-1.5-0.8-2.2c-1.1,2.8,0,6.1,2.3,7.1
	c-0.6-0.7-1-1.2-1.5-1.7H135.4z M139.7,319.7l0.8-0.3l-2.3-7l-0.9,0.3C138,315.1,138.9,317.4,139.7,319.7L139.7,319.7z M146.9,318
	c-0.6,0.1-1.1,0.1-1.6,0.2c-0.5,0.1-1,0.2-1.4,0.5c-0.4,0.3-0.6,0.7-0.7,1.1c0,0.3,0.5,0.8,0.8,0.9C145,320.9,146.8,319.1,146.9,318
	L146.9,318z M155.9,325.1l-0.6-0.8c-1.3,1.5-3.9,1.2-4.3,3.9L155.9,325.1z M138.9,300.2c2.1,0.4,3.7-0.4,3.6-1.7l-1.5-0.4l-0.7,1.9
	l-0.4-1.9h-0.4C139.4,298.9,139.2,299.5,138.9,300.2L138.9,300.2z M148.9,218.7l-0.4-0.7l-5.3,3.5l0.4,0.6L148.9,218.7z
	 M175.7,204.1l0.4,1l5.1-3.2l-0.6-0.8l-3.2,2.5l0.3,0.3L175.7,204.1z M146.3,215.6c-3,0.3-4.8,1.7-5.1,3.1L146.3,215.6z
	 M159.4,212.4l-6,2.3C156.2,215.4,157.7,213.7,159.4,212.4L159.4,212.4z M144.5,315.7c-1.1-1.5-1.7-0.5-2.5,0.2
	c0.3,0.8,0.6,1.6,0.9,2.6l1.5-2h-2L144.5,315.7z M140.8,312c0.1,0.6,0,1.1,0.2,1.4c0.3,0.3,0.8,0.5,1.2,0.4c0.4-0.1,0.7-0.4,0.8-0.8
	c0-0.6-0.2-1.2-0.4-1.8L140.8,312z M184,207.6l-0.5-0.8l-4,2.4l0.4,0.6L184,207.6z M167.3,204.4l-3.8,1.6l0.1,0.2l4.9-0.8
	L167.3,204.4z M142.9,225l-0.7-0.6l-2.4,3l0.5,0.4L142.9,225z M146.5,322.2l3.4-2.5l-0.5-0.6C148.4,319.9,146.8,320,146.5,322.2
	L146.5,322.2z"/>
<path class="st1" d="M155.4,237.3c-1.8-2.4-3.7-4.9-3.3-8.2c0.1-0.7,0.4-1.3,1-1.7c3.4-1.6,6.9-3,10.5-4.1c2.4-0.6,4.9-0.8,7.3-0.6
	c1.1,0.1,2.1,1.5,3.2,2.4l0.7-1.2c0.1,0.7,0.4,1.1,0.2,1.4c-1.1,2.2,0.2,4,1,5.9c0.7,1.7,1.3,3.4,1.9,5.2l-0.5,0.2l-6-11.6
	c0.4,4.2,3,7.7,3.4,11.8c-0.2-0.4-0.5-0.8-0.7-1.2c-1.7-3.9-3.3-7.7-5.1-11.6c-0.2-0.4-0.6-0.7-1.1-0.8c-0.5,0-0.9,0.3-1.1,0.7
	c-0.4,1.5-0.6,3.1,0.9,4.4v-3.9c1.8,4.4,3.6,8.9,5.4,13.4c-2.1-2.8-2.8-6.6-6.7-8.7c2.3,4.6,4.4,8.9,6.6,13.1l-0.5,0.3
	c-0.6-1.2-1.2-2.5-1.9-3.7c-1.9-3.2-3.9-6.3-5.6-9.5c-0.6-1.1-0.6-2.4-0.9-3.6c-0.2-0.5-0.4-1-0.7-1.4l-0.6,0.3l1.5,3.3l-1.7-1.4
	c0.5,6.4,3,11.6,4.8,17.2c-0.9-1.7-1.8-3.4-2.6-5.2c-1.1-2.5-1.6-5.4-3.2-7.4c-0.8-0.9-1.3-2-1.5-3.1c-0.1-0.9,0-1.8,0.1-2.7
	c-2.1,1.3-0.7,2.9-0.8,4.4l-0.5,0.1c-0.3-1.2-0.5-2.4-0.8-3.6l-0.5-0.1c-0.1,0.8-0.7,1.8-0.4,2.2c1.4,1.8,0.7,3.3-0.4,5l-2.8-3.1
	c-0.7,1.8-0.1,3.3,1.1,4.9C155.7,235.5,155.3,236.5,155.4,237.3L155.4,237.3z M162.1,224.9h-0.7c-0.8,1.3-0.1,2.5,0.7,4.1V224.9z"/>
<path class="st1" d="M138.6,259c0.1-0.2,0.4-0.6,0.3-0.7c-0.5-1-1.1-2.1-1.8-3c-1-1.2-1.1-2.9-0.4-4.3c2.1-5,4.1-10,6.5-14.8
	c1.5-3,4.3-4.9,7.5-7v2h-0.2l-0.3-0.9h-0.4l-0.4,4.6H149v-3.4l-0.4-0.1c-0.5,1-1.1,2-1.7,3.1l-0.6-0.8c-2.9,2-3.3,3.6-1.2,6.4
	c1.2,1.6,2.5,3.1,3.5,4.8l-2-1.7l-0.3,0.3l3.6,5.4l-0.2,0.2c-0.6-0.6-1.1-1.3-1.7-1.9s-1.2-1.3-1.9-1.9s-1.3-1.2-2-1.8l-0.6,0.6
	l8.1,9.8c-3.7-3.5-8.4-6.2-8.6-12.1l1.6,1.8l1.3-1l-2.6-4.6c-1,2.1-2.8,3.6-0.9,6.3c1.5,2,2.2,4.6,3.2,7.1l-2.4-2.7
	c1.4,4.2,5.2,6.5,7.8,9.8c-1.6,0.8-1.8-0.7-2.5-1.5c-1.6-1.7-3.4-3.2-5.1-4.8c-0.3-0.3-0.6-0.5-1-0.6l3,4.8l-3.9-4.4l-1.7-4.7
	l0.6-0.4l1.4,2.2l0.4-0.3c-0.4-1-0.8-2-1.2-3l0.2-0.1l1.6,1.8l0.2-0.2l-1.8-4.5l-0.4,0.1l0.1,1.5c-0.5,0.4-0.9,0.9-1.2,1.5
	c-0.6,2-1.3,3.9-2.2,5.8c-0.9,1.7-0.2,2.5,1.1,3.7c0.1-0.7,0.4-1.4,0.1-1.7c-1.3-1.6,0.2-2.6,0.6-3.8l2.1,2.4c0,0.2,0,0.5,0,0.7
	c0.4,2,2.6,3.9,4.1,3.5c0.2,0.2,0.7,0.3,0.7,0.5c0,0.8-0.1,1.5-0.2,2.3l-6.8-6.1c0.6,4,4.1,4.8,5.9,7.1l-0.4,0.5
	c-1.1-0.6-2.1-1.2-3.1-1.9c-0.9-0.8-1.8-1.7-2.5-2.7l-0.4,0.3c0.5,0.6,1.1,1.2,1.6,1.9c0.4,0.7,0.8,1.3,1.3,1.9
	c0.6,0.5,1.2,1,1.9,1.3c1.4,2.7,4.5,4.1,6.4,6.5l-0.3,0.4l-10.7-9.5L138.6,259z"/>
<path class="st1" d="M192.9,224.9l-0.8-2.6c-0.4,0.9-1.3,1.9-1.1,2.7c0.5,2.7,1.3,5.4,2,8c0.1,0.6,0.2,1.1,0.3,1.7l-0.9,0.2
	c-1-3.5-2-6.9-3.1-10.4l-0.4,0.1c-0.1,0.8-0.1,1.7,0,2.6c0.7,2.9,1.6,5.7,2.3,8.6c0.2,0.6,0.2,1.2-0.1,1.7c-1.3-3.5-2.8-6.9-4-10.5
	c-0.4-1.4-0.6-2.8-0.5-4.3c0.1-1.7,1.7-1.1,2.6-1.1c2.7,0,5.4,0.2,8.1,0.5c0.8,0.2,1.5,0.4,2.2,0.8c-1.3,1.5,0,2.8,0.5,4.1
	c-0.2-1.4,1.2-2.9-0.5-4.1l1.2,0.1v6.1l-1.2-1.1c0.8,4.3,1.5,8.5,2.3,12.8l-0.5,0.1c-0.5-2.3-1-4.7-1.5-7c-0.3-1.5-0.9-3-1.1-4.6
	c-0.2-1.2-0.3-2.5-0.3-3.7c0-0.7-0.1-1.5-0.1-2.2l-2.6-0.4l0.4,2.5l0.5-0.2c1.1,6.2,2.2,12.5,3.4,18.7h-0.1c-1.1-4-2.2-8-3.3-12.1
	l-1,0.7c-0.4-1.7-0.7-3.3-1-4.8l-0.7,0.1l1.5,7.2l-0.5,0.1c-1-3.1-1.9-6.2-2.8-9.3c-0.1-0.2,0.5-0.7,0.7-1c0.1,0.9,0.1,1.8,0.2,2.6
	h0.4c0.2-1.5,0.4-3,0.6-4.5h-0.4L192.9,224.9z"/>
<path class="st1" d="M190.5,133.5l4.1,0.6l0.1-0.3l-1-0.6l3.4-1.6v-0.5l-5.8-0.6v-0.1c2.4-0.1,4.9-0.4,7.4-0.4
	c1.2,0,1.4-0.4,1.2-1.4c-3.9,1.3-7.4-0.3-11-0.9l9.6,0.7l0.1-0.8l-8.8-0.6c2.8-0.9,5.9,1.1,8.7-1.4l-3.2-0.8l2.6-0.8l-0.1-0.5
	l-7.2-1.1V122c1.2,0.1,2.4,0.1,3.6,0.3c2.4,0.3,2.4,0.3,3.4-0.8l-3.5-0.7v-0.3l7.9,0.7c0.4,2.7,0,5.5-1.4,7.9l6.3,0.9v0.6
	c-1.4-0.2-2.7-0.4-4-0.5c-0.8-0.1-1.6-0.1-2.4,0.1c-0.7,0.2-1.4,0.4-2,0.8c0.9,2.5-2.1,1-2.6,2.5h2.8
	C196.1,134.4,193.6,135.3,190.5,133.5z M197.8,123.1h4.1C200.4,121.8,199.2,121.5,197.8,123.1L197.8,123.1z"/>
<path class="st1" d="M222.2,294.3l-1,2.3l0.5,0.4c1-2,1.6-4.5,4.8-4l-1.1,2l1.9-0.4c-2.4,2-5.4,3.3-8.6,3.5
	c-1.4,0.1-2.9-1.1-4.4-1.7c-0.5-0.2-0.9-0.4-1.5-0.5c0.2-0.4,0.4-1,0.7-1.8c-2.1-1-1.6,1.3-2.3,1.7c-0.8-1.6-1.6-3.1-2.4-4.7
	c-1.1-2.3-0.1-5.1,2.2-6.2c0.3-0.1,0.6-0.3,1-0.3c1.9-0.5,3.8-0.9,5.7-1.5c0.8-0.4,1.5-0.9,2.1-1.6l0.5,0.5
	c-0.5,0.5-0.9,1.2-1.5,1.4c-2.3,0.7-4.6,1.2-7,1.7c-1.4,0.3-2,1.3-2.3,3l1.9-1.1c-0.7,1.8-2.8,2.8-1.1,4.9l0.1-1.8
	c1.3,2,2.5,4.1,5,4.3C218,294.5,220.1,294.3,222.2,294.3z"/>
<path class="st1" d="M185.1,221.4c1.4,4.9,2.7,9.7,4,14.5l-0.4,0.2l-2.8-6.9l-0.8,0.3v-4.1h-0.5v3.1c-1.9-2.1,0.5-4.3-0.7-6.5
	c-0.3,0.5-0.8,0.8-0.8,1.1c0.2,1.9,0.5,3.8,0.9,5.7c0.5,1.6,0.9,3.2,1.2,4.8c-2-3.5-3.1-7.4-3.3-11.5l-1.2,1.4l-0.6-1l-0.6,0.2
	c0.5,1.6,1,3.2,1.4,4.8c0.5,1.8,0.9,3.5,1.1,5.4l-4-10.8L185.1,221.4z"/>
<path class="st1" d="M231.4,312.6c0.3-1.5,0.7-3,1-4.4l-0.3-0.1l-5,16.5l-0.7-0.2c0.2-1,0.5-2,0.7-3c0.6-3.4,0.9-6.8,1.7-10.2
	c0.6-2.2,1.3-4.4,2.2-6.5c0.2-0.6,1.1-0.9,1.7-1.3c0.3,0.7,0.8,1.4,0.8,2c-0.3,2.4-0.9,4.8-1.4,7.2L231.4,312.6z"/>
<path class="st1" d="M177.2,167.5l-6.1,1.9l0.2,0.6c0.9-0.3,1.9-0.7,2.9-1c0.9-0.3,1.9-0.4,2.8-0.4l-8.4,3.4l0.2,0.6l4.2-1.4
	l0.1,0.3l-7.6,3.6l0.3,0.8l3.2-0.8l0.1,0.2l-7.4,3.5l3-3.9l-1.2-0.3c1-1,3.2,0.2,3.5-2.3l-2.9,0.8l-0.1-0.3l3.5-1.7l-0.1-0.5
	l-2.9,0.3v-0.2l12.8-3.6L177.2,167.5z"/>
<path class="st1" d="M195.1,350.5c0.2-2.2,0.4-4.4,0.6-6.6l-0.5-0.1l-2.6,8.7l-0.6-1.1l-2.6,1.2l-0.2-0.2c0.3-0.2,0.6-0.5,0.8-0.7
	c0.8-0.7,1.5-1.6,2-2.5c1.9-5,3.7-10.1,5.5-15.2c0.5-1,1.1-1.9,1.7-2.8c0,0.4,0,0.8,0,1.2c-1.2,3.3-2,6.7-2.4,10.2
	c-0.2,2.6-1.1,5.2-1.7,7.8L195.1,350.5z"/>
<path class="st1" d="M244.9,255.1L244.9,255.1c-1.4,1-2.6,4.3-2.1,5.8c0.1,0.3,0.3,0.6,0.2,0.9c-0.9,2.4-1.9,4.7-2.8,7
	c-0.1-0.2-0.2-0.5-0.5-1.2c-0.6,2.5-1.1,4.6-1.6,6.8l-0.6-0.1c0.8-3.6,1.5-7.3,2.6-10.8c1.6-5.3,4.3-10.2,4.7-15.9
	c0.1-0.3,0.2-0.7,0.4-1c0.1,0.8,0.1,1.1,0.2,1.5c0,0.4,0,0.7-0.1,1.1l0.6-0.5C245.6,250.8,245.2,253,244.9,255.1z"/>
<path class="st1" d="M227.1,331.4c-0.6,2.9-1.6,5.8-1.6,8.8c0.1,1.7-0.1,3.3-0.7,4.9c-0.2,0.3-0.3,0.6-0.5,0.8
	c0.2-1.7,0.4-3.3,0.6-4.9l-0.5-0.2c-1,2.4-1.8,4.8-2.4,7.2c-0.7,3.4-1,6.9-1.6,10.3c-0.1,0.6-0.2,1.1-0.3,1.7l-0.7,0
	c0.1-0.8,0.1-1.5,0.2-2.2c0.3-2.5,0.5-5.1,1-7.5c0.5-2.2,1.2-4.4,2-6.5c1.2-3.7,2.5-7.4,3.8-11c0.2-0.5,0.4-0.9,0.6-1.4H227.1z"/>
<path class="st1" d="M232.1,270.9c0.7-2.9,1.4-5.9,2.2-8.8c0.9-2.9,2-5.7,3.3-8.4c-0.7,5.6-1.4,11.3-2.1,16.9l-0.7-0.1l0.7-8.5
	l-0.3-0.1c-0.9,3.1-1.7,6.2-2.6,9.2L232.1,270.9z"/>
<path class="st1" d="M175.4,222.7c3.2,2.3,3.5,5.7,4.2,9.1l-1.3-1.7H178c0.5,1.6,0.9,3.2,1.4,4.8s1.1,3.4,1.7,5s1.3,3.2,2,4.8
	l-0.6,0.2c-1.4-3.7-2.7-7.5-4.2-11.2C176.9,230.3,176.3,226.6,175.4,222.7z"/>
<path class="st1" d="M177.8,196.9l-10.7,3.2l0.1,0.4l4.6-0.5c-1.2,2.5-3.6,1.9-5.1,3.2l-0.3-0.5l3.6-1.6l-0.2-0.6l-10,3.4l0.2-1.4
	c0.5-0.1,1-0.2,1.5-0.4c2.9-1.2,5.9-2.4,8.8-3.6c1.8-0.7,3.6-1.5,5.5-2C176.2,196.2,176.9,196.6,177.8,196.9z"/>
<path class="st1" d="M228.9,244.6v3.1h-0.3c0-3.9-0.1-7.8,0.1-11.6c0.1-1,1-1.9,1.7-2.8l-1.2,8.1l0.8,0.1l0.4-3.9
	c0.8,2.4-0.9,17.9-1.6,18.9c0.3-3.7,0.6-7.8,0.9-12L228.9,244.6z"/>
<path class="st1" d="M141.7,204.6c0.6-2.9,10-18.5,12.9-20.9c-1.1,1.8-2.1,3.6-3.2,5.3c-1.2,1.8-2.3,3.6-3.3,5.6l3.5-3l0.5,0.4
	c-2.6,2.4-6.2,4.2-5.8,8.6l-0.6-0.2c0.2-1.1,0.5-2.3,0.7-3.4l-0.3-0.2L141.7,204.6z"/>
<path class="st1" d="M202.6,331.4c-0.9,2.7-2,5.3-2.8,8c-0.8,2.8-1.4,5.7-1.6,8.6l1.6-4.7l0.4,0.1c-0.4,1.9-1,3.7-1.7,5.5
	c-0.8,1.8-1.6,3.5-0.4,5.8l-3.9-0.3v-0.6c0.3,0,0.6,0,1,0c1,0.1,1.5-0.1,1.6-1.4c0.3-5.9,1.6-11.8,3.7-17.4c0.5-1.3,1.2-2.5,1.8-3.7
	L202.6,331.4z"/>
<path class="st1" d="M184.3,158.2l-6.2,2l0.1,0.4l4.1-0.5c-4.1,3.1-8.9,4-13.9,4.2c0.4-0.1,0.8-0.3,1.2-0.3c1.9-0.3,4.2,0.2,4.8-2.5
	C177.5,160.3,180.1,157.7,184.3,158.2z"/>
<path class="st1" d="M167.9,153.7l-13.2,28.7C154.6,179.6,165.9,154.9,167.9,153.7z"/>
<path class="st1" d="M157.4,185.2l8.3-1.2l0.1,0.4c-1.7,0.2-3.4,0.5-5.1,0.9c-1.7,0.5-4,0.1-4.4,2.9c-0.1,0.5-1.3,0.8-2.1,1.1
	c3.6-4,5.1-10.2,12.1-11.2l-6.1,3.5l0.1,0.2l2.5-0.8l-0.6,1l2-0.2C161.8,183,159.1,182.7,157.4,185.2z"/>
<path class="st1" d="M227.7,306.3l1.6-0.5c-1,3.8-1.9,7.3-2.8,11l-1.8-1.1c1-3.8,2.1-8,3.3-12.2l0.2,0L227.7,306.3z"/>
<path class="st1" d="M222,317.5l1.3-4.2l-0.4-0.2l-2.2,4.9c-0.2-0.4-0.3-0.6-0.3-0.7c1.3-3.5,2.6-7,3.9-10.5
	c0.4-0.7,0.9-1.3,1.5-1.8l0.6,0.2c-1.2,4.1-2.5,8.2-3.7,12.3L222,317.5z"/>
<path class="st1" d="M192.3,340l-0.7,0.4l-0.3-0.2l4.2-8.5c1.1,1.6,1.1,1.6-0.6,4.9l-0.9-1c-0.1,1-0.1,1.7-0.2,2.4
	c0,0.3,0,0.5-0.1,0.8c-0.5,1.5-1.3,2.8-0.9,4.6c0.2,1.1-0.9,2.5-1.8,3.7C191.4,344.8,191.8,342.4,192.3,340z"/>
<path class="st1" d="M214.9,320.6c0.1,0.4,0.1,0.7,0,1.1c-1,2.9-2,5.8-3,8.6c-0.6,1.9-1.2,3.8-1.8,5.9c-1.4-3.1,1.5-5.4,1.5-8.8
	l-3.1,5.6C209.4,327.8,213,324.7,214.9,320.6L214.9,320.6z"/>
<path class="st1" d="M210.8,165.7l-0.6,1.7h-4.6v0.5h4.6l0.1,0.6l-6.7,1.1l0.9-0.8l-2.7-0.8v-0.7L210.8,165.7z"/>
<path class="st1" d="M168.8,334.7c2.4-0.5,3.2-4.3,6.4-4.5l0.4,0.5l-6.1,4.8l0.3,0.5l1.2-0.1c-2.2,1.8-4.1,3.4-6.1,5l-0.5-0.5
	C165.4,338.5,168.5,337.9,168.8,334.7z"/>
<path class="st1" d="M234.1,281.6c-0.1-0.6,0-1.5-0.2-1.5c-1.9-0.6-3.4,0.4-4.8,1.7l-0.8-1c3.8-2.4,7.4-1.5,11.3-0.3l-1.9,2.2
	C237.2,280.2,235.6,280.7,234.1,281.6z"/>
<path class="st1" d="M236.3,272.3c0.5-3.1,1.1-6.2,1.6-9.3c0.2-1.3,0.1-2.6,0.4-3.8c0.1-0.4,0.8-0.8,1.2-1.1l0.6,0.4l-3.1,14
	L236.3,272.3z"/>
<path class="st1" d="M225.8,326c-0.8,2.8-1.6,5.6-2.2,8.4c-0.2,0.9,0.2,1.9,0,2.8c-0.5,2-1.2,3.9-2.1,5.7
	C222.7,337.2,223,331.2,225.8,326z"/>
<path class="st1" d="M198.1,135.4l-2.9,1.2l0.1,0.5l2.2-0.3c-1.2,1.4-4.2,2.8-5.1,2.5l2-1.4l-0.1-0.5l-9.6-1.1
	c4.5-0.1,9,1.3,13.3-1.5L198.1,135.4z"/>
<path class="st1" d="M204.3,239.6c-0.9-4.2-1.7-8.4-2.6-12.6c0-0.5,0.2-1,0.6-1.3C204.4,230.2,203.9,235,204.3,239.6z"/>
<path class="st1" d="M229.8,299.3l0.9,2.5c-1.8,0.9-5.8,1.1-6.5,0.2L229.8,299.3z"/>
<path class="st1" d="M143.1,211.5c5.4-2.3,9.5-7,15.9-8.5l-15.5,9L143.1,211.5z"/>
<path class="st1" d="M232.8,258l-2.2,12.1L230,270c0.4-2.1,0.8-4.2,1.2-6.6c-0.5,0.8-0.8,1.4-1.2,2l-0.3-0.1l2.8-7.4L232.8,258z"/>
<path class="st1" d="M205.1,141.9c-0.6,0.1-1.3,0.2-1.9,0.3c-2.2,0.1-4.4,0.3-6.6,0.8c-1.1,0.3-2,1.6-3,2.5
	c-0.9-0.6-0.8-0.6,0.4-1.9c0.6-0.7,1.2-1.4,1.6-2c3.2,1,6.3-0.4,9.4-0.2L205.1,141.9z"/>
<path class="st1" d="M153.7,246.2c-1.6-3.5-5.9-5.4-5.4-10.6c2.1,3.6,3.9,6.9,5.8,10.3L153.7,246.2z"/>
<path class="st1" d="M201,310.3l-6.5,5.3l-0.3-0.2l0.6-1.3l-1.5,0.1l6.3-4.6l0.3,0.3l-2.7,2.5l0.2,0.2l3.5-2.4L201,310.3z"/>
<path class="st1" d="M203.9,184.5l-10.1,2l5.7-2.4v-0.2l-4.1,0.6C198.4,182.2,201.1,184.1,203.9,184.5z"/>
<path class="st1" d="M147.6,205.9c3.2-3,11.3-6.8,12.4-6.1L147.6,205.9z"/>
<path class="st1" d="M153.5,248c-3-3.3-5.9-6.7-8.9-10l0.5-0.4c3.5,2.8,5.8,6.7,8.9,9.9L153.5,248z"/>
<path class="st1" d="M171.3,196.3l-1.7,0.9c0.8-2,8.8-5.3,11.8-4.6c-0.9,0.2-1.7,0.4-2.5,0.7c-1.9,0.8-3.7,1.7-5.6,2.5L171.3,196.3z
	"/>
<path class="st1" d="M196.1,200.1c0.4-1.3,0.5-1.4,3.9-1.6c1.6-0.1,3.1,0,4.8,0l0.2,0.9L196.1,200.1z"/>
<path class="st1" d="M164.7,168.3l14-2.9l0.1,0.7l-14,2.8L164.7,168.3z"/>
<path class="st1" d="M215,320.6v-1.2l-1.7,2.8l-0.4-0.2l3.8-7.9l0.3,0.1l-1.1,3.7l0.3,0.2l1.3-1.4l0.4,0.3L215,320.6L215,320.6z"/>
<path class="st1" d="M193.6,214.7c-4,1-8,2-12.1,2.9c-0.9,0.1-1.8,0.1-2.6-0.2c3.2-0.6,6.4-1.2,9.6-1.8
	C190.2,215.3,191.9,215,193.6,214.7L193.6,214.7z"/>
<path class="st1" d="M166.9,166.6l12.9-3.4l0.2,0.7c-1,0.2-2.1,0.4-3.1,0.7c-3.3,0.9-6.5,1.8-9.8,2.7L166.9,166.6z"/>
<path class="st1" d="M204.8,201.1l-11.7,2.4l-0.1-0.4c0.9-0.3,1.9-0.6,2.8-0.8C198.6,201.8,201.3,199.9,204.8,201.1z"/>
<path class="st1" d="M181.8,211.1l9.6-4c-0.3,1.3-3.2,2.7-9.3,4.5L181.8,211.1z"/>
<path class="st1" d="M220.8,309.6c0.6-1.2,1.2-2.5,1.8-3.7c0.2-0.5,0.6-0.8,1.1-1l-3.4,9.8l-0.3-0.1c0.3-1.7,0.5-3.4,0.8-5.1
	L220.8,309.6z"/>
<path class="st1" d="M137.3,261.5l4.3,3.7v2.8l-4.7-6.1L137.3,261.5z"/>
<path class="st1" d="M175.2,141.4l6.1-12.4l0.6,0.3l-6.2,12.4L175.2,141.4z"/>
<path class="st1" d="M213.3,312.4l1.4-3l-0.5-0.4c-0.3,0.6-0.6,1.2-0.9,1.8l-0.5-0.5l4.1-5.2l0.4,0.2c-1.1,2.4-2.2,4.8-3.3,7.1
	C213.9,312.5,213.5,312.4,213.3,312.4L213.3,312.4z"/>
<path class="st1" d="M190.5,114.2l-6.8,12.1l-0.5-0.2c2.3-4,4.5-8.1,6.8-12.1L190.5,114.2z"/>
<path class="st1" d="M166.9,334.3l-0.7-0.9l8-5.6l0.3,0.4L166.9,334.3z"/>
<path class="st1" d="M160.3,194.2l0.3,1l-10.3,4.4l-0.2-0.4L160.3,194.2z"/>
<path class="st1" d="M213.2,312.4c-0.1,1.3-0.4,2.5-0.8,3.7c-1.2,2.3-2.7,4.4-4,6.6c-0.3,0.7-0.7,1.4-1.2,2c0-0.6,0.2-1.3,0.4-1.9
	c1.1-1.9,2.5-3.8,3.6-5.8c0.6-1.2,1.1-2.5,1.5-3.8C212.9,312.9,213.1,312.6,213.2,312.4L213.2,312.4z"/>
<path class="st1" d="M158.5,328.7l9.7-6.2l0.4,0.6c-1.8,1-3.6,2-5.2,3.1c-1.2,0.8-2.3,1.9-3.5,2.8c-0.4,0.2-0.7,0.2-1.1,0.3
	L158.5,328.7z"/>
<path class="st1" d="M200.4,149.1l3,0.6l-1.9,0.5l3.2,0.6c-3.1,1.2-4.3-1-6.1-2.9l3.4-0.3v0.3l-1.5,0.5L200.4,149.1z"/>
<path class="st1" d="M180.6,214.2l12.3-3.9l0.2,0.6l-12.3,3.7L180.6,214.2z"/>
<path class="st1" d="M201.4,344.2c-0.5,3.1-1,6.2-1.4,9.3C198.6,350.3,199.8,347.2,201.4,344.2z"/>
<path class="st1" d="M190.2,181.7l7.5-0.6l1.8,1.1h-9.3L190.2,181.7z"/>
<path class="st1" d="M185.8,187.8l-2-0.3l-0.2-0.4l3.6-1.6c-0.9,2.8-1.7,5.4-2.5,8l-0.4-0.1L185.8,187.8z"/>
<path class="st1" d="M204.9,140.6h-7.2c-0.6-1.2,0.4-2.2,0.6-3.1l5.1,0.5v0.2c-1.1,0-2.3,0-3.4,0s-1.7,0.5-1.4,1.9h6.3L204.9,140.6z
	"/>
<path class="st1" d="M163.7,192l-12,4.1l-0.1-0.4l12-4.4L163.7,192z"/>
<path class="st1" d="M223.6,211.1l-10.9-4.8l0.3-0.6l10.8,5L223.6,211.1z"/>
<path class="st1" d="M182.5,154.4l1.5-1.4l-0.4-0.5l5.8-0.6l0.1,0.6L182.5,154.4z"/>
<path class="st1" d="M201.5,182.1c3.4-1.3,6.7-3.4,10.8-2.8L201.5,182.1z"/>
<path class="st1" d="M222.2,321.9c-0.7,3.6-1.3,7.2-1.9,10.9l-0.7-0.1c0.7-3.6,1.4-7.2,2.1-10.9L222.2,321.9z"/>
<path class="st1" d="M220.8,309.6v-0.1c-0.7,1.6-1.4,3.3-2,4.9c-0.2,0.4-0.4,0.8-0.7,1.2l-0.4-0.2l2.6-7.3h0.5L220.8,309.6z"/>
<path class="st1" d="M148.7,197.9c1.3-3.7,3.9-5.9,7.9-6.2C153,192.6,150.6,194.9,148.7,197.9z"/>
<path class="st1" d="M222.4,207.8l-8.6-4.6l0.3-0.6l8.6,4.7L222.4,207.8z"/>
<path class="st1" d="M246.7,245.1l-1,0.6c0.8-2.9,1.5-5.6,2.2-8.4c0.4,0,0.8,0,1.2,0c-0.5,0.9-0.9,1.9-1.2,2.9
	c-0.5,1.6-0.8,3.3-1.2,5L246.7,245.1z"/>
<path class="st1" d="M181.6,177.3c1.3-0.3,2.7-0.6,4-0.8c1.5-0.2,2.9-0.5,3.1-2.4c0-0.3,0.3-0.5,0.7-1.1c-0.3,1.7-0.5,2.9-0.6,3.6
	l-7.1,1.1L181.6,177.3z"/>
<path class="st1" d="M232.1,314.6l-2.4,7.9l-0.6-0.2c0.8-2.7,1.5-5.3,2.2-8L232.1,314.6z"/>
<path class="st1" d="M215.9,311.6c1.3-1.8,2.6-3.5,3.9-5.3l0.5,0.2c-0.6,1.5-1.2,2.9-1.8,4.4l-0.3-0.1c0.1-0.4,0.1-0.9,0.2-1.3
	l-0.3-0.2l-1.8,2.6L215.9,311.6z"/>
<path class="st1" d="M138.6,259l-2.7-1.5l-1.7,0.9l2.1-3.1C137.1,256.6,137.9,257.8,138.6,259L138.6,259z"/>
<path class="st1" d="M201.5,342.8c-1.1-3,1.4-4.8,1.6-7.1l0.6,0.1L201.5,342.8z"/>
<path class="st1" d="M207.7,293.6c-2.4-2.2-2.6-5.2-0.3-7.5C206.3,288.9,206.2,291.3,207.7,293.6z"/>
<path class="st1" d="M247.2,288.1l-7.1,7.2l7.2-7L247.2,288.1z"/>
<path class="st1" d="M165,248c-1.2-2.3-2.3-4.6-3.5-6.9l0.5-0.2l3.6,6.9L165,248z"/>
<path class="st1" d="M176.9,190.4l6-2.5l-0.5,0.8l1.7-0.1l0.1,0.4l-7.2,1.6L176.9,190.4z"/>
<path class="st1" d="M197.2,146.8c2.9-1.5,5.2-1.4,5.9,0H197.2z"/>
<path class="st1" d="M160.5,242c-1.2-1.7-2.5-3.4-3.7-5.1c-0.1-0.1,0.1-0.5,0.2-0.8c0.3,0.1,0.8,0.2,0.9,0.4c1,1.7,1.9,3.5,2.9,5.2
	L160.5,242z"/>
<path class="st1" d="M158.6,190.7l5.8-1.6l0.1,0.3l-1.4,0.8l1.9,0.1v0.4L158.6,190.7z"/>
<path class="st1" d="M178.1,343c-0.7,0.4-1.4,0.9-2.2,1.2c-0.4,0.1-0.8,0.2-1.2,0.2l-0.2-0.7l4.2-2.5
	C178.4,342.1,178.2,342.6,178.1,343L178.1,343z"/>
<path class="st1" d="M191,341.7c-0.9,2.8-1.6,5.2-2.4,7.7C188.1,347.5,188.9,344.8,191,341.7z"/>
<path class="st1" d="M176.7,156.3l9-1.2C182.7,155.6,179.8,157.3,176.7,156.3z"/>
<path class="st1" d="M221.1,208.7l-6.8-3.3l0.3-0.6l6.8,3.3L221.1,208.7z"/>
<path class="st1" d="M153.7,250.7l-4.2-4.7l0.5-0.5l4,4.8L153.7,250.7z"/>
<path class="st1" d="M171.3,196.3l2-0.5l5.8-1l0.2,0.6c-0.2,0.2-0.4,0.3-0.7,0.4c-2.1,0.3-4.1,0.6-6.2,0.8
	C172.1,196.7,171.7,196.4,171.3,196.3z"/>
<path class="st1" d="M209.2,197.4l-1.5,1.5l0.2,0.6c-0.6-0.4-1.2-0.8-1.8-1.3c-0.1-0.1,0.2-1.1,0.4-1.1
	C207.4,197.1,208.3,197.2,209.2,197.4z"/>
<path class="st1" d="M200.8,131.4l6.2,0.5l-0.1,0.7l-6.2-0.7L200.8,131.4z"/>
<path class="st1" d="M181.1,147.6h6.8v0.4h-6.8L181.1,147.6z"/>
<path class="st1" d="M197.9,316.4l0.5,0.5l-3.4,3.5l-0.1-0.3c0.6-1,1.1-2.1,1.8-3.1C196.8,316.6,197.4,316.5,197.9,316.4z"/>
<path class="st1" d="M201.6,134.3l5.4,0.4v0.3h-5.5L201.6,134.3z"/>
<path class="st1" d="M201.9,136.4h5.2v0.6h-5.3L201.9,136.4z"/>
<path class="st1" d="M142.3,207.1c0.9-1.8,1.7-3.7,2.5-5.5l0.4,0.2c-0.7,1.9-1.5,3.7-2.2,5.6L142.3,207.1z"/>
<path class="st1" d="M177.2,296.5l5.9-2.5C181.3,295,180.1,297.1,177.2,296.5z"/>
<path class="st1" d="M202.7,203.6l-6.6,1.4l-0.1-0.4l6.6-1.6L202.7,203.6z"/>
<path class="st1" d="M180.4,145.2h8v0.2h-7.9L180.4,145.2z"/>
<path class="st1" d="M210.5,337.7l-1.7,5.6l-0.7-0.2l1.9-5.5L210.5,337.7z"/>
<path class="st1" d="M225.9,318.1l-1.7,2.3l-0.6-0.3c0.2-1,0.4-1.9,0.5-2.9L225.9,318.1z"/>
<path class="st1" d="M188.8,322l-5.2,4.3l-0.3-0.4l5.1-4.4L188.8,322z"/>
<path class="st1" d="M208.6,122l-5.2-0.6C204.7,120.3,206.3,120.4,208.6,122z"/>
<path class="st1" d="M155.3,237.3l1.9,4l-0.4,0.2l-2.5-3.4L155.3,237.3L155.3,237.3z"/>
<path class="st1" d="M170.3,303.3l-6.4,2.9l-0.2-0.5l6.4-2.9L170.3,303.3z"/>
<path class="st1" d="M179.4,198.8l-3.9,1.5l-0.3-0.8l4-1.3L179.4,198.8z"/>
<path class="st1" d="M191.2,335.6c0.8-1.7,1.6-3.3,2.5-5l0.4,0.2l-2.4,5.1L191.2,335.6z"/>
<path class="st1" d="M173.5,145.5l-3.4,5.6l-0.5-0.3c1.1-1.9,2.2-3.8,3.4-5.6L173.5,145.5z"/>
<path class="st1" d="M151.3,273.2l-4.7-3.7l0.4-0.5l4.7,3.7L151.3,273.2z"/>
<path class="st1" d="M229.4,261.5l-1.7,6.2l-0.4-0.1l1.5-6.3L229.4,261.5z"/>
<path class="st1" d="M209.4,334.9l-2.1,4.9l-0.4-0.2c0.6-1.7,1.2-3.3,1.7-5L209.4,334.9z"/>
<path class="st1" d="M173.7,302.8l-5.8,3.1l-0.2-0.4l5.8-3.1L173.7,302.8z"/>
<path class="st1" d="M173.1,158.7l5.2-0.8C177.5,159,176.3,159.2,173.1,158.7z"/>
<path class="st0" d="M228.1,343.1c0,1.4,0.3,2.8-0.1,4.1c-0.5,1.6-0.8,3.3-0.8,5c-0.2,2.3-1.1,4.6-1.5,6.9c0.2-0.4,0.4-0.7,0.7-1.4
	l0.4,1.6c0.1-0.5,0.2-0.6,0.2-0.8c0.4-2,0.7-4,1.1-5.9c0.5-2.7,1.8-5.5,1.3-7.9c-0.4-2.1,0.2-3.6,0.3-5.4c0.1-1.1,0-2.3,1.3-3.2
	c0.6-0.4,0.5-1.9,0.6-2.9c0.2-2.7,0.3-5.4,0.7-8c0.1-0.7,0.9-1.3,1.1-2.2l-0.6,0.5c0.6-2.9,1.2-5.8,1.8-8.9c0.1,0,0.3,0.1,0.4,0.2
	c0.1,0.2,0.2,0.5,0.2,0.8l1.1-1.9l0.2,0.1l-2.5,7.3l1.1-0.2c-1,3.5-1.9,6.9-2.8,10.3c0.9-0.4,0.9-0.4,2-4.7c0.5-1.8,1-3.5,1.4-5.3
	s0.6-3.5,1-5.2c1.5,3-0.5,5.9-0.2,8.9l1.3-4.1c1.6,3.7-1.2,6.4-2.2,9.6c0.1-0.7,0.1-1.5,0.2-2.2c0.2-0.8,0.2-1.6,0.1-2.3
	c-0.4,1.9-2,3.3-1.2,5.6c0.5,1.5-0.5,3.4-0.6,5.2c0.7-1.8,1.4-3.6,2.2-5.8c-0.1,5.9-1.4,9.4-4.8,12c0.8-3.8,1.5-7.6,2.3-11.5
	c-3.2,5.4-2.5,11.8-4.5,17.4l1.2-2.4l0.7,0.2l-2.3,8.4l0.3,0.2c0.6-1.3,1.3-2.6,1.8-3.9c1.2-3.5,2.4-7,3.6-10.5l0.8,0.3
	c-0.4,1.2-0.8,2.4-1.2,3.5c-0.6,1.8-1.7,3.5-1,5.6c0.2,0.7-0.2,1.6-0.3,2.4c-0.5,2.6-0.8,5.3-0.9,8c1.6-5.4,3.3-10.8,4.9-16.2
	l0.8,0.2l-3.6,15.8c4.8-0.8,6.2-2.3,7.1-8.3c1-7.3,1-14.7,0.1-22c-0.3-1.8-0.7-3.6-1.3-5.3c-1.1-4.9-2.2-9.7-3.3-14.6
	c0-0.5,0-1,0.1-1.5l1.2,1.7c-0.2-2.9-0.4-5.7-0.7-8.4l0.7,0c0.2,2.3,0.3,4.6,0.4,6.9h0.4c0.1-0.7,0.1-1.5,0.1-2.2l-0.2,0.1l3.7,14.4
	l0.5-0.1l-1-10.2h0.5c1.3,5.6,2.6,11.2,4,16.8c0,0.1,0.4,0.2,0.9,0.3c-0.3-1.8-0.4-3.3-0.7-4.8c-1-5.2-2.1-10.4-3.2-15.6
	c-0.5-2.3-0.9-4.6-1.3-7c-0.1-0.8-0.1-1.7,0-2.5h0.5c0.2,1.4,0.4,2.9,0.6,4.4l1.3-0.6c0.3,2.5,0.6,4.9,0.9,7.4l-1.3-0.5
	c0.8,4.4,1.6,8.7,2.3,13l0.7-0.1l-1.6-10.1l0.2-0.1c0.4,1.2,0.9,2.5,1.3,3.7l0.6-0.2c-1.1-2,0.3-4.4-1.6-6.6
	c-0.9-1.1-0.5-3.4-0.3-5.2c0.3,1.4,0.6,2.8,0.9,4.1h0.3v-4.1h0.6c0.1,1.8,0.3,3.7,0.2,5.5c0,1.4,0.4,2.8,1,4
	c0.7,2.1,1.1,4.3,1.2,6.5c0.4,3.1,0.8,6.3,0.9,9.4c0,2.9-0.2,5.7-0.5,8.5c0,0.4-0.4,0.8-0.9,1.7c-0.1-2.8-0.3-5-0.4-7.3h-0.5
	c0.2,5.3,0.4,10.5,0.6,16c0.9-1.8-0.1-4,1.5-5.5v7.5h0.6v-4.2l0.5-0.1l0.8,1.4c0.4-1.6,0.8-3.2,1.2-4.7l0.2,0.1v7.2h0.2l0.8-11.1
	h0.2c0.1,1,0.2,2.1,0.4,3.1c0.1,0.5,0.4,1,0.8,1.4c1.2,1.2,1.1,2.3-0.4,3.7c0.1-1.1,0.2-2,0.3-2.9l-0.5-0.1
	c-0.2,1.7-0.5,3.3-0.7,5.2l4-2.9l0.4,0.5c-1.1,2.3-3.3,3.3-5.2,4.7c-3.3,2.4-6.8,4.6-10.1,7c-0.7,0.4-1.3,1-1.7,1.8
	c-0.9,2.2-2.8,2.5-4.7,2.8c-2.3,0.4-4.6,0.7-6.9,0.9c-0.4,0-0.8-0.4-0.8-0.4l-6.7-0.8c0.8-3.2,1.6-6.4,2.4-9.7l-0.2-0.1l-2.1,5.9
	C223.3,352.7,226.1,348,228.1,343.1L228.1,343.1z M250.5,350.9c-0.2-0.7-0.5-1.4-0.9-2.1c-2.2,0.5-2.1-0.7-1.7-2.2
	c0.8-3.2,1.4-6.4,0-9.5c-0.1-0.5-0.2-1-0.2-1.5c-0.4-2.2-0.8-4.4-1.1-6.5l-0.6,0.1c0.6,4.8,2,9.5,1.2,14.3l-0.8-4.5l-0.8,0.1
	c1.3,4.4,0.1,9.1,2,13.5l0.4-1.4l1.1,1.7l4.1-1.7l-0.2-0.5L250.5,350.9z M239.8,314l-0.6,0.2c2,6.8,4,13.5,6.1,20.3
	C245.6,327.1,242,320.7,239.8,314z M247.8,316.6l1.9,10.3l0.7-0.1C249.6,323.4,250.5,319.6,247.8,316.6L247.8,316.6z M229.8,359
	l0.5,0.1l1-4.9l-0.7-0.1L229.8,359z"/>
<path class="st0" d="M216.1,95.2l-1-0.1c1.2-1.6,3.3-2.2,5.2-1.6v-1.8c-2.8-0.2-3.2-3.4-5.1-4.6v-3.5c1.5,1.5,2.6,3.2,3.3,5.1
	c0.3,0.9,1.7,1.5,2.7,2.1c0.8,0.5,2.1,3.1,1.8,4c-0.7,2.2-1.3,4.4-2,6.6c-0.2,0.5-0.5,0.9-0.9,1.3l1.4,0.7l-1.3,1.2
	c0.9,0.6,1.8,1.2,2.6,1.8c0.7,0.7,1.3,1.5,1.9,2.2l-0.4,0.4l-2.5-1.8l-0.3,0.4c0.6,0.5,1.2,1,1.8,1.6c0.2,0.4,0.4,0.8,0.5,1.2
	c-0.4-0.1-0.8-0.1-1.2-0.2l-1.1-0.2l2.8,3l-0.4,0.5l-2.4-1.1l-0.2,0.4l1.9,1.5l-1.1,0.5c1,1.1,2.1,2.2,3.1,3.2l-0.5,0.4
	c-0.7-0.6-1.5-1.2-2.2-1.7c0,0-0.3,0.2-0.5,0.3c1.5,1.2,0.6,1.6-0.7,2l-0.1-1.4l-0.5-0.1c-0.6,2.6-0.5,5.3-0.8,8.5
	c-1.9-1.6-3.4-2.8-4.9-4.1c-3.2-2.6-6.4-5.1-9.5-7.7c-2.2-1.9-2.2-1.9-0.1-4c0.2-0.2,0.3-0.4,0.3-0.3c-0.6-1.4-1.1-2.6-1.7-3.9
	l3-0.3c-0.7-1.3-1.3-2.4-1.9-3.6l0.3-0.2l1.8,2.2l0.3-0.2l-0.7-2l0.3-0.2l1.6,1.2l-1.2-2.7l0.4-0.3l2.1,1.8l-0.7-1.8
	c0.1-0.1,0.2-0.2,0.3-0.2c2.3,0.4,3.4-0.4,4.3-2.7C214.3,96.4,215.3,95.9,216.1,95.2z"/>
<path class="st0" d="M250.6,224.8c2.3,0.7,4.6,1.4,6.8,2c4.2,1.2,7.5,4.3,11.3,6.1c0.7,0.4,1.1,1.4,1.8,2c0.5,0.5,1,1,1.7,1.4
	c1.5,0.7,2.9,1.2,3.8,2.8c1.2,2.2,3,4,4.3,6.2c0.7,1.4,1.2,2.8,1.7,4.3l-0.4,0.2l-4.3-4l-0.1,1c-0.8-1.1-2.4-1.5-1.7-3.3
	c0.1-0.1-1-0.7-1.5-1.1c-1.4-1.1-3.4-1.9-4.1-3.3c-0.6-1.2-1.6-1.8-2.3-2.8s-2.5-1.4-3.9-2.1c-0.2-0.1-0.3-0.3-0.4-0.8l3,0.9
	l0.1-0.2l-9.5-4l0.2-0.7l5.6,1.6c-4.1-2-8.5-3.1-12.5-5.2C250.4,225.4,250.5,225.1,250.6,224.8z"/>
<path class="st0" d="M252.5,243.5c0.1,1.1,0,2.2-0.2,3.2c-1.3,3.8-2.8,7.5-4.1,11.3c-0.4,1.1-1.1,2.4,0,3.5l1.3-4.8l1.1,0.3
	l-1.7,5.6l0.4,0.2c0.7-1.6,1.4-3.2,2.3-5.2v4.1l0.3,0.1l1.5-3.3l0.6,0.2l-3.8,9.9l-0.6-0.2l0.8-3.2l-0.5-0.2l-2.2,4.1l0.3,0.2l1-1
	c-0.3,1.5-0.5,2.4-0.8,3.4h-0.5c-0.1-0.5-0.2-0.9-0.2-1.4l-0.9,1.3l-0.5-0.2c0.8-2.4,1.6-4.8,2.6-7.5c-3.2,2-2.4,5.6-4,8.4
	c-0.4-2,0.9-6.4,2.3-8.6c0.3-0.6,0.4-1.2,0.5-1.9l-0.8-0.3c-1,2.9-1.9,5.7-2.9,8.5c-0.3,0.6-0.6,1.2-1.1,1.8
	c-0.2-0.7-0.2-1.4-0.1-2.1c1.1-3,2.3-5.9,3.5-8.9c0.8-2,1.6-4.1,2.4-6.2c0.9-2.6,1.9-5.1,2.8-7.7c0.3-1.1,0.5-2.3,0.7-3.5
	L252.5,243.5z"/>
<path class="st0" d="M261.5,323.8c0.2,1.3,0.2,2.7,0.1,4.1c-0.5,3-1.4,5.9-1.8,8.9c-0.3,2.2,0,4.5-0.2,6.8c0,0.6-0.6,1.2-0.9,1.8
	l-0.7-0.2c0-1.7-0.1-3.4,0-5.1c0.2-1.1,0.4-2.1,0.7-3.1c0.4-1.8,0.6-3.7,0.5-5.5c-0.4-5-0.4-10-0.2-15c0.1-1.7,0.5-3.4,1.3-5
	c0.1,3.1,0.4,6.1,0.3,9.2s-0.5,6.2-0.5,9.4C260.6,328,261,325.9,261.5,323.8L261.5,323.8z"/>
<path class="st0" d="M238.5,325.4c0.5,0.8,0.6,1.1,0.9,1.5c-0.1-0.7-0.1-1.2-0.2-1.8c2,6.5,3.7,12.9,0,19.9l0.6-3.4l-1.2,1l-0.5-0.2
	c0.6-1.7,1.1-3.3,1.7-5l0.5,0.1l-0.5,2.9c0.7-1.3,1.4-2.6,0.4-4.2c-0.4-0.8-0.7-1.7-0.8-2.6c-1.4,4.9-3,10-4.5,15.1l-0.7-0.2
	l5.4-18.1h0.2l-0.1,1.7h0.4v-4.3c-0.9,1-1.4,1.7-2,2.3l-0.5-0.2L238.5,325.4z"/>
<path class="st0" d="M285.1,283.8c-0.1-1.6-0.4-3.1-0.4-4.7c0-3-0.3-6.1,0.3-9.1c0.6-3.5-0.5-6.5-1.8-9.5c-0.4-0.8-0.6-1.7-0.7-2.6
	c0.8,1.1,1.9,2,2.4,3.3c1,2.6,1.6,5.4,2.4,8.1c0.1,0.6,0.2,1.1,0.4,1.6c0.7,1.6,0.6,2.4-1,4.5v-6.2c-1.1,0.7-1.4,2.5-1,4.1
	c0.7,3.4,0.7,6.9,0.1,10.4L285.1,283.8z"/>
<path class="st0" d="M258.8,312c-0.1,1.8-0.1,3.6-0.2,5.4c-0.4,7.5-0.8,14.9-1.2,22.4c-0.1,0.5-0.2,1.1-0.4,1.6h-0.5v-3.6
	c0-1.3,0-2.5,0-3.8c-0.1-2-0.4-4-0.4-6.1c-0.1-2.8,0-5.7,0.4-8.5c0.2,2.7,0.4,5.5,0.6,8c1.5-3.1,0.7-6.5,0.7-9.8c0-2.1,0-4.3,0-7
	L258.8,312L258.8,312z"/>
<path class="st0" d="M250.2,305.1c0.3,2.3,0.6,4.6,0.9,7.2l0.5-1.2l0.5,2.4h0.3l-0.3-4.5c1.7,6,1.5,12.2,2.1,18.4l-0.9,0.1
	l-0.6-11.6h-0.2c-0.1,0.4-0.1,0.8-0.2,1.1h-0.3l-0.2-2.4h-0.3c0.4,4.1,0.8,8.1,1.2,12.2h-0.8c-0.7-7.2-1.4-14.4-2.1-21.6
	L250.2,305.1z"/>
<path class="st0" d="M228.9,98.3h-2.5l1.6,2.6l-0.3,0.2l-2-1.1l-0.2,0.3c0.5,0.6,1,1.2,1.8,2.2l-1.6-0.3c0.1,1.1,0.2,2.2,0.3,3.1
	c-1.1-1.2-2.3-2.4-3.5-3.7c-0.1-0.3-0.1-0.6,0-0.8c1-1.2-0.8-3.4,1.4-4v-2.4l5.1,3.4L228.9,98.3z"/>
<path class="st0" d="M248,220.2l-0.8-2l5.2,5.6c-1.4-0.8-4,0.3-5.8-2.2c-0.9-1.3-3.1-1.6-4.6-2.4c-3.6-2-7.1-4-10.6-6
	c-0.1,0-0.1-0.2-0.1-0.6C236.9,214.9,241.7,219.1,248,220.2z"/>
<path class="st0" d="M272.2,304.7c1.8-3-0.1-5.7-0.6-8.5c-0.6-3.1-1.2-6.2-1.8-9.2l0.4-0.3c0.4,0.4,1,0.8,1.2,1.3
	c2.3,4.8,2.5,10,2.4,15.2c0,0.6-0.7,1.2-1.1,1.8L272.2,304.7z"/>
<path class="st0" d="M238.8,346.6c0,0.2,0.1,0.6,0.3,1.2c0.7-1.9,1.3-3.5,1.9-5.1l0.6,0.1c-0.4,2.2-0.7,4.5-1.3,6.7
	c-0.6,2.4-2.2,4.8-2.2,7.2s-1.4,2.3-2.4,2.7C236.6,355.1,237.7,350.8,238.8,346.6z"/>
<path class="st0" d="M254.2,311.9l0.3,1.9h0.3c0.1-0.8,0.3-1.6,0.4-2.4h0.3v5.9l-0.5-1.3c0.1,7,1,14.1-1,20.9h-0.8l0.6-7.7l0.5,0.6
	v-17.9H254.2z"/>
<path class="st0" d="M234.1,168l-1.5-1.5l1.1,0.1l-6.6-9.6l0.6-0.4l5.8,7.6c-0.2-0.9-0.4-1.7-0.6-2.4l0.4-0.1l3,7l-0.4,0.2
	L234.1,168L234.1,168z"/>
<path class="st0" d="M255.9,211.2l1.2-0.7c-1-0.4-2.2-0.4-2.6-1.1c-1.4-2.4-4.4-2.2-5.9-4.5l4.3,1.9l0.3-0.4l-2.9-2.2l0.3-0.5
	c0.4,0.3,0.9,0.5,1.3,0.8c1.7,0.9,2.5,2.9,4.5,3.5c0.5,0.1,0.9,1,1.2,1.6C258.1,211.1,257.9,211.3,255.9,211.2z"/>
<path class="st0" d="M288.2,253.7l-0.8-1.9l1.1,0.6l0.4-0.3c-3-5-6-10-9.2-15.2c0.8,0.6,1.7,1,2.2,1.7c2.3,3.7,4.5,7.4,6.6,11.2
	C289.2,250.9,289.7,252.3,288.2,253.7z"/>
<path class="st0" d="M232.4,94.8l-6.9-5.8c2.4,0.2,4.2,0.3,6,0.6c0.4,0.2,0.8,0.6,0.9,1.1C232.5,91.9,232.4,93.1,232.4,94.8z"/>
<path class="st0" d="M256.9,263.6l-0.6,3l0.3,0.1c0.4-0.8,0.9-1.5,1.4-2.5l0.6,0.8l2.2-1.5c-0.3,1.6-0.9,2.8-2.2,2.5
	c-2.1,2-4.1,3.9-6,5.8l-0.4-0.4c0-0.1,0-0.3,0.1-0.4c1.8-1.2,2.8-3.2,2.8-5.4c0.1-0.8,1.1-1.5,1.7-2.3L256.9,263.6z"/>
<path class="st0" d="M223.8,120.4l-1-0.2l-0.8,1.9l1.2,0.6l-1.4,1.4c0.5,1.3,0.8,2.6,1.4,3.8c0.6,1.1,1.2,2.1,1.9,3.1
	c-3.1-1.2-4.6-4-4.1-7.8c0.1-0.6-0.2-1.2,0-1.7c0.3-0.8,0.7-1.5,1.3-2.1c0.3-0.2,1.1,0.1,1.6,0.2L223.8,120.4z"/>
<path class="st0" d="M248.2,243.6l1.9-5.2c0.2,0.9,0.3,1.4,0.5,2.3c0.4-2.1,0.8-3.8,1.1-5.5l0.4-0.1c0.1,0.5,0.5,1.1,0.4,1.5
	c-0.8,3-1.7,5.9-2.5,8.8c-0.1,0.3-0.2,0.5-0.3,0.8l-0.5-0.1l0.9-3.9l-0.3-0.1l-1.7,4.9H248C248.1,246,248.2,244.8,248.2,243.6
	L248.2,243.6z"/>
<path class="st0" d="M260.1,241.2c-0.5,0.5-1,1-1.4,1.6c-0.3,0.6-0.6,1.2-0.8,1.8c-0.7-1.9-1.3-3.5-2-5.4l-0.8,1.5
	c-0.1-1.3-0.3-2.2-0.4-3l0.6-0.4l4.7,4.1L260.1,241.2z"/>
<path class="st0" d="M241.1,179.5c0.9,0.8,1.6,1.6,2.2,2.6c1.5,3.4,2.8,6.8,4.1,10.2l-0.4,0.2c-2.1-4.2-4.2-8.5-6.2-12.8
	L241.1,179.5z"/>
<path class="st0" d="M267.1,248.9l-3.8-4.8l-0.5,0.3v-1.7C266.4,243.5,269.2,246.7,267.1,248.9z"/>
<path class="st0" d="M228.1,343.1l-0.9,0.8c-0.3-4.8,2-8.6,3.7-12.6c-0.2,1-0.4,2.1-0.6,3.1C229.6,337.2,228.8,340.2,228.1,343.1
	C228.1,343.1,228.1,343.1,228.1,343.1z"/>
<path class="st0" d="M238.1,229.7c0.3-0.6,0.7-1.2,1.2-1.6c0.5-0.3,1.1-0.5,1.7-0.4c0.1,0,0.5,0.8,0.4,1.1c-0.3,0.5-0.6,1.1-1,1.5
	c-0.2,0.3-0.4,0.6-0.5,0.9c-0.2,1.9-0.5,3.9-1.1,5.8c0-1,0-2,0-3C238.9,232.4,239.4,230.9,238.1,229.7L238.1,229.7z"/>
<path class="st0" d="M235,108.9c1.1,0.7,2.2,1.3,2,3c-0.1,1.1-0.1,2.1-1.5,2.2c-1.3,0.2-2.6-0.8-2.7-2.1c0,0,0-0.1,0-0.1l3,1.8
	l0.2-0.3l-1.5-2.1l1.2-0.2l-2.5-2l0.2-0.4l1.7,0.4L235,108.9z"/>
<path class="st0" d="M249.5,270.8l5-9.5C255.1,263.4,253.4,268.4,249.5,270.8z"/>
<path class="st0" d="M261.5,323.8c0.1-4.1,0.2-8.2,0.2-12.3h0.6C262.6,315.6,263.1,319.8,261.5,323.8L261.5,323.8z"/>
<path class="st0" d="M222.4,161.2c-2.2-0.1-3.3-2.3-3.1-6.4C220.4,155.2,220.4,155.2,222.4,161.2z"/>
<path class="st0" d="M258.9,312c-0.1-1-0.2-2.1-0.3-3.1c-0.2-3.5-0.5-6.9-0.7-10.4c0-0.8,0-1.6,0-3c1.5,5,2,10.3,1.4,15.6
	C259.1,311.4,259,311.7,258.9,312L258.9,312z"/>
<path class="st0" d="M253.4,353.5l-10.1,7.3l-0.4-0.6l10.1-7.4L253.4,353.5z"/>
<path class="st0" d="M197,61.7c1.9,2.5,2.6,5,2.2,7.3C197.1,66.7,196.3,64.1,197,61.7z"/>
<path class="st0" d="M227.5,131.1c-3-1.2-3.4-3.4-3.8-5.9C227.1,125.9,226.2,128.9,227.5,131.1z"/>
<path class="st0" d="M235.1,109c-0.4-1.2-0.8-2.3-1.2-3.3l1.9-2.4l0.4,1.9l-0.1,0.1c0.2,1.2,0.4,2.4,0.7,3.8L235.1,109L235.1,109z"
	/>
<path class="st0" d="M196.2,70.2c1.5,2.2,3.2,4,2.6,6.8C197.4,74.9,195.3,73.2,196.2,70.2z"/>
<path class="st0" d="M258.2,255.5c0.2-2.2,0.4-4,0.5-5.9c-1.2-0.2-1.1-1.6,0.4-3.4C259.3,249.2,260.7,252.3,258.2,255.5z"/>
<path class="st0" d="M216.4,145.3c-0.1-2.3-0.3-4.6-0.5-7.3C218,140,218,140,216.4,145.3z"/>
<path class="st0" d="M166.6,328l2.2-0.5c-2.5,1.3-3.9,4.4-6.8,5.2l-0.5-0.7L166.6,328L166.6,328z"/>
<path class="st0" d="M236.6,176.2l-6.9-4.7l0.5-0.8c2.3,1.6,4.9,2.7,6.8,4.8L236.6,176.2z"/>
<path class="st0" d="M239.1,176.2c-1.7-1.8-4.8-2.4-5.2-5.9C236.2,172.2,238.5,173.4,239.1,176.2z"/>
<path class="st0" d="M212.5,351.5c-0.3,2.1-0.6,4.1-1,6.2C209.2,356.8,209.2,356.8,212.5,351.5z"/>
<path class="st0" d="M217.5,173.2c-2.6-1.1-4.3-2.8-4.3-6.1C215.8,168.6,215.7,171.5,217.5,173.2z"/>
<path class="st0" d="M230.1,198.8l2.2-0.2v0.5l-1.2-0.1l1.1,1.4c-3,0.1-4.4-1.2-4.4-4.5L230.1,198.8z"/>
<path class="st0" d="M220.8,149.5c-1.2-0.1-2.1-0.5-1.6-1.9c0.1-0.4,1-0.5,1.7-0.8l-1.8-2.8l0.6-0.4l2.2,3.7L220.8,149.5z"/>
<path class="st0" d="M198.4,97.3c0.1-1,0.2-1.9,0.3-2.9l-0.1,0.1l2.3-2.3c0.2,1.4,0.4,2.6,0.6,3.9l-1.9-1.7
	C200.7,96.5,199.2,96.7,198.4,97.3L198.4,97.3z"/>
<path class="st0" d="M272.1,223.3l-7.2-3.6C267.6,219.1,271.9,221.3,272.1,223.3z"/>
<path class="st0" d="M254.2,236.8c-0.3,2.3-0.6,4.4-1,6.9C251.8,240.7,252.5,236.8,254.2,236.8z"/>
<path class="st0" d="M231.8,189.1l-5.7-2.4l0.2-0.6l2.5,1.1l0.2-0.4l-4.3-2.5C228.3,184.5,229.6,187.4,231.8,189.1z"/>
<path class="st0" d="M270.2,326.1c0.9,3.3,0.2,5.9-1.6,6.4C269.2,330.2,269.7,328.2,270.2,326.1z"/>
<path class="st0" d="M230.9,96l-0.6-1h-0.2c0.1,0.6,0.2,1.2,0.3,1.8l-0.3,0.1l-1.1-3.2l-0.4,0.1l0.3,2.2l-0.5,0.1
	c-0.2-1.1-0.4-2.2-0.7-3.4C230.1,93.1,231,94,230.9,96z"/>
<path class="st0" d="M264.1,324.7c-0.5,2.4-1.1,4.8-1.6,7.1l-0.7-0.1l1.2-7.2L264.1,324.7z"/>
<path class="st0" d="M250.4,256.4l2.3-7.7c1.2,3.1-1.8,5.1-1.3,8L250.4,256.4z"/>
<path class="st0" d="M277.2,232.9c2,0.4,3.5,1.3,3.4,3.9l-3.9-3.4L277.2,232.9z"/>
<path class="st0" d="M269.7,247.7c1.8,2.2,1.6,6.2,0,7.6V247.7z"/>
<path class="st0" d="M226,196.7l-1-1.1c1.1-0.7,1.6-0.7,2.2,0.7c0.3,0.6-0.1,1.5-0.2,2.3l-1.6-0.6L226,196.7z"/>
<path class="st0" d="M207.4,226.8c0.9,2.6,1.9,5.2,2.8,7.8l-0.6,0.2c-0.9-2.6-1.9-5.2-2.8-7.9L207.4,226.8z"/>
<path class="st0" d="M260,241.2c0.5,0,1,0.1,1.4,0.3c0.1,0.9,0,1.7-0.3,2.5c-0.2,0.4-1,0.5-1.9,0.8L260,241.2L260,241.2z"/>
<path class="st0" d="M213.5,230.1v6H213l-0.4-6H213.5z"/>
<path class="st0" d="M252.1,258.1c0.3-1.8,0.6-3.6,0.8-5.4l0.8,0.1l-0.6,5.4L252.1,258.1z"/>
<path class="st0" d="M198.4,97.3l0.5,2.1l-1.8-0.4l0.9,3.4c-2-1.9-1.9-3.7-0.1-5.1C198,97.1,198.2,97.3,198.4,97.3L198.4,97.3z"/>
<path class="st0" d="M252.1,335.6v-7.7h0.9c-0.1,2.5-0.3,5.1-0.4,7.6L252.1,335.6z"/>
<path class="st0" d="M261.2,336.2c-0.4,2.1,1.8,4.1-0.2,6.3c-0.2-1.9-0.3-3.6-0.5-5.4c0-0.3,0-0.6,0.1-0.9L261.2,336.2z"/>
<path class="st0" d="M214.9,151.5l4.1,6.1l-0.6,0.4l-4-6L214.9,151.5z"/>
<path class="st0" d="M252.1,343.8c0.3-1,0.6-1.9,0.9-2.9s0.5-2,0.7-3.1C254.7,339.1,254.5,340.1,252.1,343.8z"/>
<path class="st0" d="M258.6,209.3c1.1,1.1,2.7,1.4,2.8,3.2C259.3,212.2,258.5,211.3,258.6,209.3z"/>
<path class="st0" d="M234.1,167.9c0.7,0.6,1.3,1.2,2,1.9s1.1,1.1,1.6,1.7l-0.3,0.4c-1.3-0.9-2.6-1.8-3.7-2.8
	C233.1,168.6,232.7,167.8,234.1,167.9L234.1,167.9z"/>
<path class="st0" d="M214.8,175.4l4.2,1.4l-1.3,1.4l-3.2-2.4L214.8,175.4z"/>
<path class="st0" d="M262.3,338.4c0.2-1.8,0.3-3.6,0.5-5.5l0.7,0l-0.4,5.4L262.3,338.4z"/>
<path class="st0" d="M230.2,146.8c-0.3-2-0.7-3.9-1.1-6.1C230.7,142,231.1,145.2,230.2,146.8z"/>
<path class="st0" d="M194.6,101.9c0.2,0,0.6-0.2,0.7-0.1c0.9,1,1.7,1.9,2.6,2.9C196.1,105.1,195.1,104.3,194.6,101.9L194.6,101.9z"
	/>
<path class="st0" d="M262,216.1l-3-2.8C261.7,213.2,262.4,213.8,262,216.1z"/>
<path class="st0" d="M255.6,250.2l0.3-7l0.7,0.1c-0.1,2.3-0.3,4.7-0.4,7L255.6,250.2z"/>
<path class="st0" d="M223.5,241.9v-6.1h0.7l-0.3,6L223.5,241.9z"/>
<path class="st0" d="M280.3,251.6l-4.2-3.8l0.3-0.4C278.1,248.2,279.8,249.1,280.3,251.6z"/>
<path class="st0" d="M226.1,199.7l-1.9,0.1c0.2,0.6,0.3,1.2,0.4,1.7c-0.2,0.1-0.4,0.2-0.6,0.2c-0.4-0.7-0.8-1.4-1.5-2.7l3.6,0.2
	L226.1,199.7z"/>
<path class="st0" d="M166.6,341.9l3.3-2.9C169.7,341,168.8,342.1,166.6,341.9z"/>
<path class="st0" d="M271,311.5l0.6-5.5l0.7,0.1l-0.7,5.4L271,311.5z"/>
<path class="st0" d="M281.1,254.6l3.3,3l-0.6,0.6l-3.3-3L281.1,254.6z"/>
<path class="st0" d="M256.2,298.5v7.7h-0.3c-0.1-2.6-0.2-5.2-0.3-7.7L256.2,298.5z"/>
<path class="st0" d="M253.2,302.3l0.5,6.5l-0.6,0c-0.2-2.2-0.4-4.3-0.5-6.5L253.2,302.3z"/>
<path class="st0" d="M234.1,191.5l-5.1-2l0.2-0.6l5.1,1.9L234.1,191.5z"/>
<path class="st0" d="M187.4,339.7l-1.4,0.7l1.7-4.3h0.6c0.1,0.5,0.1,1,0,1.5C188,338.3,187.7,339,187.4,339.7L187.4,339.7z"/>
<path class="st0" d="M287,253.1l2.4,5.6l-0.5,0.2c-0.9-1.8-1.7-3.6-2.6-5.4L287,253.1z"/>
<path class="st0" d="M198.8,38.4c-0.1-1.5-0.2-3-0.4-4.4l0.8-0.1l0.4,4.4L198.8,38.4z"/>
<path class="st0" d="M198.6,51.3l-0.6-5.5l0.5-0.1l0.8,5.4L198.6,51.3z"/>
<path class="st0" d="M200.2,57.1v-6.2h0.4v6.3L200.2,57.1z"/>
<path class="st0" d="M199,60.1l-1.6-5.2l0.6-0.2l1.6,5.4L199,60.1z"/>
<path class="st0" d="M159.3,336.6l-1.2,0.2l-0.3-0.4l3.5-2.8l0.6,0.6L159.3,336.6L159.3,336.6z"/>
<path class="st0" d="M264.4,236.9l4.3,2.1l-0.3,0.6C267.1,238.7,265,239.3,264.4,236.9z"/>
<path class="st0" d="M275.7,327.9c-0.6,1.6-1.2,3.2-1.8,4.8l-0.6-0.2c0.3-0.8,0.7-1.5,1-2.3s0.5-1.7,0.7-2.6L275.7,327.9z"/>
<path class="st0" d="M235,202.1l3.5,1.5c-0.1,0.3-0.3,0.6-0.4,0.9l-3.4-1.8L235,202.1z"/>
<path class="st0" d="M240.3,353.7c-0.3,1.1-0.6,2.2-1,3.3l-0.9-0.3l1-3.3L240.3,353.7z"/>
<path class="st0" d="M224.4,106.9l-2.6-2.2l0.6-0.7l2.6,2.2L224.4,106.9z"/>
<path class="st0" d="M238.2,229.7l-1.8,2.6c0-1.6-0.4-3.1,1.7-3.4L238.2,229.7L238.2,229.7z"/>
<path class="st0" d="M234.9,208.1l-2.1-0.6V207l1.1-0.4l-1.3-0.6l0.4-0.5l2.3,1.8L234.9,208.1z"/>
<path class="st0" d="M272.7,231.3l3.5,3.8l-0.4,0.4L272,232L272.7,231.3z"/>
<path class="st0" d="M147.2,223.8c-0.1,0.1-0.2,0.1-0.3,0.2c-1,3.4-3.4,6.3-6.5,7.9c-0.3,0.2-0.5,0.4-0.7,0.6
	c-0.1,0.2-0.3,0.5-0.4,0.8l1.5-0.9l-3.1,7.5l1.5-1.3c0,0.2,0.1,0.4,0,0.5c-0.9,1.3-1.7,2.6-2.4,4c-0.4,1.4-0.7,2.9-0.8,4.4l0.1-0.1
	c-2.4,2.2-2.7,5.1-2.7,8c0.1,0.7,0,1.3-0.1,2c-1.2,3.6-1.6,7.4-1.4,11.2c0,0.9-0.1,1.8-0.2,2.6l0.1-0.1l-1.2,3.7l-0.8-0.1
	c-0.6-6.6-2.8-12.9-2.2-19.6c0.5,3.3,0.9,6.5,1.4,9.8l0.6-0.1c-1.2-5.2-1.2-10.6,0-15.9l0.4,0.5c1-3.4,2.1-7.1,3.3-10.8h0.4l0.2,2.5
	c0.4-4,2-7.9,4.6-11c0.1,0.6,0.3,1,0.4,1.5c0.1-0.1,0.2-0.2,0.2-0.3c-0.5-2.4,1.7-3,2.8-4.3c1.4-1.4,3-2.8,4.6-4
	c0.2-0.2,0.5-0.3,0.9-0.6L147.2,223.8L147.2,223.8z"/>
<path class="st0" d="M147.2,223.9c2-3.3,6.1-5.9,9.6-5.8c-0.6,0.4-1.2,0.8-1.8,1.1c-1.4,0.6-2.5,1.1-2.6,3c0,0.7-0.5,1.2-1.2,1.2
	c-0.4,0-0.8-0.2-1-0.6l-2.8,2.6C147.4,224.7,147.3,224.2,147.2,223.9L147.2,223.9z"/>
<path class="st0" d="M160.4,210.3c1.7-1.2,3.6-1.2,5.4-1.4c1.3,0,2.6-0.1,3.9-0.3c1.3-0.4,2.8,0.1,3.7,1.1c-1.7,0.3-3.3,0.6-4.9,0.7
	c-0.4,0-0.9-0.6-1.3-0.6C165,210,162.8,210.1,160.4,210.3z"/>
<path class="st0" d="M135,277.4c-2.4-1.7-2.4-1.7-1.3-6.2C135.1,272.2,135.5,273.9,135,277.4z"/>
<path class="st0" d="M146.2,326l9.5-3.3C154,324.6,148.8,327.6,146.2,326z"/>
<path class="st0" d="M157.6,207v1.8l1.7-2.8c0.3,2.1-0.3,2.7-1.9,3.1c-1.2,0.4-2.4,0.9-3.6,1.6c-0.3,0.1-0.6,0.1-0.9,0.2l-0.3-0.5
	L157.6,207z"/>
<path class="st0" d="M150.1,329.8l5.4-3.3l0.8,1.8l-2.4,1.5l-0.3-0.4l0.8-1.1l-4.1,2L150.1,329.8z"/>
<path class="st0" d="M135.4,282.8h-0.5c0.5,0.6,0.9,1,1.5,1.7c-2.3-1-3.4-4.3-2.3-7.1c0.3,0.7,0.6,1.4,0.8,2.2
	C135.1,280.7,135.2,281.7,135.4,282.8z"/>
<path class="st0" d="M139.7,319.7c-0.8-2.3-1.6-4.6-2.5-6.9l0.9-0.3l2.3,7L139.7,319.7z"/>
<path class="st0" d="M141.2,295.7c-2-0.1-2.2,1.6-2.8,2.8c-0.3,0.8-0.6,1.7-0.8,2.5c-0.2-1.2-1.4-1.9,0.2-2.9c0.3-0.2-0.2-1.8-0.3-3
	L141.2,295.7L141.2,295.7z"/>
<path class="st0" d="M146.9,318c-0.1,1.2-1.9,2.9-2.8,2.7c-0.4-0.1-0.8-0.6-0.8-0.9c0.1-0.5,0.3-0.9,0.7-1.1
	c0.4-0.3,0.9-0.4,1.4-0.5C145.9,318,146.3,318,146.9,318z"/>
<path class="st0" d="M156,325.1l-4.8,3.1c0.3-2.7,3-2.4,4.3-3.9L156,325.1z"/>
<path class="st0" d="M139,300.2c0.2-0.8,0.4-1.4,0.6-2h0.4l0.4,1.9l0.7-1.9l1.5,0.4C142.7,299.8,141.1,300.6,139,300.2z"/>
<path class="st0" d="M148.9,218.7l-5.3,3.4l-0.4-0.6l5.3-3.5L148.9,218.7z"/>
<path class="st0" d="M175.7,204.1l2-0.3l-0.3-0.3l3.2-2.5l0.6,0.8l-5.1,3.2L175.7,204.1z"/>
<path class="st0" d="M146.4,215.6l-5.1,3.1C141.5,217.2,143.4,215.9,146.4,215.6z"/>
<path class="st0" d="M159.4,212.4c-1.7,1.3-3.2,3-6,2.3L159.4,212.4z"/>
<path class="st0" d="M144.5,315.7l-2,0.7h2l-1.5,2c-0.4-1-0.6-1.8-0.9-2.6C142.8,315.2,143.5,314.2,144.5,315.7z"/>
<path class="st0" d="M140.8,312l1.9-0.8c0.2,0.6,0.3,1.2,0.4,1.8c-0.1,0.4-0.4,0.7-0.8,0.8c-0.4,0-0.9-0.1-1.2-0.4
	C140.9,313,140.9,312.5,140.8,312z"/>
<path class="st0" d="M184,207.6l-4.1,2.2l-0.4-0.6l4-2.4L184,207.6z"/>
<path class="st0" d="M138.5,279.3l-2.9-2.5l0.4-0.5l4.8,3.6l-0.1,0.2L138.5,279.3L138.5,279.3z"/>
<path class="st0" d="M167.3,204.4l1.2,1.1l-4.9,0.8l-0.1-0.2L167.3,204.4z"/>
<path class="st0" d="M136.7,221.1l2.3-3.5l0.4,0.2c-0.6,1.2-1.2,2.4-1.9,3.7L136.7,221.1L136.7,221.1z"/>
<path class="st0" d="M142.9,225l-2.6,2.8l-0.5-0.4l2.4-3L142.9,225z"/>
<path class="st0" d="M146.5,322.1c0.3-2.2,1.9-2.3,2.9-3.1l0.5,0.6L146.5,322.1z"/>
<path class="st0" d="M131.7,271.3l1-1.7l0.4,0.1l-0.3,3.8h-0.9C131.9,272.7,131.8,272,131.7,271.3L131.7,271.3z"/>
<path class="st0" d="M162.1,224.9v4.1c-0.8-1.6-1.5-2.8-0.7-4.1L162.1,224.9z"/>
<path class="st0" d="M141.2,252.2l-2.1-2.4c-0.4,1.2-1.9,2.2-0.6,3.8c0.2,0.3-0.1,1-0.1,1.7c-1.3-1.2-2-2-1.1-3.7
	c0.8-1.9,1.6-3.8,2.2-5.8c0.3-0.5,0.8-1,1.2-1.5l-0.1-1.5l0.4-0.1l1.9,4.6l-0.2,0.2l-1.6-1.8l-0.2,0.1c0.4,1,0.8,2,1.2,3l-0.4,0.3
	l-1.4-2.2l-0.6,0.4l1.7,4.7L141.2,252.2z"/>
<path class="st0" d="M145.3,256.5c-1.4,0.4-3.7-1.6-4.1-3.5c0-0.2,0-0.5,0-0.7l0.2-0.1L145.3,256.5L145.3,256.5z"/>
<path class="st0" d="M199.8,222.7c1.8,1.2,0.4,2.7,0.5,4.1C199.8,225.5,198.6,224.3,199.8,222.7L199.8,222.7z"/>
<path class="st0" d="M192.9,224.9l0.9-2h0.4c-0.2,1.5-0.4,3-0.6,4.5h-0.4C193.1,226.5,193,225.7,192.9,224.9L192.9,224.9z"/>
<path class="st0" d="M197.9,123.1c1.3-1.6,2.5-1.2,4.1,0H197.9z"/>
<path class="st1" d="M250.5,350.9l2.3-0.3l0.2,0.5l-4.1,1.7l-1.1-1.7l-0.4,1.4c-1.9-4.4-0.6-9.1-2-13.5l0.8-0.1l0.8,4.5
	c0.8-4.9-0.6-9.5-1.2-14.3l0.6-0.1c0.4,2.2,0.8,4.4,1.1,6.5c0,0.5,0.1,1,0.2,1.5c1.4,3.2,0.7,6.4,0,9.5c-0.4,1.5-0.5,2.7,1.7,2.2
	C250,349.5,250.3,350.2,250.5,350.9z"/>
<path class="st1" d="M239.8,314c2.3,6.7,5.8,13.1,5.5,20.5c-2-6.8-4-13.5-6.1-20.3L239.8,314z"/>
<path class="st1" d="M247.8,316.6c2.6,3.1,1.7,6.8,2.6,10.2l-0.7,0.1L247.8,316.6z"/>
<path class="st1" d="M229.8,359l0.8-4.9l0.7,0.1l-1,4.9L229.8,359z"/>
</svg>
