<?xml version="1.0" encoding="utf-8"?>
<!-- Generator: Adobe Illustrator 22.0.1, SVG Export Plug-In . SVG Version: 6.00 Build 0)  -->
<svg version="1.1" id="Layer_1" xmlns="http://www.w3.org/2000/svg" xmlns:xlink="http://www.w3.org/1999/xlink" x="0px" y="0px"
	 viewBox="0 0 523.3 791.5" style="enable-background:new 0 0 523.3 791.5;" xml:space="preserve">
<style type="text/css">
	.st0{fill:#FFFFFF;}
	.st1{fill:#232323;}
</style>
<path class="st0" d="M86.3,489.6l-17.2,37.8c0,0-5.7,3.4-5.4,26.9s-2.8,27.8-2.8,27.8s-5.7,17.3-0.5,31.7s3.3,23.1,15.1,25.9
	l5.7,15.9l19.4,20.9c0,0,17.3,18.1,27.4,24c10.1,5.8,15.9,12.2,15.9,12.2s-4.9,2.4,42.1,17.4l7.6,4h13.9l25.6,6h25.8l75.5-15.6
	c0,0,33.5-6.8,47.3-15.8s42.5-34.9,42.5-34.9s30.6-40.5,37.2-71.6l6.4-16.5l3.9-30.8l-2.9-39.5l-5.2-31.9l-10.7-23.5L441.6,434
	L431,418.8l-11.1-9.6c0,0-13.2-5.4-17.2-16s-15.1-30-15.1-30l-27.8-38.5l-35.5-30.5l-17.9-17.8c0,0-41.2-30-42.7-38.1
	c-1.6-8.1-14-16.4-13-25s-2.4-27.6-2.4-27.6s-5.4-34.7-5.4-35.7c0-1,0.2-26.8,0.2-26.8s-1.7-24.8-3.3-33.5c-1.6-8.7-9-13.2-9-13.2
	s-10.4,4.2-8.2-2.5s0.4-24.5,0.4-24.5s-2.6-7.1-7.6-5.4c-5,1.7-5.1,12-5.1,12L209.1,77l-9.8,1.5l-2.3-1.9c0,0-3.7,3.4-14.4,2.3
	l-15.5,6.9L144,94.9l-10.8,9.9l-3.1,7.7l7.8,18.3l9.3,28.1c0,0,11.2,15.7,10.2,27.3c-1,11.7-6.7,30-6.7,30l-13.2,41.2l-8.2,23.7
	l-5.4,23.2l-2.5,23.2l-2.6,30.1l-6.7,31.8l-6.6,38.9l-8,26.9L86.3,489.6z"/>
<title>Artboard 1</title>
<path class="st1" d="M379.1,512l-7.9-8.7c0.5-0.6,1-1.5,1.8-2.5l11.1,8.8l0.6-0.4l-8-8.9l0.9-0.9c4.1,1.3,6.8,7.6,12.2,3.4l2.2,6.7
	l-4.6-1.9l-4.5,14.6l14.6,15.2l0.8-0.7l-12.9-14.2l3.3-8.5l25,23.7l0.8-0.8l-24.3-24.5c0.8-2.5,3.8-3,6.3-0.8c2.8,2.5,5.8,4.8,9,6.7
	l-5.3-8.1l-0.3,0.5l-7.2-5.6l3.2-2.5v3.6c1.3-1.4,1.9-2.1,2.6-2.7c0.7-0.7,1.5-1.4,2.3-2c4.9-3,8,0.3,11.1,3.3
	c2.6,2.5,5.1,5.1,7.7,7.7c0.6,0.5,1.3,0.8,2,0.8c-5.6-2.8-2.5-8.7-5.1-13.4v6.6c-0.9-0.6-1.9-1-1.9-1.3c0.7-4.7-3-9.1-0.4-14.1
	c2-4,2.5-8.8,4.4-12.9c4-8.6,8.5-17,17.3-22c0.9-0.7,1.5-1.8,1.8-2.9c1-3.8,2.5-4.8,6.2-3.8c0.9,0.2,1.9,0.3,2.9,0.2
	c0.6-4-11.9-25.2-17.7-29.7l8.4,15l-0.8,0.8l-3.8-4.2c0,3.7-0.2,6.8,0,9.8c0.2,2.5-1.4,3.1-3.2,3.8c-2.6,0.9-5.5,1.4-7.9,2.8
	c-6.8,3.9-13.3,8.3-20,12.3c-1,0.6-2.7,0.1-4.2-0.8l-3.6,3.1c0.4-2.4,0.7-3.7,0.7-4l-11.3,7.6l-1.1-1.5l4.9-3.5l-0.7-1.2l-7.5,3.8
	c2.1,2.9,1.6,3.7-4.7,6.7l2.7-4.6l-2.8-1.2c4.3-2.5,7.9-4.8,11.7-6.8c5.6-2.9,11.3-5.6,17.2-8.6l2.5,1.3l-0.6-1
	c1.4-1.7,2.5-3.7,4.1-5c1.7-1.2,3.6-2.2,5.5-3c2.4-1.1,4.5-2.2,4.9-5.3c0.2-1.1,1.9-2.1,3.1-2.9c1.3-0.7,2.6-1.3,4-1.7
	c-0.5,2,0.4,3,3.1,2c-0.2-1.5-0.5-3-0.8-4.6l-0.9,0.1c-1.5-3.5-2.9-6.5-4.4-10c0,0,0.7-1.3,0.4-1.8c-3.5-4.7-6.5-10-13.2-10.8
	c-0.6-0.1-1.5-0.3-1.7-0.7c-2.8-5-8.4-6.2-12.5-9.4c-0.6-0.5-1.1-1.2-1.5-1.8h4.6c-2.1-2.6-4-4.6-5.5-6.7c-1.7-2.4-4-4.6-1.5-8.3
	c1-1.5,0.1-4.9-3.5-4.8l1.1-4.5l0.9-0.5c2.4,4.2,5.1,8.4,7.2,12.8c3.5,7.5,7.8,14.5,13,20.9c1.1,1.4,3.5,1.7,5.1,2.8
	c6.6,4.4,14,8.1,18.4,14.9c4.6,7.1,8.3,14.7,12,22.3c1.8,3.6,2.6,7.7,4.3,11.3c1,2.3,3,4.2,4.2,6.5c2.2,3.8,4.1,7.8,5.7,11.9
	c2.4,6.5,4.4,13,6,19.7c1.1,4.4,1.1,9,1.6,13.5c0.4,3,0.2,6.3,1.2,9.1c2.9,8.2,1.4,16.8,2,25.1c0.4,6.2,0.5,12.4,0.6,18.6
	c0.3,14.3-3.7,27.8-8.7,41c-4.1,10.8-8.1,21.6-12.4,32.3c-0.9,2.3-2.6,4.2-3.9,6.3c-5.6,9.3-10.7,19-16.8,27.9
	c-4.5,6.7-10.4,12.5-15.4,19c-4,5.2-9.6,8-14.8,11.5s-10.2,7.9-15.6,11.2c-9.8,5.9-19.8,11.6-30.7,15.1c-6.3,2-13.2,1.8-19.8,2.8
	s-13.1,2.4-19.6,3.6c-9.3,1.8-18.6,3.6-27.9,5.4l-21.9,4.2c-7,1.3-14,3.3-21.1,3.8c-5.4,0.4-10.9-0.7-16.3-1.5
	c-6.2-1-12.3-2.3-18.5-3.5c-0.5-0.1-1.3,0.1-1.4-0.2c-3.1-4.8-7.9-2.5-11.9-2.7c-4.5-0.2-8.4-0.6-12.6-3.2c-6.7-4.1-14.1-7-21.4-10
	c-3-1.3-6.5-1.6-9.7-2.5c-4.8-1.2-9.2-3.6-12.8-6.9c-5.5-5.2-11.8-9.7-17.7-14.5c-3.3-2.6-6.3-5.6-9-8.8c1.3,0.2,2.9,0.1,3.9,0.8
	c7.1,5.2,14.1,10.5,21.1,15.9c0.9,0.9,1.7,1.9,2.3,2.9c4.3,5.1,9.6,7.7,16.2,9.5c9.2,2.5,18,6.7,26.8,10.4
	c5.3,2.3,10.9,3.6,16.7,3.9c1.8,0,3.6,0.1,5.4,0.3c11.6,1.2,23.4,1.7,34.8,4c8.2,1.7,15.6-0.9,23.3-1.5c6.8-0.5,13.6-2,20.4-3.4
	c3.7-0.8,7.2-2.5,10.9-3.1c7.1-1.2,14.4-1.8,21.5-2.9c5.1-0.8,10.1-2.4,15.2-3.4c2.5-0.5,5.1-0.3,7.6-0.8c3.2-0.7,6.3-1.9,9.5-2.6
	c14.1-3,25.4-11.7,37.8-18.3c5.3-2.8,10.8-5.5,15.5-9.2c6.3-5.1,11.5-11.5,17.7-16.7c7.5-6.2,10.8-15.2,16.4-22.7
	c4.8-6.3,7.8-14.1,11.2-21.3c2.8-6.1,5-12.5,7.6-18.6c3.2-7.6,6.7-15,9.8-22.6c1.1-2.8,1.8-5.8,2.1-8.8c0.7-5.9,1.1-11.8,1.6-17.8
	c0.4-4.7,1-9.3,1.1-14c0.4-13.5-0.2-27-3.9-40.2c-0.8-3,0-6.3-0.3-9.5c-0.3-3-0.8-6-1.6-9c-1.4-5.8-3.1-11.5-5.1-17.2
	c-1.6-4-3.7-7.7-6.2-11.2c-1.2-1.2-2.9-1.7-4.6-1.4c-2,0.7-2,2.6-0.7,4.6c0.7,1.1,0.7,2.8,0.9,4.2c0.9,7.2,3.9,13.6,7.3,19.9
	c-0.7-7.3-5.2-13.7-4.9-21.1l1-0.4c1.7,4.2,3.5,8.4,5.1,12.7c1,2.6,1.7,5.4,2.5,8.1c0.6,2,1.2,4-2.3,3.5c-0.7-0.1-1.5,1-2.8,1.9
	c-2.9-7.6-5.6-15-8.3-22.3l-0.9,0.3l4.1,14.4l-1.4,0.4l-6.6-23c-3.8-0.7-9.4,4.7-9.5,8.9c-0.1,2.2-1.7,4.3-2.9,7l-2.8-2.9
	c-4.5,1.7-5.8,3.3-3.8,6.8c4.6,7.8,5,17,9,25c1.1,2.3,2.1,4.7,4,6.8c-2-7.1-3.9-14.2-6.1-22.1c1.1,0.6,1.5,0.7,1.6,0.9
	c2,6.9,4.7,13.7,5.6,20.8c0.5,3.9,1.8,7.8,1.5,11.6c-0.2,4.3-1.9,8.6-2.5,13c-0.2,1.7,0.8,3.5,0.9,5.2c0.3,1.7,0.2,3.4-0.2,5
	c-2.6,6.7-1.8,13.4-1.2,20.2c0.6,7.4-0.1,14.7-3.9,21.4c-0.6,1-0.3,2.5,0,3.9c1.5-5.5,5.8-9.4,5.4-16.2c-0.5-8.9,0.1-18,3.2-26.8
	c0.5-1.6,0-3.5,0.1-5.3c0.2-5.5,0.5-11,0.6-16.5c0-3-0.3-5.9-0.5-8.9l1.4-0.1c0,4.1,0.2,8.2,0,12.3c-0.7,12.1-1.6,24.2-2.2,36.4
	c-0.2,3.1,0.6,6.2,0.6,9.2c-0.1,2.4-0.6,4.8-1.3,7.1c-1.4,5.2-3,10.4-4.7,15.6c-0.4,1.2-1.5,2.8-2.5,3c-3.5,0.7-4.4,3.2-4.9,6.1
	c-0.2,1,0,2.3-0.6,2.8c-5.3,5.3-5.4,12.8-8.3,19.1c-0.8,1.8-2.1,3.3-3.8,4.3c-5.9,2.6-12,4.7-17.9,7.1c-2.7,1.1-5.2,2.8-7.9,4
	c-4.3,2-8.7,3.8-13.1,5.7c-1.3,0.5-2.6,1.1-4.5,1.9c5,0.9,8.8-0.7,21.6-6.8c6.4-3.1,13.2-5.3,18-7.2c-2,2.3-5,6.1-8.3,9.6
	c-4.5,4.6-9.2,8.9-14,13.2c-3.4,3.1-6.9,6-10.6,8.7c-1.4,1-3.4,1-4.5,1.4c-5.3,3.9-10,8.3-15.6,11.1c-1.9,0.9-4.6,1.1-6.4,3l3.3-1.2
	c-1.4,3.6-1.6,3.5-5.5,2.6c-1.5-0.3-3.2,0.6-4.8,0.7c-6.8,0.4-13.5,0.8-20.2,1.6c3.6,2.3,3.6,2.3,7.4,1.2c2.7-0.8,5.5-1.1,8.3-0.9
	c-12.2,7-25.1,12.7-38.6,17l-0.7-2.9c-2.9,0.2-5.9,0.1-8.8-0.1c-4-0.5-7.8-0.8-11.6,1.2c-7,3.5-14.3,2.7-21.7,1.3
	c-2.9-0.5-6-0.2-9-0.5c-5.7-0.7-11.4-1.6-17-2.4c-3.6-0.5-7.3-1.2-11.4-1.9l2.6-2.5l-21.9-8.7l-0.3,0.6l17.2,9.9l0.2,0.8
	c-3.9,0.4-7.8,1-11.7,1.1c-3.6,0.2-7.1-0.1-10.6-0.9c-4.8-1.4-9.5-3.2-14-5.3c-2.6-1.3-5.2-2.8-7.6-4.4c-2.1-1.1-3.9-2.6-5.5-4.4
	c-3.5-4.4-8.8-7-14.5-7.1c-1.2,0-2.5-1.2-3.5-2.1c-0.7-0.9-1.3-2-1.8-3.1c-2.6-2.5-5.1-4.9-7.7-7.3c-0.2,0.3-0.5,0.5-0.7,0.8
	c2.8,2.3,4.1,6.2,8.4,6.6v3.6c-1.4-0.8-2.8-1.7-4.1-2.8c-4.5-4.2-9.2-8.3-13.3-12.9c-2.8-3.2-4.6-7.4-7.2-10.9
	c-2.4-3.3-4.9-7-8.2-9.3c-5.9-4.2-9.8-9.7-12.7-16c-0.6-1.2-1.8-2.1-2.4-3.2c-2.7-5.3-6-10.6-7.8-16.2c-1.2-3.7-3.4-5.9-5.9-8.3
	c-0.7-0.7-1.8-1.2-2.1-2c-1.4-4.9-4.8-7.8-9.1-10.5c-5-2.9-9-7.4-11.2-12.7c-0.4,6.1,4.2,9.9,7.2,14.5l-1.1,0.8
	c-3-3.6-6-7.2-9.2-10.9c-1,1.3-2,1.9,0.3,3.5c2.8,1.9,3.7,5.3,4.9,8.3l-1.3,0.8l-5-6.5c0,1.6,0,2.7,0,3.8c0,3.8,0.9,7.9-0.3,11.2
	c-1.6,4.1-0.1,7.2,1,10.6c2,6.2,4.4,12.2,6.8,18.3c0.7,1.8,1.2,3.4,4,3.5c1.5,0.1,3.5,2.4,4.3,4.1c1.7,3.6,4.8,5.3,7.4,7.8
	c5.3,5.1,9.7,11,14.5,16.6c0.2,0.3,0.3,0.7,0.6,1c3.5,2.9,3.8,6.7,2.6,11.4c-3-2.5-6.2-4.6-8.6-7.3c-3.9-4.2-8.2-8.5-10.8-13.5
	c-1.6-3.2-4.1-5.4-5.8-8.3c-0.9-1.4-1.9-2.8-2.9-4.1l1.4-2.5c-0.4-0.3-0.6-0.7-0.7-0.6c-5.7,0.4-6.4-4.5-8.2-8
	c-1.7-3.2-3.2-6.6-4.5-10.1c-1.8-5.2-3.3-10.5-4.6-15.9c-2-8,0.5-15.8,1.6-23.5c0.8-5.6,3.1-10.9,4.5-16.4c0.7-2.8,1-5.7,1.6-9
	l3.1-0.7c0.5,2.2-0.5,5.7,3.8,5.2c0.5,0,1.2,1.9,1.9,2.8c1.1,1.5,1.4,4.1,4.3,2.8c-1.6-3.8-1-7.4,1.7-8.6c-1.2-2.4-3.1-5,1.1-6.5
	c0.2-0.1,0.2-0.8,0.1-1.2c-0.2-3.5,0.6-4,4.7-2.2c-1.2-1.8-2.3-2.9-2.6-4.1c-0.2-1.1,0.5-2.3,0.9-3.5l1.2,0c0.6,1.2,1.1,2.3,1.7,3.5
	s1.2,2.2,1.8,3.2l1.8-1.4l-3.8-6.5c2.9-3.2,4.6,0.9,7.6,1c-0.8-1.2-1.7-2.4-2.7-3.5c-2.2-2.1-2.4-5.6-0.3-7.9
	c0.2-0.2,0.4-0.4,0.6-0.5c0.8-0.5,1.7-0.7,2.6-0.6c1.6,0.2,3.2,0.6,4.8,1c-0.8-1.7-1.6-2.8-1.5-3.8s1-2,1.5-2.9l3.8,2.7l0.6-0.7
	l-3-4.3l6.2-2.4c-0.5-0.6-2-1.8-2.6-3.3c-0.5-1.3,0.2-3,0.3-4.5h1.3c1.4,1.8,2.9,3.7,4.3,5.5l0.7-0.4c-0.5-2.3-1-4.7-1.4-7l1.2-0.3
	c1.9,5.1,3.8,10.1,5.8,15.2c-3.5,3-3.3-3.1-6.2-2c0.8,2.4,1.6,4.9,2.4,7.5l-1,0.5c-1.6-1.8-3.1-3.6-4.7-5.4l-0.8,0.3
	c0.7,1.9,1,4.2,2.3,5.6c3.1,3.3,2,5.7-1.3,8.4l-7.3-8c-0.4,5.5,4.8,7.3,5.9,11.1L104,542l-6.6-5l-0.7,0.5c1.2,1.5,2.2,3.4,3.8,4.4
	c2.7,1.6,2.1,3.2,0.8,5.2c-0.8,1.2-1.5,2.5-2.3,3.8l-6.9-5.5l-0.9,1.1c1.6,1.4,3.2,2.9,4.6,4.5c0.6,0.8,0.6,2.1,0.9,3.2
	c-1.1,0-2.2-0.2-3.2-0.5c-1.3-0.8-2.5-1.7-3.7-2.8l-0.7,0.7c1.3,1.2,2.4,2.5,3.4,3.9c0.5,0.8,0.2,2.2,0.2,3.3
	c-1.1-0.2-2.3-0.2-3.1-0.7c-1.5-1.1-3-2.4-4.3-3.7l-0.9,0.9c1,1.2,2.1,2.3,3.3,3.3c3.4,2.8,3.4,3.8-0.4,6.7l-6.2-3.9
	c1.1,4,7.5,5.8,4.1,11.5l2.1,2l-8,1.2c2,4.4,6.7,2.3,10.2,3.1c2.2,0.5,4.4-0.4,6.5,2.1c1,1.1,4.6,0,7-0.1c1.1,0,2.3,0.1,3.4,0
	c1.2-0.2,2.4-0.5,3.5-0.8c0.9-0.2,1.8-0.5,2.8-0.7c2.3-0.5,5.3-0.1,4.3-3.7l7.6-3.9c-0.9-1.8-1.3-3.7,1.9-5.2c1.8-0.8,3-3,4.7-4.3
	c8-6.3,14.7-13.7,19.3-22.9c0.4-0.8,1-1.5,1.5-2.1c4.3,4,2.6,8.6,2.3,12.7c-0.3,4.5-3.2,8.7-1.8,13.5c0.2,0.9-0.8,2.1-1.7,4.2
	c-0.4-2.8-0.7-4.4-1.2-7.5c-1.4,1.5-2.7,3-3.9,4.6c-2.9,4.5-5.8,9.1-8.8,14l3.2,1.9l-4.2,5.2l2.7,0.8c-1.3,1.5-2.4,2.7-3.6,4.1
	c1.8,0.4,3.5,0.8,5.3,1c0.2,0,0.9-1.4,0.7-1.8c-0.7-0.9-1.5-1.7-2.3-2.3c4.8-2.2,5.2-4.4,3-7.8c0.6-2.1,0.8-3.5,1.3-4.8
	c0.3-0.8,0.8-1.5,1.4-2.1c2-1.8,4.1-3.5,6.3-5.3l6.8,8.5l-1.3,1.1l-5.3-6.8c-0.8,1.9-2,3.3-1.9,4.7c0.1,5-0.6,10.4,1.1,14.8
	c2.4,5.9,6.8,10.9,10.4,16.3l1.6-1.1l-9.3-12.7l1.2-0.8c2,2.3,3.8,4.7,5.5,7.2c2.2,3.6,5.1,4.3,9.5,3.2c-0.7-1-1.5-1.9-2.4-2.7
	c-6.6-4.1-11.2-8.7-14.7-15.7c2.2,2.7,4.5,5.3,7,7.7c2.9,2.4,5.9,4.6,9,6.7c5.2,3.7,11.8,3,17.4,5.4c2.6,1.2,3.5,0.1,3.3-2.5
	l-18.7-4.9l0.2-1.4c1.4,0,2.9,0.1,4.3,0.3c4.6,0.9,9.6,1.1,13.6,3.2c3.1,1.6,6.2,3.1,9.1,2c6.5-2.4,14.6-2.3,18.5-9.8
	c0.4-0.7,1.2-1.2,1.8-1.8c2.1-2.4,4.1-5,6.4-7.3c4.1-4.2,8.1-8.5,12.5-12.4c5.5-4.9,11.2-9.4,16.9-14c3.8-3.1,7.5-6.2,11.2-9.4
	c0.4-0.5,0.7-1.2,0.7-1.9c0.1-2.5,1.4-2.9,3.4-2.2c2.2,5.4-3.1,6.1-5.3,8.5s-5.6,4.2-8.2,6.4c-3.4,2.8-6.6,5.9-10.1,9.1
	c8.4,7.7,19.6,10.5,29.8,15.8c-0.8,0.1-1.6,0-2.3-0.1c-9-3.4-18.2-6.4-25.9-12.4c-2.6-2.1-4.8-1.5-6.8,0.5
	c-3.6,3.5-8.1,6.6-10.4,10.8c-3.1,5.8-9,8.1-13.7,13.4l13-0.9l0.1-1.4l-5.6-2c4.1-1.6,14.1,1.8,21.7,7.4c-1.6,0-2.4,0.2-3.1,0
	c-1.4-0.6-2.7-1.3-3.9-2.1c-2.8-2-5.4-2.7-6.9-0.2c-2.5,0.2-5.5-0.2-5.7,0.5c-1,3,2,2.9,3.7,3.7c2.1,0.9,4.3,1.6,6.4,2.4l-0.1,1.2
	c-0.8,0.2-1.6,0.2-2.4,0c-3.9-1.8-7.7-3.8-11.6-5.5c-1.2-0.6-2.5-0.7-3.8-0.5c-2.5,0.5-5,1.3-7.3,2.4c-2.2,1.2-6.1,0.7-5.8,5.1
	c0,0.7-2.5,1.5-4.1,3.1l7,1.7c-0.4-1.6-0.6-2.4-1.2-4.3c1.5,1.1,2.1,2,2.9,2.2c2,0.6,4.3,1.6,6.2,1.1c4.8-1.3,9.4-0.8,15.1,0.4
	l-9.4,2.8l4.7,1.3v0.7l-9.5,1.3v1.2c1,0.2,2.1,0.2,3.1,0.1c3.2-0.6,6.3-1,9.3,1.1c0.9,0.4,2,0.3,2.8-0.2c1.4-1.1,2.6-2.2,3.8-3.5
	l-4.6-1.2v-0.5l7.6-1.2c0,0,0.3,0.9,0.8,1.1c10.3,2.9,17.9,10.7,27,15.6c3.2,1.7,5.7,3.6,9.5,0.9c2-1.4,5.3-0.5,7.9-1.1
	c3.6-0.9,7-2.3,10.6-3.4c0.5-0.1,1-0.1,1.4-0.3c1.6-0.5,3.1-0.9,4.6-1.4l-0.4-0.9l-11.3-3.3l-0.2,0.5l5.3,3.8l-0.6,1.1
	c-2.4-1-4.9-2-7.3-3.2c-4.1-2-8.2-3.9-12.1-6.2c-3.5-2.2-6.8-4.8-10.1-7.3c-1-0.8-2.2-1.4-3.2-2.2s-1.9-1.8-2.9-2.7
	c1.1-1.2,2.4-2.3,3.7-3.3c1-0.3,2-0.1,2.8,0.4c12.1,7.5,24.3,15,37.3,20.7c0.2,0.1,0.5-0.1,1.1-1c-4.1-2.1-8.3-3.9-12.2-6.3
	c-4.7-2.8-9.8-4.8-13.1-9.9c-1.5-2.4-6-3.1-9.1-4.5c-0.7-0.2-1.5-0.3-2.2-0.4l2.4-2.3c-1.9-2.9-6.2-4-8.6-1.3
	c-5.2,5.9-12.2,7.2-19.2,8.6c0.1,1.8,0.2,3.5,0.4,5.6h2.1l0.1,0.5l-3.1,1.2c-2-3.9-2.7-4-8.4-1c4.3-6,11.1-9.7,18.5-10.2
	c3.8-0.2,4.5-3.7,6.4-5.9l-0.1,0.1c6.2-2.8,12.3-5.7,18.5-8.3c3-1.2,5.8-2.4,7.6-5.2c0.7-0.7,1.7-1,2.6-0.8
	c7.3,2.2,14.7,4.3,20.9,8.9c0.2,0.1,0.4,0.3,0.5,0.5c-7.2-2.4-14.6-4.8-22-7.2c-0.4-0.1-1.1,0.6-1.9,1.5c7.5,2.3,14.9,4.5,20.8,10.2
	c-11.8-8.2-23.5-9.4-35.7-0.3c8.8,1.4,16.7,4.5,23,11.1c-3.1-1.8-6.1-3.9-9.4-5.2s-6.7-1.9-10-2.8l-0.6,1.5l34.5,20.9l1.9-3.6
	c-5.7,0.2-13-4.9-15-10.6c5.4,3.2,10.3,6.3,15.4,9.2c1.2,0.7,2.9,0.5,4.9,0.7c-5.4-5-12.7-5.6-16.1-11.7l0.6-1l21.4,11.9l0.6-0.9
	c-5.5-5.7-14.9-6.8-19-14.1l0.9-1.2c4.5,2.6,9,5.2,13.5,7.9c1.8,1.1,3.4,2.5,5.2,3.5c0.8,0.4,2,0.1,3.1,0.1l0.2-1
	c-5-2.7-10.2-5.3-15.1-8.2c-1.5-0.9-2.4-2.7-3.1-4.5c7.8,3,15,6.5,21.6,12c3.2,0,7.3,0.2,11.4-0.1c1.1-0.1,2.1-1.3,2.7-1.7l-18-8.2
	l-0.4,0.7l11.1,6.4c-5.4,1.9-13.9-2.8-24.7-13.6l12.9,7.2c-1-2.8-1.6-4.3-2.2-5.9l4-0.7l-5.5-5.4l1-1l3.2,3.5l6.1-1.1l-5.3-8.2
	l1.1-0.8c2.7,3.4,8.3,3.7,8.7,8.7l14.1,7.9c-5.9,1.7-10-4.1-16.2-3.7c3.8,2.3,7.1,4.2,10.2,6.4c2.7,2,4.2,2.7,6.8-0.6
	c2.4-3,6.5-4.7,9.9-7l-1.2-1.6c2.2-2.4,4-4.5,6.1-6.5c2.9-2.8,0.7-5.3,0-8.1c-1.1-4.1-1.7-8.4-1.8-12.7c7,2.1,11,7.6,16.6,11.3
	c-1.2-1.9-2.2-4-3.8-5.6c-3.1-3.2-6.4-6.3-9.7-9.2c-0.5-0.5-1.9,0.1-3.2,0.2l-5-7.4l1.1-1l20.5,17.4l0.8-0.9L358.2,545l1-1l19.1,17
	l1-0.9l-10.9-13.6l0.6-0.6l3.3,2.5c0.2-1.8,0.4-3.2,0.5-4.5l-0.1,0.1l14,14.6l1-0.8l-8.5-10.5c3,0.8,3.6,4.2,7.3,3l-10.5-11.1
	l0.3-0.3c0.4-0.4,1.2-0.9,1.1-1.2c-0.3-1.3-0.7-2.6-1.1-3.8c-8.4-1.5-14.8-6.7-20.5-13.2l0.5-0.8l15.3,11.2l0.9-1.1l-7.6-7.8
	l0.5-0.5l7.8,6.2c0.3-0.3,0.7-0.7,1-1l-10-12.3l0.2-0.3l6.4,5.1l1-0.9L353.4,496l0.5-0.5l21.4,22l1.1-1L356.8,492
	c4.4,2.7,8.3,6.2,11.3,10.4c2.4,3.4,5.6,6.3,8.6,9.2c0.5,0.5,1.7,0.1,2.5,0.2c-0.2,1.7-0.3,3.4-0.7,5c-0.6,2.8-2.5,5.9-1.8,8.2
	c0.8,2.5,1.7,4.3-0.2,6.4l13.5,12.3l3.4,4.3c-6.4-0.7-6.8-8.6-13.4-8.1c0.5,1,1.1,1.9,1.8,2.8c2.8,2.8,5.7,5.4,8.6,8.1
	c1.2,1.1,2.6,1.7,1.5,3.9c-0.9,1.6-0.7,3.7-1,5.5c6.1-0.7,8.4,5.7,13.4,6c-1.7-1.9-3.6-3.4-5.3-5.2c-1.8-1.7-3.4-3.7-4.7-5.8
	c-1-2-1.2-4.3-2-7l4.2,1.2c-1.8-3-2.8-5.9-6.5-5.6c0-1.2,0.4-2.5-0.1-3.5c-0.7-1.3-2-2.1-3-3.2c-2.1-2.2-4.1-4.4-6.2-6.5l0.9-0.9
	l17,16.5c-1-2.8-1.9-5.6-3.7-7.6c-4.3-4.7-9.1-9-13.7-13.5c-2.2-2.2-2.3-4.9-0.6-7.4c1.3-2.2,2.4-4.4,3.5-6.7L379.1,512z
	 M249.4,620.7c-2.5-4.6-7.4-5.3-11.2-7.8l-0.8,1.3L249.4,620.7c0.4,0.6,0.6,1.6,1.1,2c3.5,2.3,7.3,4.2,10.6,6.7
	c2.5,1.9,4.5,1.5,7.7,0.3c-1.8-0.7-3-1-4-1.5c-4.1-2-8.1-4-12.2-6C251.6,621.7,250.5,621.2,249.4,620.7z M367.6,651.4
	c1.2-0.5,2.5-0.9,3.7-1.4c4.9-2.1,9.8-4.3,14.8-6.5c-0.2-0.4-0.4-0.8-0.5-1.2c-0.7,0.2-1.5,0.5-2.2,0.8c-6.7,3.5-12.9,5.4-19.6-0.8
	c-3.4-3.2-8.2-4.9-12.3-7.2l-0.7,1.2l18.6,11.8L367.6,651.4l-8-4.2C361.1,651.2,363.8,652.3,367.6,651.4z M247.5,671.2l9.6,2.7
	l-1.8-2.7l4.5-0.7l-0.1-0.8l-4.1-1.2l-2.4,3.3l-2.9-3.7L247.5,671.2c-0.4-0.8-0.7-2.3-1.2-2.4c-4.5-0.5-9-0.5-13.5-1
	c-4.8-0.5-9.5-1.2-14.2-1.8c-3.3-0.4-6.7-0.9-10-1.3l-0.1,1c0.6,0.3,1.3,0.5,2,0.7c7.4,1.5,14.7,3.1,22.1,4.5
	c1.2,0.2,2.5,0.1,3.7-0.4C240.1,668.9,243.9,668.9,247.5,671.2z M120.6,594.6h7.1l-4.8,3.1c3.6-0.1,6.1,1.1,7.9,4
	c0.5,0.9,1.1,1.6,2,2.2c1.3,0.4,2.5,0.6,3.9,0.7l0.3-1.4l-5.9-4c4.4-1.6,9.5,1.3,13.4-2.3c0.5,0.7,0.9,1.4,1.2,2.2
	c0,0.7-0.1,1.3-0.3,1.9l0.9-0.8l6.2,3.8l0.8-0.8c-2.3-2.2-4.3-4.7-6.9-6.4s-5.4-3.3-8.3-3.6s-6,1.2-9.6,2l2-3.9l-0.7-1.1l-9.4,4
	l-7.4,1.6c0.2,0.7,0.4,1.3,0.6,2.1l-5-2c-0.9,5,1.7,5.7,5.3,5.5c1.8,0,3.6,0.1,5.4,0.3l0.4-0.7l-5.1-2.9L120.6,594.6z M395.9,606.3
	c11.4-3.7,19.4-11,20-25.2c0.8,0.8,1.7,1.5,2.7,2.1c0.6,0.3,2,0.5,2.2,0.2c1.5-2.5,4.1-5.3,3.8-7.6c-1-6.4,1-12.1,1.8-18.1
	c0.2-1.6-0.3-3.4-0.5-5.1c4.1-1.1,4-6.1,6.6-9.2c-5.5-4.1-5.7-9.5-4.4-15.5l-1.3-0.8c-0.3,1.1-0.5,2.2-0.8,3.2l-8-7.1l-1.1,1
	c2,2.4,4.1,4.7,6.3,6.9c1.6,1.2,2.2,3.4,1.3,5.2c-1.9,5.5-3.8,11-5.4,16.6c-0.7,2.8-1.1,5.5-1.5,8.4l0.8,0.2l-3,2.3
	c1.2,1.8,2.1,3.3,3.1,4.8l-0.9,0.8c-2.2-2-4.3-3-6.4-0.5l5,6.1l-1.1,0.9c-1-1.2-2.2-2.2-3.5-3.1c-0.8-0.4-2.1,0-3.2,0.1
	c0.1,1-0.1,2.2,0.4,2.8c1.2,1.2,2.8,2,4.1,3.2c0.6,0.5,0.6,1.6,0.9,2.5l-1,0.2c-2-3.6-4.7-4.3-8.2-2l3.2,3.7l-0.5,0.5l-5.9-2
	c1.3-3.6,2.6-7.2,4.1-11.5c-4.6,1.8-6.4-1-8.6-3.2c-1.9-1.8-4.4-3.1-6.7-4.6l-1,1.4c3.3,2.5,6.4,5.1,9.8,7.3c3.1,2.1,3.3,3.7,0.1,6
	c-3.3-2.6-6.6-5.4-10.1-7.9c-0.9-0.6-2.3-0.5-3.5-0.8c3.5,3.3,7.3,6.2,11.3,8.7c2.7,1.7,3,3.5,0.4,6.5L382,572.3l-1.2,1.5
	c2.5,1.9,5,3.8,7.6,5.7s5.5,3.7,8.3,5.6c-1.1,3.1-2.5,6.4-3.4,9.8c-0.5,1.9-1,2.8-3.2,2.3c-0.8-0.2-1.9,1-2.8,1.5
	c0.4,0.8,0.9,1.5,1.5,2.2C391.1,602.6,393.2,604.2,395.9,606.3L395.9,606.3z M212.5,658.7c-1.4-3.8-5.5-4.5-8.5-6.3
	c-3.3-2-6.9-3.6-10.5-5.5l4.2-1.7l-15-1.8l15.8,8c-0.1,0.3-0.3,0.7-0.5,1l-18.6-8.1l-0.6,1.1l7.4,4.4l-0.6,1.1l-11.6-4l-0.4,1
	l9.8,5.2l-0.4,1.1l-19.3-6.9l-0.2,0.9l7.4,3.8l-0.6,1l-3.6-1.3l-0.6,1.4c3.8,1.5,7.6,3.2,11.6,4.3c1.7,0.5,3.9-0.8,5.7-0.4
	c2.7,0.6,5.4,1.6,7.9,2.8c4.3,2,8.4,4.2,12.6,6.3l0.7-1.2l-4.8-3.3l2.9-0.7l-0.1-1l-7.9,0.7l-0.1-0.7l2.3-0.5l-2.3-2.7l14,2.7
	l0.1-0.6l-7.1-2.3l0.4-1.1C206.1,654,208.5,658.5,212.5,658.7z M221.8,616.7l25.6,15.8c-6.3,1.2-10.3-2.8-14.9-5.3s-8.9-5.4-13.5-8
	c-2.1-1-4.2-1.8-6.4-2.5l-0.4,1c12.7,5.2,22.9,15,36.7,19.6c-0.3-1.3-0.5-2.1-0.6-2.2l12.7-3.7l-27.3-15.8l-0.9,1.5l23.3,14.3
	l-0.5,1.1c-4.1-1.5-8.1-2.9-12.1-4.6c-2-0.8-4.6-1.6-5.7-3.2C233.8,619.1,227.7,618.2,221.8,616.7z M137.9,659.2
	c-0.2-0.4-0.5-0.9-0.8-1.2c-5.4-4.3-9.6-9.9-12-16.4c-0.3-0.7-1.1-1.1-1.6-1.7c-0.6-0.6-1.1-1.2-1.5-1.8c-0.8-1.1-1.4-2.3-2.3-3.4
	c-1.9-2.4-3.9-4.7-5.8-7.1c-0.9-1.1-1.5-2.5-2.5-3.6c-1.8-2.1-3.9-4-5.7-6.1c-1.5-1.8-2.6-3.8-4-5.7l-0.8,0.6
	c10.8,15.2,21.5,30.3,32.3,45.5l-0.5,0.5l-2.7-2.2c2.1,5.6,16.5,19.7,21.2,20.1L135,661.2L137.9,659.2z M197.4,679.9l-0.7,1.4
	c3.2,1.6,6.4,3.4,9.7,4.7c4.9,1.9,9.9,3.3,14.8,5.2c1,0.4,1.6,1.9,2.5,2.6c2.3,1.7,4.6,3.3,7.1,4.8c0.3,0.2,1.4-0.9,2.1-1.4
	c-0.6-0.6-1.3-1.2-2.1-1.6c-2-0.8-4-1.5-6-2.2l0.3-0.8h4.1v-0.8l-3.9-2.6l0.4-0.7l5,1.3l0.4-1.2l-11.1-5.7l-0.6,1l4.5,3.3l-0.5,0.8
	c-8.6-2.5-15.3-8.9-23.6-12.3l15.1,10.7c-0.2,0.3-0.4,0.6-0.6,0.9L197.4,679.9z M139.2,606.9l-0.9,1.1c1,1.3,1.8,3,3.1,3.8
	c9.2,6,18.4,11.9,27.8,17.5c3.3,1.9,6.7,3.4,10.3,4.7c2.4,0.8,4.9,1.4,7.4,1.6c1.8,0.1,3.6-0.1,5.4-0.3v-1.2
	c-1.2-0.2-2.3-0.4-3.5-0.6c-4.2-0.8-8.7-1-12.5-2.7c-5.2-2.4-9.9-6-14.7-9.1C154,616.8,146.6,611.8,139.2,606.9L139.2,606.9z
	 M102.8,600.1c-3.8-2.3-7.1-4.3-10.4-6.3c-1-0.6-2.2-1.8-3.1-1.7c-1.4,0.1-3.8,1.2-3.8,1.9c0.1,2.7,0,6.4,1.6,7.8
	c3.1,2.8,7.3,4.3,11.1,6.3l0.8-1l-6.3-7.8L102.8,600.1z M182.1,631.6l0.9-1.4l-44.2-30.3c0.1,1,0.5,1.9,1.2,2.7
	c5,6,11.8,9.5,18.3,13.5c5.2,3.2,10.1,6.9,15.2,10.3C176.3,628.2,179.2,629.8,182.1,631.6L182.1,631.6z M349.5,659.1l-44-26
	C308.5,638.8,344.4,659,349.5,659.1L349.5,659.1z M154.2,654.2c-0.2,0.5-0.4,1.1-0.6,1.6c4.5,1.3,9.1,2.5,13.6,3.8
	c10.6,3,21.2,6.1,31.8,9.1c0.7,0.1,1.5,0.2,2.2,0.2c-1.5-1.2-3.2-2.2-5-2.9c-5-2.3-9.7-5-15.6-5.2c-4.2-0.2-8.4-0.9-12.5-2.1
	C163.5,657.5,158.9,655.8,154.2,654.2L154.2,654.2z M169.1,630.8c-13.3-4.7-23.1-13.1-34.2-19.4c9.3,8.6,18.7,17.1,31.4,20.4
	C166.8,632,167.5,631.4,169.1,630.8L169.1,630.8z M373.3,652.3l0.3,0.8c2.5-1.1,5.1-2.1,7.6-3.2c7.9-3.5,15.7-6.9,23.5-10.6
	c3.4-1.6,6.4-3.7,9.6-5.6l-0.6-1c-4.8,1.1-8.3,6.9-14,4.7L373.3,652.3z M99.6,619.6l0.7-0.2c1.1,1.7,3.3,3.4,3.2,5
	c0,5.1,4.2,9.3,9.4,9.3c0,0,0.1,0,0.1,0l-16.2-22.3c-1.2,5.6-0.2,8.8,3.3,10.7L99.6,619.6z M333.6,657.8l0.7-1.3l-36.9-20.6
	l-0.6,1.1C308.4,645.3,320.9,651.8,333.6,657.8z M387.9,607.7c-6.3,1.8-10.1-5.3-16.1-3.8l6.5,5.4c3,0.4,6,0.9,8.9,1.7
	c2.6,0.8,4-0.5,4.6-2.4c0.9-2.8-5.5-7.7-9.3-6.4C384.3,604.1,385.8,605.6,387.9,607.7z M76,582.9l1.2-1.2c-0.8-1.2-1.5-2.4-2.2-3.5
	c-2-3.1-5.1-5.7-3.4-10.2c0.3-1-1.6-2.8-2.7-4.1c-0.8-0.3-1.6-0.2-2.3,0.3c-0.7,1.2-1,2.6-1.1,4c0.2,4.8,3.7,7.7,6.5,11
	C73.2,580.5,74.6,581.8,76,582.9z M353.6,657.5l0.9-1.3c-0.6-0.7-1.4-1.3-2.1-1.8c-2-1-4.2-1.5-6.1-2.6c-5.3-3.3-10.4-6.8-15.5-10.3
	c-2.2-1.4-4.2-3.1-5.9-5c-2.3-2.9-5.9-1.8-8.3-3.9c-0.2,0.4-0.4,0.8-0.5,1.2L353.6,657.5z M240.4,682.4l-0.7,1.2
	c0.9,0.7,1.8,1.5,2.8,2.1c4.5,2.9,9.3,5.4,13.5,8.8c3.7,3,7.4,2.3,11.4,1.7L240.4,682.4z M188.7,628.5l-34.5-24
	C158,610.4,184.7,628.8,188.7,628.5L188.7,628.5z M243.7,693.7l0.8-0.9c3.1,1.4,4.6,7.3,10.6,3.2l-12.5-6.4
	c-0.1,0.7-0.2,1.4-0.3,2.1c0.1,0.8,0.3,1.6,0.5,2.3c-2.2-1.2-3.6-2.3-5.2-2.8c-1.8-0.4-3.7-0.7-5.5-0.8c2.8,4.9,11.1,8,14.1,5.9
	L243.7,693.7z M290.5,639.6c9.7,7.6,20.7,12.5,32.5,15.8C311.6,650.9,302.3,642.7,290.5,639.6L290.5,639.6z M240.7,637.9l0.5-1.5
	c-11.4-4.3-20.4-13.4-32.6-16.1c3.2,2.3,6.7,3.9,10,5.9c6.1,3.6,12.1,7.5,18.2,11.1C237.8,637.9,239.3,637.7,240.7,637.9
	L240.7,637.9z M397,551.7l-1,1.2l12.5,10.3l1.2-1.2l-8.8-6.3l1-1l2.6-4.6l9.7,7.5c-2.9-5.2-9.5-7.6-10-14.5c-1.1,3.5-2.3,7-3.5,10.7
	L397,551.7z M207.4,702.4l-24.9-6.3l-0.4,1.2c2.3,1.4,4.5,3.1,6.9,4c3.4,1.3,7.3,1.5,10.5,3C202.4,705.5,204.4,705.1,207.4,702.4z
	 M281.5,640l-0.8,1.3c8.1,8.3,20.2,8.1,29.7,13.4l0.5-1L281.5,640z M129.2,613l-1,1.4c6,4.5,11.9,9.1,18.1,13.4
	c0.9,0.6,2.7,0.1,4.1,0.1l0.4-1.1L129.2,613z M228.9,641.2c9.5,6.4,12.6,7.3,29.9,8.9c-3.8-5.2-9.8-2.4-14.5-4.3
	S234.3,642.8,228.9,641.2L228.9,641.2z M309.8,696.5c0,2.8-0.8,3.2-4.2,2.5l-1.4-2.6c-0.2,0.6-0.6,1.2-1,1.7c-0.5,0.6-1.2,1-1.9,1.2
	c-1.4,0.1-2.9,0.1-4.3,0.1c0,0.5,0,1.1,0,1.6c3.8,0,7.7-0.4,11.5,0.1c5,0.6,8.5-2,12.1-5.4L309.8,696.5z M192,669.6l0.3-1.1
	c-0.4-0.2-0.8-0.3-1.2-0.5l-14.2-3.3c-3.4-0.8-6.7-1.6-10.1-2.3c-0.9,0-1.8,0.1-2.6,0.3c0.6,0.8,1.2,1.6,1.9,2.3
	c0.5,0.4,1.1,0.6,1.7,0.6C175.8,666.9,183.9,668.3,192,669.6z M422.4,491.4l-2.6-4.2c-1,0.9-3,2-2.8,2.7c1,4.4,2.5,8.6,3.9,12.9
	l1.3-0.4c-0.4-1.6-0.7-3.3-1.1-4.9c-0.3-1.3-0.6-2.6-1-3.9l1.4-0.4l3.7,8.7C423.6,498.5,426.9,493.1,422.4,491.4z M336,660.8
	c3.6,2,6.2,3.5,8.9,4.8c0.6,0.2,1.2,0.2,1.8,0c4.8-1.1,9.6-2.3,14.5-3.5c-0.7-0.7-1.8-1-2.8-0.8c-2.9,0.5-5.5,1.1-8.8,0.2
	C345.6,660.4,341,661,336,660.8z M291.1,650l-21.1-9.6l-0.5,1.1C275.7,646.5,282.5,650.4,291.1,650z M177.2,616.3l-0.9,1.2
	c5.5,3.6,10.9,7.3,16.4,10.7c0.6,0.4,2.1-0.5,4.1-1.1L177.2,616.3z M274.9,653.5l-0.1-0.8c-1.9-0.7-3.8-1.7-5.8-1.9
	c-1.6-0.2-3.4,0.5-5.1,0.9c-3.5,0.8-3.5,0.8-3.6,1.8l10.1,2.8l0.2-0.8l-2.8-1l0.1-0.6L274.9,653.5z M136.1,624.7l0.7-1.1l-17-10.9
	C122,617.7,133,625.3,136.1,624.7z M383,656.3c-5.5,2.2-11.3,2-16.6,6C373.2,663,381.8,660.1,383,656.3z M227.7,663.9
	c-3.3-4.2-7.5-4.7-15.6-2.1C217,665.4,222.4,662.5,227.7,663.9L227.7,663.9z M130.2,642.9c0.7,3.7,4.1,4.8,6.7,6.7
	c3.7,2.6,4.3,2.5,6.3-0.9L130.2,642.9z M393.2,590.3c0.3-0.4,0.5-0.8,0.8-1.1c-5.9-3.6-9.6-10.1-16.7-11.9l-0.8,1L393.2,590.3z
	 M262.6,707c5,2.5,15.8,0.1,19.2-4.6L262.6,707z M263.7,645.6l17.8,8.3C281.3,650.8,268.7,644.8,263.7,645.6L263.7,645.6z
	 M95.2,666.3l0.3-0.7l-10.1-13.2c0.7,3.3,0.7,7,2.4,9.5C89.3,664.1,92.7,664.9,95.2,666.3z M182.4,688.7l-0.4,0.9l15.9,9.2
	c-0.6-2-1.6-3.9-2.9-5.5c-0.9-0.8-2-1.3-3.2-1.5c-1.7-0.5-3.5-0.8-5.2-1.3C185.2,690,183.8,689.4,182.4,688.7z M167.1,684.5
	l18.1,11.5l0.7-1.1c-5.3-5.2-13.7-6.5-17.6-13.5C167.9,682.6,167.5,683.5,167.1,684.5L167.1,684.5z M146.4,666.8l8.4,0.8l0.3-0.8
	l-14.5-7c-1.1,1.6-0.7,2.4,1.8,3.2C144,663.4,147.2,663.4,146.4,666.8z M201.4,620.6c6.3,7.9,10.8,10,13.7,6.6L201.4,620.6z
	 M372.7,548.2l10.7,13.5C382.9,555.9,377.1,548.8,372.7,548.2z M389.1,594.2l0.8-1c-4.6-3.7-9.2-7.4-14-11c-0.4-0.3-1.4,0.4-2.8,0.8
	L389.1,594.2z M238.4,700.8c0.5,0.7,0.6,1.2,0.9,1.2c3.3,1.1,6.6,2.4,10,3.2c1.1,0.3,2.5-0.5,3.7-0.8
	C248.6,700.1,243.6,701.2,238.4,700.8z M153.2,671.7l-0.4,1c5.3,2.3,10.4,5.4,16.8,3.5L153.2,671.7z M364.1,560.5l-1.6,1.6
	c0.5,3.2,7.2,9.6,10.6,10.2l1.5-1.5L364.1,560.5z M162,664.4l0.3-1.5c-2.4-1.3-4.9-2.5-7.5-3.6c-1.4-0.5-3.2-0.1-4.8-0.1
	c1.2,1,2.2,2.3,3.6,2.8C156.3,663.1,159.2,663.7,162,664.4z M436,458.6l0.5,0.8c3-1.3,6-2.5,8.9-4c0.8-0.4,1.2-1.6,1.8-2.5
	c-1.2-0.2-2.8-0.9-3.5-0.4C441,454.4,438.6,456.6,436,458.6z M181.2,683.5c-2.7-4.7-8-6.2-14.2-4.2L181.2,683.5z M402.8,502.7
	l-1.5,1.6l13.5,11.2c0.3-0.3,0.5-0.6,0.8-0.9L402.8,502.7z M272,694.6c-3-6.4-9.5-5.8-14.3-8.8l-0.5,1L272,694.6z M85.3,586.7
	c-0.7-2.2-0.7-5.1-4-3.5c-1.8,0.9-3.2,2.7-5.1,4.5l3.6,4.2l0.8-0.7l-3.4-3.9L85.3,586.7z M348.6,648c0.3-0.5,0.6-1,1-1.5l-15.7-9.9
	l-0.6,0.9L348.6,648z M188.7,618.4l-0.3,0.8c3.2,2,6.4,4,9.6,5.9c0.6,0.3,1.6-0.2,2.4-0.3c-0.2-0.8-0.2-2-0.6-2.2
	C196.2,621.1,192.4,619.8,188.7,618.4L188.7,618.4z M113.7,614.5l-1,1.3c3.7,2.7,7.3,5.4,11,8c0.4,0.3,1.5-0.4,2.2-0.6
	c-0.5-0.6-1-1.2-1.7-1.7c-0.8-0.5-2-0.4-2.7-0.9C118.9,618.7,116.3,616.6,113.7,614.5L113.7,614.5z M415.4,443.9l0.4,0.8
	c3.2-1.7,6.5-3.2,9.6-5.1c0.8-0.4,1-1.7,1.5-2.6c-1.1,0.1-2.4-0.2-3.2,0.3C420.9,439.4,418.2,441.7,415.4,443.9z M197.7,686.6
	c-3.7-4.1-9.6-5.3-14.6-2.9L197.7,686.6z M405.5,634.7l0.6-1.1l-16.3-8.4C394.5,629.2,399.8,632.4,405.5,634.7L405.5,634.7z
	 M345.2,639.3l-0.7,0.9c4.5,2.4,8.9,4.8,13.4,7.1c0.1,0.1,0.7-0.8,1.3-1.5L345.2,639.3z M202.5,609.8l-0.2,1.8l14,1.3
	c0.1-0.6,0.1-1.1,0.2-1.7L202.5,609.8z M416.2,618.6l0.5-1c-3.5-3.1-7.3-5.5-12.1-5.9l-0.5,1L416.2,618.6z M100,602l-1.1,1.3
	c3,2,3.7,7,8.4,6.8c0.3-0.4,0.7-0.8,1-1.2L100,602z M224.2,647.3c2.3,2.5,9.5,4.5,13.6,3.8l-11.1-4.6L224.2,647.3z M286.6,702.5v1.1
	c4.8,0.2,9.6,2.5,14.5-1.1H286.6z M177,694.2l0.8-1.2l-15.4-9.6l-0.6,1L177,694.2z M419,535.3l0.9-1c-3.9-3-5.2-8.5-10.2-10.3
	l-0.8,0.8L419,535.3z M331,628.8c-0.5-3-7.2-6.7-13.6-7.2L331,628.8z M364.2,629.9c0.1-0.3,0.2-0.6,0.3-0.9l-13-7.6
	c0,1.3,0.2,2.5,1,2.9c2.9,1.8,5.9,3.4,8.9,5C362.2,629.6,363.2,629.8,364.2,629.9L364.2,629.9z M384.8,628.1l-0.8,1.2l12.4,7.5
	c0.3-0.4,0.5-0.8,0.8-1.3L384.8,628.1z M378.3,631.1l-0.9,1.2l13.1,8.8l0.6-0.9c-2.1-1.5-4.1-3.1-6.2-4.5S380.5,632.6,378.3,631.1
	L378.3,631.1z M385.8,654.8l0.5,1c3.8-1,8-1.1,9.6-6.1L385.8,654.8z M365.7,584.9l10.7,6.6C372.2,586.2,370,583.8,365.7,584.9
	L365.7,584.9z M363.8,606.5l-9.6-2.6C358.4,608.7,361,609.4,363.8,606.5L363.8,606.5z M191.1,602.6l-0.3,0.7l5,1.4l-5,1.8
	c4.5,2.1,6.4-1.3,9.3-3.2L191.1,602.6z M130.9,609.9c-0.2-4.1-4.8-7.2-8.9-7.5L130.9,609.9z M260.7,601.1l10.8,5.9
	C269.2,602.6,266,600.9,260.7,601.1L260.7,601.1z M431.9,537.6l1.2-0.3l-2.9-14l-1.4,0.3C429.9,528.3,430.9,533,431.9,537.6
	L431.9,537.6z M65.9,574.3c-0.2,5.4,3,10.5,6.4,10.6L65.9,574.3z M432,576.5l-1.3-0.2c-0.7,3.8-1.5,7.7-2.2,11.5
	C429.8,584,433.5,580.8,432,576.5z M380.8,641.8l0.8-1l-10.1-7.4c-0.3,0.4-0.6,0.8-0.9,1.2L380.8,641.8z M332.2,594.8l-0.4,0.6
	l10.4,6.5l1.7-1.9L332.2,594.8z M282,614.3l1-1.4l-9.6-5.4l-0.7,1.3L282,614.3z M322.6,660.3l0.5-0.8l-8.9-4.7l1.3,3.8L322.6,660.3z
	 M429,560.5l1.5,0.5l2.9-9.8l-1.3-0.4C431.1,554.1,430,557.3,429,560.5z M158.9,683.1l0.4-0.6c-1.2-1.1-3.1-2-3.4-3.3
	c-0.9-4.3-2.5-2.7-4.9-1L158.9,683.1z M113.9,621.9c1.4,4.6,4.4,5.3,8.3,4.5L113.9,621.9z M214.5,694.7l6.4,2.5l0.5-1.3
	C219.6,694.3,218.2,691.8,214.5,694.7L214.5,694.7z M305.9,656.2l-0.2,0.9c1.8,0.6,3.6,1.2,5.5,1.7c0.7,0,1.4-0.1,2-0.4
	c-0.5-0.7-0.9-2-1.4-2C309.8,656.1,307.9,656.1,305.9,656.2L305.9,656.2z M173.2,673.2l-0.5,1.1c2,1,4.1,2.1,6.1,3.1
	c0.3,0.1,1.2-0.4,1.4-0.8c0-0.5-0.2-1.1-0.6-1.4C177.5,674.4,175.3,673.8,173.2,673.2L173.2,673.2z M400.3,531.3l-1.3,1.3l10.5,7
	l-0.3,0.4L400.3,531.3z M375.7,602.3c0.5-2.9-1.9-4.7-6.6-4.3L375.7,602.3z M350.5,647.5l-0.7,1.1l7.7,4.7l0.8-1.3
	C356.5,649.1,352.9,649.3,350.5,647.5L350.5,647.5z M116.6,583.3l-0.3,1.2l9.5,3.5l0.5-1.4L116.6,583.3z M277.5,688.7l-0.5,0.9
	l8.6,4.1l0.7-1.3c-1.4-0.7-2.7-1.4-4.1-2S279,689.2,277.5,688.7z M132.1,628.5l0.4-1.8l-6.7-1.7l-0.5,1.9L132.1,628.5z M116.3,603.3
	l-0.8,0.9l8.7,7l0.9-1.1L116.3,603.3z M373.9,594.7l-0.4,1c6.4,4.6,7.4,5,9.1,3.8L373.9,594.7z M270.5,671.6l-1.1,0.3l0.4,3.5h5.7
	L270.5,671.6z M92.8,584.7l-1,0.5c0.3,2-0.1,4.4,3.4,3.9l1-5.8l-0.7-0.1l-2.1,4.5C93.1,586.1,93,585.4,92.8,584.7z M425.8,523.9
	l-5.2-6.2C419.8,522,423.6,522.3,425.8,523.9L425.8,523.9z"/>
<path class="st1" d="M167,85.9c5.9-6.4,12.8-9.6,21.6-7.5c0.7,0.2,1.5,0,2.2-0.4c3.3-2.2,6.2-4.4,10.5-1.4c1.1,0.8,4,0.1,5.4-0.8
	c0.9-0.6,0.8-3,0.7-4.5c-0.5-6.9-1.4-13.7-1.7-20.6c-0.2-3.9,1.4-8,4.7-9.6c2.6-1.3,6.4-0.2,9.6,0.1c0.5,0,1,1,1.3,1.7
	c2,4.7,4.1,9.4,4.3,14.6c0.2,3.3,1.3,6.6,1.2,9.9s-1.2,6.4-1.9,9.5c1.2-0.1,2.4-0.4,3.6-0.8c4.8-1.8,8.6,0,9.9,5
	c2,7.6,4.3,15.1,5.8,22.8c1.2,6.7,2,13.5,2.4,20.3c0.1,1.3-1.3,2.8-2.2,4.4c1.6,4.5,0.5,9.6,0.5,14.8c0,5.6,1,11.3,0.8,16.9
	c-0.2,4.6,2.6,8.1,3.2,12.4c0.6,4.5,1.7,9,2.1,13.5c0.5,6.2,0.4,12.4,0.9,18.6c0.6,8.5,2.7,16.4,8.6,23.1c2.6,3,3.9,7.1,6.2,10.4
	c2.8,3.9,5.5,8.1,9.1,11.2c6.7,6,14,11.4,20.9,17.1c6,4.9,11.8,9.9,17.7,15c2.8,2.2,5.4,4.6,7.9,7.2c2.6,2.9,4.5,6.5,7.2,9.3
	c3.7,3.9,7.7,7.5,11.9,10.9c8.2,6.8,17.4,12.7,24.8,20.3c5.7,5.9,9.5,13.7,13.9,20.9c3.7,6,7.1,12.1,11.1,19h-6.6l2.5-1.6
	c-1-2.6-1.6-5.8-3.3-8.1s-4.6-4-7.5-5.6l3.1,5.9l-5.1,2.2l4.6,0.3l-5.5,5.7c-0.9-1.6-2-3.5-3-5.4c-0.1-0.2-0.1-0.6-0.3-0.7
	c-3.5-2.3-6.9-5.1-10.7-6.7c-5.7-2.5-12.2-3.4-16.9-8.1c-0.7-0.7-2-0.7-3-1c-3-0.9-5.9-1.8-9-2.6c-1.7-0.5-3.3-0.9-5-1.4
	c-4.4-1.5-8.8-3.1-13.3-4.8c-2,5.9-6,2.8-8.8,2.7c-5.4-0.1-10.7-1.5-16.1-2.1c-2.4-0.3-4.9,0.3-7.4,0.2c-0.9,0-1.7-0.7-2.5-1.1
	c0.9-0.5,1.7-1.4,2.6-1.4c7.8-0.1,15.7-0.1,23.5-0.1h2.2l0-0.9c-9.2-2.1-18.7,0.6-28.1-1.7l18.3-0.9v-0.6h-20.1
	c-0.3-4-3.6-3.2-6-3.2c-7,0-14.1,0.4-21.2,0.6c-1,0-2.2,0.3-2.9-0.1c-1.1-0.9-2.1-2-3-3.1c1.1-0.6,2.3-1.9,3.4-1.9
	c10.6,0,21.3,0.2,32,0.3c1.4-0.2,2.8-0.4,4.2-0.9c-1.1-1.4-1.6-2.5-2.5-3.1c-7.1-4.1-14.7-7.3-22.6-9.3c-1.9-0.5-3.2-3.3-4.8-5.1
	l0.7-0.9l-2.5,0.2c0.5,3.5-0.6,4.5-3.6,3.3c-2.8-1-5.4-2.4-8.1-3.6c-7-3.3-14.5-3.1-21.9-2.6c-3.8,0.2-7.6,1.8-11.1,3.4
	c-6.6,3.1-13.4,6.1-19.5,10.2c-4.6,3.1-8.2,7.9-12.4,11.8c-3.8,3.5-7.7,6.9-11.5,10.4l1.9,0.6c-2.8,5.7-5.8,11.2-8.3,16.9
	c-5.1,11.3-9.7,22.8-12.6,35s-8.4,23.5-14.2,34.7c-4.3,8.2-8.4,16.4-12.9,24.5c-2.8,5-6.5,9.6-9.4,14.6c-4.3,7.5-8.1,15.2-12.4,22.7
	c-3.9,6.5-7.8,13.1-12.6,19c-4.5,5.5-6.3,12.2-9.2,18.4c-1.2,2.5-2.1,5.3-3.8,7.5c-3.2,4-3,8.5-2.2,12.8c0.8,3.9,0.2,7-3,10
	c-0.1-2.5-0.6-4.7-0.3-6.8c0.6-5.3,1-10.7,2.5-15.7c2.2-7.1,5.3-13.9,8.2-20.7c2.4-5.5,5.4-10.8,7.6-16.4c1.9-5,2.7-10.3,4.5-15.4
	c2.1-6,4.8-11.8,7.1-17.7c2.4-6.3,4.7-12.7,6.9-19.1c1.4-4.2,2.7-8.5,3.8-12.8c0.6-2.2,0.3-4.6,0.7-6.9c0.9-5.2,2-10.4,3.1-15.6
	c2-10.3,4-20.5,6.1-30.8c1.1-5.2,2.6-10.3,3.6-15.5c0.4-2.9,0.7-5.8,0.7-8.6c0.6-10.5,1-21.1,1.7-31.6c0.3-4,0.8-8,1.6-12
	c0.2-0.9,1.4-1.5,2.2-2.2c0.4,1,1.1,1.9,1,2.8c-0.7,6.3-1.7,12.5-2.4,18.7c-0.2,1.2,0.4,2.6,0.7,4.2c15.5-6.5,31.1-11.2,47.3-12.9
	l0.4,1.5c-6.6,1.7-13.1,3.2-19.6,5c-5.6,1.6-11.2,3.4-16.8,5.4c-3,1-5.8,2.6-8.8,3.7c-0.9,0.3-2.1-0.2-3.7-0.5
	c-0.2,3.5-0.4,7.5-0.6,11.6l1.2,0.1c1.2-1.3,2.7-2.1,1-4.7c-1-1.6-1.3-4.1,2.1-5.2c10.3-3.2,20.5-7,30.8-10.1
	c4.6-1.4,9.6-1.6,14.9-1.7c-0.7,0.7-1.4,1.8-2.2,2c-6.4,1.6-13,2.9-19.4,4.7c-6.7,1.9-13.2,4.4-19.7,6.7c-1.1,0.5-2,1.4-2.4,2.5
	c10.4-3.1,20.8-6.3,31.1-9.4c1.3-0.4,2.6-0.7,4-0.8c6.4-0.2,10-4.8,13.9-8.8c2.2-2.3,3.8-5.3,6.2-7.4c-19.3,4.1-39.4,7.5-58.6,15.4
	l-0.7-1.6c1.6-0.9,3-2.1,4.7-2.6c12.1-3.5,24.1-7.2,36.3-10.2c6.7-1.6,13.9-1.4,20.7-2.7c3-0.6,5.7-2.9,8.5-4.4l-0.1,0.1l13.8-7
	c-26.8,5.7-55,7.3-81.6,17.1l-0.6-1.3c1.1-0.8,2.3-1.5,3.5-2.1c9.1-3.6,18.7-5.2,28.3-6.8c7.9-1.4,15.6-3,23.5-4.4
	c10-1.8,20-3.4,30-5.1c1.2-0.2,2.5-0.3,3.7-0.1c0.4,0,0.8,0.9,0.7,0.8c4.3,0,8.4,0.2,12.5-0.1c1.8-0.1,3.6-1.2,5.3-2.3
	c-36.2-0.4-71.2,7.3-106.1,16.2l-0.5-1.5c3-1.4,5.8-3.2,9-4c5.9-1.6,12-2.9,18-4c4.8-0.9,9.7-1.3,14.6-2.1
	c8.3-1.4,16.5-3.4,24.8-4.4c10.6-1.3,21.2-2,31.8-2.6c5.1-0.3,10.3,0.3,15.5,0.4c8.5,0.2,16.9,0.3,25.4,0.6
	c8.1,0.3,16.1,0.8,24.2,1.3c1,0.2,2,0.5,2.9,1l0.2-1.3c-2.9-0.3-5.9-0.7-8.8-1c-8.5-0.8-16.9-1.6-25.4-2.2c-4.4-0.3-8.9,0-13.4-0.1
	c-7.3-0.2-14.6-1-21.9-0.6c-11.6,0.6-23.2,1.5-34.7,3s-22.9,4-34.3,6.3c-8.2,1.6-16.3,3.8-24.4,5.6c-0.8,0-1.7-0.1-2.4-0.4
	c0.6-0.6,1.1-1.6,1.8-1.8c10-2.7,19.8-6.5,30-7.6c12-1.3,23.6-4.3,35.4-6.1c12.8-1.7,25.7-2.5,38.6-2.1c11.4,0.2,22.8-0.1,34.1,0.1
	c5.3,0.1,10.5,1.2,15.8,1.8c1,0.2,2.1,0,3-0.5c-26.2-4.5-52.7-4.8-79-2.6s-52.4,7.6-78.8,14.1c0.8-1.2,1.2-2.7,2.1-3
	c3.5-1.5,7.1-2.8,10.7-3.8c5.8-1.5,11.7-2.7,17.7-3.7c6.2-1,12.5-1.5,18.7-2.4s12.1-2.4,18.3-3.2c6.9-0.8,13.8-1.1,20.7-1.5
	c7.1-0.5,14.3-1,21.4-1.1c8.6-0.1,17.2,0.3,25.8,0.5c4.1,0.1,8.1,0,12.1-0.4c-4-0.5-8-1.3-12.1-1.5c-6.4-0.3-12.7-0.3-19.1-0.2
	c-8.9,0.1-17.8,0.2-26.6,0.6s-17.6,0.8-26.4,1.7c-5.1,0.5-10.1,2.2-15.2,3.1c-9.9,1.8-19.9,3.2-29.7,5.1c-4.8,0.9-9.5,2.5-14.3,3.6
	c-0.8,0.1-1.7,0-2.5-0.1c0.5-0.7,0.9-1.8,1.6-2c7.8-2.4,15.6-4.8,23.6-6.8c6.3-1.6,12.7-2.7,19.2-3.7c14.4-2.1,28.6-4.8,43.2-4.8
	c14.1,0,28.2-1.1,42.5-2.2c-2.9-0.2-5.8-0.8-8.7-0.7c-9.1,0.1-18.2,0.4-27.3,0.8c-10.6,0.4-21.4,0.2-31.9,1.7
	c-15.1,2.2-30.1,5.6-45.1,8.4c-2.4,0.5-4.9,0.4-7.4,0.7c-0.6,0.1-1.2,0.8-1.8,1.1c-1.9,1-3.9,1.9-6.1,3c-1-3.5,1.2-4.2,3.1-5
	c12.2-4.8,25.1-6.6,37.9-8.8c12-2.1,24.2-3.3,36.4-4.6c5-0.6,10.1-0.5,15.2-0.7c9.1-0.4,18.3-0.8,27.4-1.7
	c-36.7-1.8-72.8,2.8-109.3,9.9c0.7-0.7,1.3-2,2.1-2.1c10.9-2.4,21.8-4.9,32.8-6.8c9.8-1.7,19.7-2.9,29.6-3.8
	c8.4-0.8,16.8-1,25.2-1.5c4.1-0.2,8.2-0.7,12.2-0.7c5.2,0.1,10.3,0.6,15.7,0.5c-1.7-0.6-3.4-1-5.1-1.2c-9.5-0.4-19-1.1-28.5-0.7
	c-12.4,0.5-25.1,0.8-37.2,3.2c-12.9,2.5-26.4,2.4-38.9,7.1c-0.6,0.1-1.2,0-1.8-0.1c0.3-3.8,3.5-4.4,5.7-4.9
	c5.5-1.2,11.2-1.7,16.9-2.5c3.8-0.5,7.6-1.1,11.4-1.6c8.4-1,16.9-2,25.3-2.9c5.3-0.6,10.7-0.5,15.9-1.6c11.3-2.5,22.6-1.7,33.9-0.6
	c0.8,0.1,1.6,0,2.3-0.1c-11.3-3.5-22.8-2.5-34.2-2c-10.9,0.5-21.7,1.8-32.5,3c-6.2,0.7-12.3,2.2-18.4,3.3c-0.7,0.1-1.5,0.2-2.2,0.2
	c-7,0.1-13.9,1.1-20.6,3c-0.8,0-1.6,0-2.3-0.2c2.8-4.3,7-4.4,10.6-5c10.7-1.8,21.4-3.4,32.2-4.7c8.8-1,17.6-1.4,26.4-2.2
	c6-0.6,11.9-1.8,17.9-2.3c4.2-0.4,8.5-0.1,13.1-0.1c-0.8-0.5-1.6-1.3-2.4-1.3c-8,0.1-16,0.1-24,0.5c-4.6,0.2-9.1,1.1-13.7,1.6
	c-12,1.3-24.1,2.4-36.1,3.7c-4.4,0.5-8.9,0.9-13.2,1.6c-2.6,0.6-5.1,1.4-7.6,2.3l-1-1c1-1.1,1.9-3,3.2-3.3c4.2-1,8.5-1.8,12.8-2.2
	c10.2-1.2,20.4-2.1,30.6-3.3c1.5-0.2,2.9-0.9,3.9-2c-8.2-1.9-15.9,1.4-23.9,1.6s-15.8,2-24.3,2.3c1.2-0.9,2.3-2.3,3.6-2.5
	c7.7-1.3,15.4-2.4,23.1-3.3c7.8-1,15.7-1.8,23.6-2.5c2.9-0.3,5.7-0.1,8.6-0.3c1.7-0.1,3.4-0.5,5.1-0.7c-0.1-0.5-0.1-1-0.2-1.5
	c-10.2,0.8-20.4,1.6-30.7,2.4s-20.1,1.7-30.5,2.6c0.5-0.7,0.9-1.8,1.4-1.9c4.2-0.8,8.4-1.4,12.6-1.9c0.6-0.1,1.2,0.5,1.7,0.4
	c13.2-4.4,27.1-3.3,40.5-5.4c1-0.3,1.9-0.7,2.8-1.1c-15-1.9-28.8,2-42.5,2l-6.3,2l-0.8-1.4c1.3-0.9,2.5-2.3,3.8-2.6
	c8.1-1.2,16.2-2.1,24.3-3.2c7.3-0.9,14.6-1.9,21.9-3.4c-16-1.3-31.6,2.9-47.4,4.2l-0.6-1.1c1-0.7,2-1.9,3.1-2
	c6.6-1.1,13.2-1.9,19.8-2.8c5.1-0.7,10.3-1.7,15.4-2c4-0.3,8.1,0.4,12.2,0.5c1.3,0,2.5-0.3,3.7-0.8c-20.7-4.9-40.4,2.3-60.9,3.9
	c-0.1-0.3-0.2-0.7-0.2-1c0-0.5,0.1-1.1,0.3-1.6c23.3-5,46.5-7.9,70.1-6.5l0.1-1c-1.1-0.4-2.2-0.7-3.3-0.9c-5.8-0.4-11.6-1-17.5-0.9
	c-7.4,0.2-14.7,0.8-22,1.6c-5.5,0.6-11,1.7-16.4,2.7c-1.6,0.3-3.1,0.8-4.7,1c-1.7,0.2-3.5-0.1-5-0.8c21.5-6.5,43.7-8,65.9-8.8
	c-10.8-0.5-21.5-1.9-32.3-0.4s-21.6,2.9-32.5,4.4l-0.5-0.9c1.1-0.6,2.1-1.7,3.2-1.9c10.9-2.1,21.7-4.5,32.7-5.9
	c9.3-1.1,18.8-1,28.2-1.4c0.6,0,1.2-0.1,1.8-0.3c-4.5-2.3-9.3-1-13.9-1.1c-2.4,0-4.8,0.3-7.1,0.5c-9.2,0.8-18.5,1.4-27.7,2.4
	c-4.1,0.4-8,1.8-12.1,2.6c-0.8,0.1-1.7-0.5-2.6-0.8c0.6-0.6,1-1.7,1.7-1.9c3.6-0.9,7.2-1.7,10.8-2.3c6.4-0.9,12.7-1.8,19.1-2.3
	c7.6-0.6,15.3-0.9,22.9-1.4c1.2,0,2.4-0.3,3.5-0.9c-20.8-2.5-41.1,1.7-62.2,4.4c0.9-0.7,1.6-1.8,2.6-2c5-1.1,10.1-2.3,15.2-3
	c10.9-1.6,21.8-3.1,32.7-4.3c4.6-0.5,9.4-0.1,14.1-0.6c-3.6-3-7.8-1.8-11.7-1.6c-8.2,0.3-16.4,1-24.5,1.9c-5,0.5-9.9,1.8-14.9,2.7
	c-5.3,0.9-10.6,1.8-15.9,2.8l-0.5-0.8c0.8-0.7,1.5-2,2.5-2.2c7.7-1.6,15.4-3.4,23.2-4.6c8.9-1.3,18-2.2,26.9-3.1
	c3-0.3,6.1,0,9.1-0.1c1.6,0,3.2-0.4,4.6-1.2c-10.6-1.7-21.3-1.2-31.8,0.2s-21.2,3.9-31.8,5.9l-0.6-1.1c0.8-0.7,1.5-1.8,2.5-2
	c8.7-1.9,17.3-3.8,26-5.3c7.3-1.3,14.7-2.3,22.2-2.8c5.2-0.3,10.5,0.5,15.8,0.9c1.1,0.1,2.3,0.2,3.4,0.4l0.2-1.1
	c-3-0.6-6-1.6-9.1-1.8c-15.1-0.8-30.2,0.4-44.9,3.6c-4.2,0.9-8.4,2-12.6,2.9c-0.7,0.1-1.5-0.4-2.2-0.7c0.5-0.7,0.8-1.9,1.5-2.1
	c4.5-1.4,8.9-2.9,13.6-3.6c9.7-1.5,19.4-2.8,29.2-3.7c4.2-0.4,8.6,0.2,12.9,0.3c1.4,0.1,2.8-0.1,4-0.7c-6.4-1.9-13.1-1.7-19.6-1.7
	c-6.7,0-13.4,1.7-20.2,2.6s-13.2,1.9-20.2,2.3c1-0.7,1.9-1.8,3-2c9.8-1.7,19.6-3.2,29.4-4.7c5.5-0.8,11.1-1.3,16.6-1.9
	c1.2-0.1,2.4,0.3,3.6,0.3c5.2-0.1,10.4-0.6,15.6-1.6c-0.4-0.3-0.9-0.5-1.4-0.6c-8.6,0-17.2-0.6-25.8,0.1c-10.2,0.8-20.3,2.6-30.5,4
	c-1,0-1.9-0.2-2.8-0.6c0.8-0.7,1.6-1.8,2.5-1.9c10-1.6,20-3.3,30-4.4c5.8-0.6,11.7-0.1,17.5-0.2h3.9l0.1-1.2c-2.1-0.5-4.2-0.8-6.4-1
	c-5.6-0.1-11.3-0.5-16.9,0c-8.9,0.9-17.6,2.6-26.5,3.8c-1.1,0.2-2.4-0.6-3.6-0.9c1-0.7,1.9-1.9,3-2c12.2-1.8,24.4-3.6,36.7-5
	c4.5-0.5,9.1,0.3,13.6,0.5l0.1-1.1c-3.6-0.5-7.2-1.4-10.9-1.3c-8.8,0.2-17.6,0.8-26.3,1.6c-3.9,0.4-7.6,1.9-11.5,2.5
	c-1.9,0.3-3.8-0.1-5.5-1c16.9-4,33.8-7.3,51.2-6.1l0.1-1.4c-1.6-0.5-3.3-0.8-5-1c-12.6-0.8-24.9,1.1-37.2,3.4
	c-2.9,0.5-5.8,0.6-8.7,0.2c0.9-0.7,1.8-1.9,2.8-2.1c8.9-1.6,17.8-3.5,26.8-4.3c7.5-0.7,15.2-0.1,22.8-0.1l0.2-1.3
	c-2.4-0.4-4.7-1.3-7.1-1.2c-9.8,0.4-19.6,0.7-29.3,1.8c-3.4,0.4-6.7,1.6-10.4,0.9c-1.4-0.3-3.3,1.5-5,2.4l-1-1.5
	c1-0.8,2-2.1,3.1-2.2c11-1.5,22.1-2.9,33.1-4.2c3.4-0.4,7,0,10.4-0.1c1.5-0.1,3.1-0.5,4.4-1.3c-14.5-2.4-28.7-0.9-43,2.3
	c-0.7-2.9,0.7-3.4,2.7-3.5c13.3-1.1,26.5-2.3,39.8-3.5c0.5,0,1-0.4,1.3-0.8c-16.8-3.1-33.3,0.8-49.8,3.1l-0.6-1
	c1.4-0.9,2.6-2.4,4.1-2.6c9.2-1.2,18.4-2.3,27.7-3.2c5.7-0.5,11.4-0.5,17.1-0.8c0.6,0,1.2-0.3,1.6-0.7c-18.8-3.8-37.3,1.3-55.9,3.1
	c-0.1-0.6-0.2-1.2-0.2-1.8c6-1.1,11.9-2.5,18-3.4s12.2-1.6,18.3-2c6.3-0.3,12.6-0.1,18.8-0.1c1.1-3-0.1-3.7-2.1-3.4
	c-6.6,1.2-11.7-1.8-16.4-5.7c-1,0.5-2,0.9-3,1.1c-9.3,1.1-18.6,2.2-27.9,3.2c-0.3,0-0.6-0.7-1.4-1.5c10-4.6,20.3-4.5,31.2-3.9
	l-4.2-7.6l-23.6,2.5l-0.2-1.8l22-3.3c-0.8-5.7-1.8-12.3-2.8-19c-5.6,1.2-10.9,2.4-16.1,3.6c-0.9,0.2-1.9,0.6-2.6,0.3
	c-3.6-1.9-4.6,2.1-7,3c-0.3,0.1-0.4,1.1-0.4,1.7c0.2,8.4,0.5,16.9,0.6,25.3c0,1.3-0.8,2.5-1.5,4.8c8.4-1.4,16.3-3.1,24.3-3.9
	c5.9-0.6,12-1.8,18,0.6c0.3,0.1,0.6,0.3,1.5,0.8c-0.7,0.3-1.5,0.6-2.3,0.8c-9.8,0.7-19.5,1.3-29.2,2.1c-3.2,0.3-6.3,1-9.4,1.9
	c-3.7,1.1-6.1,3.6-6.4,7.6c-0.6,8.8-1.4,17.7-1.4,26.5c0,10.7-1.1,21.1-4.5,31.4c-1.2,3.6-1.6,7.4-2.6,11.1
	c-0.6,2.3-0.2,2.8,2.1,1.9c2.2-0.7,4.5-1.2,6.7-1.6c-1.2,1.8-0.6,4.1-4,3.1c-2.4-0.7-7,3.6-7.8,6c-1.8,6.2-3.9,12.4-5.9,18.6
	c-0.6,1.7-1.2,3.4-1.8,5.4l10.6-3c-1.2,3.4-7.9,6.1-11.3,4.9l-1.5,4.1l6.5-2c-1.2,3.3-3.2,4.3-6,4.4c-0.7,0-1.8,0.2-1.9,0.6
	c-2,5.6-3.8,11.3-6,18l8-4.3c-0.7,4.6-2.9,5.9-8.3,5c-1.6,5.5-2.9,11.1-4.8,16.5s-0.8,11.5-4.5,16.2l-1.3-0.2c0-1.2,0-2.4,0.2-3.6
	c1.6-5.8,3-11.7,4.9-17.4c3.4-10.2,7.1-20.4,10.5-30.6c1.7-5,2.9-10.1,4.4-15.1c2.2-7.5,4.6-14.9,6.7-22.4c1.3-4,1.8-8,2.6-12
	c0.4-2.5,0.9-5,1.6-7.4c1.9-5.7,2.4-11.9,1.3-17.8c-0.2-1.5-1.5-2.8-2.2-4.2c-1.6-3.3-3.1-6.7-4.6-10c-2.4-5.3-4.5-10.6-7.1-15.8
	c-2.2-4.5-4.3-8.8-4.1-14c-0.1-1.2-0.5-2.4-1-3.5c-1.2-3.6-2.1-7.2-3.6-10.6c-1.1-2.5-3-4.6-4.1-7.1c-1.4-3.3,1.4-8.8,4.8-10.1
	c0.6-0.2,1.5-0.8,1.5-1.3c0.3-4.1,3.6-4.8,6.5-6c3.1-1.3,6-3.1,9.1-4.5c2.6-1.2,5.4-2.1,8.2-3.1c1.7-0.6,3.4-1.1,5.2-1.5
	c1.2-0.2,2.4-0.2,3.6-0.2c0,3,0,6,0,9.5l9.2-6.4L167,85.9z M209.2,100.7c-0.9,3.4,2.4,4.2,4.1,5.2s4.4,0.2,6.6,0.2l-0.1-0.9
	l-6.2-1.8l0.2-1l7.8-1.3l-0.1-1.1c-2,0-4.1-0.1-6.1,0S211.2,100.5,209.2,100.7c0.2-0.5,0.5-1.4,0.9-1.5c2.9-0.6,5.9-1,8.9-1.5
	c0.9-0.3,1.8-0.6,2.7-1l-0.4-1.8c-4.4,0.6-8.7,1-13,1.8c-0.9,0.2-1.6,1.7-2.4,2.6L209.2,100.7z M103.3,458.2c0.7-0.7,1.4-1.5,2-2.3
	c3.7-7.6,8.2-14.7,13.5-21.2c0.9-1.1,0.6-1.8,0.2-3.2c-0.7-2.1-1.7-4.7,0.6-6.9c0.7-0.6,0.6-2.1,0.9-3.5c-1.2,0-1.8,0.1-2.4,0
	c-0.6-0.1-1.3-0.3-1.9-0.5c3.7-1.8,3.8-1.8,5-6.7s2.1-9.9,3.3-15.2l-6.9,1l-0.3-1.5l6.9-2.1l1.2-3.7l-7.6,1.3l-0.3-1.1l6.5-3.1
	l0.1-0.9l-5.6-1.4c0.9-0.3,1.7-0.7,2.5-1.1c1.2-0.8,2.4-1.8,3.6-2.7c-1.5-0.2-3-0.4-4.6-0.6c-0.2,0-0.3-0.3-0.3-0.4l3.7-3.4
	l-2.8-2.1c3.3-1.3,3.6-2.9,0.7-4.5l1.8-3.3l-4.1-1.2l2.7-1.5v-17.2h-1c-0.4,3-0.6,6-1.1,9c-1.7,10-3.3,20.1-5.3,30.1
	c-1,5-3.4,9.8-4.1,14.9c-1.9,14-3.3,28-4.9,42c-0.2,1-0.4,2-0.6,3c-1.5-0.9-3-2.4-3.9-2.1c-1.6,0.6-1,6.6,0.5,7.9
	c-7.3,11.4-15.5,31.1-15,35.7c1.2-1.2,2.9-2.4,3.6-3.9c0.8-2,0.4-4.5,1.3-6.5c2.3-5.2,3.5-11.1,8.1-15c-1.4-4.3,2.4-6.3,4.3-9.3
	L103.3,458.2z M131.7,110.3c4.8,14.1,9.5,27.6,14.3,41.6l4.8-2.8c-4.6-0.5-6.9-4.4-5.3-7.4l-3.4-2.2l5.2-3.2c-1.5,0-2.1,0-2.8,0
	c-1-0.1-1.9-0.2-2.9-0.3c0.5-0.9,1.1-1.7,1.8-2.4c0.9-0.8,2-1.5,3-2.1l-0.3-0.6l-4.9,0.6c-2.2-4.3,4.3-3.1,3.8-6.4l-5.5,1.1
	l-0.3-0.9l6.8-3.4l-0.4-0.6l-7.6,2.2l-0.7-1.5l7.9-4.8l-0.3-0.7l-6.2,2.2l-0.3-0.5l6.4-4.3l-0.5-0.8h-4.9c1.5-1.2,3.6-1.6,4.8-2.8
	s1.4-3.2,2-4.9c-1.2-0.2-2.7-0.9-3.7-0.4C138.6,106.6,135,108.6,131.7,110.3L131.7,110.3z M216.8,122v-1.3c-2.7-1.5-5.6-2.8-8-4.7
	c-1-0.8-0.9-3-1.6-4.4c-1.3-2.7-3.4-5.2-4.2-8c-2.2-8.1-3.8-16.4-5.8-25.1c-0.6,1.7-1.8,3.3-1.7,5c0.2,5.5,0.1,11.2,1.6,16.4
	c2.5,8.7,5.4,17.6,14.7,21.7C213.3,122.2,215.1,121.9,216.8,122L216.8,122z M184.4,91.6c2.3,0.1,4.7,0.1,7-0.1
	c0.9-0.3,1.5-1.1,1.7-2c0-3.1-0.4-6.2-0.7-9.6l-3.7,3.1l-0.5-0.5l1.3-2c-5-2.9-12.2-0.3-14.2,5.1l9.4-2.2l-8.3,8.2l12.2-2.9l0.3,1.2
	L184.4,91.6z M241,156.4l-2.5,2.8c-0.6-2.6-1.1-4.5-1.6-6.5l-1.2,0.3c1.1,5.7,2.4,11.4,3.3,17.1s1.7,11.7,2.5,17.5l-3.2,0.8l4.1,3.6
	v-17.1h1.2c0.2,3.8,0.5,7.6,0.7,11.4c1.1-1.3,1.1-2.7,1.6-3.9c0.4-1,0.2-1.8-0.1-1.9c0-2.4-0.2-4.7-0.5-7.1c0-0.3-2.1-0.2-3.4-0.4
	c-0.2-1.1-0.5-2.6-1-4.7l3.2,1.4L241,156.4z M218.3,85.6l-0.4-0.4c-2.8,0.8-5.6,1.7-8.4,2.4c-4.2,1-5.6-0.3-5.4-5
	c2.4,4,4.9,3.7,7.5,0.5l-10.2-2.8c1.1,5.9,2.1,11,3,15.4l18.1-3.4c-0.1-0.6-0.2-1.1-0.3-1.6l-17,1.8l0.2-2.7H220l0.4-1.5l-4.2-1.4
	L218.3,85.6z M220,71.5c2.4-8.1,3-16.2,0.5-23.8l-6.4,0.6c-1.6,6.3,1.9,12.5,2,19l1.2-0.1c-0.3-3.3-0.6-6.5-0.9-9.8l1.1-0.2
	L220,71.5z M303.1,321.1v-1c-8.1-1.5-16.8-0.1-24-5.8l19.4,0.9c-12.7-3.3-26.4-1.4-38.5-8.4l3-2.2l-7.2,0.6l-0.1,1c2,1,4,2,6,3
	c7.9,3.9,15.9,7.8,23.8,11.7c0.6,0.3,1.3,0.9,2,0.9c4-0.3,7.9-0.8,11.9-1.1C300.6,320.8,301.9,320.9,303.1,321.1L303.1,321.1z
	 M288.6,265.6c-0.4-0.7-0.5-1.7-1.1-2.2c-2.1-1.8-4.3-3.4-6.6-4.9c-9.9-6.1-17-14.5-22.4-24.7c-2.1-4-4.8-7.8-7.2-11.7
	c-0.4,0.3-0.9,0.5-1.3,0.8c3.1,5.6,6.1,11.3,9.4,16.9C266.2,251.6,277.2,258.6,288.6,265.6L288.6,265.6z M308.3,327l0.1-1l-18.1-2.8
	l-0.3,1.4l42.5,14.7l0.2-0.3l-5.9-3.3l3.8-1.3c-5.5-1.1-10.2-1.9-14.9-3c-4.5-1-8.9-2.4-13.3-3.6l0.3-1.1L308.3,327z M135.1,105.6
	c5.1-5,11.7-3.6,17.9-3.9l-0.1-1l-3-1.5l-0.2-1.2c2-0.4,4.6-1.8,5.8-1.1c2.8,1.7,3.7-0.4,5.2-2.1l-6.9-0.6l0.3-2.2
	c-3,2.7-5.1,5.9-9.3,3.7c-0.6-0.3-2,0.9-3,1.4l0.2,0.4l3.2-0.3C141.1,99.2,136.5,100,135.1,105.6z M109,457.4l-1.4-0.8
	c-7.2,7.7-12.9,16.2-15.3,26.6l0.9,0.5L109,457.4z M248.3,246.6l-0.6-0.9h-33.4l-0.1,1l2.1,1l-0.1,1.2h-10.2l0.1,1.4h14.4l-3.6-2.9
	c10.2,0,19.7,0,29.3,0C246.8,247.2,247.6,246.9,248.3,246.6z M165,334c-1.5-0.5-1.9-0.7-2.2-0.6c-9.8,2.8-19.5,5.6-29.3,8.5
	c-2.3,0.6-4.6,1.4-6.9,2.2c-0.7,0.3-1.1,1.4-1.9,2.5L165,334z M158,345.4c-3.6,0.9-6.8,1.4-9.8,2.3c-6.9,2.1-13.8,4.3-20.7,6.5
	c-0.7,0.2-1.3,1.1-1.9,1.7c6.8-1.5,13.1-3.4,19.4-5.2c2.9-0.8,5.9-2.1,8.9-2C156.3,348.7,157,347.7,158,345.4L158,345.4z
	 M125.4,359.8c0.7,0.9,0.9,1.3,1,1.3c8.8-2.1,17.5-4.2,26.2-6.6c0.8-0.2,1.2-1.8,1.9-2.8l-0.7-0.6L125.4,359.8z M249.5,221.8
	l1.2-0.4c-1.7-7-3.4-14-5.1-20.9l2.2-0.2L243,194l-4.8,1c6.1,2.1,5.7,7.1,6.8,11.5C246.4,211.6,248,216.7,249.5,221.8L249.5,221.8z
	 M144,376.7l-16.8,4.9l0.4,1.3l14.2-3.5c-0.9,6.9-7.5,4.2-10.5,8.1c2-0.4,3.5-0.7,5-0.9s3.2-0.4,5.2-0.7
	C142.2,383.2,143.1,380,144,376.7z M161.2,340.2l-0.8-0.9c-8.2,2.7-17,3.5-24.6,8c3.1-0.2,5.9-1.2,8.8-1.9c4.9-1.1,9.8-1.9,14.7-3.1
	C160,342.2,160.5,341,161.2,340.2L161.2,340.2z M125.6,365c3.5,1.8,23.4-4.1,24.8-6.9L125.6,365z M148.6,363.6
	c-7.2,4.5-16.4,3.1-22.7,9.1l21.3-5.8C147.4,366.5,148,365.1,148.6,363.6L148.6,363.6z M221.1,85.4h8.2c0.4,1.7,0.7,2.9,1,4
	c3-1.4,2.3,1.7,3.1,2.7c0.7,1.2,1.3,2.4,1.8,3.7c2.2-4-0.1-7-2-9.3C230,82.8,225.4,83.3,221.1,85.4z M232.2,79.5l0.1-1.2
	c-1.8,0-3.6-0.3-5.4,0.1c-4.3,1-8.5,2.8-13.1,1.1c-1.1-0.4-2.4-0.1-3.6-0.1C217.7,83.1,225,81.9,232.2,79.5z M260.2,300l-0.1,1.2
	l32.9,1.8l0.1-1.3L260.2,300z M125.2,399.3c9.4,1.1,16-4,15-10.9l-10,4.2l0.4,1.1l7.5-2.5c0.7,2.6,0.4,4-2.3,4.7
	C132.5,396.8,129.2,398,125.2,399.3L125.2,399.3z M288.9,266.8c4.6,3.9,9,7.8,13.6,11.5c1.1,0.9,2.8,1.1,4.3,1.6
	c-3.1-3.7-6.6-6.9-10.5-9.6C294,268.8,292.4,265.2,288.9,266.8z M324.3,328.2v0.6l7.4,1.1c-0.2-3.2-0.3-6.1-0.5-9.3l1.8-1.5h-5.4
	v4.7l2.6,3.6L324.3,328.2z M240.3,135.7l-1.1-0.4c-0.4,1.2-0.7,2.4-1.4,4.5c-0.1-0.7-0.3-1.5-0.5-2.2c-0.4-0.7-0.9-1.3-1.4-1.9
	c-0.4,5-0.8,8.9-1.1,12.7l1,0.1l0.8-5.7h0.9l0.9,3.7l1.2,0.1C239.9,143,240.1,139.4,240.3,135.7L240.3,135.7z M238.3,110
	c0.5,6.4,1.1,12.9,1.6,19.3C242.3,121.6,241.6,114.1,238.3,110L238.3,110z M306.4,281.1c5.2,4.7,10,9.1,14.5,13.2
	C320,290,310.3,280.4,306.4,281.1L306.4,281.1z M120.2,430l1.3,0.7l9.2-17.8l-1.6-0.8L120.2,430z M230.8,97.4
	c2.6,5,0.9,11.2,4.1,16.3C236.3,110.9,233.8,99.7,230.8,97.4z M230.8,133.7l2.1-0.1c-0.8-5.5,2-11.1-1.1-17.6
	C231.4,122.6,231.1,128.1,230.8,133.7L230.8,133.7z M327.2,301.2c3.8,6.1,9.6,9.5,16,12.1C337.9,309.3,332.6,305.2,327.2,301.2
	L327.2,301.2z M231.3,240.4v-1.1h-17.1v1.1H231.3z M129.4,375.7l0.2,1.3c5-1.1,10-2.1,14.9-3.2c0.3-0.1,0.4-1.2,0.6-2.2L129.4,375.7
	z M346.9,315.9l0.4-0.4c5.2,5.7,10.4,11.4,15.6,17.1l0.7-0.7L346.9,315.9z M231.6,300.1v1.3h14.9v-1.3H231.6z M289.6,328.2l0.4-1.2
	l-6.1-2.2c0.3,1.9,0.6,3.8,1,6.2L289.6,328.2z M163.4,93.3c-0.5-1.8-1-3.4-1.5-5.1l-6.4,3.7l0.1,0.8L163.4,93.3z M216.8,112.6
	l-9.9-6.1C209.3,111.6,213.7,114.4,216.8,112.6z M211.8,233.8v1l15.7-0.7c0-0.5-0.1-0.9-0.1-1.4L211.8,233.8z M223.7,87.4l-0.8,0.9
	c2.1,1.8,4.2,3.6,6.9,5.9C229.9,88.7,225.6,89.4,223.7,87.4z M303.7,314.6c0,0.5,0,0.9,0,1.4l12,0.9l0.1-1.1L303.7,314.6z
	 M325.6,323.8l0.1-1.4l-8.5-0.9l-0.1,1.3L325.6,323.8z"/>
<path class="st1" d="M267.6,475.4c2,3.1,4,6.2,5.9,9.3c0.6,0.9,1,1.9,1.9,3.3c-4.2-1.2-4.6-7.2-10.3-6.1c3.3,4.4,9.4,5.7,9.7,12.5
	l-6.5-7.7l-1.2-0.1l-0.5,2l-4.5-3l-0.7,0.7l14.1,17.1l-1.1,1.1c-4.6-3.6-7-9.9-14.1-11.7l12.2,13.7l-0.8,0.9l-3.7-2.2l-0.6,0.4
	l4.2,7.4l-1.2,1.1l-6.6-5l-1.3,1.4l6.3,7.9c-0.4,0.4-0.7,0.7-1.1,1.1c-4.5-0.7-6.4-5.8-11.5-7.5c0.9,1.6,1.3,2.5,1.9,3.3
	c2,2.8,4.1,5.4,6,8.2c0.4,0.6,0.1,1.7,0.2,2.6c-0.9-0.1-1.8-0.4-2.6-0.8c-2.7-2.3-5.7-4.5-8.7-6.4c1.4,5.1,8.9,6.4,7.8,13.5
	l-9.8-7.2l-0.6,0.7c1.8,2.4,3.8,4.8,5.4,7.3c0.4,0.6-0.1,2.5-0.6,2.7c-1.1,0.3-2.2,0.2-3.2-0.3c-0.8-0.4-1.1-1.6-1.8-2.4
	c-0.8-1.1-1.7-2.1-2.7-3.1c-0.5-0.5-1.4-0.5-2.6-0.9c2.2,3,4.1,5.5,5.9,7.9c-2.8,4.3-5.2,2.7-7.9-0.1l1,3.6c-1.6,1.3-3.2,2.5-5,0.3
	c-1.1-1.4-2.3-2.9-3.4-4.3l-1.1,0.9c0.6,0.8,1.2,1.6,1.6,2.5c0.4,1.3,0.7,2.6,0.9,3.9c-1.3-0.5-2.6-1.1-3.9-1.7
	c-1.1-0.8-2.2-1.7-3.2-2.6c0.7,2.8,1.2,4.8,1.6,6.7l-1.2,0.5l-5.6-5l2,6c-4.6,1.5-5.4-4-9.1-4c0.6,1.6,1.1,3.2,1.9,5.5l-15.6-9.5
	l0.1,0.1c-0.7-4.1-4.8-5-7.3-7.3c-7.5-7.2-15.4-14-20.8-23.4l28.7,25.7l0.8-0.9c-1-0.9-2-1.8-3-2.7c-7.5-6.8-15.1-13.6-22.5-20.6
	c-0.8-0.8-0.6-2.7-0.8-4.1h1l28,24.5l0.9-1l-18.2-16.7c-2.8-2.5-6-4.7-8.1-7.6c-1-1.3-0.6-4.6,0.5-6.2c1.5-2.3,4.3-1.5,6.2-0.1
	c3.4,2.6,6.6,5.5,9.9,8.3c5.9,5,11.8,10,17.6,15c1.7,1.6,3.6,2.8,5.7,3.8c-12.6-11.1-25.5-21.9-38.1-34.5l7-1.1l-17.9-17.2l0.9-0.9
	c2.5,2.2,5.2,4.3,7.4,6.7c3.4,3.7,6.5,7.4,11.7,9.2c3.5,1.2,5.9,5.2,9,7.8c6.9,5.6,13.9,11.1,20.9,16.6c0.6,0.5,1.3,0.7,2,0.6
	l-36.6-32c7.2-0.2,11.2,4.5,15.6,8.5c2.1,2,4.5,3.7,6.8,5.5l0.9-0.9c-1.2-1.1-2.3-2.4-3.5-3.4c-3.3-2.9-6.7-5.7-10-8.7
	c-1.1-1.1-2.1-2.3-2.9-3.6c-0.2-0.4,0.3-1.8,0.6-1.8c1-0.2,2.3-0.3,3,0.2c2.6,2.1,5,4.5,7.6,6.6c7.3,6,14.7,11.9,22,17.9l1-1.1
	L200.1,476c0.2-0.5,0.5-1,0.7-1.5c2.2,0.6,4.8,0.6,6.5,1.9c7,5.3,13.6,11,20.5,16.5c1.8,1.4,3.6,2.7,5.5,4.1l0.6-0.7
	c-4.4-3.6-8.8-7.2-13.1-10.9c-3.5-3-6.8-6.3-10.1-9.5c-0.2-0.2-0.4-0.8-0.5-0.8c-2.2,0.6-3-0.5-2.2-2.3c0.2-0.4,2.6-0.5,3.5,0.1
	c4,2.7,7.7,5.7,11.5,8.6c3.6,2.8,7.2,5.7,10.9,8.5l0.9-1.1l-24.8-20.8c3.2-0.7,6.6,0.3,9,2.5c5.4,4.3,10.7,8.6,16.1,12.9
	c0.7,0.4,1.5,0.7,2.2,0.9l0.6-0.8l-21-18.2c12,3.3,19.6,13.6,30.4,18.8l-21.7-19.2c9.3,3.9,16.6,10.5,24.5,16.5l0.8-0.8l-21.3-19.5
	c5.5-0.1,24.1,14.1,24.1,17.8l4.5,0.7l0.6-0.7l-22.2-19.9l0.5-1c1.6,0.4,3.2,0.9,4.7,1.7c2.9,1.8,5.6,3.8,8.3,6
	c5.4,4.4,10.6,8.8,16.9,14c-1.2-2.2-1.7-3.7-2.8-4.8c-2.5-2.5-5.3-4.8-7.9-7.2c-0.5-0.5-0.3-1.6-0.5-2.4c-0.3-0.7-0.7-1.3-1.1-1.9
	l-1.4,2.8l-6.1-7.6c0.2,0-2.5-1.6-5.5-4c2.7-1.2,6.4,1.1,12.9,6.9c3.8,3.5,8.2,6.3,11.6,9.9l1.9,4.2L267.6,475.4z M226.2,537.8
	l0.8-1l-41.9-35.5l-0.8,1C197.2,515.4,211.9,526.3,226.2,537.8L226.2,537.8z M220.2,518.4l0.6-0.7c-0.6-0.7-1.2-1.4-1.8-2.1
	c-7-6.5-14-13-21-19.3c-1.1-0.8-2.4-1.4-3.6-1.9l-0.8,1.4L220.2,518.4z M226.4,506.9l0.3-0.5c-3.5-3.1-7-6.2-10.6-9.1
	c-0.6-0.5-1.6-0.3-2.5-0.4c0.3,0.7,0.5,1.6,1,2c2.6,2.1,5.2,4.1,7.9,6C223.8,505.6,225.1,506.3,226.4,506.9L226.4,506.9z"/>
<path class="st1" d="M330.6,494.3c-1.1-9-0.1-11,5.3-11.6c0-4.1,3.3-8.1,6.4-7.8c-0.7-0.9-1.5-1.7-1.8-2.1l4-9.8l3.6,2.9l0.5-0.4
	c-0.7-0.7-1.3-1.5-1.9-2.3c-0.4-0.9-0.7-1.8-0.9-2.8c0.9,0.2,1.7,0.5,2.5,0.8c0.5,0.2,0.8,0.7,1.7,0.6c-0.9-1.7-1.9-3.3-2.5-4.5
	c1.9-3.4,3.6-6.6,4.9-9c-0.6-2-1-3.4-1.5-4.8l0.8-0.2l8,6l1.6-3c-0.7,0.2-1,0.4-1.2,0.2c-0.6-0.6-1.8-1.6-1.6-1.8
	c2.8-5.1,5.9-10.2,8.6-15.3c0.9-1.9,1.6-3.9,2.1-6c0.7-2.8,1.3-5.6,1.9-8.5l-2.6,1.6c0.9-4.1,1.9-7.3,2.3-10.6
	c0.2-2-0.4-4.1-0.8-6.1s-1-3.9-1.5-5.9l1.8-0.6c1.8,4.7,3.6,9.3,5.4,13.8c1.7-3.6,4.4-7.6,5.2-12c0.5-2.7-1.6-6-2.6-8.9
	c-0.7-1.7-1.1-3.5-1.2-5.3l5.3,10.2c2.4-3.8,4.8-1.7,6.7,0.2c2,2.1,3.9,4.3,5.7,6.6l-0.8,0.8l-5.2-5.5c1.7,6.9,8,10.2,11.6,15.8
	l-2.5-2.2l-0.5,0.4l2.8,4.5l-17.9,18.9l1,1.1c1.1-1.1,2.3-2.2,3.4-3.4c1.4-1.4,2.6-3,4.1-4.4c1.2-1.1,2.5-2.2,3.7-3.2l1.1,1.1
	l-42.2,48.8l2.8-1l0.7,0.8l-6.1,5.6v-2.5l-15,12.5l1.7,2.2c3.9-1.8,8.1-3.3,11.7-5.6c5.6-3.6,11-7.4,16.2-11.7
	c1.9-1.6,2.6-4.6,4.2-6.7s3.7-3.5,5.9-5.6c-1.2,4.9-2.2,8.9-3.2,13.2l-2.7-2c-5.8,8.9-16,11.2-24.3,16.4
	C340.9,489.2,335.8,491.5,330.6,494.3z M384.9,413.7l-1-0.6l-14,18.6l1.2,1.1c2-2,4-4,6-6c2.2-2.3,4.3-4.6,6.4-6.9l0.7,0.4
	c-0.7,2.4-1.4,4.9-2,7.3l-0.9-1.1c3-2.3,6-4.6,8.9-7c0.4-0.3,0.1-2-0.4-2.7c-0.8-0.7-1.7-1.3-2.6-1.8c-0.7,1.5-1.3,3-1.9,4.5
	C380.9,417.2,383.6,415.5,384.9,413.7z M377.3,430.5l-1-0.7L360.9,452l1.1,0.7C367,445.3,374,439.1,377.3,430.5z M378.4,413.3l1,0.5
	c1.7-3.1,3.3-6.4,4.7-9.7c0.4-1-0.9-2.6-1.5-3.8c-0.1-0.2-1.4-0.1-1.8,0.3s-0.5,1.2-0.8,2h3.1C381.4,406.4,379.9,409.9,378.4,413.3z
	"/>
<path class="st1" d="M203.6,539.5c2.4,2,4.8,4,7.2,6.1c0.5,0.5,0.9,1,1.2,1.6l-0.6,0.9l-12.7-6.5c0.1-0.1-0.4,0.7-0.5,0.6
	c-3.4-1.2-7.4-1.8-9.9-4c-3.4-2.9-5.6-7.1-8.3-10.7c-1.1-1.2-1.8-2.7-2.1-4.3l13.3,12.5l0.6-0.7c-2.8-2.9-5.7-5.7-8.4-8.7
	c-0.9-1-1.2-2.5-1.9-3.7c-0.5-0.8-1.4-2.1-2.1-2c-3.5,0.1-4.3-3.2-6.5-4.8c-0.4-0.3-0.2-1.2-0.3-1.9c0.7,0,1.7-0.2,2.2,0.2
	c4,3.5,7.8,7.2,11.7,10.8c5.7,5,11.4,9.8,17.2,14.6L203.6,539.5z"/>
<path class="st1" d="M249.5,605.2l-2.6,0.7l0.8-2.1l-3-0.6c3.2-2.2,6.1-2.6,9.1-0.7c6.9,4.5,13.7,9.2,20.7,13.6
	c4,2.5,8.3,4.6,12.5,6.9l-0.5,1.2l-17.4-7.7l-0.5,0.8l12.1,7.3l-0.3,0.8c-2.7-1.1-5.7-1.8-8.2-3.3c-5.7-3.3-11.2-7-16.8-10.5
	c-1.2-0.8-2.9-1-3.9-2S250.3,607,249.5,605.2z M252.6,604.4c-0.2,0.4-0.5,0.8-0.8,1.2l12.6,8.8l0.7-1.1L252.6,604.4z"/>
<path class="st1" d="M193.3,307.9c-11.3,2-22.7,3.6-33.8,6.1c-10.2,2.3-20.1,5.6-30.2,8.3c-1.6,0.4-3.4,0.2-5.2,0.2
	c1.3-1.1,2.4-2.8,3.9-3.2c6.4-2.1,13-3.9,19.6-5.4c14.2-2.8,28.6-5.1,42.9-7.6c0.8-0.1,1.6-0.4,2.8-0.7v2.3L193.3,307.9z"/>
<path class="st1" d="M257.8,356.2c-0.9,0.1-1.8,0.1-2.7,0c-1.9-0.2-3.9-0.6-5.8-1c-1.4-0.2-2.7-0.8-3.7-1.8c-0.8-0.8-0.7-2.4-1-3.6
	c1.3,0,2.5,0.1,3.8,0.3c5,1.3,10,2.5,14.9,4c5.9,1.8,11.6,3.8,17.4,5.9c5.3,1.9,10.7,3.9,16,5.9c3.7,1.4,7.4,3,6.2,9.2l-10.2-8.8
	c-0.1,0.9-0.1,1.5-0.3,2.5c-1-0.4-2.3-0.7-3.1-1.4c-4.3-4.1-9.7-5.6-15.2-7.1c-2.6-0.7-5-2-7.5-3c-0.5-0.3-1.1-0.4-1.7-0.4
	c-3.7,0.8-3.6,0.8-6.6-1.8L257.8,356.2z"/>
<path class="st1" d="M320.5,577.1c-1.5-2.6-2.1-5-3.6-6.2c-3.7-2.9-7.6-4.7-12.6-1.7c-2.5,1.5-6.1,1.2-9.2,2
	c-1.6,0.5-3.1,1.6-4.8,2.6l17,6.8l-0.4,0.9l-22.1-6.4l6.5-5.9c-0.2-2.4-0.5-4.6-0.7-6.7l1-0.4l2.4,3.3l8.4-2.4l0.3,0.6l-4.5,3.7
	c4.5-0.4,8.5-1,12.5-1.1c3.3-0.2,9.3,4,10.2,7.1C321.3,574.3,320.7,575.8,320.5,577.1z"/>
<path class="st1" d="M260.1,395.3c21.9,16.5,40.3,36.7,58.8,56.7l-0.6,1c-1.2-0.7-2.7-1.1-3.6-2.1c-5.6-5.8-11.1-11.7-16.6-17.6
	c-2-2.2-3.5-4.8-5.6-6.9c-10.5-10.1-21.1-20.2-31.7-30.2C260.6,396,260.4,395.7,260.1,395.3z"/>
<path class="st1" d="M312.9,492.5c-1.1-0.4-2.2-1-3.1-1.8c-5.2-5.5-10.2-11.3-15.6-16.6c-5-4.9-10.5-9.3-15.6-14.1
	c-1.6-1.5-4.2-3.1-1.5-6.2l36.5,37.6L312.9,492.5z"/>
<path class="st1" d="M334.1,570.6c0.5,0,1.2-0.3,1.4,0c4.6,5.7,12.5,6.4,17.6,11.3c0.5,0.5,1.4,0.5,2,0.8l-0.9,1.3l-5.1-0.8
	c0.7,1.5,1.1,2.5,1.7,3.8c-3.1-0.5-4.1-2-4.7-4.7c-1-5-5-7-10.1-4.9l8.7,5.8c-0.1,0.3-0.3,0.6-0.4,0.9c-1.4-0.3-2.7-0.5-4-0.8
	c-0.8-0.3-1.5-0.7-2.2-1.2c0,0.9,0.1,1.8,0.2,3.4l-4-0.6v-14.4L334.1,570.6z"/>
<path class="st1" d="M242.8,417.1c6.5,2.5,40,33,43.5,40.4c-1.3-1-2.8-1.9-4-3c-2.8-2.5-5.6-5-8.3-7.7c-3.1-3.1-5.9-6.4-8.9-9.7
	c-0.6-0.6-1.2-1.1-1.8-1.7c-6.3-5.4-12.7-10.8-19-16.2C243.8,418.5,243.3,417.8,242.8,417.1z"/>
<path class="st1" d="M266.7,409c19.3,12.1,31.1,31.3,47.5,45.6l-0.7,1.1c-1.2-0.5-2.4-1.2-3.5-2c-6.2-6.4-12.9-12.5-18.4-19.5
	c-7.2-9.1-16.3-16.1-24.7-23.8C266.8,410.3,266.8,409.9,266.7,409z"/>
<path class="st1" d="M353.4,692.4c-6,7-12.8,12.4-22.7,12.4c-3.8,0-7.6,1.5-11.5,1.7L353.4,692.4z"/>
<path class="st1" d="M250.9,452.9c3.4,2.7,6.8,5.4,10.2,8c3.5,2.8,7.2,5.3,11.1,7.4l-14-12.5l0.9-1l17.1,14.9l-0.5,1.1l-2.7,0.5
	c0.1,1,0.2,2,0.3,2.8c-7.9-6.7-15.7-13.3-23.5-19.9L250.9,452.9z"/>
<path class="st1" d="M309.6,497.3c-10-9-21.8-16.4-27.5-29.5c3.2,3.2,6.3,6.3,9.5,9.5c3.2,3.2,6.6,6.4,9.8,9.8
	C304.4,490.2,308.4,492.7,309.6,497.3z"/>
<path class="st1" d="M107.7,504.6l8-7c2.2,5.5,3.9,10,5.7,14.5l-1.4,0.7l-6.2-11.8l-1.4,0.6c0.7,1.7,1.4,3.3,2.1,5
	c1.4,3.5,2.8,7,4.2,10.6c0.1,0.3-0.7,1.4-0.8,1.4c-0.8-0.4-1.9-0.7-2.3-1.3c-1-1.6-1.5-3.5-2.5-5.1
	C111.6,509.6,109.7,507.4,107.7,504.6z"/>
<path class="st1" d="M236.7,403.1c13.6,13.6,30.3,23.6,42.5,38.7l-0.6,0.7l-42.9-38.2L236.7,403.1z"/>
<path class="st1" d="M364.6,421.7l-3.2-0.6c0.7-2.5,1.3-5,2-7.5l1.1,0.1c1,2.2,1.9,4.4,3.1,7.2c-5.6,16.9-8.5,22.6-11.4,22.4
	L364.6,421.7z"/>
<path class="st1" d="M273.9,626.6c-11.6-1.5-18.7-11.3-29-15.3l0.4-1.4c1.9,0.4,4.1,0.3,5.7,1.2c6.6,4,13,8.4,19.4,12.6
	c1.2,0.8,2.6,1.4,3.9,2L273.9,626.6z"/>
<path class="st1" d="M251.8,409.1c10.8,11.5,25.3,19,34,32.7l-35.1-31.5L251.8,409.1z"/>
<path class="st1" d="M271.9,450.6L239.7,422C244.1,422.3,270,444.9,271.9,450.6z"/>
<path class="st1" d="M366.1,379.9c6.5,2.6,12.9,17.7,9.4,21.9c-1.3-3.3-2.4-6.6-3.8-9.8c-0.6-1.5-1.5-2.7-2.7-3.7
	C365.6,386,364.8,384.1,366.1,379.9z"/>
<path class="st1" d="M224.2,446.3c-1.2-0.4-2.4-1-3.4-1.7c-5.8-5.2-11.4-10.7-17.2-15.8c-4.8-4.2-9.9-8.1-14.9-12.1
	c-0.6-0.5-1-1.2-1-1.9c13.1,9.2,24.9,20,36.9,30.5L224.2,446.3z"/>
<path class="st1" d="M367.3,545.8l-42-30.5l0.9-1.2c14,10.2,28,20.4,42,30.5L367.3,545.8z"/>
<path class="st1" d="M189.7,564.1l33,8.5C212.5,574.4,189.9,568.7,189.7,564.1z"/>
<path class="st1" d="M209.4,595.2c-5.2-0.8-10.5-1.4-15.7-2.5s-10-2.7-15-4.1l0.3-1.9c1.8,0.1,3.9-0.4,5.3,0.4
	c7.1,3.9,15.1,4,22.6,5.9c1,0.3,1.9,0.8,2.7,1.3L209.4,595.2z"/>
<path class="st1" d="M372.8,543.9c-1-0.2-2-0.6-2.9-1.1c-8.4-6.3-16.8-12.8-25.2-19.2c-0.3-0.3-0.6-0.6-0.9-1l0.6-0.8l31.3,21.4
	l0,0.4l-4.1-1.5c0.5,0.8,0.8,1.3,1.1,1.9L372.8,543.9z"/>
<path class="st1" d="M358.7,576.2l-3.6-3.4c-1.2,1.4-1.2,1.4,2.3,6.8c-2.8,0.3-12.7-6.9-13.4-10.2l7,3.6l0.7-1l-3-4.8
	C352,566.8,358.4,572.1,358.7,576.2z"/>
<path class="st1" d="M210.6,562.8c-9-2.5-18.3-4.1-26.8-10.8c1.7-0.1,3.2-0.7,3.8-0.2c4.8,3.8,10.8,4.4,16.1,6.7
	c1.3,0.6,2.9,0.5,4.2,1c1.2,0.6,2.2,1.3,3.3,2.1L210.6,562.8z"/>
<path class="st1" d="M235.4,436l2.2,5.6l-0.9,0.7l-24.9-22.8l0.6-0.8c1.5,1.1,3.1,2,4.5,3.2c5.2,4.4,10.3,8.8,15.5,13.1
	C233.1,435.7,234.4,435.7,235.4,436z"/>
<path class="st1" d="M213,589.5c-10.8,1.2-20.8-1.2-30.3-5.6v-1.3c0.9-0.1,1.9-0.5,2.6-0.3c3.6,1.2,7.1,2.8,10.8,3.7
	c5.1,1.2,10.4,2,15.6,2.9C212.2,589.2,212.6,589.3,213,589.5z"/>
<path class="st1" d="M286.4,434.9l-27.5-24.7l0.9-0.9C269.5,416.9,279.3,424.5,286.4,434.9z"/>
<path class="st1" d="M217.6,577.5c-6.9-1.3-13.8-2.7-20.7-4.1c-2.1-0.3-4.1-0.8-6.1-1.5c-0.9-0.4-1.3-1.9-1.9-2.9
	c0.9-0.1,1.9-0.1,2.8,0.1c7.6,2.3,14.9,6,23.1,5.9c1.1,0.2,2.1,0.5,3.1,0.9C217.8,576.4,217.7,576.9,217.6,577.5z"/>
<path class="st1" d="M455.9,523.4c-2-11.4-4.1-22.9-6.2-34.5C455.4,499.8,456.7,511.4,455.9,523.4z"/>
<path class="st1" d="M188.8,574.2l28.3,7C211.5,583.7,190.1,578.5,188.8,574.2z"/>
<path class="st1" d="M173.3,591c9.9-0.5,18.6,4.3,27.9,6.3C191.5,597,182.3,594.5,173.3,591z"/>
<path class="st1" d="M295.9,445.5l19.6,19.1c-1.4-0.3-2.9-0.1-3.6-0.8c-5.2-5.4-10.3-10.9-15.4-16.4
	C296,447,296.1,446.2,295.9,445.5z"/>
<path class="st1" d="M215.5,586.1c-10.6,0.4-19.7-2.1-28.5-5.9c0.1-0.5,0.2-1.1,0.4-1.6L215.5,586.1z"/>
<path class="st1" d="M172.7,122c2.7-3.7,22.1-6.3,25.5-3.2L172.7,122z"/>
<path class="st1" d="M185.2,556.1c0.9,0.1,1.8,0.4,2.6,0.8c6.5,3.9,13.3,6.9,20.9,7.8c0.8,0.1,1.6,1.2,2.4,1.8
	c-0.9,0.1-1.9,0.5-2.7,0.3c-7.1-2.4-14.1-4.9-21.1-7.6c-1-0.4-1.7-1.5-2.6-2.3L185.2,556.1z"/>
<path class="st1" d="M217.3,432.6l-27.9-24.1l0.7-0.8l28.4,23.4L217.3,432.6z"/>
<path class="st1" d="M318.2,443.8c-1.2-0.2-2.8,0-3.6-0.8c-4.1-3.7-7.9-7.7-11.5-11.9c8.2,0.1,10,8.3,15.7,11.4L318.2,443.8z"/>
<path class="st1" d="M253.2,594c-2,0.2-3.2,0.8-4.2,0.5c-4.7-1.6-9.4-3.3-14-5.1c-1.8-0.7-3.6-1.5-5.3-2.5c-0.8-0.5-1.2-1.5-1.9-2.3
	c0.9-0.1,1.7-0.1,2.6,0.1c3.9,1.6,7.6,3.5,11.5,5.1C245.3,591.1,248.8,592.3,253.2,594z"/>
<path class="st1" d="M172.1,576.5c-8.9-3.5-18-13.2-17.6-18.1L172.1,576.5z"/>
<path class="st1" d="M304.7,422.1c-0.9-0.1-2.1,0-2.6-0.5c-6-5.9-11.9-11.9-17.8-17.8l1-1.1l20,18L304.7,422.1z"/>
<path class="st1" d="M240.4,429.7c7.8,3.3,13.7,9,18.9,15.3l-1.2,1.3L240.4,429.7z"/>
<path class="st1" d="M256.1,591.5c-8.6-2.7-16.9-6.4-24.6-11.1l0.4-1l24.9,10.9l-0.8,1.4L256.1,591.5z"/>
<path class="st1" d="M228.9,426.6c1,0.2,2.3,0.2,2.9,0.8c4.9,4.6,10.9,8.1,14.9,13.5l-1.3,1.4l-16.7-15L228.9,426.6z"/>
<path class="st1" d="M303.9,429.6c-1.1-0.4-2.6-0.4-3.3-1.2c-4.5-5-8.8-10.2-13.4-15.7c7.8,3.4,11.4,10.7,17.4,15.5L303.9,429.6z"/>
<path class="st1" d="M238.9,421.4l-24.2-21.9l1-1.1l24.1,22C239.5,420.7,239.2,421,238.9,421.4z"/>
<path class="st1" d="M180.2,537.5c2.7,2.5,5.4,4.6,7.5,7.1c0.8,1,0.3,3.1,0.4,4.7l-1.4,0.5c-1.1-1.8-2.2-3.5-2.9-4.7l-5.8-1.3
	C178.9,541.3,179.5,539.5,180.2,537.5z"/>
<path class="st1" d="M191.4,548.2c2.7,1,5.3,1.9,8,2.9c3.2,1.2,6.4,2.4,9.5,3.7c0.6,0.2,0.8,1.2,1.2,1.9c-0.7,0.2-1.6,0.8-2.1,0.6
	c-3.9-1.6-8.4-1.9-11.5-5.4c-1.2-1.3-3.7-1.4-5.6-2C191.1,549.2,191.2,548.7,191.4,548.2z"/>
<path class="st1" d="M242.7,572.9c9,2.5,16.1,10,26.1,9.8l0.1,1.2c-1.3,0.2-2.9,1-3.9,0.6c-7.7-3.4-15.3-7-22.9-10.5L242.7,572.9z"
	/>
<path class="st1" d="M241.3,416l-24.1-21.8l0.8-0.9l24.2,21.7L241.3,416z"/>
<path class="st1" d="M237.1,575.8l25.5,11.2c-1.1,0.2-2.7,0.9-3.6,0.4c-7-3.2-13.9-6.7-20.9-10.2
	C237.8,577.2,237.7,576.8,237.1,575.8z"/>
<path class="st1" d="M352.9,541.6l-22.6-17.5l0.6-0.8l23,16.7L352.9,541.6z"/>
<path class="st1" d="M194.9,427.8c3,2.4,5.9,4.9,8.9,7.3c4,3.2,8,6.3,11.9,9.5c0.8,0.7,1.2,1.8,1,2.9c-4.4-3.5-8.9-7-13.3-10.6
	c-2.2-1.8-4.3-3.6-6.3-5.5c-0.9-1-1.7-2.1-2.4-3.2L194.9,427.8z"/>
<path class="st1" d="M286.4,568c-9-2.5-17.5-5.8-25.3-11.3l25.6,10.3L286.4,568z"/>
<path class="st1" d="M286,481.6l15.2,14.6C297.6,495.6,285.8,484,286,481.6z"/>
<path class="st1" d="M335.5,509.8l24,18.2C349.8,524.2,342.4,517.2,335.5,509.8z"/>
<path class="st1" d="M261.8,563.6l22.2,9.7l-0.4,1c-7.5-3.1-15.5-5-22.3-9.5L261.8,563.6z"/>
<path class="st1" d="M206.1,455.6l-17.5-15.7l0.8-0.8c5.6,5.4,12.9,9.1,17.7,15.5L206.1,455.6z"/>
<path class="st1" d="M194.8,462.4l-19.1-17.2l0.9-0.9l19.3,17L194.8,462.4z"/>
<path class="st1" d="M216.6,556.8l18.9,2.2C232.6,561.9,220.7,560.8,216.6,556.8z"/>
<path class="st1" d="M138.9,475.6c-1.9,3.8-3.8,7.5-5.8,11.2c-0.6,0.7-1.4,1.3-2.3,1.6c-0.2,0.1-1.1-0.5-1.1-0.6
	c0.2-0.7,0.5-1.4,0.9-2.1c1.6-2.9,3-5.8,4.7-8.5c0.8-1,1.8-1.9,2.8-2.6L138.9,475.6z"/>
<path class="st1" d="M200.6,458.8l-12.2-11.3l0.9-1c4.5,3.3,10.2,5.4,12.1,11.5L200.6,458.8z"/>
<path class="st1" d="M285.1,486.1l14.9,15.4c-0.3,0.3-0.6,0.6-1,1c-5-4.8-10-9.5-14.9-14.4C284,487.9,284.6,487,285.1,486.1z"/>
<path class="st1" d="M185.8,102.8l-2.1,2.6l-1.3-1.5c-0.5,0.7-1,1.5-1.6,2.3c-0.5-0.6-1.5-1.3-1.4-1.7c0.3-0.8,1.1-1.8,1.8-2
	c2.8-0.5,5.7-0.8,8.5-0.9c0.9,0,1.9,0.8,2.9,1.2c-0.3,0.5-0.5,1.5-0.8,1.5c-1.5,0.2-2.9,0.3-4.4,0.2
	C186.9,104.5,186.5,103.6,185.8,102.8z"/>
<path class="st1" d="M346.4,555.8l-6-6l0.8-1c0.7,0.5,1.5,1,2.3,1.2c0.8-0.1,1.6-0.3,2.3-0.7l-2-4.8l1.2-0.4
	C348,547.3,347.8,551.1,346.4,555.8z"/>
<path class="st1" d="M411.7,502.7c-1.3-1.6-2.5-3.5-4.1-4.7c-1.3-0.9-3.3-0.9-4.9-1.3l-0.8,1c0-0.6-0.3-1.5,0-1.9
	c1.5-2.1,7-1.2,8.1,1.1c1,1.6,2.1,3.1,3.4,4.5L411.7,502.7z"/>
<path class="st1" d="M179,109.8c4.6-2.9,9.7-2.2,15.1-2.1c-2,2.5-2.8,2.3-7.6,2c-2.3-0.2-4.7,1.2-7,1.9L179,109.8z"/>
<path class="st1" d="M275,589.2c8.5-0.5,13.7,5.6,19.9,9.5C288.4,595.6,281.9,592.5,275,589.2z"/>
<path class="st1" d="M187.1,446.4l-18.6-14.8l0.8-1l18.6,14.7L187.1,446.4z"/>
<path class="st1" d="M306.4,472.4l-15.9-17.1l0.9-0.8c5.3,5.6,10.7,11.3,16.1,16.9L306.4,472.4z"/>
<path class="st1" d="M156,552.2l10.4,12.4C162.4,565,155.9,557.2,156,552.2z"/>
<path class="st1" d="M173.7,524.6c0.9,1,1.7,2.1,2.7,3.1c2.5,2.5,5.1,4.8,7.4,7.4c0.5,0.6,0.4,1.9,0.5,2.8l-1.1,0.2l-10.6-12.5
	L173.7,524.6z"/>
<path class="st1" d="M267.8,475.5c-0.1-1-0.2-1.9-0.3-2.9c0.8,0.3,1.6,0.6,2.4,1c2.8,1.6,4.5,4.3,6.2,6.9c0.5,1,1,2.1,1.3,3.2
	l-1,0.6c-0.9-1.3-1.8-2.5-2.9-3.6c-1.9-1.9-3.9-3.6-5.9-5.4L267.8,475.5z"/>
<path class="st1" d="M311.1,484.5c-3.4-3.6-6.8-7.2-10.5-11.2C304.3,473.3,311.8,480.9,311.1,484.5z"/>
<path class="st1" d="M131.5,527.4l8.6,15.5l-0.9,0.5c-4.9-3.8-5.6-10.4-9-15.2L131.5,527.4z"/>
<path class="st1" d="M385.6,481.6c6.8,3.9,13.9,12.5,12.8,15.5L385.6,481.6z"/>
<path class="st1" d="M211.5,552l13.1,0.9c-2.9,2.9-10,2.6-13.3,0.5L211.5,552z"/>
<path class="st1" d="M170.6,449c1.7,1.1,3.4,2.2,5,3.5c4.6,3.7,9.1,7.4,13.3,11.5c-7-3.8-13.1-8.9-18.2-15L170.6,449z"/>
<path class="st1" d="M147.7,234.3c2.8-4.4,7-4.6,10.7-6.3C158.2,231.8,155.3,233.4,147.7,234.3z"/>
<path class="st1" d="M311.6,469.6c-5.4-3-8-8.8-12.7-12.5l1-1l12.5,12.5L311.6,469.6z"/>
<path class="st1" d="M232.1,441.8c-7.4,0.5-9.7-4.4-12.4-8.9L232.1,441.8z"/>
<path class="st1" d="M376.1,539.1c-5.8-0.1-8.6-4.9-12.6-7.8l0.8-1.2l12.2,8.7L376.1,539.1z"/>
<path class="st1" d="M195.6,547.3c-3.3-1.9-6.7-3.8-9.9-5.9c-0.7-0.5-0.6-1.9-1.2-4l11.8,8.9L195.6,547.3z"/>
<path class="st1" d="M167.9,475.8l12.3,9.1C177.8,486.1,169.2,479,167.9,475.8L167.9,475.8z"/>
<path class="st1" d="M121.1,495.4l3.3-2.8c1.2,3.1,2.9,5.7,0.3,9.4L121.1,495.4z"/>
<path class="st1" d="M203.1,441.8l8.8,6.9c-2.7,1.6-7.5-1.6-9.5-6.1C202.6,442.3,202.8,442,203.1,441.8z"/>
<path class="st1" d="M239.2,428.6L226,417.6l1.1-1.3l12.9,11.3L239.2,428.6z"/>
<path class="st1" d="M313.2,378.2c-4.8,0.5-5.8-4.7-9.1-6.4l0.8-1.2l9.2,6.3L313.2,378.2z"/>
<path class="st1" d="M160.6,222.6c-1.2,1.3-2.4,2.4-3.7,3.5c-1,0.6-2.2,1.1-3.4,1.3c-0.9,0.1-1.9,0.1-2.8,0.1c0.6-0.9,1-2.2,1.9-2.7
	c2.3-1.1,4.7-1.9,7.1-2.9L160.6,222.6z"/>
<path class="st1" d="M376.6,498.1c-1.2-0.3-2.8-0.3-3.4-1.1c-1.9-2.7-3.6-5.5-4.9-8.5l8.8,8C376.9,497.1,376.8,497.6,376.6,498.1z"
	/>
<path class="st1" d="M146.5,240.7c1.4-4.1,6.5-6,9.9-3.9L146.5,240.7z"/>
<path class="st1" d="M180.6,423.8l12.2,9.8l-0.9,1.1l-12.3-9.9L180.6,423.8z"/>
<path class="st1" d="M353.2,359.9l-8.6-7.3C347.8,350.8,351.6,354,353.2,359.9z"/>
<path class="st1" d="M222.3,391c4.8,2.4,8.1,6.6,12.3,9.9l-0.8,1l-12-10.2L222.3,391z"/>
<path class="st1" d="M352,551.9c-1.4-3.2-2.5-5.8-3.9-9C353,544.2,354,546.6,352,551.9z"/>
<path class="st1" d="M396.5,399l10.6,8.9l-0.9,1.1l-10.7-8.8L396.5,399z"/>
<path class="st1" d="M216.2,598.9l13.6,5.3l-0.5,1.3l-13.6-5.3L216.2,598.9z"/>
<path class="st1" d="M226,568.9l-13.2-1.4l0.2-1.7l13.2,1.6C226.1,568,226,568.4,226,568.9z"/>
<path class="st1" d="M154.7,581c3.2,3.3,6.3,6.6,9.5,9.9l-0.9,0.8C160.2,588.3,155.6,586.4,154.7,581z"/>
<path class="st1" d="M140.6,273.8c-1,3.4-1,3.4-6.9,4C134.6,274.5,137,273.2,140.6,273.8z"/>
<path class="st1" d="M215.8,406.3c4.2,1.4,5.9,6.1,9.8,7.9l-1,1.3l-9.5-8.2L215.8,406.3z"/>
<path class="st1" d="M181.3,99c-2.4,3.4-6.7,1.7-9.7,3.3l-0.4-1l9.4-3.6L181.3,99z"/>
<path class="st1" d="M169,108.3c0.9-3.6,3.8-4,6.2-4.7c0.4-0.1,1.2,1.6,1.7,2.4L169,108.3z"/>
<path class="st1" d="M143,261c0.5,4.4-3,4.1-5.5,5C137.3,262.7,138.8,261.3,143,261z"/>
<path class="st1" d="M295.4,592.8l-13.7-5.8l0.5-1.2l13.9,6C295.8,592.1,295.6,592.5,295.4,592.8z"/>
<path class="st1" d="M165.8,584.2c-2.9,0.4-8.4-3.2-8.4-4.7c0-0.4,0.3-1.2,0.6-1.2c0.6-0.1,1.2,0,1.6,0.3
	C161.4,580.2,163.2,581.9,165.8,584.2z"/>
<path class="st1" d="M128.2,488.3c1,2.8,2.8,5,0.9,7.8C125.2,493.5,124.9,492,128.2,488.3z"/>
<path class="st1" d="M157.9,444.7l9.4,7.6l-0.9,1.1l-9.6-7.5L157.9,444.7z"/>
<path class="st1" d="M191.9,97.8c-2.2,0.5-4.4,1.2-6.6,1.5c-0.5,0.1-1.1-0.7-1.7-1c0.5-0.6,1-1.7,1.6-1.7c2.2-0.2,4.4-0.1,6.5-0.1
	L191.9,97.8z"/>
<path class="st1" d="M287.2,561.9l-10.4-3.2l0.6-1.8l10.2,3.8L287.2,561.9z"/>
<path class="st1" d="M153.1,515.2c-0.9-4.5-1.9-9-2.9-13.5l1.4-0.3c0.9,4.5,1.8,9,2.7,13.5L153.1,515.2z"/>
<path class="st1" d="M107.8,569.7c0.5,2.2,1,4.4,1.3,6.6c0.1,0.4-0.8,1.1-1.3,1.5c-0.2,0.1-1.1-0.4-1.1-0.6
	c-0.3-2.4-0.4-4.8-0.6-7.1L107.8,569.7z"/>
<path class="st1" d="M272.8,576.1l-12.3-5.2l0.6-1.3l12.3,5.3L272.8,576.1z"/>
<path class="st1" d="M194.6,428.1l-11.3-8.1l1-1.2l10.6,9.1L194.6,428.1z"/>
<path class="st1" d="M176.5,428.7l11.9,9.3l-0.8,1c-4-3.1-8-6.1-12-9.1L176.5,428.7z"/>
<path class="st1" d="M280.6,442.5l6.9,7.3l-8.1-6.2L280.6,442.5z"/>
<path class="st1" d="M156.4,451.2l12.1,9.8l-0.7,0.8l-12.2-9.7L156.4,451.2z"/>
<path class="st1" d="M169.1,484.6l-11.1-8.7l0.8-1l11.1,8.8L169.1,484.6z"/>
<path class="st1" d="M218.7,604.6c-3.8,1.3-8.5-0.8-10.6-4.2L218.7,604.6z"/>
<path class="st1" d="M220.4,418.9c4-0.3,5,4,7.8,5.4l-0.7,1l-7.8-5.4L220.4,418.9z"/>
<path class="st1" d="M145.9,254.6c-1.3,1.4-2.6,2.6-4,3.8c-0.5,0.4-1.5,0.1-2.2,0.1c0.1-0.9-0.1-2.2,0.4-2.5
	c1.6-0.9,3.3-1.7,5.1-2.4L145.9,254.6z"/>
<path class="st1" d="M285.6,412.2l-10.4-9.8l0.7-0.7l10.6,9.5C286.2,411.5,285.9,411.8,285.6,412.2z"/>
<path class="st1" d="M306.2,576.7l-11.3-3.4l0.2-1l11.4,2.8L306.2,576.7z"/>
<path class="st1" d="M154.8,519.9l-10.6,3.6l-0.4-1.2l10.5-3.9L154.8,519.9z"/>
<path class="st1" d="M199.6,543.1l6.9,5.9l-1,1.2l-7.1-5.6L199.6,543.1z"/>
<path class="st1" d="M357.9,568.7l-6.1-4.9C356.1,563.2,358,564.8,357.9,568.7z"/>
<path class="st1" d="M170.7,448.9l-10.7-8.1c4.8,1.1,7.9,4.4,10.6,8.1L170.7,448.9z"/>
<path class="st1" d="M334.2,570.4l-3.2-0.4l3.3-5.6l1.8,2.3l-2,3.7L334.2,570.4z"/>
<path class="st1" d="M180.7,469.9l8.5,7.6l-1,1l-8.4-7.8L180.7,469.9z"/>
<path class="st1" d="M159,549.8c0.9,0.7,1.6,1,1.9,1.6c0.7,1.3,1.3,2.7,1.9,4.1c-0.4,0.2-1.1,0.6-1.2,0.5c-1-1.3-2-2.6-2.9-4
	C158.5,551.6,158.9,550.8,159,549.8z"/>
<path class="st1" d="M154.1,492.7c1.3,2.1,2.4,3.9,3.5,5.7C153.4,499.5,152.8,498.5,154.1,492.7z"/>
<path class="st1" d="M172.7,457.1l8.5,6.9l-0.7,1l-8.6-6.8L172.7,457.1z"/>
<path class="st1" d="M166.5,547.6l-3.6-3.3c0.5-0.4,1.2-1.3,1.4-1.2c1.3,0.8,2.5,1.8,3.8,2.8L166.5,547.6z"/>
<path class="st1" d="M154.8,565.6l5.5,7.2c-4.2-0.3-4.5-4.1-6.5-6.4L154.8,565.6z"/>
<path class="st1" d="M275.2,550c-4.7-2-3.4-4.2-2.1-6.4l1.2-0.2C274.6,545.3,274.9,547.2,275.2,550z"/>
<path class="st1" d="M132.4,284.5c0.2-5.1,4.5-2.9,5.9-4.9C138.2,283.2,134.8,282.6,132.4,284.5z"/>
<path class="st1" d="M168,475.7c-4.7-1-7.1-5-10.2-7.8c0.2-0.3,0.4-0.5,0.6-0.8c3.2,2.9,6.3,5.8,9.5,8.7L168,475.7z"/>
<path class="st1" d="M224.2,564.1h-7.4C219.6,560.6,221.9,562.2,224.2,564.1z"/>
<path class="st1" d="M121.5,506.4c-0.8-2.9-1.6-5.9-2.4-8.8l1.5-0.4l2.3,9L121.5,506.4z"/>
<path class="st1" d="M338.9,504.8l7.4,6.8l-0.2,0.2c-2.3-2.4-4.6-4.9-6.9-7.3L338.9,504.8z"/>
<path class="st1" d="M309.3,535.8l7.2,4.8l-2.5,2.1L309.3,535.8z"/>
<path class="st1" d="M251.8,394.6l7.3,6.5l-0.9,1l-7.2-6.7L251.8,394.6z"/>
<path class="st1" d="M186.4,570l-4.6-5C186.8,565.1,188.2,566.4,186.4,570z"/>
<path class="st1" d="M112.3,688.9l-5.2-3.3c3.6-1.8,4.9,0,6,2.3L112.3,688.9z"/>
<path class="st1" d="M163.6,528.2c0.7,1.8,1.5,3.6,2.2,5.4l-1.4,0.7l-2.7-5.2L163.6,528.2z"/>
<path class="st1" d="M330.6,528.7l5.9,4.6l-0.9,1.1l-5.9-4.6L330.6,528.7z"/>
<path class="st1" d="M168.1,437.6l7.6,5.6l-0.8,1.1l-7.4-5.7L168.1,437.6z"/>
<path class="st1" d="M310.1,429.1l-4.6-3.9l0.8-1c2.2,0.4,4.1,1.3,4.9,3.8L310.1,429.1z"/>
<path class="st1" d="M269.3,491.4l6.6,6.1l-1,1.1l-6.6-6.3L269.3,491.4z"/>
<path class="st1" d="M87.7,532l-3.5,6.2l-1.4-0.8c1.1-2.1,2.3-4.2,3.4-6.4L87.7,532z"/>
<path class="st1" d="M157.6,241.4l5-3l1,1.6l-4.9,3.2L157.6,241.4z"/>
<path class="st1" d="M165.1,234.2c-1.3,0.8-2.6,1.7-4,2.4c-0.4-0.5-0.8-1.1-1.1-1.7l4.2-2.2L165.1,234.2z"/>
<path class="st0" d="M395.9,606.3c-2.6-2.1-4.8-3.7-6.8-5.4c-0.6-0.7-1.1-1.4-1.5-2.2c1-0.5,2.1-1.7,2.8-1.5
	c2.3,0.5,2.7-0.4,3.2-2.3c0.9-3.4,2.3-6.7,3.4-9.8c-2.8-1.9-5.6-3.7-8.3-5.6s-5.1-3.8-7.6-5.7l1.2-1.5l15.2,11.5
	c2.6-3,2.3-4.8-0.4-6.5c-4.1-2.5-7.9-5.5-11.3-8.7c1.2,0.2,2.6,0.1,3.5,0.8c3.5,2.5,6.8,5.2,10.1,7.9c3.3-2.3,3.1-4-0.1-6
	c-3.4-2.2-6.6-4.9-9.8-7.3l1-1.4c2.2,1.5,4.8,2.8,6.7,4.6c2.3,2.2,4,5,8.6,3.2c-1.6,4.4-2.9,8-4.1,11.5l5.9,2l0.5-0.5l-3.2-3.7
	c3.5-2.3,6.2-1.6,8.2,2l1-0.2c-0.3-0.8-0.3-1.9-0.9-2.5c-1.2-1.2-2.9-2-4.1-3.2c-0.5-0.6-0.3-1.8-0.4-2.8c1.1-0.1,2.4-0.5,3.2-0.1
	c1.3,0.9,2.5,1.9,3.5,3.1l1.1-0.9l-5-6.1c2.1-2.5,4.2-1.5,6.4,0.5l0.9-0.8c-1-1.5-1.9-3-3.1-4.8l3-2.3l-0.8-0.2
	c0.3-2.8,0.8-5.6,1.5-8.4c1.6-5.6,3.6-11.1,5.4-16.6c0.8-1.8,0.3-4-1.3-5.2c-2.2-2.2-4.3-4.5-6.3-6.9l1.1-1l8,7.1
	c0.2-1,0.5-2.1,0.8-3.2l1.3,0.8c-1.3,6-1.1,11.4,4.4,15.5c-2.6,3.1-2.5,8.1-6.6,9.2c0.2,1.7,0.7,3.4,0.5,5.1
	c-0.8,6-2.8,11.8-1.8,18.1c0.4,2.3-2.3,5.1-3.8,7.6c-0.2,0.3-1.6,0.2-2.2-0.2c-1-0.6-1.9-1.3-2.7-2.1
	C415.2,595.3,407.2,602.6,395.9,606.3z"/>
<path class="st0" d="M212.5,658.7c-4-0.2-6.4-4.7-10.6-3.4l-0.4,1.1l7.1,2.3l-0.1,0.6l-14-2.7l2.3,2.7l-2.3,0.5l0.1,0.7l7.9-0.7
	l0.1,1l-2.9,0.7l4.8,3.3l-0.7,1.2c-4.2-2.1-8.4-4.3-12.6-6.3c-2.5-1.2-5.2-2.2-7.9-2.8c-1.8-0.4-4,0.9-5.7,0.4
	c-3.9-1.1-7.7-2.8-11.6-4.3l0.6-1.4l3.6,1.3l0.6-1l-7.4-3.8l0.2-0.9l19.3,6.9l0.4-1.1l-9.8-5.2l0.4-1l11.6,4l0.6-1.1l-7.4-4.4
	l0.6-1.1l18.6,8.1c0.2-0.3,0.3-0.7,0.5-1l-15.8-8l15,1.8l-4.2,1.7c3.6,1.9,7.2,3.4,10.5,5.5C207,654.2,211.1,654.9,212.5,658.7z"/>
<path class="st0" d="M221.8,616.7c5.9,1.5,12,2.4,15.9,8c1.1,1.6,3.6,2.4,5.7,3.2c4,1.7,8.1,3.1,12.1,4.6l0.5-1.1l-23.3-14.3
	l0.9-1.5l27.3,15.8l-12.7,3.7c0,0.1,0.2,0.8,0.6,2.2c-13.7-4.5-23.9-14.3-36.7-19.5l0.4-1c2.2,0.7,4.4,1.5,6.4,2.5
	c4.6,2.5,8.9,5.4,13.5,8s8.6,6.6,14.9,5.3L221.8,616.7z"/>
<path class="st0" d="M390.1,543.8l-13.5-12.3c1.9-2.1,0.9-3.9,0.2-6.4c-0.7-2.3,1.1-5.4,1.8-8.2c0.4-1.7,0.5-3.3,0.7-5l-0.1,0.1
	l5.1-0.9c-1,2.3-2.2,4.5-3.5,6.7c-1.8,2.5-1.7,5.2,0.6,7.4c4.6,4.4,9.4,8.8,13.7,13.5c1.8,2,2.7,4.8,3.7,7.6l-17-16.5l-0.9,0.9
	c2.1,2.2,4.1,4.4,6.2,6.5c1,1.1,2.4,2,3,3.2C390.5,541.3,390.1,542.7,390.1,543.8L390.1,543.8z"/>
<path class="st0" d="M137.9,659.2l-2.9,2l16.3,15.5c-4.7-0.4-19.1-14.5-21.2-20.1l2.7,2.2l0.5-0.5c-10.8-15.1-21.6-30.3-32.3-45.5
	l0.8-0.6c1.3,1.9,2.5,3.9,4,5.7c1.8,2.2,3.8,4,5.7,6.1c0.9,1.1,1.6,2.5,2.5,3.6c1.9,2.4,3.9,4.7,5.8,7.1c0.8,1.1,1.5,2.3,2.3,3.4
	c0.5,0.6,1,1.2,1.5,1.8c0.5,0.6,1.3,1,1.6,1.7c2.4,6.4,6.6,12.1,12,16.4C137.4,658.4,137.7,658.8,137.9,659.2z"/>
<path class="st0" d="M197.4,679.9l17.1,7.5c0.2-0.3,0.4-0.6,0.6-0.9l-15.1-10.7c8.3,3.4,15,9.8,23.6,12.3l0.5-0.8l-4.5-3.4l0.6-1
	l11.2,5.7l-0.4,1.2l-5-1.3l-0.4,0.7l3.9,2.6v0.8h-4.1l-0.3,0.8c2,0.7,4.1,1.3,6,2.2c0.8,0.4,1.5,1,2.1,1.6c-0.7,0.5-1.8,1.6-2.1,1.4
	c-2.5-1.5-4.8-3.1-7.1-4.8c-1-0.7-1.5-2.2-2.5-2.6c-4.9-1.9-10-3.3-14.8-5.2c-3.4-1.3-6.5-3.1-9.7-4.7L197.4,679.9z"/>
<path class="st0" d="M139.2,606.9c7.4,4.9,14.9,9.9,22.4,14.8c4.8,3.2,9.5,6.7,14.7,9.1c3.8,1.7,8.3,1.9,12.5,2.7
	c1.2,0.2,2.3,0.4,3.5,0.6v1.2c-1.8,0.3-3.6,0.4-5.4,0.3c-2.5-0.3-5-0.8-7.4-1.6c-3.6-1.2-7-2.8-10.3-4.6
	c-9.4-5.7-18.6-11.6-27.8-17.5c-1.3-0.9-2.1-2.5-3.1-3.8L139.2,606.9z"/>
<path class="st0" d="M120.3,594.2l9.4-4l0.7,1.1l-2,3.9c3.5-0.8,6.6-2.2,9.6-2s5.8,1.9,8.3,3.6s4.6,4.3,6.9,6.4l-0.8,0.8l-6.2-3.8
	l-0.9,0.8c0.2-0.6,0.4-1.3,0.3-1.9c-0.3-0.8-0.7-1.5-1.2-2.2c-3.9,3.6-8.9,0.6-13.4,2.3l5.9,4l-0.3,1.4c-1.3-0.1-2.6-0.3-3.9-0.7
	c-0.9-0.5-1.5-1.3-2-2.2c-1.8-2.9-4.4-4.1-7.9-4l4.8-3.1h-7L120.3,594.2z"/>
<path class="st0" d="M102.8,600.1l-10.1-0.9l6.3,7.8l-0.8,1c-3.8-2-8-3.5-11.1-6.3c-1.6-1.5-1.6-5.1-1.6-7.8c0-0.6,2.4-1.8,3.8-1.9
	c1-0.1,2.1,1.1,3.1,1.7C95.8,595.8,99.1,597.8,102.8,600.1z"/>
<path class="st0" d="M182.1,631.6c-2.9-1.7-5.8-3.3-8.6-5.2c-5.1-3.4-10-7.1-15.2-10.3c-6.5-4-13.3-7.5-18.3-13.5
	c-0.7-0.7-1.1-1.7-1.2-2.7l44.2,30.3L182.1,631.6z"/>
<path class="st0" d="M390.1,543.8c3.7-0.3,4.8,2.6,6.5,5.6l-4.2-1.2c0.7,2.7,0.9,5.1,2,7c1.3,2.1,2.9,4.1,4.7,5.8
	c1.7,1.8,3.6,3.2,5.3,5.2c-5-0.2-7.3-6.7-13.4-6c0.3-1.8,0.2-3.9,1-5.5c1.2-2.2-0.3-2.8-1.5-3.9c-2.9-2.7-5.8-5.3-8.6-8.1
	c-0.7-0.9-1.3-1.8-1.8-2.8c6.6-0.5,7,7.5,13.4,8.1l-3.4-4.3L390.1,543.8z"/>
<path class="st0" d="M349.5,659.1c-5.1-0.1-41-20.4-44-26L349.5,659.1z"/>
<path class="st0" d="M154.2,654.2c4.6,1.5,9.2,3.3,14,4.5c4.1,1.2,8.2,1.9,12.5,2.1c5.8,0.2,10.6,2.9,15.6,5.2
	c1.8,0.7,3.5,1.7,5,2.9c-0.8,0-1.5,0-2.2-0.2c-10.6-3-21.2-6.1-31.8-9.1c-4.5-1.3-9-2.6-13.6-3.8C153.8,655.3,154,654.8,154.2,654.2
	z"/>
<path class="st0" d="M169.1,630.8c-1.6,0.6-2.3,1.2-2.8,1c-12.8-3.3-22.1-11.8-31.4-20.4C145.9,617.7,155.8,626,169.1,630.8z"/>
<path class="st0" d="M373.3,652.3l26.5-15c5.7,2.2,9.2-3.6,14-4.7l0.6,1c-3.2,1.9-6.3,4-9.6,5.6c-7.8,3.7-15.6,7.1-23.5,10.6
	c-2.5,1.1-5.1,2.1-7.6,3.2L373.3,652.3z"/>
<path class="st0" d="M99.6,619.6l0.5,2.4c-3.5-1.8-4.5-5-3.3-10.7l16.2,22.3c-5.1,0.1-9.4-4-9.5-9.1c0,0,0-0.1,0-0.1
	c0-1.6-2.1-3.3-3.2-5L99.6,619.6z"/>
<path class="st0" d="M333.6,657.8c-12.7-6.1-25.2-12.5-36.8-20.8l0.6-1.1l36.9,20.6L333.6,657.8z"/>
<path class="st0" d="M387.9,607.7c-2-2.1-3.6-3.7-5.4-5.5c3.8-1.3,10.2,3.6,9.3,6.4c-0.6,1.9-2,3.2-4.6,2.4
	c-2.9-0.7-5.9-1.3-8.9-1.7l-6.5-5.3C377.7,602.4,381.5,609.5,387.9,607.7z"/>
<path class="st0" d="M247.5,671.2c-3.7-2.3-7.4-2.3-11.3-0.7c-1.2,0.5-2.4,0.6-3.7,0.4c-7.4-1.4-14.7-3-22.1-4.5
	c-0.7-0.2-1.4-0.4-2-0.7l0.1-1c3.3,0.4,6.7,0.8,10,1.3c4.8,0.6,9.5,1.4,14.2,1.8c4.5,0.4,9,0.5,13.5,1
	C246.7,668.8,247,670.4,247.5,671.2L247.5,671.2z"/>
<path class="st0" d="M76,582.9c-1.4-1.1-2.8-2.4-4.1-3.7c-2.7-3.3-6.3-6.2-6.5-11c0-1.4,0.4-2.8,1.1-4c0.7-0.5,1.5-0.6,2.3-0.3
	c1.1,1.2,3,3.1,2.7,4.1c-1.7,4.6,1.4,7.1,3.4,10.2c0.8,1.2,1.5,2.4,2.2,3.5L76,582.9z"/>
<path class="st0" d="M353.6,657.5L316,633.8c0.2-0.4,0.4-0.8,0.5-1.2c2.4,2.1,6,1,8.3,3.9c1.7,1.9,3.7,3.6,5.9,5
	c5.1,3.5,10.3,7,15.5,10.3c1.9,1.2,4.1,1.7,6.1,2.6c0.8,0.5,1.5,1.1,2.1,1.8L353.6,657.5z"/>
<path class="st0" d="M240.4,682.4l27,13.8c-4,0.6-7.7,1.3-11.4-1.7c-4.1-3.4-9-5.9-13.5-8.8c-1-0.6-1.9-1.4-2.8-2.1L240.4,682.4z"/>
<path class="st0" d="M188.6,628.5c-3.9,0.3-30.7-18.1-34.5-24L188.6,628.5z"/>
<path class="st0" d="M243.6,693.7l2.5,2.7c-3,2.1-11.3-1-14.1-5.9c1.9,0.1,3.7,0.4,5.5,0.8c1.6,0.5,3,1.5,5.2,2.8
	c-0.2-0.8-0.4-1.6-0.5-2.3c0-0.7,0.1-1.4,0.3-2.1l12.5,6.4c-6,4.1-7.5-1.8-10.6-3.2L243.6,693.7z"/>
<path class="st0" d="M290.4,639.6c11.9,3,21.3,11.3,32.5,15.8C311.1,652.1,300,647.2,290.4,639.6z"/>
<path class="st0" d="M240.6,637.9c-1.3-0.2-2.8,0-3.9-0.6c-6.1-3.6-12.1-7.5-18.2-11.1c-3.3-2-6.8-3.6-10-5.9
	c12.2,2.7,21.2,11.8,32.6,16.1L240.6,637.9z"/>
<path class="st0" d="M397,551.7l3.6,1.9c1.2-3.8,2.4-7.2,3.5-10.7c0.5,6.9,7.1,9.3,10,14.5l-9.7-7.5l-2.6,4.6l-1,1l8.8,6.3l-1.2,1.2
	L396,552.8L397,551.7z"/>
<path class="st0" d="M207.4,702.4c-3.1,2.7-5,3.1-7.8,1.8c-3.3-1.5-7.1-1.7-10.5-3c-2.5-0.9-4.6-2.6-6.9-4l0.4-1.2L207.4,702.4z"/>
<path class="st0" d="M367.6,651.4l1.7-3.3l-18.6-11.8l0.7-1.2c4.1,2.4,8.9,4.1,12.3,7.2c6.6,6.2,12.9,4.3,19.6,0.8
	c0.7-0.3,1.4-0.6,2.2-0.8c0.2,0.4,0.4,0.8,0.5,1.2c-4.9,2.2-9.8,4.3-14.8,6.5C370.1,650.5,368.8,650.9,367.6,651.4L367.6,651.4z"/>
<path class="st0" d="M281.5,640l29.5,13.7l-0.5,1c-9.5-5.3-21.5-5.1-29.7-13.4L281.5,640z"/>
<path class="st0" d="M129.2,613l21.5,13.8l-0.4,1.1c-1.4,0-3.1,0.5-4.1-0.1c-6.1-4.3-12.1-8.9-18.1-13.4L129.2,613z"/>
<path class="st0" d="M228.9,641.3c5.4,1.6,10.5,2.7,15.4,4.6s10.7-0.9,14.5,4.3C241.5,648.6,238.5,647.7,228.9,641.3z"/>
<path class="st0" d="M309.8,696.5l10.6-0.8c-3.6,3.3-7.1,6-12.1,5.4c-3.8-0.5-7.6-0.1-11.5-0.1c0-0.5,0-1.1,0-1.6
	c1.4,0.1,2.9,0.1,4.3-0.1c0.7-0.2,1.4-0.6,1.9-1.2c0.4-0.5,0.8-1.1,1-1.7l1.4,2.6C309,699.7,309.8,699.3,309.8,696.5z"/>
<path class="st0" d="M192,669.6c-8.1-1.3-16.2-2.7-24.3-4c-0.6,0-1.2-0.2-1.7-0.6c-0.7-0.7-1.3-1.5-1.8-2.3c0.8-0.2,1.7-0.3,2.6-0.3
	c3.4,0.7,6.7,1.5,10.1,2.3l14.2,3.3c0.4,0.1,0.8,0.3,1.2,0.5L192,669.6z"/>
<path class="st0" d="M422.4,491.4c4.5,1.7,1.2,7,2.7,10.5l-3.7-8.7l-1.4,0.4c0.3,1.3,0.6,2.6,1,3.9c0.4,1.6,0.7,3.3,1.1,4.9
	l-1.3,0.4c-1.3-4.3-2.8-8.5-3.9-12.9c-0.1-0.6,1.8-1.8,2.8-2.7L422.4,491.4z"/>
<path class="st0" d="M336,660.8c5.1,0.2,9.6-0.3,13.7,0.8c3.2,0.9,5.8,0.3,8.8-0.2c1-0.2,2,0.1,2.8,0.8c-4.8,1.2-9.6,2.3-14.5,3.5
	c-0.6,0.2-1.2,0.2-1.8,0C342.2,664.2,339.6,662.7,336,660.8z"/>
<path class="st0" d="M291.1,650c-8.6,0.4-15.4-3.5-21.5-8.6l0.5-1.1L291.1,650z"/>
<path class="st0" d="M177.2,616.3l19.6,10.7c-2,0.6-3.5,1.5-4.1,1.1c-5.6-3.4-11-7.1-16.4-10.7L177.2,616.3z"/>
<path class="st0" d="M120.6,594.6l-5.8,3.3l5.1,2.9l-0.4,0.7c-1.8-0.2-3.6-0.3-5.4-0.3c-3.7,0.3-6.2-0.4-5.3-5.5l5,2
	c-0.2-0.7-0.4-1.4-0.6-2.1l7.3-1.5L120.6,594.6z"/>
<path class="st0" d="M274.9,653.5l-7.1,0.4l-0.1,0.6l2.8,1l-0.2,0.8l-10.1-2.8c0.1-1,0.1-1,3.6-1.8c1.7-0.4,3.4-1.1,5.1-0.9
	c2,0.2,3.9,1.2,5.8,1.9L274.9,653.5z"/>
<path class="st0" d="M136.1,624.7c-3.1,0.6-14.1-7.1-16.3-12l17,10.9L136.1,624.7z"/>
<path class="st0" d="M383,656.3c-1.3,3.8-9.9,6.7-16.6,6C371.7,658.3,377.5,658.5,383,656.3z"/>
<path class="st0" d="M227.7,663.8c-5.3-1.3-10.7,1.6-15.6-2.1C220.2,659.2,224.4,659.7,227.7,663.8z"/>
<path class="st0" d="M130.2,642.9l13.1,5.7c-2,3.4-2.7,3.6-6.3,0.9C134.4,647.7,130.9,646.7,130.2,642.9z"/>
<path class="st0" d="M393.2,590.3l-16.6-12l0.8-1c7.1,1.8,10.8,8.3,16.7,11.9C393.8,589.5,393.5,589.9,393.2,590.3z"/>
<path class="st0" d="M249.4,620.7c1.1,0.5,2.2,0.9,3.3,1.5c4.1,2,8.1,4,12.2,6c1,0.5,2.2,0.8,4,1.5c-3.2,1.2-5.2,1.7-7.7-0.3
	c-3.3-2.6-7.1-4.4-10.6-6.7C250,622.3,249.9,621.3,249.4,620.7L249.4,620.7z"/>
<path class="st0" d="M262.6,707l19.2-4.6C278.4,707,267.5,709.5,262.6,707z"/>
<path class="st0" d="M263.7,645.6c4.9-0.7,17.6,5.3,17.8,8.3L263.7,645.6z"/>
<path class="st0" d="M95.2,666.3c-2.6-1.4-6-2.2-7.4-4.4c-1.7-2.6-1.7-6.3-2.4-9.5l10.1,13.2L95.2,666.3z"/>
<path class="st0" d="M182.4,688.7c1.4,0.7,2.8,1.3,4.2,1.8c1.7,0.5,3.5,0.8,5.2,1.3c1.2,0.2,2.3,0.8,3.2,1.5
	c1.4,1.6,2.4,3.5,2.9,5.5l-15.9-9.2L182.4,688.7z"/>
<path class="st0" d="M167.1,684.5c0.4-0.9,0.8-1.9,1.2-3c3.9,7,12.3,8.3,17.6,13.5l-0.7,1.1L167.1,684.5z"/>
<path class="st0" d="M146.4,666.8c0.8-3.4-2.4-3.4-4-3.9c-2.4-0.8-2.8-1.6-1.8-3.2l14.5,7l-0.3,0.8L146.4,666.8z"/>
<path class="st0" d="M201.4,620.6l13.7,6.6C212.2,630.6,207.7,628.4,201.4,620.6z"/>
<path class="st0" d="M372.7,548.2c4.3,0.5,10.2,7.6,10.7,13.5L372.7,548.2z"/>
<path class="st0" d="M389.1,594.2l-16-11.2c1.4-0.4,2.5-1.1,2.8-0.8c4.7,3.6,9.3,7.3,14,11L389.1,594.2z"/>
<path class="st0" d="M238.4,700.8c5.2,0.4,10.3-0.8,14.7,3.7c-1.2,0.3-2.6,1-3.7,0.8c-3.4-0.9-6.7-2.1-10-3.2
	C239,702,238.9,701.5,238.4,700.8z"/>
<path class="st0" d="M153.2,671.7l16.4,4.5c-6.4,2-11.5-1.1-16.8-3.5L153.2,671.7z"/>
<path class="st0" d="M364.1,560.5l10.5,10.2l-1.5,1.5c-3.4-0.5-10.1-7-10.6-10.2L364.1,560.5z"/>
<path class="st0" d="M162,664.4c-2.8-0.8-5.7-1.3-8.4-2.4c-1.4-0.5-2.4-1.8-3.6-2.8c1.6,0,3.4-0.4,4.8,0.1c2.6,1,5.1,2.2,7.5,3.6
	L162,664.4z"/>
<path class="st0" d="M436,458.6c2.5-2,5-4.3,7.7-6.1c0.8-0.5,2.3,0.2,3.5,0.4c-0.6,0.9-1,2.1-1.8,2.5c-2.9,1.5-5.9,2.7-8.9,4
	L436,458.6z"/>
<path class="st0" d="M181.2,683.5l-14.2-4.2C173.3,677.4,178.6,678.9,181.2,683.5z"/>
<path class="st0" d="M402.8,502.7l12.9,11.8c-0.3,0.3-0.5,0.6-0.8,0.9l-13.5-11.2L402.8,502.7z"/>
<path class="st0" d="M272,694.6l-14.8-7.8l0.5-1C262.5,688.8,269,688.2,272,694.6z"/>
<path class="st0" d="M85.3,586.7l-8.1,0.6l3.4,3.9l-0.8,0.7l-3.6-4.2c2-1.8,3.3-3.6,5.1-4.5C84.6,581.6,84.6,584.5,85.3,586.7z"/>
<path class="st0" d="M348.6,648l-15.4-10.5l0.6-0.9l15.7,9.9C349.3,647,348.9,647.5,348.6,648z"/>
<path class="st0" d="M247.5,671.2l3-3l2.9,3.7l2.4-3.3l4.1,1.2l0.1,0.8l-4.5,0.7l1.8,2.7L247.5,671.2L247.5,671.2z"/>
<path class="st0" d="M188.7,618.4c3.7,1.4,7.5,2.7,11.1,4.2c0.4,0.2,0.4,1.5,0.6,2.2c-0.8,0.1-1.9,0.7-2.4,0.3
	c-3.3-1.8-6.4-3.9-9.6-5.9L188.7,618.4z"/>
<path class="st0" d="M113.7,614.6c2.6,2,5.2,4.1,7.9,6c0.7,0.5,1.9,0.5,2.7,0.9c0.6,0.5,1.2,1.1,1.7,1.7c-0.8,0.2-1.8,0.9-2.2,0.6
	c-3.7-2.6-7.4-5.3-11-8L113.7,614.6z"/>
<path class="st0" d="M415.4,443.9c2.8-2.2,5.5-4.5,8.4-6.6c0.8-0.5,2.1-0.2,3.2-0.3c-0.5,0.9-0.8,2.1-1.5,2.6
	c-3.1,1.8-6.4,3.4-9.6,5.1L415.4,443.9z"/>
<path class="st0" d="M197.7,686.6l-14.6-2.9C188.1,681.3,194,682.5,197.7,686.6z"/>
<path class="st0" d="M405.5,634.7c-5.7-2.3-11-5.5-15.7-9.6l16.3,8.4L405.5,634.7z"/>
<path class="st0" d="M345.2,639.3l14.1,6.6c-0.6,0.7-1.2,1.5-1.3,1.5c-4.5-2.3-9-4.7-13.4-7.1L345.2,639.3z"/>
<path class="st0" d="M202.5,609.8l14,1.3c0,0.6-0.1,1.1-0.2,1.7l-14-1.3L202.5,609.8z"/>
<path class="st0" d="M416.2,618.6l-12.1-5.9l0.5-1c4.8,0.4,8.6,2.8,12.1,5.9L416.2,618.6z"/>
<path class="st0" d="M100,602l8.3,6.9c-0.3,0.4-0.7,0.8-1,1.2c-4.8,0.2-5.4-4.8-8.4-6.8L100,602z"/>
<path class="st0" d="M224.2,647.3l2.5-0.9l11.1,4.6C233.7,651.8,226.5,649.7,224.2,647.3z"/>
<path class="st0" d="M286.6,702.5H301c-4.9,3.6-9.6,1.3-14.5,1.1L286.6,702.5z"/>
<path class="st0" d="M177,694.2l-15.3-9.9l0.6-1l15.4,9.7L177,694.2z"/>
<path class="st0" d="M419,535.3l-10.1-10.5l0.8-0.8c5.1,1.8,6.3,7.3,10.2,10.3L419,535.3z"/>
<path class="st0" d="M331,628.8l-13.6-7.2C323.8,622.2,330.5,625.8,331,628.8z"/>
<path class="st0" d="M364.1,629.9c-1-0.1-2-0.3-2.9-0.6c-3-1.5-6-3.2-8.9-5c-0.7-0.5-1-1.6-1-2.9l13,7.6
	C364.3,629.3,364.2,629.6,364.1,629.9z"/>
<path class="st0" d="M384.8,628.1l12.4,7.5c-0.2,0.4-0.5,0.8-0.8,1.3l-12.4-7.5L384.8,628.1z"/>
<path class="st0" d="M378.3,631.1c2.2,1.5,4.4,3,6.5,4.6s4.1,3,6.2,4.5l-0.6,0.9l-13.1-8.8L378.3,631.1z"/>
<path class="st0" d="M385.8,654.8l10.1-5.1c-1.5,5-5.8,5.2-9.6,6.1L385.8,654.8z"/>
<path class="st0" d="M365.6,584.9c4.4-1.1,6.5,1.3,10.7,6.6L365.6,584.9z"/>
<path class="st0" d="M363.8,606.5c-2.8,2.8-5.4,2.1-9.6-2.6L363.8,606.5z"/>
<path class="st0" d="M191.1,602.7l9,0.8c-2.9,1.8-4.7,5.3-9.3,3.2l5-1.8l-5-1.4L191.1,602.7z"/>
<path class="st0" d="M130.9,609.9l-8.9-7.5C126.1,602.6,130.7,605.8,130.9,609.9z"/>
<path class="st0" d="M260.7,601.1c5.3-0.2,8.5,1.5,10.8,5.9L260.7,601.1z"/>
<path class="st0" d="M431.9,537.6c-1-4.7-2-9.3-3-14l1.4-0.3l2.9,14L431.9,537.6z"/>
<path class="st0" d="M65.9,574.3l6.4,10.7C68.9,584.8,65.7,579.7,65.9,574.3z"/>
<path class="st0" d="M432,576.5c1.5,4.3-2.2,7.5-3.5,11.2c0.7-3.8,1.5-7.7,2.2-11.5L432,576.5z"/>
<path class="st0" d="M249.5,620.6l-12-6.4l0.8-1.3C242,615.4,246.9,616.1,249.5,620.6L249.5,620.6z"/>
<path class="st0" d="M380.8,641.8l-10.2-7.2c0.3-0.4,0.6-0.8,0.9-1.2l10.1,7.4L380.8,641.8z"/>
<path class="st0" d="M332.2,594.8l11.7,5.2l-1.7,1.8l-10.4-6.5L332.2,594.8z"/>
<path class="st0" d="M282,614.3l-9.4-5.6l0.7-1.3l9.6,5.4L282,614.3z"/>
<path class="st0" d="M322.5,660.3l-7.1-1.7l-1.3-3.8l8.9,4.7L322.5,660.3z"/>
<path class="st0" d="M429,560.5c1-3.2,2.1-6.4,3.1-9.7l1.3,0.4l-2.9,9.7L429,560.5z"/>
<path class="st0" d="M158.9,683.1l-7.9-5c2.4-1.8,4-3.3,4.9,1c0.3,1.3,2.2,2.2,3.4,3.3L158.9,683.1z"/>
<path class="st0" d="M367.6,651.4c-3.8,0.9-6.5-0.2-8-4.2L367.6,651.4L367.6,651.4z"/>
<path class="st0" d="M113.9,621.9l8.3,4.5C118.3,627.2,115.3,626.4,113.9,621.9z"/>
<path class="st0" d="M214.5,694.7c3.7-2.9,5.1-0.3,6.9,1.2l-0.5,1.3L214.5,694.7z"/>
<path class="st0" d="M305.9,656.2c2-0.1,4-0.1,6,0.1c0.5,0.1,1,1.3,1.4,2c-0.7,0.3-1.3,0.4-2,0.4c-1.9-0.4-3.7-1.1-5.5-1.7
	L305.9,656.2z"/>
<path class="st0" d="M173.2,673.2c2.1,0.7,4.3,1.2,6.4,2c0.4,0.3,0.7,0.9,0.6,1.4c-0.1,0.4-1.1,0.9-1.4,0.8c-2.1-0.9-4.1-2-6.1-3.1
	L173.2,673.2z"/>
<path class="st0" d="M400.3,531.3l8.8,8.7l0.3-0.4l-10.5-7L400.3,531.3z"/>
<path class="st0" d="M375.7,602.3l-6.6-4.3C373.8,597.6,376.2,599.3,375.7,602.3z"/>
<path class="st0" d="M350.5,647.5c2.4,1.8,6,1.6,7.8,4.5l-0.8,1.3l-7.7-4.7L350.5,647.5z"/>
<path class="st0" d="M116.6,583.3l9.6,3.3l-0.5,1.4l-9.5-3.5L116.6,583.3z"/>
<path class="st0" d="M277.5,688.7c1.5,0.5,3.1,1,4.6,1.6s2.8,1.3,4.1,2l-0.7,1.3l-8.6-4.1L277.5,688.7z"/>
<path class="st0" d="M132.1,628.5l-6.8-1.7l0.5-1.9l6.7,1.7L132.1,628.5z"/>
<path class="st0" d="M116.3,603.3l8.8,6.7l-0.9,1.1l-8.7-7L116.3,603.3z"/>
<path class="st0" d="M373.9,594.7l8.8,4.8c-1.7,1.2-2.7,0.8-9.1-3.8L373.9,594.7z"/>
<path class="st0" d="M270.5,671.6l4.9,3.8h-5.7l-0.4-3.5L270.5,671.6z"/>
<path class="st0" d="M148,679c-4.3-0.5-5.6-4.3-8.4-6.6c0.2-0.3,0.4-0.5,0.7-0.8C142.8,674.1,145.4,676.5,148,679L148,679z"/>
<path class="st0" d="M92.8,584.7c0.1,0.7,0.2,1.3,0.6,3l2.1-4.5l0.7,0.1l-1,5.8c-3.4,0.5-3.1-1.9-3.4-3.9L92.8,584.7z"/>
<path class="st0" d="M425.8,523.9c-2.2-1.6-6-1.9-5.2-6.2L425.8,523.9z"/>
<path class="st0" d="M103.3,458.2l0.2-3.2c-1.8,2.9-5.7,4.9-4.3,9.3c-4.6,3.9-5.8,9.8-8.1,15c-0.9,2-0.5,4.5-1.3,6.5
	c-0.7,1.5-2.4,2.6-3.6,3.9c-0.5-4.6,7.8-24.3,15-35.7c-1.5-1.2-2-7.3-0.5-7.9c0.8-0.3,2.3,1.2,3.9,2.1c0.3-1,0.5-2,0.6-3
	c1.6-14,3-28,4.9-42c0.7-5,3.1-9.9,4.1-14.9c2-10,3.6-20,5.3-30.1c0.5-3,0.8-6,1.1-9h1v17.1l-2.7,1.5l4.1,1.2l-1.8,3.3
	c2.8,1.7,2.5,3.3-0.7,4.5l2.8,2.1l-3.7,3.4c0,0,0.2,0.4,0.3,0.4c1.5,0.2,3,0.4,4.6,0.6c-1.2,0.9-2.3,1.9-3.6,2.7
	c-0.8,0.4-1.6,0.8-2.5,1.1l5.6,1.4l-0.1,0.9l-6.5,3.1l0.3,1.1l7.6-1.3l-1.2,3.7l-6.9,2.1l0.3,1.5l6.9-1c-1.1,5.2-2.1,10.2-3.2,15.2
	s-1.3,4.9-5,6.7c0.6,0.2,1.2,0.4,1.9,0.5c0.6,0.1,1.2,0,2.4,0c-0.3,1.4-0.2,2.9-0.9,3.5c-2.3,2.2-1.3,4.8-0.6,6.9
	c0.5,1.4,0.7,2.1-0.2,3.2c-5.3,6.5-9.8,13.6-13.5,21.2C104.8,456.7,104.1,457.5,103.3,458.2z"/>
<path class="st0" d="M131.7,110.3c3.3-1.7,7-3.7,10.8-5.4c1-0.4,2.4,0.3,3.7,0.4c-0.6,1.7-0.8,3.8-2,4.9s-3.3,1.6-4.8,2.8h4.9
	l0.5,0.8l-6.4,4.3l0.3,0.5l6.2-2.2l0.3,0.7l-7.9,4.8l0.7,1.5l7.6-2.2l0.4,0.6l-6.8,3.3l0.3,0.9l5.5-1.1c0.5,3.3-6,2.1-3.8,6.4
	l4.9-0.6l0.3,0.6c-1,0.6-2.1,1.3-3,2.1c-0.7,0.7-1.3,1.5-1.8,2.4c1,0.1,1.9,0.2,2.9,0.3c0.6,0,1.2,0,2.8,0l-5.3,3.2l3.4,2.2
	c-1.6,3,0.7,6.9,5.3,7.4L146,152C141.1,137.9,136.5,124.4,131.7,110.3z"/>
<path class="st0" d="M216.8,122.1c-1.7-0.1-3.5,0.2-4.9-0.5c-9.4-4.1-12.3-13-14.7-21.7c-1.5-5.2-1.4-10.9-1.6-16.4
	c-0.1-1.6,1.1-3.3,1.7-5c2,8.7,3.7,17,5.8,25.1c0.8,2.8,2.9,5.3,4.2,8c0.7,1.4,0.6,3.6,1.6,4.4c2.4,1.9,5.3,3.2,8,4.7L216.8,122.1z"
	/>
<path class="st0" d="M184.4,91.6l4.6-1.8l-0.3-1.2l-12.2,3l8.3-8.2l-9.4,2.2c2-5.3,9.2-8,14.2-5.1l-1.3,2l0.5,0.5l3.7-3.1
	c0.3,3.3,0.6,6.4,0.7,9.6c-0.2,0.9-0.8,1.7-1.7,2C189.1,91.7,186.7,91.7,184.4,91.6z"/>
<path class="st0" d="M241,156.4l3.3,13.2l-3.2-1.4c0.4,2,0.7,3.5,1,4.7c1.2,0.1,3.3,0.1,3.4,0.4c0.3,2.3,0.5,4.7,0.5,7.1
	c0.3,0.1,0.5,0.9,0.1,1.9c-0.5,1.2-0.6,2.7-1.6,3.9c-0.2-3.8-0.5-7.6-0.7-11.4h-1.2v17.1l-4.1-3.6l3.2-0.8
	c-0.8-5.8-1.6-11.7-2.5-17.5s-2.2-11.4-3.3-17.1l1.2-0.3c0.5,2,1,3.9,1.6,6.5L241,156.4z"/>
<path class="st0" d="M218.3,85.6l-2.1,1.4l4.2,1.4l-0.4,1.5h-14.5l-0.2,2.7l17-1.8c0.1,0.6,0.2,1.1,0.3,1.6l-18.1,3.4
	c-0.8-4.3-1.8-9.5-3-15.4l10.2,2.8c-2.6,3.2-5.1,3.5-7.5-0.5c-0.2,4.7,1.2,5.9,5.4,5c2.9-0.7,5.6-1.6,8.4-2.4L218.3,85.6z"/>
<path class="st0" d="M220,71.5l-2.5-14.2l-1.1,0.2c0.3,3.3,0.6,6.5,0.9,9.8l-1.2,0.1c-0.1-6.6-3.7-12.7-2-19l6.4-0.6
	C223,55.3,222.4,63.3,220,71.5z"/>
<path class="st0" d="M303.1,321.1c-1.3-0.2-2.5-0.3-3.8-0.3c-4,0.3-7.9,0.8-11.9,1.1c-0.6,0-1.3-0.6-2-0.9
	c-7.9-3.9-15.9-7.8-23.8-11.7c-2-1-4-2-6-3l0.1-1l7.2-0.6l-3,2.2c12.1,7,25.9,5.1,38.5,8.4l-19.4-0.9c7.2,5.7,15.9,4.3,24,5.8
	L303.1,321.1z"/>
<path class="st0" d="M288.6,265.6c-11.5-6.9-22.5-14-29.3-25.7c-3.2-5.6-6.3-11.3-9.4-16.9c0.4-0.3,0.9-0.5,1.3-0.8
	c2.4,3.9,5.1,7.6,7.2,11.7c5.4,10.1,12.5,18.6,22.4,24.7c2.3,1.5,4.5,3.1,6.6,4.9C288.1,263.9,288.3,264.8,288.6,265.6z"/>
<path class="st0" d="M308.3,327l-5.7-0.3l-0.3,1.1c4.4,1.2,8.9,2.5,13.3,3.6c4.7,1.1,9.4,1.9,14.9,3l-3.8,1.3l5.9,3.3l-0.2,0.3
	l-42.5-14.7l0.3-1.4l18.1,2.8L308.3,327z"/>
<path class="st0" d="M135.1,105.6c1.4-5.6,6-6.4,10-8.4l-3.2,0.3l-0.2-0.4c1-0.5,2.5-1.7,3-1.4c4.2,2.3,6.3-1,9.3-3.7l-0.3,2.2
	l6.9,0.6c-1.6,1.7-2.4,3.9-5.2,2.1c-1.2-0.8-3.8,0.6-5.8,1.1l0.1,1.2l3,1.5l0.1,1C146.8,102,140.2,100.6,135.1,105.6z"/>
<path class="st0" d="M109,457.4l-15.7,26.2l-0.9-0.5c2.3-10.4,8.1-18.9,15.3-26.6L109,457.4z"/>
<path class="st0" d="M248.3,246.6c-0.7,0.4-1.4,0.7-2.2,0.8c-9.5,0.1-19.1,0-29.3,0l3.6,2.9H206l-0.1-1.4h10.2l0.1-1.2l-2.1-1l0.1-1
	h33.4L248.3,246.6z"/>
<path class="st0" d="M165,334l-40.3,12.6c0.8-1.1,1.2-2.2,1.9-2.5c2.3-0.9,4.6-1.6,6.9-2.2c9.8-2.8,19.5-5.7,29.3-8.5
	C163.1,333.3,163.5,333.6,165,334z"/>
<path class="st0" d="M157.9,345.4c-0.9,2.3-1.6,3.3-4.1,3.3c-2.9,0-5.9,1.2-8.9,2c-6.3,1.8-12.6,3.7-19.4,5.2
	c0.6-0.6,1.2-1.5,1.9-1.7c6.9-2.2,13.7-4.4,20.6-6.5C151.2,346.8,154.3,346.2,157.9,345.4z"/>
<path class="st0" d="M125.3,359.8l28.3-8.7l0.7,0.6c-0.6,1-1.1,2.6-1.9,2.8c-8.7,2.3-17.5,4.4-26.2,6.6
	C126.2,361.1,126,360.8,125.3,359.8z"/>
<path class="st0" d="M249.4,221.9c-1.5-5.1-3.1-10.2-4.4-15.4c-1.1-4.3-0.7-9.3-6.8-11.5l4.8-1l4.6,6.4l-2.2,0.2
	c1.7,6.8,3.4,13.9,5.1,20.9L249.4,221.9z"/>
<path class="st0" d="M144,376.7c-0.9,3.3-1.8,6.5-2.5,9.3c-2,0.3-3.6,0.5-5.2,0.7s-2.9,0.5-5,0.9c3-3.9,9.5-1.2,10.5-8.1l-14.2,3.5
	l-0.4-1.3L144,376.7z"/>
<path class="st0" d="M161.2,340.2c-0.6,0.8-1.2,2-2,2.2c-4.9,1.1-9.8,2-14.7,3.1c-2.9,0.7-5.7,1.7-8.8,1.9c7.6-4.6,16.4-5.4,24.6-8
	L161.2,340.2z"/>
<path class="st0" d="M125.6,365l24.8-6.9C149,361,129.1,366.8,125.6,365z"/>
<path class="st0" d="M167,85.9l9.3,2.9l-9.2,6.4c0-3.5,0-6.5,0-9.5L167,85.9z"/>
<path class="st0" d="M148.6,363.6c-0.6,1.5-1.2,2.8-1.4,3.2l-21.3,5.8C132.2,366.8,141.4,368.2,148.6,363.6z"/>
<path class="st0" d="M221.1,85.4c4.4-2.1,8.9-2.6,12,1.1c1.9,2.3,4.3,5.3,2,9.3c-0.4-1.3-1-2.5-1.8-3.7c-0.8-1.1-0.1-4.2-3.1-2.7
	c-0.3-1.2-0.6-2.4-1-4L221.1,85.4z"/>
<path class="st0" d="M209.3,100.7l-3.3-1.4c0.8-0.9,1.4-2.4,2.4-2.6c4.3-0.8,8.7-1.2,13-1.8l0.4,1.8c-0.9,0.4-1.8,0.7-2.7,1
	c-3,0.6-6,0.9-8.9,1.5c-0.4,0.1-0.7,1-1,1.5L209.3,100.7z"/>
<path class="st0" d="M232.2,79.5c-7.2,2.4-14.5,3.6-21.9-0.1c1.2,0,2.5-0.3,3.6,0.1c4.6,1.7,8.8-0.1,13.1-1.1
	c1.7-0.4,3.6-0.1,5.4-0.1L232.2,79.5z"/>
<path class="st0" d="M260.2,300l32.9,1.8l-0.1,1.3l-32.9-1.8L260.2,300z"/>
<path class="st0" d="M209.2,100.8c2.1-0.2,4.1-0.6,6.2-0.7s4,0,6.1,0l0.1,1.1l-7.8,1.3l-0.2,1l6.2,1.8l0.1,0.9
	c-2.2,0-4.9,0.8-6.6-0.2s-4.9-1.8-4.1-5.2L209.2,100.8z"/>
<path class="st0" d="M125.3,399.3c4-1.3,7.2-2.5,10.6-3.4c2.6-0.7,3-2.1,2.3-4.7l-7.5,2.5l-0.4-1.1l10-4.2
	C141.2,395.3,134.7,400.4,125.3,399.3z"/>
<path class="st0" d="M288.9,266.8c3.6-1.6,5.1,2,7.3,3.5c3.9,2.7,7.5,6,10.5,9.7c-1.4-0.5-3.1-0.7-4.3-1.6
	C297.8,274.6,293.4,270.7,288.9,266.8z"/>
<path class="st0" d="M324.3,328.2l5.8-0.8l-2.6-3.6v-4.7h5.4l-1.8,1.5c0.2,3.2,0.3,6.1,0.5,9.3l-7.4-1.1L324.3,328.2z"/>
<path class="st0" d="M240.3,135.7c-0.2,3.6-0.4,7.3-0.6,10.9l-1.2-0.1l-0.9-3.7h-0.9l-0.7,5.7l-1-0.1c0.3-3.9,0.7-7.7,1.1-12.7
	c0.5,0.6,1,1.2,1.4,1.9c0.2,0.7,0.4,1.4,0.5,2.2c0.6-2.1,1-3.3,1.4-4.5L240.3,135.7z"/>
<path class="st0" d="M238.3,110c3.2,4.1,3.9,11.6,1.6,19.3C239.4,122.9,238.9,116.4,238.3,110z"/>
<path class="st0" d="M306.5,281.1c3.9-0.7,13.5,8.9,14.5,13.2C316.5,290.2,311.6,285.8,306.5,281.1z"/>
<path class="st0" d="M120.2,430l8.9-18l1.6,0.8l-9.2,17.8L120.2,430z"/>
<path class="st0" d="M230.8,97.4c3,2.3,5.5,13.5,4.1,16.3C231.7,108.6,233.4,102.4,230.8,97.4z"/>
<path class="st0" d="M230.8,133.7c0.3-5.5,0.6-11.1,1-17.7c3.1,6.6,0.4,12.1,1.1,17.6L230.8,133.7z"/>
<path class="st0" d="M327.2,301.2c5.3,4,10.7,8.1,16,12.1C336.9,310.7,331.1,307.2,327.2,301.2z"/>
<path class="st0" d="M231.3,240.4h-17.1v-1.1h17.1L231.3,240.4z"/>
<path class="st0" d="M129.4,375.7l15.8-4.2c-0.3,1-0.3,2.1-0.6,2.2c-5,1.2-10,2.2-14.9,3.2L129.4,375.7z"/>
<path class="st0" d="M346.9,315.9l16.7,15.9l-0.7,0.7c-5.2-5.7-10.4-11.4-15.6-17.1L346.9,315.9z"/>
<path class="st0" d="M231.6,300.1h14.9v1.3h-14.9L231.6,300.1z"/>
<path class="st0" d="M289.6,328.2L285,331c-0.4-2.4-0.7-4.3-1-6.2l6.1,2.2L289.6,328.2z"/>
<path class="st0" d="M163.4,93.3l-7.8-0.6l-0.1-0.8l6.4-3.7C162.4,89.9,162.9,91.4,163.4,93.3z"/>
<path class="st0" d="M216.8,112.6c-3.1,1.8-7.5-1-9.9-6.1L216.8,112.6z"/>
<path class="st0" d="M211.8,233.8l15.6-1.1c0,0.4,0,0.9,0.1,1.4l-15.7,0.7L211.8,233.8z"/>
<path class="st0" d="M223.7,87.4c1.9,2,6.2,1.2,6.1,6.8c-2.7-2.3-4.8-4.1-6.9-5.9L223.7,87.4z"/>
<path class="st0" d="M303.8,314.6l12,1.2l-0.1,1.1l-12-0.9C303.8,315.6,303.8,315.1,303.8,314.6z"/>
<path class="st0" d="M325.7,323.8l-8.5-1.1l0.1-1.3l8.5,0.9L325.7,323.8z"/>
<path class="st0" d="M226.2,537.8c-14.2-11.5-29-22.4-41.9-35.5l0.8-1l41.9,35.5L226.2,537.8z"/>
<path class="st0" d="M220.2,518.5l-26.6-22.6l0.8-1.4c1.3,0.5,2.5,1.1,3.6,1.9c7.1,6.4,14.1,12.9,21,19.3c0.6,0.7,1.2,1.3,1.8,2.1
	L220.2,518.5z"/>
<path class="st0" d="M226.4,506.9c-1.3-0.6-2.6-1.3-3.9-2.1c-2.7-1.9-5.3-4-7.9-6c-0.5-0.4-0.7-1.3-1-2c0.8,0.1,1.9,0,2.5,0.4
	c3.6,3,7,6.1,10.6,9.1L226.4,506.9z"/>
<path class="st0" d="M384.9,413.7c-1.3,1.8-4,3.5,0.1,5.7c0.6-1.5,1.3-2.9,1.9-4.5c1,0.5,1.9,1.1,2.6,1.8c0.5,0.6,0.8,2.4,0.4,2.7
	c-2.8,2.5-5.9,4.7-8.9,7l0.9,1.1c0.7-2.4,1.4-4.9,2-7.3l-0.7-0.4c-2.1,2.3-4.2,4.6-6.4,6.9c-1.9,2-4,4-6,6l-1.2-1.1l14.1-18.6
	L384.9,413.7z"/>
<path class="st0" d="M377.3,430.5c-3.3,8.6-10.3,14.8-15.3,22.2l-1.1-0.7l15.5-22.2L377.3,430.5z"/>
<path class="st0" d="M378.4,413.3c1.5-3.5,3-7,4.6-10.8h-3.1c0.3-0.7,0.4-1.6,0.8-2s1.7-0.5,1.8-0.3c0.7,1.2,1.9,2.8,1.5,3.8
	c-1.4,3.3-3,6.5-4.7,9.7L378.4,413.3z"/>
<path class="st0" d="M252.6,604.3l12.6,8.8l-0.7,1.1l-12.6-8.8C252.1,605.1,252.4,604.7,252.6,604.3z"/>
</svg>
