<?xml version="1.0" encoding="utf-8"?>
<!-- Generator: Adobe Illustrator 22.0.1, SVG Export Plug-In . SVG Version: 6.00 Build 0)  -->
<svg version="1.1" id="Layer_1" xmlns="http://www.w3.org/2000/svg" xmlns:xlink="http://www.w3.org/1999/xlink" x="0px" y="0px"
	 viewBox="0 0 400 400" style="enable-background:new 0 0 400 400;" xml:space="preserve">
<style type="text/css">
	.st0{fill:#FFFFFF;}
	.st1{fill:#232323;}
</style>
<path class="st0" d="M84.5,193.6l3.1-5.3l6.5-7.7l6-5.2l2.8-1.9l3.4-4.9l5.1-7.5l5.2,4.3l6.2-7.8l26.5,1.2l2.3,0.9l1.2,1.4l0.6,2.2
	l0.6,4l1.4,2.7l1.5,1.3l2.3,2.2c0,0,4.7,6.8,6.3,12.6c0,0,4,10.5,4.1,11.7c0,0,2.1,4.3,4.5,5.7c0,0,1.5,4.8,9.9,7.7l11.2,4
	c0,0,20.3,4.2,40.7-2.2c20.4-6.4,55-20.7,55-20.7l18-11.8c0,0,2.7-1.5,4,0.9s3.2,3.6,1.9,5.7s-16.4,16.7-16.4,16.7L280.1,215
	l-23.6,15.1l-12.8,6.8l-34.3,14.5c0,0-17.2,8.2-31.8,8.3s-25.5-0.9-25.5-0.9h-14.4l-3.8-0.7l-2.1-0.9l-3.9-1.5l-18-10.6l-14-8.2
	l-6.5-6.6l-1.3-4.5l0.4-5.2l0.7-2l-1.3-2.5l-2.6-0.7l-1.1,0.5l-5.9-3.8C78.1,212.1,80.8,196.2,84.5,193.6z"/>
<title>Artboard 1</title>
<path class="st1" d="M198.6,224.8h10.1c-4.3-0.8-8.7-1.5-13-2.4c-1.7-0.3-3.3-0.9-4.9-1.1c-1.3-0.2-2.6-0.9-4,0.4
	c-0.9,0.8-2.9,0.4-4.4,0.2c-3.6-0.5-6.2-2.7-8.6-5.1c-0.4-0.4-0.4-1.3-0.6-2l0.5-0.4c2.6,1.7,5.2,3.5,7.9,5.1
	c0.9,0.5,2.1,0.5,3.4,0.7l1-1.4l0.2,1.4c2.3-1.2,4.4,0.1,6.6,0.5c2.9,0.6,5.8,1.1,8.7,1.8c1.4,0.3,2.7,1.1,4.1,1.2
	c2,0.1,4.1,0,6.1-0.1V223c-3.4-0.6-6.9-1-10.3-1.7c-3.1-0.7-6-1.8-9-2.8c-0.4-0.1-0.9-0.1-0.7-1c0.1-0.5-1.4-0.5-2.3-0.7
	c-2.5-0.4-4.9-1.1-7.2-2.1c-7.6-3.4-13.8-8.8-20.2-13.9c-5.6-4.5-11.7-8.3-17.6-12.4c-1.6-1.1-3.4-2.2-5.1-3.3l6.4,3.2l-0.6-4.5
	l-0.2,1.8c-3.1-2.9-6.3-5.9-9.4-9c-0.7-0.7-0.9-2-1.3-3.1c-0.1-0.4-0.2-0.8-0.5-1.7c-1,1.3-2.5,2.5-2.2,3.1c0.8,2.1,1.9,4,3.2,5.8
	c1,1.1,2.1,2.1,3.3,3.1c-2.3-1-4.3-2.6-5.7-4.7c-1.2-1.6-2.5-3.5-4.2-4.4s-2.6-2.5-3.8-3.9c-0.5-0.6-0.9-1.4-1.1-2.1
	c-0.1-0.5-1.1-1.5,0.5-1.4l-0.2-1.4c1.7,1.8,2.4,4.3,4.8,5.8c2.6,1.6,4.6,1.5,6.1-1.8l-3.5,2.2L125,165l1.2-1.1c0.4,1,1,1.9,1.6,2.8
	c0.6,0.7,1.4,1.7,2.2,1.8c1.1,0.1,2.2-0.4,3.6-0.8l-2.8,2.9c2.6-0.8,4.8-2.4,7.2-2.8c3.5-0.6,5.7-3,8.3-4.9c0.5-0.4,0.7-1.2,1.1-1.9
	l-0.3-0.2l-1.7,1.3l-0.2-0.2l2.9-3.6l-0.3-0.2l-5.1,4.4l0.1-2l-1,0.5l0.4-1.4l-2.8,3.9l-0.4-0.3l0.1-2.1h-0.3l-0.6,2.6l-1.5,0.1
	l0.4-3.3l-0.3-0.1l-1.4,3.8l-0.4-0.1l0.7-3.7l-0.2-0.1l-1.4,2.7l0.2-4l-1.1,2l-0.4-0.2l1.8-4l-0.3-0.3c-0.7,0.8-1.4,1.6-2.3,2.8
	l1-3.4l-0.2-0.1l-1.3,1.6l0.4-1.8l-1.2,1.1l-0.2-0.2l1.5-2H130c0,0.5,0.2,1.1,0,1.4c-0.7,1.1-1.5,2.2-2.5,3.6c0.5-1.8,1-3.4,1.6-5.3
	l-4,4.7l-0.4-0.2l2.6-3.7c-0.8-0.5-1.7-1-2.6-1.4c-2.2-1-3.7,0.1-3.2,2.2l1.5-0.8c-0.1,0.9-0.4,1.7-0.2,2.3c0.6,1.6,0.7,1.6,0.2,2.8
	c-3.2-5.6-3.3-5.8-1.4-7.8l-2.4-0.6c0.3,1.4,0.4,2.4,0.7,3.4c0.1,0.6,0.4,1.2,0.6,1.8c0.5,1.7,0.5,3.8,1.5,4.9
	c0.8,1,1.4,2.3,1.6,3.6l-1.8-2.6c1,5.6-1.2,9.3-5.8,11.6l-1.9-1.7l0.8-1.6l-0.3-0.2l-1.4,1.7l-1.9,0.1l1.3-2.2l-0.2-0.2l-1.2,0.9
	v-1.2l-1.5,1.4l-0.2-0.2l2.3-3.4l-1.6,1l0.7-1.5l-0.2-0.2l-1.7,2.6l-0.6-4l-1.6,2.6l-0.3-0.2c0.4-0.8,0.8-1.6,1.2-2.5
	c0.7-1.6,1.4-3.1,2-4.7c0.9-2.5,2-2.8,3.9-0.8c2.1,2.2,2.1,2.2,4.3,0.5c0,0.9,0.1,1.7,0.2,2.6c0.7,2.5,0.5,5.1-0.7,7.4
	c-0.5,0.9-0.9,1.7-1.5,2.5c2.5-1.3,4.3-4.9,3.9-7.2c-0.3-1.4-0.6-2.7-1-4.1c-0.1-0.4-0.7-0.8-1-1.1c1.4-2.5,0.5-5,0.1-7.5
	c-0.1-1-0.1-1.9,0-2.9c1.7,0.4,3.4,0.9,5,1.4c5.4,2.2,11.1,2.1,16.8,2.7c2.2,0.1,4.4,0.6,6.4,1.5c1.4,0.7,2.8,0.7,3.2,2.5
	c0,0.1,0.5,0.2,0.7,0.1c1.8-0.4,2.3,0.9,2.7,2.2l-0.1,0.1l-0.9-1.6l-0.5,0.5c1.7,8.9,3.4,17.7,5,26.3c-0.8-2.1-1.8-4.6-2.7-7
	l-0.5,0.2c0.3,5.3,3.6,9.3,6.1,13.7l-0.3-1.1l0.2-0.1c1.1,2.2,2.4,4.4,3.8,6.4c1.7,2,3.5,3.8,5.6,5.4c1.9,1.8,3.9,3.3,6.1,4.7
	c1.9,1.1,4.2,1.6,6.6,2.5l-1.6,0.4l5.4,1l-1-1.2l0,0c4.8,0.8,9.6,1.7,14.5,2.4c1.4,0.1,2.8,0,4.1-0.1c2.2,0.1,4.4-0.2,6.3,1.3
	c0.8,0.6,1.8,0.7,2.8,0.5c8.3-3,17.1-3.8,25.8-5.4c5.1-0.8,10-2.2,14.7-4.4c5.2-2.5,10.7-4.6,15.9-7.2c4.3-2.1,8.8-4,13.4-5.6
	c5.5-2,10.6-5.2,15.9-8c2.9-1.5,5.7-2.9,8.5-4.5c1.2-0.7,2.3-1.8,3.6-2.4c2-1.1,3-0.6,3.8,1.6c0.7,1.9,1.8,3.7,2.5,5.6
	c0.3,0.7,0.3,1.5,0.1,2.2c-0.9,2.1-2,4.2-3,6.3c-0.1,0.3-0.7,0.4-0.9,0.7c-0.6,1-1.8,1.4-2,3c-0.1,0.9-2.1,1.6-3.3,2.4
	c-0.5,0.3-1.1,0.6-1.6,0.8c-0.6-0.1-1.4-0.4-1.7-0.2c-1,0.9-2,1.9-2.9,3l-3.8,2.4l-0.4,0.2c-1.9-0.1-9.4,3.8-10,5.3l0.6,0.3
	c-4.1,2.6-8.3,5.1-12.4,7.8c-2,1.2-3.8,2.6-5.8,4c-0.4,0.2-0.8,0.4-1.2,0.5l0.2-1.4c0.9-0.7,1.7-1.4,2.5-2c4.2-3,8.3-5.9,12.6-8.8
	c0.8-0.6,1.4-2.3,2.9-0.9c0.3-0.5,0.6-0.9,0.9-1.4c0.2-0.3,0.3-0.7,0.6-0.9c2.2-1.2,4.3-2.6,6.6-3.6c2.3-1.2,4.4-2.7,6.2-4.5
	c4.6-4,9-8.2,13.3-12.4c2.3-2.2,2-3.9-0.7-5.6c-0.4-0.2-0.8-0.3-1.2-0.1c-1.5,1.1-2.9,2.5-4.5,3.5c-0.8,0.3-1.6,0.5-2.5,0.5
	c-0.4,0.1-1,0.2-1.1,0.5c-1.8,3.3-5.3,4.4-8.2,6.2c-5.1,3.1-10.4,6-15.6,9c-0.3,0.2-0.5,0.3-0.8,0.5c-1,0.9-1.8,2.5-2.9,1
	c-0.6,0.7-1,1.4-1.5,1.7c-2.9,1.6-5.9,3.2-8.9,4.8c-0.8-1.4-1.7-0.4-2.5,0.2c-3.2,1.9-6.4,3.9-9.4,6.2l3.2-0.9l0.2,0.3
	c-2.1,1.1-4.2,2.3-6.4,3.4c-2.5,1.3-5.1,2.5-7.6,3.8c-2.3,1.1-4.7,2.2-6.9,3.4c-3.5,1.9-6.9,4.1-10.5,5.9c-3.1,1.6-6.5,2.8-9.8,4.1
	c-3.8,1.6-7.8,2.7-11.3,4.8c-2.7,1.5-5.7,2.5-8.9,2.9c-0.8,0.2-1.7,0.5-2.5,0.8c0-1.6,0.2-1.7,4.6-3.6l-1-1.3
	c1.1-0.4,2.1-0.9,3.1-1.3c8.6-3,16.8-7,24.4-12c1.9-1.5,3.8-3.2,5.5-4.9c0.6-0.4,1.1-0.8,1.7-1.1c1,2.7-2,3.1-2.4,5.3l12.6-9.2
	l-0.4-0.6c-1.4,0.5-2.7,1.1-4.1,1.6c-2.5,0.9-5,1.7-7.4,2.7c-1.9,0.8-3.6,2-5.5,2.9c-2.6,1.3-5.4,2.4-8,3.6
	c-1.2,0.6-2.4,1.3-3.6,1.8c-1.3,0.4-2.6,0.6-4,0.8c0.8-1.5,1.4-2.8,2.2-4.4l-5.8,3.7l1.8,1.4c-1.6,5.1-6.4,5.7-10.2,7.5
	c-4.2,1.9-8.5,1.7-12.9,0.2l1.6-0.5c-0.9-1.1-2.8-0.4-3.3-2.1c-0.4-2-0.2-4.2,0.6-6.1c0.9-2.8,2.9-3.2,5.4-3.2
	c4.3-0.1,8.6-0.4,12.5-0.6L198.6,224.8L198.6,224.8z M144.4,168.4c-0.7,3.2-1.5,6.3-2.2,9.5l0.6,0.1c0.7-2.9,1.5-5.8,2.1-8.7
	C145,169,144.6,168.7,144.4,168.4l1.1-2c-2.9-0.2-3.4,0.1-4.3,2.8c-0.2,0.4-0.4,0.9-0.7,1.3l0.4-2.6l-0.3-0.1l-1.1,2.6v-2.3
	l-0.5-0.2l-1.7,3.6l-0.2-0.1l0.5-2.2c-3.1,4.6-2.8,6.9,0.6,9.1l2.4-8c-0.1,0.9-0.2,1.7-0.4,3.1l0.9-2.1l0.2,0.1
	c-0.1,0.9-0.3,1.8-0.5,3.2l1.1-1.2l-1,6.7c0,0.1-0.1-0.2-0.2-0.4l-0.3,0.1l0.5,1.9l0.9-0.1v-8.2l1.5-6.6
	C144,167.8,144.2,168.1,144.4,168.4z M150.4,159.9c-1.2,1.1-2.2,2.1-3.2,3.1c-0.1,0.2,0,0.7,0.1,1s0.6,0.7,0.7,1.1
	c1,3.8,2,7.6,3.1,11.4c0.3,1.2,0.7,2.3,1.1,3.5l0.5-0.2c-0.1-0.7-0.1-1.4-0.2-2.1c-0.6-3.4-1.3-6.9-2-10.3c-0.1-0.9-0.4-1.7-0.8-2.5
	c-0.8-0.8-0.9-2-0.3-2.9C149.8,161.4,150.1,160.7,150.4,159.9L150.4,159.9z M200.2,227.6c-4.2-1.5-7.7,0.1-11.3,0.8l1,0.2l-0.8,1
	L200.2,227.6z M214,224.7l-1.1,0.7c1.1-0.1,2.3-0.3,3.4-0.6l3.6-0.8c0.5-0.1,0.9-0.2,1.4-0.3l-0.1-0.6l-9.5,0.7v0.5L214,224.7z
	 M189.1,234.4c3.8,0.2,6.5-2,9.3-4l-7.8,2.6l0.1,0.3l2.6-0.6l0.1,0.3L189.1,234.4z M219.8,222.1l0.3,0.5l4.7-1l-0.1-0.4l-2.7,0.3
	l-0.1-0.5l2.6-1.8l-0.4-0.5L219.8,222.1z M198.1,219.4c2.7,1.7,4,1.7,5.3,0.4L198.1,219.4z M297.9,202.7l0.3,0.5l6.4-4.6l-0.2-0.3
	L297.9,202.7z M299,187.1l0.4,0.4c0.7-0.8,1.3-1.6,2-2.3s1.5-1.3,2.2-2C301.2,183.4,300.3,185.4,299,187.1z M212.2,222l0.3,0.5
	l5.1-3.2l-0.3-0.4L212.2,222z M196.7,230.3l-0.1-0.6H192C193.6,229.7,195.1,231.6,196.7,230.3L196.7,230.3z M139.7,175.5
	c-0.8,1.4-0.9,3.2-0.2,4.7h0.5C140,178.5,139.9,177,139.7,175.5L139.7,175.5z M285.5,192.6c-2.7-0.2-2.8,1.8-4,3.5L285.5,192.6z
	 M203.5,220.6c1.2,1,2.4,1.4,3.6-0.4L203.5,220.6z"/>
<path class="st1" d="M120.4,199.8c-0.3,1.7-0.5,3.4-0.8,5.1l-0.6-0.1l0.4-3.6l-0.4-0.1l-0.9,2.7h-0.3v-9.9c-1.1,5-2.2,9.8-3.3,14.6
	h-0.3l1.8-10.9l-0.3-0.1l-0.7,1.8l-0.9-1.6v6.6h-0.7v-8.6h-0.2c-0.4,3-0.9,6-1.3,8.9c-0.4,0.6-1,1.2-1,1.8c-0.2,2.3-0.2,4.7-0.3,7.1
	H110l1.7-16.8l-0.5-0.1l-0.8,5.7h-0.3v-6.2h-0.2c-0.4,1.9-0.8,3.8-1.2,5.7c-0.1,0.4-0.1,0.9,0,1.3c1.6,2.3-0.4,4.4,0.2,6.7h-0.6V204
	h-0.3l-0.4,1.3h-0.5l-0.6-5.5l-0.2-0.1c-0.7,2.7-1.3,5.4-1.9,8.1l-0.5-0.1c0.4-2.2,0.9-4.3,1.3-6.5L105,201l-1,2.4v-2.1h-0.3l-1,3.2
	h-0.3v-3.2c-1.8,2.3-0.6,5.7-3,8.2l-0.8-5.9c-1.1,1.6-1.4,5.8-0.4,8.7l0.2-2.5l0.8,2c0.3-0.8,0.4-1.1,0.5-1.5c0.5,1.6,0.5,1.6,2,0.9
	l-1.5-0.3c1-0.9,1.8-1.6,2.6-2.3c0,0,0.4,0.2,0.4,0.4c0.1,0.2,0.1,0.5,0,0.7c-0.1,0.5-0.2,1-0.2,1.5l-1.5,10.7H101
	c0-0.7,0.1-1.3,0.1-2s0-1.6,0-2.4l-0.5-0.1l-0.9,3.7c-1.7-1.5-3.2-2.9-4.8-4.3c0.2,1.9,0.3,3.7,0.6,5.4c0.1,0.4,0.6,0.8,0.7,1.3
	c0.2,0.9,0.3,1.7,0.4,2.6c2.3,0.6,2.9,3.2,5,4.9c-3,0.1-6.5-1.9-7.4-3.9c-0.1-0.2-0.5-0.3-0.8-0.4c0.1-1.1,0.3-2.3,0.4-3.4l-0.7-0.1
	l-0.1,2.2l-0.8-0.2l-0.3,0.5l1.6,0.9c-1.1-0.2-2.1-0.5-3.1-0.9c-0.6-0.3-0.9-1-1.6-1.7l-0.5,1.8c-0.1,0-0.3,0-0.3-0.1
	c-0.9-2.3-1.3-4.7-0.2-7.1c0.5-1.1-0.1-1.9-1.2-2.4c-0.5-0.2-1-0.5-1.4-0.9c3,0.1,3.6,0.6,3.8,3.3l0.1-0.1c-1.4,1.1-1.7,3.1-0.7,4.6
	v-2.6c-0.9,2.8,1.8,3.4,3,5.2l1.2-3.1l-1.1,0.3l-0.6-5.6v0.1l2.7-3.7l0.5,0.3v-1.9h0.4l0.5,2.3l0.4,0.1l0.4-2.5
	c0.3,1.4,0.6,2.7,0.9,4c0.1,0.6,0.1,1.3,0.4,1.7c0.7,0.7,1.5,1.3,2.3,1.9l0.3-3.9c-0.4,0.4-0.6,0.5-0.7,0.7l-1.3,1
	c-0.2-0.5-0.3-0.9-0.4-1.4c-0.1-1-0.2-2.1-0.2-3.1s-0.1-2.1,0-3.1c0.1-1.7,0.3-3.4,0.4-5.2h-0.5l-1.1,7.6l-0.4-5l-1.6,0.4l0.6,1.4
	l-1.8,1.4c0.5-4.2,1-8.1,1.5-12c-2,4.9-2.1,10.1-2.6,15.3l-0.6-2.8l-2.4,2.1l-0.5-2h-0.3v3.1h-0.4l-0.3-2l-2.2,1.4L84,211h-0.3
	l0.2,3.1l-0.2,0.1c-0.3-0.8-0.6-1.5-0.8-2.3v-5.4h-0.6c0.1,1.8-0.6,3.6,0.6,5.4c0,0.2,0,0.4,0,0.6c0.4,1.2,0.8,2.3,1.1,3.5l-3.3-1.2
	l-0.2,1.4c-2.3-1.6-4.3-3.1-6.5-4.4c-1.3-0.8-1.1-1.7-0.5-2.7c2.3-3.7,4.6-7.4,7-11c1.2-1.5,2.5-3,3.9-4.3l0.8,0.6l-3.5,5.2
	c2.9-2.5,5.5-4.7,8.1-6.9c2.3-1.9,4.5-3.9,6.9-5.6c1.4-0.9,3-1.6,4.6-2.1c2.2-0.9,4.3-1.7,6.5-2.5c1.9-0.7,4.3-0.7,5.7-1.9
	c1.7-1.6,3.8-1.1,5.5-2c1.7-1.1,2.4-3.3,1.8-5.2c-0.1-0.4,0-0.8,0.2-1.2c0.4,2.9,3.2,4.2,4.3,6.8c0.8,1.8,2.9,2.9,4.4,4.4
	c3.9,3.8,8.9,5.9,13.5,8.6c3.3,1.9,6.4,4.3,9.5,6.4c1.5,0.9,3,1.8,4.5,2.8c4.1,3.4,8.1,6.9,12.1,10.5c0.4,0.4,0.4,1.2,0.7,2.1
	l-10-5.6c-1,1-1,1.7,0.1,2.3c1.3,0.7,2.7,1.3,4,2.1c1.3,0.7,2.6,1.6,3.8,2.5c1.6,1.2,2.8,2.6,1.4,4.8c-0.3,0.6-0.2,1.3,0.1,1.9
	c0.4-1.1,0.9-2.2,1.4-3.3l0.4,0.1c-0.4,1.7-0.9,3.3-1.3,5l0,0c-0.4,0.1-1.2,0.1-1.3,0.3c-1.2,3.5-2.3,7-3.4,10.4l-0.7-0.2
	c0.3-0.8,0.5-1.6,0.8-2.5c0.5-0.8,0.8-1.7,0.9-2.7c-0.1-3.3,2-6,2.1-9.3c-1.9,4.1-3.6,8.2-3.9,12.9l-0.6-0.2l0.3-1.8l-0.4-0.2
	l-2.6,5.8V231c0.7-0.4,1.4-0.6,1.7-1.1c0.1-0.2-0.4-0.9-0.6-1.4s-0.5-0.8-0.4-1.2c0.3-1.9,0.8-3.7,1.2-5.6l-0.7-0.2
	c-1,4.3-1.9,8.5-2.9,12.8l-0.4-0.1c0.4-1.4,0.8-2.9,1-4.3c0.1-0.4-0.4-0.9-0.6-1.4l0,0l2.2-7.4l-0.4-0.1l-1,2.1l-0.2-0.1
	c0.5-1.9,1.1-3.8,1.6-5.7c0.4-1.4,0.7-2.8,0.8-4.2c0-0.7-1-1.4-1.5-2.1l-0.7,0.5l0.8,1.5l0.5-0.2c-0.9,4.6-1.8,9.1-2.7,13.7h-0.2
	l0.1-3.3c-1.7,6.1-4,12-3.3,18.5c-0.5-2-1-4.1-1.5-6.1c-0.1-0.4,0-0.8,0.3-1.1l0.4,1l4.7-18l-0.4-0.2c-1.6,4.9-3.2,9.7-4.9,14.7
	l0.2-1.9l0,0l0.2-0.9c0.9-3.4,2.4-6.8,2.6-10.2c0.2-2.8,0.7-5.5,1.1-8.2c0-0.5-0.1-0.9-0.3-1.4h-0.6c-0.3,2.4-0.7,4.8-1.1,7.6
	l-1-1.2c1.5-4.5,1.6-5.1,0.2-6.3c-0.2,0.9-0.4,1.6-0.6,2.4s0,1.7-0.4,2c-1.9,1.4-1.1,3.5-1.7,5.2l0.5,0.1l1-4l1,0.6
	c-0.8,1.6-1.8,3.3-2.5,4.9c-0.3,0.8-0.5,1.7-0.5,2.6c-0.1,2.3-0.4,4.6-0.8,6.9v-5.8l-1.8,1.6v-12L149,214
	c-1.1,9.1-2.2,18.3-3.2,27.4h-0.1v-18.2l-0.5-0.1l-1,7.4h-0.2V227l-0.3-0.1c-0.4,1.6-0.9,3.3-1.2,4.9s-0.4,3.6-0.8,5.4v-6.5h-0.2
	l-0.6,6.4c-1.5-4.4,0.7-8.3,0.8-12.2l-0.8-0.1c-0.9,5.9-1.8,11.7-2.8,17.6c-0.8-4.6,1.5-9.1,0.7-13.8c-0.5,3.5-0.9,6.9-1.4,10.4
	l-0.3,0.1l-0.4-2.8h-0.4l0.5,9.7h-0.3l-0.9-9.5h-0.6c-0.1,1.6-0.2,3.2-0.2,4.8c0,1.1-0.2,1.6-1.6,1.1c0.1-2.9,0.3-6,0.4-9
	c-1.5,0.7-1.9,1.9-1.5,3.7c0.5,2.1,0.8,4.2-1.1,6.4c0-2.7-0.1-5.2,0-7.6c0.1-2.2,2-3.2,3.3-4.6c0.4-0.5,1-1,1.4-1.5l-0.4-0.4
	l-1.6,1.4l-0.3-0.2l6.3-8.9l-0.5-0.4l-1.2,1.6l0.5-1.9l-0.4-0.2l-2,4l-0.2-0.1c0.2-1.2,0.5-2.4,0.9-3.6c0.2-0.5,1.1-0.7,1.6-1.1
	s1.4-0.9,2-1.4l-0.4-0.5l-1.2,1.1l2.1-6l-0.6-0.2c-1,2.2-1.9,4.4-2.9,6.6l-0.4-0.2l3-7.5l-0.5-0.2l-4.1,8.5l-0.4-0.2l4.9-11.8
	l-0.4-0.2c-1.2,2.4-2.5,4.9-3.7,7.4l-0.3-0.1l2.9-6.6l-0.4-0.2l-2.6,5.5l-0.4-0.2c0.7-1.5,1.4-2.9,2-4.4c0.3-0.8,1-1.6-0.1-2.5
	c-0.3-0.2,0.3-1.4,0.2-2.3l-1.6,3.7l0.9-0.5c-0.2,2.8-3.9,4-2.9,7.3h-0.8c-0.1-0.6-0.1-1.1-0.1-1.7c0.7-1.8,1.6-3.6,2.3-5.4
	c0.2-0.7,0.4-1.4,0.5-2.1l-0.4-0.1l-3.4,8.2l-0.3-0.1c0.3-0.9,0.5-1.9,0.8-2.8c0.7-1.3,1.7-2.5,1.2-4c-0.6,0.8-1.3,1.6-1.8,2.4
	c-0.1,0.1,0.3,0.4,0.4,0.7s0.2,0.6,0.3,1l-1,1c-1.3-1-0.6-2.2-0.1-3.4c0.8-2,1.6-3.9,2.3-5.9l-0.6-0.2l-3.1,7.4
	c-0.7-1.4-0.6-1.7,0.4-2.8c0.3-0.3,0.1-1.1,0.1-1.6c0.2-1.1,0.2-2.2,0.1-3.4l-1,1.3c0.5-1.7,0.8-3,1.1-4.2
	c-1.7,3.5-5.1,6.1-4.5,10.6l-1-0.3c0.8-3.2,1.7-6.5,2.5-9.8h-0.2c-1,2.6-2,5.2-2.9,7.7l-0.3-0.2v-6.7l-0.2-0.1l-1.4,3.9l-0.2-2.6
	l-0.3-0.1L121,205l-0.6-0.2c0.3-1.1,0.6-2.3,0.8-3.5C121.2,200.8,122.2,199.5,120.4,199.8l1.7-8.5c-0.6,0.9-1.1,2-1.2,3.1
	C120.6,196.2,120.5,198,120.4,199.8z M98,188.3c-0.8,1.3-1.6,2.7-2.4,4.1l-0.3-0.1l0.9-2.5l-0.4-0.2l-4.7,5.6l-0.4-1.1l-1.2,1.6
	l-0.2-1.1l-0.3-0.1l-2.6,6.1c2,1,3.1-0.2,4-1c1-1,1.8-2.2,2.6-3.4c1.1-0.2,2.2-0.3,3.2-0.6c0.8-0.3,1.5-0.6,2.2-1
	c1.4-0.6,2.2-2.6,1.4-3.6C99.1,190.1,98.6,189.3,98,188.3z M110.6,193.2l0.3,0.1l1.3-3.4l-6.7,1.9c0.1-0.5,0.4-0.6,0.6-0.8
	c0.7-1,4.8,0.3,2.2-3.1c0,0,0-0.1,0-0.2c1.1-2.1-0.4-2.4-2-2.7l-1,1.8l-0.8,0.6l-1.4-1.3c-0.2,0.9-0.6,1.7-1.1,2.5
	c-1.4,2.2-1.2,2.9,1.3,4l-1.2,0.8l3.7,1.1c0.4-2.8,3.7-1.6,4.7-3.5l0.4,0.3L110.6,193.2z M113.4,182.7l-0.8-0.4
	c-0.6,1.2-1.2,2.5-1.7,3.7c-1,2.4-0.6,3.2,2,3c1.1-0.1,1.5,0.3,1.3,1.4c-0.1,0.7-0.2,1.3-0.2,2h0.5l0.7-4.6l-1.7,0.4
	c0.9-0.8,2-1.4,2.9-2.1c0.7-0.4,1.3-1.1,1.7-1.8c0.3-1.2,0.5-2.4,0.6-3.6l-3.2,5.3l-0.6-0.3l2-4.5l-0.3-0.2c-1.5,2-3.1,4-4.6,6
	l-0.3-0.2L113.4,182.7z M149.4,207.4L136.9,227c2.2-0.1,3.3-1.4,3.8-3.5c0-0.1,0.1-0.1,0.1-0.1c2.2-0.5,0.9-3.8,3.2-4.2
	c-0.4-2.5,1.8-3.9,2.6-5.8S148.3,209.6,149.4,207.4L149.4,207.4z M84.8,198.8l-8.7,9.9l0.6,0.7c0.6-0.3,1.3-0.6,1.8-1
	c1.5-1.4,2.9-2.9,4.3-4.4c0.1-0.1,0.1-0.1,0.2-0.2c1.4-0.3,1.6-0.3,1.7-1.1C84.9,201.3,84.9,200,84.8,198.8L84.8,198.8z
	 M150.4,203.9v-6.4c-0.3,1.8-0.2,3.7-0.3,5.5c-0.1,1.6,0.7,3.2,2.2,3.9l6.4,2.4c0.7-1.1,0.4-1.8-1.6-2.7
	C155,205.6,152.7,204.8,150.4,203.9L150.4,203.9z M150.2,225.2c0.2-0.6,0.2-1,0.3-1.2c2.4-2.4,0.1-5.5,1.2-8.1
	c0.2-0.9,0.3-1.8,0.1-2.8c0-0.6-0.1-1.1-0.2-2C150.5,212.6,149.7,220.5,150.2,225.2L150.2,225.2z M144.4,208.7l0.3,0.1
	c0.6-2,1.3-3.9,1.8-5.9c0.1-0.5-0.1-0.9-0.5-1.2c-0.5-0.1-0.9,0-1.3,0.4c-0.7,1.8-1.2,3.6-1.8,5.3l0.6,0.2l1.4-4.6l0.5,0.2
	L144.4,208.7z M140,196.4c0.2,1.2,0.2,2,0.4,2.8c0.1,0.5,0.5,1,0.4,1.4c-0.5,2-1.2,4-1.8,6l0.5,0.2c0.7-2.3,1.4-4.7,2.2-7
	C142.1,198.5,141.9,197.4,140,196.4L140,196.4z M96.2,196.9l-0.7-0.2c-1,3-1.6,6.2-1.5,9.4l0.5,0.1L96.2,196.9z M120.2,186.4
	c-2.3,0.4-4.1,5.5-3.2,8.8c0.7-2.7,1.3-5.3,1.9-7.9l0.4,0.1l-0.1,1.5h0.2L120.2,186.4z M146.8,200c-0.1-0.6-0.1-1.6-0.4-1.7
	c-2-0.7-2.5-2.2-2.5-4.1c-0.1-0.5-0.2-0.9-0.3-1.3C143.6,195.8,142.3,199.1,146.8,200z M163.3,228.7l0.6,0.2l2.9-9.5l-0.6-0.2
	L163.3,228.7z M123.2,194l0.4,0.1c0.5-2,1-4,1.4-6.1c0-0.4-0.1-0.9-0.2-1.3c-0.3,0.4-0.9,0.7-0.9,1.1
	C123.6,189.8,123.5,191.9,123.2,194z M113.8,189.3c-1.6,1.5-2.1,4.6-1.4,7.4C113,194,113.3,191.9,113.8,189.3L113.8,189.3z
	 M99.3,212c-2.2,0.9-1.7,2.5-1.4,4.1C99.5,215,100.3,213.9,99.3,212z M134.9,232.4l-0.6-0.1l-0.6,8.7l0.6,0.1L134.9,232.4z
	 M130.8,193.5l0.3,0.1l0.9-3.2l-2.2-1.4v3.1h0.3l0.5-1.2h0.3V193.5z M114.8,195.5h0.2c0.7-2.6,1.3-5.2,2-7.9
	c-0.3,0.3-1.2,0.7-1.3,1.2C115.3,191,115.1,193.2,114.8,195.5L114.8,195.5z M154.2,201.9l-0.5-0.1l-0.3,1.2h-0.3v-3.8
	c-1.2,2.6-0.6,4.9,1.2,5.3L154.2,201.9z M143.4,199.1c-2.2,1.6,0.8,2,0.2,3.3l2-1.6L143.4,199.1z M158,217.1l0.7,0.1l1-5.9l-0.8-0.1
	C158.6,213.1,158.3,215.1,158,217.1L158,217.1z M80.1,208.2c-1,2.3-0.6,4.1,1.1,5.4L80.1,208.2z M141.2,191.7l-0.4,4.5
	C142.9,193.2,142.9,192.9,141.2,191.7L141.2,191.7z M86.9,203.6h-0.5c-0.9,2-1.1,4.2-0.3,6.3L86.9,203.6z M122.5,201.2l0.8,0.1
	l1.6-6.4l-0.5-0.1L122.5,201.2z M126.8,193.1h0.5c0.2-1,0.5-2,0.6-3s1-2-0.2-3.2L126.8,193.1z M97.4,199.1l-0.5-0.1l-1.2,4.8
	l0.7,0.1L97.4,199.1z M135.1,197.7c2-3.6,2-3.6,0.9-4.3L135.1,197.7z"/>
<path class="st1" d="M137.6,258.8l0.8-1.3l-1.6-0.1l0.1-0.7c3.3,0.3,6.7,0.6,10,0.8c5.2,0.3,10.3,0.5,15.5,0.7
	c5.4,0.2,10.7,0.4,16.1,0.3c3-0.1,6-0.4,8.9-1c11-2.1,21.2-6.4,31.4-10.9c6-2.7,12.3-4.7,18.4-7c2.2-0.8,4.3-1.8,6.4-2.6l0.2,0.4
	c-2.6,1.1-5.1,2.2-7.8,3.3c-4.9,2-9.7,3.9-14.6,5.8c-1,0.4-1.9,1.2-3,1.6c-0.7,0.2-1.5,0.4-2.3,0.5c0,0-0.1,0.5-0.3,0.6
	c-5.3,2.5-10.5,5.2-15.9,7.3c-2.9,1.1-6.3,1.2-9.4,1.9c-7.7,1.6-15.5,2.9-23.4,2.8c-7.7-0.1-15.4-0.4-23.1-0.8
	c-3.3-0.1-6.5-0.6-9.7-1.4c-4.3-1.2-8.6-2.6-12.7-4.4c-3.8-1.5-7.5-3.4-11-5.5c-5.7-3.5-11-7.6-15.7-12.3c-2-2.1-3.9-4.4-5.8-6.6
	l0.5-0.5c0.3,0.1,0.7,0.2,0.9,0.4c3.2,4.3,8,6.2,12.4,8.7c6.5,3.7,13,7.5,19.7,10.9c3.8,2,7.9,3.3,11.9,4.9c0.8,0.3,1.5,0.6,2.3,0.9
	l-0.2,0.5l-13.6-4.4L123,252c3.6,1.2,6.6,4.1,10.8,3.8h-5.9c1.2,0.6,2.5,1.1,3.9,1.5c1.5,0.1,3.1,0.1,4.6,0l-2.5,0.8L137.6,258.8
	l10.4,0l-0.1-1L137.6,258.8z M108.3,245.5c1.8,3,13.3,9.3,16,8.2c-1.3-0.5-2.3-1-3.5-1.4c-5.5-1.7-10.4-4.4-13.4-9.6
	c-0.6-0.8-1.4-1.5-2.3-1.9c-0.6-0.4-1.5-0.4-2-0.9c-1.4-1.5-3.2-2.5-5.2-2.9c1,1,2.1,1.9,3.2,2.7c0.4,0.3,1.3,0.2,1.3,0.4
	c0.4,2.4,2.7,3.3,3.9,4.9C106.5,245.4,107.4,245.3,108.3,245.5z M111.2,245.1l-0.3,0.5l7.1,4.1l0.3-0.6L111.2,245.1z M150,259.7v0.5
	l8.9-0.4v-0.6L150,259.7z"/>
<path class="st1" d="M170.8,243.6c-1.1,1.9-2.7,3.6-3.3,5.7c-0.5,1.8-1.8,2.6-2.7,3.8c-1.1,1.7-3.1,2.5-5.1,2.2l-0.1-1.6l-1.4,0.6
	l-1.5-4l-0.6,0.2c-0.7,1.3,0.1,2.2,1.2,3.3l-1.9,0.1l1.5,1.1l-0.2,0.5c-1.3-0.4-2.6-0.8-3.9-1.1c-0.2-0.1-0.6,0.2-0.8,0.2
	c-1.1,0-2.2-0.1-3.3-0.2c0.2-0.5,0.3-1.1,0.4-1.7c0-0.5,0-1.1,0-1.6c0-1.1-0.1-2.3-0.1-3.4h0.6c0.1,0.8,0.1,1.6,0.2,2.4
	s0.3,1.6,0.5,2.5l1.8,0.7l-0.9-4.3l0.4-0.1c0.5,1.5,1,2.9,1.4,4.4l0.4-0.1l-0.8-4.9l0.5-0.1l0.4,2.7l0.3,0.1c0.4-1.4,0.7-2.8,1-4.2
	h0.4v3.1l0.7,0.1c0.1-0.9,0.1-1.9,0.2-2.8l0.3-0.1c0.2,1.2,0.5,2.4,0.9,3.6c0.4,0.9,0.4,2.5,2,2.1l-2.1-6.6l0.4-0.1
	c0.7,2,1.4,4,2.1,6h0.7c0.1-0.8,0.3-1.7,0.4-2.5c0.2-1.8,0.5-3.4,2.2-4.4c0.6-0.3,0.8-1.2,1.2-1.8c0.5,0.8,1.6,0.4,2.5-1.2l-1,0.6
	l-0.5-1.2h-0.9l2.2-4.6c-0.3,1.2-0.7,2.3-1,3.5l0.3,0.1c0.4-0.9,0.9-1.8,1.3-2.7l0.4,0.1c-0.3,1-0.6,2.1-0.9,3.1l0.5,0.1
	c0.8-2,1.6-4,2.6-6.1l-1.5,0.4l1.6-3.6l-0.3-0.1l-3,5.2l2.5-6.4l-1.3-0.3l0.1,0.1c0.6-2.3,1.3-4.5,2-6.8l0,0c0,0.2,0.1,0.5,0.2,1.3
	c0.5-0.9,1-1.8,1.4-2.8c0.4-1.3,1.5-1.7,2.4-0.6c1,1.3,2.2,2.4,1.5,4.5c-0.4,1.2,0.2,2.7,0.4,4.1h0.6l0.4-2.7
	c0.6,1.5,0.7,3.1,0.2,4.6c-1,3.2-2.3,6.4-3.7,9.5C172.9,242.5,171.7,243,170.8,243.6L170,243l0.4-2.7l-0.4-0.1l-1.1,4.3L170.8,243.6
	z"/>
<path class="st1" d="M109,231.3v0.6l8.8,2l-3.3-3.8l0.2-0.2c1.2,1.2,2.5,2.4,3.7,3.7c0.2,0.3-0.1,1-0.2,1.6l1.3-0.1v1.4l0.3,0.1
	l1.2-2.9l0.4,0.1l-0.7,4.6l0.3,0.1l1.6-4.3l0.3,0.1l-0.2,2.4l0.3,0.1l1.2-2.9v2.6l1.4-1.1c0.3,2.2-3.5,1.5-2.5,4.3l3.9-3.2
	c-0.2,0.9-0.4,1.4-0.5,1.9c0.5,0.7,3-1.2,3-2.3c0-0.4-0.1-0.7-0.1-1.1h0.7c0.1,1.6,0.1,3.2,0.1,4.9c0.1,1.7,0,3.3-0.3,5l-0.6-6.4
	H129l-0.6,4.3H128l-0.6-1.9v4h0.4l0.4-1.6c1.1,2.3-0.2,5.8,3.9,5.9c-3.2-0.7-6.1-2.1-8.6-4.1c-2.2-1.6-4-3.9-6.4-4.7
	c-3.2-1.1-5-3.4-7.1-5.6c-0.8-0.9-1.8-1.9-1.5-3.2L109,231.3z"/>
<path class="st1" d="M114.5,176.6c-2,1-3.9,2.4-6.1,2.9s-3.5,1.8-5.3,2.5c-1.5,0.6-2.9,1.2-4.4,1.9c-0.2,0.1-0.5,0.1-0.6,0.3
	c-0.8,1.5-2.5,1.7-3.8,2.6l-6.2,4.2c3.2-6,8.1-10.4,13-15.2l-1-0.4l2.8-1.9l-0.7,1.2l2.1,1l-6,4.9l0.2,0.5l15.6-5L114.5,176.6z"/>
<path class="st0" d="M137.9,183.8c-1.2-0.9-2.3-1.9-3.3-3.1c-1.3-1.8-2.4-3.7-3.2-5.8c-0.2-0.6,1.3-1.8,2.2-3.1
	c0.3,0.9,0.4,1.3,0.5,1.7c0.4,1.1,0.5,2.4,1.3,3.1c3.1,3.1,6.3,6.1,9.4,9l0.2-1.8l0.6,4.5l-6.4-3.2L137.9,183.8z"/>
<path class="st1" d="M144.7,252.8c0.6,1.8-1.2,0.2-1.4,1l-8.1-2.5v-0.3l1.2-0.2l-2.1-2.5l0.4-0.4l1,1.4l0.3-0.1l-0.4-2.3l1.5,2.1
	l-0.2-1.7c0.2,0,0.3-0.1,0.4,0c1.1,1.2,2.5,2.3,2.9,4.1c0.1,0.5,1.4,0.8,2.3,0.8l-2.3-1.9l0.3-0.4l1.8,1.2l-0.6-4.3h0.3
	c0.5,1.6,0.9,3.3,1.6,4.8c0.2,0.5,0.9,0.8,1.4,1.1L144.7,252.8z"/>
<path class="st1" d="M159.2,173.7c5.4,7.2,8.2,15.6,10.3,24.3C166.8,189.6,164.2,181.1,159.2,173.7z"/>
<path class="st0" d="M286.5,211.8l-0.6-0.3c0.7-1.5,8.1-5.4,10-5.3c-2.1,1.3-4.2,2.6-6.3,3.9C288.6,210.7,287.5,211.2,286.5,211.8z"
	/>
<path class="st1" d="M267.4,222.6l-0.2,1.4l-10.8,6.2l-0.2-0.4L267.4,222.6z"/>
<path class="st1" d="M88.9,218.7l1.5-3.2l0.5,2.1v-0.1c-0.1,1.6-0.2,3.1-0.4,4.6c-0.1,0.4-0.3,0.8-0.6,1.1c-0.3-1.7-0.6-3.1-0.9-4.6
	L88.9,218.7z"/>
<path class="st1" d="M154.1,230.4c-0.6,1.4-1,2.9-1.2,4.5c-0.2,2.8-0.1,5.6-0.1,8.5v-6.2c-0.1,0-0.2,0-0.3,0
	c-0.1,0.2-0.2,0.4-0.7,0.4c0.4-2.1,0.9-4.3,1.4-6.4C153.2,230.8,153.8,230.7,154.1,230.4L154.1,230.4z"/>
<path class="st1" d="M149.4,240.3V228h0.4v12.3H149.4z"/>
<path class="st1" d="M144.3,234.1l0.2,0.8l0.5-1.4c-0.2,3.5-0.3,6.4-0.5,9.4h-0.2L144.3,234.1z"/>
<path class="st1" d="M128.8,229.1c2.2-2.2,2.2-5.8,4.8-7.8l0.6,0.5l-1.5,0.7l0.4,0.2l-3.6,6.8L128.8,229.1z"/>
<path class="st1" d="M184,211.4c-3.3,0-9.3-4.5-9.9-7.7C176.4,207.8,180.4,209.4,184,211.4L184,211.4z"/>
<path class="st1" d="M133,229.5l-5.7,6.6c0.4-3.6,4-4.5,5.1-7.2L133,229.5z"/>
<path class="st1" d="M159.4,228.7c0.1,0.4,0.2,0.7,0.1,1.1c-0.9,2.9-1.8,5.9-2.8,8.8C156.5,234.9,158.4,231.9,159.4,228.7
	L159.4,228.7z"/>
<path class="st1" d="M152.8,161.2c0.5,0.8,0.8,1.6,1,2.5c-0.1,2.9,1,5.8,3.1,7.8c-2-1-3.3-2.9-3.5-5.1c-0.1-1.7-0.5-3.3-0.7-5
	L152.8,161.2z"/>
<path class="st1" d="M115,210.1c0.6-2.3,1.1-4.3,1.6-6.4C117.7,205,116.9,208,115,210.1z"/>
<path class="st1" d="M94.1,180.6l-6.5,7.7C87.8,186.5,90.6,183.1,94.1,180.6z"/>
<path class="st1" d="M102.6,221l0.3-3.4h0.4l-0.2,2.8l0.5,0.1l1.2-4.1l0.6,0.2c-1.5,1.2,0.2,3.7-1.9,4.6L102.6,221z"/>
<path class="st1" d="M144.8,252.9l-1.5-7l0.5-0.1c0.5,2.1,1.1,4.3,1.6,6.4C145.3,252.4,144.9,252.7,144.8,252.9L144.8,252.9z"/>
<path class="st1" d="M296.4,206l3.8-2.3l2.7-1.4c-1.7,1.2-3.5,2.5-5.2,3.6C297.3,206.1,296.8,206,296.4,206z"/>
<path class="st1" d="M167.9,230.3c0.7,2.6-1.5,3.9-2.2,5.9l-0.5-0.2C166.1,234.1,167,232.3,167.9,230.3L167.9,230.3z"/>
<path class="st0" d="M302.8,202.3l-2.7,1.4c0.9-1.1,1.9-2.1,2.9-3c0.3-0.2,1.1,0.1,1.7,0.2L302.8,202.3z"/>
<path class="st1" d="M154.8,221.2l-1.2,6.8l-0.4-0.1l1-6.8L154.8,221.2z"/>
<path class="st1" d="M142.4,241l0.5-8.7h0.5l-0.6,8.7H142.4z"/>
<path class="st1" d="M145.5,246.7l1.2,5.6C145.3,250.8,144.8,248.7,145.5,246.7z"/>
<path class="st1" d="M126.5,228.9l2.3-5.6l0.4,0.2l-2.1,5.7L126.5,228.9z"/>
<path class="st1" d="M198.7,224.7c-0.5,0.3-1,0.5-1.6,0.6c-1.8,0.1-3.6,0-5.3,0v-0.6L198.7,224.7L198.7,224.7z"/>
<path class="st1" d="M140.3,243.4l-0.7-6l0.5-0.1c0.2,2,0.4,4,0.6,6L140.3,243.4z"/>
<path class="st1" d="M107,224.8l3.6,1.7l-0.3,0.6l-3.7-1.7L107,224.8z"/>
<path class="st0" d="M123.5,165.9c-0.2-1.3-0.8-2.5-1.6-3.6c-1-1.2-1-3.3-1.5-4.9c-0.2-0.6-0.4-1.2-0.6-1.8c-0.2-1-0.4-2-0.7-3.4
	l2.4,0.6c-1.8,2-1.8,2.2,1.4,7.8c0.5-1.2,0.4-1.1-0.2-2.8c-0.2-0.6,0.1-1.4,0.2-2.3l-1.5,0.8c-0.6-2.1,1-3.2,3.2-2.2
	c0.9,0.4,1.7,0.9,2.6,1.4l-2.6,3.6l0.4,0.2l4-4.7c-0.6,1.9-1,3.4-1.6,5.3c1-1.4,1.8-2.4,2.5-3.6c0.2-0.3,0-0.9,0-1.4h1.9l-1.5,2
	l0.2,0.2l1.2-1.1l-0.4,1.8l1.3-1.6l0.2,0.1l-1,3.4c1-1.2,1.6-2,2.3-2.8l0.3,0.3l-1.8,4l0.4,0.2l1.1-2l-0.2,4l1.4-2.7l0.2,0.1
	l-0.7,3.7l0.4,0.1l1.4-3.8l0.3,0.1l-0.4,3.3l1.5-0.1l0.6-2.6h0.3l-0.1,2.1l0.4,0.3l2.8-3.9l-0.4,1.4l1-0.5l-0.1,2l5.1-4.4l0.3,0.2
	l-2.9,3.6l0.2,0.2l1.7-1.3l0.3,0.2c-0.4,0.6-0.5,1.5-1.1,1.9c-2.6,1.9-4.8,4.3-8.3,4.9c-2.4,0.4-4.6,2.1-7.2,2.8l2.8-2.9
	c-1.4,0.3-2.5,0.9-3.6,0.8c-0.8-0.1-1.6-1.1-2.2-1.8c-0.6-0.9-1.1-1.8-1.6-2.8L125,165l5.8,7.1l3.5-2.2c-1.5,3.2-3.5,3.4-6.1,1.8
	C125.9,170.1,125.2,167.6,123.5,165.9L123.5,165.9z"/>
<path class="st0" d="M140.6,170.5l-2.4,7.9c-3.4-2.2-3.7-4.4-0.6-9.1l-0.5,2.2l0.2,0.1l1.7-3.6l0.5,0.2v2.3l1.1-2.6l0.3,0.1
	L140.6,170.5L140.6,170.5z"/>
<path class="st0" d="M150.4,159.9c-0.4,0.8-0.6,1.5-1,2.2c-0.6,0.9-0.5,2.1,0.3,2.9c0.5,0.7,0.8,1.6,0.8,2.5c0.7,3.4,1.4,6.9,2,10.3
	c0.1,0.7,0.1,1.4,0.2,2.1l-0.5,0.2c-0.4-1.2-0.8-2.3-1.1-3.5c-1-3.8-2-7.6-3.1-11.4c-0.1-0.4-0.5-0.7-0.7-1.1s-0.3-0.8-0.1-1
	C148.2,161.9,149.3,161,150.4,159.9z"/>
<path class="st0" d="M200.3,227.6l-11.1,2.1l0.8-1l-1-0.2C192.6,227.6,196.1,226,200.3,227.6z"/>
<path class="st0" d="M117.8,161.2c0.3,0.4,0.9,0.7,1,1.1c0.4,1.3,0.7,2.7,1,4.1c0.4,2.3-1.4,5.8-3.9,7.2c0.5-0.8,1-1.7,1.5-2.5
	c1.2-2.3,1.4-4.9,0.7-7.4c-0.2-0.8-0.2-1.7-0.2-2.6L117.8,161.2z"/>
<path class="st0" d="M144.4,168.4l-0.9-1.5l-1.5,6.6l0,0l-1.1,1.2c0.2-1.3,0.3-2.2,0.5-3.2l-0.2-0.1l-0.9,2.1
	c0.2-1.4,0.3-2.2,0.4-3.1l-0.1,0.1c0.3-0.4,0.5-0.8,0.7-1.3c0.9-2.7,1.4-3,4.3-2.8L144.4,168.4L144.4,168.4z"/>
<path class="st0" d="M214,224.7l-2.4-0.5v-0.5l9.5-0.7l0.1,0.6c-0.5,0.1-0.9,0.2-1.4,0.3l-3.6,0.8c-1.1,0.3-2.2,0.5-3.4,0.6
	L214,224.7z"/>
<path class="st0" d="M189.1,234.4l4.3-1.5l-0.1-0.3l-2.6,0.6l-0.1-0.3l7.8-2.5C195.6,232.4,192.9,234.7,189.1,234.4z"/>
<path class="st0" d="M144.4,168.5c0.2,0.3,0.6,0.6,0.5,0.8c-0.7,2.9-1.4,5.8-2.1,8.7l-0.6-0.1C143,174.7,143.7,171.6,144.4,168.5
	L144.4,168.5z"/>
<path class="st0" d="M219.8,222.1l4.3-3.3l0.4,0.5l-2.6,1.8l0.1,0.5l2.7-0.3l0.1,0.4l-4.7,1L219.8,222.1z"/>
<path class="st0" d="M198.1,219.4l5.3,0.4C202.1,221.1,200.8,221,198.1,219.4z"/>
<path class="st0" d="M297.9,202.7l6.5-4.5l0.2,0.3l-6.4,4.6L297.9,202.7z"/>
<path class="st0" d="M142,173.5v8.2l-0.9,0.1l-0.5-1.9l0.3-0.1c0.1,0.2,0.2,0.5,0.2,0.4C141.3,178.2,141.7,175.9,142,173.5
	L142,173.5z"/>
<path class="st0" d="M299,187.1c1.3-1.6,2.2-3.6,4.6-3.9c-0.8,0.7-1.5,1.3-2.2,2s-1.3,1.5-2,2.3L299,187.1z"/>
<path class="st0" d="M212.2,222l5.2-3.1l0.3,0.4l-5.1,3.2L212.2,222z"/>
<path class="st0" d="M196.7,230.3c-1.6,1.3-3.2-0.6-4.8-0.6h4.7L196.7,230.3z"/>
<path class="st0" d="M139.8,175.5c0.1,1.5,0.2,3.1,0.3,4.6h-0.5C138.9,178.6,139,176.9,139.8,175.5z"/>
<path class="st0" d="M285.6,192.6l-4,3.5C282.7,194.3,282.9,192.3,285.6,192.6z"/>
<path class="st0" d="M203.6,220.5l3.6-0.4C206,221.9,204.8,221.5,203.6,220.5z"/>
<path class="st0" d="M98,188.3c0.7,1,1.1,1.9,1.7,2.6c0.7,1,0,2.9-1.4,3.6c-0.7,0.4-1.4,0.7-2.2,1c-1,0.3-2.1,0.4-3.2,0.6
	c-0.7,1.2-1.6,2.4-2.6,3.4c-0.9,0.8-1.9,2-4,1l2.6-6.1l0.3,0.1l0.2,1.1l1.2-1.5l0.4,1.1l4.8-5.6l0.4,0.2l-0.9,2.5l0.3,0.1
	C96.4,191,97.2,189.7,98,188.3z"/>
<path class="st0" d="M110.6,193.2l0.3-2.1l-0.4-0.3c-1,2-4.3,0.7-4.7,3.5l-3.7-1.1l1.2-0.8c-2.5-1.1-2.7-1.7-1.3-4
	c0.5-0.8,0.9-1.6,1.1-2.5l1.4,1.4l0.8-0.6l1-1.8c1.6,0.3,3,0.6,2,2.7c0,0,0,0.1,0,0.2c2.5,3.4-1.5,2.1-2.2,3.1
	c-0.2,0.2-0.5,0.3-0.6,0.8l6.7-1.9l-1.3,3.4L110.6,193.2z"/>
<path class="st0" d="M113.4,182.7l-1.7,4.3l0.3,0.2c1.6-2,3.1-4,4.6-6l0.3,0.2l-2,4.4l0.6,0.3l3.2-5.3c-0.1,1.2-0.3,2.4-0.6,3.6
	c-0.4,0.7-1,1.4-1.7,1.8c-0.9,0.7-1.9,1.2-2.9,2.1l1.7-0.4l-0.7,4.6h-0.5c0-0.7,0.1-1.3,0.2-2c0.2-1.1-0.1-1.5-1.3-1.4
	c-2.6,0.2-3.1-0.6-2-3c0.5-1.2,1.1-2.5,1.7-3.7L113.4,182.7z"/>
<path class="st0" d="M149.4,207.4c-1,2.2-1.9,4.1-2.7,6s-3,3.3-2.6,5.8c-2.3,0.4-1,3.7-3.2,4.2c-0.1,0-0.1,0.1-0.1,0.1
	c-0.5,2-1.6,3.4-3.8,3.5L149.4,207.4z"/>
<path class="st0" d="M84.8,198.8c0.1,1.3,0.1,2.5,0,3.8c-0.1,0.9-0.3,0.9-1.7,1.1c-0.1,0-0.1,0.1-0.2,0.2c-1.4,1.5-2.8,3-4.3,4.4
	c-0.6,0.4-1.2,0.7-1.8,1l-0.6-0.7L84.8,198.8z"/>
<path class="st0" d="M150.4,203.9c2.4,0.9,4.6,1.7,6.8,2.7c2,0.8,2.3,1.6,1.6,2.7l-6.4-2.4c-1.5-0.7-2.4-2.3-2.2-3.9
	c0.1-1.8,0-3.6,0.3-5.5V203.9z"/>
<path class="st0" d="M150.2,225.2c-0.5-4.7,0.3-12.5,1.6-14c0.1,0.9,0.2,1.4,0.2,2c0.1,0.9,0.1,1.9-0.1,2.8
	c-1.1,2.6,1.2,5.7-1.2,8.1C150.4,224.2,150.4,224.6,150.2,225.2z"/>
<path class="st0" d="M89,218.6c0.3,1.5,0.6,2.9,0.9,4.6c0.3-0.3,0.5-0.7,0.6-1.1c0.2-1.5,0.2-3.1,0.4-4.6c0.2,1.9,0.4,3.7,0.6,5.6
	l1.1-0.3l-1.2,3.1c-1.2-1.7-3.9-2.4-3-5.2v2.6C87.3,221.7,87.6,219.7,89,218.6z"/>
<path class="st0" d="M95.7,212.1l1.1-7.6h0.5c-0.1,1.7-0.3,3.4-0.4,5.2c-0.1,1,0,2.1,0,3.1s0.1,2.1,0.2,3.1c0.1,0.5,0.3,1,0.5,1.4
	l1.3-1c0.2-0.1,0.4-0.3,0.7-0.7l-0.3,3.9c-0.8-0.5-1.6-1.1-2.3-1.8c-0.3-0.4-0.3-1.1-0.4-1.7C96.3,214.8,96,213.4,95.7,212.1
	L95.7,212.1z"/>
<path class="st0" d="M155,216l-1-0.6l-1,4l-0.5-0.1c0.7-1.7-0.2-3.8,1.7-5.2c0.4-0.3,0.2-1.3,0.4-2s0.4-1.5,0.6-2.4
	C156.5,211,156.5,211.5,155,216L155,216z"/>
<path class="st0" d="M144.4,208.7l1.1-5.6l-0.5-0.2l-1.4,4.6l-0.6-0.2c0.6-1.8,1.1-3.6,1.8-5.3c0.3-0.3,0.8-0.5,1.3-0.4
	c0.4,0.3,0.5,0.8,0.5,1.2c-0.5,2-1.2,3.9-1.8,5.9L144.4,208.7z"/>
<path class="st0" d="M139.9,196.4c1.9,1,2.1,2.1,1.7,3.4c-0.8,2.3-1.5,4.7-2.2,7l-0.5-0.2c0.6-2,1.3-4,1.8-6
	c0.1-0.4-0.3-0.9-0.4-1.4C140.2,198.4,140.1,197.6,139.9,196.4z"/>
<path class="st0" d="M96.2,196.9l-1.7,9.3l-0.5-0.1c0-3.2,0.5-6.4,1.5-9.4L96.2,196.9z"/>
<path class="st0" d="M120.2,186.4l-0.8,2.5h-0.2l0.1-1.5l-0.4-0.1c-0.6,2.6-1.3,5.2-1.9,7.9C116.1,191.9,117.9,186.8,120.2,186.4z"
	/>
<path class="st0" d="M146.8,200c-4.5-0.9-3.3-4.2-3.1-7c0.2,0.4,0.3,0.9,0.3,1.3c0,1.9,0.5,3.3,2.5,4.1
	C146.8,198.4,146.7,199.4,146.8,200z"/>
<path class="st0" d="M163.3,228.7l2.9-9.5l0.6,0.2l-2.9,9.5L163.3,228.7z"/>
<path class="st0" d="M123.2,194c0.2-2.1,0.4-4.2,0.7-6.2c0.1-0.4,0.6-0.7,0.9-1.1c0.1,0.4,0.2,0.8,0.2,1.3c-0.4,2-0.9,4-1.4,6.1
	L123.2,194z"/>
<path class="st0" d="M113.8,189.2c-0.5,2.6-0.9,4.8-1.4,7.4C111.7,193.8,112.2,190.8,113.8,189.2z"/>
<path class="st0" d="M99.3,212c1,1.9,0.2,3.1-1.4,4.1C97.7,214.4,97.2,212.9,99.3,212z"/>
<path class="st0" d="M134.9,232.4l-0.6,8.7l-0.6-0.1l0.6-8.7L134.9,232.4z"/>
<path class="st0" d="M130.8,193.5v-2.5h-0.3l-0.5,1.2h-0.3V189l2.2,1.3l-0.9,3.2L130.8,193.5z"/>
<path class="st0" d="M114.8,195.4c0.3-2.2,0.5-4.5,0.9-6.7c0.1-0.5,1-0.9,1.3-1.2c-0.7,2.6-1.3,5.3-2,7.9L114.8,195.4z"/>
<path class="st0" d="M154.1,201.9l0.2,2.5c-1.8-0.4-2.4-2.7-1.2-5.3v3.8h0.3l0.3-1.2L154.1,201.9z"/>
<path class="st0" d="M143.4,199.1l2.3,1.6l-2,1.6C144.2,201.1,141.2,200.7,143.4,199.1z"/>
<path class="st0" d="M158,217.1c0.3-2,0.7-4,1-6l0.8,0.1l-1,5.9L158,217.1z"/>
<path class="st0" d="M80.1,208.1l1.1,5.4C79.5,212.2,79.1,210.5,80.1,208.1z"/>
<path class="st0" d="M141.2,191.6c1.7,1.3,1.7,1.6-0.4,4.5L141.2,191.6z"/>
<path class="st0" d="M120.4,199.8c0.1-1.8,0.2-3.6,0.4-5.4c0.2-1.1,0.6-2.2,1.2-3.1L120.4,199.8L120.4,199.8z"/>
<path class="st0" d="M86.9,203.6l-0.9,6.2c-0.7-2.1-0.6-4.3,0.3-6.3L86.9,203.6z"/>
<path class="st0" d="M122.5,201.2l1.8-6.4l0.5,0.1l-1.6,6.4L122.5,201.2z"/>
<path class="st0" d="M126.8,193.1l0.9-6.2c1.2,1.2,0.4,2.3,0.2,3.2s-0.4,2-0.6,3L126.8,193.1z"/>
<path class="st0" d="M97.4,199.1l-1,4.8l-0.7-0.1l1.2-4.8L97.4,199.1z"/>
<path class="st0" d="M135.1,197.8l0.9-4.3C137.1,194.2,137.1,194.2,135.1,197.8z"/>
<path class="st0" d="M82.9,211.8c-1.2-1.8-0.5-3.6-0.6-5.4h0.6L82.9,211.8L82.9,211.8z"/>
<path class="st0" d="M132.3,211.1c-0.1-0.3-0.2-0.6-0.3-1s-0.4-0.6-0.4-0.7c0.6-0.8,1.2-1.6,1.8-2.4
	C133.9,208.5,133,209.7,132.3,211.1L132.3,211.1z"/>
<path class="st0" d="M93.4,226.7l-1.6-0.9l0.3-0.5l0.8,0.2l0.1-2.2l0.7,0.1C93.6,224.4,93.5,225.6,93.4,226.7L93.4,226.7z"/>
<path class="st0" d="M108.3,245.5c-0.9-0.2-1.7-0.1-2-0.4c-1.3-1.7-3.5-2.5-3.9-4.9c0-0.2-0.9-0.2-1.3-0.4c-1.2-0.8-2.2-1.7-3.2-2.7
	c2,0.4,3.8,1.4,5.2,2.9c0.5,0.5,1.4,0.5,2,0.9c0.9,0.5,1.7,1.1,2.3,1.9c3,5.2,7.9,7.9,13.4,9.6c1.1,0.4,2.2,0.9,3.5,1.4
	C121.6,254.8,110.1,248.5,108.3,245.5z"/>
<path class="st0" d="M137.6,258.8l10.4-1l0.1,1H137.6z"/>
<path class="st0" d="M111.2,245.1l7.2,4l-0.3,0.6l-7.1-4.1L111.2,245.1z"/>
<path class="st0" d="M150,259.7l8.9-0.5v0.6l-8.9,0.4V259.7z"/>
<path class="st0" d="M166.7,237.1l3-5.2l0.3,0.1l-1.6,3.7l1.5-0.4c-0.9,2.2-1.7,4.1-2.6,6.1l-0.5-0.1c0.3-1,0.6-2.1,0.9-3.1
	l-0.4-0.1c-0.4,0.9-0.9,1.8-1.3,2.7l-0.3-0.1C166,239.3,166.4,238.2,166.7,237.1L166.7,237.1z"/>
<path class="st0" d="M170.8,243.6l-1.9,0.9l1.1-4.3l0.4,0.1l-0.4,2.7L170.8,243.6L170.8,243.6z"/>
</svg>
