<?xml version="1.0" encoding="utf-8"?>
<!-- Generator: Adobe Illustrator 22.0.1, SVG Export Plug-In . SVG Version: 6.00 Build 0)  -->
<svg version="1.1" id="Layer_1" xmlns="http://www.w3.org/2000/svg" xmlns:xlink="http://www.w3.org/1999/xlink" x="0px" y="0px"
	 viewBox="0 0 720 720" style="enable-background:new 0 0 720 720;" xml:space="preserve">
<style type="text/css">
	.st0{fill:#232323;}
	.st1{fill:#FFFFFF;}
</style>
<title>Artboard 1_1</title>
<path class="st0" d="M126.6,327.4c-1.9-2-4.1-3.8-5.6-6.1c-7.5-10.9-14.3-22.2-15.6-35.7c-1-10.9,3.9-19.9,11.7-27
	c8.6-7.9,17.6-15.3,26.9-22.2c13.5-10,28.1-15.4,45.4-10.1c12.4,3.8,25.1,6.4,37.7,9.3c23.1,5.2,40.9,18.7,56.6,35.6
	c7.2,7.8,15.8,13,25.4,17.1c21.9,9.3,43.6,19.2,65.5,28.4c14.1,5.9,28.5,11.1,42.8,16.6c1.7,0.6,3.3,1.4,5,2.1
	c-2.3-0.4-4.7-0.4-6.8-1.3c-24.7-10.2-49.5-20.5-74.1-30.9c-3.7-1.5-7.2-3.5-11-4.8c-21.2-6.8-40.4-16.5-55.6-33.6
	c-14.2-16-33.1-24.8-54-29.2c-10.9-2.3-21.7-4.9-32.4-7.8c-9.6-2.8-19.9-2.2-29.2,1.6c-12.5,4.8-20.6,14.9-30.5,23
	c-0.9,0.7-0.8,2.7-1.1,4.1l1.5-0.9l10.6,6.4c-0.1,0.2-0.1,0.4-0.2,0.7l-6.7-1.1l-0.3,1l4.7,2.6c-3.7-0.1-7.4-0.6-11-1.5
	c-4.8-1-6.9,2.8-9.1,5.5c-1.1,1.3-0.6,4.6,0.2,6.6c1.6,3.7,3.9,7.1,6.2,11.1c0.1-0.2,0.5-1.4,1-2.6l6.4,5.5l-0.5,0.5l-4.7-2.5
	c-0.8,5.5,4.3,7.2,5.2,9.2c-0.9,2.8-2.1,4.5-1.6,5.5c0.6,1.2,2.6,1.7,3.9,2.4l1.2-0.5c1,8,2.9,16,2.9,24c0,5.4,3.4,6.9,6.8,10.6
	c-0.4-3-0.6-4.9-0.8-6.9c6.4,1.8,7.4,6.7,8,11.9c0.2,1.6,0.7,3.2,1.7,4.5c0.6,0.8,2.2,1.1,3.4,1.3c0.4,0,1.4-1.2,1.3-1.7
	c-0.3-1-0.8-2-1.5-2.8c-1.7-2.7-3.4-5.3-5.1-8l1.5-1c4.3,5.8,14.4,4.6,15,14.5c7.2-6.7-1-12.4,1.3-18.6c1.9,5.5,3.8,11,6.2,17.8
	l2.7-5.7l12.4,16.5c1.1-2.4,1.6-3.4,2.4-5.2c3,5.2,3.5,12.7,11.3,10.5c2.5,1.8,4.7,4.2,7.4,5.2c3.4,1.2,6.9,1.7,10.3,3.5
	c12.6,6.7,25.5,13.1,38.6,18.7c16.2,6.9,32.8,12.8,49.1,19.5c5.3,2.2,10.2,5.6,15.1,8.3l1.2-3.5l1.6,0c-0.3,5.8-4.6,12.4,2.6,17
	l3.4-2.7l-3.9-1c1.6-4.3,3.2-8.3,4.7-12.4l1.6,0.6l-1.3,5.9l1,0.9l6.3-6.6l1,0.8l-3.3,6.1l1.1,0.9l8.6-6.6l0.9,1.1
	c-1.9,2-3.7,3.9-5.6,5.9l1.1,1.3l11-8.2l0.9,1.2L345,432.2c0.5,0.5,1,1.1,1.4,1.6l17.1-14.5l1.2,1.5c-2.6,2.1-5.4,4.2-7.9,6.5
	c-2.3,2.1-4.5,4.5-6.7,6.8l1.1,1.1c1.8-0.8,3.5-1.8,5.1-2.9c6.4-5,11.9-11.8,21.6-9.7l2,3.7l3.5-5c1.2,1.4,2.1,2.5,3.1,3.7
	c2-3.7,2.7-3.8,5.2-0.9c0.3,0.4,1.4,0,2,0.2c3,1,6,2.1,9.1,3.1l-1.6,3.2l1.3,0.9c1.4-1.9,2.9-3.8,5-6.6c1,2.3,1.9,4.3,2.9,6.5l3.3-4
	l12.2,23.6l-1.1,0.7l-6.6-11.6l-0.9,0.5l3.7,9.3l-1.1,0.4l-7-15.8l-1.3,0.5l4.5,11.4c-2.5-2.7-3.8-5.8-5.5-8.8
	c-0.4-0.6-1.8-0.7-2.8-1c0,0.9-0.3,1.9,0.1,2.6c1.1,2,2.4,3.8,3.4,5.2c-5.2,1.8-8.6-6.6-14.4-2l3.5-3.2c0-0.5-0.1-1-0.2-1.6
	c-1.3,0.1-3.5-0.2-3.8,0.4c-2,4.1-3.5,1.8-5.1-0.3l-7.1,4.7l4.8,7.3l-2.9,2.4c-1.5-1.9-3-3.9-4.5-5.8l-1.7,0.1c0,1.6-0.7,3.5,0,4.7
	c2.1,3.1,4.3,6.1,6.8,8.9l-0.7,0.6l-9.1-10.1l-1.2,1l8.7,11.9l-0.9,0.7l-9.7-12c0.3,5.6,6.5,7.4,4.3,13.4l-7.3-8.9
	c-2.2,1.8-3.9,3.1-5.8,4.8c0.7,1.3,1.6,2.9,2.4,4.4c-5.1,0.4-5.6-4.5-7.9-7.1c-3-3.5-2.9-3.6-5.9-0.3h-4.3l-1.9,7.8l4.8-4.4l3.6,6.1
	c4.3-4.5,8.5-3,11.1,3.3l1.4-0.2l-1-5.3l6.3,6.7c2.2-1.6,4.4-3,6.4-4.6c3.9-3,5,0.3,6.3,3.4l3.8-6.9l1.3,0.6l-2.4,6.2l1,0.5l9-14.6
	l0.9,0.6l-0.7,8.6l1-0.2l7.4-10.7l2.1,3.5c7.1-4.9,11.9-2.3,14.8,5.3l5.5-5.1l3.5,6.5l8.4-4.3c3.4,12.4,6-1.4,9.1,0.1
	c0.5,1.4,0.9,2.7,1.6,4.5l6.8-6.5c0.3,0.3,0.5,0.5,0.8,0.8c-0.5,1.4-0.9,2.8-1.6,4.9l5.2-2c-0.2,2-0.4,3.5-0.7,6.2l7-7.8l0.9,0.8
	c-0.5,1.4-1,2.7-1.5,4.1l0.8,0.5l4-5.5c3.1,5.7,4.9-1.6,7.9-0.5l-2.1,5.3c2.6-1.7,4.2-3.9,6.1-5.9s3.9-4,5.9-5.9l1.3,1.4
	c-1.4,1.4-3,2.8-4.2,4.3c-1,1.4-1.9,2.8-2.7,4.3l1.6,1l7.3-6.3c4.2,4.4,8.5,4,15.2-0.6c2.6,0.5,5.2,0.8,7.9,1
	c9,0.1,17.9,0.1,26.8,0.1c9.5,0.1,18-2.5,24.7-9.6c0.8-0.9,1.1-2.2,1.8-3.9l-10.8,4.8c2.8-4.1,4.8-9.7,11.6-5.8l6.4-11.7l-1.2-0.7
	l-8.9,8l-4.9-6.8l-1,0.7c0.5,1.4,1,2.8,1.9,5.1l-3.4-2.3l-7.8,6.5c-0.1-2-0.2-3.6-0.3-5.2l-1.9-1l-2.6,4.8l-5.5-3.6
	c-0.5,1.6-1.1,3.3-1.6,5l-2.3-1.3c-0.1,1.4-0.1,2.3-0.2,3.7l-6.7-7.1l-0.9,0.8c0.9,1.8,1.7,3.6,2.6,5.4l-0.4,0.2l-7.8-9l-1.4,1.2
	c2.7,4.4,5.3,8.7,8,13.1c-3.4-3-5.8-6.5-8.5-9.9c-0.6-0.7-2.2-1.5-2.7-1.1c-0.9,0.8-1.5,1.8-1.7,3c-0.2,0.8,0.5,1.8,0.9,3.1
	l-4.9-3.7c0.1,2,0.2,3.2,0.3,5.8c-2.1-2.8-3.3-4.6-4.6-6.4s-2.7-4.1-5.3-1c0.5,0.8,1,1.5,1.4,2.2s0.8,1.6,1.7,3.5
	c-5.1-4.9-5.1-4.9-7.8-3.1c0.9,1.5,1.8,3,2.6,4.5c-6.1-4.9-6.8-4.9-9.1,0.6c-3.2-3.2-5.2-8.2-11.5-7l6.4,9.5l-1.2,0.7l-7.2-9.4
	l-1.2,0.8c0.8,2,1.6,4,2.5,6l-0.6,0.3l-7.9-10l-0.8,0.5c0.7,2.1,1.4,4.1,2,6.2l-1.1,0.4c-1.2-1.9-2.4-3.7-3.6-5.6l-0.5,0.4l1.9,5.1
	l-0.7,0.2l-4.9-5.9l-1.7,1.4c1.3,8.7,12.1,9.7,16.1,17.7l-15.9-11.5l-0.8,1l6.1,6.7l-1,0.8l-12-11.2l6.6-1
	c-4.6-5.6-13.4-3-16.3-10.4h-5.6l15.9-6.7c0.4,4.7,2.9,4.3,6,3.2c4-1.4,8.1-2.6,13.2-4.3c-1.3,2.3-1.9,3.4-3,5.4l21.4-7.8v3.6
	l17.3,2.2c3.8-4.5,8.7-5.7,14.5-1.2c-0.2-2.2-0.2-3.5-0.4-5.6l8,5.9l1-0.9l-2.2-5.7l0.8-0.6l3.6,3.2c3.5-1.6,6.6-3.1,9.7-4.4
	c1.2-0.5,2.9-0.2,3.9-0.9c4.8-3.4,8.1-3,11.4,1.9c4.6-3.6-3.4-5.4-0.8-9.3l7.2,8.5l1.2-0.6c-0.8-1.9-1.7-3.7-2.7-5.5
	c-5.2-8.1-12.5-3.5-19.4-2.9c2.7-3,5.8-5.1,8.3-7.9c3.8-4.2,4.1-7.6,1.3-10c-3.8,6.9-8.6,12.6-15.7,16.3l9.3-9.7l-1-0.8L536,411.4
	l-0.9-1.1l8.1-6.8l-1.1-1.4L528,412.8l-0.9-1.2c2.2-1.7,4.5-3.3,6.6-5.1s3.8-3.8,5.7-5.7l-1.5-1.5c-0.9,0.7-1.8,1.4-2.7,2.1
	c-3.8,3.2-7.5,6.6-11.5,9.6c-1.1,0.8-3.1,0.4-4.8,0.6c-0.1-0.5-0.2-1-0.3-1.5l8.6-7.2c-5.2-5-10.1-6.7-13.6-4.3l8.4,4.5
	c-0.1,0.4-0.2,0.9-0.3,1.3c-4.7-0.4-7.5,7.4-13.5,2.6l4.9-6.3l-0.9-0.9l-8.1,4.7l-0.5-0.8l5-5.3l-0.5-0.3l-11.3,5.5l-0.6-1l2.2-2.1
	c-0.9-1.4-1.4-2.8-2.4-3.5c-1-0.7-2.2-1-3.4-0.8c-1.3,0.4-2.3,1.7-3,2.3c-3.3-1.1-6.1-1.9-8.9-3c-0.9-0.4-1.5-1.5-2.2-2.2l-2.4,3.4
	c-5.9-3.2-12.4-4.3-19.2-1.5c-1.9-5-3.9-5.3-9.7-0.7l7.7,11.7c-7-3.6-10.1-9.2-8.7-15.1l-9.5-6c0.9,2,1.4,3,1.8,3.9l-0.9,0.7
	l-8.6-6.7l0.9-1c8.3,3.2,16.7,5.8,23.2,1.7l16.4,2.9v3.7l6.4-5.4l1.8,3.7l14.3-5.3l-4.2,5.5l1,1.3l10.5-6.4c0.2,0.4,0.4,0.7,0.6,1
	l-3.8,4c5.3,4,6.4-4.1,10.3-2.9l2.6,3.3l3-3.6c4.8,0.7,9.7,0.7,14.5,0c3.7-0.5,7.2-1.9,10.8-2.9c4.3-1.2,9.1-1.1,12.4-5.2
	c-10.9-9.1-11.7-9.2-16.6-2.2l4,5.2c-5.1-2-7-8.1-13.6-6.5l3.5,4.9c-2.6-0.9-4.5-2.6-6.6-3.8c-1.5-0.8-3.6-1.2-5-0.7
	c-1,0.4-1.1,2.8-1.7,4.4l-9.4-7.6c-0.5,0.4-0.9,0.7-1.4,1.1l4.1,6.5l-0.5,0.4l-8.3-6.6L497,374l5.6,6.5l-0.5,0.5l-7.5-5.1l-0.7,0.9
	c0.3,1,0.6,2,1.1,3.8l-6.2-4.6c-1.9,0.8-4.4,2.3-4.7,2c-3.1-3.8-5.5-0.8-8.1,0.5c-3.5,1.7-7,4.8-9.9-0.9c-0.2-0.3-1.2-0.4-1.9-0.3
	c-4.3,0.6-8.6,1.3-13.1,2c0.2-2.2,0.3-2.9,0.4-3.7c-1.2,0.3-2.9,0.3-3.4,1c-2.9,4.3-5,3.1-7.8-1.8l12.4-4.6l-13.1-14l1.8-1.4
	c3.4,7,12.6,9.7,13,19.1l8.5-5c1,1.8,1.8,3.2,2.1,3.8c3.8-1.7,7-4.4,9.6-4c3.2,0.5,6.2-0.7,8.3-0.3c6.1,1.1,6.9-4.4,10.6-5.5
	c-5.4-5.9-10.2-11.2-15.2-16.4c-0.6-0.6-2.2-0.2-3.4-0.3l-0.6,1.1l11.4,13.2l-1.4,1.2c-4.1-5-8.1-10-12.2-14.9
	c-0.7-0.8-1.7-1.4-2.8-1.6c-11.3-2.2-22.6-4.2-33.8-6.5c-4.5-0.9-8.8-2.5-13.2-3.7c9.8,1.9,19.5,4.3,29.4,5.5
	c19.3,2.3,38.7,4,58.1,5.6c7.1,0.6,14.3,0,21.4,0.8c3.1,0.4,6,2,8.1,4.3c4.2,5.1,8,10.4,11.5,16c6,9.3,11.3,19.2,17.8,28.2
	c9.7,13.2,12.6,28,13.5,44c0.7,13.5-5.5,22-15,30.6c-13.3,12.2-28.1,18.1-45.9,18.3c-12.7,0.1-26-0.8-38.1,2.2
	c-22.6,5.5-45.1,5.5-67.9,3.5c-5.1-0.5-10.4-0.3-15.4-1.2c-12.4-2.1-24.8-4.8-37.2-7c-10.3-1.8-21.1-1.9-30.9-5.3
	c-14.4-4.9-28.2-11.8-42-18.3c-15.2-7.1-30.6-14-45.3-22.1c-11.2-6.1-21.5-13.7-32-21.1c-11.8-8.3-23.4-16.9-35-25.5
	c-0.3-0.2-0.4-0.9-0.6-1.3l-0.1,0.1l5.7,2l1.7-1.9c-2.3-1.6-4.5-3.2-6.8-4.7c-7-4.7-14.1-9.3-21-14.2c-2.6-1.7-4.8-4.1-6.3-6.8
	c-4-8.2-7.5-16.6-11-25c-3-7.1-12.7-20.3-17.9-23.5L126.6,327.4L126.6,327.4z M388.6,483.6l-5.9-3.4l-1,1l3.3,5.5l-0.7,0.4l-8.6-8.1
	l1.1,4.3l-1.2,0.8l-4.4-6.6l-1.1,0.8v1.9c-1.9-0.1-3.8-0.7-5.2-0.2c-4.6,1.8-8.2,0.5-11.3-3.2c-0.4,1.2-0.7,1.9-0.6,1.8
	c-2.6-0.6-4.8-1-6.9-1.6c-1.6-0.3-3.3-0.6-5-0.6c-4.2-0.5-8.4-2.2-12.3-4c-2.6-1.2-4.8-3.3-7.2-5c0.2-0.4,0.4-0.8,0.5-1.2l-4.7,1.2
	c1.1-1.5,1.9-2.6,3.4-4.7l-7.6,2.8c1.3-2,3.7-3,4.4-4.6s-0.5-4-1-7.4l9,6.7c3.8-2.1,8,0,12.2,3.9c1.8-4,4.1-1.5,6.1-0.4
	c3.5-2.5,3.8-5,1.6-8.3s-3.8-6.6-5.9-9.8c-0.6-0.9-2.2-2.3-2.7-2.1c-4.7,2.2-5.2-1.5-6.6-4.2c1,1,2.1,1.9,3.3,2.7
	c0.9,0.2,1.8,0,2.5-0.6c0.3-0.8,0.3-1.7-0.1-2.5c-1-1.5-2.1-2.9-3.2-4.2l-2.2,4.7l-5.1-5.8l-0.8,0.7l5.2,10.3L329,445l-7.5-9.1
	l-1,0.8c1.8,2.4,3.9,4.6,5.3,7.2c1.3,2.5,2,5.3,2.9,8l-1.5,0.6l-4.9-4.4c-0.3,1.5-0.5,2.6-0.8,4.4c-1.6-2.1-2.7-3.5-3.8-4.9
	c3.2-0.5,2-2.6,1-3.9c-2.4-3.2-5.1-6.2-7.6-9.3l-1.5,0.9c0.8,2.1,1.9,4.1,3,6.1c1.7,2.2,3.4,4.4,5.3,6.4l-4.8-2.9
	c0.2,2.2,0.4,4,0.7,7.2c-3.9-5.3-1.6-13.6-10.4-13.3c1.6,5.6,3.2,11.2,4.9,16.8l-1.5,0.5c-1-2.9-1.7-5.9-3.1-8.6s-3.4-5-5.1-7.4
	l-1.4,0.7l2.6,9.1l-7.5-10l-0.9,0.5l0.4,4.5c-3.4-14.9-17.8-22.1-23.8-35.1c3.6,11.1,12.1,19.2,17.8,29c-2.7-2.4-4.7-5.3-7.1-7.9
	c-1.1-1.2-2.8-1.7-4.3-2.5c-0.4,1.4-0.9,2.7-1,3.2l-10.2-13.8l-1.6,1c1.4,3.4,2.8,6.8,4.2,10.4c-3.2-3.3-6-6.3-9-9.2
	c-0.7-0.6-1.6-0.8-2.4-0.5c-0.7,0.6-1.1,1.4-1.2,2.3c0,0.9,0.2,1.7,0.5,2.6l-10.3-10.4c0.5,2.9,0.7,4.2,0.9,5.6
	c-2.6-8.3-6.1-15.9-13.5-21.3l8.6,12.3l-4.9-2.8c0.9,2.6,1.6,4.6,2.2,6.6l-1.9,0.8c-1.1-2.2-2.7-4.3-3.3-6.6
	c-2-7-5.5-13.6-10.1-19.2l-1.4,0.8l8.6,13.8l-1,0.9c-1.6-1.3-4-2.2-4.7-3.9c-1.5-3.7-3.3-6.3-8.4-6c1.4,2.7,2.6,5.2,3.9,7.6
	l-1.6,0.7c-1.3-2.7-2.8-5.4-4-8.2c-1.3-3.2-2.2-6.8-7-6.3c0.1,1.4,0.2,2.6,0.4,5.4l-8-11.7v7l-1.5,0.8l-14.3-23l-0.8,0.3l1.4,9.3
	l-1.2,0.2l-7.4-12.7l-1.6,0.9c2.3,4.2,4.7,8.4,7,12.6l-0.8,0.5l-6-8.6l-1.4,1.1l15.9,22.2l1.1-0.6c-0.2-1.7-0.4-3.5-0.8-6.2
	c2.6,4.4,4.6,7.7,7,11.6l1.8-3.5l6,10.7l1.2-0.6c-0.3-1.8-0.7-3.7-1.1-6.1l9.4,15.5l-0.4,0.5l-6.2-4.4l-0.9,1.1
	c0.7,0.8,1.4,1.6,2.2,2.3c20.6,14.4,41.4,28.5,64.6,38.6c9.1,4,17.8,10.4,29.1,6.3l0.3,1.9l-6,2.8c6.8,3.3,13.4,6.7,20.2,9.8
	c14.2,6.5,29.2,9.4,44.8,11.1c16.8,1.8,32.9,8.3,50.1,7.8c5.7-0.2,6.8-0.8,7.3-8.1c-1.5,2.4-2.5,4-3.8,6c-0.5-2.1-1-3.7-1.6-6.3
	l-3.7,6.4l-0.9-0.4l1.2-4.9c-3.9,4.6-6.9,4-12.6-1.8c-2.1,3.7-4.5,5.7-7.3,0.7c1.9,0.4,4.6,2.4,5-1c0.2-2.1-1.5-4.5-2.4-6.9
	C386,478,386.6,480.7,388.6,483.6L388.6,483.6z M426.3,490.1l-0.6-0.4c0.6-1.8,1.2-3.6,1.8-5.5l-1.2-0.5c-1,1.7-2,3.4-3.2,5.3
	c-0.6-2-1.1-3.4-1.6-5.2l-4.3,7.7c0.4,0.3,0.6,0.6,0.9,0.6c23,3.1,45.8,2.8,68.1-4.7c3.8-1.3,2.3-3,0.7-5.4l-5.9,5.1l-6.9-6.6
	c-1.3,1.6-2.4,3-3.6,4.3l-3.1-1.5c-1.3,1.7-2.5,3.1-3.3,4.3c-1.4-2.5-2.6-4.7-4.1-7.5l-3.8,4c0.1-1.2,0.1-1.7,0.1-2.1
	c0.1-1.5,0.2-2.9,0.3-4.3c-1.1,1.1-2.2,2.2-3.2,3.4c-1.7,2.3-3.2,4.6-5.5,7.9c0.6-3.9,0.9-6.4,1.3-8.8l-1.9-0.5
	c-1.6,2.3-3.1,4.7-4.9,7.2l-1.9-5.2c-4.1,2.2-4.8,11.3-11.7,4.9L426.3,490.1z M490.8,484.8c11.5,3.7,40.3,2.7,46.6-0.7
	c-0.9-1.3-1.8-2.6-2.8-3.8c-1-1-2.1-2-3.3-2.9c-5.2,6-5.8,6.2-10.1,2.8c-2.4,2.7-9.8,4.8-11.6,3.2c0.3-1.3,0.6-2.6,0.9-3.9l-1.1-0.7
	c-0.9,0.9-1.9,1.7-2.7,2.7c-1.9,2.2-3.3,3.9-7,2.4C497.2,483,493.8,484.5,490.8,484.8L490.8,484.8z M496,350l1.3-1.1l7.2,8l0.6-0.7
	c-0.6-1.3-1.1-2.6-1.7-3.9l0.9-0.6l6.8,6.4c2.3-3.2,2-4.9-1.4-5.9c-2.4-0.7-4.6-1.9-7-2.4c-6.6-1.4-13.3-2.6-20-3.9l-1.3,2.2
	c3.8,3.7,7.5,7.6,11.4,11.2c0.8,0.8,2.4,0.7,3.7,1c-0.5-1.3-0.7-2.9-1.6-3.8c-2.2-2.1-4.7-3.9-7-5.9l1.4-1.6l12.4,10.5l0.9-1
	L496,350z M194.7,385.8l2.4-1l-6.9-17l-2.6,1L194.7,385.8z M370.8,425.5l-1-1.4l-12.4,9.1C363,433.9,368.6,430.1,370.8,425.5
	L370.8,425.5z M373.2,442.5c1.5-2,3.1-4,4.8-5.8c1.4-1.1,2.9-2.2,4.5-3.1l-0.8-1.4l-7.9,4.6l-0.4-0.7l2.2-2.7l-0.8-0.9l-5.5,5
	l4.9,1.6C374,439.7,373.8,440.4,373.2,442.5L373.2,442.5z M250.7,403.9l-1.8,1.2c3.2,4.8,6.4,9.7,9.6,14.5c0.6-0.4,1.3-0.8,1.9-1.2
	L250.7,403.9z M295.9,427.5l-2.5,1.2c1.9,3.6,3.8,7.2,5.7,10.9l2.2-1.1L295.9,427.5z M249,417.8l1.8-1.3l-7.3-10.5l-2,1.5L249,417.8
	z M364.2,434.5c5.7,1.5,9.9-1.4,8.6-6.3L364.2,434.5z M160.2,348.8c-1.4,7.1,4.1,6.7,7,8.7l1.1-1.1L160.2,348.8z M527.8,371.4
	c4.6,4,5.9,0,8.2-2.3C531.7,364.6,530.7,369.5,527.8,371.4L527.8,371.4z M440.5,472.4l2.9-0.3l-0.4-5.1l-3.5,0.5
	C439.8,469,440.2,470.7,440.5,472.4L440.5,472.4z M434,476.3c-3,3.5-0.6,5.2,1.9,7.3C439.4,479.8,437.4,478,434,476.3z"/>
<path class="st0" d="M176.7,392.4c-3.2-1.3-6.7-2-9.5-3.9c-6.5-4.3-12.8-9-18.8-13.9c-2.6-2-4.6-4.7-6-7.7
	c-5.5-13.1-10.5-26.4-15.7-39.6l-0.1,0.1c0.9,0.8,2.4,1.4,2.8,2.4c4.8,11.4,9.7,22.8,14.1,34.3c1.6,4.9,4.9,9,9.2,11.8
	c8.2,5.2,16,11,24,16.5L176.7,392.4z"/>
<path class="st1" d="M367.8,465.5c-0.9-1.5-1.7-3.1-2.4-4.4c2-1.6,3.7-3,5.8-4.8l7.3,8.9c2.3-6-3.9-7.8-4.3-13.4l9.7,12l0.9-0.7
	l-8.7-11.9l1.2-1l9.1,10.1l0.7-0.6c-2.4-2.8-4.7-5.8-6.8-8.9c-0.7-1.1,0-3.1,0-4.7l1.7-0.1c1.5,2,3,3.9,4.5,5.8l2.9-2.4l-4.8-7.3
	l7.1-4.7c1.5,2,3.1,4.4,5.1,0.3c0.3-0.6,2.5-0.3,3.8-0.4c0,0.5,0.1,1,0.2,1.6l-3.5,3.2c5.8-4.6,9.1,3.8,14.4,2
	c-1-1.5-2.3-3.3-3.4-5.2c-0.4-0.7-0.1-1.7-0.1-2.6c1,0.3,2.4,0.4,2.8,1c1.6,3,3,6.1,5.5,8.8l-4.5-11.4l1.3-0.5l7,15.8l1.1-0.4
	l-3.7-9.3l0.9-0.5l6.6,11.6l1.1-0.7L414,427.2l-3.3,4c-1-2.2-1.8-4.1-2.9-6.5c-2.2,2.9-3.6,4.7-5,6.6l-1.3-0.9l1.6-3.2
	c-3.1-1.1-6.1-2.2-9.1-3.2c-0.6-0.2-1.7,0.2-2-0.2c-2.5-2.9-3.2-2.8-5.2,0.9c-1-1.1-1.9-2.2-3.1-3.7l-3.5,5l-2-3.7
	c-9.8-2-15.3,4.7-21.6,9.7c-1.6,1.1-3.3,2.1-5.1,2.9l-1.1-1.1c2.2-2.3,4.3-4.6,6.7-6.8c2.5-2.3,5.2-4.3,7.9-6.5l-1.2-1.5l-17.1,14.5
	c-0.5-0.5-1-1.1-1.4-1.6l12.2-10.1l-0.9-1.2l-11,8.2l-1.1-1.3c1.9-2,3.7-3.9,5.6-5.9l-0.9-1.1l-8.6,6.6l-1.1-0.9l3.3-6.1l-1-0.8
	l-6.3,6.6l-1-0.9l1.3-5.9l-1.6-0.6c-1.6,4.1-3.1,8.1-4.7,12.4l3.9,1l-3.4,2.7c-7.2-4.6-2.9-11.2-2.6-17l-1.6,0l-1.2,3.5
	c-5-2.8-9.8-6.1-15.1-8.3c-16.3-6.7-32.9-12.6-49.1-19.5c-13.1-5.6-26-11.9-38.6-18.7c-3.5-1.9-6.9-2.3-10.3-3.5
	c-2.7-1-4.9-3.4-7.4-5.2c-7.8,2.2-8.3-5.4-11.3-10.5c-0.8,1.8-1.3,2.8-2.4,5.2l-12.4-16.5l-2.7,5.7c-2.3-6.8-4.2-12.3-6.2-17.8
	c-2.3,6.2,5.9,11.9-1.3,18.6c-0.6-9.9-10.7-8.8-15-14.5l-1.5,1c1.7,2.6,3.4,5.3,5.1,8c0.7,0.9,1.2,1.8,1.5,2.8
	c0.1,0.5-0.9,1.8-1.3,1.7c-1.2-0.2-2.8-0.5-3.4-1.3c-0.9-1.4-1.5-2.9-1.7-4.5c-0.6-5.2-1.6-10-8-11.9c0.2,2,0.5,3.8,0.8,6.9
	c-3.3-3.8-6.8-5.2-6.8-10.6c0-8-1.8-16-2.9-24l-1.2,0.5c-1.4-0.8-3.4-1.3-3.9-2.4c-0.5-1,0.7-2.8,1.6-5.5c-0.9-2.1-6-3.7-5.2-9.2
	l4.7,2.5l0.5-0.5l-6.4-5.5c-0.5,1.3-0.9,2.5-1,2.6c-2.3-4-4.7-7.4-6.2-11.1c-0.8-2-1.3-5.3-0.2-6.6c2.2-2.7,4.4-6.6,9.1-5.5
	c3.6,0.9,7.3,1.4,11,1.5l-4.7-2.6l0.3-1l6.7,1.1c0.1-0.2,0.1-0.4,0.2-0.7l-10.6-6.4l-1.5,0.9c0.4-1.4,0.2-3.3,1.1-4.1
	c9.8-8.1,18-18.2,30.5-23c9.3-3.8,19.6-4.4,29.2-1.6c10.7,3,21.6,5.5,32.4,7.8c20.9,4.4,39.8,13.2,54,29.2
	c15.2,17.2,34.4,26.8,55.6,33.6c3.8,1.2,7.3,3.2,11,4.8c24.7,10.3,49.4,20.6,74.1,30.9c2.1,0.9,4.5,0.9,6.8,1.3l-0.2-0.1
	c4.4,1.3,8.8,2.8,13.2,3.7c11.2,2.3,22.5,4.3,33.8,6.5c1.1,0.2,2,0.8,2.8,1.6c4.1,4.9,8.2,9.9,12.2,14.9l1.4-1.2l-11.4-13.2l0.6-1.1
	c1.2,0.1,2.8-0.3,3.4,0.3c5,5.2,9.8,10.6,15.2,16.4c-3.7,1.1-4.5,6.6-10.6,5.5c-2.1-0.4-5.2,0.9-8.3,0.3c-2.6-0.5-5.8,2.3-9.6,4
	c-0.3-0.6-1.1-2-2.1-3.8l-8.5,5c-0.3-9.4-9.5-12-13-19.1l-1.8,1.4l13.1,14l-12.4,4.6c2.7,4.8,4.8,6.1,7.8,1.8c0.5-0.8,2.2-0.7,3.4-1
	c-0.1,0.8-0.1,1.5-0.4,3.7c4.5-0.7,8.8-1.4,13.1-2c0.6-0.1,1.7-0.1,1.9,0.3c2.9,5.6,6.4,2.6,9.9,0.9c2.6-1.3,5-4.3,8.1-0.5
	c0.3,0.4,2.8-1.1,4.7-2l6.2,4.6c-0.5-1.8-0.8-2.8-1.1-3.8l0.7-0.9l7.5,5.1l0.5-0.5L497,374l1.4-1.3l8.3,6.6l0.5-0.4l-4.1-6.5
	c0.5-0.4,0.9-0.7,1.4-1.1l9.4,7.6c0.6-1.7,0.8-4,1.7-4.4c1.4-0.6,3.6-0.1,5,0.7c2.2,1.1,4,2.8,6.6,3.8l-3.5-4.9
	c6.6-1.6,8.5,4.5,13.6,6.5l-4-5.2c4.9-7,5.6-6.9,16.6,2.2c-3.2,4-8.1,4-12.4,5.2c-3.6,1-7.1,2.3-10.8,2.9c-4.8,0.7-9.7,0.7-14.5,0
	l-3,3.6l-2.6-3.3c-3.9-1.2-5,6.9-10.3,2.9l3.8-4c-0.2-0.3-0.4-0.7-0.6-1l-10.5,6.4l-1-1.3l4.2-5.5l-14.3,5.3l-1.8-3.7l-6.4,5.4v-3.7
	l-16.4-2.9c-6.5,4.1-14.9,1.5-23.2-1.7l-0.9,1l8.6,6.7l0.9-0.7c-0.4-0.9-0.9-1.9-1.8-3.9l9.5,6c-1.4,5.9,1.7,11.5,8.7,15.1
	l-7.8-11.7c5.8-4.6,7.8-4.4,9.7,0.7c6.8-2.7,13.3-1.6,19.2,1.5l2.4-3.4c0.7,0.8,1.3,1.9,2.2,2.2c2.7,1.1,5.6,1.9,8.9,3
	c0.7-0.5,1.7-1.8,3-2.3c1.2-0.2,2.4,0.1,3.4,0.8c1,0.7,1.4,2.1,2.4,3.5l-2.2,2.1l0.6,1l11.3-5.5l0.5,0.3l-5,5.3l0.5,0.8l8.1-4.7
	l0.9,0.9l-4.9,6.3c6,4.9,8.8-2.9,13.5-2.6c0.1-0.4,0.2-0.9,0.3-1.3l-8.4-4.5c3.5-2.5,8.4-0.8,13.6,4.3l-8.6,7.2
	c0.1,0.5,0.2,1,0.3,1.5c1.6-0.2,3.6,0.2,4.8-0.6c4-3,7.7-6.4,11.5-9.6c0.9-0.8,1.8-1.4,2.7-2.1l1.5,1.5c-1.9,1.9-3.7,3.9-5.7,5.7
	s-4.4,3.4-6.6,5.1l0.9,1.2l14.1-10.7l1.1,1.4l-8.1,6.8l0.9,1.1l14.5-12.3l1,0.8l-9.3,9.7c7-3.7,11.9-9.4,15.7-16.3
	c2.8,2.4,2.5,5.8-1.3,10c-2.5,2.7-5.6,4.8-8.3,7.9c6.9-0.7,14.2-5.2,19.4,2.9c1,1.8,1.9,3.6,2.7,5.5l-1.2,0.6l-7.2-8.5
	c-2.5,3.9,5.4,5.7,0.8,9.3c-3.3-4.9-6.7-5.3-11.4-1.9c-1,0.7-2.7,0.4-3.9,0.9c-3.1,1.3-6.2,2.8-9.7,4.4l-3.6-3.2l-0.8,0.6l2.2,5.7
	l-1,0.9l-8-5.9c0.1,2,0.2,3.4,0.4,5.6c-5.8-4.5-10.7-3.3-14.5,1.2l-17.3-2.2v-3.6l-21.4,7.8c1.1-2,1.7-3.1,3-5.4
	c-5.1,1.6-9.2,2.8-13.2,4.3c-3.1,1.1-5.6,1.5-6-3.2l-15.9,6.7h5.6c2.9,7.4,11.7,4.8,16.3,10.4l-6.6,1l12,11.2l1-0.8l-6.1-6.7l0.8-1
	l15.9,11.5c-3.9-8.1-14.8-9.1-16-17.8l1.7-1.4l4.9,5.9l0.7-0.2l-1.9-5.1l0.5-0.4c1.2,1.9,2.4,3.7,3.6,5.6l1.1-0.4
	c-0.7-2.1-1.4-4.1-2-6.2l0.8-0.5l7.9,10l0.6-0.3c-0.8-2-1.6-4-2.5-6l1.2-0.8l7.2,9.4l1.2-0.7l-6.4-9.5c6.3-1.2,8.4,3.9,11.5,7
	c2.3-5.5,3-5.5,9.1-0.6c-0.9-1.5-1.8-3-2.6-4.5c2.6-1.8,2.6-1.8,7.8,3.1c-0.9-1.9-1.2-2.7-1.7-3.5s-0.9-1.4-1.4-2.2
	c2.6-3.1,4-0.8,5.3,1c1.4,1.8,2.6,3.5,4.6,6.4c-0.2-2.6-0.2-3.8-0.3-5.8l4.9,3.7c-0.4-1.3-1-2.3-0.9-3.1c0.2-1.2,0.8-2.2,1.7-3
	c0.5-0.3,2.1,0.4,2.7,1.1c2.6,3.4,5.1,6.9,8.5,9.9c-2.7-4.4-5.3-8.7-8-13.1l1.4-1.2l7.8,8.9l0.4-0.2c-0.9-1.8-1.8-3.6-2.6-5.4
	l0.9-0.8l6.7,7.1c0.1-1.4,0.1-2.4,0.2-3.7l2.3,1.3c0.5-1.7,1.1-3.3,1.6-5l5.5,3.6l2.6-4.8l1.9,1c0.1,1.6,0.2,3.3,0.3,5.2l7.8-6.5
	l3.4,2.3c-0.8-2.3-1.4-3.7-1.9-5.1l1-0.7l4.9,6.8l8.9-8l1.2,0.7l-6.2,11.7c-6.8-3.9-8.8,1.8-11.6,5.8l10.8-4.7
	c-0.8,1.7-1,3.1-1.8,3.9c-6.7,7.2-15.2,9.7-24.7,9.6c-9-0.1-17.9,0-26.8-0.1c-2.6-0.2-5.3-0.6-7.9-1c-6.7,4.6-11,5-15.2,0.6
	l-7.3,6.3l-1.6-1c0.8-1.5,1.7-2.9,2.7-4.3c1.3-1.5,2.8-2.9,4.2-4.3l-1.3-1.4c-2,2-4.1,3.9-5.9,5.9s-3.5,4.2-6.1,5.9l2.1-5.3
	c-3-1.1-4.8,6.2-7.9,0.5l-4,5.5l-0.8-0.5c0.5-1.4,1-2.7,1.5-4.1l-0.9-0.8l-7,7.8c0.3-2.6,0.4-4.1,0.7-6.2l-5.2,2
	c0.7-2.1,1.1-3.5,1.6-4.9c-0.3-0.3-0.5-0.5-0.8-0.8l-6.8,6.5c-0.6-1.9-1.1-3.2-1.6-4.5c-3.1-1.5-5.7,12.2-9.1-0.1l-8.4,4.3l-3.5-6.5
	l-5.5,5.1c-2.8-7.6-7.6-10.2-14.8-5.3l-2.1-3.5l-7.4,10.7l-1,0.2l0.7-8.6l-0.9-0.6l-9,14.6l-1-0.5l2.4-6.2l-1.3-0.6l-3.8,6.9
	c-1.3-3.1-2.4-6.4-6.3-3.4c-2,1.6-4.2,3-6.4,4.6l-6.3-6.7L367.8,465.5z M275.5,273.9l7.9,8.8c2.5-7.6-6.1-7.3-7.7-12.1
	c-0.1,1-0.1,1.9-0.2,2.8c-0.9-1.5-1.6-3.1-2.6-4.6c-1.5-2.2-3.2-4.3-4.9-6.4l-1.7,1.1c0.8,2.6,1.5,5.2,2.4,8.2
	c0.7-1,1.1-1.6,1.6-2.4c1.3,2.4,2.6,4.7,4.5,8.2C275.2,275.4,275.4,274.6,275.5,273.9z M303.3,296.4l10,4.8c0.1-0.6,0.3-1.5,0.4-2.5
	c1,1.1,1.7,2.9,2.9,3.2c5.1,1.2,10.4,2,15.6,2.9l0.5-1.1c-2.9-1.7-5.9-3.3-9-4.7c-2.5-0.9-5.1-1.4-7.8-1.6c-0.6-0.1-1.4,0.9-2.1,1.4
	l-13.6-10.4C301.5,291.8,302.4,294.1,303.3,296.4c-1.6-2.3-3.7-4.4-4.6-7c-1.2-3.8-3.3-4.5-7.3-3l4,8l1.1-0.5
	c-0.4-1.7-0.9-3.4-1.3-5.1c1.8,1.3,2.5,3.2,3.7,4.6S301.8,295.4,303.3,296.4z M184.7,285l20.2,4c0.1-0.4,0.1-0.8,0.2-1.1l-30.9-7.1
	c-0.1,0.7-0.3,1.4-0.5,2.1c3.7,0.7,7.4,1.4,11.2,2.2l-3.5,2.3l27.3,5.9c-2.1-1.3-4.4-2.3-6.9-2.9L184.7,285z M467.6,405.5l-2.8-4
	l-1.1,0.5c0.4,1.8,0.9,3.5,1.3,5.3l-0.7,0.2l-4.2-8.7l-1.1,0.4v4.6l-6.6-7.8l-1.1,1.1c3.6,8.7,12,11.9,19.8,16.6l-3.7-8.4l8.3,11.1
	l0.8-0.5c-2.4-4.4-4.8-8.9-7.7-14C468.3,403.7,467.9,404.6,467.6,405.5z M225.8,246.6l-1.2,0.5v10l-1.5,0.1c-1.1-5-2.1-9.9-3.4-15.8
	l-5.7,5.4c-1.2-3.2-2.8-4.9-5.1-0.7l-4.2-5.2l-4.6,6.1l5.8-1.3v7.9l6.6-4.9c-0.6,3.8-1,6-1.3,8.3l2-2.1c0.9,2.2,1.7,4.3,2.6,6.6
	c5.7-3.6,6.3,1.4,8,4.1c0.9,1.4,1.8,4.3,2,4.2c5.3-1.7,5.4,4.1,8.3,5.9c0.2-1.8,0.3-3.4,0.5-5h1c0.7,1.9,1.4,3.9,2.1,5.9l4.4-4.6
	v7.2l8.4-7.8c0.2,4.7,0.4,8.3,0.6,12l0.9,0l1.4-15.9l1.4,0.1c1.3,4.5,2.4,9.1,3.9,13.6c0.9,2.7,2.4,5.1,3.2,7.8
	c0.4,1.1-0.3,2.5-0.5,3.8H260c-1.1-2.4-2.1-4.7-3.7-8.1c-1.2,7.7,1.3,10.6,7.3,9.9c2,3.4,1.6,10.2,9.8,5.9c-1.2,2.1-1.8,3.1-2.2,3.8
	l4.5,0.9c0.9-1.6,1.7-3.1,2.2-4l4.9,4.9l-2,3.4c1.3-0.3,2.6-0.7,3.8-1.2c3-1.9,5,0,6.1,2.2c1.6,3.2,4.1,4.2,7.2,5
	c0.9,0.2,2.3,0.5,2.5,1c1.4,4,3.6,2.4,5.8,1c1.5-1,3.1-2,4.7-2.8c1.2-0.4,2.5-0.7,3.9-0.9c-0.6,1.3-1.2,2.6-1.8,3.9
	c-0.3,0.5-0.6,0.9-1,1.3c8.2-1.2,5,7.9,10.1,10.5c-0.5-1.8-1.2-3-1.1-4.2c0.3-1.6,0.8-3.1,1.4-4.5c1.3,0.6,2.6,1.3,3.7,2.2
	c1.3,1.3,2.2,3,4,5.5c-0.3-2.7-0.5-4-0.6-5.4l1-0.4l2.6,4.5l-5.4,3.4h8.4c0.3-0.9,0.6-2,1-3.2c1.1,0.5,2.6,0.8,3.2,1.7
	c1.7,2.2,3,4.7,4.5,7.1l0.5-1.4l24.6,4.9l-0.3,0.9l6.5-1.3c0.1-0.6,0.3-1.9,0.6-4l8.8,9.5c-5.6-10.5-5.6-10.5-4.4-12.2l11.8,12.5
	c-2.3-6-9.3-9-8.2-16.5l11,15.5c-2.3-5.8-4.9-11.5-7.9-17c-0.6-1.1-2.5-2.8-3.2-2.5c-1.8,0.8-3.4,2-4.6,3.5c-0.9,1-1.1,2.5-1.8,4.3
	l-4.6-10.9l-3.2,3l-5.1-6l-1.1,0.8c0.1,1.9,0.2,3.7,0.4,5.5l-1.3,0.1l-1.1-4.1l-4.1,2.2c-0.9-2.4-1.6-4.4-1.8-5l-12.1-3l-1,5h-1.6
	c-0.2-1.8-1.2-4-0.4-5.3c2.8-4.9-1.5-6.4-3.8-8.8c0,1.8,0.9,3.2,1.5,4.8c0.2,0.7,0.1,1.5-0.3,2.1c-0.2,0.3-1.2,0.3-1.7,0.1
	c-2.3-0.6-4.6-1.3-7.8-2.2l-1.6-3.8l-6.5,0.8c-0.6,1.8-1.3,3.9-2,5.9l-2.4-0.8c1-2.8,2-5.6,2.9-8.4c-0.4-0.3-0.7-0.6-1.1-0.9
	l-6.5,7.1c-1.2-3.1-2.1-5.7-3.3-8.8l-3.3,3.9c-0.4-2.2-0.7-3.7-1.2-6.1c-1.7,2.1-2.7,3.7-4,4.8c-1.1,0.9-2.7,1.2-4,1.8
	c-0.2-1.7-1-3.5-0.6-5s1.7-2.9,2.7-4.4l-8.6,1.3c3-5.5,2-12.2-2.4-16.6c1,3.5,1.6,5.8,2.2,8c0.9,2.9,0.3,5.1-2.4,6.4
	c-2.5-1.1-0.7-7.1-6.2-3.7c0.4-2.2,0.6-3.6,0.7-4.4l-5.3-6l-1,0.5l2.4,8.6c-6.4-2.9-1.5-11.5-8.6-14c0.1,2,0.2,3.6,0.3,5.3l-0.6,0.1
	l-2.5-6.3l-1.4,0.4c0.7,3.8,1.4,7.6,2.1,11.4l-2,0.4c-0.4-6.8-8.7-10.6-6.3-19.6l3.2,7.8l1.3-0.5c-1.6-4.2-3.3-8.4-4.7-12.7
	c-0.7-1.8-1-3.8-0.8-5.7c0.6-4-0.6-6.8-4.3-8.2c-4.5-1.7-9.1-3.2-14-4.9c0.3,5.8,5.4,5.6,8.7,7.5c2.2,1.2,6.3,1.3,6.8,2.9
	c0.7,2.2-1.2,5.1-1.7,7.8c-0.8,4.7-3.8,8.8-8.1,11c-1.7-4.6,2-6.2,3.6-8.8s4.2-4.6,2.7-8.2l-5.9,9.2l-1.6-0.8
	c0.9-3.1,1.7-6.2,2.7-9.9l-2.9-0.3l-5,10c-4.7-4.5,3.3-10.3-3.4-13.6l-3.1,3.6C229.5,252.2,227.7,249.4,225.8,246.6z M306.6,357.1
	l1-0.2l-2.6-9.3l1.3-0.4c1.3,3,2.7,6.1,4,9.1l0.9-0.4c-2.5-8.5-5-17-7.5-25.4l-1.7,0.5c1.2,4.3,2.3,8.7,3.5,13l-1.4,0.4l-3.2-10.8
	l-0.9,0.2l-0.5,4.5c-2.8-4.2-1.2-10.7-8-12.9c0.4,2.8,0.7,5.5,1.1,8.1l-1.4,0.4c-3.7-3.2-2-8.9-5.3-13.7c-0.1,3.2-0.2,5.2-0.4,7.4
	c-6.8,0.3-2.3-6.7-6.2-8.6v7.8c-1-0.6-1.6-1.6-1.8-2.8c-0.8-8-0.7-8-8.4-7.2c-0.2,0-0.5-0.4,0,0c-0.2-2.8-0.4-4.9-0.5-6.4L254,307
	l2.2-1.8l-3-5.2l-3.1,4l-0.8-8.7l-1,0.8c-1.7-1.2-3.3-2.5-5.1-3.7c-2-1.4-4.2-2.6-6.4-3.7c-0.4-0.2-1.5,1-2.2,1.6
	c-0.6,0.4-1.1,0.9-1.6,1.3c-0.4-0.8-1.1-1.6-1.1-2.3c0.2-2.8,0.7-5.6,1.2-8.8c-2,1.2-3.2,2-4.6,2.7c-0.1,0-1.1-1.2-0.9-1.4
	c0.8-1.2,1.7-2.3,2.6-3.4l-3.1-4l-3,1.9c-0.9-2-1.3-3.8-2.4-4.8c-2.1-1.9-4.4-3.6-6.7-5.2l-1.4,2.7c-0.5-2.8-0.9-4.6-1.2-6.5
	l-1.2,0.1l-0.8,4.9l-1.5,0.5c-0.6-1.5-1.6-3-1.6-4.5c-0.2-4.8-3.2-5.3-6.6-4.4s-4-0.5-4.2-3.9l10.5,1.4l0.2-1.2l-14.4-3.2
	c0.1-0.5,0.3-1,0.4-1.4l5.6,0.9l0.1-0.9l-16.8-5.9c0.2-0.5,0.4-1,0.6-1.5h4.9l-10.1-5l0.4-1.3l5.3-0.4l0.1-1.2l-13.9-2.4v11.8
	c1.2-0.7,1.2-1.6,1.6-2.2c0.8-1,1.6-2,2.4-3c0.6,1.2,1.6,2.4,1.8,3.7c0.2,2.2,0.2,4.3,0.1,6.5c0,0.4,0.5,0.7,0.8,1.1
	c0.6-1.4,1.1-2.6,2.1-4.9c0.6,2.4,0.6,3.8,1.3,4.8c1.7,2.6,3.1,6.3,5.5,7.4c4.2,1.9,7.5,3.6,7.5,8.7c0,0.2,0.6,0.4,1.4,0.9
	c-0.2-2.7-0.3-4.9-0.4-7.1l1.2-0.3c0.6,2.2,1.2,4.5,1.9,6.7c0.5,1.7,0.8,3.7,1.9,5c1.5,1.8,3.7,2.9,5.5,4.3l1-2.7l0.9,0.1
	c0.3,1.7,0.6,3.4,0.8,4.5l13.8,9.9l2.6-2c0.2,1.2,0.4,2.4,0.6,3.6c0.3,1.8,0.7,3.5,1,5.5l3.6-4.1c0.2,3.8,0.4,6.1,0.5,8.8l2.1-2.2
	c2.1,2,3.7,4.6,5.2,4.5c4.3-0.2,4.8,1.9,4.4,5.2c-0.1,0.9-0.1,1.9,0,2.8l5.2-1.9c0.7,1.8,1.3,3.5,2.1,5.8l1.4-5.4l1.2,0.1
	c0.4,3.4,0.9,6.9,1.3,10.3h0.6c0.5-2.1,1-4.1,1.5-6.2l1.3,0.3l1,13.3l4.8-2.1l2,8.7l0.9-0.1V326l1.2-0.1c0.4,2.8,0.9,5.5,1.3,8.3
	c0.9-1.3,0.6-2.6,1-3.6c0.6-1.6,1.3-3.2,2.1-4.7c0.7,1.5,1.7,2.9,2,4.5c0.5,3,0.6,6.1,0.9,9.1l0.9-0.1c0.2-3.3,0.3-6.6,0.5-9.9
	l1.9-0.3c1.6,4.9,3.1,9.7,4.7,14.6l0.8-0.2c-0.5-2.9-1-5.7-1.5-8.6l1.4-0.4l3.9,9l0.9-0.3c-0.6-2.6-1.3-5.2-2-8.1
	c7.7-0.5,4.9,7,8.4,9.3l0.9-5.4l7.5,13.3l0.9-0.3v-4.9l1.1-0.3C304,350.3,305.3,353.7,306.6,357.1z M162,283.3l4.8-1.7
	c-7.5,1-7.8-5.4-9.7-10l-1.3,0.7l1.7,7.5c-2-0.2-4,0.2-4.8-0.6c-2.1-2.2-3.6-4.9-5.4-7.4l-0.2,1.2c-2.2-0.2-4.3-0.4-6.5-0.7
	c-0.6-0.2-1.1-0.3-1.7-0.4c-3,0.1-6,0.2-9,0.4c-1.7,0.1-4.7-0.2-4.8,0.4c-0.6,1.8-0.9,4.5,0,5.9c2.9,4.6,5.8,9.6,9.9,13
	s6.6,10.2,14.1,7.4c0.9-0.4,2.6,1.2,3.9,1.9s2.4,1.6,3.5,2.4l0.6-0.5c-0.5-0.8-1.1-1.6-1.6-2.4l0.7-1.1l9.5,4.5
	c-0.2-0.9-0.4-1.9-0.6-2.5l11.3-1.3l3.3,2.2l0.5-0.6L162,283.3z M140.3,253.8c-0.1,0.3-0.1,0.7-0.2,1l3.5,1.3l-2.6,2.9h6.3l0.1,0.7
	l-5.6,2.1l13,1.5l-0.3,1.4l-4.3,1.1l-0.1,1.2c4.6-0.3,8.4,2.2,12.2,3.3c10.5,3.1,21.6,4.1,32.4,6L180.1,265l1.5-1.6
	c-3.4-1.5-9,0.8-8.9-5.2l-6.4-2.9l0.9-1.8c9.9,0,13.9,10.3,22.4,13.4c-0.2-0.6-0.2-1.2-0.5-1.5c-9.4-8.2-18.9-16.4-28.4-24.6
	c-0.4-0.3-0.9-0.4-1.4-0.4c-5.2-0.2-10.3,0.2-14.5,4.4l8.6,1.3l-0.2,2h-10.2l-0.1,1.1l5.5,2.2c0,0.4-0.1,0.8-0.1,1.3L140.3,253.8z
	 M172.6,328.2c2,1.1,4,1.6,5.3,2.9c2.2,2.2,3.3,5.3,7.6,4.6c2.8-0.4,5.8,0.9,8.7,1.3c5.3,0.8,10.7,1.6,17.4,2.6L206,336l0.7-1.5
	l8.4,2.7c3.2-0.4,5.2-1.1,6.8-0.6c1.4,0.7,2.3,1.9,2.6,3.4c0.4,3.3-0.1,6.6,0.1,10c0.3,5.8,0.8,11.6,1.1,17.4l1-0.1v-32l6.3,4l1-0.6
	c-2.3-3.8-4.6-7.5-6.9-11.3L226,328l2,6.4c-7.4,1.3-6.5-6.6-11.4-8.2c1.1,2.3,2.2,4.5,3.2,6.8l-0.9,0.5l-7-9.5l-2.6,4.1
	c-2-2.6-3.5-4.6-5.1-6.7l-1,0.5c0.4,1.7,0.9,3.3,1.3,5l-0.8,0.4l-4.4-5.8l-0.8,0.4c0.4,1.8,0.8,3.5,1.2,5.2l-1,0.7l-5.7-6.3
	c0.5,2.4,0.8,3.5,1,4.6l-0.7,0.3l-3.1-4.2l-0.7,0.5l1,4.4l-1,0.5l-5-6.2c-1.2,2-2.1,3.5-3,5.1l-1.9-2.4L172.6,328.2z M157.5,318.2
	c15.4,1.6,29.5,2.8,45-0.4l-14.2-9.3l6.9,0.3c-13-4.8-26.1-2.7-39.1-1.6c-0.1,0.5-0.2,0.9-0.3,1.3l8.1,3.4h-5.2l2.8,5L157.5,318.2z
	 M396.3,411.8c-4.5-9.8-13.6-11-21.8-14.4l2.4,3.6l-14.4-7.5l-0.6,0.9l7.4,8.4l1.8-2.2l13.2,8.1c0.4-0.9,0.7-1.6,1-2.3
	c0,0,0.3,0.1,0.4,0.1l-0.2,0.5L396.3,411.8z M445.9,421.3l0.6-2c-3-1.7-5.8-3.8-8.9-4.9c-6.1-2.2-13,0-18.9-4.1
	c-2.8-2-6.9-2.1-10.6-3.2c3.5,3,6.6,6.3,10.4,8.6c2.5,1.5,5.4,2.1,8.3,1.7c4.5-0.6,8.5-1.4,12.4,2.3
	C440.6,421.1,443.5,420.9,445.9,421.3L445.9,421.3z M309.4,332.2l-2.5,1.2c3.6,9.1,7.1,18.3,11,28.4l2.8-4.2l2.8,3.8
	c-2.7-6.1-5.9-13.3-9.2-20.5C312.9,337.9,311,335.1,309.4,332.2z M359.8,397.4l-1.4,1.6l-14.8-9.9l-0.7,1l19.6,17.8l0.9-1l-4.3-4.8
	l0.5-0.7l8.2,4.3c-5.1-5.6-8.4-12.9-15.9-15.6L359.8,397.4z M369.8,365.1l-1,0.9c-4.6-6.4-9.2-12.7-13.6-18.8
	c-0.8,7.2,13.7,22.9,19.6,21.4l-14.4-22c-0.2,0.8-0.6,1.6-0.4,1.9C363.2,354.1,366.5,359.6,369.8,365.1L369.8,365.1z M284.8,351.6
	c4,14.1,14.6,22.1,26.2,20.2l-10.7-3.1l0.3-1.1l7.6,1c-4.8-2.2-10.2-2.8-14.3-5.5C290.1,360.3,287.8,355.5,284.8,351.6L284.8,351.6z
	 M263.4,382.9h1.4v-19l1.6-0.1c0.9,9.3,1.9,18.5,2.9,28.2c0-8.2-0.1-15.8,0-23.4c0.1-4.5-1.7-6.9-5.9-7.3L263.4,382.9z M344.3,346.4
	l-0.9,1.6c3.9,9.5,11.3,15.8,19.6,21.3c-5-5.2-10-10.4-15-15.5l1.4-1.4l10.2,11c-3.2-5.4-6.8-10.5-10.8-15.3
	C347.9,347,345.8,346.9,344.3,346.4L344.3,346.4z M247.9,372.2l2.1-0.2v-29.2l-0.9-0.1c-0.4,2.5-0.7,5.1-1.3,8.7
	c-1-2.8-1.5-4.2-2-5.7l-1.7,0.4C245.4,354.9,246.6,363.6,247.9,372.2L247.9,372.2z M348.8,364.4c-3.3-3.6-6.2-6.4-8.4-9.6
	s-3.5-6.8-5.2-10.3l-1.3,0.6L339,357l-1,0.6l-9.9-15.8C327.9,349.5,339.6,362.9,348.8,364.4L348.8,364.4z M401.6,332.4
	c-0.4,0.4-0.8,0.9-1.1,1.3c5.1,5.9,9.6,12.5,18.7,13.2v-2.7l4.8,3.4l0.9-1c-1.6-2.7-3.6-6.1-6.9-6c-5.7,0.1-10.4-0.8-13.6-5.9
	C403.6,333.7,402.5,333.1,401.6,332.4L401.6,332.4z M460,454.5l0.9-0.9c-3-3.4-5.7-7.2-9.2-10.1c-3.2-2.7-7.2-4.4-10.8-6.6l-1.1,1
	l14.4,18.9l1-0.7c-2.8-4.3-5.6-8.5-8.5-12.8l0.8-0.7L460,454.5z M379.5,348.8c1.6,11,8.9,18,17.7,23.2l-11.4-20.8l-1.2,0.5l4.9,12.2
	l-1.1,0.5L379.5,348.8z M319.3,400.5l1.4-0.5l6.2,12.9l1-0.5c-3.1-7.2-6.2-14.5-9.3-21.5c-3.7,0.7-4.3,2.4-2.8,5.4
	c1.6,3.3,2.8,6.8,4.3,10.1c1.1,2.4,2.3,4.8,3.4,7.2l1.1-0.5L319.3,400.5z M415.2,371.8l-8.3-7.8l0.8-0.9l14,11.5l0.8-1.1L400.1,354
	l-1.3,1.4C402.9,362,407.9,367.9,415.2,371.8L415.2,371.8z M312.7,408.8l1-0.2l-2-10.5l0.5-0.1l6.7,14.4c-2-7.9-4.5-15.6-7.4-23.2
	c-0.3-0.8-1.6-1.2-2.4-1.8c-0.6,1-1.8,2.1-1.6,2.9C309,396.4,310.9,402.5,312.7,408.8L312.7,408.8z M314.8,380.1
	c0.3,1.4,0.3,1.9,0.5,2c5.4,2.9,10.8,5.9,16.4,8.4c1.2,0.5,3.2-0.7,4.9-1.1c-1-1.1-1.9-2.3-2.9-3.4c-0.4-0.4-1.5-0.3-1.8-0.7
	C327.3,379.6,320.6,382.6,314.8,380.1L314.8,380.1z M218.6,302.8c-8.5-5.4-16.7-9.1-25.9-10.1c0,0.8,0.1,1.2,0.4,1.3
	c3,0.9,6.1,1.7,9.1,2.6c1.2,0.4,2.7,0.9,3.3,1.8C208.9,303.9,211.3,304.9,218.6,302.8L218.6,302.8z M327.2,390.8l-2.4,1.2
	c3.2,7.5,6.4,15,9.7,22.4l1.4-0.6l-6.3-14.2l1.1-0.5l9.1,14.8l1.3-0.8C336.4,405.7,331.8,398.3,327.2,390.8L327.2,390.8z
	 M358.4,412.4l1.3-1.4c-5.8-5.5-9.3-13.8-20-15.5c4.8,6.3,8.9,11.6,13,17l0.9-0.6l-6.9-10.6l1.1-1L358.4,412.4z M418.7,349.4
	l-1.4,1.4c4.8,5.2,9.5,10.4,14.3,15.6l1-0.8l-7-8.5l1-0.8c1.4,1.6,2.9,3.2,4.3,4.8c1.3,1.4,2.7,2.7,4.1,4.1
	c-3.6-7-4.7-7.9-11.4-10.6c-0.8-0.3-1.4-1.4-2-2.1L418.7,349.4z M165.4,338.5c-3.8-15.1-3.8-15.1-8.9-14.2
	C157.8,330,158.1,336.1,165.4,338.5z M210,346c-1.9,1.2-4.2,1.9-4.2,2.7c-0.1,4.9,0.4,9.8,0.7,14.7l1.4-0.1v-6.6l0.8-0.1
	c0.5,2,1,4,1.5,6l1-0.1C210.8,357.3,210.5,352.2,210,346z M392.6,401.7l-1.2,1.7l18.2,13.4l1.1-1.5
	C407.3,407.2,397.6,407.8,392.6,401.7L392.6,401.7z M242.1,339.8l-2,0.2c0.9,10.8,1.8,21.6,2.7,32.5l1.4-0.1
	C243.5,361.5,242.8,350.7,242.1,339.8z M199.9,283.8c-10.3-4.1-20.8-7-31.8-7.6l-0.3,1.2L199.9,283.8z M466.4,419.5
	c-1.8-0.3-3.5-0.6-5.3-0.6c-1.9,0-4,1-5.7,0.5c-3.7-1.5-7.4-3.1-10.9-5C450.5,420.7,457.1,425.2,466.4,419.5z M537.7,453.6
	c0.2,0.5,0.5,1.1,0.7,1.6c2.8-0.5,5.8-1.9,8.5-1.4c5.3,1.1,5.2-2.9,7-5c-0.2-0.4-0.5-0.7-0.7-1.1L537.7,453.6z M403.9,399.5l1.4-0.8
	c-3.2-10.8-8.3-17.6-14.8-17.8l10.4,8.8l-1.1,0.4L403.9,399.5z M255.4,351.2l-2.4,0.2l2.2,30l0.2-0.1V351.2z M236.2,368.7
	c0.6-11,1.2-20.5,1.8-30.1l-1.8-0.1V368.7z M388.8,370.6l-15.7-22C373.6,354.2,381.9,365.7,388.8,370.6z M264,345.4
	c-2.9-2.6-2-9.6-8.8-8l-4.4-7.9C250,339.2,260.1,339.8,264,345.4z M259.4,383.7h0.9v-26.9l-0.9,0.1V383.7z M431.1,341.4
	c1.8,6.5,6.2,9.3,13.1,8.2L431.1,341.4z M323,339.8c1.8,9.2,7.3,16.2,13.8,22.5C332.2,354.8,327.6,347.3,323,339.8z M422.2,431.3
	l-2,1.1l13,20.9l1-0.6L422.2,431.3z M318.1,336.2c-0.4,7.3,5.2,18.7,10.2,22L318.1,336.2z M405.1,392.7c-0.3,0.5-0.7,1.1-1,1.6
	l11.6,6.2C413.4,393,411,391.4,405.1,392.7L405.1,392.7z M273,365.9l-0.8,0.1v22.4h0.8V365.9z M281.7,368.8l-2.2,0.4
	c1.6,8.2,3.2,16.4,4.7,24.6l1.2-0.2C284.2,385.4,283,377.1,281.7,368.8L281.7,368.8z M286.5,371.7l-2,0.5l7,23.1l1.3-0.4
	C290.7,387.2,288.6,379.5,286.5,371.7L286.5,371.7z M277.9,391.2l1.5-0.1l-2.9-22.4l-1.9,0.3L277.9,391.2z M296.8,397.9l1.4-0.6
	c-2.4-6.9-4.8-13.9-7.2-20.9l-1.9,0.7C291.7,384,294.3,390.9,296.8,397.9L296.8,397.9z M441.7,455.3l1.1-0.8L430,434.3l-1.7,1.1
	C432.8,442.1,437.2,448.7,441.7,455.3L441.7,455.3z M408.9,351.8l-1.8,1.8l19.1,16c-0.2,0.2-0.4,0.5-0.6,0.7L408.9,351.8z
	 M509.1,418.8c-2.1-3.1-3.8-5.8-7.1-2.4l-6.3-4.6l-0.8,1.4C498.6,416.8,501.7,421.9,509.1,418.8L509.1,418.8z M231.6,342.7l-1.9,0.1
	c0.3,7.5,0.7,15.1,1,22.6l0.9-0.1L231.6,342.7z M473.3,401.3l-1.9,1.3l13.2,18.1l1-0.7L473.3,401.3z M321.7,377.9l-19.7-3.6
	l-0.4,2.1C308.2,378.1,315,378.6,321.7,377.9z M298.5,382.5l-2,0.6l5.4,19.8l1.4-0.3C301.8,395.9,300.1,389.2,298.5,382.5z
	 M392.8,355.7c-0.3,5.5,6.1,14.8,11.1,16.9C400.4,367.3,396.7,361.7,392.8,355.7z M145.1,327.4l1.6-0.4l-5.5-19.3l-2,0.6
	C141.2,314.7,143.2,321,145.1,327.4z M221.6,345.9l-2.1,0.2c0.6,6.7,1.2,13.3,1.9,19.9l1.5-0.1C222.4,359.2,222,352.5,221.6,345.9z
	 M307.4,405.2l1.2-0.5c-1.9-6.7-3.8-13.3-5.6-20l-2,0.6C303.2,392,305.3,398.6,307.4,405.2z M390.6,395.7c-1.1-6.3-6.1-9.1-11.2-6.4
	L390.6,395.7z M402.2,347.1l1.1-0.7l-10.2-17.2l-1.9,1.1L402.2,347.1z M416.5,354.2l-0.7,0.6l14.7,14.2l-0.4,0.4L416.5,354.2z
	 M334.8,393.4l-1.6,1.1c4,5.9,8,11.8,12,17.8l0.9-0.6L334.8,393.4z M462.4,350.1c1.8,3.9,7.7,6.8,12.8,10.6L462.4,350.1z
	 M276.6,357.3c1.1-6.7-6.3-5.1-8.2-9.8C268.2,353,268.2,353,276.6,357.3L276.6,357.3z M455.6,346.9l-1.6,1.4l12,12.4l1.1-1
	L455.6,346.9z M200.6,362.6h1.5l-0.9-17.6l-2,0.1C199.6,350.9,200.1,356.8,200.6,362.6L200.6,362.6z M217.2,363.1l0.5-0.1v-20.2
	l-1.8,0.1C216.3,349.6,216.7,356.4,217.2,363.1L217.2,363.1z M432.2,391L420,380.3l-1,1.2C422,386.3,426.9,388.8,432.2,391
	L432.2,391z M183.5,231.8l0.1-0.7l-16.1-1.2l-0.1,1.9L183.5,231.8z M323.7,393.6l-1.7,0.5c2.8,6.3,5.7,12.6,8.5,18.9l1.1-0.5
	C329,406.3,326.3,400,323.7,393.6L323.7,393.6z M490.9,421l1.2-1l-9.2-11.8l-1.7,1.4C484.4,413.4,487.6,417.2,490.9,421z M452,359.2
	c0,4.8,0.6,5.2,10.6,5.9L452,359.2z M240.3,331.2l1.3-0.2l-3.3-14.4l-2.1,0.5C237.5,321.9,238.9,326.5,240.3,331.2L240.3,331.2z
	 M366,348.6l-1.5,0.7c1.6,4.9,4.7,9.3,8.9,12.3C370.9,357.2,368.4,352.9,366,348.6z M562.2,443.6l-1.4-0.9l-6.9,10
	C557.6,450.4,561.2,447.9,562.2,443.6L562.2,443.6z M234.6,326.6l1.5-0.3c-0.9-4.6-1.9-9.2-2.8-13.8l-1.8,0.4L234.6,326.6z
	 M265.2,270.9l1.5-0.3l-3.5-12.4L261,259L265.2,270.9z M364.9,376.7c-3.9,2.9-7.3,5.6-11.3,8.6C360.3,384.1,363.6,381.6,364.9,376.7
	L364.9,376.7z M148.4,327l1.4-0.4l-3.7-13.8l-1.8,0.5L148.4,327z M449.3,353.6l1.7-1.3l-5.9-8.1l-1.9,1.4L449.3,353.6z M441.7,365
	l1.1-1l-8.8-10.8l-1.4,1.2L441.7,365z M196.5,345.1l-2.2,0.4l2.2,11.7l1.4-0.3L196.5,345.1z M228.1,308.5l-2.3,0.4
	c0.7,3.7,1.4,7.4,2.1,11.1l1.5-0.3L228.1,308.5z M353.1,380.5c-0.4-0.5-0.8-1.1-1.1-1.7l-9.4,5.7c0.2,0.4,0.5,0.8,0.7,1.2
	L353.1,380.5z M443.9,406.5l1.2-0.9l-6.3-9.2l-1.7,1.2L443.9,406.5z M370.3,381l-1.2-1.7l-8.9,6.4l0.9,1.2L370.3,381z M418.1,390.5
	l1.3-1.4l-7.5-6.4c-0.5,0.5-0.9,1-1.4,1.5L418.1,390.5z M490.9,410.2l-1.8,1.6l7,7.9l1.2-1.1L490.9,410.2z M152.5,318.9l-2.1,0.6
	l3.1,9.8l1.4-0.4C154.1,325.5,153.3,322.2,152.5,318.9z"/>
<path class="st1" d="M388.5,483.4c2.8,5,5.2,3,7.3-0.7c5.7,5.7,8.7,6.4,12.6,1.8l-1.2,4.9l0.9,0.4l3.7-6.4c0.7,2.6,1.1,4.2,1.6,6.3
	c1.2-1.9,2.2-3.6,3.8-6c-0.5,7.3-1.6,8-7.3,8.1c-17.2,0.5-33.4-6-50.1-7.8c-15.6-1.7-30.6-4.6-44.8-11.1c-6.8-3.1-13.4-6.5-20.2-9.8
	l6-2.8l-0.3-1.9c-11.2,4.1-19.9-2.4-29.1-6.3c-23.2-10-44-24.1-64.6-38.6c-0.8-0.7-1.6-1.5-2.2-2.3l0.9-1.1l6.2,4.4l0.4-0.5
	l-9.4-15.5c0.4,2.5,0.8,4.3,1.1,6.1l-1.2,0.6l-6-10.7l-1.8,3.5c-2.3-3.9-4.4-7.3-7-11.6c0.3,2.8,0.5,4.5,0.8,6.2l-1.1,0.6
	l-15.9-22.2l1.4-1.1l6,8.6l0.8-0.5c-2.3-4.2-4.7-8.4-7-12.6l1.6-0.9l7.4,12.7l1.2-0.2l-1.4-9.3l0.8-0.3l14.3,23l1.5-0.8v-7l8,11.7
	c-0.2-2.7-0.3-4-0.4-5.4c4.8-0.4,5.7,3.1,7,6.3c1.2,2.8,2.6,5.5,4,8.2l1.6-0.7c-1.2-2.5-2.5-4.9-3.9-7.6c5.1-0.2,7,2.3,8.4,6
	c0.6,1.6,3.1,2.6,4.7,3.9l1-0.9l-8.6-13.8l1.4-0.8c4.6,5.7,8,12.2,10.1,19.2c0.6,2.3,2.2,4.4,3.3,6.6l1.9-0.8c-0.7-2-1.3-4-2.2-6.6
	l4.9,2.8l-8.6-12.3c7.4,5.3,10.9,12.9,13.5,21.3c-0.2-1.3-0.5-2.7-0.9-5.6l10.3,10.4c-0.3-0.8-0.5-1.7-0.5-2.6
	c0-0.9,0.5-1.8,1.2-2.3c0.8-0.2,1.7,0,2.4,0.5c3,2.9,5.8,5.9,9,9.2c-1.5-3.6-2.8-7-4.2-10.4l1.6-1l10.2,13.8c0.2-0.5,0.6-1.9,1-3.2
	c1.4,0.8,3.2,1.4,4.3,2.5c2.4,2.6,4.5,5.5,7.1,7.9c-5.7-9.9-14.2-17.9-17.8-29c5.9,12.9,20.3,20.2,23.8,35.1l-0.4-4.5l0.9-0.5
	l7.5,10l-2.6-9.1l1.4-0.7c1.7,2.5,3.7,4.8,5.1,7.4s2.1,5.7,3.1,8.6l1.5-0.5c-1.6-5.6-3.2-11.2-4.9-16.8c8.8-0.3,6.5,8,10.4,13.3
	c-0.3-3.2-0.5-5-0.7-7.2l4.9,2.9l-0.1-0.2l3.8,4.9c0.3-1.8,0.5-2.9,0.8-4.4l4.9,4.4l1.5-0.6c-0.9-2.7-1.5-5.5-2.9-8
	c-1.4-2.6-3.5-4.9-5.3-7.2l1-0.8l7.5,9l0.7-0.4l-5.2-10.3l0.8-0.7l5.1,5.8l-0.2-0.2c1.4,2.7,1.9,6.4,6.6,4.2
	c0.5-0.2,2.1,1.1,2.7,2.1c2.1,3.2,3.8,6.7,5.9,9.8s1.9,5.8-1.6,8.3c-2-1.1-4.3-3.7-6.1,0.4c-4.2-3.9-8.4-5.9-12.2-3.9l-9-6.7
	c0.6,3.4,1.7,5.8,1,7.4s-3.1,2.7-4.4,4.6l7.6-2.8c-1.5,2.1-2.3,3.1-3.4,4.7l4.7-1.2c-0.2,0.4-0.4,0.8-0.5,1.2c2.4,1.7,4.6,3.8,7.2,5
	c4,1.8,8.1,3.5,12.3,4c1.7,0.1,3.4,0.3,5,0.6c2.1,0.6,4.2,1,6.9,1.6c0,0.1,0.2-0.5,0.6-1.8c3.1,3.8,6.7,5,11.3,3.2
	c1.4-0.6,3.3,0.1,5.2,0.2v-1.9l1.1-0.8l4.4,6.6l1.2-0.8l-1.1-4.3l8.6,8.1l0.7-0.4l-3.3-5.5l1-1l5.9,3.4L388.5,483.4z M265.3,443.2
	l11.4,7.5l0.4-0.7l-4.4-6.3l16.3,11.9l1-1.3l-12.4-13c0.4,1.7,0.6,2.8,1,4.9l-5.1-5.5c-0.4,0.5-0.7,1.1-1,1.6l-5.7-9.4l-1.3,0.6
	l3.9,9.4l-0.7,0.4l-6.4-7.4l-0.5,0.5C263,438.7,264.2,440.9,265.3,443.2l-15.1-16c1.2,3.9,2.6,7.8,5.3,10.4S262,441.4,265.3,443.2z
	 M210.8,403.5c1.8,11.4,9.5,17.8,20.1,22.8l-12.2-16.6l-0.4,0.1c1.2,2.8,2.4,5.5,3.5,8.3c-2.6-1.7-4.9-3.9-6.6-6.5
	C213.6,409,212.1,406.3,210.8,403.5L210.8,403.5z M232.3,421.2c1.2,2.1,2,4.3,3.6,5.8c4.3,4,8.8,7.7,13.3,11.4
	c0.1,0.1,0.5-0.2,0.9-0.4c-2.4-3.7-3.3-8.1-9-9.3C237.9,427.9,235.4,424,232.3,421.2L232.3,421.2z"/>
<path class="st1" d="M426.3,490.1l2.5-3.3c6.9,6.4,7.5-2.7,11.7-4.9l1.9,5.2c1.7-2.5,3.3-4.9,4.9-7.2l1.9,0.5
	c-0.4,2.5-0.7,4.9-1.3,8.8c2.3-3.3,3.8-5.7,5.5-7.9c1-1.2,2.1-2.4,3.2-3.4c-0.1,1.5-0.2,2.9-0.3,4.3c0,0.4,0,0.9-0.1,2.1l3.8-4
	c1.5,2.7,2.7,5,4.1,7.5c0.9-1.1,2-2.6,3.3-4.3l3.1,1.5c1.1-1.4,2.3-2.7,3.6-4.3l6.9,6.6l5.9-5.1c1.6,2.3,3.1,4.1-0.7,5.4
	c-22.3,7.5-45,7.8-68.1,4.7c-0.3,0-0.5-0.4-0.9-0.6l4.3-7.7c0.6,1.8,1,3.2,1.6,5.2c1.2-2,2.2-3.6,3.2-5.3l1.2,0.5
	c-0.6,1.8-1.2,3.6-1.8,5.5L426.3,490.1z"/>
<path class="st1" d="M176.6,392.5c-8-5.5-15.8-11.3-24-16.5c-4.3-2.8-7.6-6.9-9.2-11.8c-4.4-11.6-9.3-22.9-14.1-34.3
	c-0.4-1-1.8-1.6-2.8-2.4l-5.5-9.2c5.2,3.3,14.9,16.4,17.9,23.5c3.5,8.4,7,16.8,11,25c1.5,2.7,3.7,5.1,6.3,6.8
	c6.9,4.9,14,9.5,21,14.2c2.3,1.5,4.5,3.1,6.8,4.7l-1.7,1.9L176.6,392.5z"/>
<path class="st1" d="M490.8,484.8c3-0.4,6.4-1.9,8.9-0.9c3.7,1.4,5.1-0.2,7-2.4c0.8-1,1.8-1.8,2.7-2.7l1.1,0.7
	c-0.3,1.3-0.6,2.6-0.9,3.9c1.7,1.6,9.2-0.5,11.6-3.2c4.3,3.3,4.9,3.2,10.1-2.8c1.2,0.9,2.2,1.8,3.3,2.9c1,1.2,1.9,2.5,2.8,3.8
	C531.1,487.5,502.2,488.5,490.8,484.8z"/>
<path class="st1" d="M496,350l6.6,8.5l-0.9,1l-12.4-10.6l-1.4,1.6c2.4,1.9,4.9,3.8,7,5.9c0.9,0.9,1.1,2.5,1.6,3.8
	c-1.2-0.3-2.9-0.2-3.7-1c-3.9-3.6-7.6-7.4-11.4-11.2l1.2-2.3c6.6,1.3,13.3,2.5,20,3.9c2.4,0.5,4.7,1.7,7,2.4c3.4,1,3.7,2.7,1.4,5.9
	l-6.8-6.4l-0.9,0.6c0.5,1.3,1.1,2.6,1.7,3.9l-0.6,0.7l-7.2-8L496,350z"/>
<path class="st1" d="M367.6,465.4l1,5.3l-1.4,0.2c-2.6-6.4-6.8-7.8-11.1-3.3l-3.6-6.1l-4.8,4.4l1.9-7.8h4.3c3.1-3.4,2.9-3.2,5.9,0.3
	c2.3,2.7,2.8,7.5,7.9,7.1L367.6,465.4z"/>
<path class="st1" d="M194.7,385.8l-7-16.9l2.6-1l6.9,17L194.7,385.8z"/>
<path class="st1" d="M370.8,425.5c-2.2,4.7-7.9,8.5-13.4,7.7l12.4-9.1L370.8,425.5z"/>
<path class="st1" d="M317.9,447.8c-1.9-2-3.6-4.2-5.3-6.4c-1.1-2-2.2-4-3-6.1l1.5-0.9c2.6,3.1,5.2,6.1,7.6,9.3c1,1.4,2.2,3.4-1,3.9
	L317.9,447.8z"/>
<path class="st1" d="M388.7,483.6c-2-2.9-2.6-5.6,2.4-8.1c0.9,2.4,2.7,4.8,2.4,6.9c-0.4,3.4-3.1,1.4-5,1L388.7,483.6z"/>
<path class="st1" d="M373.2,442.4c0.6-2.1,0.8-2.8,1-3.3l-4.9-1.6l5.5-5l0.8,0.9l-2.2,2.7l0.4,0.7l7.9-4.6l0.8,1.4
	c-1.6,0.9-3.1,1.9-4.5,3.1C376.4,438.5,374.7,440.4,373.2,442.4z"/>
<path class="st1" d="M250.7,403.9l9.7,14.4c-0.6,0.4-1.3,0.8-1.9,1.2c-3.2-4.8-6.4-9.7-9.6-14.5L250.7,403.9z"/>
<path class="st1" d="M295.9,427.5l5.4,11l-2.2,1.1c-1.9-3.6-3.8-7.2-5.7-10.9L295.9,427.5z"/>
<path class="st1" d="M249,417.8l-7.6-10.2l2-1.5l7.3,10.4L249,417.8z"/>
<path class="st1" d="M364.2,434.5l8.6-6.3C374.1,433,369.9,436,364.2,434.5z"/>
<path class="st1" d="M160.2,348.8l8.1,7.6l-1.1,1.1C164.4,355.4,158.9,355.9,160.2,348.8z"/>
<path class="st1" d="M527.8,371.4c2.8-1.9,3.9-6.8,8.2-2.3C533.7,371.4,532.4,375.3,527.8,371.4z"/>
<path class="st1" d="M330.5,439.4l2.2-4.7c1.2,1.3,2.2,2.7,3.2,4.2c0.4,0.8,0.5,1.7,0.1,2.5c-0.7,0.6-1.6,0.8-2.5,0.6
	c-1.2-0.8-2.3-1.7-3.3-2.7L330.5,439.4z"/>
<path class="st1" d="M440.5,472.4c-0.3-1.6-0.7-3.3-1-5l3.5-0.5l0.4,5.1L440.5,472.4z"/>
<path class="st1" d="M434,476.3c3.4,1.7,5.4,3.5,1.9,7.3C433.5,481.5,431,479.8,434,476.3z"/>
<path class="st0" d="M225.8,246.6c1.9,2.8,3.7,5.6,5.7,8.6l3.1-3.6c6.8,3.3-1.3,9.1,3.4,13.6l5-10l2.9,0.3c-1,3.7-1.9,6.8-2.7,9.9
	l1.6,0.8l5.9-9.2c1.5,3.6-1.1,5.8-2.7,8.2s-5.3,4.2-3.6,8.8c4.3-2.2,7.3-6.3,8.1-11c0.5-2.7,2.5-5.6,1.7-7.8
	c-0.5-1.5-4.6-1.6-6.8-2.9c-3.3-1.8-8.4-1.7-8.7-7.5c4.9,1.7,9.5,3.2,14,4.9c3.8,1.4,5,4.2,4.3,8.2c-0.2,2,0.1,3.9,0.8,5.7
	c1.4,4.3,3.1,8.5,4.7,12.7l-1.3,0.5l-3.2-7.8c-2.4,9,6,12.8,6.3,19.6l2-0.4c-0.7-3.8-1.4-7.6-2.1-11.4l1.4-0.4l2.5,6.3l0.6-0.1
	c-0.1-1.6-0.2-3.3-0.3-5.3c7.1,2.4,2.2,11.1,8.6,14l-2.4-8.6l1-0.5l5.3,6c-0.1,0.8-0.4,2.2-0.7,4.4c5.5-3.4,3.7,2.6,6.2,3.7
	c2.7-1.3,3.3-3.5,2.4-6.4c-0.7-2.3-1.3-4.6-2.2-8c4.4,4.4,5.4,11.2,2.4,16.6l8.6-1.3c-1,1.5-2.4,2.9-2.7,4.4s0.4,3.4,0.6,5
	c1.4-0.6,2.9-0.9,4-1.8c1.4-1.1,2.3-2.7,4-4.8c0.5,2.5,0.8,3.9,1.2,6.1l3.2-3.9c1.2,3.1,2.1,5.6,3.3,8.8l6.5-7.1
	c0.4,0.3,0.7,0.6,1.1,0.9c-1,2.8-2,5.6-2.9,8.4l2.4,0.8c0.7-2,1.4-4.1,2-5.9l6.5-0.8l1.6,3.8c3.1,0.9,5.5,1.6,7.8,2.2
	c0.6,0.1,1.6,0.1,1.7-0.1c0.4-0.6,0.5-1.4,0.3-2.1c-0.6-1.5-1.5-3-1.5-4.8c2.3,2.5,6.6,3.9,3.8,8.8c-0.7,1.3,0.2,3.5,0.4,5.3h1.6
	l1-5l12.1,3c0.2,0.6,0.9,2.6,1.8,5l4.1-2.2l1.1,4.1l1.3-0.1c-0.1-1.9-0.2-3.7-0.4-5.5l1.1-0.8l5.1,6l3.2-3l4.6,10.8
	c0.7-1.8,1-3.3,1.8-4.3c1.3-1.5,2.9-2.7,4.6-3.5c0.7-0.2,2.5,1.4,3.2,2.5c3,5.5,5.6,11.2,7.9,17l-11-15.5
	c-1.1,7.5,5.9,10.6,8.2,16.5L380.9,333c-1.2,1.7-1.2,1.7,4.4,12.2l-8.8-9.5c-0.3,2.1-0.5,3.4-0.6,4l-6.5,1.3l0.3-0.9l-24.6-4.9
	l-0.5,1.4c-1.5-2.4-2.8-4.9-4.5-7.1c-0.7-0.9-2.1-1.1-3.2-1.7c-0.4,1.2-0.7,2.3-1,3.2h-8.4l5.4-3.4l-2.6-4.5l-1,0.4
	c0.1,1.3,0.3,2.7,0.6,5.4c-1.8-2.5-2.7-4.2-4-5.5c-1.1-0.9-2.4-1.6-3.7-2.2c-0.6,1.4-1.1,3-1.4,4.5c-0.1,1.2,0.6,2.4,1.1,4.2
	c-5.1-2.6-1.9-11.7-10.1-10.5c0.4-0.4,0.7-0.8,1-1.3c0.6-1.3,1.2-2.6,1.8-3.9c-1.3,0.2-2.6,0.5-3.9,0.9c-1.6,0.8-3.2,1.8-4.7,2.8
	c-2.2,1.3-4.4,3-5.8-1c-0.2-0.6-1.6-0.8-2.5-1c-3-0.8-5.6-1.8-7.2-5c-1-2.2-3-4.1-6.1-2.2c-1.2,0.5-2.5,1-3.8,1.2l2-3.4l-4.9-4.9
	c-0.5,0.9-1.4,2.4-2.2,4l-4.5-0.9c0.4-0.7,0.9-1.7,2.2-3.8c-8.2,4.2-7.8-2.5-9.8-5.9c-6,0.7-8.5-2.2-7.3-9.9
	c1.6,3.4,2.6,5.8,3.7,8.1h1.3c0.2-1.3,0.9-2.7,0.5-3.8c-0.8-2.7-2.3-5.1-3.2-7.8c-1.5-4.5-2.6-9.1-3.9-13.6l-1.4-0.1l-1.3,15.8
	l-0.9,0c-0.2-3.7-0.4-7.3-0.6-12l-8.4,7.8V272l-4.4,4.6c-0.8-2.1-1.4-4-2.1-5.9h-1c-0.1,1.6-0.3,3.1-0.5,5c-2.9-1.8-3-7.6-8.3-5.9
	c-0.2,0.1-1.1-2.9-2-4.2c-1.7-2.8-2.3-7.8-8-4.1c-0.9-2.2-1.8-4.4-2.6-6.6l-2,2.1c0.4-2.3,0.7-4.6,1.3-8.3l-6.5,4.9v-7.9l-5.8,1.3
	l4.6-6.1l4.2,5.2c2.4-4.2,3.9-2.5,5.1,0.7l5.7-5.4c1.3,5.9,2.3,10.9,3.4,15.8l1.5-0.1v-10L225.8,246.6z"/>
<path class="st0" d="M306.6,357.1c-1.3-3.4-2.7-6.8-4.1-10.1l-1.1,0.3v4.9l-0.9,0.3l-7.5-13.3l-0.9,5.4c-3.5-2.3-0.7-9.7-8.4-9.3
	c0.7,2.9,1.4,5.5,2,8.1l-0.9,0.3l-3.9-9l-1.4,0.4c0.5,2.9,1,5.7,1.5,8.6l-0.8,0.2c-1.6-4.9-3.1-9.7-4.7-14.6l-1.9,0.3
	c-0.2,3.3-0.3,6.6-0.5,9.9l-0.9,0.1c-0.3-3-0.4-6.1-0.9-9.1c-0.3-1.5-1.3-3-2-4.5c-0.8,1.5-1.5,3.1-2.1,4.7c-0.3,1-0.1,2.3-1,3.6
	c-0.4-2.8-0.9-5.5-1.3-8.3L264,326v7.3l-0.9,0.1l-2-8.7l-4.8,2.1l-1-13.3l-1.3-0.3c-0.5,2.1-1,4.1-1.5,6.2H252
	c-0.4-3.4-0.8-6.9-1.3-10.3l-1.2-0.1l-1.4,5.4c-0.8-2.3-1.5-4-2.1-5.8l-5.2,1.9c-0.1-0.9-0.1-1.9,0-2.8c0.3-3.3-0.1-5.4-4.4-5.2
	c-1.4,0.1-3-2.5-5.2-4.5l-2.1,2.2c-0.1-2.7-0.3-5-0.5-8.8l-3.6,4.1c-0.4-1.9-0.7-3.7-1-5.5c-0.2-1.2-0.4-2.4-0.6-3.6l-2.6,2
	l-13.8-9.9c-0.2-1.1-0.5-2.8-0.8-4.5l-0.9-0.1l-1,2.7c-1.8-1.4-4-2.6-5.5-4.3c-1.1-1.3-1.4-3.3-1.9-5c-0.7-2.2-1.2-4.5-1.9-6.7
	l-1.2,0.3c0.1,2.2,0.3,4.5,0.4,7.1c-0.8-0.5-1.4-0.6-1.4-0.9c0-5.1-3.3-6.9-7.5-8.7c-2.5-1.1-3.9-4.8-5.5-7.4
	c-0.6-1-0.7-2.4-1.3-4.8c-1,2.3-1.5,3.5-2.1,4.9c-0.4-0.5-0.8-0.8-0.8-1.1c0.1-2.2,0-4.3-0.1-6.5c-0.2-1.3-1.2-2.4-1.8-3.7
	c-0.9,1-1.7,2-2.4,3c-0.4,0.6-0.5,1.5-1.6,2.2v-11.8l13.9,2.4l-0.1,1.2l-5.3,0.4l-0.4,1.3l10.1,5h-4.9c-0.2,0.5-0.4,1-0.6,1.5
	l16.7,5.9l-0.1,0.9l-5.6-0.9c-0.1,0.5-0.2,1-0.4,1.4l14.4,3.2l-0.2,1.2l-10.5-1.4c0.2,3.3,0.8,4.8,4.2,3.9s6.4-0.4,6.6,4.4
	c0.1,1.5,1.1,3,1.6,4.5l1.5-0.5l0.8-4.9l1.2-0.1c0.3,1.9,0.7,3.7,1.2,6.5l1.4-2.7c2.3,1.6,4.6,3.3,6.7,5.2c1.1,1.1,1.4,2.9,2.4,4.8
	l3-1.9l3.1,4c-0.9,1.1-1.8,2.2-2.6,3.4c-0.1,0.2,0.9,1.4,0.9,1.4c1.3-0.7,2.5-1.5,4.6-2.7c-0.5,3.2-0.9,6-1.2,8.8
	c-0.1,0.7,0.7,1.5,1.1,2.3c0.5-0.5,1.1-0.9,1.6-1.3c0.8-0.6,1.8-1.8,2.2-1.6c2.2,1.1,4.4,2.3,6.4,3.7c1.8,1.1,3.4,2.4,5.1,3.7l1-0.8
	l0.8,8.7l3.1-4l3,5.2L254,307l14.6,3.1c0.1,1.5,0.3,3.7,0.5,6.4c-0.4-0.4-0.2,0,0,0c7.7-0.8,7.7-0.8,8.4,7.2
	c0.1,1.2,0.8,2.2,1.8,2.8v-7.8c3.9,1.9-0.6,8.9,6.2,8.6c0.1-2.2,0.2-4.1,0.4-7.4c3.3,4.9,1.6,10.5,5.3,13.7l1.4-0.4
	c-0.3-2.6-0.7-5.3-1.1-8.1c6.7,2.2,5.2,8.7,8,12.9l0.5-4.5l0.9-0.2l3.2,10.8l1.4-0.4c-1.2-4.3-2.3-8.7-3.5-13l1.7-0.5
	c2.5,8.5,5,16.9,7.5,25.4l-0.9,0.4c-1.3-3.1-2.7-6.1-4-9.1l-1.3,0.4l2.6,9.3L306.6,357.1z"/>
<path class="st0" d="M162,283.3l18.3,18.3l-0.5,0.6l-3.3-2.2l-11.3,1.3c0.1,0.6,0.4,1.6,0.6,2.5l-9.5-4.5l-0.7,1.1
	c0.5,0.8,1.1,1.6,1.6,2.4l-0.6,0.5c-1.2-0.8-2.3-1.7-3.5-2.4s-3-2.3-3.9-1.9c-7.5,2.8-10.2-4.1-14.1-7.4s-7-8.4-9.9-13
	c-0.9-1.5-0.7-4.1,0-5.9c0.2-0.6,3.2-0.3,4.9-0.4c3-0.1,6-0.3,9-0.4c0.6,0.1,1.2,0.2,1.7,0.4c2.1,0.3,4.3,0.5,6.5,0.7l0.2-1.2
	c1.8,2.5,3.3,5.2,5.4,7.4c0.8,0.8,2.8,0.4,4.8,0.6l-1.7-7.5l1.3-0.7c1.9,4.6,2.2,11,9.7,10L162,283.3z M140.7,291.9l0.7-1.5
	l-8.6-9.8c-0.8-1.6-1.8-3-3-4.3c-0.8-0.7-1.7-1.4-2.6-2.1c-0.1,1.4-0.7,3.1-0.1,4c2.9,4.4,6.1,8.6,9.5,12.6
	C137.3,291.7,139.3,291.5,140.7,291.9L140.7,291.9z M139.5,283.7c2.5,7.1,5.5,9.5,11.7,8.6l-6-2.9
	C146.8,284.4,143.6,284.1,139.5,283.7L139.5,283.7z M156.8,288.1l8.4,4l0.7-1.5C164.1,287.2,162,284.5,156.8,288.1L156.8,288.1z"/>
<path class="st0" d="M140.3,253.8l7.9-1.1c0-0.4,0.1-0.9,0.1-1.3l-5.5-2.2l0.1-1.1h10.2l0.2-2l-8.6-1.3c4.2-4.1,9.3-4.5,14.5-4.4
	c0.5,0,1,0.1,1.4,0.4c9.5,8.2,18.9,16.4,28.4,24.6c0.3,0.2,0.3,0.8,0.5,1.5c-8.4-3.1-12.5-13.5-22.4-13.4l-0.9,1.8l6.4,2.9
	c-0.1,6,5.5,3.7,8.9,5.2l-1.5,1.6l14.7,11.4c-10.9-1.8-22-2.8-32.4-6c-3.8-1.1-7.6-3.6-12.2-3.3l0.1-1.2l4.3-1.1l0.3-1.4l-13-1.5
	l5.6-2.1l-0.1-0.7h-6.3l2.5-2.9l-3.6-1.2C140.1,254.5,140.2,254.1,140.3,253.8z M187.7,273.6c-6-5.6-17.4-7.8-23.5-4.5L187.7,273.6z
	"/>
<path class="st0" d="M172.6,328.2l7.2-4.1l1.9,2.4c0.9-1.5,1.8-3.1,3-5.1l5,6.2l1-0.5l-1-4.4l0.7-0.5l3.1,4.2l0.7-0.3
	c-0.2-1.1-0.5-2.2-1-4.6l5.7,6.3l1-0.7c-0.4-1.7-0.8-3.5-1.2-5.2l0.8-0.4l4.4,5.8l0.8-0.4c-0.4-1.7-0.9-3.3-1.3-5l1-0.5
	c1.6,2.1,3.2,4.1,5.1,6.7l2.6-4.1l7,9.5l0.8-0.5c-1.1-2.3-2.2-4.5-3.2-6.8c4.8,1.6,4,9.5,11.4,8.2L226,328l1.2-0.5
	c2.3,3.8,4.6,7.5,6.9,11.3l-1,0.6l-6.3-4v32l-1,0.1c-0.4-5.8-0.9-11.6-1.1-17.4c-0.2-3.3,0.3-6.7-0.1-10c-0.3-1.5-1.2-2.8-2.6-3.4
	c-1.6-0.5-3.6,0.2-6.8,0.6l-8.4-2.7L206,336l5.5,3.7c-6.7-1-12.1-1.8-17.4-2.6c-2.9-0.5-5.9-1.7-8.7-1.3c-4.3,0.6-5.4-2.4-7.6-4.6
	C176.6,329.9,174.6,329.3,172.6,328.2z"/>
<path class="st0" d="M157.4,318.2l4.1-1.3l-2.8-5h5.2l-8.1-3.4c0.1-0.5,0.2-0.9,0.3-1.3c13-1.1,26.1-3.1,39.1,1.6l-6.9-0.3l14.1,9.3
	C186.9,321,172.8,319.8,157.4,318.2z"/>
<path class="st0" d="M396.3,411.8l-10.8-4.8l0.2-0.5c-0.1,0-0.4-0.1-0.4-0.1c-0.3,0.7-0.6,1.4-1,2.3l-13.2-8.1l-1.8,2.2l-7.4-8.4
	l0.6-0.9l14.4,7.5l-2.4-3.6C382.6,400.9,391.7,402,396.3,411.8z"/>
<path class="st0" d="M445.8,421.3c-2.3-0.5-5.3-0.2-6.7-1.5c-3.9-3.6-7.9-2.9-12.4-2.3c-2.9,0.3-5.8-0.3-8.3-1.7
	c-3.7-2.3-6.9-5.6-10.4-8.6c3.7,1,7.8,1.2,10.6,3.2c5.9,4.1,12.9,1.9,18.9,4.1c3.2,1.1,6,3.3,8.9,4.9L445.8,421.3z"/>
<path class="st0" d="M309.4,332.2c1.6,2.9,3.5,5.7,4.9,8.7c3.3,7.1,6.5,14.4,9.2,20.5l-2.8-3.8l-2.8,4.2c-3.9-10.1-7.5-19.2-11-28.4
	L309.4,332.2z"/>
<path class="st0" d="M359.8,397.4L352,390c7.5,2.7,10.8,10,15.9,15.6l-8.2-4.3l-0.5,0.7l4.3,4.8l-0.9,1L343,390.1l0.7-1l14.7,9.9
	L359.8,397.4z"/>
<path class="st0" d="M369.8,365.1c-3.3-5.5-6.6-11-9.8-16.5c-0.2-0.4,0.2-1.1,0.4-1.9l14.4,22c-6,1.5-20.5-14.2-19.6-21.4
	c4.4,6,9,12.4,13.6,18.8L369.8,365.1z"/>
<path class="st0" d="M284.8,351.6c3,3.9,5.3,8.7,9.2,11.3c4,2.7,9.5,3.3,14.3,5.5l-7.6-1l-0.3,1.1l10.7,3.2
	C299.4,373.7,288.8,365.8,284.8,351.6z"/>
<path class="st0" d="M263.3,382.9v-21.6c4.2,0.4,6,2.8,5.9,7.3c-0.2,7.6,0,15.2,0,23.4c-1-9.7-1.9-19-2.9-28.2l-1.6,0.1v18.9
	L263.3,382.9z"/>
<path class="st0" d="M344.2,346.4c1.5,0.5,3.7,0.6,4.6,1.7c4,4.8,7.6,9.9,10.8,15.3l-10.2-11l-1.4,1.4c5,5.2,10,10.4,15,15.5
	c-8.4-5.5-15.8-11.8-19.6-21.3L344.2,346.4z"/>
<path class="st0" d="M247.9,372.2c-1.2-8.7-2.5-17.3-3.7-26l1.7-0.4c0.5,1.5,1,3,2,5.7c0.5-3.7,0.9-6.2,1.3-8.7l0.9,0.1v29.2
	L247.9,372.2z"/>
<path class="st0" d="M348.8,364.4c-9.2-1.5-20.8-14.9-20.6-22.6l9.9,15.8l1-0.6l-5.2-11.9l1.3-0.6c1.7,3.5,3,7.1,5.2,10.3
	S345.5,360.8,348.8,364.4z"/>
<path class="st0" d="M401.5,332.4c0.9,0.8,2.1,1.3,2.7,2.3c3.2,5.1,7.9,6,13.6,5.9c3.3,0,5.3,3.3,6.9,6l-0.9,1l-4.8-3.4v2.7
	c-9-0.7-13.6-7.3-18.7-13.2C400.8,333.3,401.2,332.8,401.5,332.4z"/>
<path class="st0" d="M467.5,405.3l3.7,8.4c-7.8-4.7-16.2-7.9-19.8-16.6l1.1-1.1l6.6,7.9v-4.6l1.1-0.4l4.2,8.7l0.7-0.2
	c-0.5-1.8-0.9-3.5-1.3-5.3l1.1-0.5l2.8,4L467.5,405.3z"/>
<path class="st0" d="M460,454.5l-12.5-11.8l-0.8,0.7c2.8,4.3,5.6,8.5,8.5,12.8l-1,0.7l-14.4-18.9l1.1-1c3.6,2.1,7.6,3.9,10.8,6.6
	c3.5,2.9,6.1,6.7,9.2,10.1L460,454.5z"/>
<path class="st0" d="M379.5,348.8l9,15.7l1.1-0.5l-4.9-12.2l1.2-0.5l11.3,20.8C388.4,366.8,381.1,359.8,379.5,348.8z"/>
<path class="st0" d="M319.3,400.5l5.1,12.5l-1.1,0.5c-1.1-2.4-2.4-4.8-3.4-7.2c-1.5-3.3-2.7-6.8-4.3-10.1c-1.5-3-0.9-4.7,2.8-5.4
	c3.1,7.1,6.2,14.3,9.3,21.5l-1,0.5l-6.2-12.9L319.3,400.5z"/>
<path class="st0" d="M415.1,371.8c-7.2-3.9-12.2-9.8-16.4-16.4l1.3-1.4l22.4,19.5l-0.8,1.1l-14-11.5l-0.8,0.9L415.1,371.8z"/>
<path class="st0" d="M312.7,408.7c-1.8-6.2-3.6-12.4-5.2-18.6c-0.2-0.8,1-1.9,1.6-2.9c0.8,0.6,2.1,1,2.4,1.8
	c2.9,7.6,5.3,15.4,7.4,23.2l-6.7-14.4l-0.5,0.1l2,10.5L312.7,408.7z"/>
<path class="st0" d="M314.8,380.1c5.8,2.5,12.5-0.5,17.1,5.2c0.3,0.4,1.4,0.3,1.8,0.7c1,1,1.9,2.2,2.9,3.4c-1.6,0.4-3.7,1.6-4.9,1.1
	c-5.6-2.5-11-5.5-16.4-8.4C315,382,315.1,381.5,314.8,380.1z"/>
<path class="st0" d="M218.5,302.8c-7.2,2.1-9.7,1.1-13.1-4.4c-0.6-0.9-2.1-1.4-3.3-1.8c-3-1-6.1-1.7-9.1-2.6
	c-0.2-0.1-0.4-0.5-0.4-1.3C201.8,293.7,210,297.4,218.5,302.8z"/>
<path class="st0" d="M327.2,390.8c4.6,7.5,9.2,14.9,13.9,22.4l-1.3,0.8l-9.1-14.8l-1.1,0.5l6.3,14.2l-1.4,0.6
	c-3.2-7.5-6.5-15-9.7-22.4L327.2,390.8z"/>
<path class="st0" d="M358.3,412.4l-10.6-12.1l-1.1,1l6.9,10.6l-0.9,0.6c-4.1-5.3-8.2-10.7-13-17c10.7,1.7,14.2,10,20,15.5
	L358.3,412.4z"/>
<path class="st0" d="M418.7,349.5l2.9,3.1c0.7,0.7,1.2,1.8,2,2.1c6.7,2.7,7.8,3.6,11.4,10.6c-1.4-1.4-2.8-2.7-4.1-4.1
	c-1.5-1.6-2.9-3.2-4.3-4.8l-1,0.8l7,8.5l-1,0.8c-4.8-5.2-9.5-10.4-14.3-15.6L418.7,349.5z"/>
<path class="st0" d="M165.4,338.5c-7.3-2.4-7.5-8.6-8.9-14.2C161.6,323.4,161.6,323.4,165.4,338.5z"/>
<path class="st0" d="M210,346c0.4,6.1,0.8,11.2,1.2,16.4l-1,0.1c-0.5-2-1-4-1.5-6l-0.8,0.1v6.6l-1.4,0.1c-0.3-4.9-0.7-9.8-0.7-14.7
	C205.9,347.9,208.1,347.2,210,346z"/>
<path class="st0" d="M392.7,401.7c5,6,14.7,5.5,18.2,13.5l-1.1,1.5l-18.2-13.4L392.7,401.7z"/>
<path class="st0" d="M242.1,339.8c0.7,10.8,1.3,21.7,2,32.5l-1.4,0.1c-0.9-10.8-1.8-21.7-2.7-32.5L242.1,339.8z"/>
<path class="st0" d="M199.9,283.8l-32.1-6.3l0.3-1.2C179.1,276.8,189.6,279.7,199.9,283.8z"/>
<path class="st0" d="M313.9,298.9c0.7-0.5,1.4-1.5,2.1-1.4c2.7,0.2,5.3,0.7,7.8,1.6c3.1,1.4,6.1,3,9,4.7l-0.5,1.1
	c-5.2-0.9-10.5-1.7-15.6-2.9c-1.2-0.3-1.9-2.1-2.9-3.2L313.9,298.9z"/>
<path class="st0" d="M466.4,419.5c-9.3,5.7-15.9,1.2-22-5.2c3.5,1.9,7.2,3.5,10.9,5c1.6,0.6,3.8-0.5,5.7-0.5
	C462.8,419,464.6,419.2,466.4,419.5z"/>
<path class="st0" d="M537.7,453.6l15.5-5.8c0.2,0.4,0.5,0.7,0.7,1.1c-1.9,2.1-1.8,6.1-7,5c-2.6-0.5-5.6,0.9-8.5,1.4
	C538.2,454.7,537.9,454.2,537.7,453.6z"/>
<path class="st0" d="M403.9,399.5l-4.1-9.3l1.1-0.4l-10.4-8.8c6.5,0.2,11.6,7,14.8,17.8L403.9,399.5z"/>
<path class="st0" d="M255.4,351.2v30.1l-0.2,0.1l-2.2-30L255.4,351.2z"/>
<path class="st0" d="M184.9,285l-11.1-2.2c0.1-0.7,0.3-1.4,0.5-2.1l30.9,7.1c-0.1,0.4-0.1,0.7-0.2,1.1l-20.2-4L184.9,285z"/>
<path class="st0" d="M313.8,298.7c-0.2,0.9-0.3,1.9-0.4,2.5l-10-4.8l0,0c-0.9-2.3-1.8-4.7-3-7.9l13.6,10.4L313.8,298.7z"/>
<path class="st0" d="M236.2,368.7v-30.1l1.8,0.1C237.4,348.2,236.8,357.8,236.2,368.7z"/>
<path class="st0" d="M388.8,370.6c-6.9-5-15.2-16.4-15.7-22L388.8,370.6z"/>
<path class="st0" d="M264,345.4c-4-5.6-14-6.2-13.2-15.9l4.4,7.9C262,335.8,261.2,342.8,264,345.4z"/>
<path class="st0" d="M259.4,383.7v-26.9l0.9-0.1v26.9L259.4,383.7z"/>
<path class="st0" d="M431.1,341.4l13.1,8.2C437.4,350.6,432.9,347.9,431.1,341.4z"/>
<path class="st0" d="M275.5,273.9c-0.1,0.8-0.2,1.5-0.6,3.8c-1.9-3.5-3.2-5.8-4.5-8.2c-0.5,0.7-0.9,1.3-1.6,2.4
	c-0.9-3-1.7-5.6-2.4-8.2l1.7-1.1c1.6,2.1,3.4,4.2,4.9,6.4c1,1.4,1.8,3,2.6,4.6L275.5,273.9z"/>
<path class="st0" d="M323,339.8c4.6,7.5,9.2,15,13.8,22.5C330.2,356,324.7,349.1,323,339.8z"/>
<path class="st0" d="M422.2,431.3l12.1,21.4l-1,0.6l-13-20.9L422.2,431.3z"/>
<path class="st0" d="M184.7,285l17.1,5.3c2.4,0.6,4.7,1.6,6.9,2.9l-27.3-5.9c1.6-1,2.6-1.7,3.5-2.3L184.7,285z"/>
<path class="st0" d="M318.1,336.2l10.2,22C323.4,354.9,317.7,343.6,318.1,336.2z"/>
<path class="st0" d="M405.1,392.7c5.8-1.3,8.3,0.2,10.6,7.9l-11.6-6.2C404.5,393.8,404.8,393.2,405.1,392.7z"/>
<path class="st0" d="M273,365.9v22.5h-0.8V366L273,365.9z"/>
<path class="st0" d="M281.7,368.8c1.3,8.3,2.5,16.5,3.8,24.8l-1.2,0.2c-1.6-8.2-3.1-16.4-4.7-24.6L281.7,368.8z"/>
<path class="st0" d="M286.5,371.7c2.1,7.7,4.1,15.5,6.2,23.2l-1.3,0.4l-7-23.1L286.5,371.7z"/>
<path class="st0" d="M277.9,391.2l-3.4-22.3l1.9-0.3l2.9,22.4L277.9,391.2z"/>
<path class="st0" d="M296.8,397.9c-2.6-6.9-5.1-13.8-7.7-20.7l1.9-0.7c2.4,7,4.8,13.9,7.2,20.9L296.8,397.9z"/>
<path class="st0" d="M303.3,296.4c-1.5-1-3.2-1.7-4.4-3s-1.9-3.3-3.7-4.6c0.4,1.7,0.9,3.4,1.3,5.1l-1.1,0.5l-4-8c4-1.5,6-0.8,7.3,3
	C299.5,291.9,301.7,294,303.3,296.4L303.3,296.4z"/>
<path class="st0" d="M441.7,455.3c-4.5-6.6-8.9-13.2-13.3-19.9l1.7-1.1l12.8,20.2L441.7,455.3z"/>
<path class="st0" d="M408.9,351.8l16.6,18.5c0.2-0.2,0.4-0.5,0.6-0.7l-19.1-16L408.9,351.8z"/>
<path class="st0" d="M509.1,418.8c-7.4,3.1-10.5-2.1-14.2-5.7l0.8-1.4l6.4,4.6C505.3,413.1,507,415.7,509.1,418.8z"/>
<path class="st0" d="M231.6,342.7v22.7l-0.9,0.1c-0.3-7.6-0.7-15.1-1-22.6L231.6,342.7z"/>
<path class="st0" d="M473.3,401.3l12.4,18.7l-1,0.7l-13.2-18.1L473.3,401.3z"/>
<path class="st0" d="M321.7,377.9c-6.7,0.7-13.5,0.3-20-1.4l0.4-2.1L321.7,377.9z"/>
<path class="st0" d="M298.5,382.5c1.6,6.7,3.3,13.4,4.9,20.1l-1.4,0.3l-5.4-19.8L298.5,382.5z"/>
<path class="st0" d="M392.8,355.7c3.9,6,7.6,11.5,11.1,16.9C398.9,370.5,392.5,361.2,392.8,355.7z"/>
<path class="st0" d="M145.1,327.4c-2-6.4-4-12.7-6-19.1l2-0.6l5.6,19.3L145.1,327.4z"/>
<path class="st0" d="M221.6,345.9c0.4,6.7,0.8,13.3,1.2,20l-1.5,0.1c-0.6-6.7-1.2-13.3-1.9-19.9L221.6,345.9z"/>
<path class="st0" d="M275.5,273.9l0.1-0.4c0.1-0.9,0.1-1.9,0.2-2.8c1.6,4.8,10.2,4.5,7.7,12.1L275.5,273.9z"/>
<path class="st0" d="M307.4,405.2c-2.1-6.6-4.2-13.2-6.3-19.9l2-0.6c1.9,6.7,3.7,13.3,5.6,20L307.4,405.2z"/>
<path class="st0" d="M390.6,395.7l-11.2-6.4C384.5,386.5,389.5,389.4,390.6,395.7z"/>
<path class="st0" d="M402.2,347.1l-10.9-16.8l1.9-1.1l10.2,17.2L402.2,347.1z"/>
<path class="st0" d="M416.5,354.2l13.5,15.2l0.4-0.4l-14.7-14.1L416.5,354.2z"/>
<path class="st0" d="M334.8,393.4l11.3,18.3l-0.9,0.6c-4-5.9-8-11.8-12-17.8L334.8,393.4z"/>
<path class="st0" d="M462.4,350.1l12.8,10.6C470.1,356.9,464.2,354,462.4,350.1z"/>
<path class="st0" d="M276.6,357.3c-8.4-4.3-8.4-4.3-8.2-9.8C270.3,352.1,277.7,350.5,276.6,357.3z"/>
<path class="st0" d="M455.6,346.9l11.4,12.7l-1.1,1l-12-12.4L455.6,346.9z"/>
<path class="st0" d="M200.6,362.6c-0.5-5.8-1-11.7-1.4-17.5l2-0.1l0.9,17.6L200.6,362.6z"/>
<path class="st0" d="M217.2,363.1c-0.4-6.7-0.9-13.4-1.4-20.1l1.8-0.1V363L217.2,363.1z"/>
<path class="st0" d="M432.1,391c-5.2-2.2-10.1-4.7-13.1-9.5l1-1.2L432.1,391z"/>
<path class="st0" d="M183.5,231.8h-16.2l0.1-1.9l16.1,1.2L183.5,231.8z"/>
<path class="st0" d="M323.7,393.6c2.6,6.3,5.3,12.7,7.9,19l-1.1,0.5c-2.8-6.3-5.7-12.6-8.5-18.9L323.7,393.6z"/>
<path class="st0" d="M490.9,421c-3.2-3.8-6.5-7.6-9.8-11.3l1.7-1.4l9.2,11.8L490.9,421z"/>
<path class="st0" d="M452,359.2l10.6,5.9C452.6,364.4,452,364,452,359.2z"/>
<path class="st0" d="M240.2,331.2c-1.4-4.7-2.7-9.4-4.1-14.1l2.1-0.5l3.3,14.4L240.2,331.2z"/>
<path class="st0" d="M467.6,405.5c0.3-0.9,0.6-1.7,1.3-3.5c2.8,5.2,5.2,9.6,7.7,14l-0.8,0.5l-8.3-11.1L467.6,405.5z"/>
<path class="st0" d="M366,348.6c2.4,4.3,4.9,8.7,7.3,13c-4.2-3.1-7.3-7.4-8.9-12.3L366,348.6z"/>
<path class="st0" d="M562.2,443.6c-1,4.3-4.6,6.7-8.3,9.1l6.9-10L562.2,443.6z"/>
<path class="st0" d="M234.6,326.6l-3.1-13.7l1.8-0.4c0.9,4.6,1.9,9.2,2.8,13.8L234.6,326.6z"/>
<path class="st0" d="M265.2,270.9L261,259l2.3-0.7l3.5,12.4L265.2,270.9z"/>
<path class="st0" d="M364.9,376.7c-1.3,4.9-4.6,7.4-11.3,8.6C357.6,382.3,361,379.6,364.9,376.7z"/>
<path class="st0" d="M148.4,327l-4.1-13.7l1.8-0.5l3.7,13.8L148.4,327z"/>
<path class="st0" d="M449.3,353.6l-6.1-8l1.9-1.4l5.9,8.1L449.3,353.6z"/>
<path class="st0" d="M441.7,365l-9.1-10.5l1.4-1.2l8.8,10.7L441.7,365z"/>
<path class="st0" d="M196.5,345.1l1.5,11.8l-1.4,0.3l-2.2-11.7L196.5,345.1z"/>
<path class="st0" d="M228.1,308.5l1.4,11.3l-1.5,0.3c-0.7-3.7-1.4-7.4-2.1-11.1L228.1,308.5z"/>
<path class="st0" d="M353.1,380.5l-9.8,5.3c-0.2-0.4-0.5-0.8-0.7-1.2l9.4-5.7C352.4,379.4,352.8,380,353.1,380.5z"/>
<path class="st0" d="M443.9,406.5l-6.9-8.8l1.7-1.2l6.3,9.2L443.9,406.5z"/>
<path class="st0" d="M370.3,381l-9.2,5.9l-0.9-1.2l8.9-6.4L370.3,381z"/>
<path class="st0" d="M418.1,390.5l-7.5-6.4c0.5-0.5,0.9-1,1.4-1.5l7.4,6.5L418.1,390.5z"/>
<path class="st0" d="M490.9,410.2l6.4,8.4l-1.2,1.1l-7-7.9L490.9,410.2z"/>
<path class="st0" d="M152.5,318.9c0.8,3.3,1.6,6.7,2.4,10l-1.4,0.4l-3.1-9.8L152.5,318.9z"/>
<path class="st0" d="M210.8,403.5c1.3,2.8,2.8,5.5,4.4,8.1c1.7,2.6,4,4.8,6.6,6.5c-1.2-2.8-2.4-5.5-3.5-8.3l0.4-0.1l12.2,16.6
	C220.3,421.3,212.6,414.9,210.8,403.5z"/>
<path class="st0" d="M272.7,443.7l4.4,6.3l-0.4,0.7l-11.4-7.5v0.1c-1.2-2.3-2.4-4.6-3.6-6.8l0.5-0.5l6.4,7.4l0.7-0.4l-3.9-9.4
	l1.3-0.6l5.7,9.4L272.7,443.7z"/>
<path class="st0" d="M272.7,443.7l-0.1-1.4c0.4-0.5,0.7-1.1,1-1.6l5.1,5.5c-0.4-2.1-0.7-3.2-1-4.9l12.4,13l-1,1.3L272.7,443.7z"/>
<path class="st0" d="M232.3,421.2c3.1,2.8,5.6,6.8,8.8,7.5c5.7,1.3,6.6,5.6,9,9.3c-0.4,0.2-0.8,0.5-0.9,0.4
	c-4.5-3.8-9.1-7.4-13.3-11.4C234.3,425.5,233.5,423.2,232.3,421.2z"/>
<path class="st0" d="M265.3,443.2c-3.3-1.8-7.2-3.1-9.8-5.6s-4.2-6.5-5.3-10.4L265.3,443.2L265.3,443.2z"/>
<path class="st1" d="M140.7,291.9c-1.4-0.3-3.4-0.1-4.1-1c-3.4-4-6.5-8.3-9.5-12.6c-0.6-0.9,0-2.6,0.1-4c0.9,0.6,1.8,1.3,2.6,2.1
	c1.2,1.3,2.2,2.7,3,4.3l8.6,9.8L140.7,291.9z"/>
<path class="st1" d="M139.5,283.7c4.1,0.3,7.3,0.7,5.7,5.6l6,2.9C145,293.2,142,290.9,139.5,283.7z"/>
<path class="st1" d="M156.8,288.1c5.2-3.5,7.3-0.9,9.1,2.5l-0.7,1.5L156.8,288.1z"/>
<path class="st1" d="M187.7,273.6l-23.5-4.5C170.3,265.8,181.7,268,187.7,273.6z"/>
</svg>
