<?xml version="1.0" encoding="utf-8"?>
<!-- Generator: Adobe Illustrator 22.0.1, SVG Export Plug-In . SVG Version: 6.00 Build 0)  -->
<svg version="1.1" id="Layer_1" xmlns="http://www.w3.org/2000/svg" xmlns:xlink="http://www.w3.org/1999/xlink" x="0px" y="0px"
	 viewBox="0 0 504 504" style="enable-background:new 0 0 504 504;" xml:space="preserve">
<style type="text/css">
	.st0{fill:#232323;}
	.st1{fill:#FFFFFF;}
</style>
<path class="st0" d="M306.1,363.4c-7.9,3.6-15.5,8.3-23.8,10.7c-11.9,3.5-24.1,6.8-36.4,8c-21.4,2.1-42.9,2.8-64.3,3.3
	c-4,0.1-8.8-2.8-12.1-5.7c-13.1-11.5-25.6-23.6-38.6-35.2c-9.1-8.2-18.7-15.9-28-23.9c-1.1-1-2-2.2-2.7-3.6
	c-7.9-18.4-16.3-36.7-23.3-55.5c-3.4-9-4-19.1-6.1-28.6c-1.4-6.8-2.5-13.7-4.8-20.2c-3.6-10.4-3.7-20.4-1.1-31.3
	c1.9-7.7,5.9-14,8.6-21.1c3.6-9.8,6.9-19.7,10.9-29.3c1.5-3.6,4.7-6.5,7.2-9.7c4.7-6,10.8-7.6,18.4-7c9.4,0.8,18.9-0.3,28.3,0
	c5,0.2,9.9,1.1,14.6,2.9c9.1,3.5,18.4,4,27.9,4.5c14.7,0.8,29.3,2.5,44,3.6c3.9,0.3,8-0.3,11.9,0c19.2,1.4,38.1,5.9,56,13.2
	c7.6,3.1,16,4.2,24,6.3c2.2,0.6,4.4,1.6,6.6,2.2c7.7,1.8,15.5,3.4,23.2,5.4c2.8,0.8,5.4,2.1,7.7,3.8c3.3,2.3,6.1,5.4,9.6,7.6
	c8.4,5.1,17,9.8,25.4,14.7s16.7,10.1,25.2,15c12,7,21.1,16.9,24.9,30c2.2,7.8,1.4,16.9,0,25.1c-1.6,9.6-5.1,18.9-8,28.3
	c-2.4,7.5-7,13.4-12.9,18.5c-9.5,8.3-18.3,17.6-28.7,24.6c-10.1,6.9-19.1,15.2-29.9,21.3c-12.3,7-25.6,9.5-38.4,14
	c-4.8,1.7-9.3,4.4-13.9,6.6l-3.4-0.4l7.2-9.6h-5l-0.4-0.2c-0.7-1.7-1.3-3.4-2.2-5.6l9.6,3.8l2.6-8.3l1,0.3l-2.5,11.5l9.5-11.1
	c0.9,2.3,1.2,3.3,1.6,4.2l1.6,1c2.6-3.1,5.1-6.2,8.3-10c-2.6,5.4-9.1,7.2-8.7,14.4c5.5-5.8,10.5-11,16.1-16.9
	c-0.6,3.3-0.9,5.4-1.5,8.8l6.8-6.9l0.4,0.5l-3.5,6.4l1.2,0.7l3.7-4.3l-1.8,4.8l0.7,0.5l10-11.9l-4.6-2.9c-2.5,3.1,0.8,8.4-4.4,9.6
	c1.5-4.6,2.9-9.1,4.3-13.6l5,2.4l0.5-0.7l-0.9-1.2l2.6-4.4c5.4,1.3,7.8-3.1,10.6-6.3c2.1-2.4,3.7-3.6,6.8-1.4
	c1.1,0.8,3.4,0.3,4.9-0.2c0.5-0.2,0.2-2.4,0.3-3.7l7,1c2.2-5.4-1.3-5.5-4.7-6l-2.2,5.2c0.4-2.3,0.7-4.5,1-6.4l8.6,1
	c-0.2-0.5,0.2,0.4,0.8,1.8c3.6-4.7-0.3-5.5-4-7.2l5.5,0.5l0.3-3.9l4.1,1.1l-1.7-4.4c1.9-1.2,3.9-2.2,6-3c3.2-1,6.6-1.5,9.9-2.1
	l-0.1-1.2l-8.4-3.1l7.1-4.4c1.4-4-5.4-1.2-2.6-5.5c1.2,0.3,2.5,0.7,3.7,1.1c0.9-4.6,1.9-9.2,2.8-13.8l-1.9-0.4l-4.7,13.3
	c0.8-4.5,1.6-9,2.3-13.5l-2-0.4c-0.9,3.8-1.8,7.7-2.9,12.2v-11.4l-1.5-0.2c-0.9,6.4-1.8,12.8-2.7,19.2l-0.4-0.1
	c0.3-6.1,0.6-12.1,0.9-18.1l-1.3-0.1l-1.2,11.7l-0.5-0.1v-13.6c11.1,0,19.9-4.8,27-13.4c-5.9-0.6-11.7-1.2-17.4-0.4
	s-11.2,3-16.8,4.6c-4.4,1.3-8,0.8-9.5-4.2c-1-3.4-1.7-6.9-2.7-10.4c-1.4-4.7-2.9-9.4-4.6-14c-0.8-2.3-2.1-4.4-3.1-6.6
	c-2.6-6.1-5.1-12.2-7.8-18.3c-0.6-1.1-1.5-2.1-2.5-2.9c-2.8-2.6-5.8-5-8.3-7.7c-4.2-4.5-8.2-9.3-12-14.2c-1.9-2.5-4.3-6.5-3.5-8.7
	c2.3-6.2-1.5-5.6-5-5.8c-1.6-0.2-3.1-0.1-4.7,0.2c-1.3,0.6-2.5,1.5-3.4,2.7c-0.2,0.3,0.5,1.7,1.1,2.3c2.6,2.4,5.2,4.6,7.8,6.8
	l-2.7,4.8c6,6.3,6,7.1,1.5,10.8c-1.4-0.5-2.4-0.8-3.4-1.1c-3.8-1-7.7-1.9-11.5-2.9c2.6-4.8-0.5-8.6-3.3-11.4
	c-2.7-2.6-6.8-3.7-10.5-0.7c0-0.6-0.1-1.2-0.1-1.7l-3.1-3.1l-3.1-5.1c0.6,0.3,1.2,0.5,1.8,0.6c1.3,0.2,2.7,0.2,4,0.3
	c-0.5-1.5-0.9-3.2-1.8-4.5c-0.4-0.6-2-0.3-3.1-0.4l-2.8,2l-4.3-1c0.1,1.5,0.1,3,0.2,4.4c-0.1,0.2-0.2,0.4-0.4,0.6l-7.1-3l-3.6-2
	c-4.6-4.4-6-4-7.5,2c-0.5,1.1-1,2.3-1.5,3.4l-2.9-1.4c-2.2-7.1-8.9-7.7-15.2-10.2v6.4c-1,0.2-2.9,0.2-4.3,1c-1.5,0.9-3,2.1-4.2,3.3
	c-1.2-0.8-2.5-2.5-4-2.7c-1.3-0.1-3.1,1.3-4.1,2.5c-1.2,1.4-1.8,3.4-2.7,5.3c-5-5-9.3-4.3-13.1,1.4c-0.6,0.8-1.4,1.9-2.2,2.1
	c-2.2,0.3-4.5,0.4-6.7,0.4c-1-1.6-1.3-5.8-4.8-0.4c-1.5,2.3-5.3,5.2-7.3,4.7c-3.4-0.8-6.1-4.2-8.2-5.8c4.9-8,13.2-7.9,19.6-12l2,1.9
	l7.6-6.7l3.1,2.6c0.9-1.6,1.2-3.5,2.4-4.2c3-1.9,6.2-3.3,9.7-5.1l5.2,2.9c-0.9-2-1.4-3-2-4.3l4.6,0.6c-2.2-3.9-4.3-7.5-9.4-5
	c-0.5,0.2-1.4-0.5-2.1-0.6c-2.9-0.3-6.4-3.2-7.9,2.1c-1.1-1.4-2-2.5-3.8-4.7c0.4,2.8,0.6,4.1,0.8,5.4l-3.6-2.2
	c-1.6-2.5-3.3-2.6-4,0.3s-1.9,3.7-4.6,2.7c-3.1,0.8-6.8,0.8-9.3,2.5c-2.1,1.5-2.9,4.9-4.3,7.6c-5.1-2.1-9.6,0-15,7.2
	c-0.3-2.8-0.6-5-0.9-7.2c4.2-3.5,4.3-5,0.2-7l-2.4,1l-2.6-0.9c0.1-1.8,1.6-4.3-2.1-4.1l-1-0.8c-3.1-0.6-4.2,1.4-4.8,4l-2.2-0.1
	l-1.4-0.1l-2.5-0.9l-0.8-1.5c0.6-1.6,1.3-3.2,1.8-4.8c0.5-1.4,0.7-2.9,1.1-4.3l-1.7-0.5l-5.3,8.2l0.1-0.1c-4.4,1-6.5,3.8-7.1,8.1
	l0.1-0.1c-3-0.2-6.5,3.2-7.1,7.1l0.1-0.1l-4.2-1l-0.3-1.6c0.3-0.7,0.3-1.7,0.8-2.2c3.5-3.3,4.5-7.4,4-12c0-0.1,0.1-0.3,0.2-0.4
	l0.3-0.4c1.7-4.1-0.3-5.8-4.2-6.1V132c-3.4-0.7-4.3,1.5-4.9,4.1l0.1,1.3l0.9,0.8c0,0.2,0.1,0.5,0.1,0.8l-2.2,3.1
	c-1.6-2.4-3.5-2.8-6-1.1c-1.1,0.7-2.7,0.7-4,1l-0.8,1.7l-0.4,1.5l-2.4,2.3l-2.1-1.5l-1-0.2c-0.1-0.9-0.1-1.8-0.2-2.6
	c0.6-0.7,1.2-1.3,1.8-2l1-5l-1.3-0.5c-0.8,1.1-1.5,2.2-2.3,3.3h-1.1l-1.6-3.3l-1.2,0.3v3c-2.8-1.1-3.8,0.5-4,2.9l-2,2.1
	c-0.7,1.5-1.5,3-2.2,4.5l1.9,2.5l1.3,0.5c-0.1,0.2-0.2,0.3-0.4,0.5l-5.1,3l-0.9-5.1c-6.1,5.6-6.1,5.6-5.6,10.7l0.1-0.2
	c-5.3,2-10.8,7.6-15.5-0.8c-3.9,5.1-3.9,6.2,0.7,9c4.3,2.5,8.9,4.5,13.2,7c8.6,5.1,14.7,12.3,15.2,22.6c0.8,14.7,3.2,28.9,9,42.7
	c4.3,10.2,8.1,21.3,5.8,32.5c-3,14.8-7.1,29.4-16.5,43c9.4,4.3,18.6,8.7,28,12.7c0.9,0.4,3.4-1.2,4.2-2.5s0-3.1-0.1-5.2l-5.4,2.8
	v-2.1c-2.6,0.1-4.9,0.3-7.2,0.3c-0.7,0-1.4-0.4-2.1-0.4c-4-0.1-4.3-1.1-1.9-7.3l-4.7,1.6c1.9-2.9,4.6-6.4,4.3-6.6
	c-3.5-3,0.6-3.9,1.5-5.5s2.2-2.7,4.3-5l-4.4,1.9c1.1-2.7,3-4.4,4.6-6.4c0.6-1,1-2.2,1.1-3.4c0.3-1.5,0.3-3.1,0.8-4.4
	c0.5-1.1,1.7-2,2.8-3.2l-3.5-1.3l9.8-11.2l-0.9-0.8l-5,3.8l-0.8-0.9l7.1-7.7v4.7l4.3-3c1.7,3.8,3.4,7.4,5,10.9
	c1,2.3,0.3,3.2-2.2,2.5l-0.8-0.7c-0.6-1-1.3-1.9-1.9-2.9c-2.4-1.5-3.4,0-4.3,2c1.9,3.4,3.7,6.8,5.6,10.2l2.4,0.9
	c0,1.1,0,2.3-0.1,3.4v-0.1c-0.2,1.5-0.4,2.9-0.7,4.8l2.9-1l0.7,0.1c0.1,0.7,0.1,1.5,0.1,2.2l1.1,4.6l2.4,6c-4.8-1.1-6.2,1.4-5.9,5.6
	c0.1,1.3,0.1,2.6,0.1,3.9L139,330.8c2.8,1,5.6,1.9,8.5,2.7c2.7,0.5,3.5,1.2,2.8,4.3s0.1,6.2,0.2,9.4l1.8-0.2l-0.7-6.2l6.5,8.4v-12.4
	c1.1,2.5,1,5,1.2,7.6c0.1,2.8,0.5,5.6,1.1,8.4c0.7,2.2,1.5,4.4,2.5,6.6l1.3-0.5l-2.6-9.3l1.3-0.3c0.6,2.7,0.7,5.6,2,7.9
	c1.5,2.6,3.8,6.1,6.2,6.4c3.5,0.4,5.6,1,6.7,4.4c0.3,1,1.5,1.8,2.7,3.1c-0.1-2.4-0.2-3.8-0.3-5.3l1-0.2c0.6,1,1.2,2,1.9,3.2
	c0.7-0.9,1.2-1.6,1.7-2.3l3,3.7l1.1-1.5c2.5,0.9,4.3,1.7,6.2,2.3c4.6,1.3,9.1,2.9,10.7,8c1.2,4,3.5,4.3,7.1,2.6l-1.8-2.3l8.3-9.8
	c0.9,0.8,2.5,3.5,4.4,3.7c3.7,0.4,6.6-3.6,6.4-7.6c-0.2-5.3-0.5-10.6-0.9-16c-0.2-2.7-0.5-5.4-0.7-8.1l-2-0.1l-0.9,9.2h-0.5
	c-0.4-2.3-0.8-4.6-1.2-6.9l-1.5,0l-1.4,7.4c-0.8-2.4-1.3-4.2-1.9-6.1l-1.3,0.2v8.8h-1c-0.3-3-0.7-6-1-9.1l-13.8-1.5
	c-0.5,5.7-0.9,10.8-1.3,15.8h-0.5V343c-1.8-0.4-3.4-0.9-5-1.2c-5.5-1-6-0.6-6,5.1c0,4.6,0,9.1,0,13.7H189v-20.7
	c3.6,0.6,7.4,1.2,11.2,1.7c9.8,1.4,19.7,4.2,28.9-2.2c0.8-0.3,1.6-0.5,2.4-0.5c-2.3,11.6-0.4,22.8,1.2,34.3c3.4-2.1,6.4-4,9.3-5.7
	l0.7,4.2l6.4-6v7.9c5-1.5,5.8-7.8,11.3-7.5c2,0,3.9-0.5,5.6-1.4c3.4-1.7,6.5-4.8,10.1-5.5c6.7-1.3,10-7.3,15.9-10.2
	c0.1,4.6,3.2,5.6,6.9,5.8l3.3,2c-0.6,1.7-1.3,3.4-2.1,5c-1.4,2.4-3.1,4.6-4.7,6.9c-2.4-1.1-2.4-2.2-0.3-3.9c1.9-1.7,3.6-3.4,5.3-5.2
	l-1.7-1.4l-8.7,10.1l1.1,0.9l4.3-0.5L306.1,363.4z M86.2,238.3l2.8,1.2l0.2-1.7l-3.2,0.6c-0.6-2.8-0.6-2.8-3.7-1.1
	C83.8,237.8,85,238.1,86.2,238.3z M99.6,144.9c-0.7-2-1.4-4-2.1-6l-1.5-3.4l-1.5,2.6l-0.8,3.6l2.9,4l-0.2,4.4l1.8,0.1l1.4-3.8
	L99.6,144.9z M415.1,216.6c0.5-2.5,1-5,1.5-7.4l-1.4-0.5c-1.6,3.2-3.1,6.4-4.7,9.5c-3.5,0.4-6,1.8-7.3,5.3c-0.5,1.2-2.6,1.6-4,2.4
	c-1.3-4.5-5.7-2.5-8.5-4c-0.1-0.1-1.2,1.2-1.1,1.2c1.3,1.5,2.7,2.9,4,4.2c-0.1,0.5-0.4,1.1-0.2,1.4c3.4,4.3,15.9,1.9,18.1-3.4
	c6.8-2.4,6.5-9.1,9.2-14l-1.2-0.9C418,212.5,416.6,214.6,415.1,216.6z M415.4,201.1l11,9.7l1.1-1v4.6l2.8-3c0.3,1.2,0.5,2.1,0.7,3.3
	c1.5-4.2-4-11-13.1-16.9L415.4,201.1z M356.8,172.1c2-0.1,3.6,0.3,4.5-0.3c5.3-3.3,7.2-3.2,12.6,1c-0.9,0.5-1.7,1.1-2.4,1.8
	c-0.8,0.9-1.5,1.9-2,3c-0.1,0.1,1.4,1.4,1.6,1.2c1.1-0.7,2.2-1.6,3-2.6c0.9-1.4,1.8-2.9,2.5-4.4C365.4,165.7,362,164.4,356.8,172.1
	L356.8,172.1z M389.9,198.8c-2.3-0.2-4.7-1-6.3-0.3c-1.3,0.6-1.7,3.1-2.7,5.2l3.8,2.1L389.9,198.8z M278.5,371.7
	c8.5,1.5,10.4,0.1,9.6-7.2l-5.1,5.8L278.5,371.7z M262.8,374.5c4.2,3.5,7.9,2.5,9.9-1.5L262.8,374.5z M356.3,161.1
	c-3.7-4.3-5.2-3.8-7.4,2.4L356.3,161.1z M93.7,236.9l-0.4-1.9l-3.3,1l0.3,1.4L93.7,236.9z M102.1,247l1.1-1.2
	c-0.4-0.4-0.8-0.6-1.3-0.8c-0.2,0-0.6,0.5-1,0.7L102.1,247z M96.8,224.7v1h2.6v-1H96.8z M101.2,259.1l-0.7-0.5l-0.6,0.9
	c0.3,0.1,0.6,0.3,0.8,0.3S101,259.3,101.2,259.1z"/>
<path class="st0" d="M319.6,181.8c-1.3,1.3-3.3,2.4-3.6,3.9c-0.7,3.4-3.3,3.1-5.5,3.7c-0.1-0.6-0.3-1.2-0.4-1.8
	c-1.8-1.5-3.6-3.1-5.5-4.7l2.3-4.4l-4.5,1.3l-2.8-1l-4,2.2h-2l-4-2l-1.9-6.7l2.9-0.4c4.8,1.3,5.4,0.8,4.7-3.7l3.4,0.6
	c-0.3,4.1,1.8,3.5,4.2,2.1l2.9-1.2c3.7-3,7.9-1.9,10.5,0.7C319.1,173.2,322.2,177,319.6,181.8z"/>
<path class="st0" d="M155.7,159.8c-2.5,2.2-4.9,4.3-7.4,6.5c-1.3,1.2-2.1,4.3-4.6,1.2c-0.3-0.4-1.7,0.4-2.5,0.2
	c-1.1-0.5-2.2-1.1-3.2-1.9c1.6-3.5,6.4-5.2,5.6-10l-0.1,0.1c0.8,0.4,2.1,1.2,2.2,1.1c1.7-2.7,3.3-5.4,5-8.2l-0.1,0.1
	c3.6,0.4,7.1-3.6,7.1-8.1l-0.1,0.1l4.1,1.4l0.8,1.5c-0.5,1.7-0.9,3.4-1.4,5l-0.8,1.8l-1.8-1.5l-1.9,4.7l-1.2,6.1L155.7,159.8z"/>
<path class="st0" d="M290.5,171.9l-2.9,0.4c-0.8,0.1-2.1,0.4-2.2,0.3c-1.5-3.8-4.2-2.6-6.9-1.9l-5-8.4c0.5-1.1,1-2.3,1.5-3.4l6-0.3
	c0.2,1.8,0.6,3.5,1.2,5.2c0.1,0.3,2.7,0.3,3-0.2c0.5-1.5,0.9-3.1,1-4.8l7.1,3c0.1,0.5,0.2,1,0.4,1.4l0.6,3.9
	C289.4,166,290.1,169.1,290.5,171.9z"/>
<path class="st0" d="M399.1,225.9c1.4-0.8,3.6-1.3,4-2.4c1.4-3.5,3.9-4.9,7.3-5.3l4.5-1.7c-1.2,3-2.4,5.9-3.5,8.9
	c-2.3,5.3-14.7,7.6-18.1,3.4c-0.2-0.2,0.1-0.9,0.2-1.4L399.1,225.9z"/>
<path class="st0" d="M100.2,167.9l-3.3,2c-0.5-3.5-0.9-6.6-1.3-9.7l-0.1,0.2l6.5-5.6l5.1-3l1.6,6.9L100.2,167.9z"/>
<path class="st0" d="M155.8,319.4l-9.4,9l-0.7-0.5l3.5-8.4c0-1.3,0-2.6-0.1-3.9c-0.3-4.2,1.1-6.7,5.9-5.6l1.6-0.1l3,3
	c0,1.5,0,3.1-0.1,4.6L155.8,319.4z"/>
<path class="st0" d="M108.8,158.8l-1.6-6.9c0.1-0.2,0.3-0.3,0.4-0.5l3.9-4.5l3-4.1h2.1l0.9,0.2c0.1,0.9,0.1,1.7,0.2,2.6l-2.1,2.9
	c-0.3,1.1-0.6,2.1-0.9,3.2l0.1,3l-4.7,4.1L108.8,158.8z"/>
<path class="st0" d="M273.5,162.3l5,8.4l-1.3,2.2l-10.2-8.9l3.6-3.1L273.5,162.3z"/>
<path class="st0" d="M298.9,354.8v-5.2l6.9,2l0.4,0.2l-4,5L298.9,354.8z"/>
<path class="st0" d="M219.5,139.8c-1.6,2.2-2.7,5-4.8,6.3c-3.1,1.9-3.9-0.6-3.8-3.3c2.7,1,3.9,0.1,4.6-2.7S217.9,137.3,219.5,139.8z
	"/>
<path class="st0" d="M139.5,154.9c1.7,2.5,1.4,4-2,3.9l0.1,0.2c0.2-1,0.4-2,0.5-3l-1.3-0.3l-1.7,3.3l-0.7-2.8l0.1-0.2l2.1-5.1
	l-0.1,0.2c0.9,0.8,1.8,1.5,2.7,2.2C139.3,153.8,139.4,154.3,139.5,154.9z"/>
<path class="st0" d="M146.2,289c-1.9-3.4-3.7-6.8-5.6-10.2l3,1.1l3,6.1L146.2,289z"/>
<path class="st0" d="M181.5,145.9l-1.9,5.1c-4.5,0.8-2.1,3.1-1.2,5.1l-1.1,1.6c-0.9-1.3-1.9-2.5-2.8-3.8l0.1,0.1
	c0.3-1.4,0.6-2.8,0.9-4.1l3.6-3L181.5,145.9z"/>
<path class="st0" d="M296.5,164l5.2,1.9c-0.2,3.5,1.9,2.9,4,2.2c0,0.6,0.1,1.1,0.1,1.7l-2.9,1.2l-3.4-3c-1-1.3-1.9-2.7-2.9-4.1
	L296.5,164z"/>
<path class="st0" d="M299.6,160l-3.2,4l0.1-0.2l-3.1-0.5c-0.1-0.5-0.2-1-0.4-1.4c0.1-0.2,0.2-0.4,0.4-0.6l4-3.4l2.8-2L299.6,160z"/>
<path class="st0" d="M153.5,290.9c0.7,1.1,1.4,2.2,2.2,3.3l-4.1,2.7l-0.1,0.1l-0.7-0.1l-0.1-2.1l-0.1,0.1l3.1-4.1L153.5,290.9z"/>
<path class="st0" d="M140.4,132.2c0.4,1.6,0.7,3.2,1.1,4.8l0.2-0.1l-3.1,1l0.1,0.2l1.7-6L140.4,132.2z"/>
<path class="st0" d="M149.6,285h-2.1c-0.3-1.7-0.6-3.4-0.9-5.1l0.2-0.1l0.8,0.7l4.6,2.9C151.4,283.8,150.5,284.4,149.6,285z"/>
<path class="st0" d="M141.4,136.9l3.1,1.4l-0.3,0.4l-4.9,3.4l2.3-5.3L141.4,136.9z"/>
<path class="st0" d="M97.5,142.8c0.7,0.7,1.4,1.3,2.1,2c0,0.6,0,1.2,0.1,1.8l-3.2-0.6L97.5,142.8z"/>
<path class="st0" d="M104.4,148.5l3.3-0.6l-1.4,3.2L104.4,148.5z"/>
<path class="st0" d="M96.6,139.9v2.1l-2.9-0.1l0.8-3.7L96.6,139.9z"/>
<path class="st0" d="M116.6,142.9l-0.1-4.1c0.9,0.8,1.9,1.5,2.8,2.3l-1.8,2L116.6,142.9z"/>
<path class="st0" d="M174.4,141.8l-0.9,3.1l0.1-0.1h-2.1l0.1,0.1c0.6-1.3,1.2-2.6,1.7-3.9L174.4,141.8z"/>
<path class="st0" d="M153.6,300l-2-0.7c0-0.7-0.1-1.5-0.1-2.2l0.1-0.1l3.1-0.1C154.3,297.9,153.9,298.9,153.6,300z"/>
<path class="st0" d="M118.7,145.9l-3.1,2.7l2.1-2.9L118.7,145.9z"/>
<path class="st0" d="M144.5,278.9l0.4-2.1c0.6,1,1.2,1.9,1.9,2.9l-0.2,0.1L144.5,278.9z"/>
<path class="st0" d="M166.4,144.8c-0.2,1-0.5,2-0.7,3.1l-3.1,0.5l2.5-3.6L166.4,144.8z"/>
<path class="st0" d="M136.5,138.1l2.2-0.1l-0.1-0.2c0,1.2,0,2.3-0.1,3.5c-0.6-0.8-1.2-1.6-1.9-2.4
	C136.5,138.6,136.5,138.4,136.5,138.1z"/>
<path class="st0" d="M150.6,294.9l-2.1-1.7v0.1l2.1-0.4c0,0.7-0.1,1.4-0.1,2.1L150.6,294.9z"/>
<path class="st0" d="M135.5,136.1c0,0.4,0.1,0.9,0.1,1.3C135.6,136.9,135.5,136.5,135.5,136.1z"/>
<path class="st0" d="M124.3,141.9c-0.2,0.6-0.5,1.1-0.8,1.7C123.8,143,124.1,142.4,124.3,141.9z"/>
<path class="st0" d="M316.2,245.5l-1.4-3.9c6.7,0.5,8.6,9.6,16.9,9.5l-3.1-5.1l0.5-0.6l8,5.4l0.9-1l-1.7-4.1
	c6.2,1.6,8.1,10,16.1,8.3l-3.2,3l7.4,1.3l-2.5,1.7l3.6,4.9H353c0.3,1.4,0.6,2.8,1,4.7c-3.5,0-7.1-0.2-10.8,0.1
	c-1.2,0.1-4.3-1.9-3.6,2c-1.6-0.7-3.2-1.5-4.7-2.4c-6.2-4.5-6.2-4.5-10.8,1l-5,1l-2-0.5l-10.2-4.6c-1.3,2.8-2.3,4.7-3.2,6.6
	l-16.3,0.6c1.3-0.9,2.4-2.4,3.8-2.6c2.2-0.4,4.7-0.1,7-0.1c0-0.5,0-1-0.1-1.5c-4.9-3.2-10-0.3-15-0.5l-0.6,1.2l4.2,3.4
	c-3.9-2.9-7.8-5.9-11.7-8.8c3.7,2.3,7.5,2.9,11.6,0.3c-1.8-1.1-3.9-1.8-6-1.9c-2.3,0.1-4.5,0.9-5.6-2.3c-0.1-0.3-2.5,0.2-3.8,0.4
	c-5.2-4.3-10.2-8.8-15.7-12.7c-4.4-3.2-7.1-7.9-10.9-11.6s-7.4-7.9-11-11.9l0.7-1.6c1.4,0.4,2.7,1,4,1.6c2,1.2,3.4,4.5,6.4,1.1
	c0.4-0.5,3.4,0.7,4.8,1.7c1.8,1.2,3.2,2.9,5.6,5.2c-0.6-1.9-0.8-2.8-1.5-5.2l14.5,10.8l1-1.1l-4.6-5.7l0.7-0.8l9.1,7.3l0.8-0.6
	l-1-3.9l15.8,8.3l-6-6.8l1-1c2.2,2,4.4,4,6.8,5.8c0.9,0.6,2.5,0.1,3.7,0.5c1.4,0.5,2.8,1.2,4.1,2c2.4,1.3,4.7,2.7,7,4.1l1-1.4
	c-0.6-1-1.2-2.1-1.7-3C309.3,243.2,312.8,244.3,316.2,245.5c-0.8,0.6-1.6,1.2-3.6,2.6l8.9,3.4c0.3-0.7,0.6-1.3,0.9-2L316.2,245.5z
	 M321.7,264l6.5,1.2c-2.1-4.5-4.6-6.2-8.4-3.1l-7.8-5.1l-0.7,1l4.1,4.5l-9.2-5.3c-0.2,3.7,6.7,9.1,9.8,8c0.3-0.1,0.3-0.9,0.5-1.3
	L321.7,264z M305.5,247.1c6.9,9.2,8.3,10,14.2,7.4C313.9,253.2,313,245.3,305.5,247.1L305.5,247.1z M324.4,257.6
	c5.1,1.6,6.1,8.9,12.9,6.9C332.8,257.7,329.7,255.9,324.4,257.6L324.4,257.6z M347.3,263.3l0.3-1.6l-9.8-2.5
	C339.9,264.9,341.4,265.4,347.3,263.3L347.3,263.3z M276.5,238.4l-1.1,1.5c3.8,1.6,4.5,7.4,11.5,6.6L276.5,238.4z M301.5,264
	l-7.4-2.1C295.7,265.9,297.9,267.6,301.5,264L301.5,264z M285.2,253.5l1.2-2.5l-7.4-3.6l-1.1,2.2L285.2,253.5z"/>
<path class="st0" d="M229.5,207.4l-6.7-4.3l-2.8,3l-5-2.9l-0.1,0.9l-2.7-5.2l-7.6,9.3c-0.5-0.6-1.1-1.1-1.6-1.7
	c-0.3-1.2-0.6-2.4-0.9-3.8l-6.1,3.6c1.2-2.9-0.9-7.1-3.2-7.4c-0.6-0.1-1.3,0.2-1.7,0.7c-0.3,0.6-0.5,1.8-0.2,2.1
	c1.4,1.2,3,2.3,4.5,3.3c-4.3,0.3-5.6-6.2-8.7-1.1c-0.1-1.9-0.2-3.6-0.3-4.6l-9.5,2.4h-0.3l-0.2-0.4c-0.3,0.2-0.6,0.3-0.9,0.5l-0.4,1
	c-2.7-1.8-5.4-3.7-8.2-5.3c-0.9-0.5-2.3-0.1-3.5-0.1l-1,1.7l-0.4-0.2h-0.4v-2.9l-3.2,1.5c-1.2,0.6-2.3,1.4-3.3,2.4
	c-0.8,1-1,2.4-2.4,3.4c-0.1-0.7,0.1-1.8-0.2-2c-4.1-1.7-4.4-6.7-8.1-8.8c-2.6-1.5-4.5-4.3-7.5-0.7c-0.7,0.4-1.5,0.5-2.2,0.2
	c-4.1-1.6-8.2-3.4-12.7-5.2c-5.6,3.8,4.3,4.9,1.3,9.4l-7.1-10.3l0.6,5.6l-0.7,0.4c-2.1-3.7-4.2-7.5-6.6-11.6c2.8,0,6-1,8,0.2
	c3.6,2.1,6-0.5,9-0.8c4-0.4,7.9-1.1,11.8-0.9c1.7,0.1,3.3,2.2,6.1,4.3l-1.6-5.3l6.5,4.3l1.1-0.8l-1.9-6.1l1.1-0.9l5,6.5
	c1.6-2.9,3.5-3.9,5.3-0.6c1.2,2.2,5.3,1.2,5.3,4.9c0,0.2,1.4,0.7,1.6,0.5c0.5-0.6,1.1-1.6,0.9-2c-0.6-1.3-1.6-2.4-1.7-4.4l7.5,5.1
	c4.1-4.6,5.9,1.1,9.2,2.9l0.8-1.9c3.3-0.5,4.5,7.5,9,1.8l7.9,5.6l1.1-4.7l9.7,7.3l0.7-4.2l7.6,6.1l1.7-5.4l5.3,4.4l4.6-4.1l4.1,4.3
	l7.1-8.8c0.2,4.3,0.6,7.2,5.4,6.5c0.1,0.8-0.1,2,0.4,2.4c1.4,1.1,2.9,2.2,4.4,3.1l1.7-3.2c-1.7-0.9-3.4-1.8-5.2-2.6
	c-0.3-0.1-0.9,0.2-1.4,0.4c3.9-3.4-2.3-4.1-1.6-7.2l4.5,2.8c-0.2-0.9-0.3-1.6-0.4-2.2c5.5,0,9.1-4.6,7.3-9.9c2.3,1,4.3,1.9,6.3,2.8
	c2.5,2.3,5,4.6,7.6,7l1.4,5.3c-1.4-0.3-3.1-1.2-4.1-0.6s-0.9,2.5-1.3,3.8l-5.8,0.5l-0.4,1.5l7.1,6.5v0.4l1.3,4l-5.6,1.1
	c-0.2-0.1-0.4-0.3-0.6-0.4c0.2-3.1,0.8-6.4-3.5-7.6l-5.5,4l-2.7,2.1c-1.4-0.4-2.2-4.3-4.3-0.8l-8.6-2.9l-3.7-6.8
	c-1.4,2.6-2.7,4.6-2.5,4.8c1.6,1.2,3.4,2.4,5.2,3.3l0.8,3.8L232,211l-1.6-2.4l4.1,0.1c-0.2-1.1,0.1-2.7-0.6-3.2
	c-1.1-0.9-2.7-1.1-4.1-1.6C229.7,205.1,229.6,206.2,229.5,207.4z M257.6,185.3c2.3,2.2,4.1,5.9,7,1
	C261.2,181.8,261,181.8,257.6,185.3z"/>
<path class="st0" d="M182.1,300.9l-3.8-2.3c-0.4,2-0.6,3.5-0.9,5l-0.6,0.1c-0.3-2.4-0.5-4.8-0.8-7.2l-0.9-0.1
	c-0.3,1.7-0.6,3.4-1.1,5.7c-1.2-4.3,0.4-9.3-4.8-11.6l-1.7,3l-3.7-12.1l-1.1,2.4l-2.7-8.4l-1.3,2.6l0.7-9.6l-0.6-0.1
	c-0.6,1.7-1.2,3.3-1.8,5l-1.1-0.5l5.5-11.8c-4.9-5.5-4.9-5.5-7.7-2.8c0.2-1.8,0.3-3.2,0.5-4.9l-2.1,1.7l-1-0.6l8.1-14.4l12.2,11.4
	c3.2-2.1,6,0.8,8.7,2.6c3.4,2.3,6.5,4.9,9.5,7.7c2.2,2.1,3.7,4.9,5.9,8l-2.4,3.1l7.9,8.2l-1.5,4.1l-1.9,1c-2.2-1.1-4.4-1.9-4.1,2
	l0.1-0.1l-4.2,1.6l2.2,3.9c-0.7,1.4-1.3,2.8-2,4.2l-1.1,1.2l-21.1-17.1L166,283c2.5,2.6,4.9,5.3,7.4,7.9
	C176.3,294.2,179.2,297.5,182.1,300.9z M174.4,278.7c5-4.1,1.5-5.8-0.2-7.5c-0.4-0.4-2.3,0.6-3.6,1
	C171.8,274.2,173,276.3,174.4,278.7L174.4,278.7z M181,262.4l-1,1.2l3.6,3l0.9-1.1L181,262.4z"/>
<path class="st0" d="M268.6,306.8c-2.7,0.5-4.8,0.5-5-3.2c-0.1-1.5-1.6-2.9-2.5-4.4c0.5-5-1.1-6.5-7-4.7l7.2,4.8l-4.3-0.4
	c1.2,2.2,2.1,3.8,3,5.5c-2.4,1.2-4.1-5.4-6.4-0.3l0.2-0.1c-3.7-1.9-1.2-8.8-8.8-9.2l7.7,11.4l0.1-0.1c-1.3-0.1-2.6-0.4-3.9-0.7
	c-4.2-1.7-8.4-3.5-12.6-5.2l-0.9,1c0.9,1,1.8,2,2.6,3.1s1.2,2,1.8,3l-9.8-0.5c1.3,3.5,3,7.7,4.6,11.9l-1,1l-10.1-5l0.4-1.2l5.3,2
	c-1.9-5.4-9.1-5.4-9.7-11.5l4.4,0.5c-5.4-8-10.5-15.6-15.7-23.2l0.9-1.8c4.3,0.8,8.7,1.4,13,2.4c4.8,1.2,9.5,3.1,14.3,3.9
	c5.2,0.9,7.8,5,10.9,8.5l1-1c-1.3-2.3-2.7-4.5-4.6-7.8l13,3.2l-2.7-4.6c5.9,1.7,10.3,2.4,14.7,7.6c3.9,4.6,7.2,8.9,8.9,14.5
	c-0.8-1.2-1.5-2.5-2.2-3.8c-1.5-3.6-3.5-5-6.7-1.6l-5.3-5.9l-1.2,0.9c2.5,3.6,0.6,9.3,6.3,11.3L268.6,306.8z"/>
<path class="st0" d="M317.1,301.6c-0.6,0.4-1.7,0.9-1.7,1.1c0.6,2.5,1.3,5,2.4,8.9c-3.3-2.9-2.2-8.9-8.1-6.4l2.6,7l-5.3-1.1
	c0.3,5.8,0.3,5.9-5.6,5.2c-2.6-0.3-5.3-0.8-7.8-1.1c-0.5-2.8-1-5.5-1.5-8.1h-1.2l-0.8,2.5c-0.6-1.6-1.1-3-1.7-4.5l4.3-0.9l-8.8-3.2
	c-1.6-2.1-3.1-4-4.4-6c-2.6-3.8-4.9-7.7-7-11.8c-1.1-2.4,0.4-4.4,3.2-4.1c3.5,0.3,6.9,0.8,10.3,1.6c4.5,1.2,8.9,2.6,13.3,4.3
	c2.6,1,4.8,3,7.4,4.1c2,0.9,4.3,1.3,7.2,2.1c6.3-4.3,13.1,1,20.4,1.1c-0.3-1-0.7-2-1-3c5.7-0.2,6.8,1.5,5,6.7
	c-0.3,0.9,1.1,2.9,2.2,3.8c0.9,0.7,2.5,0.3,4.1,0.4v13.2h-0.7V309c0-7.8,0-7.7-8-8.6c-1.2-0.1-2.4-1.7-3.2-2.9s-1.1-2.7-2.5-3.7
	c0.6,3.3,1.3,6.6,1.9,9.9c-0.3-5.5-5-6.1-8.5-7.7c-1-0.4-2.5,0.1-4.6,0.2c0,0.1,0.4,1.2,0.8,2.4l-5.7-6.2l-2,1.6L317.1,301.6z
	 M308.8,301.6c-4-6.6-4-6.6-6.4-6.6c0.4,0.7,0.7,1.1,1,1.7c0.3,0.4,0.4,0.8,0.5,1.3c0,4.5,0.4,4.8,5,3.5l4.8,3.2
	c-3.2-12.7-3.2-12.7-6.4-12.7C307.7,295.1,308.2,298.4,308.8,301.6z M298.4,304.6c1-7.2-2.2-10.5-9.7-11.3L298.4,304.6z
	 M288.3,295.8c-0.1-3.4-0.1-3.4-7.5-5.5C281,294.1,281,294.1,288.3,295.8L288.3,295.8z"/>
<path class="st0" d="M220.7,243.9c-2.3-1.9-3.9,0.1-5.7,1c-2.5-5.3-7.1-7.4-12-9.1l-1,1.4l9.6,6.8c-0.5,0.4-1.1,0.8-1.6,1.2l-11.3-8
	c-2-2.3-4-4.6-6.2-7.1c1.4,0.5,2.8,0.8,4.3,1.1c1,0,1.9-0.5,2.4-1.3c7,3.5,14.8,2.2,22.2,0.8c4.1-0.9,8.3,0.1,11.6,2.7
	c5.5,4.3,10.2,9.6,15.3,14.4l-0.9,0.9l-5.2-4.4c-0.5,1.8-0.8,3.2-1.2,4.5l-5.6,0.1l-3.3-1l-0.9,2.2l-10.2-6.2L220.7,243.9z"/>
<path class="st0" d="M249.6,263c7.8,1.8,14.4,3,19.5,8.4l-10.5-1.4l-0.3,0.9c0.7,0.6,1.5,1.2,2.2,1.9l-0.3,0.8l-7.8-3.5l1.9,4.6
	l-4.1-0.6c0.3,1,0.5,1.8,0.5,1.6c-2-0.7-4.5-1.6-7-2.6c-1.8-0.7-3-4.9-6-1.3l-7.7-6l-1.1,4.2l-6.9-1.3l2,3.9
	c-9.3-0.4-31.4-12.2-33.2-18.2l5.3,7l1.6-1.2l-1-3.5c3.4,1.4,6,2.8,8.8,3.5c1.5,0.4,3.2-0.4,4.9-0.6l-0.1-1.5l16.6,5.9
	c2.2-0.7,3.6-1.6,4.7-1.4c6.9,1.3,13.8,2.8,21.9,4.5L249.6,263z"/>
<path class="st0" d="M319.5,206.1c0.7-0.9,1.1-2.4,2-2.7c2.5-0.6,5.1-1,7.7-1.3l-1.7-3.9c7.3-0.5,14.2-1,21.1-1.5
	c5.1-0.3,6.4,4.3,8.3,7.3c1,1.6,2.3,5.2-1.5,6.6c-3.4,2.5-6.5,0.7-9.6-0.8l-2.9-4l-1.2,0.8c0.3,1.2,0.6,2.4,0.9,3.6l-1.5,3.4
	l-5.5-1.4l3.9,6.7c-4.8-3.1-6-2.6-6.4,2.8l-3.9-3c1.1-4.8-2.6-6.4-5.6-8.6L319.5,206.1z"/>
<path class="st0" d="M271.5,187.3c-2.5-2.3-5.1-4.7-7.6-7l-4.5-6.8l-4.5,3.9l-0.7-0.7l12.7-12.7l10.2,8.9l2.8,0.8
	c-0.9,0.1-1.7,0.2-2.6,0.3l1.1,3.9c-1.7,1.4-4.3,2.5-4.7,4.2c-0.5,2.3,6.9,7.2,9.7,6.9c0,0.8,0,1.6,0.1,2.4c0,1.3,0.1,2.6,0.1,3.9
	c0.2,0.2,0.5,0.4,0.7,0.7h0.3v0.3l0.9,0.7l0.1,0.1l-0.1,1.7l-0.1,0.1c-3.3,0.6-6.5,1.3-9.8,1.8c-1-0.1-1.9-0.3-2.8-0.7
	c2.8-2.4,2.5-4.8,0-7.2h5.4C276.5,189,275.3,186.6,271.5,187.3z"/>
<path class="st0" d="M319.5,206.1l4,4.2l-2.9,3.1l8.5,5.5l3.9,3l2.9,3.1l-9.8,6.9c-0.9-1.8-1.7-3.6-2.5-5.4v-0.1
	c1.4-3.4-1-4.1-3.5-4.6l-2-1c-2.6-1.3-5.2-2.6-5.6,2.1l0,0l-7.7-7.6l-1.4-4.2l4.2,2.3l0.8-0.8l-3.1-3.9l5.8-0.4
	C312.4,204.3,315.6,204.1,319.5,206.1z"/>
<path class="st0" d="M163.5,232.5c0.2-1.2,0.4-2.3,0.6-3.2l13.2,2.3l-1.5-2.6c3.9-1.3,7.5,4.1,11.4,0.9l10.5,7.1l-3.2,1.3l-5.5-2.6
	l-1.6,1.1c1.2,2.7,2.4,5.4,3.6,8.1l1.8,1l-0.6,1.4l-9.3-3.9v0.8l-5.9,0.8c-3.9-4.4-7.9-8.8-11.9-13.2
	C164.9,231.7,164,232.3,163.5,232.5z"/>
<path class="st0" d="M345.8,210c3.1,1.4,6.2,3.2,9.6,0.8c1.3,0.8,2.6,1.6,4,2.4c-2.9,1.1,2.4,8.2-5.1,6.1l2.2,4.9h-7.6
	c0.4,1.6,0.7,3.1,1,4.7l-1.9-1l-2.1-0.4l-3.7-2.4c-0.3-0.7-0.6-1.5-1-2.2c-0.7-1.3-1.4-2.6-2-3.8l5.1,2.1l-3.2-7.2l1.6-3.4
	L345.8,210z"/>
<path class="st0" d="M177.5,324.3l7.3,3.3l-7.5,8.8l-1.2-0.8c0.4-1.1,0.7-2.2,1.5-4.7l-5.4,5.6l6.8,1.7c-0.1,0.1-0.2,0.4-0.3,0.4
	c-6.8-0.2-6.8-0.2-7.2,6.4c-0.1,2.2-0.6,4.3-1.3,6.3V343c-2,2.3-1.9,7-6.2,3.9v-10.1c6,1,8.9-2,10.2-7.3L177.5,324.3z"/>
<path class="st0" d="M191.1,306.8c3.8-0.6,2.4-2.9,1.5-4.9l-3-4.4c0.7-1.4,1.3-2.8,2-4.2l2.1-1c3,2.3,7,3.8,6.9,8.6
	c0.6,1.4,1.2,2.8,1.8,4.2l-5.8,6.4C192.6,312.5,191.6,309.9,191.1,306.8z"/>
<path class="st0" d="M304.6,182.9c1.8,1.6,3.6,3.1,5.5,4.7c-1,1.8-2.1,3.6-3.1,5.4l-6.2,3c1.1-3.8-0.7-5-4.2-4.6l-3-1.5
	c0-1.3,0-2.7-0.1-4c2.5,0.5,4.4,0.3,4-3h2.1l2,2.4l2-2.4l-0.1,0.1L304.6,182.9z"/>
<path class="st0" d="M177.5,324.3l-3.4,5.3l-8.2,6.2l2.6-5.7l-5.9,4.4c0.2-2.4,0.3-4,0.4-5.5l4.6-5.4l6.4-4.8L177.5,324.3z"/>
<path class="st0" d="M200.5,300.9c0.1-4.8-3.9-6.2-6.9-8.6c0-1.5,0-3,0-4.5l-0.1,0.1l4.1-2l1.9-1l5.5,1.2l-1.4,1.2l3.8,8.5
	L200.5,300.9z"/>
<path class="st0" d="M296.7,278.8l20.6,1.6l-6.4,1.4l0.1,0.9h32.6v1.5c-5.4,0.1-10.8,0.7-16.1,0.3c-8.7-0.6-17.4-1.7-26.1-3
	c-1.6-0.2-3.1-1.9-4.6-3L296.7,278.8z"/>
<path class="st0" d="M190.9,245c-1.2-2.7-2.4-5.4-3.6-8.1l1.6-1.1l5.5,2.6l12.7,7.8l-6.1,1.6l0.4,1.3c-0.3-0.1-0.6,0-0.8-0.2
	c-1.9-1.6-3.7-3.5-5.8-4.6C194,243.8,192.2,244.7,190.9,245z"/>
<path class="st0" d="M167.6,323.7l-4.6,5.4l-11,4.4l4.4-8l7-7.6C164.8,319.9,166.2,321.8,167.6,323.7z"/>
<path class="st0" d="M167.6,323.7c-1.4-1.9-2.9-3.8-4.3-5.7l-0.8-1.5c0.7-1.9,1.4-3.8,2.1-5.7c3.9,4,1.8-2.4,4.9-2.7l4.5,10.9
	L167.6,323.7z"/>
<path class="st0" d="M211.2,313.1l4.3-1.4c3,6.2,6,13-3.3,17.5c-0.3-0.6-1-1.9-1.6-3.2c2.3-2.9,4.4-5.7,0.8-9.1L211.2,313.1z"/>
<path class="st0" d="M163.5,197.3c1.2,0,2.6-0.4,3.5,0.1c2.8,1.6,5.5,3.5,8.2,5.3c-1,0.7-1.8,1.8-2.9,2.1c-2.8,0.6-4.4,1.6-1.9,5.3
	l-8.5-4.8l0.3-3.4l3.6-1.2L163.5,197.3z"/>
<path class="st0" d="M120.5,169l-10.2,4.8c-1.7-1.8-4.7-3.8-1.5-7.5l1.7-0.9l4.7-1.7c-5.4,6.8-5.4,6.8-3.9,9.7l9.2-11.8l2.3,0.3
	C122,164.3,121.2,166.7,120.5,169z"/>
<path class="st0" d="M192.5,315l-4.2-1.7l1.3,10.3l-0.6,0.2c-0.9-4.2-1.8-8.5-2.7-12.7h-0.8l-0.4,4.8h-0.6l-1.4-8.7h-0.9l-1.3,3.5
	c-0.6-3.5-1-6.1-1.4-8.8l1-0.5L192.5,315L192.5,315z"/>
<path class="st0" d="M211.3,316.9c3.5,3.4,1.5,6.3-0.8,9.1c-3.2,2.3-6,2.9-6.9-2.2l3.3-7L211.3,316.9z"/>
<path class="st0" d="M264.2,209.8c-1.4,2-2.8,4.1-4.1,6.1l-5-1.2c0.2-1.1,0.4-2.1,0.7-3.2l-4.2-0.2c-0.4-0.4-0.8-0.8-1.2-1.2
	l1.6-2.1l2.7-2.1l9,3.6C263.8,209.6,264,209.7,264.2,209.8z"/>
<path class="st0" d="M317.1,270.9l2,0.5l0.5,1.5l2.4,4.3c-4.7-1.9-8.7-2.6-13.4-0.1c-2.3,1.2-6-0.3-9.1-0.2c-0.9,0-1.8,1.2-2.7,1.9
	l0.1-0.1c-3.1-1.6-6.2-3.3-9.3-4.9c5.6,3.8,11.3,1,16.9-0.1c2.6,0.2,5.4-0.1,7.7,0.9C316.3,276.1,316.6,273.7,317.1,270.9z"/>
<path class="st0" d="M120.5,169c0.7-2.4,1.5-4.7,2.2-7.1c0.2-1.6,0.3-3.2,0.5-4.8h0.1l-0.8-0.6l-0.1-0.4l1-0.6l4,0.4l-0.1-0.1
	c0.8,2.7-4.5,5.2-1,7.5l4.4-1.4l-1.1,2.8c-2.2,2.1-4.4,4.2-6.7,6.1c-0.7,0.6-1.9,0.5-2.9,0.8L120.5,169z"/>
<path class="st0" d="M290.5,207.5l5.5-9.6c0.9-0.6,1.7-1.3,2.6-1.9h2.1l6.2-3l-7.5,12.1l-1.1-1.9c-1.4,0.1-3.1-0.2-4.1,0.4
	C292.7,204.5,291.7,206.1,290.5,207.5z"/>
<path class="st0" d="M129.8,164.8c0.4-0.9,0.7-1.9,1.1-2.8c0.1-1.7,0.2-3.4,0.2-5.1l3.3-0.7c0.2,0.9,0.5,1.9,0.7,2.8h2.5l-0.1-0.2
	c0.2,2.4,0.4,4.8,0.7,7.1c-2.5,0.4-5.3-2-7.4,1.7c-1.3,2.4-3.8,4-6.1,5.8C126.3,170.5,128.1,167.7,129.8,164.8z"/>
<path class="st0" d="M247.4,309.9l8.4,0.5l-3.2-4.5l-0.1,0.1l1.1-2.1l-0.2,0.1c0.8,2.1,1.8,4.1,2.9,6c1.1,1.2,2.4,2.3,3.9,3
	c1.3,0.9,2.7,1.6,3.5,3.1c-2.4-1.8-3.8-2.7-7.3-1.2C253.6,316.4,248.8,314.6,247.4,309.9z"/>
<path class="st0" d="M165.1,156.7l-5.7,10.8c-1.7-3.4-5.6-3.9-3.8-7.6l-0.2,0.1c1.7-1.1,3.3-2.3,5-3.3s3.4-1.9,5-2.8L165.1,156.7z"
	/>
<path class="st0" d="M304.8,215.3l7.7,7.6c0.2,0.1,0.4,0.3,0.4,0.5l0.6,4.1l-6.9-1.9l-4.1-4.6l-2-3.6l-1-3.6L304.8,215.3z"/>
<path class="st0" d="M196.6,311.5l5.8-6.4l6.8-4.3c-0.9,2.4-2.1,5.5-3.2,8.5c-0.6,1.5-1.2,3-1.9,4.6l-4.9-1h-0.1L196.6,311.5z"/>
<path class="st0" d="M204,313.8c0.6-1.5,1.2-3.1,1.9-4.6l6.3-3.4c-0.2,1.8-0.6,4.5-1,7.2l0.1,3.8h-4.4l-1.9-2.1L204,313.8z"/>
<path class="st0" d="M324,270.4c2.8,1,5.6,2.3,8.5,3c2.3,0.5,4.7,0,7.1,0c-5.6,0.7-11.1,1.6-16.8,2c-1,0.1-2.2-1.6-3.3-2.5l-0.5-1.5
	L324,270.4z"/>
<path class="st0" d="M162.6,316.4l0.8,1.5l-7,7.6l-6.9,6l-1-0.9c1.9-2.3,3.9-4.5,5.6-6.9c0.9-1.3,1.2-2.9,1.7-4.4l3.7-1.9
	L162.6,316.4z"/>
<path class="st0" d="M110.5,165.4l-1.7,0.9l-8.1,5.3c-0.2-1.2-0.3-2.5-0.5-3.7l8.5-9.1h1.2C110.2,161.1,110.3,163.2,110.5,165.4z"/>
<path class="st0" d="M165.1,156.7l0.4-2.8l1.7-0.2l0.4,0.2l3-4l-0.1,0.1l2.1-0.1c-0.6,2-2.1,4.4,2,4.1l-0.1-0.1
	c-0.2,2.1-0.5,4.1-0.7,6.2c-3.7-4.9-3.9,2.4-6.8,1.7C169,159.1,169.1,157,165.1,156.7z"/>
<path class="st0" d="M303.1,228.1c-0.6,0.4-1.4,1.4-1.7,1.3c-4.4-2.4-8.7-4.9-13.2-7.5c3-3.3,3-3.3,6.6-1.6l1.2,0.8
	C296.9,224.9,299.2,227.3,303.1,228.1z"/>
<path class="st0" d="M249.8,209.8l-2.4,6.8l-7-3.8c0-0.1-0.2-1.4-0.3-2.6l7.5-2.5L249.8,209.8z"/>
<path class="st0" d="M232.9,220.5l-17.1-7.6l0.8-1.8l17.4,7.3L232.9,220.5z"/>
<path class="st0" d="M350.6,250.6l7,0.5c3,0.2,5.5,3.4,4.5,6c-0.2,0.6-2.6,1.1-3.3,0.6C356.2,255.9,353.9,253.5,350.6,250.6z"/>
<path class="st0" d="M205,314.8l1.8,2.1l-3.3,7l-11.1-8.9l-0.1,0.1l9.5,6.5c-0.6-2.2-0.9-3.5-1.2-4.7l-0.1,0.1
	C203.3,318.9,204.4,317.4,205,314.8z"/>
<path class="st0" d="M302.6,221c-2.2,0-4.4,0-6.6,0l-1.2-0.8c-0.6-1.6-1.3-3.1-2.3-5.6l4.9,3.9l-2.5-5.8l5.7,4.7L302.6,221z"/>
<path class="st0" d="M222.2,188.3l-4.3-3.8l0.2-1.1l12.9,1.4l-0.2,1.3L222.2,188.3L222.2,188.3z"/>
<path class="st0" d="M235.5,248.9l5.6-0.1c1.3,1.9,2.6,3.7,3.9,5.6C240.4,255,240.4,255,235.5,248.9z"/>
<path class="st0" d="M153.5,228.1c-1.6,5-2.6,8.6-3.8,12.4c-1.9-2.6-2-7.5-0.1-10.5C150.1,229.2,151.7,229,153.5,228.1z"/>
<path class="st0" d="M222.2,188.3c-2.9,0.1-5.9,0.7-8.7,0.2c-1.6-0.3-2.9-2.2-4.4-3.4l1.4-2.1L222.2,188.3L222.2,188.3z"/>
<path class="st0" d="M187.3,212.8c5,0.5,10.7-3.1,15.2,2.8c-3.1-0.4-5.8-0.9-8.4-1.1c-2.4-0.2-4.7,0-7.1,0L187.3,212.8z"/>
<path class="st0" d="M252.8,335.3v20.7h-0.2l-1.2-20.8L252.8,335.3z"/>
<path class="st0" d="M271,213.9c-0.2-1.6-0.5-3.1-0.8-4.7c4,1.9,5.9,0.7,7.2-4.4l5.4-1.1c-0.4,1.4-0.9,2.8-1.3,4.2
	c-3.1-0.9-5.9,0.4-6.4,3C274.6,214,272.8,213.6,271,213.9z"/>
<path class="st0" d="M133.8,215.7c5.9,3.3,1,6.3,0.1,9.2l1.2-5.6l-0.7-0.4l-5,8.7l-0.6-0.3C130.3,223.6,131.9,219.9,133.8,215.7z"/>
<path class="st0" d="M196.3,360.2v-15.2h0.8v15.2L196.3,360.2z"/>
<path class="st0" d="M272.9,306.1c0.9,1.1,1.5,2.6,2.7,3.3c2.2,1.4,3.3,0.4,2.9-2.1c0.6,1.1,1.3,2.2,2,3.6l-5.4,0.8l-3.6-3.3
	l-1.1,0.6l0.9,5.4l-0.8,0.2c-0.6-2.6-1.2-5.1-1.9-7.7l-0.1,0.1C272.5,308.2,272.5,308.2,272.9,306.1z"/>
<path class="st0" d="M122.2,199.4c4.4,5.1,2.3,7.5-2.3,9.1C120.6,205.8,121.3,203.1,122.2,199.4z"/>
<path class="st0" d="M385.5,289.2l-1.8-16.2l1.2-0.1c0.5,5.4,1,10.9,1.5,16.3L385.5,289.2z"/>
<path class="st0" d="M201.3,221.2l12.9,4.6l-0.2,0.5l-13.4-3L201.3,221.2z"/>
<path class="st0" d="M139.1,204.3l7.2,6.6c-6.4,1.7-6.1-3.2-8-5.6L139.1,204.3z"/>
<path class="st0" d="M374.4,293v-14.5l1.3,0.1l-1,14.4L374.4,293z"/>
<path class="st0" d="M323.6,226.5L323.6,226.5l-7.4,2.5l1.3-2.1h3.2l0.4-1.3l-3.5-2.7l0.2,0.1l0.4-2.1l2,1
	C321.3,223.4,322.4,224.9,323.6,226.5z"/>
<path class="st0" d="M349.5,233.8l4.1,1.6l-5.4,2.7C348.6,236.6,349.1,235.2,349.5,233.8z"/>
<path class="st0" d="M149.5,284.8l3.1,1l0.1,3.2h-3.2V284.8z"/>
<path class="st0" d="M199,312.9h0.1c0.5,1.4,1,2.7,1.4,4.1l0.1-0.1C198.6,316.1,195.9,315.7,199,312.9z"/>
<path class="st0" d="M153.5,299.8h3.1c-0.3,1.2-0.7,2.4-1,3.7l-2.1-0.5C153.5,301.9,153.5,300.9,153.5,299.8z"/>
<path class="st0" d="M159.9,306.8l-0.3,2.1h-2.1c-0.2-1-0.4-2.1-0.5-3.1L159.9,306.8z"/>
<path class="st0" d="M152.5,290.9c0-0.7,0-1.4,0-2.1l1,2.1l0.1-0.1L152.5,290.9z"/>
<path class="st0" d="M177.1,201.7H177c0,0.1-0.1,0.2-0.1,0.3L177.1,201.7z"/>
<path class="st0" d="M175.5,201.8c0.3-0.2,0.6-0.3,0.9-0.5L175.5,201.8z"/>
<path class="st0" d="M302.3,179.8l1.2,3.1l0.1-0.1l-3.1-1c-0.3-1-0.6-2.1-0.9-3.1L302.3,179.8z"/>
<path class="st0" d="M134.4,156.1l-3.3,0.7l-3.6-1.1l0.1,0.1l10.5-11.1c-0.6,2.1-1.1,4.1-1.6,6.2l0.1-0.2c-1.2-1.4-2.7-2.6-3,0.4
	c-0.2,1.5,0.6,3.1,1,4.7L134.4,156.1z"/>
<path class="st0" d="M118.9,157.4l2.1-2.6c0.5,0.4,1,0.9,1.5,1.3l0.1,0.4l-3.1,4.3l-4.1,2.7c0.4-1.7,0.8-3.4,1.1-5.1L118.9,157.4
	L118.9,157.4z"/>
<path class="st0" d="M120.6,152.9l-3,0.1l3.1-3.5L120.6,152.9z"/>
<path class="st0" d="M180.6,153c-0.4-0.7-0.7-1.4-1.1-2.2C179.9,151.5,180.2,152.2,180.6,153z"/>
<path class="st0" d="M302.6,164.8l-1.2,1.2L302.6,164.8z"/>
<path class="st0" d="M115.6,153l-1.2-1.2L115.6,153z"/>
<path class="st0" d="M152.5,304l1.2-1.2L152.5,304z"/>
<path class="st0" d="M157.6,308.8l-1.2,1.2L157.6,308.8z"/>
<path class="st0" d="M111.6,142.8c0,1.4,0,2.8,0,4.2l-4.1,1v-3.1c0.3-1,0.6-2,1-3.1L111.6,142.8z"/>
<path class="st0" d="M114.6,143l-2.1-1c0-1,0-2.1,0-3.1l2.1,1L114.6,143z"/>
<path class="st0" d="M112.7,141.8l-1.2,1.2L112.7,141.8z"/>
<path class="st0" d="M149.6,288.8l-1.2,1.2L149.6,288.8z"/>
<path class="st0" d="M146.5,286l1.2-1.2L146.5,286z"/>
<path class="st0" d="M168.7,149c-0.1-1.4-0.1-2.8-0.2-4.1l2.1,1.1l-0.1-0.1v4.1l0.1-0.1l-2.1-1L168.7,149z"/>
<path class="st0" d="M170.6,146c0.4-0.4,0.7-0.7,1.1-1l-0.1-0.1L170.6,146L170.6,146z"/>
<path class="st0" d="M144.7,278.8l-1.2,1.2L144.7,278.8z"/>
<path class="st0" d="M152.7,290.8l-1.2,1.2L152.7,290.8z"/>
<path class="st0" d="M151.6,291.8l-1.2,1.2L151.6,291.8z"/>
<path class="st0" d="M96.5,141.8l1.2,1.2L96.5,141.8z"/>
<path class="st0" d="M106.5,143.8l1.1,1.1L106.5,143.8z"/>
<path class="st0" d="M167.2,153.7l-1.7-5.9l3.1,1.2l-0.1-0.1l-0.9,5.1L167.2,153.7z"/>
<path class="st0" d="M97.6,138.8l-1.2,1.2L97.6,138.8z"/>
<path class="st0" d="M175.6,150l-2.2-1l1.2-3.1l-0.1,0.2l2.1-0.2L175.6,150z"/>
<path class="st0" d="M173.4,144.9l1.1,1.1l0.1-0.2l-1.1-1L173.4,144.9z"/>
<path class="st0" d="M115.7,138.8l-1.2,1.2L115.7,138.8z"/>
<path class="st0" d="M268.5,204.3l1.1-0.7l-1.1,1.1L268.5,204.3z"/>
<path class="st0" d="M280.6,177.9l6,3c0,0.2-0.1,0.5-0.1,0.7c0,1.1,0.1,2.2,0.2,3.4c-2.8,0-4.3,0.9-3.1,4l-0.2,0.1
	c-2.8,0.3-10.2-4.6-9.6-6.9c0.4-1.7,3.1-2.8,4.7-4.2L280.6,177.9z"/>
<path class="st0" d="M290.5,198.9l0.3,2.7l-2.5-0.5l-2.7-2.2l-0.1-0.2l0.1-1.7c0.6-1.4,1.3-2.8,1.9-4.2l3.1,0.4v1.4l-2.8,3.1
	l2.8,1.3L290.5,198.9z"/>
<path class="st0" d="M283.5,203.2c-4.1-3.4,0.6-3.2,1.8-4.5l0.1-0.1l0.1,0.2c-0.4,1.4-2.8,3.1,0.5,4L283.5,203.2z"/>
<path class="st0" d="M286.6,192l-3.2-0.5c0-0.8-0.1-1.6-0.1-2.4l0.2-0.1l3.1-0.1L286.6,192z"/>
<path class="st0" d="M284.5,196.2l0.9,0.7L284.5,196.2z"/>
<path class="st0" d="M283.5,195.3l0.7,0.7C284,195.7,283.8,195.5,283.5,195.3z"/>
<path class="st0" d="M312.5,222.9h5.2l-0.2-0.1l-0.9,3.2c-1.2-0.8-2.5-1.7-3.7-2.6C312.9,223.2,312.7,223,312.5,222.9L312.5,222.9z"
	/>
<path class="st0" d="M348.1,227.7l-1.5,2.2h-4.1l3.5-2.6L348.1,227.7z"/>
<path class="st0" d="M290.6,194.6v-1.4c-0.1-1.4-0.1-2.9-0.2-4.3l3.1,1l3,1.5c0.7,1.5,1.4,3,2.1,4.6c-0.9,0.6-1.7,1.3-2.6,1.9
	c-1.8,0.3-3.7,0.7-5.5,1l0.2,0.1L290.6,194.6z"/>
<path class="st0" d="M123.2,157.2v0.3l0.1-0.4L123.2,157.2z"/>
<path class="st0" d="M159.5,313l1-3.2h2.1L159.5,313z"/>
<path class="st0" d="M351.6,231.9l-2,2.1h-3.1c0-1.4,0-2.8,0-4.2L351.6,231.9z"/>
<path class="st0" d="M316.5,225.8l1.2,1.2L316.5,225.8z"/>
<path class="st0" d="M154.5,297l1.1-1.1L154.5,297z"/>
<path class="st0" d="M160.6,310l-1.2-1.1L160.6,310z"/>
<path class="st0" d="M286.5,181.6c0-0.2,0.1-0.5,0.1-0.7l3-2.1l-0.1,3.1l0.1-0.1L286.5,181.6z"/>
<path class="st0" d="M280.5,178l1.1-1.2L280.5,178z"/>
<path class="st0" d="M299.6,167.8l-1.2,1.2L299.6,167.8z"/>
<path class="st0" d="M292.6,185l-3,3h-2.1v-2.1l3.1-3l-0.1,0.1l2.1-1.1C292.6,182.9,292.6,183.9,292.6,185z"/>
<path class="st0" d="M295.5,180.8l1.2,1.2L295.5,180.8z"/>
<path class="st0" d="M296.5,181.8l1.2,1.2L296.5,181.8z"/>
<path class="st0" d="M293.6,186l-1.2-1.2L293.6,186z"/>
<path class="st0" d="M292.5,182l1.2-1.2L292.5,182z"/>
<path class="st0" d="M300.6,181.8l-1.2,1.2L300.6,181.8z"/>
<path class="st0" d="M289.5,182l1,1l0.1-0.1L289.5,182L289.5,182z"/>
<path class="st0" d="M119,157.4c-0.1,0.1-0.2,0.2-0.2,0.3c0,0-0.1,0-0.2,0l0.3-0.2L119,157.4z"/>
<path class="st0" d="M172.5,150l1.2-1.2L172.5,150z"/>
<path class="st0" d="M286.5,191.8l1.2,1.2L286.5,191.8z"/>
<path class="st0" d="M290.6,189l-1.2-1.2L290.6,189z"/>
<path class="st0" d="M286.5,184.8l1.2,1.2L286.5,184.8z"/>
<path class="st0" d="M287.6,187.8l-1.2,1.2L287.6,187.8z"/>
<title>Artboard 3</title>
<path class="st1" d="M306.1,363.4l-10.7,5.3l0,0c1.6-2.3,3.3-4.5,4.7-6.9c0.8-1.6,1.5-3.3,2.1-5l4-5h5l-7.2,9.6l3.4,0.4L306.1,363.4
	z"/>
<path class="st1" d="M383.7,311c-0.1,1.3,0.2,3.5-0.3,3.7c-1.5,0.5-3.8,1-4.9,0.2c-3.1-2.2-4.7-0.9-6.8,1.4
	c-2.8,3.1-5.2,7.6-10.6,6.3l-2.6,4.4l0.9,1.2l-0.5,0.7l-5-2.4c-1.4,4.5-2.8,9-4.3,13.6l0.2-0.2l-3.7,4.3l-1.2-0.7l3.5-6.4l-0.4-0.5
	l-6.8,6.9c0.6-3.4,1-5.5,1.5-8.8c-5.6,5.9-10.5,11.1-16.1,16.9c-0.4-7.2,6.1-9,8.7-14.4c-3.1,3.8-5.7,6.9-8.3,10l-1.6-1
	c-0.3-0.9-0.7-1.8-1.6-4.2l-9.5,11.1l2.5-11.5l-1-0.3l-2.6,8.3l-9.6-3.7c0.9,2.2,1.5,3.9,2.2,5.6l-6.9-2v5.2
	c-3.8-0.1-6.9-1.1-6.9-5.8c-5.9,2.9-9.2,8.8-15.9,10.2c-3.6,0.7-6.6,3.8-10.1,5.5c-1.7,0.9-3.7,1.4-5.6,1.4c-5.5-0.3-6.4,6-11.3,7.5
	v-7.9l-6.4,6l-0.7-4.2c-2.8,1.7-5.9,3.6-9.3,5.7c-1.6-11.5-3.5-22.7-1.2-34.3c-0.8,0-1.6,0.2-2.4,0.5c-9.2,6.4-19.1,3.6-28.9,2.2
	c-3.8-0.5-7.5-1.2-11.2-1.7v20.8h0.5c0-4.6,0-9.1,0-13.7c0-5.7,0.5-6.1,6-5.1c1.6,0.3,3.2,0.8,5,1.2v16h0.5c0.4-5,0.8-10.1,1.3-15.8
	l13.8,1.5c0.4,3.1,0.7,6.1,1,9.1h1V345l1.3-0.2c0.6,1.9,1.1,3.7,1.9,6.1l1.4-7.4l1.5,0c0.4,2.3,0.8,4.6,1.2,6.9h0.5l0.9-9.2l2,0.1
	c0.2,2.7,0.5,5.4,0.7,8.1c0.3,5.3,0.6,10.6,0.9,16c0.2,4.1-2.7,8-6.4,7.6c-1.9-0.2-3.5-2.9-4.4-3.7l-8.3,9.8l1.8,2.3
	c-3.6,1.7-5.9,1.4-7.1-2.6c-1.6-5.1-6.1-6.7-10.7-8c-1.9-0.6-3.8-1.4-6.2-2.3l-1.1,1.5l-3-3.7c-0.5,0.7-1,1.4-1.7,2.3
	c-0.7-1.2-1.3-2.2-1.9-3.2l-1,0.2c0.1,1.5,0.2,2.9,0.3,5.3c-1.2-1.3-2.4-2.1-2.7-3.1c-1.1-3.4-3.2-4-6.7-4.4
	c-2.3-0.3-4.7-3.8-6.2-6.4c-1.3-2.3-1.4-5.2-2-7.9l-1.3,0.3l2.6,9.3l-1.3,0.5c-1-2.1-1.9-4.3-2.5-6.6c-0.6-2.8-1-5.6-1.1-8.4
	c-0.2-2.5,0-5-1.2-7.6v12.4l-6.5-8.4l0.7,6.2l-1.8,0.2c-0.1-3.1-0.9-6.4-0.2-9.4s-0.2-3.8-2.8-4.3c-2.9-0.7-5.7-1.6-8.5-2.7
	c3.9-4.4,7-7.9,10.1-11.4l-3.5,8.4l0.7,0.5l9.4-9c-0.6,1.5-0.9,3.1-1.7,4.4c-1.7,2.4-3.7,4.6-5.6,6.9l1,0.9l6.9-6l-4.3,7.9l11-4.4
	c-0.1,1.5-0.2,3-0.4,5.5l5.9-4.4l-2.6,5.7l8.2-6.2c-1.3,5.3-4.2,8.3-10.2,7.3v10.1c4.3,3,4.2-1.6,6.2-3.9v8.4c0.8-2,1.2-4.2,1.3-6.3
	c0.4-6.6,0.4-6.6,7.2-6.4c0.1,0,0.2-0.3,0.3-0.4l-6.8-1.7l5.4-5.6c-0.8,2.5-1.2,3.6-1.5,4.7l1.2,0.8l7.5-8.8l-7.3-3.3l-3.4-5.4
	l-4.5-10.9c-3.1,0.2-1,6.7-4.9,2.7l-1.9-1c-1-1-1.9-1.9-2.9-2.9l-2.9-1l-1.4-2.4c0.3-1.2,0.7-2.4,1-3.7c-0.3-1.4-0.5-2.7-0.8-4.1
	c-0.1-0.5-0.1-1-0.2-1.5l-2.2-3.3l-1-2.1l0.1,0.1l-0.1-3.2c-0.1-0.8-0.2-1.6-0.3-2.5l-4.7-2.9c2.5,0.8,3.2-0.2,2.2-2.5
	c-1.6-3.6-3.2-7.1-5-10.9l-4.3,3v-4.7l-7.1,7.7l0.8,0.9l5-3.8l0.9,0.8l-9.8,11.2l3.5,1.3c-1.1,1.2-2.3,2.1-2.8,3.2
	c-0.6,1.3-0.5,2.9-0.8,4.4c-0.1,1.2-0.5,2.4-1.1,3.4c-1.6,2-3.5,3.8-4.6,6.4l4.4-1.9c-2.1,2.4-3.5,3.5-4.3,5s-5,2.4-1.5,5.5
	c0.2,0.2-2.4,3.8-4.3,6.6l4.7-1.6c-2.4,6.2-2.1,7.2,1.9,7.3c0.7,0,1.4,0.4,2.1,0.4c2.3,0,4.6-0.2,7.2-0.3v2.1l5.2-2.9
	c0.1,2.1,0.8,4,0.1,5.2s-3.3,2.9-4.2,2.5c-9.4-4-18.6-8.4-28-12.7c9.4-13.6,13.5-28.2,16.5-43c2.3-11.2-1.5-22.3-5.8-32.5
	c-5.8-13.7-8.2-27.9-9-42.7c-0.6-10.3-6.7-17.5-15.2-22.6c-4.3-2.6-8.9-4.5-13.2-7c-4.6-2.7-4.7-3.9-0.7-9
	c4.7,8.4,10.2,2.8,15.5,0.8c0.4,3.1,0.8,6.2,1.3,9.7l3.3-2c0.2,1.2,0.3,2.5,0.5,3.7l8.1-5.4c-3.2,3.7-0.2,5.7,1.5,7.5l10.1-4.8
	l-0.3,2.6c1-0.2,2.2-0.2,2.9-0.8c2.3-1.9,4.5-4.1,6.7-6.1c-1.7,2.9-3.5,5.7-5.2,8.6c2.3-1.8,4.8-3.4,6.1-5.8
	c2.1-3.7,4.9-1.3,7.4-1.7H138c1,0.7,2.1,1.4,3.2,1.9c0.7,0.2,2.2-0.6,2.5-0.2c2.6,3.1,3.3,0,4.6-1.2c2.4-2.2,4.9-4.4,7.4-6.5
	c-1.8,3.7,2.1,4.2,3.8,7.6l5.7-10.8c4,0.3,3.9,2.4,1.8,5c2.9,0.7,3.1-6.5,6.8-1.7l3.5-2.4l1.1-1.6l2.3-3l0.6-0.2
	c0.3,2.2,0.5,4.5,0.9,7.2c5.4-7.2,9.9-9.3,15-7.2c1.4-2.6,2.2-6.1,4.3-7.6c2.5-1.7,6.1-1.8,9.3-2.5c-0.1,2.8,0.7,5.3,3.8,3.3
	c2.1-1.3,3.3-4.1,4.8-6.3l3.6,2.2c-0.2-1.3-0.4-2.6-0.8-5.4c1.8,2.2,2.7,3.3,3.8,4.7c1.5-5.3,5-2.4,7.9-2.1c0.7,0.1,1.6,0.8,2.1,0.6
	c5.1-2.5,7.3,1.1,9.4,5l-4.6-0.6c0.6,1.3,1.1,2.3,2,4.3l-5.2-2.9c-3.5,1.8-6.8,3.2-9.7,5.1c-1.1,0.7-1.5,2.6-2.4,4.2l-3.1-2.6
	L215,159l-2-1.9c-6.3,4.1-14.7,4-19.6,12c2.2,1.6,4.9,5,8.2,5.8c2,0.5,5.8-2.4,7.3-4.7c3.5-5.4,3.8-1.2,4.8,0.4
	c2.2,0,4.5-0.1,6.7-0.4c0.9-0.1,1.7-1.3,2.2-2.1c3.9-5.7,8.1-6.5,13.1-1.4c1-1.9,1.5-3.9,2.7-5.3c1-1.2,2.8-2.6,4.1-2.5
	c1.5,0.1,2.9,1.8,4,2.7c1.3-1.3,2.7-2.4,4.2-3.3c1.4-0.8,3.3-0.8,4.3-1v-6.4c6.3,2.5,13,3.1,15.2,10.2l-3.6,3.1l-12.7,12.7l0.7,0.7
	l4.4-3.9l4.5,6.9l-6.3-2.8c1.8,5.3-1.8,9.9-7.3,9.9c0.1,0.7,0.2,1.4,0.4,2.2l-4.5-2.8c-0.7,3.1,5.5,3.8,1.6,7.2l0.1-0.1
	c-4.8,0.6-5.2-2.2-5.4-6.5l-7.1,8.8l-4.1-4.3l-4.6,4.1l-5.3-4.4l-1.7,5.4l-7.5-6.1l-0.7,4.2l-9.7-7.3l-1.1,4.7l-7.9-5.6
	c-4.5,5.7-5.7-2.3-9-1.8l-0.8,1.9c-3.3-1.9-5.1-7.5-9.2-2.9l-7.5-5.1c0.1,2.1,1.1,3.1,1.7,4.4c0.2,0.5-0.4,1.5-0.9,2
	c-0.2,0.2-1.6-0.4-1.6-0.5c0.1-3.6-4.1-2.7-5.3-4.9c-1.9-3.3-3.7-2.3-5.3,0.6l-5-6.5l-1.1,0.9l1.9,6.1l-1.1,0.8l-6.6-4.3l1.6,5.4
	c-2.8-2.1-4.4-4.2-6.1-4.3c-3.9-0.2-7.9,0.5-11.8,0.9c-3,0.3-5.4,2.8-9,0.8c-2-1.1-5.2-0.2-8-0.2c2.3,4.1,4.5,7.8,6.6,11.6l0.7-0.4
	l-0.6-5.6l7.1,10.3c3-4.5-6.9-5.6-1.3-9.4c4.5,1.9,8.6,3.6,12.7,5.2c0.7,0.3,1.5,0.2,2.2-0.2c3-3.6,4.9-0.7,7.5,0.7
	c3.8,2.1,4,7.1,8.1,8.8c0.3,0.1,0.2,1.3,0.2,2c1.4-1.1,1.6-2.5,2.4-3.4c1-0.9,2.1-1.7,3.3-2.4l3.2,1.5h0.4l0.4,0.2l-0.4,2.9
	l-0.3,3.4l8.5,4.8c-2.5-3.7-0.9-4.6,1.9-5.3c1.1-0.3,2-1.3,2.9-2.1l0.4-1l0.9-0.5l0.2,0.4h0.5l-0.2,0.3l0.1-0.3l9.5-2.4
	c0.1,1,0.2,2.7,0.3,4.6c3.1-5.1,4.4,1.4,8.7,1.1c-1.6-1-3.1-2.1-4.5-3.3c-0.3-0.3-0.1-1.5,0.2-2.1c0.4-0.5,1-0.7,1.7-0.7
	c2.4,0.3,4.4,4.5,3.2,7.4l6.1-3.6c0.3,1.4,0.6,2.6,0.9,3.8c0.5,0.6,1.1,1.1,1.6,1.7l7.6-9.3l2.7,5.2l0.1-0.9l5,2.9l2.8-3l6.7,4.3
	l0.9,1.2l1.6,2.4l6.9-1.6l1.2,0.8l0.3,2.6l7,3.8l2.4-6.8c0.2,0,0.4,0.1,0.5,0.2l1.2,1.2l3.5,3.5l5,1.3c7.5,3.4,7.5,3.4,10.9-2
	c1.8-0.4,3.6,0.1,4.2-2.9c0.5-2.6,3.3-4,6.4-3c2.2,3.5,4.5,4.6,7.3,0.5c0.3-0.5,1.1-0.7,1.6-1c1.2-1.3,2.2-3,3.6-3.9
	c1.1-0.7,2.7-0.3,4.1-0.4l1.1,1.9l7.5-12.1l3.1-5.4c0.1,0.6,0.3,1.2,0.4,1.8c2.2-0.6,4.8-0.3,5.5-3.7c0.3-1.5,2.4-2.6,3.6-3.9
	c3.8,1,7.7,1.9,11.5,2.9c1,0.2,1.9,0.6,3.4,1.1c4.5-3.8,4.4-4.5-1.5-10.8l2.6-4.8c-2.5-2.2-5.2-4.4-7.8-6.8c-0.6-0.6-1.3-2-1.1-2.3
	c0.9-1.2,2-2.1,3.4-2.7c1.5-0.4,3.1-0.4,4.7-0.2c3.5,0.2,7.3-0.4,5,5.8c-0.8,2.2,1.7,6.2,3.5,8.7c3.7,4.9,7.7,9.7,11.9,14.2
	c2.5,2.8,5.6,5.1,8.3,7.7c1,0.8,1.9,1.8,2.5,2.9c2.7,6.1,5.1,12.2,7.8,18.3c1,2.2,2.3,4.3,3.1,6.6c1.6,4.6,3.1,9.3,4.6,14
	c1,3.4,1.7,7,2.7,10.4c1.5,5,5.1,5.5,9.5,4.2c5.6-1.6,11.1-3.8,16.8-4.6s11.5-0.2,17.4,0.4c-7.1,8.6-15.9,13.4-27,13.3V274l0.5,0.1
	l1.4-11.8l1.3,0.1c-0.3,6-0.6,12.1-0.9,18.1l0.4,0.1c0.9-6.4,1.8-12.8,2.7-19.2l1.5,0.2v11.4c1.1-4.5,2-8.3,2.9-12.2l2,0.4
	c-0.8,4.5-1.5,9-2.3,13.5v-0.1c-2.8,4.3,4,1.4,2.6,5.5l-7.1,4.4l8.4,3.1l0.1,1.2c-3.3,0.7-6.7,1.1-9.9,2.1c-2.1,0.8-4.1,1.8-6,3
	l1.7,4.4l-4-1.2l-0.3,3.9l-5.5-0.5c3.8,1.8,7.6,2.5,4,7.2c-0.6-1.4-1-2.2-0.8-1.8l-8.6-1c-0.3,1.9-0.7,4.1-1,6.4L383.7,311z
	 M353.6,235.3l-1.9-3.6c-0.6-1-1.2-2-1.8-3c-0.3-1.5-0.7-3.1-1-4.7h7.6l-2.2-4.9c7.5,2.2,2.2-5,5.1-6.1l-4-2.4
	c3.9-1.4,2.6-5,1.6-6.6c-2-3.1-3.2-7.7-8.3-7.3c-6.9,0.4-13.7,1-21.1,1.5l1.7,3.9c-2.6,0.3-5.2,0.7-7.7,1.3c-0.9,0.2-1.3,1.7-2,2.7
	c-3.9-2-7.1-1.8-8.5,2.2l-5.8,0.4l3.1,3.9l-0.8,0.8l-4.2-2.3l1.4,4.2l-5.2-1.5l1,3.6l-5.7-4.7l2.5,5.8l-4.9-3.9c1,2.5,1.6,4,2.3,5.6
	c-3.5-1.8-3.5-1.8-6.6,1.6c4.5,2.6,8.9,5.1,13.2,7.5c0.3,0.1,1.1-0.8,1.7-1.3l3.6-2.4l6.9,1.9l2.7,1.5l7.4-2.4
	c0.8,1.8,1.7,3.6,2.5,5.4l9.8-6.9l3,1.1l3.4,3.9c1.3,1.3,2.6,2.6,3.9,4c0.7,1.3,1.3,2.6,2,3.9L353.6,235.3z M222.2,188.3l8.7-2.2
	l0.2-1.3l-12.9-1.4l-0.2,1.1L222.2,188.3l-11.8-5.2l-1.4,2.1c1.4,1.2,2.8,3.1,4.4,3.4C216.3,189,219.3,188.4,222.2,188.3
	L222.2,188.3z M287.4,273.7h0.1l9.3,4.9c1.5,1,3,2.7,4.6,3c8.7,1.2,17.4,2.3,26.1,3c5.3,0.4,10.7-0.2,16.1-0.3v-1.5H311l-0.1-0.9
	l6.4-1.4c-6.8-0.5-13.7-1-20.6-1.6c0.9-0.7,1.8-1.9,2.7-1.9c3.1-0.1,6.8,1.5,9.1,0.2c4.7-2.5,8.7-1.8,13.4,0.1l-2.3-4.3
	c1.1,0.9,2.3,2.5,3.3,2.4c5.6-0.4,11.2-1.3,16.8-2c0-0.5-0.1-1-0.1-1.5c-0.7-4,2.4-1.9,3.6-2c3.6-0.3,7.3-0.1,10.8-0.1
	c-0.4-2-0.7-3.4-1-4.7h4.7l-3.6-5l2.5-1.6l-7.4-1.3l3.2-3c-8.1,1.7-9.9-6.8-16.1-8.3l1.7,4.1l-0.9,1l-8-5.4l-0.5,0.6l3.1,5.1
	c-8.3,0.1-10.2-9-16.9-9.5l1.4,3.9h0.1l-10.5-3.4c0.5,0.9,1.1,1.9,1.7,3l-1,1.4c-2.3-1.4-4.7-2.8-7-4.1c-1.3-0.8-2.7-1.5-4.1-2
	c-1.2-0.4-2.8,0.1-3.7-0.5c-2.3-1.8-4.6-3.7-6.8-5.8l-1,1l6,6.8l-15.8-8.2l1,3.9l-0.8,0.6l-9.1-7.3l-0.7,0.8l4.6,5.7l-1,1.1
	l-14.5-10.8c0.7,2.5,0.9,3.3,1.5,5.2c-2.5-2.3-3.9-4.1-5.6-5.2c-1.4-0.9-4.4-2.2-4.8-1.7c-3,3.5-4.4,0.1-6.4-1.1
	c-1.3-0.6-2.6-1.2-4-1.6l-0.7,1.6c3.7,4,7.1,8.2,11,11.9s6.5,8.4,10.9,11.6c5.5,3.9,10.5,8.5,15.7,12.7l3.8,3.4
	c3.9,2.9,7.8,5.9,11.7,8.8C287,273.7,287.2,273.7,287.4,273.7L287.4,273.7z M200.6,316.8c0.3,1.3,0.6,2.5,1.2,4.7l-9.5-6.5
	l-12.1-13.6l-1,0.5c0.4,2.6,0.9,5.2,1.4,8.8l1.3-3.5h0.9l1.4,8.7h0.6l0.4-4.8h0.8c0.9,4.2,1.8,8.4,2.7,12.7l0.6-0.2l-1.3-10.3
	l4.2,1.7l11.1,8.9c0.9,5.1,3.7,4.4,6.9,2.2c0.6,1.3,1.3,2.5,1.6,3.2c9.4-4.5,6.3-11.3,3.3-17.5l-4.3,1.4c0.4-2.7,0.8-5.5,1-7.2
	l-6.3,3.4l3.2-8.5l-6.8,4.3l-1.8-4.2l6.8-5.1l-3.8-8.5l1.4-1.2l-5.5-1.2l1.5-4.1l-7.9-8.2l2.4-3.1c-2.2-3.1-3.8-5.9-5.9-8
	c-2.9-2.9-6.1-5.4-9.5-7.7c-2.7-1.9-5.4-4.7-8.7-2.6l-12.2-11.4l-8.1,14.4l1,0.6l2.1-1.7c-0.2,1.7-0.3,3.1-0.5,4.9
	c2.8-2.7,2.8-2.7,7.7,2.8l-5.5,11.8l1.1,0.5c0.6-1.7,1.2-3.3,1.8-5l0.6,0.1l-0.7,9.6l1.3-2.6l2.8,8.4l1.1-2.4l3.7,12.1l1.7-3
	c5.2,2.3,3.6,7.3,4.8,11.6c0.4-2.3,0.8-4,1.1-5.7l0.9,0.1c0.3,2.4,0.5,4.8,0.8,7.2l0.6-0.1c0.3-1.5,0.6-3,0.9-5l3.8,2.3l8.9,6
	c0.6,3.1,1.5,5.6,5.5,4.6l2.4,1.4C195.9,315.7,198.6,316.1,200.6,316.8z M278.5,307.3l-0.9-1.3c-1.8-5.6-5-9.9-8.9-14.5
	c-4.4-5.2-8.8-5.9-14.7-7.6l2.6,4.6l-13-3.2c1.9,3.3,3.3,5.5,4.6,7.8l-1,1c-3.1-3.6-5.7-7.7-10.9-8.5c-4.9-0.8-9.5-2.8-14.3-3.9
	c-4.3-1-8.6-1.6-13-2.4l-0.9,1.8c5.1,7.6,10.3,15.2,15.7,23.2l-4.4-0.5c0.6,6.2,7.8,6.2,9.7,11.5l-5.3-2l-0.4,1.2l10.1,5l1-1
	c-1.6-4.2-3.2-8.4-4.6-11.9l9.8,0.5l7.7,3c1.4,4.7,6.2,6.5,9.2,5.1c3.5-1.6,4.9-0.7,7.3,1.2c-0.9-1.6-2.3-2.3-3.5-3.1
	c-1.5-0.8-2.8-1.8-3.9-3.1c-1.1-1.9-2.1-3.9-2.9-6c2.3-5.1,4,1.5,6.4,0.3c-0.9-1.7-1.8-3.2-3-5.5l4.3,0.4l-0.1,0
	c0.9,1.5,2.4,2.9,2.5,4.4c0.2,3.7,2.3,3.8,5,3.2c0.6,2.6,1.2,5.1,1.9,7.7l0.8-0.2l-0.9-5.4l1.1-0.6l3.6,3.3l5.4-0.8L278.5,307.3z
	 M207.2,246.2l3,1l-0.1-2l1.6-1.2l3.4,1c1.8-0.9,3.4-2.9,5.7-1h0.5l10.2,6.2l0.9-2.2l3.3,1c4.8,6.1,4.8,6.1,9.5,5.5
	c-1.3-1.9-2.6-3.8-3.9-5.6c0.3-1.3,0.7-2.7,1.2-4.5l5.2,4.4l0.9-0.9c-5.1-4.9-9.8-10.1-15.3-14.4c-3.3-2.6-7.5-3.6-11.6-2.7
	c-7.4,1.4-15.1,2.7-22.2-0.8c-0.5,0.8-1.4,1.3-2.4,1.3c-1.4-0.3-2.9-0.6-4.3-1.1c2.2,2.5,4.2,4.8,6.2,7.1h-1.1l-10.5-7.1
	c-3.9,3.2-7.4-2.2-11.4-0.9l1.5,2.6l-13.2-2.3c-0.2,0.9-0.4,2-0.6,3.2l13.3,12.6l5.9-0.8v-0.8l9.3,3.9l0.6-1.4l-1.8-1
	c1.3-0.3,3-1.2,4-0.7c2.1,1.2,3.9,3.1,5.8,4.6c0.2,0.1,0.5,0.1,0.8,0.2l-0.4-1.3L207.2,246.2z M317.2,301.6c0.8-1,1.5-2,2.3-3.1
	c-0.4-1.1-0.7-2.2-0.8-2.4c2.1-0.1,3.6-0.7,4.6-0.2c3.6,1.6,8.3,2.2,8.5,7.7c-0.7-3.3-1.3-6.6-1.9-9.9c1.5,1.1,1.8,2.6,2.5,3.7
	s2,2.8,3.2,2.9c8,1,8,0.9,8,8.6v4.4h0.7v-13.2c-1.5-0.1-3.2,0.2-4.1-0.4c-1.1-0.8-2.6-2.8-2.2-3.8c1.9-5.1,0.7-6.9-5-6.7
	c0.3,1,0.6,2,1,3c-7.3-0.2-14.1-5.4-20.4-1.1c-2.8-0.8-5.1-1.2-7.2-2.1c-2.5-1.2-4.8-3.1-7.4-4.1c-4.3-1.7-8.8-3.2-13.3-4.3
	c-3.4-0.8-6.8-1.4-10.3-1.6c-2.9-0.3-4.4,1.7-3.2,4.1c2.1,4.1,4.4,8,7,11.8c1.3,2,2.8,3.9,4.4,6l8.8,3.2l-4.3,0.9
	c0.6,1.5,1.1,2.9,1.7,4.5l0.8-2.5h1.2c0.5,2.7,1,5.3,1.5,8.1c2.6,0.4,5.2,0.9,7.8,1.1c6,0.7,6,0.7,5.6-5.1l5.3,1.1l-2.6-7
	c5.9-2.5,4.8,3.6,8.1,6.4c-1.1-4-1.9-6.4-2.4-8.9C315.4,302.5,316.5,302,317.2,301.6L317.2,301.6z M249.6,263l3.7,4.1
	c-8.1-1.7-14.9-3.2-21.9-4.5c-1.1-0.2-2.4,0.7-4.7,1.4l-16.5-5.9l0.1,1.5c-1.6,0.2-3.4,1-4.9,0.6c-2.8-0.8-5.5-2.1-8.8-3.5l1,3.5
	l-1.6,1.2l-5.3-7c1.7,6,23.9,17.8,33.2,18.2l-2-3.9l6.8,1.3l1.1-4.2l7.7,6c3-3.6,4.1,0.5,6,1.3c2.5,1,5.1,1.9,7,2.6
	c0,0.2-0.2-0.7-0.5-1.6l4.1,0.6l-1.9-4.7l7.8,3.5l0.3-0.8c-0.7-0.6-1.5-1.2-2.2-1.9l0.3-0.9l10.5,1.3
	C264.1,266,257.4,264.8,249.6,263z M232.9,220.6l1.1-2.1l-17.4-7.3l-0.8,1.8L232.9,220.6z M350.6,250.6c3.3,2.9,5.6,5.3,8.3,7.2
	c0.6,0.5,3.1,0,3.3-0.6c1-2.7-1.6-5.8-4.5-6L350.6,250.6z M153.5,228.1c-1.8,0.8-3.4,1-3.9,1.9c-1.9,3-1.8,7.8,0.1,10.5
	C150.9,236.7,152,233.2,153.5,228.1z M187.3,212.8l-0.3,1.7c2.4,0,4.7-0.1,7.1,0c2.7,0.2,5.3,0.7,8.4,1.1
	C198,209.7,192.3,213.3,187.3,212.8z M252.8,335.3h-1.4l1.2,20.7h0.2V335.3z M133.8,215.7c-1.8,4.2-3.4,8-5,11.7l0.6,0.3l5-8.7
	l0.7,0.4l-1.2,5.6C134.8,222,139.6,218.9,133.8,215.7z M196.3,360.2h0.8v-15.2h-0.8V360.2z M122.2,199.4c-0.9,3.7-1.6,6.4-2.3,9.1
	C124.5,206.9,126.6,204.5,122.2,199.4z M385.5,289.2l1-0.1c-0.5-5.4-1-10.9-1.5-16.3l-1.2,0.1L385.5,289.2z M201.3,221.2l-0.6,2.1
	l13.4,3l0.2-0.5L201.3,221.2z M139.1,204.3l-0.8,0.9c1.9,2.4,1.6,7.3,8,5.6L139.1,204.3z M374.4,293h0.3l1-14.4l-1.3-0.1L374.4,293z
	"/>
<path class="st1" d="M415.4,201.1l2.5-3.3c9,5.8,14.6,12.7,13.1,16.9c-0.3-1.2-0.5-2-0.7-3.3l-2.8,3v-4.6l-1.1,1L415.4,201.1z"/>
<path class="st1" d="M134.4,142l2.2-3.1c0.6,0.8,1.2,1.6,1.9,2.4l0.9,0.8c-0.4,0.9-0.8,1.8-1.2,2.7L127.6,156l-4-0.4l4-6.6
	L134.4,142z"/>
<path class="st1" d="M356.8,172.1c5.2-7.7,8.6-6.4,20-0.3c-0.7,1.5-1.6,3-2.5,4.4c-0.8,1-1.9,1.9-3,2.6c-0.2,0.1-1.7-1.1-1.6-1.2
	c0.5-1.1,1.2-2.1,2-3c0.7-0.7,1.5-1.3,2.4-1.8c-5.4-4.3-7.3-4.4-12.6-1C360.4,172.3,358.8,172,356.8,172.1z"/>
<path class="st1" d="M134.4,142l-6.9,7l-4.3-3.9l0.4-1.5c0.3-0.6,0.5-1.1,0.8-1.7c1.4-0.3,3-0.3,4-1
	C130.9,139.2,132.8,139.6,134.4,142z"/>
<path class="st1" d="M138.1,144.8c0.4-0.9,0.8-1.8,1.2-2.7h-0.1l4.9-3.4c-0.1,0.2-0.2,0.3-0.2,0.5c0.5,4.6-0.5,8.7-4,12
	c-0.5,0.5-0.6,1.4-0.8,2.2c-0.9-0.8-1.8-1.5-2.7-2.2C137,149,137.6,146.9,138.1,144.8z"/>
<path class="st1" d="M123.2,145.1l4.3,3.9l-4,6.6l-1,0.6c-0.5-0.4-1-0.9-1.5-1.3l-0.4-2l0.1-3.5l0.2-2L123.2,145.1z"/>
<path class="st1" d="M349.8,340l-0.2,0.2c5.1-1.3,1.9-6.5,4.4-9.6l4.6,2.9l-10,11.9l-0.7-0.5L349.8,340z"/>
<path class="st1" d="M410.2,274.6l4.7-13.3l1.9,0.4c-0.9,4.6-1.9,9.2-2.8,13.8c-1.2-0.4-2.5-0.7-3.7-1.1
	C410.3,274.5,410.2,274.6,410.2,274.6z"/>
<path class="st1" d="M411.5,225.5c1.2-3,2.4-6,3.5-8.9h0.1c1.4-2,2.9-4,4.3-6l1.2,0.9C417.9,216.4,418.3,223,411.5,225.5z"/>
<path class="st1" d="M389.9,198.8l-5.2,7l-3.8-2.1c1-2.1,1.4-4.6,2.7-5.2C385.2,197.8,387.5,198.6,389.9,198.8z"/>
<path class="st1" d="M102.1,154.9l-6.5,5.6c-0.5-5.1-0.5-5.1,5.6-10.7L102.1,154.9z"/>
<path class="st1" d="M278.5,371.7l4.5-1.4l5.1-5.8C288.9,371.8,287,373.2,278.5,371.7z"/>
<path class="st1" d="M286.1,158.9c-0.1,1.6-0.5,3.2-1,4.8c-0.2,0.5-2.8,0.5-3,0.2c-0.5-1.7-0.9-3.4-1.2-5.2l1.5-1.7L286.1,158.9z"/>
<path class="st1" d="M143.6,155.8c0.8,4.9-4,6.6-5.6,10h0.1c-0.2-2.4-0.4-4.7-0.7-7.1c3.4,0.1,3.7-1.4,2-3.9L143.6,155.8z"/>
<path class="st1" d="M383.7,311l0.1,0.2l2.2-5.2c3.4,0.6,7,0.7,4.7,6L383.7,311z"/>
<path class="st1" d="M157.6,140.8c0,4.5-3.6,8.5-7.1,8.1C151.1,144.7,153.3,141.8,157.6,140.8z"/>
<path class="st1" d="M161.6,142.4l-4.1-1.4l5.3-8.2l1.7,0.5c-0.4,1.4-0.6,2.9-1.1,4.3C162.9,139.2,162.2,140.8,161.6,142.4z"/>
<path class="st1" d="M282.5,156.9l-1.5,1.7l-6,0.3C276.5,152.9,277.9,152.5,282.5,156.9z"/>
<path class="st1" d="M150.6,148.9c-1.6,2.8-3.2,5.5-5,8.2c0,0.1-1.4-0.7-2.2-1.1C144.1,152.1,147.6,148.6,150.6,148.9z"/>
<path class="st1" d="M295.4,368.7l-4.3,0.5l-1.1-0.9l8.8-10.1l1.7,1.4c-1.7,1.8-3.5,3.6-5.3,5.2C293.1,366.5,293,367.6,295.4,368.7
	L295.4,368.7z"/>
<path class="st1" d="M399.1,225.9l-5.6,1.5c-1.4-1.4-2.8-2.8-4-4.2c0-0.1,1-1.3,1.1-1.2C393.4,223.4,397.8,221.4,399.1,225.9z"/>
<path class="st1" d="M415.1,216.6H415l-4.5,1.7l4.7-9.5l1.4,0.5C416.1,211.6,415.6,214.1,415.1,216.6z"/>
<path class="st1" d="M300.4,155.9c1.1,0.1,2.7-0.1,3.1,0.4c0.9,1.2,1.2,3,1.8,4.5c-1.4-0.1-2.7-0.2-4-0.3c-0.6-0.1-1.2-0.3-1.8-0.6
	l0.2,0.1L300.4,155.9z"/>
<path class="st1" d="M262.8,374.5l9.9-1.5C270.7,377,267,378,262.8,374.5z"/>
<path class="st1" d="M356.3,161.1l-7.3,2.4C351.1,157.4,352.6,156.9,356.3,161.1z"/>
<path class="st1" d="M181.3,152.9l-0.6,0.2l-0.1-0.1l-1.1-2.2l0.2,0.1l1.9-5.1C185.6,147.9,185.6,149.3,181.3,152.9z"/>
<path class="st1" d="M299.4,159.8l3.1,5.1l0.1-0.1l-1.2,1.2l0.1-0.2l-5.2-1.8l3.2-4L299.4,159.8z"/>
<path class="st1" d="M120.8,147.4c0,0.7-0.1,1.3-0.2,2l-3.1,3.5l-0.2,0.1h-1.6l-0.1-0.1l-1.2-1.2l0.2,0.1c0.3-1.1,0.6-2.1,0.9-3.2
	l3.1-2.7L120.8,147.4z"/>
<path class="st1" d="M156.6,309.8l-1.6,0.1l-2.4-6l-0.1,0.1l1.2-1.2l-0.1,0.1l2.1,0.5l1.4,2.4c0.2,1,0.4,2.1,0.5,3.1l0.1-0.1
	l-1.2,1.1L156.6,309.8z"/>
<path class="st1" d="M135.5,136.1c0.6-2.6,1.5-4.8,4.9-4.1l-1.7,6l-2.2,0.1l-0.9-0.7C135.6,137,135.5,136.5,135.5,136.1z"/>
<path class="st1" d="M297.5,157.9l-4,3.4c-0.1-1.5-0.1-2.9-0.2-4.4L297.5,157.9z"/>
<path class="st1" d="M140.4,132.2c3.9,0.4,5.8,2,4.2,6.1l-3.1-1.4C141.1,135.4,140.7,133.8,140.4,132.2z"/>
<path class="st1" d="M108.6,141.9c0.2-2.5,1.2-4,4-2.9l-0.2-0.1c0,1,0,2.1,0,3.1l0.2-0.1l-1.2,1.2l0.2-0.1l-3.1-1L108.6,141.9z"/>
<path class="st1" d="M99.6,146.6l-1.4,3.8l-1.8-0.1l0.2-4.4l-0.1,0.1L99.6,146.6z"/>
<path class="st1" d="M146.2,289c0.1-1,0.3-2,0.4-3l-0.1,0.1l1.2-1.2l-0.1,0.1h2.1l-0.1-0.1v4.1l0.1-0.1l-1.2,1.1l0.1-0.2L146.2,289z
	"/>
<path class="st1" d="M168.6,145c0.5-2.6,1.6-4.5,4.8-4c-0.6,1.3-1.1,2.6-1.7,3.9c-0.4,0.4-0.7,0.7-1.1,1l-2.1-1.1L168.6,145z"/>
<path class="st1" d="M111.5,146.9l-3.9,4.5l-1.3-0.5l1.4-3.1l-0.2,0.1l4.1-1L111.5,146.9z"/>
<path class="st1" d="M161.1,148.9c0.4-1.7,0.9-3.4,1.4-5l2.5,0.9l-2.5,3.6L161.1,148.9z"/>
<path class="st1" d="M305.6,168.1c-2.1,0.6-4.2,1.3-4-2.2l-0.1,0.2l1.2-1.2l-0.1,0.1L305.6,168.1z"/>
<path class="st1" d="M143.6,279.9l-3-1.1c0.8-2,1.9-3.5,4.3-2l-0.4,2.1l0.2-0.1l-1.2,1.2L143.6,279.9z"/>
<path class="st1" d="M148.5,293.2c0-1.1,0.1-2.3,0.1-3.4l-0.1,0.2l1.2-1.2l-0.1,0.1h3.2l-0.1-0.1c0,0.7,0,1.4,0,2.1l0.2-0.1
	l-1.2,1.2l0.2-0.2l-1.2,1.2l0.1-0.2L148.5,293.2z"/>
<path class="st1" d="M96.6,145.8l-2.9-4l2.9,0.1l-0.2-0.1l1.2,1.2l-0.2-0.2l-1,3.1L96.6,145.8z"/>
<path class="st1" d="M116.6,138.9l2.3-3.3l1.3,0.5c-0.3,1.7-0.7,3.3-1,5c-0.9-0.8-1.8-1.6-2.8-2.3L116.6,138.9z"/>
<path class="st1" d="M104.4,148.5l2.2-4.5l-0.1-0.1l1.1,1.1l-0.1-0.1c0,1,0,2.1,0,3.1l0.2-0.1L104.4,148.5z"/>
<path class="st1" d="M166.4,144.8l2.2,0.1l-0.1-0.1c0,1.4,0.1,2.8,0.2,4.1l-3.1-1.2l0.1,0.1L166.4,144.8z"/>
<path class="st1" d="M94.5,138.2l1.5-2.6l1.6,3.4l0.1-0.1l-1.2,1.2l0.2-0.1L94.5,138.2z"/>
<path class="st1" d="M97.5,138.9c0.7,2,1.4,4,2.1,5.9c-0.7-0.7-1.4-1.4-2.1-2l0.2,0.2l-1.2-1.2l0.2,0.1v-2.1l-0.2,0.1l1.2-1.2
	L97.5,138.9z"/>
<path class="st1" d="M93.7,236.9l-3.4,0.4l-0.3-1.4l3.3-1L93.7,236.9z"/>
<path class="st1" d="M179.1,146.9l-3.6,3l0.1,0.1l1-4.2l-0.1,0.1L179.1,146.9z"/>
<path class="st1" d="M152.6,303.9l-1.1-4.6l2,0.7l-0.1-0.1v3.1l0.1-0.1l-1.1,1.2L152.6,303.9z"/>
<path class="st1" d="M174.4,141.8c3.7-0.2,2.2,2.3,2.1,4.1l0.1-0.1l-2.1,0.2l-1.1-1.1L174.4,141.8z"/>
<path class="st1" d="M112.6,138.9v-3l1.2-0.3l1.6,3.3l0.2-0.1l-1.2,1.2l0.2-0.1l-2.1-1L112.6,138.9z"/>
<path class="st1" d="M86.1,238.3l-3.8-1C85.4,235.6,85.4,235.6,86.1,238.3L86.1,238.3z"/>
<path class="st1" d="M116.6,142.9h-2.1l0.1,0.1v-3.1l-0.2,0.1l1.2-1.2l-0.2,0.1h1.1l-0.1-0.1L116.6,142.9z"/>
<path class="st1" d="M150.6,294.9l0.1,2.1l-2.9,1c0.3-1.9,0.5-3.3,0.7-4.8L150.6,294.9z"/>
<path class="st1" d="M86.1,238.5l3.2-0.6l-0.2,1.7c-0.9-0.4-1.9-0.8-2.8-1.2L86.1,238.5z"/>
<path class="st1" d="M102.1,247l-1.1-1.4c0.3-0.3,0.7-0.8,1-0.7c0.5,0.2,0.9,0.5,1.3,0.8L102.1,247z"/>
<path class="st1" d="M96.8,224.7h2.6v1h-2.6L96.8,224.7z"/>
<path class="st1" d="M106.6,143.9l2-2.1l-0.2-0.1l-1,3.1l0.1,0.1l-1.1-1.1L106.6,143.9z"/>
<path class="st1" d="M101.2,259.1c-0.2,0.2-0.3,0.6-0.5,0.6s-0.6-0.2-0.8-0.3l0.6-0.9L101.2,259.1z"/>
<path class="st1" d="M182.1,300.9c-2.9-3.3-5.9-6.6-8.8-9.9c-2.4-2.7-4.9-5.3-7.4-7.9l1.4-1.5l21.1,17.1l4.1,3.2
	c0.9,2.1,2.2,4.3-1.5,4.9L182.1,300.9z"/>
<path class="st1" d="M290.5,207.5c-0.6,0.3-1.3,0.5-1.6,1c-2.8,4.1-5.1,3-7.3-0.5c0.4-1.4,0.8-2.8,1.3-4.2c0.2-0.2,0.5-0.4,0.7-0.6
	l2.5-0.4l2.2-1.8l2.5,0.5c-0.1-1.1-0.2-1.9-0.3-2.7l5.5-1L290.5,207.5z"/>
<path class="st1" d="M239.7,306.9c-0.6-1-1.1-2.1-1.8-3s-1.7-2-2.6-3.1l0.9-1c4.2,1.8,8.3,3.6,12.6,5.2c1.3,0.4,2.6,0.6,3.9,0.7
	l3.2,4.5l-8.4-0.5L239.7,306.9z"/>
<path class="st1" d="M264.2,209.8c1.9-0.4,3.7-0.8,5.6-1.1l0.4,0.5c0.2,1.6,0.5,3.1,0.8,4.7c-3.4,5.3-3.4,5.3-10.9,2
	C261.5,213.9,262.8,211.9,264.2,209.8z"/>
<path class="st1" d="M324,270.4c4.6-5.5,4.6-5.5,10.8-1c1.5,0.9,3.1,1.7,4.7,2.4c0,0.5,0.1,1,0.1,1.5c-2.4,0-4.8,0.5-7.1,0
	C329.6,272.7,326.9,271.4,324,270.4z"/>
<path class="st1" d="M271.3,261.2c1.3-0.1,3.7-0.6,3.8-0.4c1,3.2,3.2,2.3,5.6,2.3c2.1,0.1,4.2,0.7,6,1.9c-4.1,2.5-7.9,2-11.6-0.3
	L271.3,261.2z"/>
<path class="st1" d="M207.2,246.2l-12.7-7.8l3.2-1.3h1.1l11.3,8c0,0.7,0,1.3,0.1,2L207.2,246.2z"/>
<path class="st1" d="M339.2,218.9c0.7,1.3,1.4,2.5,2,3.8c0.4,0.7,0.6,1.4,1,2.2l-3.3,1.3l-3-1.1l-2.9-3.2c0.4-5.4,1.5-5.9,6.4-2.8
	L339.2,218.9z"/>
<path class="st1" d="M268.7,300.6c3.2-3.4,5.2-2,6.7,1.6c0.6,1.3,1.4,2.6,2.2,3.8l0.9,1.3c0.4,2.6-0.6,3.5-2.9,2.1
	c-1.1-0.7-1.8-2.2-2.7-3.3L268.7,300.6z"/>
<path class="st1" d="M247.6,207.7l-7.5,2.5l-1.2-0.8l-0.8-3.8l1-1.3l8.6,2.9C247.6,207.3,247.6,207.5,247.6,207.7z"/>
<path class="st1" d="M286.8,273.5l-4.2-3.4l0.6-1.2c5,0.1,10.1-2.8,15,0.5c0,0.5,0,1,0.1,1.5c-2.3,0-4.8-0.3-7,0.1
	c-1.4,0.3-2.5,1.7-3.8,2.6v0.1C287.2,273.7,287,273.6,286.8,273.5z"/>
<path class="st1" d="M303.1,228.1c-3.9-0.8-6.2-3.2-7.2-7c2.2,0,4.4,0,6.6,0l4.1,4.6L303.1,228.1z"/>
<path class="st1" d="M287.4,273.7v-0.1l16.3-0.6c0.3,0.2,0.5,0.4,0.7,0.7c-5.6,1.1-11.2,3.9-16.9,0.1L287.4,273.7z"/>
<path class="st1" d="M163.5,232.5c0.5-0.2,1.4-0.8,1.5-0.6c4,4.4,7.9,8.8,11.9,13.2C172.4,240.9,167.9,236.7,163.5,232.5z"/>
<path class="st1" d="M211.7,244l-9.6-6.8l1-1.4c4.9,1.8,9.6,3.9,12,9.1L211.7,244z"/>
<path class="st1" d="M317.1,301.6l-5.4-7.7l2-1.6l5.7,6.2C318.7,299.6,317.9,300.6,317.1,301.6z"/>
<path class="st1" d="M247.8,194.2c0.5-0.1,1.1-0.5,1.4-0.4c1.8,0.8,3.5,1.7,5.2,2.6l-1.7,3.2c-1.5-0.9-3-2-4.4-3.1
	C247.8,196,248,194.9,247.8,194.2L247.8,194.2z"/>
<path class="st1" d="M229.5,207.4c0.1-1.2,0.2-2.4,0.3-3.6c1.4,0.5,3,0.8,4.1,1.6c0.6,0.5,0.4,2.1,0.6,3.2l-4.1-0.1
	C230.1,208.2,229.8,207.8,229.5,207.4z"/>
<path class="st1" d="M162.6,316.4l-3.1,1c0-1.5,0.1-3.1,0.1-4.6l-0.1,0.1l3.2-3.1l0.2-0.1l1.9,1L162.6,316.4z"/>
<path class="st1" d="M173.8,160c0.2-2.1,0.5-4.1,0.7-6.2c0.9,1.3,1.9,2.5,2.8,3.8L173.8,160z"/>
<path class="st1" d="M338.9,226.2l3.3-1.3l3.7,2.4l-3.5,2.6l-0.2,0.1L338.9,226.2z"/>
<path class="st1" d="M251.5,211.2l4.2,0.2c-0.2,1.1-0.4,2.1-0.7,3.2L251.5,211.2z"/>
<path class="st1" d="M346.2,234c-1.3-1.3-2.6-2.6-3.9-4l0.2-0.1h4.1l-0.1-0.2c0,1.4,0,2.8,0,4.2L346.2,234z"/>
<path class="st1" d="M163.5,197.3l2.1,3.4l-3.6,1.2l0.4-2.9L163.5,197.3z"/>
<path class="st1" d="M348.2,238c-0.6-1.3-1.3-2.6-2-3.9l0.2-0.1h3.1l-0.1-0.2C349.1,235.2,348.6,236.6,348.2,238z"/>
<path class="st1" d="M247.6,207.7c0-0.2,0-0.4,0-0.6c2.1-3.5,2.9,0.3,4.3,0.8l-1.5,2.1c-0.2-0.1-0.4-0.2-0.6-0.2L247.6,207.7z"/>
<path class="st1" d="M317.5,226.8l-1.3,2.2l-2.7-1.5c-0.2-1.4-0.4-2.7-0.6-4c1.2,0.9,2.5,1.7,3.7,2.6l-0.1-0.2l1.2,1.2L317.5,226.8z
	"/>
<path class="st1" d="M349.9,228.7c0.6,1,1.2,2,1.8,3l-0.1,0.1l-5.2-2.1l0.1,0.2l1.5-2.2L349.9,228.7z"/>
<path class="st1" d="M178.5,156c-0.9-2-3.3-4.3,1.2-5.1l-0.2-0.1c0.4,0.7,0.8,1.4,1.1,2.2l0.1,0.1L178.5,156z"/>
<path class="st1" d="M158.6,197.4l3.2-1.5v2.9L158.6,197.4z"/>
<path class="st1" d="M351.7,231.8l1.9,3.6l-4.1-1.6l0.1,0.2l2-2.1L351.7,231.8z"/>
<path class="st1" d="M153.6,300l1-3.1l-0.1,0.1l1.1-1.1l0.2-0.1c0.3,1.4,0.5,2.7,0.8,4.1h-3.1L153.6,300z"/>
<path class="st1" d="M149.6,285c0.9-0.5,1.8-1.1,2.6-1.6c0.1,0.8,0.2,1.7,0.3,2.5l-3.1-1L149.6,285z"/>
<path class="st1" d="M159.9,306.8c1,1,1.9,1.9,2.9,2.9l-0.2,0.1h-2.1l0.1,0.1l-1.2-1.1l0.1,0.1C159.7,308.2,159.8,307.5,159.9,306.8
	z"/>
<path class="st1" d="M154.6,296.8l-3.1,0.1l4.1-2.7l0.2,1.5l-0.2,0.1l-1.1,1.2L154.6,296.8z"/>
<path class="st1" d="M220.7,243.9h0.5H220.7z"/>
<path class="st1" d="M277.2,172.9l1.3-2.2c2.6-0.7,5.4-1.9,6.9,1.9c0.1,0.2,1.4-0.2,2.2-0.3l1.9,6.7l0.1-0.2l-3,2.1l-6-3l-0.1,0.1
	l1.1-1.2l-1.6-3L277.2,172.9z"/>
<path class="st1" d="M290.5,171.9c-0.4-2.8-1.2-5.9,3.6-4.7l1,1C296,172.7,295.4,173.2,290.5,171.9z"/>
<path class="st1" d="M295.2,168.2l-1-1l-0.6-3.9l3.1,0.5c0.9,1.3,1.9,2.7,2.9,4.1l0.2-0.1l-1.2,1.2l0.1-0.2L295.2,168.2z"/>
<path class="st1" d="M297.5,182.8c0.4,3.3-1.5,3.6-4,3l0.2,0.1l-1.2-1.2l0.2,0.1c0-1.1,0-2.1,0-3.1l-0.1,0.1l1.2-1.2l-0.1,0.1h2
	l-0.1-0.2l1.2,1.2l-0.2-0.2l1.2,1.2L297.5,182.8z"/>
<path class="st1" d="M299.5,182.8h-2.1l0.2,0.1l-1.2-1.2l0.2,0.2l-1.2-1.2l0.1,0.2l4-2.2c0.3,1,0.6,2.1,0.9,3.1l0.1-0.1l-1.2,1.2
	L299.5,182.8z"/>
<path class="st1" d="M289.5,179l4.1,1.9l0.1-0.1l-1.2,1.2l0.1-0.1l-2.1,1.1l-1-1l0.1-3.1L289.5,179z"/>
<path class="st1" d="M304.6,182.9l-1,0.1l-1.2-3.1l4.5-1.3L304.6,182.9z"/>
<path class="st1" d="M299.5,167.9l3.4,3c-2.5,1.4-4.5,1.9-4.2-2.1l-0.1,0.2l1.2-1.2L299.5,167.9z"/>
<path class="st1" d="M167.2,153.7l-1.7,0.2c-1.7,0.9-3.4,1.8-5,2.8s-3.4,2.2-5,3.3l1.1-6.1l3.7-3.2l0.8-1.8l1.4-0.5l3.1-0.5
	l-0.1-0.1L167.2,153.7z"/>
<path class="st1" d="M160.3,150.6l-3.7,3.2l1.9-4.7L160.3,150.6z"/>
<path class="st1" d="M157.5,309h2.1l-0.1-0.1l1.2,1.1l-0.1-0.1l-1,3.2l0.1-0.1l-3-3l-0.2,0.1l1.1-1.1L157.5,309z"/>
<path class="st1" d="M110.5,165.4c-0.2-2.2-0.3-4.4-0.5-6.6l4.7-4.1l1-1.8h1.6l-0.8,5.4c-0.4,1.7-0.8,3.4-1.1,5.1l-0.2,0.2
	L110.5,165.4z"/>
<path class="st1" d="M114.5,142.9l-3,4.1l0.2,0.1c0-1.4,0-2.8,0-4.2l-0.2,0.1l1.2-1.2l-0.2,0.1l2.1,1L114.5,142.9z"/>
<path class="st1" d="M115.7,153.1l-1,1.8l-0.1-3l-0.2-0.1l1.2,1.2L115.7,153.1z"/>
<path class="st1" d="M138.4,141.3c0-1.2,0-2.3,0.1-3.5l3.1-1l-2.3,5.3h0.1L138.4,141.3z"/>
<path class="st1" d="M116.5,158.5l0.8-5.4l0.2-0.1l3-0.1l0.4,2l-2.1,2.6l-0.3,0.2c0.1,0,0.1,0,0.2,0c0.1-0.1,0.2-0.2,0.2-0.3
	L116.5,158.5z"/>
<path class="st1" d="M134.5,156c-0.4-1.6-1.1-3.2-1-4.7c0.4-3,1.8-1.8,3-0.4L134.5,156z"/>
<path class="st1" d="M137.6,159h-2.5c0.6-1.1,1.1-2.2,1.7-3.3l1.3,0.3C138,157,137.8,158,137.6,159z"/>
<path class="st1" d="M144.5,278.9l2.1,1c0.3,1.7,0.6,3.4,0.9,5.1l0.1-0.1l-1.2,1.2l0.1-0.1l-3-6.1l-0.1,0.1l1.2-1.2L144.5,278.9z"/>
<path class="st1" d="M174.6,154c-4.1,0.3-2.6-2.1-2-4.1l-0.1,0.1l1.2-1.2l-0.2,0.2l2.2,1l-0.1-0.1
	C175.2,151.2,174.9,152.6,174.6,154z"/>
<path class="st1" d="M152.5,290.9l1.1-0.1l-3.1,4.2c0-0.7,0.1-1.4,0.1-2.1l-0.1,0.2l1.2-1.2l-0.2,0.2l1.2-1.2L152.5,290.9z"/>
<path class="st1" d="M173.6,144.8l1.1,1l-1.2,3.1l0.2-0.2l-1.2,1.2l0.1-0.1l-2.1,0.1v-4.1l1-1L173.6,144.8z"/>
<path class="st1" d="M304.5,273.6c-0.2-0.2-0.5-0.5-0.7-0.7c0.9-1.9,1.9-3.9,3.2-6.6l10.2,4.6c-0.5,2.8-0.8,5.3-5,3.6
	C309.8,273.6,307,273.9,304.5,273.6z"/>
<path class="st1" d="M305.5,247.1c7.5-1.8,8.4,6.2,14.2,7.4C313.9,257.1,312.4,256.3,305.5,247.1z"/>
<path class="st1" d="M324.4,257.5c5.3-1.7,8.4,0.1,12.9,6.9C330.5,266.5,329.5,259.1,324.4,257.5z"/>
<path class="st1" d="M316.4,263.8c-0.2,0.5-0.2,1.2-0.5,1.3c-3,1.1-10-4.3-9.8-8l9.2,5.3L316.4,263.8z"/>
<path class="st1" d="M347.3,263.3c-5.9,2.1-7.4,1.6-9.4-4.1l9.8,2.5L347.3,263.3z"/>
<path class="st1" d="M276.5,238.4l10.4,8.1c-7,0.8-7.7-5.1-11.5-6.6L276.5,238.4z"/>
<path class="st1" d="M319.8,262c3.8-3,6.3-1.3,8.4,3.1l-6.5-1.1C321,263.3,320.4,262.7,319.8,262z"/>
<path class="st1" d="M319.8,262l1.9,2l-5.3-0.1l-1.1-1.4l-4.1-4.5l0.7-1L319.8,262z"/>
<path class="st1" d="M301.5,263.9c-3.6,3.6-5.8,2-7.4-2.1L301.5,263.9z"/>
<path class="st1" d="M285.3,253.5l-7.3-3.9l1.1-2.2l7.4,3.6L285.3,253.5z"/>
<path class="st1" d="M316.2,245.5l6.3,4c-0.3,0.7-0.6,1.3-0.9,2l-8.9-3.4c1.9-1.4,2.8-2,3.6-2.6L316.2,245.5z"/>
<path class="st1" d="M277.4,204.8c-1.3,5.1-3.2,6.3-7.2,4.4l-0.4-0.5l-1.3-3.9l1.1-1.1l2-2.1L277.4,204.8z"/>
<path class="st1" d="M271.6,201.5l-2,2.1l-1.1,0.7l-7.1-6.5l0.4-1.5l5.8-0.5l4.1,4.4L271.6,201.5z"/>
<path class="st1" d="M271.6,200.2l-4.1-4.4c0.4-1.3,0.4-3.3,1.3-3.8s2.7,0.4,4,0.6l-0.1-0.1c2.5,2.4,2.8,4.8,0,7.2L271.6,200.2z"/>
<path class="st1" d="M263.6,209.4l-9-3.6l5.5-4C264.4,203,263.8,206.2,263.6,209.4z"/>
<path class="st1" d="M239,204.3l-1,1.3c-1.8-1-3.6-2.1-5.2-3.3c-0.2-0.2,1.1-2.2,2.5-4.8L239,204.3z"/>
<path class="st1" d="M257.6,185.3c3.4-3.6,3.6-3.6,7,1C261.7,191.2,259.9,187.6,257.6,185.3z"/>
<path class="st1" d="M272.8,192.6L272.8,192.6c-0.4-1.7-0.8-3.5-1.3-5.2c3.8-0.8,5,1.7,6.6,5.2H272.8z"/>
<path class="st1" d="M174.4,278.7c-1.4-2.3-2.6-4.4-3.8-6.5c1.2-0.4,3.1-1.4,3.6-1C175.8,272.9,179.3,274.6,174.4,278.7z"/>
<path class="st1" d="M193.6,287.8c0,1.5,0,3,0,4.5l-2.1,1l-2.2-3.9L193.6,287.8z"/>
<path class="st1" d="M189.6,297.5l3,4.4l-4.1-3.2L189.6,297.5z"/>
<path class="st1" d="M181,262.4l3.5,3.1l-0.9,1.1l-3.6-3L181,262.4z"/>
<path class="st1" d="M197.6,285.9l-4.1,2C193.2,284,195.3,284.8,197.6,285.9z"/>
<path class="st1" d="M272.9,306.1c-0.4,2-0.4,2-4.4,0.8c-5.7-2-3.9-7.7-6.3-11.3l1.2-0.9l5.3,5.9L272.9,306.1z"/>
<path class="st1" d="M253.6,303.9l-1.1,2.1l-7.7-11.4C252.4,295,249.9,302,253.6,303.9z"/>
<path class="st1" d="M261.2,299.2l-7.2-4.8c5.9-1.7,7.5-0.2,7,4.7C261.1,299.2,261.2,299.2,261.2,299.2z"/>
<path class="st1" d="M298.4,304.6l-9.7-11.3C296.2,294.1,299.4,297.5,298.4,304.6z"/>
<path class="st1" d="M308.8,301.6c-0.5-3.2-1.1-6.5-1.6-9.7c3.2,0.1,3.2,0.1,6.4,12.7l-4.8-3.2L308.8,301.6z"/>
<path class="st1" d="M308.8,301.6v-0.2c-4.6,1.4-5,1-5-3.5c-0.1-0.5-0.2-0.9-0.5-1.3c-0.3-0.5-0.6-1-1-1.7
	C304.8,295,304.8,295,308.8,301.6z"/>
<path class="st1" d="M288.3,295.9c-7.4-1.7-7.4-1.7-7.5-5.5C288.2,292.5,288.2,292.5,288.3,295.9z"/>
<path class="st1" d="M329.1,218.9l-8.5-5.5l2.9-3.1C326.5,212.5,330.2,214.1,329.1,218.9z"/>
<path class="st1" d="M339.2,218.9l0.1,0.2l-3.9-6.7l5.5,1.4l3.4,7.2L339.2,218.9z"/>
<path class="st1" d="M345.8,210l-3.3,0.5c-0.3-1.2-0.6-2.4-0.9-3.6l1.2-0.8L345.8,210z"/>
<path class="st1" d="M271.6,200.2l1.2-0.4c0.9,0.4,1.8,0.6,2.8,0.7c3.3-0.5,6.5-1.2,9.8-1.8c-1.2,1.2-5.9,1.1-1.8,4.5
	c-0.2,0.2-0.5,0.4-0.7,0.6l-5.4,1.1l-5.8-3.3L271.6,200.2z"/>
<path class="st1" d="M280.6,177.9l-2.2,0.1c-0.4-1.3-0.7-2.6-1.1-3.9c0.9-0.1,1.7-0.2,2.6-0.3c0.6,1,1.1,2,1.6,3l-1.1,1.2
	L280.6,177.9z"/>
<path class="st1" d="M287.5,192.8c-0.6,1.4-1.3,2.8-1.9,4.2l-0.1-0.1l-0.9-0.7v-0.3h-0.3l-0.7-0.7c0-1.3-0.1-2.6-0.1-3.9l3.2,0.5
	l-0.2-0.1l1.2,1.2L287.5,192.8z"/>
<path class="st1" d="M318.1,220.9c-0.1,0.7-0.3,1.4-0.4,2.1h-5.2C312.9,218.2,315.5,219.6,318.1,220.9z"/>
<path class="st1" d="M323.6,226.5c-1.2-1.5-2.3-3.1-3.5-4.6C322.6,222.3,325,223,323.6,226.5z"/>
<path class="st1" d="M298.5,195.9c-0.7-1.5-1.4-3-2.1-4.6c3.5-0.4,5.3,0.8,4.2,4.6L298.5,195.9z"/>
<path class="st1" d="M293.5,189.9l-3.1-1l0.2,0.1l-1.2-1.2l0.2,0.1l3-3l-0.2-0.1l1.2,1.2l-0.2-0.1
	C293.5,187.2,293.5,188.5,293.5,189.9z"/>
<path class="st1" d="M300.5,181.9l3.1,1l-2,2.4l-2-2.4l-0.1,0.1l1.2-1.2L300.5,181.9z"/>
<path class="st1" d="M286.1,202.8c-3.4-0.9-1-2.6-0.5-4l2.7,2.2L286.1,202.8z"/>
<path class="st1" d="M115.4,163.6l4.1-2.7l1,0.8l-9.2,11.8c-1.5-2.9-1.5-2.9,3.9-9.7L115.4,163.6z"/>
<path class="st1" d="M120.4,161.6l-1-0.8l3.1-4.3l0.8,0.6l-0.1,0.4v-0.3c-0.2,1.6-0.3,3.2-0.5,4.8L120.4,161.6z"/>
<path class="st1" d="M127.5,155.8l3.6,1.1c-0.1,1.7-0.2,3.4-0.2,5.1l-4.4,1.4C122.9,161,128.2,158.5,127.5,155.8z"/>
<path class="st1" d="M200.5,316.9c-0.5-1.4-1-2.7-1.4-4.1l4.9,1l1,1C204.4,317.4,203.3,318.9,200.5,316.9z"/>
<path class="st1" d="M167.6,153.9l0.9-5.1l2.1,1L167.6,153.9z"/>
<path class="st1" d="M316.6,226l0.9-3.2l3.5,2.7l-0.4,1.3h-3.2l0.2,0.2l-1.2-1.2L316.6,226z"/>
<path class="st1" d="M287.5,185.9v2.1l0.2-0.1l-1.2,1.1l0.2-0.1l-3.1,0.1c-1.1-3.1,0.3-4,3.1-4l-0.2-0.2l1.2,1.2L287.5,185.9z"/>
<path class="st1" d="M289.6,181.8l1,1l-3.1,3l0.2,0.1l-1.2-1.2l0.2,0.2c0-1.1-0.1-2.2-0.2-3.4L289.6,181.8z"/>
<path class="st1" d="M287.5,188h2.1l-0.2-0.1l1.2,1.2l-0.2-0.1c0.1,1.4,0.1,2.9,0.2,4.3l-3.1-0.4l0.1,0.1l-1.2-1.2l0.2,0.1v-3.1
	l-0.2,0.1l1.2-1.2L287.5,188z"/>
<path class="st1" d="M290.6,194.6v4.4l-2.8-1.3L290.6,194.6z"/>
</svg>
