<?xml version="1.0" encoding="utf-8"?>
<!-- Generator: Adobe Illustrator 22.0.1, SVG Export Plug-In . SVG Version: 6.00 Build 0)  -->
<svg version="1.1" id="Layer_1" xmlns="http://www.w3.org/2000/svg" xmlns:xlink="http://www.w3.org/1999/xlink" x="0px" y="0px"
	 viewBox="0 0 400 400" style="enable-background:new 0 0 400 400;" xml:space="preserve">
<style type="text/css">
	.st0{fill:#FFFFFF;}
	.st1{fill:#232323;}
</style>
<path class="st0" d="M85.1,102.7l3.1-2.2l2.6-4.3l2-5.9l7.6,2.2l1.8,0.4c0,0,16.6,4.8,21.3,5l3.1,1l21.6,8.9l4.6,1l8.8,4.9L177,122
	l5.2,1.9l1.7,3.5l15.7,8.2l1.7-0.5l3.8,3l5.5,1.8l5.7,4.3l6.1,2.7l3,1.9l6.1,3.5l15.7,9l14.3,7.7l3.6,3.7l3.2,2.5l2.8,2.7l3,4.3
	l-0.4,7l-1.1,4.9l-0.9,1.6c0,0-0.5,1.5-0.5,5.6c0.1,4.1-1.5,6.8-1.5,6.8l4.5,8.8l0.6,9.4l8.1,6.2l3.2,2.4l1.5,1.7
	c0,0,1.7-0.2,3.5,0.5s1.7,2.3,1.7,2.3s-0.3,2.2-1.8,2.5l-0.6,5.4l-9.5,29.8l-4.6,4l-2.2,5.6c0,0-1.8,0.2-3,2l-3.7,5.1l-1.5,2.1
	l-14.3,1.2l-6.3,1.4l-5.2,2.4c0,0-5.5-0.1-5.6-0.2c-0.1-0.1-1,0.2-1,0.2l-3.7-1l-9.2-7.3l-17.2-11.9l-13.7-0.4l-2.5-0.8L184,278
	l-9-12.9l-2.4,4.3l-2.6-1.8l-5.6-5.2l-11.4-11.8l-19-12.4l-3.3-0.7l-4.7-4.7l-5.4-4.9l-6.4-6.4c0,0-6.8-7.8-7.6-10.5l-5.3-9.4
	l-2.1-11.6l-5.3-4.7l-9.1-25.6l-2.9-9.1l-0.9-7.2l2.2-8.2l-0.7-10.1l0.1-1.6l-0.4-5c0,0-1.7-3.9-0.9-7.2S84.4,102.7,85.1,102.7z"/>
<title>Artboard 1_1</title>
<path class="st1" d="M144.8,117.3c2,2.3,4.9,1.6,7.4,2.4s4.9,1.5,7.3,2.1c1.1,0.3,2.3,0.1,3.4,0.4c6.1,1.7,10.5,5.7,13.5,11.1
	c0.5,1.1,1.6,1.8,2.7,1.8c3.6,0.3,7.3,0.5,10.4,2.5c4.1,2.7,8.2,5.5,12.1,8.4c1.4,1,2.2,2.8,3.2,4.2l4.4,5.9c0.6,0.9,1.6,1.3,2.6,1
	c1.7-0.4,3.4-0.6,5-1c2.9-0.6,5.8-0.3,8.5,1c4.1,1.8,8.2,3.5,12.4,4.9c2.7,0.9,5.2,2.8,7.7,4.3c1.7,1,3.4,2.1,4.9,3.4l-1.5-0.4v1
	l-4.4-2.2l-0.4,0.4l1.5,2.1l0.1,2.1c-0.3-0.3-0.8-0.6-1-0.9c-0.7-1.5-1.3-3-2.1-4.4c-0.6-0.7-1.3-1.3-2-1.9c0.8,2.2,1.4,4,2,5.7
	l-0.4,0.2c-0.6-1.2-1.2-2.5-1.8-3.9l-0.6,0.8l-0.7-3.1l-2.4-1.7l0.2,2.8l-0.2,0.1c-0.1-0.4-0.2-0.8-0.3-1.2c0-0.4,0-0.9-0.1-1.3
	c-0.2-0.5-0.5-0.9-0.9-1.1c0.5,4.6,1.9,9,4,13.1l-0.7,0.2c-1.2-3.2-2.4-6.4-3.5-9.7c-0.4-1.1-0.2-2.5-0.9-3.2
	c-1.3-1.2-2.7-2.4-4.2-3.3l-0.6,0.8l2.1,1.7c0.3,2,0.4,4.1,0.9,6s1.3,3.8,1.8,5.7c-2.2-3-2.8-6.5-3.1-10.1l-0.7,0.1
	c0.4,2,0.7,4.1,1.1,6.1s1.1,4,1.5,6.1c0.5,2.1,0.7,4.2,0.8,6.3c-0.3-1.2-0.6-2.4-0.9-3.6c-1.1-4.1-2.2-8.2-3.2-12.4
	c-0.5-1.9-0.6-4-1-5.9c-0.1-0.7-0.5-1.4-1.1-1.9c-1.1-0.6-2.3-0.9-3.5-1c4.4,2.1,3.9,6.3,4.5,10l-1.8-5.4v3.6l-0.2,0.1l-0.8-2.2
	h-0.2l0.3,2.6l-0.5,0.1l-0.5-3.1l-0.3,0.1v5.4l-0.6-3.6l-0.6,0.1l1.7,12.1h0.4V175c1,0.2,0.9,0.2,1.5,2.9c0.2,1.2,0.6,2.5,0.9,3.7
	l-0.6,0.1c-0.2-1.1-0.5-2.2-0.7-3.3l-0.4-0.4l-0.8,1.3l-1.7-3.8c-0.2-3.5-0.4-7.1-0.7-10.6c-0.4,3.6-1.1,7.2,0.7,10.6
	c0.5,2.8,0.7,5.7,1.7,8.3c0.9,2.2,2.7,4,3.9,6.1l-1.2-0.8l0.8,2.4l-0.1,0.1l-4.5-7l1.1,0.6c-0.6-1.2-1.1-2.4-1.5-3.6
	c-0.6-2.4-1.1-4.9-1.7-7.4c-0.3-1.3-0.6-2.7-1-4l-0.5,0.1l0.8,5.5l-0.2,0.1c-0.4-2.4-1-4.7-1.7-7c-1.3-3.6-2.8-7-4.3-10.5
	c-0.1-0.3-0.6-0.4-1-0.6c-0.2,0.4-0.6,0.9-0.5,1.2c0.4,2,0.9,4,1.2,6.1c-1.7-2-0.5-5.4-2.8-7.1l-0.7,0.2c0.9,3.3,1.8,6.7,2.7,10
	l-0.5,0.1l-2.6-8.9l-0.4,0.1c0.7,2.5,1.3,5,1.9,7.6l-0.4,0.1l-1.9-6.4l-0.5,0.1l0.7,5.1l-0.4,0.1c-0.4-2.2-0.9-4.4-1.3-6.7
	c-1.1,0.8-1.2,0.8-1,4.5c0.2,1.7,0.6,3.5,1.1,5.2l-1-1.4h-0.4c0.1,2,0.2,4,0.4,6.1c0.2,2.2,0.4,4.4,0.7,6.6l-0.5,0.1l-1.5-11.5h-0.7
	c0,1.3,0,2.6,0,3.9c0.1,1.3,0.1,2.6-0.1,3.9l-0.7-10.2h-0.3v4.4h-0.2l-0.4-1.9l-2,2.3c1.3,2.1,1.4,4.7,0.4,6.9
	c-0.6,1.4-0.1,3.2-0.1,4.9c0.1,0.8,0,1.5-0.1,2.2l-0.6-1.2c-0.2,0.2-0.3,0.3-0.3,0.4c0.2,2.3,0.4,4.6,0.6,6.9
	c0.2,0.9,0.4,1.8,0.6,2.7c0.1,0.5,0.6,1.2,0.5,1.6c-0.9,2.6,1.3,3.1,2.7,4c0.8,0.4,1.7,0.8,2.6,1c1.2,1.5-3.4,2-0.2,3.6l1-2.3
	l0.2,0.1c-0.1,1.9-0.1,3.9,0.1,5.8c0.3,1.2,0.7,2.4,1.3,3.6v-0.1l-1.1,0.5l-5.2-12.1l-0.8,0.3c0.3,1.1,0.6,2.3,0.9,3.4l-0.4,0.1
	l-2.1-6.1l-0.8,0.2l1.5,8.1l0.4-0.1v-1.2c2,1-0.3,4,2.4,4.6l0.8-1c-0.7,2.2,1.9,3.3,1.7,5.4c0,1.2,0.9,2.3,2.2,2.3
	c0.1,0,0.1,0,0.2,0c0.4,0,0.7,0.8,1.1,1c0.6,0.3,1.1,0.5,1.7,0.7c1.6,2.9,3.5,6.2,5.4,9.5c0.5,0.8,0.9,1.6,1.3,2.5l-7.6-10.4
	l-0.3,0.2c2.4,4.8,4.9,9.6,7.3,14.3l2.5-0.7l-2.3,2c0.6,0,1.1,0.1,1.7,0.1c0.6,0.1,1.2,0.3,1.8,0.5c2.2,0.5,2.8-0.1,2.6-2.4
	l-3.8-0.3l3-0.9l-0.1-0.5c-1,0.1-1.9,0.3-2.9,0.4c-0.6,0-1.4,0-1.6-0.4c-0.2-0.6-0.3-1.3-0.2-2c0.6,0.2,1.2,0.4,1.8,0.6
	c0.9,0.4,1.9,0.6,2.8,0.7c2.4-0.2,4.9-0.6,7.4-1l-1.2-0.5l0.1-0.5l3.4,0.5c0.2-2.4-2.4-4-2.9-6.4c1.7,2,3.8,3.9,3.8,6.3l6,2.1
	L241,232c-1.9,0.2-3.9,1-5.5-1c-0.3-0.4-1.2-0.4-1.8-0.4c-1.6,0.2-3.2,0.5-5.2,0.6l1.4-0.1c-3.6,1.8-4.2,3-3.1,5.5l1.6,0.4
	c-0.4,0.3-0.9,0.5-1.4,0.6c-4,0.7-8.7,4.2-8.2,8.2c1.4-0.7,2.9-1.4,4.2-2.2c1.5-1,3.5-1,5,0.1c0.6,0.3,1.3,0.4,2,0.3
	c2.9-0.3,5.8-0.8,8.8-1.1c0.5-0.1,1.1,0.1,1.5,0.4c-2.5,0.8-4,3.6-7.1,3.1c-0.5,0-1,0.2-1.4,0.5c-1.3,1-2.5,2-3.8,3
	c-0.2,0.2-0.6,0.2-1,0.3c-2.1,0.6-4.2,1.4-6.2,2.3c-1.4,0.7-2.4,2-4,3.4l0.1-1.6c-2.2,3.2-5.8,3.9-9,5.1l0.2,0.6l8.8-2.7l0.2,0.5
	l-1.2,0.9l1.5,1l2.3-2.9l0.4,0.3l-2.4,3.6l2.4,1.6l-2,3.5l0.5,0.3l1-1.8l1.1,0.9l2.7-4.5l-0.4,2.2l0.3,0.1l1.1-2.8l0.3,0.1l-0.6,2.9
	c0.3-1.3,2.1-2.4,0.9-4c0,0,0.8-0.7,1.2-1.1l0.4,0.3l-2.1,6.3c3.4,0.2,6.4,0.4,9.4,0.5c0.2,0,0.4-0.2,0.6-0.4c0.6-1.4,1.3-2.7,2-4.4
	l0.9,1.3l4.4-5.3l0.4,0.2c-0.7,1.2-2.2,2.9-1.9,3.4c1,1.7-0.7,2.4-0.5,3.8l3.2-4.6l0.3,0.2c-0.8,1.5-1.5,3.1-2.2,4.3l1.1,1
	c1.1-1,2.2-2.2,3.4-3.3l0.3,0.1l-1,2.4l1.3-0.8l-1.6,4.5l0.1,0.1l4.5-6.2l0.4,0.2c-1,2.4-2,4.8-3.1,7.3c2.1,0.3,3.2-0.1,3.8-2
	c0.7-1.8,1.4-3.5,2.2-5.2l0.7,0.3l-2.7,5.8l0.6,0.3c2.4-3.4,3.4-7.5,5.1-11.2s3.2-7.4,4.9-11.2l-0.5-0.3l-3.1,4.8l-0.6-0.4l2.1-4.1
	L259,246l-5.8,7.1l-0.5-0.3l2.2-3.9l-0.2-0.2l-1.5,1.3c-0.6-1-2.6-0.9-3.6,0.4c-1.3,1.6-2.5,3.3-4,5.2v-1.4l-2.2,3.1l-0.3-0.2
	l1.3-3.3l-2.2,0.8l-0.1-0.3c1.1-0.8,2.1-1.7,3.2-2.4c2.2-1.4,2.3-4.1,3.6-6c0.8-1.2,1.5-2.5,2.2-3.7c0.6-0.9,0.6-1.5-0.9-1.5l1-1.8
	c1,1.4,1.8,0.3,2.6-0.1c1.4-0.8,2.7-1.7,4-2.5c0.4-0.3,0.9-0.4,1.4-0.7c2.7-1.4,5.4-2.9,8.1-4.4c0.5-0.2,0.9-0.7,1.1-1.2l-11.6,2.2
	l-0.1-0.6c2.3-0.4,4.6-0.7,6.8-1.3c2.7-0.7,5-1.9,5.8-5c1.6,0.6,1.7-0.2,1.8-1.6c0.4-4.2-0.4-8.4-2.3-12.1c-0.5-1.2-0.8-2.5-1-3.9
	h-0.5l-0.4,0.9l-0.4-0.2l0.8-1.8l-2.7-3c0.3-1.5,0.7-3.1,1.1-4.8h0.3l-0.3,4.1c1.3-1.3,1.4-3.7,0.8-5.3c-0.3-1-0.5-2-0.5-3
	c-0.7-3.3-1.3-6.5-2-9.8c-0.3-1.5-1-3-1.3-4.5c-0.5-2.6-2.4-4-4.4-5.5c-1.6-1.2-3.1-2.4-4.6-3.8c0.9,0.4,1.9,0.8,2.8,1.3
	c4.1,2.1,8.4,3.9,11.5,7.5c0.7,0.7,1.5,1.4,2.3,2.1c-0.3,0.3-0.8,0.7-0.8,0.9c0.4,0.8,0.9,1.6,1.5,2.4c0.2,0.3,0.9,0.2,1.4,0.3
	l-2.2-3.6l3,3.1c0.1-4.2-2.6-6.8-5.1-9.6c2.9,1.3,5.1,3.9,5.8,7c0.2,1.2,0.8,2.3,1,3.4c0.2,0.9,1.4,1.9-0.2,2.7
	c-0.1,0.1-0.1,0.5-0.1,0.7c1.2,2.9-1.3,3.9-2.3,5.1c-0.2-2.1-0.4-4.5-0.6-6.9h-0.4v3.6l-1.4-4.7l-0.4,0.1l-0.1,2.8l-0.5,0.1l-0.9-6
	h-0.4l-0.4,1.6c-0.2-0.8-0.4-1.7-0.5-2.5h-0.2v3.4h-0.3c-0.3-1.7-0.7-3.4-1-5.1l-0.5,0.1l1.9,12.4h0.6V185c0.2,3,0.4,6,0.5,9
	c0.1,2.6-0.1,5.2-0.2,7.8c-0.1,0.5,0,1,0.1,1.5c0.2,0.4,0.7,0.8,1,1.1c0.2-0.4,0.7-0.9,0.7-1.3c0.1-2,0.1-4,0.2-6
	c0-0.6,0.2-1.1,0.6-1.5l-0.3,7.3l0.5,0.1c0.1-2.4,0.3-4.8,0.4-7.2l0.8,0.1c-0.8,3.2,1.2,6.4-0.4,9.7c-0.3,0.6,0.1,1.7,0.3,2.6
	c0.9,3,1.9,6,2.6,9c0.7,2.6,1.1,5.3,1.8,8.2c3.4,0.7,5.1,3.8,7,7.4c-3.4-1.8-4.1,1.9-6.3,2.6l2.8-3.4l-0.2-0.3
	c-1.2,1-2.4,1.9-3.5,2.9s-2.1,2.5-3.3,2.8c-1.2,0.3-2.2,1-2.9,1.9c-2.9,2.6-4.4,6.1-6.2,9.4l3.9-4.4c-0.9,3.3-1.7,6.2-2.4,9h-0.2
	l0.1-1.8c-0.8,1.2-1.7,2-1,3.5c0.3,0.6-0.5,1.6-0.8,2.6c2.2,0.1,2.2-2.4,4-3.3l-1.6,3.5l0.2,0.1l2.3-2.6l0,0
	c-0.7,3.4-2.3,6.5-4.5,9.2l1.2-3.2l-0.6-0.2c-0.5,1.6-0.9,3.1-1.5,4.7c-0.4,0.9-0.9,1.8-1.5,2.5c-0.6,0.6-1.1,1.3-1.5,2l1.4-0.1
	c0.8,2,2.8,0.7,4.2,2l-3,0.2c-0.1,5.1-1,10.6,1,16.4c0.2-0.2,0.3-0.5,0.4-0.7c0-0.2,0.1-0.4,0.1-0.6l2.9,6.5l-0.2,0.2l-1.5-1.7
	l-0.5,0.2c0.5,1.1,1,2.1,1.7,3.5c-2.1,0.8-4.2,1.4-6.3,1.8c-2.3,0.4-4.6,0-6.9,0.2s-4.8,0.5-7.3,0.6l4-1.4c-4,0-5.8-2.6-7.2-5.7
	l0.9-0.1c-0.4-1-0.7-1.9-1.1-2.9l-0.4,0.1c0.1,0.5,0.1,1,0.1,1.5l-0.4,0.1l-1.6-4.5l-0.5,0.1c0.3,3.5,2.5,6.6,3.5,9.9L242,296
	l-1.4-2.7l-0.4,0.1l1.9,4.2l-0.4,0.2l-3.8-7.7c-0.1,1-0.2,1.9-0.3,2.8l-0.4,0l-1-2.1l-0.4,0.2l1.4,3.9l-1.1-0.2
	c1.1,1.7,2,3.1,2.9,4.6l-0.2,0.2c-0.8-1-1.5-2-2.4-2.9c-0.6-0.5-1.2-0.9-1.9-1.1c-2.9-2-1.6-5.4-2.3-8.2l-0.6,0
	c0,0.7-0.1,1.5-0.1,2.5l-1.1-2.2l-0.4,2.9l-1.3-2.3l-0.6,1.4h-0.3v-5.3h-0.5c-0.1,2.4,0.1,4.9-0.5,7.3c-0.4,2,0.4,3.2,1.6,4.6
	c-0.4-1.8-0.9-3.4-1.3-5l0.7-0.3c1.2,3.6,1.7,7.6,5.6,10c-1.5-3.4-2.9-6.5-4.3-9.6l0.6-0.2l1.9,3.7l0.2-0.1
	c-0.2-1.2-0.4-2.3-0.6-3.5h0.2c1.3,2.8,2.6,5.5,4.1,8.8l-3-3.8l-0.6,0.4c1,1.3,1.8,3.2,3.2,3.9s3.3,0,4.9-0.2v0.6
	c-2.7,0.1-5.4-0.1-8,0.4c-2.1,0.4-2.9-0.9-4.3-1.6c-1.1-0.5-2.2-0.7-3.4-0.7c-3.6-0.1-6.4-1.9-9-3.9c-2.3-1.8-4.4-3.7-6.8-5.6
	l-1,1.2l-3-5.8l0.3,2.6c-2.4-1.3-4.6-2.6-6.9-3.7s-4.6-1.9-6.9-2.8c-0.8-0.3-1.6-0.3-1.7-1.5c0-0.5-1-0.9-1.5-1.5
	c-0.4-0.4-0.7-0.8-0.9-1.3c-0.7-3-1.2-6-1.9-9c-0.4-1.9-1.1-3.7-1.7-5.5l-0.5,0.1l0.3,1.8l-0.2,0.1l-1.3-2.8
	c-0.3,2.2-0.4,4.4-0.3,6.6c0.2,2.4,1,4.7,1.2,7.1l-1.1-3.3c-0.1,2.4,0.9,4.7,2.7,6.2c-5-3-10.1-5.9-13.9-10.4l0.9,0.5
	c-2.6-2.6-1.9-6.4-3.5-9.4l-0.7,0.2c0.6,2.3,1.1,4.6,1.7,6.9l-0.4,0.1c-0.4-1-0.8-1.9-1.1-2.9c-0.5-2.2-0.9-4.4-1.5-6.6
	c-0.3-0.7-0.8-1.2-1.5-1.5l2,8.4l-0.7,0.2l-2.9-12.3c-0.5,0.4-0.6,0.4-0.1,3.4c0.3,1.4,0.4,2.7,0.4,4.1c-0.6-2-1.1-3.9-1.6-5.9
	l-0.4,0.1c0.2,1.1,0.4,2.3,0.7,3.4c0.2,1.2,0.5,2.5,1,3.6c0.5,0.8,1.6,1.2,2.4,1.8l-0.4,0.6l-5.1-3.1l0.4-0.2c-1-0.6-2.1-1.2-3-1.9
	c-3-2.3-6-4.7-9.1-7c-4.8-3.6-9.5-7.1-14.4-10.7c0,0.3,0,0.6,0,0.5c-2.3-2.3-4.8-4.8-7.2-7.2l0.4-0.4l4.3,4.1l-1-3.6l0.9,0.4
	c-1.1-2-2.1-4.1-3.3-6.3l0.3,2.1l-0.4,0.2l-1.5-3.7l-0.4,0.1l1.4,4.9l-2.5-4.6c0.6-0.6,0.5-1.3-0.6-1.8s-1.8-1-2.7-1.6l-0.5,0.7
	c-0.7-1.7-1.4-3.4-2-5l-0.6,0.1l0.8,4.2l-0.5,0.2c-0.1-3-1.7-5.4-3.3-7.7l-0.5,0.1l1.1,5.6l-1.8-2.4c1.2-1.8,0.1-3.3-0.8-4.9
	l0.3,3.2l-0.6,0.1c-0.5-1.7-0.9-3.5-1.5-5.2c-0.1-0.4-0.3-0.7-0.6-1l-6.1-7.8l-0.8,1c0.1,0.2,0.2,0.4,0.3,0.4c1.4,0.3,2.3,1.6,2,2.9
	c0,0,0,0.1,0,0.1c-0.2,1.2-0.2,2.1,1.2,2.5c0.3,0.1,0.6,0.6,0.6,1c0.5,3.7,3,6.1,5.4,8.7c1.2,1.4,2.5,2.7,3.8,4
	c1.4,1.4,2.8,2.6,4.2,4l-0.4,0.5c-1.3-1.1-2.6-2.3-4-3.4c-5.2-4.5-8.4-10.5-12.3-16c-3.3-4.6-5.1-9.9-7.4-14.9c-0.1-0.3,0-0.7-0.1-1
	c-0.2-1.1-0.5-2.1-0.9-3.1c-0.7-1.2-1.9-2.1-2.4-3.3c-1.2-3.1-2.1-6.4-3.2-9.6s-2-6.1-3-9.2c-0.8-2.6-1.7-5.2-2.5-7.8l0.5-0.2
	l0.8,1.1l1.9-3.9l0.6,1.8l0.8-0.7c0,0.4,0,0.7-0.1,1.1c-0.6,2.6-0.4,5.3,0.5,7.8c1.3,3.1,2.1,6.5,3.2,9.7c0.6,1.8,1.5,3.4,2.3,5.1
	l0.5-0.2l-2.7-9.5l0.6-0.1c1.1,3.6,2.2,7.3,3.3,10.9l0.7-0.2l-0.7-3.3c1.3,4.1,2.6,8.1,6.4,10.6l-0.4-7h-0.3l-0.2,1.4
	c-0.5-3.5-2.8-6.8-1.1-10.7c0.2,0.6,0.4,1,0.5,1.4s0.2,0.9,0.3,1.3c1.1,4.3,1.8,8.7,3.3,12.9c0.8,2.1,0.9,5,3.8,6
	c0.3,0.1,0.4,0.7,0.8,1.7c0.7-1.5,1.4-2.5,1.6-3.6c0.2-2,0.3-3.9,0.2-5.9c0-5.3,0-10.6,0-15.8v-5.1h0.7c0,3.9,0,7.8,0,11.7
	c0,1.1,0.2,2.2,0.5,3.3c0.1,0.4,0.7,0.7,1.2,1.2c-0.1,0.3-0.2,0.6-0.5,0.9c-1.7,1.3-1.2,3-1.1,4.7c0.1,2.4,0,4.8,0,7.2
	c0,1.9-0.5,3.9,0.1,5.5c0.5,1.5,2.2,2.6,3.3,3.8c0.2,0.2,0.7,0.2,1,0.4c1.7,1.4,3.2,2.9,4.9,4.3c0.3,0.3,0.9,0.2,1.2,0.2
	c0.9,0.9,2.2,1.7,2.5,2.8c1,3.1,3.6,4.5,6,6.1c0.2,0.1,0.3,0.3,0.4,0.4l0.8-0.9c0.5,1,1.1,2,1.8,2.9c0.7,0.7,1.5,1.3,2.4,1.9
	l0.5-0.3c-0.2-1.8-0.4-3.6-0.4-5.4c0-1.9,0-3.7-0.2-5.6c-0.8-4.3-0.9-4.3-0.4-4.7c0.3,1.7,0.7,3.3,1.1,4.9c1.2,3.2,0.6,6.5,0.9,9.7
	c0.1,1,1.4,2,2.3,2.8c1.2,1.1,2.5,1.9,3.6,2.7c-0.2-1.3-0.5-3-0.8-4.8l0.5-0.1l0.5,0.7v-2.8l0.6,1.3h0.2c0.1-2.4,0.1-4.8,0-7.2
	c-0.3-3.3-1-6.6-1.5-9.9c-0.1-0.7-0.4-1.5-0.7-2.1c-0.2-0.4-0.6-0.6-0.9-0.9l-0.7,0.8l-2.1-2.5c0.3,3,0.5,5.4,0.7,7.8l-0.6,0.1
	c-0.2-1.9-0.4-3.8-0.6-5.6c0-0.8-0.2-1.5-0.5-2.2c-0.2-0.4-1.4-0.7-1.6-0.5c-0.5,0.5-0.8,1.2-0.8,1.9c0.4,1.4,0.9,2.8,1.4,4.1
	c0.2,0.8,0.4,1.7,0.5,2.5c-1-1.8-1.9-3.3-2.7-4.9c-0.9-1.8-1.8-3.7-2.7-5.5c-0.2-0.4-0.4-1-0.8-1.3c-1.3-0.8-0.9-1.8-0.2-2.8
	l3.9,4.4l0.5-0.5l1.9,1.3l-1.4-5l0.5-0.1l0.7,1.6h0.2l-0.2-2.6c1.6,2.2,0.1,5.1,2.1,6.9l1.7-1.5c-0.3-2.8-0.7-5.9-1.1-9l0.5-0.1
	l0.8,4.4h0.2v-11.7h0.1l1.4,15.3h0.5V182h0.2c0,0.9-0.1,1.9,0,2.9c0.2,3.8,0.5,7.6,0.7,11.3c0.1,1,0.2,2,1.5,1.9s1.4-1,1.2-2.1
	c-0.2-1.2-0.3-2.5-0.2-3.7c1.3,2.6,0.7,5.5,0.9,8.3l-0.9-1.9c-0.3,0.6-0.4,0.9-0.6,1.2c-1.5,2.7-2.1,5.7-1.7,8.8
	c0.3,4.5,1,9,1.6,13.5c0.2,1.9,0.5,3.7,0.7,5.4c0.7,0.2,1.4,0.4,2.1,0.6c1.3,0.2,2.6,0.4,3.9,0.5l-0.3,0.9c1.2-1,2.3-2,1.5-3.9
	c-0.5-1.2-0.6-2.5-0.4-3.8c0.4,1.5,0.8,2.9,1.3,4.8c0.9-3.5-0.5-10.6-1.9-11.3c0.3-3.2,0.6-6.3,1-9.4h0.2v2.8l0.4,0.1l1.2-2.6
	l-1.3,8.1h0.4l0.1-1.3h0.5c0,3-0.2,6.1,0.1,9.1c0.3,4.5,2.4,8.4,4.5,12.3c0.8,1.4,0.7,3.1,1.4,4.6c0.8,1.7,2.4,2.8,4.3,2.9
	c0.2,0,0.4,0.1,0.6,0.3c0.6,0.6,1.3,1.1,2.1,1.5c2.6,3.3,6.3,4.8,10.2,6.5l-1.4-3.5l0.2-0.1l2.4,3l0.2-0.1l-0.7-2.1l0.2-0.1l2.3,4.6
	l2.2-0.7l-1.1-3.6l0.3-0.1c0.4,0.9,0.7,1.8,1.1,2.7c0.6,1.3,1.4,1.8,2.9,1c1.3-0.6,2.7-1,4.1-1.4c2.4-0.7,4.4-2.3,5.6-4.5
	c0.3-0.5,0.7-0.9,1.2-1.3c-1,4-4.5,5.4-7.5,7.3c-0.4,0.4-0.8,0.8-1.2,1.3l0.3,0.3l0.7-0.1l1.8,2.7c1-1.5-2-3.3,0.8-4.5l0.3,1.9
	l1.5-2.4v-0.1c0.3,1.2-0.3,2.7,1.1,3.8c6.1-7.9,7.3-16.8,5.9-26.2c-0.3-2-0.1-4.3-2.2-5.8l1.3,8h-0.2c-0.8-2.8-1.8-5.6-2.5-8.4
	c-0.3-0.9-0.2-1.9,0.1-2.8c0.8-2,0.9-3.8-0.7-5.5l0.6-0.2l1.4,2.9c2.9-2.6,3-3.4,1.2-7.2c-1.2-2.2-2.1-4.5-2.7-6.9
	c-1-4.6-1.7-9.3-2.4-13.9c-0.5-3.5-0.6-7.1-0.9-10.9l-0.8,1.5l-0.4-0.1l0.4-6.5h0.6l0.2,1.6l0.4,0.2l1.6-3.4c0,0.4,0.1,0.9,0.1,1.4
	c-2.5,4.4-0.6,8.9-0.8,13.4c0.3-0.1,0.5-0.3,0.5-0.4c0.1-4.3,0.2-8.7,0.3-13c0.2-0.8,0.4-1.6,0.6-2.5c0.2-1.4,0.3-2.8,0.6-4.2
	s0.7-3,1-4.5l-0.7-0.2l-1.3,2.9l-1-1.3l-0.4,1.9c-0.2-0.3-0.5-0.6-0.5-0.7c0.5-1.8,1-3.7,1.6-5.5c0.1-0.4,0.3-0.8,0.4-1.2
	c0.5-2.1,0.8-4.3,1.5-6.3c0.8-2.3-0.6-3.4-2.3-4.3c-2,1.3,0.5,2.6,0.1,4l0.9-1.2c0.1,0.2,0.2,0.4,0.1,0.5c-0.5,2.3-1,4.6-1.5,6.9
	c-0.3,1.3-0.6,2.7-0.8,4c-0.2,1-0.3,1.9-1.7,1.6l0,0c0.7-1.7,1.4-3.4,2-5.2l-0.5-0.2l-1.9,3.7l-1-0.4l2.6-5.8l-0.4-0.2l-0.9,1.6
	l-0.4,0c0.2-0.8,0.1-1.9,0.6-2.3c1-0.9,0.8-1.8,0.1-2.9l-2,6.8l-0.6-0.1c0.2-1.6,0.4-3.3,0.7-5c0.2-1,0.6-2,1-3
	c0.2-0.5,0.5-1.2,0.9-1.3c1.6-0.3,2-1.4,1.8-3.3l3.7,3l0.3-0.5c-1.9-2.9-5.3-3.8-8.1-5.4l1.4,1.2h-2l-0.8-1.6
	c-0.4,2.3-0.8,4.2-1.1,6.2l0.3,0.2l1.8-4l0.4,0.1v1.9l1.6-1l-2.1,7.3l-0.5-0.1c0.2-1.2,0.4-2.3,0.6-3.6c-2.7,1-2.3,3.5-3.3,5.4
	c0-0.4,0-0.8,0-1.2c0.1-0.4,0.2-0.8,0.3-1.2l-0.6-0.1c-0.2,1.2-0.5,2.3-0.9,3.5c-0.6,1.2-1.2,2.3-1.9,3.4h0.1l0.2-2.5l-1.1,0.4
	c0.9-1.4,1.8-2.9,2.5-4.5c1.1-2.8,2.7-5.4,2.2-8.5c-0.3-1.1-0.7-2.2-1.1-3.2l-0.7,0.2c0.3,0.5,0.5,1.1,0.7,1.7
	c0.1,0.4,0.1,0.8,0,1.1c-0.3,1.4-0.6,2.9-0.9,4.3c0,0.1,0.4,0.4,0.6,0.6l-2.2,2.4c0.2-2.2,0.5-4.3,0.7-6.6c-1.8,1.2-3,5.6-2.5,7.6
	c0.2,1.1,0.3,2.2,0.2,3.3h-0.7l0.3-2.4l-0.4-0.1l-0.8,1.9l-0.4-0.1l0.6-6l-0.6-0.1l-2.3,9.6l-0.7-0.2c0.3-1.2,0.6-2.3,0.8-3.5
	l-0.3-0.1l-2.5,5l-0.7-0.3c-0.9-2.2,0-4.2,1.3-6.1l-1,4.6l0.5,0.2c0.3-0.6,0.6-1.3,1-1.9c0.7-1.4,0.5-3.4,2.2-4.3
	c0.3-0.1,0.3-1,0.3-1.6c-0.1-0.8-0.2-1.6-0.1-2.4c0.5-2.2,1.1-4.3,1.7-6.7c-0.4,0.4-1.1,0.6-1.2,1c-0.4,1.4-0.7,2.9-0.9,4.4
	c-0.2,2.1-1.6,3.4-2.8,4.9c-0.9,1.4-1.5,2.9-1.8,4.5c-0.3,1.4-0.5,2.8-0.7,4.2l-0.7-0.1c0.4-4.7,0.9-9.3,1.3-13.9l-0.2-0.1
	c-0.5,1.1-0.9,2.3-1.4,3.4v-4.8l-0.6-0.1c-1.7,3-0.7,6.4-1,9.7l1-0.8l0.5,0.3l-1.5,3.8c-0.3-0.2-0.8-0.5-0.8-0.7
	c0-3.5,0-7.1,0.2-10.6c0.2-0.8,0.6-1.6,1.2-2.2c1.5-1.7,1.8-4.2,0.6-6.2c-1.2-2-2.2-4.1-3.3-6.1l-0.5,0.2l0.5,1.3
	c-2.3-1.1-3.5-0.2-3.4,2.6c0.1,0,0.3,0,0.3,0c0.4-0.5,0.9-1.6,1.1-1.6c0.9,0.2,1.1,0.9,1,1.9c0,1.6,0.1,3.1,0.3,4.7
	c0,0.2-0.1,0.4-0.1,0.6h-0.5v-4.3l-0.6-0.1l-0.6,2.6h-0.4v-2.9l-0.4-0.1l-1,4.2h-0.3l0.2-2.5l-0.7-0.1c-0.1,2.4-0.3,4.8-0.4,7.2
	h-0.5c0-2.2,0.1-4.4-0.1-6.6c-0.2-1.5-0.6-3-1-4.5l0,0c0.4-1.7,0.8-3.4,1.2-5.1h0.8c0.4,1.4,0.9,2.8,1.3,4.3l0.5-0.1
	c-0.5-1.8-1-3.6-1.5-5.3l4.7,2.2c-1.4-2.6-4-2.8-6.4-4.2l-1.7,7.5l0.1-0.1l-1,2.3h-0.3l0.5-3.9l-0.4-0.1c-0.6,4-1.1,8.1-1.8,12.5
	c0-2.9,0.1-5.3,0-7.8s-0.6-4.7-0.8-7c0.1-0.7,0.2-1.3,0.3-2c0.1-2.5,0-2.5-2.8-2.5c0.2,4.6,0.4,9.2,0.6,13.8H157l-1.6-13.3l0.2-0.1
	l0.8,2.3c0.3-1.5,0.3-2.9-1.8-3.6l0.6,6.4l-0.6,0.1l-0.7-4.8h-0.4c-0.1,0.9-0.1,1.7-0.1,2.6c0.1,2.5,0.5,5,0.4,7.5
	c-0.2,1.2-0.6,2.4-1.1,3.5v-11.9l-0.7-0.1c-0.3,3.9,0.3,8-1.6,11.7c0.2-2.9,0.3-5.7,0.5-8.6l-0.5-0.1l-0.3,2.6h-0.4l0.6-7.7
	l-0.6-0.1c-0.2,2.2-0.5,4.3-0.8,6.5h-0.2v-4.3h-0.6V136h-0.3c-0.5-2.5-1-5-1.5-8v7.6h-0.4l-0.5-7.9H145l-0.5,5.1
	c-1.5-0.3-1.8-1.2-1.8-2.6c0-2.2-0.3-4.3-0.7-6.5c-1.7,2.6,0.3,5.4-0.6,8.3c-0.2-1.7-0.3-3.2-0.5-4.8c-3.5,1.5-0.6,4.6-2.1,6.5
	c-0.5-2.1-0.6-4.4-0.2-6.5l-1,1.9l-0.6-0.3c0.7-1.8,1.4-3.6,2-5.5c0.4-1.4,0.8-2.8,1.2-4.4l0.4,1.5c2.2-2.5,1.6-4.2-1.8-5.6
	l-0.6,3.3h-0.3l-0.2-3.3l-1.8-0.4c-0.4,3.8-0.8,7.6-1.1,11.4h-0.1c-0.2-2.1-0.4-4.3-0.5-6.4s1.2-4.2-0.6-6h-0.8l0.4,6.9l-0.2,0.1
	l-0.4-2.5H132l-1.3,10.2l-0.6,0.1l-1.1-7.4l-0.4-0.1l-1.1,5.9h-0.3L128,116l-0.6-0.1l-0.8,4.2h-0.2c-0.1-1.9-0.6-3.8-0.3-5.7
	c0.5-3.4-2.1-4.1-4.4-5.8l0.2,3.8l-0.6,0.1c-0.1-0.8-0.3-1.7-0.3-2.5c-0.2-1.9-1.1-2.5-3-1.6l0.6,1.9l0.6-1.6h0.5l1.5,9.8l-0.8,0.1
	l-0.8-4.6h-0.3l-0.2,2.1h-0.2l-1.3-6l-0.7,0.1l2,13.6l-0.7,0.1l-0.2-3.4l-0.4-0.1l-0.6,2.1l-0.5-3.4c1.3-0.6,1.3-0.6-0.1-3.9
	c-1.4,2.1-0.5,4.4-0.3,6.8c0.2,3.1-0.2,6.2-0.3,9.4c0.1,0.6,0.3,1.2,0.6,1.8c0.1,0.2,0.2,0.4,0.1,0.5c-1.9,1.9-0.4,4.2-0.7,6.2
	c-0.4,3-0.7,6.1-0.9,9.1c-0.2,2.5-0.2,5-0.3,7.5c-0.1,0.7-0.2,1.4-0.3,2.1h-0.6c0-2.7,0-5.4,0-8.1c0-3.6,0.5-7.3,0-10.8
	c-0.5-2.3-0.6-4.7-0.3-7.1c0.1-0.5,0.4-1,0.8-1.2l-0.2,3h0.4v-16.9l-0.6-0.1c-1.4,1.5-0.8,3.6-1.2,5.4l-0.5,0.1l-0.6-4.2h-0.6v3.6
	h-0.6l0.3-5.8c-1.7,1.5-0.2,3.6-1.3,5.5v-1.9c-2.6,5.9-6.2,11.4-5,18.4h-0.5l-0.9-1.7c-0.4,3.2-1.2,6-0.3,9c0.3,1-0.3,2.3-0.7,3.5
	l-0.3-1.6l-0.8,1.6c-0.1-0.3-0.2-0.5-0.2-0.6c0.5-3.2,1.1-6.3,1.4-9.5c0.1-2.5,0.1-5-0.1-7.5c-0.3,1.4-0.5,2.9-0.9,4.3
	c-0.4,1.2,0.8,2.9-1,3.8c1.6-2.2-0.1-4-0.8-6.3l-1.4,5.3l-0.6-0.1l0.5-6.3l-0.1-0.1l-2,7.7l-0.3-0.1c0.2-0.8,0.2-1.6,0.2-2.4
	c0-0.5-0.4-0.9-0.7-1.4c-0.3,0.3-0.9,0.6-1,1c-0.2,1.2-0.1,2.5-0.1,3.8c0,0.4-0.2,0.8-0.4,1.1l-0.4-1.9l-0.3-0.1l-1.1,3.5h-0.6
	c-0.2-0.7-0.2-1.4-0.2-2.2c0.4-1.7,0.7-3.7,1.8-5.1c1.7-2.3,3.7-4.4,5.9-6.2c1.1-1,2.9-1.1,4.1-2c2.3-1.7,3.9-4.1,4.5-6.9
	c0.7-3.5,2.5-6.6,5-9.1c0.1-0.1,0.3-0.2,0.5-0.4l2.2,1.6c0.1-1.2,0.2-2.2,0.3-3.2c0-0.3,0.3-0.5,0.5-0.8l0.7,0.8l1.3-1.7l-1.6-0.1
	l-0.1-0.4l3.5-0.8l-5.2-3.8c-0.3,0.1-0.4,0.1-0.5,0.2c-1.2,2.7-1.2,2.8-4.3,2.4c-1.6-0.1-3.1-0.4-4.6-0.9c-0.9-0.6-1.4-1.5-1.6-2.6
	c-0.2-1.1-0.2-2.2,0.1-3.3v2.5c1.2-2.1,1.1-2.8-0.7-3.5l-0.3,4.8h-0.2v-5.1l-0.4-0.1l-0.8,4.8l-0.3-3l-0.6,0.1l0.7,4l-9.3-1.2
	c2,0.9,3.4,3.6,5.1,2.4c-3.9-0.3-7.3,3-11.1,5.4l-0.4-1.2l-0.8,1.6l-0.4-2.5l0.5,0.2c0.4-0.5,0.8-1.1,1.1-1.7
	c0.3-0.9,0.3-1.8,0.6-2.7c0.1-0.4,0.7-0.6,1-0.9l1.2,1.4l0.7-3.9c0.2-0.5,0.9-1.1,0.8-1.7c-0.1-2,1.1-3.7,0.7-5.8
	c-0.3-1.7,1.2-3,3.1-2.8c3.3,0.3,6.6,0.8,10.3,1.3l-0.9,1.2l14,3.5l-1-1.2c1.9,0.4,3.4,2.2,5.6,1.2l-0.8,0.5l3.6,1.1
	c-10.1-0.7-19.6-4.6-29.5-5.9L94,92.7l1.9,0.3c0.9,0.1,1.7,0.2,2.6,0.5c3.6,1.6,7.1,3.6,10.8,4.9c2.7,0.9,4.1,2.9,5.8,4.7
	c2.8,2.9,6.6,3.8,10.3,4.8c6.3,1.8,12.8,3.1,18,7.6C144,116,144.5,116.7,144.8,117.3l-0.9-0.5l-0.3,0.2l2.1,3l-0.2,1.9h0.6
	c0.5-1.2,1-2.4-0.6-3.4C145.1,118.3,145,117.7,144.8,117.3z M227.5,279.6l0.5,3.9h0.7c0-1.1,0-2.1-0.1-3.2
	C228.6,280.1,227.8,279.9,227.5,279.6c0.5-2.7,1-5.4,1.6-8.1l-0.3-0.1c-1,2.9-2,5.8-2.9,8.7L227.5,279.6z M223.1,291.7
	c0.2-2.2,0.5-4.4,0.7-6.7l-0.6,0c-0.2,1.3-0.4,2.6-0.5,3.9C222.7,289.9,222.9,290.8,223.1,291.7l1.7,5.6l0.6-0.2l-1.3-3.8l0.3-0.1
	l2.1,3.1c-1.5-3-2.1-6.3-1.8-9.6c-0.3,1-0.3,2.1-0.6,3C223.9,290.4,223.5,291.1,223.1,291.7z M180.3,273.6l0.7,1.5l0.2-0.1l-2.3-11
	l0.3-0.1l1.1,1l0.3-0.2c-1.3-2.6-2.6-5.3-3.9-7.9l-0.2,0.1l0.8,4.8l0.3-0.5C178.5,265.1,179.4,269.4,180.3,273.6c-1-3-1.9-6-2.8-9
	c-0.2-0.6-0.3-1.3-0.3-1.9l-0.6,0.1c0.7,3.3,1.3,6.5,2.1,9.8c-0.4-0.9-0.8-1.7-1.1-2.5c-1.5-4.3-0.8-9-3.1-13.1
	c-0.6-1-1-2.2-1.4-3.2l-0.6,0.2c3.3,6.2,2.4,13.6,6.1,19.6c0-0.3,0-0.7,0-1c0.4,0.7,0.8,1.4,1.2,2.2L180.3,273.6z M195,279.6
	c0.5,0.8,1,1.5,1.4,2c0.4-0.1,0.7-0.2,0.8-0.1c0.3,0.2,0.5,0.5,0.7,0.8l0.2-0.1l-1.9-6l-0.5,0.1c0.4,1.2,0.7,2.4,1.1,3.6
	c-3.8-6.4-2.9-13.8-4-20.7c0.2,5.4,0.5,10.7,1,16C194.2,276.8,194.6,278.2,195,279.6l-2.6-5.6l-0.6,0.2l2.5,6.6l0.6-0.2L195,279.6z
	 M264.7,237.1l-2.6,2.4l-3.8,3.5l0.6,0.8l15.5-11.6l-0.8,1.3l0.5,0.4l3.1-3.4l-0.3-0.3l-0.9,0.2l1.3-2.5l-0.6-0.5
	c-0.8,0.7-1.7,1.3-2.5,2c-2.8,2.4-5.6,4.9-8.4,7.3c0.6-0.7,1.2-1.3,1.9-2c1.7-1.6,3.5-3.2,5.2-4.9l-0.4-0.4c-1,0.9-2,1.6-3.1,2.3
	c-2,1-4.1,1.8-6.3,2.6c-3.5,1.2-5,4.5-7.3,7l5.6-3.8l0.2,0.4l-2,1.8l0.2,0.4L264.7,237.1z M209,245.2c-0.8,3.1-1.4,6-2.1,8.9
	l-1.4-0.8l-1.1,2.4c1-0.3,1.9-0.7,2.6-1.4c0.7-0.8,1.3-1.6,1.9-2.4l0.4,0.3l-2.7,4.2c0.6-0.4,0.8-0.4,0.9-0.5
	c0.9-1.5,2.4-2.4,2.2-4.7c-0.2-1.7,1.6-3.6,2.2-5.4c0.9-2.9,1.6-5.8,2.5-9l-1,0.6v-5.6l0.9,1.4l0.4-0.2c-0.1-2-0.2-3.9-0.3-5.9
	l-0.6-0.3l-1.3,1.4c-0.4-2.2-0.8-4.6-1.1-7l-0.6,0.1v1.9c-1.2-2.6-2.2-5-3.3-7.3c-0.2,1.1,0.6,2.6-1.5,1.6c0,0-0.7,0.8-0.6,0.9
	c0.5,0.7,1,1.3,1.5,1.9c0.7,0.9,1.3,1.8,2,2.7l-0.5,0.3l-1.1-1.2l-0.4,0.2l2.2,6.9l1.5-1.4c0.7,3.1,1.3,5.7,1.9,8.3l-0.3,0.1
	l-0.8-2.4h-0.3c-0.4,4.1-0.9,8.1-1.3,12.3L209,245.2z M192.2,280.6c-1.4-4-3.3-7.9-3.8-11.9s0.3-8.3,0.5-12.5l-0.3-0.1l-0.8,1.6
	l-0.4-0.2l1.4-3.8l2.1,0.5l0.1-0.5c-2.1-0.1-3.6-2.4-6.3-1.7l2.2,1.9c-3-0.6-4.4,0.2-3.8,2.2c1.1,4.2,2.2,8.6,4.1,12.5
	c1.6,3.4,2.4,7,3.8,10.4C191.1,279.8,190.5,281,192.2,280.6L192.2,280.6z M202.3,252.9l0.6,0.3c1.5-2.6,3.4-5,4.4-7.8
	c1.1-3.2,1.3-6.6,2-10s-0.6-6-1.9-8.8l0.3,2.7h-0.4l-0.4-1.8h-0.3c-0.5,5.9-1.1,11.8-1.6,17.6l0.9-0.5l0.4,0.3L202.3,252.9z
	 M213,279.5c0.5-3.7,0.4-6.9,2.1-9.8c1-1.8,1.8-3.7,2.6-5.6c0.1-0.2-0.1-0.6-0.1-0.8c-0.4,0.1-0.9,0.2-1,0.4
	c-0.6,1.6-1.4,1.1-2.2,0.2l-1.7-1.9c-0.6,2.9-1.2,5.4-1.8,8.2l1.2-0.4C212.1,272.9,211.1,276.1,213,279.5z M150.8,233.1l-0.4-0.1
	c0,2.3-0.4,4.6,0.1,6.8c0.8,4.1,2,8.1,3.1,12.1c0.5,2,0.6,2.2,2.6,2.8c-0.4-0.7-0.8-1.5-1.1-2.3c-0.8-2.1-1.3-4.2-1.6-6.4
	c-0.2-2-1.8-3.9-0.3-6c0.1-0.1-0.1-0.6-0.2-0.9c-0.3-1-0.6-2-0.9-3c-0.1-0.2-0.1-0.3-0.2-0.4l-0.2,1.3h-0.2L150.8,233.1z
	 M259.3,285.5c-0.1-1.1-0.2-2.2-0.3-3.4s0-2.1,0-3.2s-0.2-2.3-0.2-3.4c0.1-1,0.2-2,0.4-3c0.3,5.4-0.4,10.8,1.7,15.9
	c0.1-0.9,0.1-1.9,0.1-2.8c0-4.1-0.2-8.2-0.1-12.3c0-1.9-1-2-2.3-2.1C257.7,274.2,257.9,282.5,259.3,285.5z M203.1,221.9l1.7,0.4
	l0.5,3.2c1.2-2.9,1-5-1.2-6.6l-1.9,2c0.7,5.3,1.3,10.4,1.9,15.4C205.7,234.6,205.6,233.3,203.1,221.9L203.1,221.9z M205.1,154.5
	c-3.4,2-3.1,5.4-4.3,8.4l2.1-0.8l-1.1,3c0.6-0.5,0.9-1.1,1.3-1.6c1.6-1.7,3.2-3.3,4.8-5.1c0.3-0.4,0.2-1.2,0.2-1.8
	c-0.2-1.4-1.4-0.3-2.1-0.7c-0.1,0-0.6,0.6-0.8,1c-0.6,1.3-1.2,2.6-1.7,3.9l-0.7-0.3c0-1-0.6-2,1.1-2.8
	C204.7,157.4,204.7,155.6,205.1,154.5L205.1,154.5z M217,236.8l-0.4,0.1l-0.3-1.1c-0.4,2.1-0.1,4.3-0.5,6.3
	c-0.5,1.9-1.2,3.7-2.1,5.4l0.4,0.1l1.7-1.5c-0.3,1.5-0.5,2.6-0.8,3.7c3.1-4.8,3.6-17.1,0.6-19.7C216.1,232.3,216.6,234.6,217,236.8z
	 M211.2,283.3c-1-4.8-2-9.3-2.9-13.8l-0.8,0.1c-0.1,1.6,0,3.3,0.3,4.9c0.8,3.1,2,6.1,3,9.2c0.5,1.6,1.2,1.7,2.2,0.2
	c0.1,1.1,0.1,1.9,0.1,2.9c0.3-0.1,0.6-0.3,0.8-0.5c0.2-0.2,0.4-0.4,0.5-0.6C212.6,281.6,212.4,281.5,211.2,283.3L211.2,283.3z
	 M258.5,291l-0.4,0.1l0.6,3.5h-0.3c-0.6-1.7-1.1-3.4-1.9-5.5c-0.8,3.2,0.5,5.3,2.1,7.1c0.5,0.6,2,0.3,3.2,0.4
	c-0.9-2.6-1.6-4.9-2.4-7.2l-0.5,0.1l1.3,5.4L260,295L258.5,291z M200,197.6c-0.4-2.4-0.9-4.7-1.3-7l0.5-0.1l1.8,6.2l0.9-0.3
	c-0.9-3.4-1.8-6.8-2.8-10.6C197.3,190,198,196.2,200,197.6z M248.5,274.3c-1.2,2.3-0.4,3.9,1.3,5.6c0.4-0.9,0.7-1.9,0.9-2.8
	c0.1-0.9,0.1-1.8,0-2.7c0.1-0.9,0.2-1.8,0.1-2.6c-0.1-0.5-0.6-0.9-1-1.4c-0.4,0.3-1,0.6-1.3,1c-0.2,0.5-0.3,1.1-0.3,1.7l0.3,0.1
	l1-1.4v6.3l-0.3,0C249,276.9,248.7,275.6,248.5,274.3z M199.5,283.2c-1.2-5.5-2.3-10.9-3.5-16.4
	C195.7,272.5,196.9,278.1,199.5,283.2L199.5,283.2z M201.1,164.1l-0.8-0.1c-0.6,3-1.2,6-1.8,9l0.4,0.1l1-2.4l0.7,1.2l1.5-4.7
	l-0.2-0.1l-0.9,1.3L201.1,164.1z M255,270.9c-2,2.5-1.6,10.3,1.3,13c-0.3-1.3-0.7-2.6-1.3-3.9c-0.2-0.4-0.4-0.9-0.4-1.4
	C254.8,275.9,254.9,273.2,255,270.9L255,270.9z M272.1,226.2l0.7,0.3c0.6-1.5,1.5-3,1.7-4.5c0.1-1.1-0.8-2.2-1.2-3.4l-0.3,0.2
	L272.1,226.2z M256.9,281.2h0.6v-10.6C256.4,274,256.2,277.7,256.9,281.2L256.9,281.2z M256.7,296.5c-3.1,0.4-3.3-1.9-3.9-3.8
	c-0.2-0.5-0.1-1.1-0.3-1.7c-0.2-0.8-0.5-1.5-0.8-2.2c-0.2,2.1,0,4.3,0.5,6.3C253,297.4,254.3,297.7,256.7,296.5L256.7,296.5z
	 M213.9,248.7c-0.5,0.5-1,1-1.4,1.6c-0.4,0.8-0.4,2.4-0.9,2.6c-1.9,0.4-1.2,1.3-0.7,2.4C212.6,253.6,214.5,252,213.9,248.7z
	 M211.6,290.4l-4.4-8.3C206.8,285.5,209.1,290.1,211.6,290.4z M200.7,271.7c0,3.9-0.9,7.9,1.4,11.4c-0.1-1.2-0.4-2.3-0.6-3.5
	c-0.1-0.8-0.8-1.7-0.2-2.4h0.7L200.7,271.7z M252.5,283c-0.2-3.8-0.4-7.6-0.6-11.5C250.9,275.3,251.1,279.3,252.5,283z M147.1,240.8
	l-0.5,0.2c1.3,3.9,1,8.6,6,11.3c-1.4-2.1-2.9-3.6-3.7-5.4C148.1,245,147.5,242.9,147.1,240.8z M187.5,271.4l-0.8,0.1l0.4,4.7l0.5,0
	l0.4-1l1.7,3.8l0.3-0.1L187.5,271.4z M204.8,260.8c-0.9,0.6-1.9,1-1.9,1.5c-0.3,1.6,0.5,3.2,1.9,4V260.8z M191.4,276.3l0.5-0.1
	c-0.9-3.9-1.7-7.8-2.6-11.9C188.3,268.8,190.9,272.4,191.4,276.3z M130.4,119.8l0.9-0.1V113h-0.5v3.2h-0.3l-0.6-1.2l-0.3,0.1
	L130.4,119.8z M181.6,138.5c-1.7,1.1-3.9,7.4-3.1,8.9C179.5,144.4,180.6,141.4,181.6,138.5L181.6,138.5z M157.8,241.1l-0.5,0.1
	c0.9,2.6,1.8,5.3,2.7,7.9c0.1,0.3,0.6,0.4,1,0.7C159.9,246.7,158.8,243.9,157.8,241.1z M144.5,241.3l0.7-0.2l-2.8-9.1l-0.6,0.2
	L144.5,241.3z M97.5,102.2l-0.2-3.7l-2.1,2.7L94.7,99C93,103.3,96.2,101.5,97.5,102.2L97.5,102.2z M97.7,94.1c-2.6-1-4.1,0-4.8,3.2
	c0.9-1,1.4-2.9,3-1.3L97.7,94.1z M172,268.8l0.6-0.2l-2.1-8.8l-0.6,0.2L172,268.8z M168.7,258.6l0.7-0.2c-1.2-2.7-2.5-5.4-3.8-8.1
	l-0.6,0.3C166.3,253.3,167.5,256,168.7,258.6L168.7,258.6z M160.4,124.3v8.4c0.5-1.5,0.8-3,1-4.5
	C161.6,126.8,162.2,125.2,160.4,124.3L160.4,124.3z M98.8,102.4l0.7-6.2C97.9,97.8,97.6,100.4,98.8,102.4z M255.9,272.2
	c-1.2,2.2-1.2,4.8,0,7V272.2z M140.2,233.5l-0.5,0.2l3.1,10l0.6-0.2L140.2,233.5z M198.2,261.7l-0.7,0.1l0.8,8.9h0.6
	C198.8,267.6,198.5,264.6,198.2,261.7L198.2,261.7z M247.8,292.1l0.5-0.1c-0.2-0.8-0.4-1.5-0.6-2.3c-0.2-0.9-0.4-1.8-0.5-2.7
	c0.1-1.1,0.2-2.1,0.4-3.2C245.8,286.7,247,289.4,247.8,292.1L247.8,292.1z M205.8,272.6l-0.5,0.1l2.3,7.5
	C208.4,277.4,206.5,275.2,205.8,272.6L205.8,272.6z M97.7,191.5l-0.5,0.2c1.2,2.4,2.4,4.9,3.7,7.4l0.5-0.3
	C100.2,196.4,99,194,97.7,191.5z M217,286.4v-6.2C215.5,282,215.5,284.6,217,286.4z M253.2,277.3c0.2-2.2,0.5-4.5,0.8-6.7
	C252.2,272.6,252.8,275,253.2,277.3L253.2,277.3z M220.7,277.5l0.8,0.2l1.3-6.9l-0.4-0.1c-0.2,1-0.5,2-0.7,3.1
	c-0.1,0.5-0.1,1.3-0.3,1.4C219.5,275.6,220.7,276.7,220.7,277.5L220.7,277.5z M198.3,270.7l-0.7,0.1l1.4,7.7l0.5-0.1
	C199,275.9,198.6,273.3,198.3,270.7L198.3,270.7z M144.5,203.4c0.8-1.6,2.7-2.6,1.3-4.5C143.4,199.9,144.8,201.7,144.5,203.4
	L144.5,203.4z M87.9,164.5l-0.7,0.3l3,6l0.6-0.3L87.9,164.5z M221.6,161.3h-0.5v6.7h0.5V161.3z M200.9,263.8h-0.6
	c0.4,2.9,0.7,5.7,1.1,8.5l0.6-0.1L200.9,263.8z M196.8,260.4h-0.7c0.3,2.6,0.5,5.2,0.8,7.8l0.6,0C197.2,265.6,197,263,196.8,260.4z
	 M194.8,271h0.6c-0.3-3.2-0.7-6.3-1-9.5H194L194.8,271z M201.4,150.2v5C203.1,153.2,203.2,151.8,201.4,150.2L201.4,150.2z
	 M146.7,248.8l0.6-0.3c-0.9-2.1-1.8-4.1-2.6-6.2l-0.7,0.3L146.7,248.8z M234.4,289.3l-1,0.3l1.7,4.6l0.7-0.2
	C235.4,292.4,234.9,290.8,234.4,289.3L234.4,289.3z M226.7,265.8L222,265C222.8,266.7,224.9,267,226.7,265.8L226.7,265.8z
	 M154.3,245.8l-0.4,0.1l2.2,7.5l0.6-0.2C155.9,250.8,155.1,248.3,154.3,245.8L154.3,245.8z M173.9,268.8l0.6-0.1l-1.8-7.1l-0.5,0.1
	C172.8,264,173.3,266.4,173.9,268.8L173.9,268.8z M243.6,282.4l0.8-0.1c-0.2-1.7-0.5-3.4-0.7-5.1l-0.8,0.1L243.6,282.4z
	 M230.6,268.1c-0.1-1.9-1.5-1.8-2.4-2.1c-0.4-0.1-0.9,0.2-1.7,0.5L230.6,268.1z M199.5,154.3l0.8,0.2l0.8-5l-0.6-0.1
	C200.1,151,199.8,152.6,199.5,154.3z M191.8,261.6c-0.6,2.6-0.4,5.3,0.6,7.8L191.8,261.6z M174.1,248.7l0.2,2l1-0.7l0.8,2.6h0.4
	l0.7-1.9L174.1,248.7z M232.6,274.7l-0.4,0.1c-0.1,0.7,0,1.4,0.1,2.2c0.1,0.4,0.6,0.6,0.9,0.9c0.2-0.4,0.8-0.9,0.6-1.2
	C233.5,276,233.1,275.4,232.6,274.7L232.6,274.7z M206.9,168.9c-0.2-2-0.4-3.7-0.5-5.3C205.3,165.3,205.5,167.5,206.9,168.9z
	 M209.9,286.2l0.6-0.2l-1.6-4.7l-0.6,0.2L209.9,286.2z M262.9,296l0.4-0.3l-2.4-5.5C261.2,292.3,261.4,294.4,262.9,296L262.9,296z
	 M169.1,254.7l0.8-0.3l-2.2-4.8l-0.4,0.2L169.1,254.7z M104.6,104.2l0.3-5.2C103.7,100.9,103.6,102.8,104.6,104.2z M164.7,249.1
	l0.6-0.2l-2.2-5.3l-0.5,0.2L164.7,249.1z M228.9,287.9l0.9-0.1l-0.2-3.9l-0.8,0L228.9,287.9z M203.3,283.7l0.7-0.2l-1.3-5l-0.5,0.1
	C202.6,280.4,203,282,203.3,283.7L203.3,283.7z M185.2,143l1.8-3.8C184.9,139.3,184.8,139.5,185.2,143z M169.8,250.6l-0.5,0.2
	c0.6,1.8,1.2,3.7,1.9,5.6l0.4-0.1C171,254.3,170.4,252.4,169.8,250.6z M190.8,261.2l-0.4-0.1v6.2h0.4V261.2z"/>
<path class="st1" d="M272,286.7c-1.3-1.9-1.3-4.7,0.2-5l-1.1-2.7l-0.4,0.1l0.1,1.4l-0.2,0.1c-1.5-3.9-2.9-7.8-4.4-11.8
	c-1.1,0.4-1.7,2.4-3.7,0.9l3.9-5.4l0.4,0.2c-0.3,1-0.6,2.1-1.1,3.6l2.2-0.9c-0.1,0.4-0.2,0.9-0.5,1.9c2.1-2,3.9-3.6,5.5-5.3
	c2.1-2.2,4-4.6,6.1-6.7c0.5-0.5,1.6-0.5,2.5-0.8l0.2,1.5h0.4c0.2-1.2,0.4-2.4,0.5-3.6l0.6,0.1v0.9c2.4-4.2,4.9-8.6,7.5-13
	c0.4-0.6,1.2-1.1,1.3-1.7c0.3-1.7-0.9-2.4-2.3-3s-1.7,0-2.4,1.2c-1.2,2-2.6,3.8-4.1,5.6c-0.4,0.4-1,0.6-1.6,0.6
	c2.8-2.4,5.4-4.9,4.3-9.6c1,0.4,1.7,0.7,2.5,1s1.7,0.8,2.5,1.2c2.4,1.1,2.6,2.7,0.8,4.6c-0.4,0.5-0.7,1.2-0.8,1.9
	c-0.2,3.7-0.2,7.4-0.4,11.1c-0.1,0.6-0.2,1.3-0.4,1.9c-0.1,0.6-0.2,1.2-0.1,1.8c0.1,0.6,0.5,1.2,0.6,1.8c0.9,4.5,1.8,8.9,2.5,13.4
	c0.6,4.1-0.3,5.5-4.2,7.2c-1.5,0.7-2.5,0.4-3.2-1.1c-0.2-0.7-0.5-1.3-0.8-1.9c-0.4-0.4-0.8-0.8-1.2-1.1c0.1-2.7-1-5.1-1.9-7.5
	c-0.2,0.1-0.2,0.4-0.2,0.6c0.1,1.9,0.3,3.8,0.3,5.7c0.1,1.7,0.7,3.2,2,3.8c-0.5-1.3-0.9-2.5-1.4-4l1.3,1.6l2,5
	c-1.9,1.1-2.5-1.1-3.9-1.9l-1,1.9l-2-2.2l-0.4,0.3l2,2.3c-1.4,1.2-3.1,2.8-4.9,4.2c-0.6,0.6-1.4,1.1-2.2,1.3c-2.1,0-3,1.3-3.8,2.8
	c-0.7,1.2-1.5,2.3-2.5,3.2C268.6,291.4,269.3,288.4,272,286.7c0.2,0.2,0.6,0.3,0.9,0.4c0.4,0,0.7-0.1,1-0.3c0,0,0-0.3,0-0.5l-1,0.2
	l-0.7-3.6l-0.5,0.1C271.8,284.2,271.9,285.4,272,286.7z M288.8,263.2L288.8,263.2l0.1-12.5h-0.3l-0.7,5.2h-0.2v-4
	c-0.5,1.1-0.7,2.2-0.8,3.4c-0.1,1.1-0.3,2.2-0.4,3.3h-0.3v-4.2h-0.3l-0.6,4.2H285V256l-0.5-0.1c-0.2,2-0.5,4-0.8,6h-0.3v-4h-0.2
	c-0.2,1.2-0.4,2.5-0.6,4.2l-0.5-1.8h-0.4v7.2l0.2,0.1c0.2-1,0.3-2,0.5-3c-0.6,4.5,1.2,8.5,3,12.4c-0.6-2.8-1.1-5.7-1.7-8.5l0.4-0.1
	c0.9,3.8,1.8,7.7,2.8,11.9c1.2,0.7,2.7,0.4,3.4-0.8c0.1-0.1,0.1-0.2,0.1-0.2c-0.3-0.9-0.7-1.8-1-2.6l0.4-0.2l1.4,1.7
	c1.5-1.6,1.1-9.4-0.4-12.7c-0.5,3.8,1.5,7.6,0.8,11.4l-1,0c0.3-1.3,0.4-2.6,0.4-3.9c-0.2-2.6-0.6-5.3-1.1-7.9
	C289.6,264.3,289.2,263.7,288.8,263.2L288.8,263.2z M280.9,262.9h-0.3l-0.3,4.7h0.6L280.9,262.9z"/>
<path class="st1" d="M172.4,190c-0.3-0.4-0.8-0.8-0.9-1.3c-0.4-1.8-1.6-1.6-2.6-0.9c-1.1,0.8-3,1.5-1.1,3.5c0.5,0.5-0.1,1.9-0.2,3.3
	L166,190l-3.7,3.6l0.1-0.1c-0.1-0.2-0.5-0.4-0.4-0.5c0.4-0.7,0.8-1.7,1.5-1.9c3-1.2,3.4-4.5,5.1-5.9c-0.3-1.7-0.5-3-0.8-4.3l0.6-0.1
	l0.2,2.2h0.4l1-4l0.9,0.2l-0.7-3l1.2,0.7l0.2-1.3l1.6,5.4l-1.3,0.5l2.9,1.4l-0.4-2.5c0.9,2.2,1.7,3.9,2.5,6l1.3-2.4
	c0.7,2,1.7,3.8,3.1,5.4c0.5,0.7,0.2,1.9,0.4,2.9c0.2,1.2,0.3,2.4,0.2,3.6c-0.4-1.2-0.7-2.5-0.9-3.7c-0.2-1.7-1-2.8-2.8-3
	c-0.1,1.6-0.2,3.3-0.2,5l-0.5,0.1l-2.4-7.7l-0.5,1.6l-1-1.8l-1.6,1.8L172.4,190L172.4,190z"/>
<path class="st1" d="M201.2,135c-1.1,1-2,0.5-3.1-0.1c-6.2-3.3-12.5-6.6-18.8-9.9c-0.6-0.3-1.1-0.7-1.5-1.3l2.1,1l0.2-0.3
	c-2.1-1.1-4.2-2.1-6.3-3.2c-2.3-1.2-4.6-2.5-7-3.8s-4.8-2.3-7.1-3.5s-4.6-2.5-6.9-3.8l0.3-0.5l2.9,1.6l0.3-0.4l-3.4-2.2l0.1-0.2
	c0.3,0,0.6,0,0.9,0.1c5.3,2.7,10.6,5.4,15.9,8.3c2.2,1,4.2,2.3,6.1,3.8c1.9,1.6,4.5,1.7,6.3,3.3c0.8,0.7,1.5,1.5,2,2.5l9.6,5.6
	l0.2-0.3l-2.5-1.9l0.2-0.3L201.2,135L201.2,135z"/>
<path class="st1" d="M147.9,150.5c1.4,0.1,1.6,0.4,1.4,5l-1.8-3.7l-0.4,0.1l0.9,9.7l-0.3,0.1l-1-6.8h-0.3l-0.7,4.1l-0.4-0.2
	c-0.5,0.8-1.3,1.6-1.4,2.5c-0.4,4.8-0.6,9.6-0.8,14.3c0,0.9-0.2,1.8-0.6,2.6c0-2.8-0.1-5.6,0-8.4c0.1-3,0.4-6.1,0.8-9.1
	c0.1-0.9,0.8-1.6,1.5-2.8l-0.9-0.7c1.8-2.1,2.5-4.9,2.1-7.7c-0.6,0.9-1,1.9-1.4,2.9c-0.1,1-0.2,2-0.4,3c-0.2-5-1.6-10-0.3-15.2
	C144.1,144,145.4,147.7,147.9,150.5z"/>
<path class="st1" d="M242.8,196.4c-0.7-0.5-1.6-1.3-1.8-1.1c-1.1,0.7-2.1,1.6-3,2.6c-0.2,0.2,0.5,1.1,0.7,1.7
	c0.4,1.3,0.7,2.7,0.9,4.1l-0.9-1.3l-0.4,0.1c0.4,1.4,0.7,2.9,1.1,4.4l-1.2-0.7c0.9,1.8,1.6,3.1,2.3,4.6l-0.5,0.3l-2.3-3.9l-0.4,0.1
	c0.3,1.8,0.6,3.5,1,5.3l-0.6,0.1c-1-2.5-2-5-3-7.5l0.3-0.2l1.6,2.5l0.5-0.2l-1.4-3.4l0.2-0.2l2.2,2.6c-0.2-2-0.4-3.7-0.7-5.8
	l-2.1,2.5c-0.3-2.1-2.2-3.6-1-6c0.3-0.5-0.1-1.4-0.2-2.1c-0.3-1-0.6-2-1-2.9l0.5-0.2l2.4,6.4h0.5c0.1-0.7,0.3-1.4,0.5-2.3
	c1.7,0.2,2.5-0.6,2.2-2.8l1.3,1.7V192l3,2.5L242.8,196.4z"/>
<path class="st1" d="M135.6,146.9v5h-0.1l-0.6-2.5l-0.4-0.1c-0.8,3.7-1.5,7.4-2.3,11.1l-0.6-0.1c0.3-2.6,0.5-5.2,0.9-7.7
	c0.7-4.3,1.6-8.6,2.4-13c0.2-1.6,0.4-3.1,0.8-4.7c0.5,2.5,0.9,5,1.4,7.5l-0.3-0.2l-0.5,1.7l0.6-0.3l4.6,3.3l0.4-0.8l0.4,0.1
	l-0.3,3.1h-0.5l-0.6-1.4l-0.4,0.1l0.1,2.6h-0.3l-0.4-3l-0.4-0.1c-0.3,1.3-0.6,2.5-1,4.2c-0.2-1.7-0.3-2.9-0.5-4.2
	c0-0.4-0.1-0.8-0.2-1.2c-0.4,0.2-0.7,0.5-1,0.8c-0.2,0.3-0.2,0.8-0.5,1.2L136,147L135.6,146.9z"/>
<path class="st1" d="M264.9,172.8c-1.4-1.4-3-2.6-4.6-3.8c-4-2.4-8.2-4.6-12.3-6.9c-6-3.3-12.1-6.5-18-9.9c-1.6-1.1-3.2-2.2-4.7-3.5
	l0.2-0.4c1,0.6,2.1,1.1,3.1,1.7c5.1,2.9,10.2,5.8,15.3,8.6c3.4,1.9,7,3.6,10.4,5.5c3.4,1.9,6.5,3.9,9.6,5.9c0.7,0.6,1.2,1.4,1.6,2.2
	L264.9,172.8z"/>
<path class="st1" d="M84.5,121l1.6-0.9l0.2,0.3l-3.6,2.8c-0.6-3.7-1.4-7-1.8-10.3c-0.6-4.8,0.7-6.1,4.2-10.2
	c-1.3,1.2-0.1,3.5-2.1,4.4c-0.2,0.1-0.2,0.6-0.2,0.9c-0.4,1.8-0.2,3.6-1.2,5.4c-0.5,0.9,0.2,2.5,0.6,3.8c1-4.2,8.6-11.1,12.4-11.5
	c-2.3,1.9-5.1,4.1-7.8,6.4S83.4,117.5,84.5,121z"/>
<path class="st1" d="M88.7,122.5l1.1-0.2l-5,7.3l-0.3-3.5H84v9.4c-0.5-0.4-0.7-0.5-0.7-0.5c-0.2-3.4-0.5-6.8-0.7-10.1
	c0.1-0.5,0.4-1,0.8-1.3c1-0.8,2-1.6,3-2.3c0.6-0.3,1.2-0.6,1.8-0.7L88.7,122.5z"/>
<path class="st1" d="M212.9,204.2c2.9,1.4,2.2,5.3,4.7,7.3c0.5-3-0.6-5.9,1.7-8c0.5,0.8,1,1.6,1.7,2.2c0.7,0.5,1.4,0.8,2.2,1.1
	l-0.3,0.6l-2.8-1.2l0.2,1.7l-1.8-0.2c1.2,2.4-1.4,5.3,0.6,7.4c-0.2,0.9-0.6,1.6-0.4,2.1c0.7,1.8,1.6,3.4,2.4,5.1
	c0.4,0.7,0.6,1.5,0.7,2.3c-1.9-3.4-4.2-6.7-4.2-10.9c0-0.5-0.5-1-0.8-1.6c-0.8-1.6-1.6-3.1-2.4-4.7c-0.4-0.8-0.2-2-1.5-2.1
	C212.9,205.4,212.9,204.6,212.9,204.2z"/>
<path class="st1" d="M129.6,187.4l-1.2-5.3l0.4-0.1l0.5,0.9l0.4-0.1l-0.3-4.3H129l-0.2,1.4c-0.1-1.7-0.6-3.1,0.6-4.9
	c0.9-1.3,0.4-3.6,0.5-5.8c-2,1.8-3.3,4.3-3.4,7l-0.6-0.2l1.8-8.8l3.2,1.4c-0.3,6-0.6,12.3-0.9,18.7L129.6,187.4z"/>
<path class="st1" d="M126.7,98.8c8.3,0.4,15,3.8,21.6,8.9L126.7,98.8z"/>
<path class="st1" d="M232.6,237.9c1.6-0.6,3.3-1.3,4.9-1.9c1.2-0.4,2.4-1.3,3.8,0c0.5,0.5,2.1-0.2,3.2-0.4c0.6-0.1,1.2-0.2,1.7-0.2
	c0.1,0,0.3,0.6,0.2,0.6c-0.5,0.4-1,1.1-1.6,1.2c-3.6,0.4-7.2,0.6-10.8,0.9c-0.5,0-1.1,0-1.6,0L232.6,237.9z"/>
<path class="st1" d="M152.4,198.8c-0.2-0.2-0.3-0.4-0.5-0.7s-0.3-0.4-0.5-0.7l-1.4,1.4c-0.1-1.8-0.2-3.2-0.3-4.7l0.6-0.5l0.5,2
	l1-0.6c-0.3-1.4-0.2-3.1-1-4.2c-1.7-2.4-0.2-4.8-0.8-7.1h0.9v5.2l0.4,0.1l0.2-1.4c0.4,3.8,0.8,7.5,1.2,11.1L152.4,198.8z"/>
<path class="st1" d="M122.5,174l2,0.7c-2.6,7.2-1.3,14.8-0.7,22.3l-0.6,0.1c-0.2-0.5-0.4-1.1-0.5-1.7c0-6,0.1-12.1,0.1-18.1
	C122.8,176.2,122.7,175.1,122.5,174z"/>
<path class="st1" d="M205.3,137.5c6.1,2.1,11,6.8,17.2,8.8l-0.2,0.6c-1-0.3-2-0.7-3-1.1c-4-2.1-8-4.2-12-6.4
	c-0.8-0.4-1.5-0.9-2.3-1.4L205.3,137.5z"/>
<path class="st1" d="M204.8,194.1c-0.5,0.1-0.9,0.1-1.4,0.1c-0.5-2.1-1-4.1-1.5-6.2c0-0.2,0.2-0.4,0.5-0.9c0.5,1.2,1,2.2,1.4,3.2
	l0.3-0.1l-1.1-5.6l0.3-0.1l2.8,11.1l-0.3,0.1L204.8,194.1z"/>
<path class="st1" d="M100.5,171.4c-0.8-5.6-1.2-11.3,0.6-16.9v16.9H100.5z"/>
<path class="st1" d="M182.9,265.5l0.5,2.1l0.2-0.8c1.1,4,2.2,8.3,3.3,12.7c-0.4-0.3-1.4-0.7-1.5-1.3c-1.1-4.2-2.1-8.4-3.2-12.5
	L182.9,265.5z"/>
<path class="st1" d="M252.4,232.4h-10.1c-0.2-0.8-0.3-1.6-0.2-2.4c0.1-0.8,0.7-1.3,1.6-0.6c1.1,0.8,2.2,1.6,3.4,2.4
	c0.5,0.2,1,0.3,1.6,0.3c1.2,0,2.5,0,3.7,0V232.4z"/>
<path class="st1" d="M164.2,132.1v15.2h0.1c-0.2-1.9-0.4-3.8-0.7-5.7c-0.1-0.7-0.7-1.4-0.8-2.1c-0.1-0.9-0.2-1.7-0.1-2.6
	c0.1-1.9,0.3-3.7,0.4-5.6l-0.1,0.1L164.2,132.1L164.2,132.1z"/>
<path class="st1" d="M193.6,209.8l0.7,1.8l0.5-0.1c-0.2-1.2-0.5-2.4-0.7-3.6c1.1,0.1,3.5,3.4,3.2,4.8l-1.9-1.1l0.6,4.2
	C194.8,214,193.2,212.6,193.6,209.8z"/>
<path class="st1" d="M154.6,202.9c-0.8-5-1.7-10-2.5-14.9l0.6-0.1c0.3,1.4,0.7,2.8,1,4.1c0.6,2.5,1.2,5.1,1.7,7.6
	c0.1,1.1,0.1,2.2,0,3.3L154.6,202.9z"/>
<path class="st1" d="M158.2,138.9c0-2.3,0.4-4.7-0.1-6.9c-0.3-2.1-0.5-4.3-0.4-6.5c0-0.7,0.2-1.4,0.4-2.1h0.6
	c0.1,0.8,0.5,1.7,0.2,2.3c-1.1,2.6-0.3,5.2,0,7.8c0.1,1.8,0,3.6-0.2,5.4L158.2,138.9z"/>
<path class="st1" d="M107,127.9l-0.3,1.2c-0.1-0.2-0.2-0.3-0.2-0.4c0.2-1.2,0.6-2.3,1.1-3.4c1.8,3.6,0,7.4,1.3,10.9l-0.5,0.1
	c-0.3-0.7-0.5-1.4-0.6-2.1c-0.1-1.5,0.1-3,0.1-4.5c-0.1-0.7-0.2-1.4-0.4-2L107,127.9z"/>
<path class="st1" d="M110.7,132.5v-5.8H110l-0.5,5.3c-1-3.6-0.2-6.2,2-6.2v6.7L110.7,132.5z"/>
<path class="st1" d="M186.3,173.8c0.4-2.3,0.8-4.6,1.2-6.9c0.1-0.9,0.4-1.7,0.6-2.6c0.1-0.6,0.6-1.5-0.6-1.6l1.5-3.2l0.4,0.1
	l-2.4,14.3L186.3,173.8z"/>
<path class="st1" d="M123.1,134.5c0.3-3.4,0.7-6.8,1.1-10.6l2.2,2.9l-0.2,0.2l-1.1-0.9l0.5,4.6l-0.6,0.1v-2.9h-0.7v6.7L123.1,134.5z
	"/>
<path class="st1" d="M259.6,187l-2.7-8l1.7-0.9c0.5,3,0.9,6,1.4,8.9L259.6,187z"/>
<path class="st1" d="M217.1,219.8l-1.1-2.1l-0.4,0.2l1.6,4.5l-0.5,0.2c-0.7-1.5-1.2-3.1-1.6-4.7c-0.2-1.7-0.1-3.4,0.1-5.1
	c0.7,2.3,1.4,4.6,2.2,6.9L217.1,219.8z"/>
<path class="st1" d="M265.5,287.3c0.5,1.7,1,3.3,1.5,5.4c-2.8-3-4.9-13.1-3.9-16.2c0.4,3.1,0.8,6.6,1.4,10.1
	C264.7,287.7,264.8,287.7,265.5,287.3L265.5,287.3z"/>
<path class="st1" d="M262.1,204.4c-1-1.1-1.9-2.2-3-3.2c-0.3-0.2-1,0-1.5,0l-2.5-2.7C257.2,198.1,261.1,201.2,262.1,204.4z"/>
<path class="st1" d="M185.9,210.6c1.1,2.8,2.4,5.9,3.6,9.1c0.3,1.1,0.4,2.2,0.2,3.3C189.2,218.4,185.3,215,185.9,210.6z"/>
<path class="st1" d="M151.9,141.4l0.8,16.7c-0.9-2.6-1.2-5.4-0.9-8.1c0.1-2.8,0-5.7-0.3-8.5L151.9,141.4z"/>
<path class="st1" d="M155.1,155.9l0.9-6.5l0.5,1.9l1.8-2l0.4,0.2l-2.9,6.5L155.1,155.9z"/>
<path class="st1" d="M121.3,134.3l1.6-12l0.6,0.1l-1.5,12L121.3,134.3z"/>
<path class="st1" d="M161.1,197.4v11.8c-0.2-0.2-0.7-0.7-0.7-1.1c-0.1-3.6,0-7.1,0-10.7L161.1,197.4z"/>
<path class="st1" d="M178,223.6l1.6,8.6C177.9,230.4,177.3,227.2,178,223.6z"/>
<path class="st1" d="M114.6,107.7c-3.2-0.2-5.4,3-8.7,2.5l-0.2-0.7l8.7-2.8L114.6,107.7z"/>
<path class="st1" d="M158.2,197.8c0.2,2.8,0.5,5.6,0.8,8.7C157.3,202.7,157.3,202.7,158.2,197.8z"/>
<path class="st1" d="M88.8,156.3c1.7-3.7-1.1-7.8,0.6-11.4c0.3,2.7,0.7,5.4,0.8,8.1c-0.1,1.2-0.4,2.4-0.8,3.6L88.8,156.3z"/>
<path class="st1" d="M226.9,261.3c0.3-1.2,0.8-2.4,1.3-3.5c0.2-0.4,1.1-1.4,2.1-0.3c0.2,0.3,1.4-0.2,2.3-0.3L226.9,261.3z"/>
<path class="st1" d="M155.6,158.6l-1,13.7H154l1.1-13.7L155.6,158.6z"/>
<path class="st1" d="M162.3,193.6c1.8,0.1,1.3,1.4,1.6,2.9l-0.8-1.3h-0.4v9.9h-0.5C161.5,201.2,161.6,197.3,162.3,193.6L162.3,193.6
	z"/>
<path class="st1" d="M177.6,160.2l-2.5,9.8h-0.2c-0.2-1-0.3-1.9-0.3-2.9c0-0.5,0.7-0.9,0.9-1.4c0.4-1,0.6-2.1,0.9-3.2
	c0.2-0.9,0.4-1.7,0.7-2.6L177.6,160.2z"/>
<path class="st1" d="M193.6,173.6c0.5-3.4,1-6.8,1.6-10.4c1.2,1.1,1,1.7,0.4,2.8c-0.7,1.6-0.7,3.5-1,5.3c-0.1,0.8-0.4,1.6-0.6,2.4
	L193.6,173.6z"/>
<path class="st1" d="M201.1,241.6c-2-2.8,0-5.8-0.8-8.7h0.8V241.6z"/>
<ellipse class="st1" cx="126.1" cy="143.6" rx="0.2" ry="8.6"/>
<path class="st1" d="M83.8,147.4c0.2-2-2-3.8-0.5-5.8C84.7,142.2,84.9,144.1,83.8,147.4z"/>
<path class="st1" d="M133.1,214.1c-0.8-4.3-1.6-8.6-2.4-12.9l0.6-0.1c0.8,4.3,1.5,8.7,2.3,13H133.1z"/>
<path class="st1" d="M191.1,160.1l-2,9.1l-0.6-0.1C189.7,166.3,188.3,162.9,191.1,160.1z"/>
<path class="st1" d="M245.5,172.8l-0.1-2.1l-0.2-1l0.6-0.2l2,7.7l-0.4,0.2L245.5,172.8z"/>
<path class="st1" d="M130.5,131.8c-0.4,3.8-0.8,7.6-1.3,11.5C128.4,142.2,129.4,133.2,130.5,131.8z"/>
<path class="st1" d="M211.3,203.1l0.7,6.7C210.5,208,209.9,204.6,211.3,203.1z"/>
<path class="st1" d="M185.9,157.2l-1.1,5.8h-0.3l-0.3-1.3l-1.1,2.8C183.4,161.9,184.1,159.3,185.9,157.2L185.9,157.2z"/>
<path class="st1" d="M160.7,145.7l0.9-10.3l0.6,0.1l-0.8,10.3L160.7,145.7z"/>
<path class="st1" d="M237.4,181.2l2.6,9.3l-0.6,0.2l-2.5-9.4L237.4,181.2z"/>
<path class="st1" d="M122.1,120.5l-0.6-6.3l0.8-0.1C122.9,116.2,122.9,118.4,122.1,120.5z"/>
<path class="st1" d="M240.5,229.9c0.4-2.4,3-4.1,1-6.6h0.8c0.2,1.1,0.3,2.3,0.5,3.5C242.9,228.2,242,228.9,240.5,229.9z"/>
<path class="st1" d="M262.4,285l-0.5-10h0.7v10H262.4z"/>
<path class="st1" d="M183.2,154.2l-2.5,7.3C180.6,158.7,181.1,156.2,183.2,154.2z"/>
<path class="st1" d="M173,164c-1.5-1.9-1.7-4.6,0-7.8V164z"/>
<path class="st1" d="M83.8,149.2c0.8,2.3,1.5,4.1,2.1,6.1c0,0.6,0,1.3-0.2,1.9h-0.7L83.8,149.2z"/>
<path class="st1" d="M275.5,249.2l5.4-4.1l0.4,0.6c-1.8,1.3-3.2,3.3-5.5,4.1L275.5,249.2z"/>
<path class="st1" d="M265.5,287.2c-0.8-3.3-1.1-6.7-1-10.2h0.9L265.5,287.2L265.5,287.2z"/>
<path class="st1" d="M191.8,152.3c-0.5,2.3-1.1,4.7-1.7,7.2C189.5,158.2,190.3,154.2,191.8,152.3z"/>
<path class="st1" d="M154.6,185.1v-6.4l0.3-0.1l0.6,6.4L154.6,185.1z"/>
<path class="st1" d="M167.1,199.7l0.6,7.9h-0.6c-0.2-2.7-0.4-5.3-0.6-7.9H167.1z"/>
<path class="st1" d="M204.5,180c0,1.8,1.6,3.5,0,5.6c-0.3-1.9-0.5-3.7-0.8-5.5L204.5,180z"/>
<path class="st1" d="M181.3,172.4v7.4h-0.4l-0.4-7.4L181.3,172.4z"/>
<path class="st1" d="M118.5,187.5v-9.2h0.5v9.1L118.5,187.5z"/>
<path class="st1" d="M124.5,206.6c-1.6-2-1.3-4.3-1.6-6.6l0.5-0.1L124.5,206.6z"/>
<path class="st1" d="M267.4,255.1c1.1-1.6,2.3-3.1,4.9-3.1C270.7,253.4,269.4,254.8,267.4,255.1L267.4,255.1z"/>
<path class="st1" d="M229.3,192c1.5,1.4,2.9,2.8,4.3,4.2l-0.8,0.8c-0.4-0.6-0.8-1.2-1.2-1.7c-0.4-0.5-1-1-1.6-1.2
	C228.5,193.9,228.7,193.1,229.3,192z"/>
<path class="st1" d="M145.9,181.4c0.3,3,0.7,6.1,1,9.2h-0.6c-0.2-3.1-0.5-6.2-0.7-9.3L145.9,181.4z"/>
<path class="st1" d="M191.3,176.6c-0.9-2.6,0.2-4.6,1.7-7.1C192.3,172.2,191.8,174.4,191.3,176.6z"/>
<path class="st1" d="M195.6,250.5l2.6-3.1l0.6,0.4l-2.2,4L195.6,250.5L195.6,250.5z"/>
<path class="st1" d="M268.4,243.3l1.9-4.5l0.7,0.3c0.2,1.9-1.4,2.9-2.1,4.4L268.4,243.3z"/>
<path class="st1" d="M126.8,129c-0.1,2.6-0.2,4.9-0.3,7.2C125.6,135.2,125.7,130.8,126.8,129z"/>
<path class="st1" d="M115.2,176.6c0.5-2.9,0.9-5.8,1.4-8.7l0.6,0.1l-1.6,8.7L115.2,176.6z"/>
<path class="st1" d="M233.8,169.6l-2.1-5.8h1.1c0.5,2,1,3.8,1.4,5.7L233.8,169.6z"/>
<path class="st1" d="M221.6,253.7l2.5,0.5l-2.9,2.3h-0.5c0.1-0.4,0.2-0.9,0.3-1.3S221.4,254.3,221.6,253.7z"/>
<path class="st1" d="M228.6,180.3c-0.3-2.7-0.7-5.5-1-8.3l0.4-0.1l1.2,8.2L228.6,180.3z"/>
<path class="st1" d="M134.3,182.6c0.2,2.4,0.5,4.9,0.7,7.3l-0.5,0.1c-0.3-2.4-0.6-4.9-0.9-7.3L134.3,182.6z"/>
<path class="st1" d="M194.4,161.6c-0.5,2.5-1,5-1.6,7.4l-0.8-0.2L194.4,161.6L194.4,161.6z"/>
<path class="st1" d="M256.2,181l-3.1-6.1c2.6,1.2,2.3,4,3.5,5.9L256.2,181z"/>
<path class="st1" d="M255.2,174.2l-4.8-2.8l0.4-0.6l4.8,2.8L255.2,174.2z"/>
<path class="st1" d="M149.2,173.9v-7.2h0.1l0.6,7.2L149.2,173.9z"/>
<path class="st1" d="M244.5,206.2l-2.7-7.3l0.5-0.2c0.9,2.5,1.9,4.9,2.8,7.4L244.5,206.2z"/>
<path class="st1" d="M151,150v8h-0.2l-0.5-7.9L151,150z"/>
<path class="st1" d="M238,294.2l3.6,5.8l-0.6,0.4l-3.5-5.9L238,294.2z"/>
<path class="st1" d="M280.6,235.8c0.4,1.5-0.7,3.4-2.9,4.4L280.6,235.8z"/>
<path class="st1" d="M268,279.8v7.5h-0.4v-7.5L268,279.8z"/>
<path class="st1" d="M161,147.7l-1.1,6.8l-0.6-0.1c0.4-2.3,0.7-4.6,1.1-6.8L161,147.7z"/>
<path class="st1" d="M102.3,157.9l0.9-7l0.6,0.1c-0.3,2.3-0.6,4.7-1,7L102.3,157.9z"/>
<path class="st1" d="M214.3,196.8l-1.9-7.6l0.5-0.1l1.9,7.6L214.3,196.8z"/>
<path class="st1" d="M159,152.3c-0.1,1.4-0.8,2.9,0.9,3.7c0.1,0.1-0.1,0.7-0.2,1.2C157.9,155.3,157.7,153.9,159,152.3z"/>
<path class="st1" d="M100,182.4c-0.4-2.4-0.8-4.7-1.2-7.1l0.5-0.1c0.3,2.4,0.7,4.7,1,7.1L100,182.4z"/>
<path class="st1" d="M210.6,211.4c0.9,1.5,2.5,2.9,2,4.9l-0.6,0.2C211.5,214.8,211.1,213.1,210.6,211.4L210.6,211.4z"/>
<path class="st1" d="M211.6,186.4l-1.8-6.7l0.5-0.1l1.8,6.7L211.6,186.4z"/>
<path class="st1" d="M82,150.4l-0.9-7.2l0.5-0.1l0.8,7.3L82,150.4z"/>
<path class="st1" d="M144.7,174.9l0.5-7.1h0.5l-0.6,7.1L144.7,174.9z"/>
<path class="st1" d="M266.1,211l-3-5.1l0.6-0.3c1,1.7,1.9,3.5,2.9,5.2L266.1,211z"/>
<path class="st1" d="M268.7,244.8l3.7-5.6l0.5,0.3l-3.7,5.6L268.7,244.8z"/>
<path class="st1" d="M194,234l2.2,6.1l-0.6,0.2l-1.9-6.2L194,234z"/>
<path class="st1" d="M187.4,159.2c0.4-1.7,0.8-3.5,1.3-5.6c1.6,2.6-1.3,3.8-0.5,5.8L187.4,159.2z"/>
<path class="st1" d="M125.8,176.7l-0.4,4.6H125v-4.6L125.8,176.7z"/>
<path class="st1" d="M182.7,193.1l-0.6-6.8h0.1c0.3,1.1,0.6,2.1,0.8,3.2s0.2,2.3,0.3,3.5L182.7,193.1z"/>
<path class="st1" d="M106.6,130.8c0.1,2.2,0.2,4.4,0.3,6.7h-0.6v-6.6L106.6,130.8z"/>
<path class="st1" d="M180.7,170.6c0-0.7,0-1.3,0-2c-0.1-0.6-0.2-1.2-0.4-1.8l1.8-0.8l-1.1,4.6L180.7,170.6z"/>
<path class="st1" d="M116.8,166.5l0.6-5.4h0.5c-0.1,1.8-0.2,3.6-0.3,5.4L116.8,166.5z"/>
<path class="st1" d="M164.7,205.8l-0.4-6.8h0.5c0.2,2.2,0.4,4.5,0.6,6.7L164.7,205.8z"/>
<path class="st1" d="M168.6,201.9c0.4,2.8,0.8,5.5,1.3,8.3l-0.4,0.1c-0.4-2.8-0.9-5.5-1.3-8.3L168.6,201.9z"/>
<path class="st1" d="M121.8,228.7l-1.3-4.8l0.6-0.2l1.5,4.7L121.8,228.7z"/>
<path class="st1" d="M231,183.3l-0.8-3.9C231.8,180.2,231.8,180.2,231,183.3z"/>
<path class="st1" d="M213.2,185.2l-0.9-4.9l0.5-0.1l1.2,4.9L213.2,185.2z"/>
<path class="st1" d="M168.7,190.1c0.5,1.4,1.1,2.7,1.7,4.3c-2.2-0.9-1.8-2.7-2.2-4.1L168.7,190.1z"/>
<path class="st1" d="M192.8,190.4l1,5.3l-0.3,0.1l-1.3-5.3L192.8,190.4z"/>
<path class="st1" d="M122.9,111.3c2,2.4,0.7,4.8,0.8,7.1L122.9,111.3z"/>
<path class="st1" d="M156.5,182.6l-0.3-3.9C157.3,179.2,157.3,179.2,156.5,182.6z"/>
<path class="st1" d="M251.7,178l-1.1-5.4l0.4-0.2c0.4,0.8,0.7,1.7,0.9,2.6c0.1,0.9,0.1,1.8,0,2.8L251.7,178z"/>
<path class="st1" d="M183.8,181.8c0.2,2.1,0.4,4.3,0.6,6.4h-0.2l-1-6.3L183.8,181.8z"/>
<path class="st1" d="M201.1,135.1l3,1.7l-0.2,0.5l-3.2-1L201.1,135.1L201.1,135.1z"/>
<path class="st1" d="M137.1,148.9v7.4h-0.3V149L137.1,148.9z"/>
<path class="st1" d="M178.8,206.2c-0.5-2-1-4.1-1.5-6.1l0.5-0.1c0.5,2,1,4.1,1.5,6.2L178.8,206.2z"/>
<path class="st1" d="M148.8,148.8l-0.5-7.8h0.2c0.2,2.6,0.5,5.3,0.7,7.9L148.8,148.8z"/>
<path class="st1" d="M136.1,121.9c-0.1-1.9-0.2-3.8-0.3-5.6h0.4l0.5,5.6L136.1,121.9z"/>
<path class="st1" d="M172.4,190c0.4,2.1,0.9,4.2,1.3,6.4C172.5,194.5,172,192.2,172.4,190L172.4,190z"/>
<path class="st1" d="M213.5,207l1.2,5.1l-0.6,0.1c-0.4-1.7-0.7-3.5-1.1-5.2H213.5z"/>
<path class="st1" d="M174.8,229.2l2,6.5l-0.4,0.1l-2-6.5L174.8,229.2z"/>
<path class="st1" d="M117.6,158c0.2-1.9,0.4-3.7,0.6-5.6h0.5l-0.6,5.6H117.6z"/>
<path class="st0" d="M209,245.2l0.8,0.9c0.4-4.2,0.9-8.2,1.3-12.3h0.3l0.8,2.4l0.3-0.1c-0.6-2.6-1.2-5.3-1.9-8.3l-1.5,1.4l-2.2-6.9
	l0.4-0.2l1.1,1.2l0.5-0.3c-0.7-0.9-1.3-1.8-2-2.7c-0.5-0.6-1.1-1.3-1.5-1.9c-0.1-0.2,0.5-1,0.6-0.9c2.1,1,1.3-0.5,1.5-1.6
	c1.1,2.4,2.2,4.7,3.3,7.3v-1.9l0.6-0.1c0.4,2.4,0.8,4.7,1.1,7l1.4-1.4l0.6,0.3c0.1,2,0.2,3.9,0.3,5.9l-0.4,0.2l-0.9-1.4v5.6l1-0.6
	c-0.9,3.2-1.6,6.1-2.5,9c-0.6,1.9-2.4,3.7-2.2,5.4c0.2,2.3-1.4,3.2-2.2,4.7c-0.1,0.1-0.3,0.2-0.9,0.5l2.7-4.2l-0.4-0.3
	c-0.6,0.9-1.2,1.7-1.9,2.4c-0.7,0.7-1.6,1.2-2.6,1.4l1.1-2.4l1.4,0.8C207.6,251.2,208.3,248.3,209,245.2z"/>
<path class="st0" d="M192.2,280.6c-1.7,0.4-1.1-0.8-1.4-1.5c-1.3-3.4-2.2-7-3.8-10.4c-1.9-3.9-2.9-8.3-4.1-12.5
	c-0.6-2,0.8-2.8,3.8-2.2l-2.2-1.9c2.7-0.6,4.2,1.6,6.3,1.7l-0.1,0.5l-2.1-0.5l-1.4,3.8l0.4,0.2l0.8-1.6l0.3,0.1
	c-0.2,4.2-1,8.4-0.5,12.5S190.9,276.6,192.2,280.6z"/>
<path class="st0" d="M202.4,252.9l4-7.9l-0.4-0.3l-0.9,0.5c0.5-5.9,1.1-11.8,1.6-17.6h0.3l0.4,1.8h0.4l-0.3-2.7
	c1.3,2.8,2.6,5.6,1.9,8.8s-0.9,6.8-2,10c-1,2.8-2.9,5.2-4.4,7.8L202.4,252.9z"/>
<path class="st0" d="M213,279.5c-1.8-3.5-0.8-6.6-0.8-9.8l-1.2,0.4c0.6-2.8,1.2-5.3,1.8-8.2l1.6,1.9c0.8,0.9,1.5,1.4,2.2-0.2
	c0.1-0.2,0.7-0.3,1-0.4c0,0.3,0.2,0.6,0.1,0.8c-0.7,1.9-1.6,3.8-2.6,5.6C213.4,272.7,213.4,275.9,213,279.5z"/>
<path class="st0" d="M265.8,236.6c2.8-2.4,5.6-4.9,8.4-7.3c0.8-0.7,1.7-1.4,2.5-2l0.6,0.5l-1.3,2.5l0.9-0.2l0.3,0.3l-3.1,3.4
	l-0.5-0.4l0.8-1.3l-15.5,11.6l-0.6-0.8l3.8-3.5l2.6-2.4L265.8,236.6z"/>
<path class="st0" d="M265.8,236.6l-1.1,0.5l-4.8,2.8l-0.2-0.4l2-1.8l-0.2-0.4l-5.6,3.8c2.3-2.5,3.8-5.8,7.3-7
	c2.1-0.7,4.2-1.6,6.3-2.6c1.1-0.7,2.1-1.4,3.1-2.3l0.4,0.4c-1.7,1.6-3.5,3.2-5.2,4.9C267,235.2,266.4,235.9,265.8,236.6z"/>
<path class="st0" d="M150.8,233.1l0.5,4.1h0.2l0.2-1.3c0.1,0.1,0.1,0.3,0.2,0.4c0.3,1,0.6,2,0.9,3c0.1,0.3,0.4,0.7,0.2,0.9
	c-1.5,2.1,0.1,4,0.3,6c0.3,2.2,0.9,4.3,1.6,6.4c0.3,0.8,0.6,1.5,1.1,2.3c-2-0.6-2.1-0.8-2.6-2.8c-1-4-2.3-8-3.1-12.1
	c-0.4-2.2-0.1-4.6-0.1-6.8L150.8,233.1z"/>
<path class="st0" d="M259.3,285.5c-1.4-3-1.6-11.3-0.6-14.3c1.3,0.2,2.3,0.3,2.3,2.1c-0.1,4.1,0,8.2,0.1,12.3c0,0.9,0,1.9-0.1,2.8
	c-2.1-5.1-1.4-10.5-1.7-15.9c-0.2,1-0.3,2-0.4,3c0,1.1,0.1,2.3,0.2,3.4s0,2.1,0,3.2S259.2,284.3,259.3,285.5z"/>
<path class="st0" d="M203.1,221.9c2.5,11.4,2.6,12.7,1,14.4c-0.6-5-1.3-10.1-1.9-15.4l1.9-2c2.2,1.6,2.4,3.8,1.2,6.6l-0.5-3.2
	L203.1,221.9z"/>
<path class="st0" d="M205.1,154.5c-0.4,1.2-0.4,3-1.2,3.3c-1.7,0.8-1.2,1.7-1.1,2.8l0.7,0.3c0.6-1.3,1.1-2.6,1.7-3.9
	c0.2-0.4,0.7-1,0.8-1c0.7,0.3,1.9-0.8,2.1,0.7c0.1,0.6,0.2,1.4-0.2,1.8c-1.5,1.8-3.2,3.4-4.8,5.1c-0.4,0.5-0.7,1.2-1.3,1.6l1.1-3
	l-2.1,0.8C202,159.8,201.7,156.4,205.1,154.5z"/>
<path class="st0" d="M217,236.8c-0.4-2.2-0.9-4.5-1.4-6.8c3,2.6,2.5,14.9-0.6,19.7c0.2-1.1,0.5-2.1,0.8-3.7l-1.7,1.5l-0.4-0.1
	c0.9-1.7,1.6-3.6,2.1-5.4c0.4-2,0.1-4.2,0.5-6.3l0.3,1.1L217,236.8z"/>
<path class="st0" d="M219.9,229.6c-0.1,0.7,0,1.4,0.2,2c0.2,0.3,1.1,0.4,1.6,0.4c1,0,1.9-0.2,2.9-0.4l0.1,0.5l-3,0.9h0.1l-2.5,0.7
	c-2.4-4.8-4.9-9.6-7.3-14.3l0.3-0.2L219.9,229.6L219.9,229.6z"/>
<path class="st0" d="M211.2,283.3c1.2-1.8,1.4-1.7,3.4,2.4c-0.2,0.2-0.3,0.4-0.5,0.6c-0.3,0.2-0.5,0.3-0.8,0.5c0-1-0.1-1.8-0.1-2.9
	c-1.1,1.5-1.7,1.4-2.2-0.2c-1-3.1-2.2-6.1-3-9.2c-0.3-1.6-0.4-3.2-0.3-4.9l0.8-0.1C209.3,274,210.2,278.5,211.2,283.3z"/>
<path class="st0" d="M164.2,132.2l-1.2-0.8l1.7-7.5c2.4,1.4,5,1.5,6.4,4.1l-4.7-2.2c0.5,1.7,1,3.5,1.5,5.3l-0.5,0.1
	c-0.4-1.4-0.9-2.8-1.3-4.3h-0.8C165,128.8,164.6,130.5,164.2,132.2z"/>
<path class="st0" d="M195.1,279.6c-0.5-1.4-1-2.9-1.2-4.4c-0.5-5.3-0.8-10.7-1-16c1.2,7,0.2,14.3,4,20.7c-0.4-1.2-0.7-2.4-1.1-3.6
	l0.5-0.1l1.9,6l-0.2,0.1c-0.2-0.3-0.4-0.6-0.7-0.8c-0.1-0.1-0.4,0-0.8,0.1C196,281.1,195.5,280.3,195.1,279.6L195.1,279.6z"/>
<path class="st0" d="M258.6,291l1.4,4l0.4-0.1l-1.3-5.4l0.5-0.1c0.8,2.3,1.5,4.6,2.4,7.2c-1.2-0.1-2.7,0.2-3.2-0.4
	c-1.6-1.8-2.9-3.9-2.1-7.1c0.7,2.2,1.3,3.9,1.9,5.5h0.3l-0.6-3.5L258.6,291z"/>
<path class="st0" d="M200,197.6c-2-1.5-2.7-7.6-0.9-11.7c1,3.8,1.9,7.2,2.8,10.6l-0.9,0.3l-1.8-6.2l-0.5,0.1
	C199.1,193,199.6,195.3,200,197.6z"/>
<path class="st0" d="M178.6,272.5v1c-3.8-6.1-2.9-13.5-6.1-19.6l0.6-0.2c0.5,1.1,0.9,2.2,1.4,3.2c2.3,4.1,1.6,8.9,3.1,13.1
	C177.8,270.9,178.3,271.7,178.6,272.5L178.6,272.5z"/>
<path class="st0" d="M180.3,273.6c-0.9-4.2-1.9-8.4-2.8-12.5l-0.3,0.5l-0.8-4.8l0.2-0.1c1.3,2.6,2.6,5.3,3.9,7.9l-0.3,0.2l-1.1-1
	l-0.3,0.1l2.3,11l-0.2,0.1C180.7,274.6,180.5,274.1,180.3,273.6L180.3,273.6z"/>
<path class="st0" d="M248.5,274.3c0.3,1.4,0.5,2.6,0.8,3.8l0.3,0v-6.3l-1,1.4l-0.3-0.1c0-0.6,0.1-1.1,0.3-1.7c0.3-0.4,0.8-0.7,1.3-1
	c0.3,0.5,0.9,0.9,1,1.4c0,0.9,0,1.8-0.1,2.6c0.1,0.9,0.1,1.8,0,2.7c-0.2,1-0.5,1.9-0.9,2.8C248.1,278.2,247.3,276.6,248.5,274.3z"/>
<path class="st0" d="M199.5,283.2c-2.6-5-3.8-10.7-3.5-16.4C197.2,272.3,198.3,277.7,199.5,283.2z"/>
<path class="st0" d="M267.1,185v8.3h-0.6l-1.9-12.4l0.5-0.1c0.3,1.7,0.7,3.4,1,5.1h0.3v-3.4h0.2C266.8,183.4,267,184.2,267.1,185
	L267.1,185z"/>
<path class="st0" d="M201.2,164.1v4.3l0.9-1.3l0.2,0.1l-1.5,4.7l-0.7-1.2l-1,2.4l-0.4-0.1c0.6-3,1.2-6,1.8-9L201.2,164.1z"/>
<path class="st0" d="M223.1,291.7c0.4-0.6,0.8-1.2,1.1-1.9c0.3-1,0.3-2,0.6-3c-0.3,3.3,0.3,6.6,1.8,9.6l-2.1-3.1l-0.3,0.1l1.3,3.8
	l-0.6,0.2L223.1,291.7L223.1,291.7z"/>
<path class="st0" d="M255.1,270.9c-0.1,2.4-0.3,5-0.4,7.8c0.1,0.5,0.2,0.9,0.4,1.4c0.5,1.2,1,2.5,1.3,3.9
	C253.5,281.2,253,273.4,255.1,270.9z"/>
<path class="st0" d="M221.7,233.1l3.8,0.3c0.2,2.3-0.4,2.9-2.6,2.4c-0.6-0.1-1.2-0.4-1.8-0.5c-0.6-0.1-1.1-0.1-1.7-0.1L221.7,233.1
	L221.7,233.1z"/>
<path class="st0" d="M272.1,226.2l0.8-7.4l0.3-0.2c0.4,1.1,1.3,2.3,1.2,3.4c-0.2,1.6-1.1,3-1.7,4.5L272.1,226.2z"/>
<path class="st0" d="M197.9,171.9c-0.1,4.3-0.2,8.7-0.3,13c0,0.1-0.2,0.3-0.5,0.4C197.4,180.8,195.4,176.3,197.9,171.9L197.9,171.9z
	"/>
<path class="st0" d="M257,281.2c-0.8-3.5-0.6-7.2,0.6-10.6v10.6L257,281.2z"/>
<path class="st0" d="M256.8,296.5c-2.5,1.2-3.8,0.8-4.4-1.3c-0.5-2.1-0.7-4.2-0.5-6.3c0.2,0.7,0.5,1.5,0.8,2.2
	c0.1,0.5,0.1,1.1,0.3,1.7C253.5,294.7,253.7,296.9,256.8,296.5z"/>
<path class="st0" d="M213.9,248.7c0.6,3.2-1.3,4.8-3,6.6c-0.5-1-1.2-1.9,0.7-2.4c0.5-0.1,0.5-1.7,0.9-2.6
	C212.9,249.8,213.4,249.2,213.9,248.7z"/>
<path class="st0" d="M211.6,290.4c-2.5-0.3-4.8-4.9-4.4-8.3L211.6,290.4z"/>
<path class="st0" d="M200.7,271.7l1.2,5.6h-0.7c-0.5,0.7,0.1,1.6,0.2,2.4c0.2,1.2,0.5,2.3,0.6,3.5
	C199.8,279.6,200.7,275.6,200.7,271.7z"/>
<path class="st0" d="M252.5,283c-1.4-3.7-1.6-7.7-0.5-11.5C252.2,275.3,252.3,279.2,252.5,283z"/>
<path class="st0" d="M147.1,240.8c0.4,2.1,1,4.1,1.8,6.1c0.8,1.8,2.2,3.4,3.7,5.4c-4.9-2.7-4.6-7.4-6-11.3L147.1,240.8z"/>
<path class="st0" d="M187.5,271.4l2.6,7.3l-0.3,0.1l-1.7-3.8l-0.4,1l-0.5,0l-0.4-4.7L187.5,271.4z"/>
<path class="st0" d="M204.8,260.8v5.4c-1.4-0.8-2.2-2.4-1.9-4C202.9,261.7,203.9,261.4,204.8,260.8z"/>
<path class="st0" d="M191.4,276.3c-0.5-4-3.1-7.5-2.2-12c0.9,4.1,1.8,8,2.6,11.9L191.4,276.3z"/>
<path class="st0" d="M130.4,119.8l-0.9-4.7l0.3-0.1l0.6,1.2h0.3V113h0.5v6.8L130.4,119.8z"/>
<path class="st0" d="M178.6,272.6c-0.7-3.2-1.3-6.5-2.1-9.8l0.6-0.1c0.1,0.6,0.2,1.3,0.3,1.9c0.9,3,1.9,6,2.8,9l0,0
	c-0.1,0.3-0.3,0.6-0.5,1.1C179.4,273.9,179,273.3,178.6,272.6L178.6,272.6z"/>
<path class="st0" d="M223.4,175.5c-1.8-3.4-1.2-7-0.7-10.6C223,168.4,223.2,172,223.4,175.5L223.4,175.5z"/>
<path class="st0" d="M227.4,279.7l-1.6,0.4c1-2.9,2-5.8,2.9-8.7l0.3,0.1C228.5,274.2,228,276.9,227.4,279.7L227.4,279.7z"/>
<path class="st0" d="M181.6,138.5c-1,3-2.1,6-3.1,8.9C177.7,145.9,180,139.5,181.6,138.5z"/>
<path class="st0" d="M157.8,241.1c1.1,2.8,2.1,5.6,3.3,8.8c-0.4-0.3-0.9-0.4-1-0.7c-1-2.6-1.8-5.3-2.7-7.9L157.8,241.1z"/>
<path class="st0" d="M144.6,241.3l-2.8-9l0.6-0.2l2.8,9.1L144.6,241.3z"/>
<path class="st0" d="M97.5,102.2c-1.3-0.7-4.5,1.1-2.8-3.2l0.5,2.2l2.1-2.7L97.5,102.2z"/>
<path class="st0" d="M97.7,94.1L96,95.9c-1.7-1.6-2.1,0.3-3,1.3C93.6,94.1,95.1,93.1,97.7,94.1z"/>
<path class="st0" d="M172,268.8l-2.1-8.8l0.6-0.2l2.1,8.8L172,268.8z"/>
<path class="st0" d="M168.7,258.6c-1.2-2.7-2.4-5.4-3.7-8.1l0.6-0.3c1.2,2.7,2.5,5.4,3.8,8.1L168.7,258.6z"/>
<path class="st0" d="M160.4,124.3c1.8,0.9,1.1,2.6,1,3.8c-0.2,1.5-0.5,3.1-1,4.5V124.3z"/>
<path class="st0" d="M98.8,102.4c-1.3-2-1-4.6,0.7-6.2L98.8,102.4z"/>
<path class="st0" d="M255.9,272.2v7C254.8,277.1,254.8,274.4,255.9,272.2z"/>
<path class="st0" d="M195,279.6l-0.2,1.1l-0.6,0.2l-2.5-6.6l0.6-0.2C193.3,275.8,194.2,277.7,195,279.6L195,279.6z"/>
<path class="st0" d="M140.2,233.5l3.2,10l-0.6,0.2l-3.1-10L140.2,233.5z"/>
<path class="st0" d="M198.3,261.7c0.2,3,0.5,5.9,0.7,8.9h-0.6l-0.8-8.9L198.3,261.7z"/>
<path class="st0" d="M247.8,292.1c-0.8-2.7-2-5.5-0.1-8.3c-0.2,1-0.3,2.1-0.4,3.2c0.1,0.9,0.2,1.8,0.5,2.7c0.2,0.8,0.4,1.5,0.6,2.3
	L247.8,292.1z"/>
<path class="st0" d="M205.8,272.6c0.7,2.5,2.6,4.7,1.9,7.7l-2.3-7.5L205.8,272.6z"/>
<path class="st0" d="M97.7,191.5c1.2,2.4,2.4,4.9,3.7,7.3l-0.5,0.3c-1.2-2.5-2.4-4.9-3.7-7.4L97.7,191.5z"/>
<path class="st0" d="M217,286.4c-1.5-1.8-1.5-4.4,0-6.2V286.4z"/>
<path class="st0" d="M253.2,277.3c-0.4-2.3-1-4.7,0.8-6.7C253.7,272.9,253.4,275.1,253.2,277.3z"/>
<path class="st0" d="M220.7,277.5c0-0.8-1.1-1.9,0.7-2.3c0.2,0,0.2-0.9,0.3-1.4c0.2-1,0.4-2,0.7-3.1l0.4,0.1l-1.3,6.9L220.7,277.5z"
	/>
<path class="st0" d="M198.2,270.7c0.4,2.6,0.8,5.2,1.2,7.8l-0.5,0.1l-1.4-7.7L198.2,270.7z"/>
<path class="st0" d="M144.5,203.4c0.3-1.7-1-3.4,1.3-4.5C147.1,200.8,145.3,201.8,144.5,203.4z"/>
<path class="st0" d="M87.9,164.5l3,6l-0.6,0.3l-3-6L87.9,164.5z"/>
<path class="st0" d="M221.6,161.3v6.7h-0.5v-6.6L221.6,161.3z"/>
<path class="st0" d="M200.9,263.8l1.1,8.5l-0.6,0.1c-0.4-2.9-0.7-5.7-1.1-8.5L200.9,263.8z"/>
<path class="st0" d="M196.8,260.4c0.2,2.6,0.4,5.1,0.6,7.7l-0.6,0c-0.2-2.6-0.5-5.2-0.8-7.8L196.8,260.4z"/>
<path class="st0" d="M194.8,271l-0.8-9.5h0.4c0.3,3.2,0.7,6.3,1,9.5L194.8,271z"/>
<path class="st0" d="M201.5,150.2c1.8,1.7,1.7,3.1,0,5V150.2z"/>
<path class="st0" d="M146.7,248.8l-2.7-6.2l0.7-0.3c0.9,2.1,1.8,4.1,2.6,6.2L146.7,248.8z"/>
<path class="st0" d="M234.4,289.3c0.4,1.6,0.9,3.1,1.4,4.7l-0.7,0.2l-1.7-4.6L234.4,289.3z"/>
<path class="st0" d="M226.7,265.8c-1.8,1.3-3.9,0.9-4.6-0.7L226.7,265.8z"/>
<path class="st0" d="M154.3,245.8c0.8,2.5,1.6,5,2.4,7.5l-0.6,0.2l-2.2-7.5L154.3,245.8z"/>
<path class="st0" d="M173.9,268.8c-0.6-2.4-1.1-4.8-1.7-7.1l0.5-0.1l1.8,7.1L173.9,268.8z"/>
<path class="st0" d="M144.8,117.3c0.2,0.4,0.3,1.1,0.6,1.3c1.6,1,1,2.2,0.6,3.4h-0.6l0.2-1.9l-2.1-3l0.3-0.2L144.8,117.3
	L144.8,117.3z"/>
<path class="st0" d="M243.7,282.4l-0.7-5.1l0.8-0.1c0.2,1.7,0.5,3.4,0.7,5.1L243.7,282.4z"/>
<path class="st0" d="M230.7,268.1l-4.2-1.6c0.8-0.3,1.4-0.6,1.7-0.5C229.2,266.3,230.5,266.3,230.7,268.1z"/>
<path class="st0" d="M199.5,154.3c0.3-1.6,0.6-3.3,0.9-4.9l0.6,0.1l-0.8,5L199.5,154.3z"/>
<path class="st0" d="M191.8,261.6l0.6,7.8C191.3,266.9,191.1,264.2,191.8,261.6z"/>
<path class="st0" d="M223.1,291.7c-0.2-0.9-0.4-1.8-0.4-2.8c0.1-1.3,0.2-2.6,0.5-3.9l0.6,0C223.5,287.3,223.3,289.5,223.1,291.7
	L223.1,291.7z"/>
<path class="st0" d="M174.1,248.7l3.1,1.9l-0.7,1.9h-0.4l-0.8-2.6l-1,0.7L174.1,248.7z"/>
<path class="st0" d="M270.2,181.9l2.2,3.6c-0.5-0.1-1.2,0-1.4-0.3c-0.6-0.7-1.1-1.5-1.5-2.4C269.4,182.7,270,182.2,270.2,181.9
	L270.2,181.9z"/>
<path class="st0" d="M232.6,274.8c0.5,0.6,0.9,1.3,1.2,2c0.1,0.3-0.4,0.8-0.6,1.2c-0.3-0.3-0.9-0.5-0.9-0.9
	c-0.1-0.7-0.1-1.4-0.1-2.2L232.6,274.8z"/>
<path class="st0" d="M206.9,168.9c-1.4-1.4-1.6-3.6-0.5-5.3C206.5,165.2,206.6,166.9,206.9,168.9z"/>
<path class="st0" d="M227.4,279.7c0.4,0.2,1.2,0.4,1.2,0.6c0.1,1.1,0.1,2.1,0.1,3.2H228C227.8,282.2,227.7,280.9,227.4,279.7
	L227.4,279.7z"/>
<path class="st0" d="M209.8,286.2l-1.6-4.7l0.6-0.2l1.6,4.7L209.8,286.2z"/>
<path class="st0" d="M262.8,296c-1.5-1.6-1.6-3.7-1.9-5.8l2.4,5.5L262.8,296z"/>
<path class="st0" d="M169.1,254.7l-1.9-4.9l0.4-0.2l2.2,4.8L169.1,254.7z"/>
<path class="st0" d="M104.6,104.2c-1-1.4-0.9-3.3,0.3-5.3L104.6,104.2z"/>
<path class="st0" d="M164.7,249.1l-2.1-5.3l0.5-0.2l2.2,5.3L164.7,249.1z"/>
<path class="st0" d="M228.9,287.9l-0.2-3.9l0.8,0l0.2,3.9L228.9,287.9z"/>
<path class="st0" d="M203.4,283.7c-0.4-1.7-0.8-3.4-1.1-5.1l0.5-0.1l1.3,5L203.4,283.7z"/>
<path class="st0" d="M185.2,143c-0.4-3.5-0.3-3.7,1.8-3.8C186.4,140.5,185.8,141.8,185.2,143z"/>
<path class="st0" d="M169.8,250.6c0.6,1.9,1.2,3.7,1.7,5.6l-0.4,0.1c-0.6-1.9-1.2-3.7-1.9-5.6L169.8,250.6z"/>
<path class="st0" d="M190.8,261.2v6.1h-0.4v-6.2L190.8,261.2z"/>
<path class="st0" d="M288.8,263.2c0.5,0.5,0.8,1.2,1.1,1.8c0.5,2.6,0.9,5.2,1.1,7.9c0,1.3-0.1,2.6-0.4,3.9l1,0
	c0.8-3.9-1.2-7.6-0.8-11.4c1.6,3.4,1.9,11.1,0.4,12.7l-1.4-1.7l-0.4,0.2c0.3,0.9,0.7,1.8,1,2.6c-0.6,1.2-2.1,1.7-3.3,1.1
	c-0.1,0-0.2-0.1-0.2-0.1c-1-4.2-1.9-8.1-2.8-11.9l-0.4,0.1c0.6,2.8,1.1,5.7,1.7,8.5c-1.8-4-3.6-7.9-3-12.4c-0.2,1-0.3,2-0.5,3
	l-0.2-0.1v-7.2h0.4l0.5,1.8c0.3-1.7,0.4-3,0.6-4.2h0.2v4h0.3c0.2-2,0.5-4,0.8-6l0.5,0.1v2.5h0.3l0.6-4.2h0.3v4.2h0.3
	c0.1-1.1,0.3-2.2,0.4-3.3c0.1-1.2,0.3-2.3,0.8-3.4v4h0.2l0.7-5.2h0.3C288.9,254.8,288.9,259,288.8,263.2c-1.7,2.4,0.4,4.3,0.7,6.5
	C289.2,267.5,289,265.3,288.8,263.2z M287.2,259.2h-0.4l0.7,10.4h0.6C287.8,266.1,287.5,262.7,287.2,259.2L287.2,259.2z"/>
<path class="st0" d="M283.8,277l-1.3-1.5c0.5,1.5,0.9,2.7,1.4,4c-1.2-0.5-1.9-2.1-2-3.8c-0.1-1.9-0.2-3.8-0.3-5.7
	c0-0.2,0.1-0.4,0.2-0.6C282.8,272,283.9,274.3,283.8,277L283.8,277z"/>
<path class="st0" d="M272,286.7c-0.1-1.2-0.2-2.5-0.4-3.8l0.5-0.1l0.7,3.6l1-0.2c0,0.2,0.1,0.5,0,0.5c-0.3,0.2-0.6,0.3-1,0.3
	c-0.4-0.1-0.7-0.3-1-0.5L272,286.7z"/>
<path class="st0" d="M281,262.9v4.7h-0.6l0.3-4.7L281,262.9z"/>
<path class="st1" d="M287.2,259.2c0.3,3.5,0.6,6.9,0.9,10.4h-0.6l-0.7-10.4L287.2,259.2z"/>
<path class="st1" d="M288.8,263.2c0.2,2.2,0.4,4.4,0.6,6.5C289.2,267.6,287,265.6,288.8,263.2L288.8,263.2z"/>
</svg>
