<?xml version="1.0" encoding="utf-8"?>
<!-- Generator: Adobe Illustrator 22.0.1, SVG Export Plug-In . SVG Version: 6.00 Build 0)  -->
<svg version="1.1" id="Layer_1" xmlns="http://www.w3.org/2000/svg" xmlns:xlink="http://www.w3.org/1999/xlink" x="0px" y="0px"
	 viewBox="0 0 504 504" style="enable-background:new 0 0 504 504;" xml:space="preserve">
<style type="text/css">
	.st0{fill:#232323;}
	.st1{fill:#FFFFFF;}
</style>
<title>Artboard 5</title>
<path class="st0" d="M199,365c-6.1-5.1-15.8-13.4-25.8-21.5c-10.9-8.8-20.1-19.6-27.1-31.7c-3.4-5.9-6.9-11.9-11.3-17
	c-15.2-17.6-24.3-38.8-35.1-59c-6.7-12.6-10.1-26-12.5-39.8c-0.6-3.3-1.6-6.5-3-9.5c-4-9.1-8.3-18.1-12.3-27.2
	c-6.6-15.1-7.9-30.4-1.8-46c1.7-4.5,2.9-9.2,4.7-13.7c2-5,5.9-7.9,10.6-10.7c11-6.7,23-9.6,35.5-10.8c5.3-0.5,10.6,0,15.8,1.3
	c11.9,3.2,23.9,3.7,36.1,4.2c6.6,0.3,13.3,2.6,19.5,5c2.6,1,4.5,4.6,6,7.4c14.1,25.2,26.3,51.4,43.8,74.8
	c15.1,20.3,33.5,37,51.6,54.1c16.9,16,34.8,31,52.2,46.5c6.6,5.9,14.3,10.5,22.6,13.5c9.8,3.6,19.4,7.9,28.9,12.3
	c12.8,5.9,21.6,16.5,30.4,27c7.6,9,14.3,18.8,22.2,27.5c12.9,14.3,13.9,30.7,9.7,48.2c-2.3,9.7-4.8,19.3-7.6,28.9
	c-3.7,12.6-10.4,22.1-24.4,25.5c-12.4,3-24.5,2-36.5-0.6c-10.5-2.6-21.5-3.1-32.2-1.6c-2.8,0.4-5.7,0.5-8.4,1.1
	c-9,1.9-16.6-0.5-24.5-5.3c-21.3-13.2-42.9-25.9-64.8-38C239.9,398.2,220.6,384.2,199,365z M263.5,383l-11.5,1.5l-0.2-0.8l5.2-1.9
	l-13.2-4.6l4.1-2.4c-1.3-1.2-2.6-2.2-4.1-3c-3-1.4-6.1-2.4-10.7-4.1l12.3,0.7c0.1-0.9,0.1-1.8,0.2-2.7l-16.5-3.4l2-2.6
	c-1-0.9-2.2-1.7-3.4-2.3c-1.9-0.7-3.9-0.9-5.8-1.4c-1.7-0.5-3.3-1.1-5-1.6c11.2,0.8,21.6,4.7,32.8,3.5c-13.9,0.1-26.3-10.1-40.9-6.6
	l4.4-1.8c0-0.4-0.1-0.7-0.2-1l-12.7-2.4l10.1-1.4l-0.1-2.2l-18-0.7c0-0.3-0.1-0.5-0.1-0.8l17.3-2.9c-3.6-8.2-10.3-2.1-16.4-4
	l7.2-2.4l-10.8-4.8l3.7-2.1l-6.6-2.8c0-0.6,0-1.1,0-1.7c2.9-0.1,5.8-0.6,8.7-0.3c3.1,0.5,6.2,1.1,9.2,2c0.1-0.5,0.2-1.1,0.4-1.7
	l-14.6-3.4l0.2-0.7l14.1,0.8c-2.5-1.5-5.3-2.4-8.2-2.8c-3.3-0.6-6.3-1.5-5.5-6c-5.6-0.6-10.9-1.3-16.2-1.5c-1.4,0-3.1,1.4-4.3,2.5
	c-0.6,0.9-0.7,2.1-0.2,3.1c1,1.8,2.1,3.4,3.4,5l0.4-0.3l7.8,10.2l7.5,4.5l0.9,2.3c-8.3-3.5-7.5,2.6-8.8,6.5l-1.9-0.4
	c0.3-2.3,0.6-4.6,0.8-6.9h-1l-1.5,4.5c-0.8-2.7-1.2-4.3-1.7-6.1c-6.3,3.6-6.8-5.8-10.2-4.6L152,308.9c-1.1-1-3.6-2.4-4.8-4.6
	c-1.6-2.8-2.1-6.2-3.1-9.6l1.8-1l-9-3.5l5.4-0.8l-11.1-4.5l0.3-0.7l6.3,0.6l0.3-1.7l-10.1-5.3l2.2-5.1c-6.7-2.3-8.6-4.9-7.5-9.9
	l-3.1,2.1l-0.5-0.6l3.3-5c-0.2-0.3-0.5-0.6-0.7-0.9l-5.6,1.9l3.9-5.6l-1.1-0.7c-2.1,2.1-6,3.6-3.5,7.8c6.3,10.5,13,20.8,19.7,31.1
	c3.4,5.1,7.6,9.8,10.5,15.1c7.7,14.1,18,26,30.2,36.3c4.9,4.1,10,7.9,14.9,11.8c0-2.4,0-4.4-0.1-7.5c3.2,5.5,5,10.4,8.3,13.6
	c19.9,19.5,42.7,35,66.7,48.9c3.1,1.8,6.4,3.5,9.5,5.2l0.9-1.6l-6.1-3.8c3.2-0.3,6,0.7,8.9,1c2.9,0.2,5.8,0.1,8.7,0l0,0.9l-5.8,1.4
	l0.1,1.3l12.7,1l-2.9,3.2l12.7,1.1v0.6l-4.7,1.4l0,1.4l26.4,4.9l0.3-1.7l-9.8-2l0.1-0.7l14.7,0.7c0-0.6,0.1-1.1,0.1-1.7l-15.7-1.4
	V421l9.5-2.5c-8.9-4.4-19.1-0.2-28.2-5.9l6.6-2.4l-0.2-0.8l-11.5-2l0.3-1l3.7-0.9c-3-4.2-4.1-4.4-9.5-3.6c-2.5,0.4-5.3-0.4-7.9-0.6
	l0.1-1.5l7.8,0.3c-2.3-7.9-9-3.6-13.7-5.6l3-1.1l-3.2-1.6l0.2-0.7l15.6,2l0.1-1.5c-7-1.8-14.1-2.6-21.3-0.9
	c-3.3,0.8-5.8,0.6-7.9-2.6l5.6-0.5c-0.6-1.7-1.1-3.2-1.6-4.7c4,3.5,8.9,3.2,13.5,3.7l0.3-1.5L263.5,383z M204.9,178.2
	c-7.1-2.6-8.1-7.7-7.6-12.2c-2.1-1.2-3.1-1.8-4.1-2.5c-3.6-2.5-1.1-6-1.5-9.1c-0.2-1.7-0.4-4.6-1.1-4.8c-4.3-1-2.5-3.6-1.8-5.9
	l-7-3.9l4.8-1.6l-8.5-4.7l0.2-0.6l8.4,1.9l0.2-1.6l-9.8-5.2l8.5,0.5c0.1-0.5,0.1-1.1,0.2-1.6l-10.3-4.9c1.2-1.6,3-2.8,3-4.1
	s-1.4-2.9-2.6-3.8c-2.4-1.5-4.9-2.9-7.5-4.2l6.6-0.3c-1.4-1.6-2.7-3.4-4.4-4.6c-1.9-1.2-3.9-2.2-6-3l0.3-0.7l5.9,1.4
	c0.7-2.5,2-4.7,1.6-6.5c-0.4-1.7-2.6-2.9-4.2-4.6l5.4,2.3c0.2-0.6,0.4-1.3,0.6-1.9l-14.6-3.9c1.2,7.1,2.1,12.9,3.1,19h-1.4
	c1.6,3.8,3.3,7.7,4.9,11.7c1,2.6,1.7,5.2,2.5,7.8l1.1-0.2l-2,4.1l3.9,0.6c2.5,3.5-3.9,7.7,1.8,10.5c0.9-1.8,1.8-3.4,2.6-5l1.2,0.4
	c-0.6,2.1-1.1,4.3-1.4,6.5c-0.1,1.9-0.1,3.8,0.1,5.7l1.5-0.1c0.7-1.7,1.5-3.3,2.8-6.3c0.4,6,0.7,10.5,1,15.2l4,1.3l-2,7.6l3.4-1.5
	c2.3,3.5,4.4,6.8,7,10.8l2.2,0.3l2,12.1l9.5,11l-0.8,1.1l-10-5.9l4.9-0.6l-9.3-5.9c-4.3,4-11.5,3.4-16.7-1.3l13.7,1.9
	c1.1-7.6,0.1-9-5.1-8.4c0.3-7.8-4.5-12.8-9.4-17.1l2.2-3.1c-0.9-0.5-1.9-1-2.7-1.5c-0.5-0.3-0.9-0.7-1.2-1.1c-2.6-3-7.2-5-4.9-10.4
	c0.2-0.4-0.5-1.1-1-2l-3,1.7c-0.4-1.1-0.9-2.1-1.5-3.7c-0.7,2-1.2,3.3-1.6,4.6l-1.1-0.1c0.1-4.2,0.2-8.4,0.3-14.1l-3.4,8.1l-0.8-0.2
	c0.3-3.2,0.5-6.3,0.8-9.5l-1.3-0.2l-3.5,7.1c-6.9-3.6-0.8-9.5-3.4-13.6l1.2-0.8l7.9,6c0.4-4.5-4.4-9-9.9-10.4
	c-0.9,3.6-1.9,7.2-2.8,10.8l-1.7,0.2c-0.4-1.5-1.5-3.2-1.2-4.6c1.1-5,2.8-9.9,4.1-14.9c0.2-1,0.2-2,0.1-3.1l-1.9-0.3l-4.5,15.4
	l-1.1-0.3c1.2-5.8,2.4-11.5,3.6-17.3l-1.5-0.4l-3.1,10.4l-1.2-0.4l5.2-18.7l-1.2-0.5c-1.7,4.3-3.3,8.5-5,12.8l-1.8-0.8
	c2.9-6,5.8-12.1,8.6-18.1c0.4-1,0.6-2,0.8-3c-1.2,0.2-3-0.1-3.4,0.5c-2.3,3.5-4.3,7.2-6.1,11c-0.8,1.6-0.9,3.5-1.3,5.2l-1.4-0.1
	c-0.5-3-0.5-6.3-1.8-9c-1.4-2.7-3.5-5-6.1-6.5c-2.2-1.2-5.4-0.8-8.1-1.2l-0.1,1.3l10.7,3.2c-2.4,3.8-7.5-2.7-8.7,3.8
	c5.1-1.6,6.5,1.8,6.9,5.1c0.6,6,0.4,12,0.6,18.2l4.5,1.9c-0.1,1-0.2,2-0.3,3l-6.2-3l-0.2,2.7l8.9,4.7l-5.1,1.7
	c6.6,5.6,7.2,8,4.6,13.8c3.2,5.3,6.2,10.2,9.2,15l3.4-2c0.6,7.8,1.2,14.8,1.9,23c1.3-2,2-3.1,3.5-5.5c0.7,5.3,1.3,9.3,1.8,13.4
	c0.4,3.3,0.1,7.1,5.2,5.2c0,5.8,0,11,0,15.9l-1.4-3.5c-1.7-0.6-3.1-0.8-4-1.5c-3.8-3.2-7.4-6.6-11-10l-1.2,1
	c0.4,1.6,0.8,3.2,1.5,5.9l-14.9-6.1l0.5-1.2l8.3,2.8l0.5-1.2l-16.2-9.1l0.7-1.2c5.1,2.6,10.3,5.1,15.3,7.8c2.8,1.5,4.9,1.4,7-2.2
	l-7.5-1.7c-0.5-1.1-1.1-2.5-1.8-4.1l6.6-0.7l0.1-0.9l-12.4-3c0-0.7,0-1.4,0-2.2l6.6,2c0-0.7,0-1.5,0.1-2.2l-11.8-2.6l0.3-1.3
	l11.4,1.7c-1.3-6.4-7.1-5.7-11.1-7.6c3.6-4.2,3.6-4.2-4.1-8.5l6.4,0.6c1.4-5.3-4.2-3.3-5.8-5.9l6,0.2l0.7-1.6
	c-1.4-1-2.9-1.8-4.5-2.5c-2.3-0.6-4.7-1.1-7.1-1.5l5.4-2.7l-8.1-2.5c2.8-1.6,8.3,2.3,7.4-4.8l-14.9-2.8l0.2-1l15.3,1.9
	c0.2-0.6,0.4-1.2,0.6-1.8l-11.1-3.5l0.1-0.5h5.7c0-0.4,0.1-0.8,0.2-1.1l-12.7-3.6l0.2-0.8l7.2,0.7l-2.6-2.4l3.6-3.6l-4.8-3l1.9-6.8
	l-6.2,3c1-3.6,1.9-6.8,2.8-10.1l-2.5-2.3l4.7-0.6c0-0.5,0-0.9-0.1-1.4l-8.2-1c1.2-4.1,2.3-7.8,3.4-11.6l-1.4-0.7L91,96.1
	c4.6,4.1,4.5,5.2-0.8,14.9c0-4.4,0-8.8,0-14.1c-1.3,1.4-2.1,2-2.5,2.8c-3.4,7.4-3.5,15.8-0.3,23.3c3.8,9.4,8.4,18.4,12.8,27.5
	c1.2,2.6,2.9,4.9,4.7,8c-1.8,6.8-0.3,11.1,5.5,14c-0.8,3.1-1.6,6.3-2.3,9.5l2,0.7c1.5-3.4,3-6.8,4.5-10.2l1.6,0.7l-6.4,15.5l0.7,0.4
	l3.7-3.7c0.6,2.8,1.1,5.4,1.9,9l-2.1,3.9l0.8,0.5l2.8-3.1l1.2,0.6c-1.2,2.9-2.4,5.8-3.6,8.6l0.7,0.5l3.8-2.7c0.3,2,0.6,3.5,0.9,5.5
	l3.7-3.5l0.9,0.6c-1.1,2.7-2.1,5.4-3.4,8.8l5.4-0.6c0.3,3.5-7.7,10.1,3.6,8.4c-0.2,3.2-0.3,6-0.5,9.3l7.4,0.4
	c-0.7,2-1.4,4.2-2.1,6.6c3.1,0.8,7.1,0.6,8.8,2.5c2,2.1,1.9,6,2.7,9.1l3.1,0.8c-2.3,4-4.4,7.6-6.4,11.2l0.4,0.9c2.5-1.5,5-3,7.5-4.5
	l0.8,0.6l-9.3,14.3l1.2,0.8l4.4-4.8l0.9,0.6l-4.4,6.5c3.8-0.4,6.8-0.4,5.7,4.2c-0.6,2.6-1.1,5.3-1.6,7.8c3.4,0.9,6.9,2.1,10.4,2.8
	c1.3,0.2,2.8-0.7,4.1-1.1c-1-0.9-2-1.7-3.1-2.4c-1.2-0.5-2.4-0.9-3.6-1.1c1.8-0.6,3.2-0.1,4.6,0c1.1-0.1,2.3-0.4,3.3-0.9
	c-0.9-0.8-1.7-1.8-2.7-2.2c-2.6-0.8-5.2-1.3-7.9-1.9l0.3-2.1l11.5,0.7l0.1-1l-13.9-3.4l0.2-1.1l14.5,2.8l0.4-1.4l-11.5-3.8
	c2.7-0.1,5.4,0.2,8,0.9c2.8,0.7,5.7,1.9,5.4-3.2l-12.5-2.6l0.1-0.7l14.8-1.6c0.3-2.2,0.7-4.8,1.1-7.4c-1.5-0.5-2.7-1.7-3.2-3.2
	c-0.4-1.4,0-2.9,0.1-4.4c-1,1.3-2,2.7-3.1,4c-0.3,0.3-0.7,0.6-1.1,0.9c0-2.2,0-4,0.1-6.2c-1-0.3-1.9-0.6-2.8-1
	c-1.2-0.7-2.4-1.5-3.5-2.3l6.4,1.2l0.3-1l-8-2.5c2.2-0.7,4-0.2,5.9-0.1c1.1,0.1,2.2-0.7,3.3-1c-1-0.7-2-2-3.1-2.1
	c-3.1-0.3-6.2-0.1-9.4,0v-0.9l2.9-1l-0.1-0.7l-8.2-0.6v-2.8l10.1,1.2v-0.8l-6.2-0.8c0.1-0.5,0.1-1,0.2-1.5l19.6,1.3
	c-0.5,0.9-1,1.8-1.4,2.8c-0.1,0.4-0.2,0.9-0.3,1.4l6,0.4l-3.2,7.3l1.5,0.7l1.9-3.2c1.4,1.8,2.6,3.2,3.7,4.7c0.9,1.1,1.7,2.4,2.6,3.5
	c0.3,0.4,0.8,0.7,1.2,0.9c3.6,1,3.8,1.8,1.6,5.3c7.6-0.2,1.3,4.2,2.2,7.9l2.9-1.6c5.3,7.1,3.7,13.7,1.8,20.4
	c-0.7,3.2-1.3,6.4-1.7,9.6l2.1,0.5l5.7-18.7l1.5,0.5c-2,7.2-4,14.4-6,21.7l2,0.6c1.4-5.2,2.8-10.3,4.2-15.5l1.5,0.4
	c-1,4.4-2,8.8-3,13.2l1.7,0.5l3-7.4l1.2,0.3l-2.2,10.6l1.2,0.5l4.2-5.7l1.1,0.6l-3.5,8.2l0.8,0.9l5.8-3.7c-2.6,6.8-8,10.7-11.9,8.9
	c0.2,1.5,0.7,3.8,1.5,3.9c3.2,0.4,6.8,1.9,9.5-2c1-1.5,3.3-2.1,5-3.2l0.8,1.4l-2.6,2.2c4.6,3.4,9.6,6.3,13.6,10.1
	c12.6,11.6,24.5,24,37.2,35.4c11,9.9,22.8,18.9,34.2,28.3c1.7,1.4,4.3,2.3,5.2,4c2.2,4.6,5.2,7.6,10.3,7.2c1.1,9.5,8.6,5.9,14,7.2
	l-3.2,4.3l20.5,4.1l-3.7,3.6c0.1,0.4,0.2,0.7,0.3,1.1l17.6-1.6c-4.8,4.4-13.3-0.3-16.5,9.3c9.8-4.8,12.6,5.8,19.4,8
	c-3.4,0.4-6.5-0.2-9.6-0.6c-1.3,0-2.7,0.2-4,0.6c0.7,1.3,1.2,3,2.2,3.7c1.4,0.6,2.9,0.6,4.3,0.1c5.2-2.2,10.2-3.1,15,1.8l-5.6,2.1
	c3.1,1.6,6.4,3.3,9,2.5c8.7-2.4,17.1-5.7,25.6-8.7l0.2,2c1.2,0.9,2.7,2.6,3.5,2.4c1.4-0.4,2.3-2.2,3.6-3.7c3.2-0.3,6.8,4.3,11.1,0.3
	l-4-2.8l0.5-0.7l6.6,3.1c-0.3,1.3-0.5,2.4-1,4.2c3.3-1.1,6.7-6.5,7.6,0.3c1.7-0.5,3.2-0.7,4.6-1.2c2.3-0.8,5.8-1.1,6.6-2.7
	c1.6-3.4,4.5-7.3,0.5-11.4c-2.2-2.3-3.9-5.2-5.8-7.9l0.6-0.5l4.2,3.3l0.8-0.7l-3.7-5.7l0.6-0.4l11.4,7.6c0.9-0.9,1.6-2,2.1-3.2
	c1.8-5,3.5-10.1,4.9-15.2c5.6-19.6,3.9-37.5-12.3-52.1c-3.6-3.5-6.7-7.4-9.3-11.7c-15.3-24.1-35.7-41.3-63.4-49.7
	c-12.7-3.8-24.1-10.8-33.4-20.2c-7-7.1-14.3-14-21.7-20.6c-11.1-9.8-22.9-18.9-33.5-29.1c-13.5-13-27.9-25.3-38.7-40.9
	c-6.6-9.6-13.5-18.9-20.4-28.3c-0.9-1-2-1.7-3.3-2.1c-5.9-1.8-11.9-3.4-17.9-5.1l0.5-1.6l16.9,4.8l0.8-1.5c-1.1-1-1.9-2.3-3.2-2.8
	c-4.8-1.8-9.6-3.4-14.5-5c-1.8-0.6-3.6-1.3-5.6-2c-0.7,2.6-1.6,4.5-1.6,6.4c0,4.3-0.2,8.7,3.2,12.4c1.5,1.7,2.7,5.9,1.7,7.4
	c-3.9,6.2,0.9,4.3,4,4.4c-0.3,3.3-0.7,6.6-1,9.9c5.5-1.7,19.9,1.9,22.9,6.3l-18.8-6.4c0.4,4.9,0.7,8.9,1.1,13.1
	C205.4,186.4,205.4,186.4,204.9,178.2z M88.4,189.9c1.8,25.4,11.6,46.9,24.9,67.4l6.1-7.9l-5.9,1.3l3.3-5.3l-0.9-0.6l-5.1,4.4
	l2.5-5.1l-6.2-1.6c2-3.4,3.9-6.6,6.2-10.6h-5.9l4.1-7.5l-1.5-1.4l-5.8,4.6c1-3.3,3.1-5.9,4.8-8.8c0.6-0.9,0.4-2.3,0.6-3.4
	c-1,0.3-1.9,0.6-2.9,1c-0.9,0.6-1.7,1.2-2.5,1.9c0.6-2.1,1-3.4,1.5-5.2h-8.4c0.8-2.5,5-5.1,0.1-7.4l2.3-4.9l-8.8-3.4l2.1-7.9
	L88.4,189.9z M395.4,453.6l0.1-1.5c-10-2.6-19.7-6.2-30.4-5.4c-8.8,0.6-17.6,0.5-26.4,0.4c-2.3-0.1-4.6-0.7-6.6-1.9
	c-6.9-4-13.6-8.4-20.5-12.4c-3.4-2-7.2-3.2-10.8-4.8l-0.6,1.3c0.4,0.4,0.9,0.8,1.4,1.2c9.3,5.8,18.7,11.4,27.7,17.5
	c5.1,3.4,10.1,4.3,16,3.6c16.2-1.8,32.4-4.4,48.4,1.3C394.2,453.2,394.8,453.4,395.4,453.6L395.4,453.6z M68.2,144.3
	c5.5,16.1,10.9,30.5,19.7,43.6c0.1-2.8,0.6-6.8-1-7.9c-5-3.7-2.4-6.9-0.6-10.5c0.2-0.5-0.4-1.3-0.8-2.4l-3.3,2.7
	c-1.2-4-5.7-7.2-1.7-11.7c-7.7-2.7-3-7-1.6-10.9L68.2,144.3z M198.7,123.5l-0.5,1.3l14.6,7l-0.9,1.7c-3.1-1.4-6.1-3-9.2-4.2
	c-0.8-0.3-2,0.1-3,0.3c0.2,0.9,0.2,2.3,0.6,2.5c5.5,2.2,11.1,4.3,16.7,6.4c-2.9-10.9-9.3-18.2-16.7-24.8c-0.8-0.7-3.1,0.3-4.7,0.5
	c0,0.5,0.1,1.1,0.1,1.6l8.2,3.6l-0.2,2.3l-4.2-1l-0.1,1l9.9,2.8c-0.2,0.6-0.3,1.2-0.5,1.8L198.7,123.5z M153.2,292.1
	c0.2,0.6,0.3,1.2,0.5,1.8c6.2-0.8,9.1,2.3,7.9,8.7l6.4,0.3l-1.3,5.7c7.5-5.7,7.4-6-2.1-10c2.6,0.3,3.9,0.7,5.1,0.6
	c1.3-0.2,2.6-0.6,3.8-1c-1-0.8-1.9-1.9-3-2.3c-4.2-1.5-8.6-2.9-12.9-4.1C156.2,291.3,154.7,291.9,153.2,292.1z M303.2,411.8l0.2,2.7
	l18.3-1.1c0-0.9-0.1-1.8-0.2-2.7L303.2,411.8z M194.6,271.5l-1.6-0.2c-3.6,4.6-4.4,11.8-0.9,14.5C193,280.7,193.8,276.1,194.6,271.5
	z M209.8,330.6l0.2-1.6l-14.6-3.2l-0.4,2.2C199.9,329.1,204.2,333.3,209.8,330.6L209.8,330.6z M262.8,373.3c0.1-0.7,0.2-1.4,0.3-2.1
	l-17.5-2.8c-0.1,0.8-0.2,1.5-0.3,2.3L262.8,373.3z M130.6,277.2c6.2,4,7.4,3.6,8.4-2.5C135.7,273.3,132.3,271.5,130.6,277.2z
	 M263.8,381.2l0.6-2.4l-12.6-2.3l-0.4,2.1L263.8,381.2z M210.4,339.9v2.5l12.4,0.4l0.1-2.7L210.4,339.9z M186.1,280.7l1.6-0.2
	c0.6-1.7,1.1-3.4,1.4-5.2c0-1.7-0.2-3.3-0.5-4.9c-1,1.4-2.5,2.7-2.8,4.2C185.3,276.6,185.9,278.7,186.1,280.7L186.1,280.7z
	 M351.5,430l-10.5-3.9c-0.2,0.5-0.3,1-0.5,1.5C343.5,429.6,345.7,434.2,351.5,430z M178.4,97.9c-2.3,0.6-4,0.6-4.1,1.1
	c-0.4,2-0.7,3.9-0.8,5.9c1-0.1,2.8,0.2,3-0.3C177.2,102.9,177.6,100.9,178.4,97.9z M120.3,237c-0.1-0.6-0.1-1.1-0.2-1.7
	c-4.5-3.1-5.5-2.9-6.8,2.7L120.3,237z M192.7,311.9l6.8,1.4c0.3-1.8,0.5-3,0.6-3.4l-6.4-1.6C193.4,309.3,193.1,310.5,192.7,311.9
	L192.7,311.9z M182.5,264.6l-1.4-0.4c-1.1,3.6-2.3,7.2-3.4,10.8C183.7,273.3,181.5,268.3,182.5,264.6L182.5,264.6z"/>
<path class="st1" d="M204.9,178.2c0.6,8.2,0.6,8.2,4.8,8.7c-0.4-4.2-0.7-8.2-1.1-13.1l18.8,6.4c-3-4.4-17.4-8-22.9-6.3
	c0.3-3.3,0.7-6.6,1-9.9c-3.1-0.2-7.9,1.8-4-4.4c1-1.6-0.1-5.7-1.7-7.4c-3.4-3.8-3.2-8.1-3.2-12.4c0-1.9,0.9-3.8,1.6-6.4
	c2,0.7,3.8,1.4,5.6,2c4.8,1.7,9.7,3.2,14.5,5c1.2,0.5,2.1,1.8,3.2,2.8l-0.8,1.5l-16.9-4.8l-0.5,1.6c6,1.7,12,3.3,17.9,5.1
	c1.3,0.3,2.4,1.1,3.3,2.1c6.9,9.4,13.8,18.8,20.4,28.3c10.8,15.7,25.2,28,38.8,41c10.7,10.2,22.5,19.3,33.5,29.1
	c7.5,6.6,14.7,13.5,21.7,20.6c9.2,9.5,20.7,16.4,33.4,20.2c27.6,8.4,48.1,25.6,63.4,49.7c2.6,4.3,5.7,8.2,9.3,11.7
	c16.3,14.6,17.9,32.5,12.3,52.1c-1.5,5.1-3.1,10.2-4.9,15.2c-0.5,1.2-1.3,2.3-2.1,3.2l-11.4-7.6l-0.6,0.4l3.7,5.7l-0.8,0.7l-4.2-3.3
	l-0.6,0.5c1.9,2.6,3.6,5.5,5.8,7.9c3.9,4.1,1.1,8-0.5,11.4c-0.8,1.6-4.3,1.9-6.6,2.7c-1.4,0.5-2.8,0.8-4.6,1.2
	c-0.9-6.8-4.3-1.4-7.6-0.3c0.4-1.8,0.7-2.9,1-4.2l-6.5-3.2l-0.5,0.7l4,2.8c-4.3,3.9-7.9-0.6-11.1-0.3c-1.4,1.5-2.3,3.3-3.6,3.7
	c-0.8,0.3-2.3-1.5-3.5-2.4l-0.2-2c-8.5,3-17,6.2-25.6,8.7c-2.6,0.7-6-0.9-9-2.5l5.6-2.1c-4.8-4.9-9.8-4-15-1.8
	c-1.4,0.6-2.9,0.5-4.3-0.1c-1.1-0.6-1.5-2.4-2.2-3.7c1.3-0.3,2.6-0.5,4-0.6c3.2,0.3,6.3,1,9.6,0.6c-6.9-2.2-9.6-12.8-19.4-8
	c3.2-9.6,11.7-4.9,16.5-9.3l-17.6,1.6c-0.1-0.4-0.2-0.7-0.3-1.1l3.7-3.6l-20.5-4.1l3.2-4.3c-5.4-1.3-13,2.3-14-7.2
	c-5.1,0.4-8.1-2.6-10.3-7.2c-0.9-1.8-3.5-2.6-5.2-4c-11.5-9.4-23.2-18.4-34.2-28.3c-12.7-11.4-24.7-23.7-37.2-35.4
	c-4.1-3.8-9-6.7-13.6-10.1l2.6-2.2l-0.8-1.4c-1.7,1-4,1.7-5,3.2c-2.7,3.9-6.2,2.4-9.5,2c-0.8-0.1-1.3-2.4-1.5-3.9
	c3.9,1.9,9.3-2.1,11.9-8.9l-5.8,3.7l-0.8-0.9l3.5-8.2l-1.1-0.6l-4.2,5.7l-1.2-0.5l2.2-10.6l-1.2-0.3l-3,7.4l-1.7-0.5
	c1-4.4,2-8.8,3-13.2l-1.5-0.4c-1.4,5.1-2.8,10.3-4.2,15.5l-2-0.6c2-7.2,4-14.4,6-21.7l-1.5-0.5l-5.7,18.7l-2.1-0.5
	c0.4-3.2,1-6.5,1.7-9.6c1.9-6.7,3.5-13.3-1.8-20.4l-2.9,1.6c-1-3.7,5.3-8.1-2.2-7.9c2.2-3.5,1.9-4.3-1.6-5.3
	c-0.5-0.2-0.9-0.5-1.2-0.9c-0.9-1.1-1.7-2.4-2.6-3.5c-1.1-1.5-2.3-3-3.7-4.7l-1.9,3.2l-1.5-0.7l3.2-7.3l-6-0.4
	c0-0.5,0.1-0.9,0.3-1.4c0.4-1,0.9-1.9,1.4-2.8l-19.6-1.3c-0.1,0.5-0.1,1-0.2,1.5l6.2,0.8v0.8l-10.1-1.2v2.8l8.2,0.6l0.1,0.7l-2.9,1
	v0.9c3.1,0,6.2-0.2,9.4,0c1.1,0.1,2.1,1.4,3.1,2.1c-1.1,0.4-2.2,1.1-3.3,1c-1.9-0.1-3.8-0.6-5.9,0.1l8,2.5l-0.3,1l-6.4-1.2
	c1.1,0.8,2.3,1.6,3.5,2.3c0.9,0.4,1.8,0.7,2.8,1c0,2.1,0,4-0.1,6.2c0.4-0.3,0.8-0.6,1.1-0.9c1-1.3,2-2.7,3.1-4
	c-0.1,1.5-0.4,3-0.1,4.4c0.5,1.5,1.7,2.7,3.2,3.2c-0.4,2.6-0.8,5.2-1.1,7.4l-14.9,1.6l-0.1,0.7l12.5,2.6c0.3,5.1-2.7,3.9-5.4,3.2
	c-2.6-0.7-5.3-1-8-0.9l11.5,3.8l-0.4,1.4l-14.5-2.8l-0.2,1.1l13.9,3.4l-0.1,1l-11.5-0.7l-0.3,2.1c2.6,0.6,5.3,1.1,7.9,1.9
	c1,0.3,1.8,1.4,2.7,2.2c-1.1,0.5-2.2,0.8-3.3,0.9c-1.4,0-2.9-0.6-4.6,0c1.2,0.3,2.4,0.6,3.6,1.1c1.1,0.7,2.2,1.5,3.1,2.4
	c-1.4,0.4-2.9,1.3-4.1,1.1c-3.6-0.7-7.1-1.9-10.4-2.8c0.5-2.5,1-5.2,1.6-7.8c1.1-4.6-1.9-4.6-5.7-4.2l4.4-6.5L149,269l-4.4,4.8
	l-1.3-0.8l9.4-14.3l-0.8-0.6c-2.5,1.5-5,3-7.5,4.5l-0.4-0.9c2.1-3.6,4.1-7.1,6.4-11.2l-3.1-0.8c-0.8-3.1-0.8-7-2.7-9.1
	c-1.8-1.9-5.7-1.7-8.8-2.5c0.8-2.3,1.5-4.6,2.1-6.6l-7.4-0.4c0.2-3.3,0.3-6.1,0.5-9.3c-11.2,1.7-3.3-5-3.6-8.4l-5.4,0.6
	c1.3-3.4,2.4-6.1,3.4-8.8l-0.9-0.6l-3.7,3.5c-0.3-2-0.6-3.6-0.9-5.5l-3.8,2.7l-0.7-0.5c1.2-2.9,2.4-5.7,3.6-8.6l-1.2-0.6l-2.8,3.1
	l-0.8-0.5l2.1-3.9c-0.7-3.6-1.3-6.2-1.9-9l-3.7,3.7l-0.7-0.4l6.4-15.5l-1.6-0.7c-1.5,3.4-3,6.8-4.5,10.2l-2-0.7
	c0.8-3.2,1.6-6.3,2.3-9.5c-5.8-2.9-7.3-7.2-5.5-14c-1.8-3.1-3.5-5.4-4.7-8c-4.4-9.1-9-18.1-12.8-27.5c-3.2-7.4-3.1-15.9,0.3-23.3
	c0.3-0.8,1.1-1.3,2.5-2.8c0,5.4,0,9.7,0,14.1c5.3-9.7,5.4-10.8,0.8-14.9l7.5-10.4l1.4,0.7c-1.1,3.7-2.2,7.5-3.4,11.6l8.2,1
	c0,0.5,0,0.9,0.1,1.4l-4.7,0.6l2.5,2.3c-0.9,3.3-1.8,6.6-2.8,10.1l6.2-3l-1.9,6.8l4.8,3l-3.6,3.6l2.6,2.4l-7.2-0.7l-0.2,0.8
	l12.7,3.6c-0.1,0.4-0.1,0.8-0.2,1.1h-5.8l-0.1,0.5l11.1,3.5c-0.2,0.6-0.4,1.2-0.6,1.8l-15.3-1.9l-0.2,1l14.9,2.9
	c0.8,7.1-4.6,3.2-7.4,4.8l8.1,2.5l-5.4,2.7c2.4,0.4,4.8,0.9,7.1,1.5c1.6,0.7,3.1,1.5,4.5,2.5l-0.7,1.6l-6-0.2
	c1.6,2.6,7.2,0.6,5.8,5.9l-6.4-0.6c7.6,4.3,7.6,4.3,4.1,8.5c4,1.9,9.8,1.2,11.1,7.6l-11.4-1.6l-0.3,1.3l11.8,2.6
	c0,0.7-0.1,1.5-0.1,2.2l-6.6-2c0,0.7,0,1.4,0,2.2l12.4,3l-0.1,0.9l-6.6,0.7c0.7,1.6,1.3,2.9,1.8,4.1l7.5,1.7c-2.1,3.6-4.2,3.8-7,2.2
	c-5-2.7-10.2-5.2-15.3-7.8l-0.7,1.2l16.2,9.1l-0.5,1.2l-8.3-2.8l-0.5,1.2L139,201c-0.7-2.7-1.1-4.3-1.5-5.9l1.2-1
	c3.7,3.3,7.3,6.7,11,10c0.9,0.8,2.4,0.9,4,1.5l1.4,3.5c0-4.9,0-10.2,0-15.9c-5.1,2-4.8-1.9-5.2-5.2c-0.5-4-1.1-8-1.8-13.4
	c-1.5,2.3-2.2,3.4-3.5,5.5c-0.7-8.1-1.2-15.2-1.9-23l-3.4,2c-3-4.9-6-9.8-9.2-15c2.6-5.8,2-8.1-4.6-13.8l5.1-1.7l-8.9-4.7l0.2-2.7
	l6.2,3c0.1-1,0.2-2,0.3-3l-4.4-1.9c-0.2-6.2,0-12.3-0.6-18.2c-0.3-3.3-1.8-6.7-6.9-5.1c1.3-6.5,6.3-0.1,8.7-3.8l-10.6-3.1l0.1-1.3
	c2.7,0.3,5.9-0.1,8.1,1.2c2.6,1.5,4.8,3.8,6.1,6.5c1.3,2.6,1.3,5.9,1.8,9l1.4,0.1c0.4-1.8,0.5-3.7,1.3-5.2c1.8-3.8,3.9-7.5,6.1-11
	c0.4-0.6,2.2-0.4,3.4-0.5c-0.2,1-0.5,2-0.8,3c-2.8,6-5.7,12.1-8.6,18.1l1.8,0.8c1.6-4.3,3.3-8.5,5-12.8l1.2,0.5l-5.2,18.7l1.2,0.4
	l3.1-10.4l1.5,0.4c-1.2,5.8-2.4,11.5-3.6,17.3l1.1,0.3l4.5-15.4l1.9,0.3c0.1,1,0,2-0.1,3.1c-1.3,5-3,9.9-4.1,14.9
	c-0.3,1.4,0.8,3.1,1.2,4.6l1.7-0.2c0.9-3.6,1.9-7.2,2.8-10.8c5.6,1.4,10.3,5.9,9.9,10.4l-7.9-6l-1.2,0.8c2.6,4.1-3.5,9.9,3.4,13.6
	l3.5-7.1l1.3,0.2c-0.3,3.2-0.5,6.3-0.8,9.5l0.8,0.2l3.4-8.1c-0.1,5.6-0.2,9.9-0.3,14.1l1.1,0.1c0.4-1.3,0.9-2.6,1.6-4.6
	c0.6,1.6,1.1,2.6,1.5,3.7l3-1.7c0.5,0.9,1.2,1.6,1,2c-2.2,5.3,2.4,7.4,4.9,10.4c0.4,0.4,0.8,0.8,1.2,1.1c0.9,0.6,1.8,1,2.7,1.5
	l-2.2,3.1c4.9,4.4,9.7,9.4,9.4,17.1c5.3-0.6,6.3,0.8,5.2,8.4l-13.8-2c5.2,4.7,12.4,5.4,16.7,1.3l9.3,5.9l-4.9,0.6l10,5.9l0.8-1.1
	l-9.5-11l-2-12.1l-2.2-0.3c-2.6-4-4.7-7.3-7-10.8l-3.4,1.5l1.9-7.5l-4-1.3c-0.3-4.7-0.6-9.1-1-15.2c-1.3,3-2.1,4.6-2.8,6.3l-1.5,0.1
	c-0.2-1.9-0.2-3.8-0.1-5.7c0.4-2.2,0.8-4.4,1.4-6.5l-1.2-0.4c-0.8,1.6-1.7,3.2-2.6,5c-5.7-2.8,0.7-7-1.8-10.5l-3.9-0.6l2-4.1
	l-1.1,0.2c-0.8-2.6-1.5-5.3-2.5-7.8c-1.6-4-3.3-7.9-4.9-11.7h1.4c-1-6.1-2-12-3.1-19l14.6,3.9c-0.2,0.6-0.4,1.2-0.6,1.9l-5.4-2.2
	c1.6,1.7,3.9,2.9,4.2,4.6c0.4,1.8-0.9,4-1.6,6.5l-5.9-1.4l-0.3,0.7c2.1,0.8,4.1,1.8,6,3c1.7,1.2,2.9,3,4.4,4.6l-6.6,0.3
	c2.6,1.2,5.1,2.6,7.5,4.2c1.2,0.9,2.7,2.6,2.6,3.8s-1.8,2.6-3,4.1l10.4,4.8c-0.1,0.5-0.1,1.1-0.2,1.6l-8.5-0.5l9.8,5.2l-0.2,1.6
	l-8.4-1.9l-0.2,0.6l8.5,4.7l-4.8,1.6l7,3.9c-0.8,2.3-2.6,4.9,1.8,5.9c0.7,0.2,0.9,3.1,1.1,4.8c0.3,3.1-2.1,6.6,1.5,9.1
	c1,0.7,2.1,1.2,4.1,2.5C196.8,170.5,197.7,175.6,204.9,178.2z M322.7,382.1l-7.5,4.1l0.5,1l11.6-4.2c-0.1-0.6-0.2-1.1-0.3-1.7
	l-4.6,0.8l10.7-5.5l-0.6-1.3l-19.1,8.1l0.2,0.6L322.7,382.1z M384.4,431.1l-7.6,2.2c6.7,1,13.5,0.4,19.9-1.7l-0.1-1.4l-10.9,0.5
	l4.6-1.7l-0.5-1.4l-14.6,2.7c0,0.3,0,0.7,0.1,1L384.4,431.1z M152.3,154.8c1.7-3.1-0.9-3.5-2.7-4.6c-1.3-0.8-3-1.6-3.4-2.8
	c-1.2-3.6-1.3-3.9-5.1-3.5c0,5.4,4.1,7.1,8.2,8.9c1.2,0.6,2.3,1.3,3.4,2.1l-6.8-0.7l-0.2,1.3l10.3,3l0.6-2.2L152.3,154.8z
	 M270,325.7l1.5-1.7c-0.1-0.4-0.2-0.8-0.4-1.1l-22.2,2.5l0.1,0.9l21.2-0.6c-1.8,0.7-3.7,1.3-5.5,1.8c-3.7,0.8-7.5,1.3-11.2,1.9
	l0.3,1.4l24.2-3.5c-0.1-1-0.2-2-0.3-2.9L270,325.7z M341.8,278.5l-3.6,2.1l10.8,1l-0.1,1l-5,0.7l0.1,1.3l8.9,0.1
	c-1.5-5.3-1.5-5.1-5.6-5.3c-1.9-0.2-3.8-0.5-5.6-1l4.9-0.9l-9.2-5.3l-4.3-2.5c0.1-0.5,0.5-1.1,0.4-1.3c-2.1-3-3.9-6.3-6.4-8.9
	c-2.1-2.1-5.1-3.3-7.7-4.9c1.4,3.8,3,6.9,5.4,9.2s3.7,6.1,7.9,6l-3.4,1.5L341.8,278.5z M370.3,294.3l3.2-1.9
	c-2.1-1.1-4.8-0.6-5.1-1.2c-2.4-5.6-5.8-1.5-8.9-0.6l11.1,3.5l-3.1,2.2l9.3,0.6l-1.4,1.8l8.8-0.2l-6.5,2.8l0.2,1l12.6-1.4
	c0-0.5-0.1-1.1-0.1-1.6l-6.4-0.6c-0.5-3.8-3.1-4.7-6.5-4.5C375.1,294.2,372.7,294.2,370.3,294.3L370.3,294.3z M171,174.6
	c0.1-0.7,0.3-1.5,0.5-2.2l-14.2-0.9l-0.1,1.2l14,1.9l-9.2,1.1c2.5,1.7,4.7,3.3,7,4.7c2.6,1.7,5.3,3.2,8.1,4.4c2.4,1,5.2,1.3,7.8,1.9
	l0.4-1.9l-9.5-2.4l4.1-2.3l-0.3-1.1h-8.8l0.1-0.6l4.5-1.1c0-0.4-0.1-0.8-0.1-1.1L171,174.6z M262.1,246.6l-19.6-3.1
	c2.8,6.6,22.4,12.7,28.7,8.3c-8.5,0.4-16.5-1.1-23.8-5.5c7.1,0.4,14,4.4,21.2,1.9l0.1-1.6l-6.9-0.1l3.6-2.6l-23.7-3.8
	c1.5,0.9,3,1.5,4.7,2C251.7,243.6,256.9,245.1,262.1,246.6L262.1,246.6z M373,305.1l-0.2-1.2l-4.9-0.2l2.4-2.6
	c-0.1-0.4-0.2-0.8-0.3-1.3l-15.4,1.3l-0.1-1.4l8.6-1.5c0-0.5-0.1-1-0.1-1.6l-11.3-1c0.1,0.3-0.2-0.7-0.5-1.7l-5.6-0.1
	c1.2-7.7,8.7-3.9,12.1-7l-0.6-1.7l-14.3,4c-5.6,1.2-0.1-3.5-2.4-5.5c-1.2,1.8-2.1,3.6-3.5,4.8c-1.1,0.9-3,0.7-4.5,1
	c0-1.4-0.4-2.8,0-4.1c0.8-2,1.7-4,2.7-5.9l-6,1.6l1.8-4.2c-0.2-0.6-0.3-1.1-0.5-1.7l-8.7,1.9c1.5-3.6,2.6-6.4,3.8-9.1l-1.3-0.4
	l-6.4,6l-1.8-2c1.6-1.4,3.1-2.7,4.6-3.9c-0.7-2-1.4-4.1-2.3-6.6l-4.4,0.8l-5.9-9.2h8.1c-6.4-6.9-10.7,2.4-16.9,0.4l4.9-3.7l-7.9-9.6
	l-5.7,0.6c0.3-1.8,0.5-3.2,0.7-4.7l-4.3,0.9l-0.5-1.3l5.4-2.3l0.2-1.2l-7.7-1.9c0.2-0.5,0.6-1.9,1.5-4.6l-11.6,0.7
	c0.7-1.2,1.1-2.6,1.9-2.9c3.6-1.4,2.1-4.4,2-6.6c0-0.6-3.4-1.3-5.2-1.5c-4.5-0.5-9.1-0.8-13.6-1.1c-1-0.1-1.9-0.3-2.8-0.4l-0.3,1.6
	l19.5,3.5c-3.5,3.4-6.8,1.7-9.7,1s-6-1.9-9-2.8l-0.4,1.4c4.5,1.3,9,2.6,13.5,4c1,0.3,1.8,1.5,2.7,2.2c-1.2,0.4-2.5,1.2-3.7,1.1
	c-3-0.4-5.8-1.4-8.7-2.1l-0.3,1.2l10.2,3.3c-0.2,3.8-0.4,6.7-0.5,9.7l1.5-0.8c4.9,6.7,9.8,13.3,14.7,19.9l-1.1,1.1
	c2.6,0.2,5.3,0.5,7.9,1c1.2,0.3,2.2,1.5,3.3,2.3l-2,2c1,2.6,1.9,5.1,2.8,7.3c1.6-1.8,8.7-2.6,10.7-0.7c0.6,0.7,0.9,1.7,0.7,2.7
	c-0.4,1-1.1,1.8-2.1,2.3c-1.6,0.5-3.3,0.6-6,0.9c5.2,3,11.6-2.6,14.2,3.9l3.9-4.2c0.6,4,0.2,7.2,0,10.5c-0.1,1.1,0,2.6,0.7,3.1
	c2.2,1.9,4.5,3.5,7,4.9c1.9,0.9,3.9,1.6,6,1.9c5,0.9,3.4,5.3,4.4,8.7l2.2-2.9l6.9,1.5l-3,4.1l2.6,3.9l2.7-3.5
	c0.3,2.5,0.5,4.1,0.7,6.1l9,0.2c1.1,5.5,5,6.6,12,2.3l-9.1,0.1l-0.7-1.5c1.7-0.8,3.3-2,5-2.2c6.9-1,13.7-1.7,20.6-2.5
	c0.2,0,0.4,0.4,1.1,1.3l-14.5,8.3l0.5,0.8l11.2-4.6c-0.7,2.4-1.1,4.1-1.6,5.8c-0.5,1.5-1.1,2.9-2.1,5.3l6.7-2.9l-2.1,5.7l6.3-0.6
	l0.2,1.2l-4.3,2.2c2.9,0.8,7.1,1,7.5,2.4c1.1,4,3.3,2.9,6,2.9c2.4,0,7,1.3,7,1.9c-0.1,3.5,2.1,3.4,4.3,3.9c0.8,0.2,1.4,1.3,1.8,1.8
	l7.1-4.5c-0.7,3.7-1.1,5.8-1.6,8.5c5.3-5,6.8-4.7,8.8,1.6l3-6.5l-6.4-1.5l2.2-3.3l-4.8-1.5l2.5-7l-16.3,3.8c0.5-6.1,7.3-2.4,9.3-6.9
	l-10.7-1.8c0.6-1.3,1.3-2.8,2-4.3c-5.9-4.3-7.8,5.1-14.1,2.7c2.1-2.3,3.4-4.6,5.5-5.8c3.5-2,2.5-3.4,0.6-5.2l-7.9,6l-1.2-1.1l6.2-10
	c-7.6,2.4-5.9,12-13.5,14.2c0.4-1.8,0.2-3,0.8-3.6c3.1-4,6.4-7.8,9.4-11.9c2-2.6,3.5-2.5,5.5-0.1s3.9,5.2,6.3,7.1
	c1.9,1.5,4.6,3.1,7.2,0.3c-1.7-1-3.3-1.5-4.3-2.5c-2.5-2.6-4.4-6.1-7.3-8c-1.9-1.2-5.2-0.4-7.8-0.1s-4.9,1.4-7.3,1.8
	c-4,0.7-8,1.1-12,1.6c0.1,0.4,0.1,0.8,0.2,1.2c1.3-0.1,2.6-0.2,3.9-0.3s2.6-0.1,3.9-0.1c0,0.8,0,1.5-0.1,2.2l-20.1-0.1l-0.4-1.7
	L373,305.1z M372,349.1c2.2-0.5,3.8-0.9,5.4-1.3c1.3-0.4,2.5-0.8,3.8-1.2c-0.3,1.4-0.6,2.7-0.9,3.9c1.4,0.2,3.6-0.2,4.3,0.7
	c4,5.1,9.3,6.7,16,6.5l-3.6,3.2c2.1,0,4.9-0.8,5.4,0c2.6,4.2,5.7,2,8.8,1.4c1.8-0.3,3.5-0.4,5.3-0.5c0,0.3,0.1,0.6,0.1,1l-7.1,3.1
	c4.1,0,7.4-0.9,9.1,0.3c3,2.1,5.4,5,9.5,4.8c2.5-0.1,4.9,0.1,7.8,0.2l-2.8,3.4c2.1-0.2,3.7-1.1,5.5-1.5c1.9-0.4,3.9-0.7,5.8-0.8
	c-1,1.6-2.1,3.2-3.1,4.8c-0.1,0.2,0,0.6,0,1.4l11.1-5l-8.3-11.7l-0.9,0.7l1.7,5l-1,0.7l-8.6-7c0.9,2.3,1.4,3.6,1.9,4.9l-1,0.8
	c-4.1-4.3-8.3-8.5-12.4-12.8l-0.7,0.6l3.1,4.8l-1.3,0.9l-9-12.1l-1.1,0.8l6,9.1c-7.8,2.2-4.2-7.2-8.9-7l-8,0.8l-0.1-1.6l4.1-2.7
	l-0.5-1.2l-6.1,1.7l1.5-2.5l-9.4-4.4l-3.9,1.2l0.9-4.4l-4.5-0.9l-3.5,3.8l-1.1-0.8c0.4-1.4,0.8-2.8,1.5-5.2c-3.1,2-5.4,3.5-7.7,4.8
	c-0.8,0.4-1.6,0.5-2.5,0.4c-0.3,0-0.7-1.5-0.6-1.5c1-0.6,2-1.1,3-1.6l-4.7-4.2l-0.6,0.1c0.6,1,1.2,2.1,1.9,3.1l-2.8,0.4
	c-0.5-1.7-1-3.5-1.2-4.2l-6.1-5.5l-7.9,2.7l2.6-4.4l-6.2-0.5l-0.5,2.8l-8.9-12.3l-5.9,3c-0.4-0.6-0.8-1.4-1-2.1
	c-0.8-6.3-1.1-6.5-6.8-3.9c-1.8,0.6-3.6,1.2-5.4,1.5l-0.2-1.2l7.3-3c-3.6-2.8-8.3,4.4-10.8-2.3l5.7-2.4l-0.4-1.1l-13.4,2l-0.3-2
	l8-2.6l-0.4-1.9l-15.6,0.4l4.8-2.4l-0.2-1.2l-11.4,1.7l-0.2-1.3L308,294l-0.3-1.8l-26.2,4v1l10.1-0.2l0.1,1.3l-9.6,1.5
	c0,0.3,0.1,0.6,0.1,0.8l11-0.3l0.1,1.2l-5.2,2.6l15.1,1.3c0,0.4,0,0.8,0,1.2l-3.8,1.9c4,1.9,9.3-3.2,12.3,3.6l-8.1,1.7l0.1,0.9
	l10-0.3l0.2,1.5l-8.6,2.2l0.1,0.8l15.5-1.8l0.4,2l-9.6,4.5c3.5-0.2,6.6-1.5,9.7-2.4c1.5-0.4,3.2,0,4.8,0c-1,1.4-2.1,2.6-3.3,3.8
	c-1.1,0.7-2.2,1.3-3.4,1.7l0.4,0.7l8.3-2.1c0.1,0.4,0.2,0.8,0.3,1.2l-7.3,3.2c3.8,1.6,9.5-5.7,10.1,3.5l12.4-4.5l0.6,1.4l-5.4,3.7
	c2.1,0.1,3.7-0.7,5.4-1.3s3.5-0.9,5.3-1.4c0.1,0.4,0.3,0.8,0.4,1.2l-4.4,3.1l0.4,0.8l6.4-1.9c-0.2,2.6-0.3,4.5-0.5,6.6
	c1.4-0.8,2.8-1.5,4.3-2c1.2-0.3,3.5,0.1,3.7,0.7c1.4,4.1,3.9,4.9,8.4,2.4c-0.8,2.2-1.2,3.4-1.6,4.7l7-2.3l0.6,1.1L372,349.1z
	 M443.7,400.8l1-0.7l4.6,4.2l1.3-0.7c-1.5-3.2-3.1-6.4-4.6-9.7l1.7-0.9l4.3,7.3l1.6-0.5c-1-5.3-2-10.6-2.6-13.6l-37-17.8l-0.6,1.2
	c4,2,8,3.8,12,5.9s8.8,3.1,8.5,9.4l-5-4.6c-6,2.8-6.1-3.7-8.9-5.8l-0.9,2.1l-16.4-8.4c4.3,6.3,9.2,12.5,13,19.3s11.5,9.6,14.4,16.8
	c0.4-0.1,0.8-0.2,1.2-0.3c-0.4-1.6-0.8-3.2-1.1-4.8l1.3-0.6l5.9,10.4l0.8-0.3l-0.4-4.9l0.7-0.2l2.7,5.6l1.5-3.2l2.9,2.6l0.9-0.5
	L443.7,400.8z M410.3,401.1l-24.4-9l-0.3,0.7l3.6,2.3c1,4.3,1.7,7.7,2.5,11.2l-1.4,0.2l7.9,7.2l-4.3,0.1c2.4,3.1,8.7,2.7,6.6,9.1
	c4.3,2,8.8,4.6,13.7,6.1c5.4,1.6,10.9,2.7,16.5,3.1c1.5,0.1,4.8-2.8,4.6-3.4c-1.7-4.4-3.6-8.8-5.9-12.9c-1.2-2.1-2.6-4.1-4.1-5.9
	c-3.1-1.5-8.7,0.8-9.6-6.7l6.8-1.2l-0.2-1.4c-2.5,0-5.3,0.8-7.4,0s-3.5-3.3-5.5-5.3C409.5,396.9,409.8,398.2,410.3,401.1
	L410.3,401.1z M329.5,358.8l0.1,1.1l5.6,4.3l-29,13.3c2,0.2,4-0.1,5.8-0.9c6.4-2.7,12.8-5.7,19.3-8.2c1.5-0.6,4-0.3,5.1,0.6
	c1.2,1.1,1.4,3.5,2.3,6.2l6,6.8l-1.2,1.3l-5-3.5c4.3,7.3,8.1,14.1,12.3,20.7c1.2,2,2.8,3.7,4.7,4.9c2.9,1.7,6.3,2.6,9.3,3.8
	c0.2-2.1,0.4-4.6,0.6-7.2l-2.5-0.7c0.9-1.7,1.6-3.3,2.5-5l-7.3-1.8l0.1-1l5.2-1.7l-6.9-1.7l5.1-1.3l-7.6-2.9l0.5-1.1l5-1.1l-0.2-1
	l-6.9-1.3c0-0.3,0-0.6,0-0.9l5.2-1c-1.1-3.8-10,1.2-6-7.1l-11.1-2.4l0.2-1.1l8.5,0.6c-4.4-4.4-12,0.2-13-9.3l6.4,1.9
	c0-0.6,0-1.3,0-2L329.5,358.8z M375.7,387.3l-14.2-8.4c3.8,15.3,10.5,27.7,18.9,39.7c-0.4-1-0.9-2.1-1.4-3.4l5.8,0.6
	c-0.3-1.5-0.5-2.7-0.8-4.2l5.9,5.3c-3.9-12.9-7.5-25.5-15.8-35.8l-1.2,0.6L375.7,387.3z M216.5,256.3c-3.1-3.5-5.4-7.3-8.8-9.7
	s-7.6-3.1-11.5-4.6l-0.2,1.3l7.9,7.2c3,4.5,6.3,8.6,12.2,9.7c-1.4,3.6,2.8,5.8,9.8,5.4l-13.4-10.2L216.5,256.3z M166.5,200.7
	c-0.4,0.5-0.9,1.1-1.3,1.6c2.2,2,4.5,3.9,6.6,6.1c1.4,1.3,2.5,2.9,3.2,4.7c2.4,7.7,10.9,15,18.3,16c-2-2.3-3.9-6-6.8-7.5
	c-6-2.9-6.8-9.2-10.3-13.6C173.6,204.7,170.3,202.2,166.5,200.7L166.5,200.7z M303.4,290.7l-0.2-3.4h-11.1H270l-0.2,0.3l10.7,2.2
	v1.5l-6.6-0.9l0.2,2.2L303.4,290.7z M243.9,194.4c4.9,7.8,12.4,9.5,20.2,10.5c-1.2-1.5-2.9-2-4.5-2.7c-2.5-1-5.3-0.7-6.5-4.8
	c-0.9-3.2-4.6-5.6-7.5-8.8c0.5-3.2-0.8-4.4-6.8-3.9l4.2,3.3l-1.7,2.3l4.9,2.9L243.9,194.4z M222.4,271.5l0.8-1.6l10,3.6
	c0.2-0.5,0.3-1.1,0.5-1.6l-20.9-6.8l-0.4,0.8l7.1,5.2l-0.5,0.8l-5.9-1.6l-0.4,1.1l24,10.2l0.6-1.1L222.4,271.5z M271.8,303.6
	l-0.6,0.4l3.7,6.4l-0.8,0.6l-6.9-7.5c5.8,12.9,17.5,18.8,30,15.1c-5.5-1.3-10.9-1.4-14.9-3.8C278,312.2,275.2,307.4,271.8,303.6z
	 M244.3,249.8c-0.2,0.4-0.4,0.8-0.6,1.1l24.9,10.1c-0.1,0.3-0.2,0.7-0.3,1l-20.7-7.1c8.7,4.9,17.5,9.5,28.2,7.5
	c-1.1-1.8-2.8-3.2-4.8-4c-3-0.9-6.2-1-9.1-2C255.9,254.5,250.1,252.1,244.3,249.8L244.3,249.8z M319.6,347l-0.8-1.3l-26,13.5
	c9.1-0.9,17.7-2.9,25.6-7.1l-0.4-1.4l-4.3,0.7l-0.2-0.6L319.6,347z M230.8,225c11.7,7.4,22.2,9.9,28.9,6.3l-18.8-1.7l0.1-1.1
	l13.1-0.8l-0.1-1.3L230.8,225z M257.3,265.5c6.2,8.2,25,13.4,29,9.3l-18-2.4l0.2-1.1l13.2-0.2c0-0.5,0-1,0-1.6
	c-3.8,0-7.7,0.4-11.5-0.2C266.3,268.7,262.4,267,257.3,265.5L257.3,265.5z M222.8,208.4l-0.3,1.2c7.3,3.2,14.7,6.4,22.9,6.6
	c0.2-0.5,0.4-1.1,0.6-1.6l-27.7-12l-0.6,1.2l16.5,7.8l-0.5,1.1L222.8,208.4z M232.1,316.1c0.1,0.3,0.1,0.6,0.2,1
	c6.6-1,13.3-2,19.9-3.2c0.7-0.1,1.4-1.6,1.5-2.5c0-0.5-1.3-1.7-2-1.6c-8.3,0.7-16.6,1.6-24.9,2.5c2.3,0.7,4.7,1,7.1,0.9
	c2.6,0,5.1-0.3,7.7-0.5c0,0.4,0.1,0.7,0.1,1L232.1,316.1z M152.8,214c-1.5-3-4.3-3.5-5.7-6.6c-1-2.1-5.9-2.3-9-3.3
	c-2.8-0.9-5.6-1.7-8.4-2.5l-0.3,1.2l16,6.3c-0.1,0.3-0.2,0.7-0.4,1l-15-2.3L130,209L152.8,214z M222.5,305.4v0.6l15.4,0.2v3.2
	l-13.8-1.4c0,0.6,0.1,1.1,0.1,1.7c6.8-0.2,13.6-0.3,20.3-0.8c1-0.1,1.8-2.5,3.3-4.7L222.5,305.4z M218.1,298.1c0,0.4,0,0.9,0,1.3
	c8.3-0.4,16.6,1.4,24.8-1.3l0.1-1.9l-26-3.1l-0.2,1.5l17.2,2.1v1.2L218.1,298.1z M256.1,303.7l1.2-1.3c-4.4-4.6-5.9-11.6-12.9-14
	c-1.2-0.4-2.3-1.3-3.5-1.7c-0.2-0.1-1.5,1.8-1.2,2.2c0.7,1.5,1.7,2.9,2.9,4c0.8,0.8,2.4,0.8,3.3,1.5
	C249.4,297.5,252.7,300.6,256.1,303.7L256.1,303.7z M368,357.8c1.2,5.5,2.9,9.2,7.8,10.7c2.2,0.6,4.2,1.5,6,2.9
	c2.2,1.9,3.9,4.4,5.8,6.7l1.3-1.2C383.7,369.1,376.9,363.2,368,357.8z M210.7,276.5l14.8,5.8l-0.3,0.9l-12.7-1.8l-0.1,1.1l21.4,4.5
	C227.1,278.4,218.7,278.1,210.7,276.5z M358.1,421.2c7.2,4.2,10,4.4,18,1.2c-1.6-1.5-2.9-3.6-4-3.5
	C367.5,419.2,363,420.3,358.1,421.2L358.1,421.2z M221.1,186.7l-0.4,1l11.7,4.5l-0.4,1l-10.8-3l-0.4,1.2l20.2,6.4
	c0.3-0.6,0.6-1.2,0.9-1.8c-3.5-1.1-6.6-3-9.1-5.7C230.4,187.7,225.1,187.8,221.1,186.7L221.1,186.7z M294.8,364
	c10.6-2.1,20.9-5.6,30.7-10.4l-0.6-1.6L294.8,364z M156.9,182.6c3.4,14.9,7.7,14.1,16.3,18c-4.1-3.4-6.9-6.6-10.3-8.4
	C158.8,190.1,164,183,156.9,182.6z M332,384.1l-14.7,5.6l0.3,0.9l6.2-1.2c0.1,0.2,0.1,0.5,0.2,0.7l-6,3l0.6,1.2
	c3.8-1.5,7.6-3.1,11.5-4.3C333.5,389,333.7,387.1,332,384.1z M185.6,230.6l-1,1.9l19.8,10.7l0.9-1.6
	C197.9,239.3,194.2,230.8,185.6,230.6z M281,356.7l0.4,1.1l28.4-10.8c-0.2-0.6-0.5-1.3-0.7-2L281,356.7z M301.5,369.4
	c9.6-1.9,24.9-10,26.8-14.4L301.5,369.4z M412.6,393.1l1.6-1.3c-6.5-8.4-13-16.9-19.4-25.3l-1,0.7L412.6,393.1z M266,348
	c0.1,0.5,0.3,1,0.4,1.4l27.6-9.7l-0.6-1.6C283.8,339.9,275.5,345.6,266,348z M405.7,390.1l1.6-1.2l-19.7-25.2l-0.9,0.7L405.7,390.1z
	 M282.3,330.5l-0.5-2.2l-24.5,7.2c0.1,0.4,0.2,0.8,0.3,1.2L282.3,330.5z M277.4,353.6c0.1,0.5,0.2,0.9,0.4,1.4l24.8-10.5l-0.8-1.9
	L277.4,353.6z M308.8,334.7c2.7,0.9,4.2,1.3,5.6,1.9s3.3,0.8,4.4,1.9c3.5,3.3,7.6,4,12.6,1.3l-10.2-0.6
	C320.8,335.1,317.3,333.8,308.8,334.7z M96.1,114.4c-5.2,5.4-5,8.4,1.2,17.3C96.9,126.3,96.5,120.8,96.1,114.4z M141.9,225.2
	l-0.2,1.3l24.4,2.8l0.2-2.2L141.9,225.2z M264.3,275.6c11.4,4.6,23.6,5.5,26.2,2.9L264.3,275.6z M260.5,238.9
	c0.1-0.7,0.2-1.4,0.3-2.1l-23.8-4.4c-0.1,0.5-0.2,0.9-0.3,1.4L260.5,238.9z M270,281.7c9.1,2.6,17.2,3.4,25.4-0.1L270,281.7z
	 M207.3,228l1.1-1.4c-1.2-6.1-4.4-8.1-11.2-6.2L207.3,228z M231.2,172.9c3.1,7.5,7.4,10.1,13.2,8.7L231.2,172.9z M224.4,233.6
	c-5.8-5.4-14.3-7-21.7-3.9C209.9,231.1,217.8,228.6,224.4,233.6L224.4,233.6z M276.4,349.9c8.5-0.6,18.9-5.8,19.9-9.5L276.4,349.9z
	 M382,361.9l-0.8,0.8l16.6,21.8l1.6-1.3L382,361.9z M327.6,364.6l-1-2l-21.3,9.8c0.2,0.4,0.3,0.8,0.5,1.2L327.6,364.6z M220.4,198.6
	l-0.4,1.2l23.2,7.9l0.6-2L220.4,198.6z M257.1,296c2.4,8.4,7.6,15.9,11.9,17L257.1,296z M136.2,218.2c0,0.5-0.1,0.9-0.1,1.4
	l23.6,3.7l0.3-2L136.2,218.2z M149.8,164.8l-0.2,1.3l21.8,4.3l0.4-2.1L149.8,164.8z M284.9,334.9c-0.2-0.7-0.4-1.3-0.6-2l-22.2,7.3
	l0.4,1.3L284.9,334.9z M242.3,322.7l0.1,1.6l20.6-3.5c-0.1-0.7-0.2-1.3-0.4-2L242.3,322.7z M289.1,336.6c-0.2-0.6-0.5-1.2-0.8-1.8
	l-21.1,9.3l0.6,1.3L289.1,336.6z M246.7,222l-20.3-3C232.9,222.4,239.6,224.2,246.7,222z M328.9,375.2l-0.7-2l-19,7.5l0.5,1.4
	L328.9,375.2z M306.2,331.6c-1.9-0.8-3.9-1.2-5-2.4c-2.8-2.8-2.7-3-6.6-0.6C303.2,333.5,303.2,333.5,306.2,331.6L306.2,331.6z
	 M237.2,292.5c0.1-0.7,0.2-1.3,0.3-2l-21.7-2.6l-0.2,1.1L237.2,292.5z M251.5,208.7v1.3l19.6,2.6c0.1-0.7,0.1-1.5,0.2-2.2
	L251.5,208.7z M222.5,248.4c-0.5-6.9-4.9-9.8-10.2-7.4L222.5,248.4z M238.1,319.1c0.1,0.4,0.1,0.8,0.2,1.2c6.9-1.1,13.9-1,20.6-3
	l-0.3-1.8L238.1,319.1z M320.9,398c8.5-0.4,15.4-3.3,17.1-6.9L320.9,398z M238,202l0.7-2l-19.4-6l-0.4,1.1L238,202z M221.1,302.3
	v0.4l21.2-0.4v-1.5L221.1,302.3z M208.2,149.3c7.6,5.8,14.6,7.9,17.4,5.9L208.2,149.3z M229.3,161.5l-17.8-5.3
	C217.6,161,225.1,163.3,229.3,161.5z M161,164.6l0.7-2.3l-14.5-3.3c-0.1,0.5-0.2,1-0.4,1.5L161,164.6z M212.7,209.1l0.7-1.5
	l-14.4-6.1C203.2,204.9,207.2,208.7,212.7,209.1L212.7,209.1z M454.2,374.5l1.9-0.8l-8-14.3l-1.1,0.6L454.2,374.5z M219.4,170.1
	l-10-7.1l-1,1.5C212.3,165.8,212.5,173.3,219.4,170.1z M348,348l-0.4-2.3l-14.6,3.2c0.1,0.4,0.1,0.8,0.2,1.2L348,348z M239.8,256.5
	c-3.9,3-5.1,8.4-2.8,12.8C237.9,265.2,238.8,261,239.8,256.5z M354,350.4c-0.1-0.7-0.3-1.3-0.4-2l-13.8,3.3c0.1,0.5,0.2,1,0.3,1.4
	L354,350.4z M231.5,185.3l0.5-1.9l-13.5-3.2l-0.3,1.4L231.5,185.3z M225.9,167.8l-0.4,1.3c3.1,2,6.2,3.6,9.8,2.4
	c0.1-0.6,0.2-1.1,0.3-1.6L225.9,167.8z M340.1,397.8l-0.7-2.1l-12,3.9c0.1,0.5,0.3,0.9,0.4,1.4L340.1,397.8z M359.9,353.7l-0.6-2.2
	l-11.1,3.6c0.1,0.5,0.3,1,0.4,1.5L359.9,353.7z M243.3,268.5l-1.9-0.1c-0.2,3.9-0.4,7.8-0.6,11.7l1.4,0.1
	C242.5,276.3,242.9,272.4,243.3,268.5z M190.8,199.5c0.1-0.7,0.2-1.5,0.4-2.2l-11.4-1.5l-0.3,1.5L190.8,199.5z M381.8,426.6
	l-0.3-2.1l-10.5,2.3l0.3,1.4L381.8,426.6z M232.1,263.9l1.6,0.2c0.6-3.6,1.2-7.1,1.9-10.7l-1.8-0.3
	C233.3,256.7,232.7,260.3,232.1,263.9z M325.1,343v1.5l10.8,1c0-0.7,0.1-1.4,0.2-2.1L325.1,343z M299.3,325.2c0-0.5-0.1-1-0.1-1.5
	l-9-0.1v1.5L299.3,325.2z"/>
<path class="st1" d="M263.4,382.9l1.6,4.8l-5.6,0.5c2.1,3.3,4.6,3.4,7.9,2.6c7.1-1.7,14.3-0.9,21.3,0.9l-0.1,1.5l-15.6-2l-0.2,0.7
	l3.2,1.6l-3,1.1c4.8,2,11.4-2.4,13.7,5.6l-7.8-0.3l-0.1,1.5c2.6,0.2,5.4,1,7.9,0.6c5.4-0.8,6.6-0.6,9.5,3.6l-3.7,0.9l-0.3,1l11.5,2
	l0.2,0.8l-6.6,2.4c9.1,5.7,19.3,1.5,28.2,5.9l-9.5,2.4v1.3l15.7,1.4c0,0.6-0.1,1.1-0.1,1.7l-14.7-0.7l-0.1,0.7l9.8,2l-0.3,1.7
	l-26.4-4.9l0-1.4l4.7-1.4v-0.6l-12.7-1.1l2.9-3.2l-12.7-1l-0.1-1.3l5.8-1.4l0-0.9c-2.9,0.2-5.8,0.2-8.7,0c-2.9-0.3-5.6-1.3-8.9-1
	l6.2,3.8l-0.9,1.6c-3.2-1.7-6.4-3.4-9.5-5.2c-24-13.9-46.8-29.4-66.7-48.9c-3.3-3.3-5-8.2-8.3-13.6c0,3.1,0,5.1,0.1,7.5
	c-4.9-3.9-10.1-7.6-14.9-11.8c-12.2-10.3-22.5-22.1-30.2-36.3c-2.9-5.4-7.2-10-10.5-15.1c-6.7-10.3-13.4-20.5-19.7-31.1
	c-2.5-4.1,1.4-5.7,3.5-7.8l1.1,0.7l-3.9,5.6l5.6-1.9c0.2,0.3,0.5,0.6,0.7,0.9l-3.3,5l0.5,0.6l3.1-2.1c-1.1,5,0.8,7.5,7.5,9.9
	l-2.2,5.1l10.1,5.3l-0.3,1.7l-6.3-0.6l-0.3,0.7l11.1,4.5l-5.4,0.8l9,3.5l-1.8,1c1,3.4,1.5,6.8,3.1,9.6c1.2,2.2,3.7,3.6,4.8,4.6
	l13.9,18.4c3.4-1.1,3.9,8.2,10.2,4.6c0.5,1.8,0.9,3.4,1.7,6.1l1.5-4.5h1c-0.3,2.3-0.6,4.6-0.8,6.9l1.9,0.4c1.3-3.9,0.5-10,8.8-6.5
	l-0.9-2.3l-7.5-4.5l-7.9-10.2l-0.4,0.3c-1.3-1.6-2.4-3.2-3.4-5c-0.4-1-0.3-2.2,0.2-3.1c1.2-1.2,2.9-2.6,4.3-2.5
	c5.3,0.2,10.6,1,16.2,1.5c-0.8,4.5,2.1,5.4,5.5,6c2.9,0.4,5.7,1.4,8.2,2.8l-14.1-0.8l-0.2,0.7l14.7,3.4c-0.1,0.5-0.2,1.1-0.4,1.7
	c-3-0.9-6.1-1.5-9.2-2c-2.9-0.3-5.8,0.2-8.7,0.3c0,0.6,0,1.1,0,1.7l6.6,2.8l-3.7,2.1l10.8,4.8l-7.2,2.4c6.1,1.9,12.8-4.2,16.4,4
	l-17.3,2.9c0,0.3,0.1,0.5,0.1,0.8l18,0.7l0.1,2.2l-10.1,1.4l12.7,2.4c0.1,0.3,0.1,0.7,0.2,1l-4.4,1.8c14.6-3.5,26.9,6.7,40.9,6.6
	c-11.1,1.2-21.6-2.7-32.8-3.5c1.7,0.5,3.3,1.1,5,1.6c1.9,0.5,3.9,0.7,5.8,1.4c1.2,0.6,2.4,1.4,3.4,2.3l-2,2.6l16.5,3.4
	c-0.1,0.9-0.1,1.8-0.2,2.7l-12.3-0.7c4.6,1.7,7.7,2.7,10.7,4.1c1.5,0.9,2.8,1.9,4.1,3l-4.1,2.4l13.3,4.6l-5.2,1.9l0.2,0.8l11.4-1.5
	L263.4,382.9z M225.2,375.3l-3.3,0.9c6.4,3.7,12.6,7.1,21.1,5.7l-18-6.6l3.5-1.2l-8.7-2.8l0.2-1.7l10,1.1l-0.3-1.1l-16.3-5.5
	l0.3-1.3l3.9,0.5v-0.8L201,357l-0.4,1.2l15.7,9.5l-6-0.8c2.4,2.1,4.2,4.5,6.6,5.8S222.4,374.5,225.2,375.3L225.2,375.3z
	 M251.9,398.9c8.4,8.2,20.3,11.8,27.6,8.8l-17.4-3c0.1-0.6,0.1-1.2,0.2-1.7l9.9,0.1l-0.2-0.4L251.9,398.9z M254.5,394.3
	c-3.5-1.4-8.2-1.8-10.2-4.3c-3.6-4.6-7.8-3-12-3.4c1.7,0.9,3.4,1.6,5.3,2.1c1.2,0.4,2.9,0.5,3.4,1.3
	C244.3,395.6,249.8,394.2,254.5,394.3L254.5,394.3z"/>
<path class="st1" d="M88.4,189.9l4.6-0.4l-2.1,7.9l8.8,3.4l-2.3,4.9c5,2.4,0.7,4.9-0.1,7.4h8.4c-0.5,1.9-0.9,3.1-1.5,5.2
	c0.8-0.7,1.6-1.3,2.5-1.9c0.9-0.4,1.9-0.7,2.9-1c-0.2,1.1,0,2.5-0.6,3.4c-1.8,2.8-3.8,5.5-4.8,8.8l5.8-4.6l1.5,1.3l-4.1,7.5h5.9
	c-2.3,3.9-4.2,7.2-6.2,10.6l6.2,1.6l-2.5,5.1l5.1-4.4l0.9,0.6l-3.3,5.3l5.9-1.3l-6.1,7.9C100,236.8,90.2,215.3,88.4,189.9z"/>
<path class="st1" d="M395.4,453.6c-0.6-0.2-1.2-0.5-1.8-0.7c-16-5.7-32.3-3.1-48.4-1.3c-5.9,0.7-11-0.2-16-3.6
	c-9-6.2-18.5-11.7-27.7-17.5c-0.5-0.4-0.9-0.8-1.4-1.2l0.6-1.3c3.6,1.6,7.4,2.9,10.8,4.8c6.9,4,13.6,8.4,20.5,12.4
	c2,1.2,4.3,1.8,6.6,1.9c8.8,0.1,17.6,0.2,26.4-0.4c10.7-0.8,20.4,2.8,30.4,5.4L395.4,453.6z"/>
<path class="st1" d="M68.2,144.3l10.6,2.8c-1.4,3.8-6.1,8.2,1.6,10.9c-4,4.5,0.5,7.7,1.7,11.7l3.3-2.6c0.4,1.1,1,2,0.8,2.4
	c-1.8,3.6-4.4,6.8,0.6,10.5c1.6,1.1,1.1,5.1,1,7.9C79.1,174.8,73.7,160.4,68.2,144.3z"/>
<path class="st1" d="M198.7,123.5l10.1,2.5c0.2-0.6,0.3-1.2,0.5-1.8l-9.9-2.8l0.1-1l4.2,1l0.2-2.3l-8.2-3.6c0-0.5-0.1-1.1-0.1-1.6
	c1.6-0.2,3.9-1.2,4.7-0.5c7.4,6.5,13.8,13.9,16.7,24.8c-5.6-2.1-11.2-4.1-16.7-6.4c-0.5-0.2-0.4-1.6-0.6-2.5c1-0.1,2.2-0.6,3-0.3
	c3.1,1.3,6.2,2.8,9.2,4.2l0.9-1.7l-14.6-7L198.7,123.5z"/>
<path class="st1" d="M153.2,292.1c1.4-0.2,3-0.8,4.3-0.4c4.4,1.2,8.7,2.6,12.9,4.1c1.1,0.4,2,1.5,3,2.3c-1.2,0.5-2.5,0.8-3.8,1
	c-1.2,0.1-2.4-0.2-5.1-0.6c9.6,4,9.6,4.3,2.1,10l1.3-5.7l-6.4-0.3c1.3-6.4-1.7-9.5-7.9-8.7C153.5,293.3,153.4,292.7,153.2,292.1z"/>
<path class="st1" d="M303.2,411.8l18.4-1c0,0.9,0.1,1.8,0.2,2.7l-18.3,1.1L303.2,411.8z"/>
<path class="st1" d="M194.6,271.5c-0.8,4.6-1.6,9.2-2.6,14.3c-3.5-2.7-2.7-9.9,0.9-14.5L194.6,271.5z"/>
<path class="st1" d="M209.9,330.6c-5.6,2.7-9.9-1.5-14.8-2.7l0.4-2.2l14.6,3.2L209.9,330.6z"/>
<path class="st1" d="M262.9,373.3l-17.5-2.5c0.1-0.8,0.2-1.5,0.3-2.3l17.5,2.8C263.1,371.9,263,372.6,262.9,373.3z"/>
<path class="st1" d="M130.6,277.2c1.7-5.7,5.1-3.9,8.4-2.5C138,280.7,136.7,281.1,130.6,277.2z"/>
<path class="st1" d="M263.8,381.2l-12.4-2.6l0.4-2.1l12.6,2.3L263.8,381.2z"/>
<path class="st1" d="M210.4,339.9l12.4,0.2l-0.1,2.7l-12.4-0.4L210.4,339.9z"/>
<path class="st1" d="M186.1,280.7c-0.2-2-0.8-4.1-0.4-6.1c0.3-1.5,1.9-2.8,2.8-4.2c0.3,1.6,0.5,3.3,0.5,4.9
	c-0.3,1.8-0.8,3.5-1.4,5.2L186.1,280.7z"/>
<path class="st1" d="M351.5,430c-5.8,4.2-8-0.3-11-2.3c0.2-0.5,0.3-1,0.5-1.5L351.5,430z"/>
<path class="st1" d="M178.4,97.9c-0.8,3-1.1,5-1.9,6.8c-0.2,0.5-1.9,0.2-3,0.3c0.1-2,0.4-4,0.8-5.9
	C174.4,98.5,176.1,98.4,178.4,97.9z"/>
<path class="st1" d="M120.3,237l-7,1c1.3-5.5,2.3-5.8,6.8-2.7C120.2,235.9,120.2,236.5,120.3,237z"/>
<path class="st1" d="M192.7,311.9c0.4-1.4,0.7-2.6,1-3.5l6.3,1.6c-0.1,0.4-0.3,1.6-0.6,3.4L192.7,311.9z"/>
<path class="st1" d="M182.5,264.6c-0.9,3.8,1.3,8.7-4.8,10.5c1.1-3.6,2.3-7.2,3.4-10.8L182.5,264.6z"/>
<path class="st1" d="M263.5,383l13.8,2.1l-0.3,1.5c-4.7-0.5-9.5-0.2-13.5-3.8C263.4,382.9,263.4,383,263.5,383z"/>
<path class="st0" d="M373,305.1l-11.5,3.1l0.4,1.7L382,310c0-0.8,0-1.5,0.1-2.2c-1.3,0-2.6,0-3.9,0.1s-2.6,0.2-3.9,0.3
	c-0.1-0.4-0.1-0.8-0.2-1.2c4-0.5,8-0.9,12-1.6c2.5-0.4,4.9-1.5,7.3-1.8s5.9-1.1,7.8,0.1c2.9,1.9,4.8,5.4,7.3,8
	c1,1.1,2.6,1.6,4.3,2.5c-2.6,2.9-5.4,1.2-7.2-0.3c-2.5-1.9-4.3-4.6-6.3-7.1s-3.5-2.5-5.5,0.1c-3,4-6.3,7.9-9.4,11.9
	c-0.5,0.7-0.4,1.8-0.8,3.6c7.6-2.2,5.9-11.8,13.5-14.2l-6.2,10l1.1,1.1l7.9-6c1.9,1.8,2.9,3.2-0.6,5.2c-2,1.1-3.4,3.5-5.5,5.8
	c6.4,2.5,8.3-6.9,14.1-2.7c-0.7,1.5-1.4,3-2,4.3l10.8,1.8c-2,4.6-8.8,0.8-9.3,6.9l16.3-3.8l-2.5,7l4.8,1.5l-2.2,3.3l6.4,1.5l-3,6.5
	c-2-6.3-3.5-6.6-8.8-1.6c0.5-2.7,0.9-4.8,1.6-8.5l-7,4.6c-0.5-0.5-1-1.6-1.8-1.8c-2.2-0.5-4.4-0.4-4.3-3.9c0-0.6-4.6-2-7-1.9
	c-2.7,0-4.9,1.1-6-2.9c-0.4-1.3-4.5-1.5-7.5-2.4l4.3-2.2l-0.2-1.2l-6.3,0.6l2.1-5.7l-6.7,2.9c1-2.3,1.6-3.8,2.1-5.3
	c0.6-1.7,1-3.4,1.6-5.8l-11.2,4.6l-0.5-0.8l14.5-8.3c-0.7-0.9-1-1.3-1.1-1.3c-6.9,0.8-13.8,1.5-20.6,2.5c-1.7,0.2-3.3,1.5-5,2.2
	l0.7,1.5l9.1-0.1c-7,4.4-11,3.2-12-2.3l-9-0.2c-0.2-2-0.4-3.6-0.7-6.1l-2.7,3.5l-2.7-3.9l2.9-4.1l-6.9-1.5l-2.2,2.9
	c-1-3.4,0.6-7.8-4.4-8.7c-2.1-0.3-4.1-1-6-1.9c-2.5-1.4-4.8-3.1-7-4.9c-0.6-0.6-0.7-2.1-0.7-3.1c0.2-3.3,0.6-6.5,0-10.5l-3.9,4.2
	c-2.7-6.5-9.1-0.9-14.2-3.9c2.7-0.4,4.4-0.4,6-0.9c1-0.4,1.8-1.3,2.1-2.3c0.2-1-0.1-2-0.7-2.7c-1.9-1.9-9.1-1.1-10.7,0.7
	c-0.9-2.3-1.8-4.8-2.8-7.3l2.1-1.9c-1.1-0.8-2.1-2-3.3-2.3c-2.6-0.5-5.2-0.8-7.9-1l1.1-1.1c-4.9-6.7-9.8-13.3-14.7-19.9l-1.5,0.8
	c0.2-3,0.3-5.9,0.5-9.7l-10.2-3.3l0.3-1.2c2.9,0.7,5.8,1.6,8.7,2.1c1.1,0.2,2.4-0.7,3.7-1.1c-0.9-0.8-1.6-1.9-2.7-2.2
	c-4.5-1.5-9-2.7-13.5-4l0.4-1.4c3,1,5.9,2.1,9,2.8s6.2,2.4,9.7-1l-19.5-3.5l0.3-1.6c1,0.1,1.9,0.3,2.8,0.4c4.5,0.4,9.1,0.6,13.6,1.1
	c1.9,0.2,5.2,0.9,5.2,1.5c0.1,2.2,1.6,5.3-2,6.6c-0.8,0.3-1.1,1.7-1.9,2.9l11.6-0.7c-0.9,2.6-1.4,4.1-1.5,4.6l7.7,1.9l-0.2,1.2
	l-5.4,2.3l0.5,1.3l4.3-0.9c-0.2,1.5-0.4,2.9-0.7,4.7l5.7-0.6l7.9,9.6l-4.9,3.7c6.2,2,10.5-7.3,16.9-0.4h-8.1l5.9,9.2l4.4-0.8
	c0.9,2.5,1.6,4.6,2.3,6.6c-1.4,1.2-3,2.6-4.6,3.9l1.8,2l6.4-6l1.3,0.4c-1.1,2.7-2.2,5.4-3.8,9.1l8.7-1.9c0.1,0.5,0.3,1.1,0.5,1.7
	l-1.8,4l5.9-1.5c-1,1.9-2,3.9-2.7,5.9c-0.4,1.3,0,2.7,0,4.1c1.5-0.3,3.4-0.2,4.5-1c1.4-1.1,2.2-3,3.5-4.8c2.4,2-3.2,6.8,2.4,5.5
	l14.3-4l0.6,1.7c-3.4,3.1-10.8-0.7-12.1,7l5.6,0.1c0.3,1,0.6,2,0.5,1.7l11.3,1c0,0.5,0.1,1,0.1,1.6l-8.6,1.5l0.1,1.4l15.4-1.3
	c0.1,0.4,0.2,0.8,0.3,1.3l-2.4,2.6l4.9,0.2L373,305.1z"/>
<path class="st0" d="M372,349.2l2.2-3.4l-0.6-1.1l-7.1,2.3c0.4-1.3,0.9-2.5,1.6-4.7c-4.5,2.5-7,1.7-8.4-2.4c-0.2-0.6-2.5-1-3.7-0.7
	c-1.5,0.5-3,1.2-4.3,2c0.1-2.1,0.3-4,0.5-6.6l-6.4,1.9l-0.4-0.8l4.4-3.1c-0.1-0.4-0.3-0.8-0.4-1.2c-1.8,0.4-3.6,0.8-5.3,1.4
	s-3.2,1.4-5.4,1.3l5.4-3.7l-0.6-1.4l-12.4,4.5c-0.6-9.2-6.3-2-10.1-3.5l7.3-3.2c-0.1-0.4-0.2-0.8-0.3-1.2l-8.3,2.1l-0.4-0.7
	c1.2-0.4,2.4-1,3.4-1.7c1.2-1.2,2.3-2.5,3.3-3.8c-1.6,0-3.3-0.4-4.8,0c-3.2,0.9-6.2,2.2-9.7,2.4l9.6-4.5l-0.4-2l-15.5,1.8l-0.1-0.8
	l8.6-2.2l-0.2-1.5l-10,0.3l-0.1-0.9l8.1-1.7c-2.9-6.9-8.2-1.7-12.3-3.6l3.8-1.9c0-0.4,0-0.8,0-1.2l-15.1-1.2l5.2-2.6l-0.1-1.2
	l-11,0.3c0-0.3-0.1-0.6-0.1-0.8l9.6-1.6l-0.1-1.3l-10.1,0.2v-1l26.2-4l0.3,1.8l-13.4,2.4l0.2,1.3l11.3-1.7l0.2,1.2l-4.8,2.4
	l15.6-0.4l0.4,1.9l-8,2.6l0.3,2l13.4-2l0.4,1.1l-5.6,2.4c2.5,6.7,7.2-0.5,10.8,2.3l-7.3,3l0.2,1.2c1.8-0.4,3.7-0.9,5.4-1.5
	c5.7-2.5,6-2.4,6.8,3.9c0.2,0.7,0.6,1.5,1,2.1l5.9-3l8.9,12.3l0.5-2.8l6.2,0.5l-2.6,4.4l7.9-2.7l6.1,5.5c0.2,0.7,0.7,2.4,1.2,4.2
	l2.8-0.4c-0.6-1-1.2-2.1-1.9-3.1l0.6-0.1l4.7,4.2c-1.1,0.4-2.1,1-3,1.6c-0.1,0.1,0.3,1.5,0.6,1.5c0.9,0.1,1.7-0.1,2.5-0.4
	c2.3-1.3,4.6-2.9,7.7-4.8c-0.7,2.4-1.1,3.8-1.5,5.2l1.1,0.8l3.5-3.8l4.5,0.9l-0.9,4.4l3.9-1.2l9.4,4.4l-1.5,2.5l6.1-1.7l0.5,1.2
	l-4.1,2.7l0.1,1.6l8-0.8c4.7-0.2,1.2,9.3,8.9,7l-6-9.1l1.1-0.8l9,12.1l1.3-0.9l-3.1-4.9l0.7-0.6c4.1,4.3,8.3,8.5,12.4,12.8l1-0.8
	c-0.5-1.3-1-2.6-1.9-4.9l8.6,7l1-0.7l-1.7-5l0.9-0.7l8.3,11.7l-11.1,5c0-0.8-0.1-1.2,0-1.4c1-1.6,2.1-3.2,3.1-4.8
	c-1.9,0.2-3.9,0.4-5.8,0.8c-1.7,0.5-3.3,1.4-5.5,1.5l2.8-3.4c-2.9-0.1-5.4-0.4-7.8-0.2c-4.2,0.2-6.5-2.7-9.5-4.8
	c-1.8-1.2-5-0.3-9.1-0.3l7.1-3.1c0-0.3-0.1-0.6-0.1-1c-1.8,0.1-3.5,0.2-5.3,0.5c-3.1,0.6-6.2,2.9-8.8-1.4c-0.5-0.8-3.3,0-5.4,0
	l3.6-3.2c-6.8,0.3-12-1.4-16-6.5c-0.7-0.9-2.9-0.5-4.3-0.7c0.3-1.2,0.6-2.6,0.9-3.9c-1.3,0.4-2.5,0.9-3.8,1.2
	C375.7,348.3,374.1,348.6,372,349.2z"/>
<path class="st0" d="M443.6,400.8l2.5,7.6l-0.9,0.5l-2.9-2.6l-1.5,3.2l-2.7-5.6l-0.7,0.2l0.4,4.9l-0.8,0.3l-5.9-10.4l-1.3,0.6
	c0.4,1.6,0.8,3.2,1.1,4.8c-0.4,0.1-0.8,0.2-1.2,0.3c-2.9-7.2-10.7-10.1-14.4-16.8s-8.6-13-13-19.3l16.4,8.4l0.9-2.1
	c2.8,2.1,2.9,8.5,8.9,5.8l5,4.6c0.3-6.3-4.6-7.4-8.5-9.4s-8-4-12-5.9l0.6-1.2l37,17.8c0.6,3.1,1.6,8.4,2.6,13.6l-1.6,0.5l-4.3-7.3
	l-1.7,0.9c1.5,3.2,3.1,6.4,4.6,9.7l-1.3,0.7l-4.6-4.2L443.6,400.8z M421.3,392.2l1.1-0.8c-1.3-7.8-7.7-16-13.8-17L421.3,392.2z"/>
<path class="st0" d="M410.2,401.1c-0.5-2.9-0.7-4.2-0.9-5.8c2,2,3.4,4.5,5.5,5.3s4.9,0.1,7.4,0l0.2,1.4l-6.8,1.2
	c1,7.4,6.6,5.2,9.6,6.7c1.5,1.9,2.9,3.9,4.1,5.9c2.3,4.2,4.3,8.5,5.9,12.9c0.2,0.6-3.1,3.5-4.6,3.4c-5.6-0.5-11.1-1.5-16.5-3.1
	c-4.9-1.5-9.4-4.2-13.7-6.1c2.1-6.4-4.1-6-6.6-9.1l4.3-0.1l-7.9-7.2l1.4-0.2c-0.8-3.5-1.5-6.9-2.5-11.2l-3.6-2.3l0.3-0.7
	L410.2,401.1z M410.8,422.1c1,2.5,1.3,4.5,2,4.7c6.1,1.4,12.2,2.6,18.4,3.7c0.4,0.1,1.1-1,1.6-1.6c-0.6-0.6-1.2-1.6-1.9-1.7
	c-2.6-0.5-5.3-0.4-7.8-1C419.4,425.2,415.8,423.7,410.8,422.1z M406.4,414.6c1.7,6,5.6,7.9,12.2,6.8c-1.6-4-3.7-5.8-7.5-2.5
	L406.4,414.6z M407.9,407.6c0.7-6.3-2.5-7.1-6.4-7l-1,1.3L407.9,407.6z M408.3,408.2l-1.5,2l6.4,4.9l1.1-1.4L408.3,408.2z"/>
<path class="st0" d="M329.4,358.9l13.1,1.5c0,0.6,0,1.3,0,2l-6.4-1.9c1,9.5,8.6,4.9,13,9.3l-8.5-0.6l-0.2,1.1l11.1,2.4
	c-4,8.3,4.9,3.3,6,7.1l-5.2,1c0,0.3,0,0.6,0,0.9l6.9,1.3l0.2,1l-5,1.1L354,386l7.6,2.9l-5.1,1.3l6.9,1.7l-5.2,1.7l-0.1,1l7.3,1.8
	c-0.9,1.7-1.7,3.3-2.5,5l2.5,0.7c-0.2,2.6-0.4,5.1-0.6,7.2c-3-1.2-6.4-2.2-9.3-3.8c-1.9-1.2-3.6-2.9-4.7-4.9
	c-4.1-6.6-8-13.4-12.3-20.7l5,3.5l1.2-1.3l-6-6.8c-0.9-2.7-1.1-5.1-2.3-6.2c-1.1-1-3.6-1.2-5.1-0.6c-6.5,2.5-12.8,5.5-19.3,8.2
	c-1.8,0.8-3.8,1.2-5.8,0.9l29-13.3l-5.6-4.3L329.4,358.9z"/>
<path class="st0" d="M375.7,387.3l-2.9-5.5l1.2-0.6c8.3,10.3,12,23,15.8,35.8l-5.9-5.3c0.3,1.5,0.5,2.7,0.8,4.2l-5.8-0.6
	c0.5,1.3,1,2.3,1.4,3.4c-8.3-12-15-24.4-18.9-39.7L375.7,387.3z"/>
<path class="st0" d="M216.4,256.2l-4.1-0.9l13.4,10.2c-7.1,0.4-11.2-1.8-9.8-5.4c-5.8-1.1-9.1-5.2-12.2-9.7l-7.9-7.2l0.2-1.3
	c3.9,1.4,8.2,2.2,11.5,4.6S213.4,252.7,216.4,256.2z"/>
<path class="st0" d="M166.4,200.6c3.8,1.5,7.1,4,9.7,7.2c3.5,4.4,4.3,10.8,10.3,13.6c3,1.4,4.8,5.1,6.8,7.5
	c-7.4-0.9-15.9-8.3-18.3-16c-0.7-1.8-1.8-3.4-3.2-4.7c-2.1-2.1-4.4-4-6.6-6.1C165.6,201.7,166,201.2,166.4,200.6z"/>
<path class="st0" d="M303.4,290.6l-29.3,1.8l-0.2-2.2l6.6,0.9v-1.5l-10.7-2.2l0.2-0.3h22.1h11.1L303.4,290.6z"/>
<path class="st0" d="M243.9,194.4l2.4-1.1l-4.9-2.9l1.7-2.3l-4.2-3.3c5.9-0.4,7.3,0.7,6.8,3.9c2.9,3.2,6.6,5.6,7.5,8.8
	c1.1,4,4,3.7,6.5,4.8c1.6,0.7,3.2,1.2,4.5,2.7C256.3,203.9,248.8,202.2,243.9,194.4z"/>
<path class="st0" d="M222.4,271.5l14.8,9l-0.6,1.1l-24-10.2l0.4-1.1l5.9,1.6l0.5-0.8l-7.1-5.2l0.4-0.8l20.9,6.8
	c-0.2,0.5-0.3,1.1-0.5,1.6l-10-3.6L222.4,271.5z"/>
<path class="st0" d="M271.8,303.6c3.4,3.8,6.3,8.6,10.5,11.1c4,2.4,9.4,2.5,14.9,3.8c-12.5,3.8-24.2-2.1-30-15.1l6.9,7.5l0.8-0.6
	l-3.7-6.4L271.8,303.6z"/>
<path class="st0" d="M261.9,246.6l6.9,0.1l-0.1,1.6c-7.2,2.5-14.1-1.5-21.2-1.9c7.3,4.4,15.3,5.9,23.8,5.5
	c-6.3,4.4-25.9-1.8-28.7-8.3l19.6,3.1H261.9z"/>
<path class="st0" d="M244.3,249.8c5.8,2.3,11.6,4.7,17.5,6.7c2.9,1,6.2,1,9.1,2c2,0.8,3.7,2.2,4.8,4c-10.7,2-19.5-2.7-28.2-7.6
	l20.7,7.1c0.1-0.3,0.2-0.7,0.3-1L243.7,251C243.9,250.6,244.1,250.2,244.3,249.8z"/>
<path class="st0" d="M319.6,347l-6.1,3.8l0.2,0.6l4.3-0.7l0.4,1.4c-7.9,4.2-16.5,6.2-25.6,7.1l26-13.5L319.6,347z"/>
<path class="st0" d="M230.8,225l23.2,1.4l0.2,1.3l-13.1,0.8l-0.1,1.1l18.8,1.7C253,234.8,242.5,232.3,230.8,225z"/>
<path class="st0" d="M257.3,265.5c5.1,1.6,9,3.2,13,3.9c3.7,0.6,7.6,0.2,11.5,0.2c0,0.5,0,1,0,1.6l-13.2,0.2l-0.2,1.1l18,2.4
	C282.4,278.9,263.5,273.7,257.3,265.5z"/>
<path class="st0" d="M171.1,174.6l4.3,1.3c0,0.4,0.1,0.8,0.1,1.1l-4.5,1.1l-0.1,0.6h8.8l0.3,1.1l-4.1,2.3l9.5,2.4l-0.4,1.9
	c-2.6-0.6-5.4-0.9-7.8-1.9c-2.8-1.3-5.5-2.7-8.1-4.4c-2.3-1.4-4.5-3-7-4.7l9.2-1.1L171.1,174.6z"/>
<path class="st0" d="M222.8,208.4l10.9,4.2l0.5-1.1l-16.5-7.8l0.6-1.2l27.7,12c-0.2,0.5-0.4,1.1-0.6,1.6c-8.2-0.1-15.5-3.4-22.9-6.6
	L222.8,208.4z"/>
<path class="st0" d="M232.1,316.1l9.6-2.5c0-0.4-0.1-0.7-0.1-1c-2.6,0.2-5.1,0.5-7.7,0.5c-2.4,0.1-4.8-0.2-7.1-0.9
	c8.3-0.9,16.6-1.7,24.9-2.5c0.6-0.1,2,1.1,2,1.6c0,0.9-0.8,2.4-1.5,2.5c-6.6,1.2-13.2,2.2-19.9,3.2
	C232.3,316.8,232.2,316.5,232.1,316.1z"/>
<path class="st0" d="M152.8,214l-22.8-5l0.1-1.2l15,2.3c0.1-0.3,0.2-0.7,0.4-1l-16.1-6.3l0.3-1.2c2.8,0.8,5.6,1.6,8.4,2.5
	c3.2,1,8.1,1.2,9,3.3C148.5,210.4,151.3,211,152.8,214z"/>
<path class="st0" d="M222.5,305.4l25.3-1.3c-1.5,2.2-2.3,4.6-3.3,4.7c-6.8,0.5-13.5,0.6-20.3,0.8c0-0.6-0.1-1.1-0.1-1.7l13.8,1.4
	v-3.2l-15.4-0.1L222.5,305.4z"/>
<path class="st0" d="M218.1,298.1L234,298v-1.2l-17.2-2.1l0.2-1.5l26,3.1l-0.1,1.9c-8.1,2.6-16.5,0.9-24.8,1.3
	C218.1,299,218.1,298.5,218.1,298.1z"/>
<path class="st0" d="M256.1,303.7c-3.4-3.1-6.7-6.2-10.2-9.2c-0.9-0.8-2.4-0.8-3.3-1.5c-1.2-1.1-2.2-2.5-2.9-4
	c-0.2-0.5,1-2.3,1.2-2.2c1.2,0.4,2.3,1.3,3.5,1.7c7,2.4,8.5,9.5,12.9,14L256.1,303.7z"/>
<path class="st0" d="M368,357.8c8.9,5.4,15.7,11.3,20.8,19l-1.3,1.2c-1.9-2.2-3.6-4.8-5.8-6.7c-1.8-1.4-3.8-2.3-6-2.9
	C370.9,367,369.2,363.3,368,357.8z"/>
<path class="st0" d="M210.7,276.5c7.9,1.7,16.4,2,23,10.4l-21.4-4.5l0.1-1.1l12.7,1.8l0.3-0.9L210.7,276.5z"/>
<path class="st0" d="M358.1,421.2c4.9-0.9,9.4-1.9,13.9-2.3c1.1-0.1,2.5,2.1,4,3.5C368.1,425.6,365.3,425.4,358.1,421.2z"/>
<path class="st0" d="M221.1,186.7c4.1,1.1,9.3,1,11.9,3.6c2.5,2.6,5.6,4.6,9.1,5.7c-0.3,0.6-0.6,1.2-0.9,1.8l-20.2-6.4l0.4-1.2
	l10.8,3l0.4-1l-11.7-4.5L221.1,186.7z"/>
<path class="st0" d="M294.8,364l30-12l0.6,1.6C315.7,358.4,305.4,361.9,294.8,364z"/>
<path class="st0" d="M156.9,182.6c7.1,0.4,1.8,7.4,6,9.6c3.5,1.8,6.2,5,10.3,8.4C164.6,196.8,160.3,197.6,156.9,182.6z"/>
<path class="st0" d="M332,384.1c1.7,3,1.5,4.9-1.9,5.9c-3.9,1.2-7.7,2.9-11.5,4.3l-0.6-1.2l6-3c-0.1-0.2-0.1-0.5-0.2-0.7l-6.2,1.2
	l-0.3-0.9L332,384.1z"/>
<path class="st0" d="M332.6,270c-4.2,0.1-5.6-3.8-7.9-6s-4-5.4-5.4-9.2c2.6,1.6,5.6,2.8,7.7,4.9c2.5,2.5,4.4,5.8,6.4,8.9
	c0.2,0.2-0.2,0.9-0.4,1.3L332.6,270z"/>
<path class="st0" d="M185.6,230.6c8.6,0.2,12.3,8.7,19.7,11l-0.9,1.6l-19.8-10.7L185.6,230.6z"/>
<path class="st0" d="M281,356.7l28.1-11.6c0.2,0.6,0.5,1.3,0.7,2l-28.4,10.8L281,356.7z"/>
<path class="st0" d="M301.5,369.4l26.8-14.4C326.4,359.3,311,367.5,301.5,369.4z"/>
<path class="st0" d="M412.6,393.1l-18.7-25.8l1-0.7c6.5,8.4,12.9,16.9,19.4,25.3L412.6,393.1z"/>
<path class="st0" d="M266,348c9.5-2.4,17.8-8.1,27.4-9.9l0.6,1.6l-27.6,9.7C266.3,349,266.1,348.5,266,348z"/>
<path class="st0" d="M405.7,390.1l-19-25.7l0.9-0.7l19.7,25.2L405.7,390.1z"/>
<path class="st0" d="M282.3,330.5l-24.7,6.2c-0.1-0.4-0.2-0.8-0.3-1.2l24.5-7.2L282.3,330.5z"/>
<path class="st0" d="M277.4,353.6l24.4-11l0.8,1.9L277.8,355C277.7,354.5,277.5,354,277.4,353.6z"/>
<path class="st0" d="M308.8,334.7c8.5-1,12,0.4,12.5,4.4l10.2,0.6c-5,2.8-9.1,2-12.6-1.3c-1.1-1-2.9-1.3-4.4-1.9
	S311.5,335.6,308.8,334.7z"/>
<path class="st0" d="M96.1,114.4c0.4,6.4,0.8,11.8,1.2,17.3C91.1,122.9,90.9,119.8,96.1,114.4z"/>
<path class="st0" d="M384.2,298.5l-8.8,0.2l1.4-1.8l-9.3-0.6l3.1-2.2l-0.3,0.2c2.4-0.1,4.8-0.1,7.2-0.3c3.4-0.2,5.9,0.7,6.5,4.5
	L384.2,298.5z"/>
<path class="st0" d="M332.6,270l0.4-0.1l4.3,2.5l9.2,5.3l-4.9,0.9h0.2l-12.6-7L332.6,270z"/>
<path class="st0" d="M141.9,225.2l24.4,2l-0.2,2.2l-24.4-2.8L141.9,225.2z"/>
<path class="st0" d="M264.3,275.6l26.2,2.9C287.9,281.2,275.6,280.2,264.3,275.6z"/>
<path class="st0" d="M260.5,238.9l-23.9-5.1c0.1-0.5,0.2-1,0.3-1.4l23.9,4.4C260.7,237.5,260.6,238.2,260.5,238.9z"/>
<path class="st0" d="M270,325.7l7.6-1.4c0.1,1,0.2,2,0.3,2.9l-24.2,3.5l-0.3-1.4c3.7-0.6,7.5-1.1,11.2-1.9c1.9-0.5,3.7-1.1,5.5-1.8
	L270,325.7z"/>
<path class="st0" d="M270,281.7l25.4-0.1C287.2,285,279.1,284.2,270,281.7z"/>
<path class="st0" d="M207.3,228l-10.1-7.6c6.7-1.9,9.9,0.1,11.2,6.2L207.3,228z"/>
<path class="st0" d="M231.2,172.9l13.2,8.7C238.6,183,234.3,180.4,231.2,172.9z"/>
<path class="st0" d="M224.4,233.6c-6.6-4.9-14.5-2.5-21.7-3.9C210.1,226.6,218.6,228.1,224.4,233.6z"/>
<path class="st0" d="M276.4,349.9l19.9-9.5C295.3,344.2,285,349.3,276.4,349.9z"/>
<path class="st0" d="M382,361.9l17.3,21.3l-1.6,1.3l-16.6-21.8L382,361.9z"/>
<path class="st0" d="M152.6,154.7c-1.1-0.8-2.2-1.5-3.4-2.1c-4.1-1.7-8.2-3.4-8.2-8.9c3.9-0.4,3.9-0.1,5.1,3.5
	c0.4,1.2,2.1,2.1,3.4,2.8c1.8,1.1,4.3,1.5,2.7,4.6H152.6z"/>
<path class="st0" d="M327.6,364.5l-21.8,9c-0.2-0.4-0.4-0.8-0.5-1.2l21.3-9.8L327.6,364.5z"/>
<path class="st0" d="M220.4,198.5l23.5,7.2l-0.6,2l-23.2-8L220.4,198.5z"/>
<path class="st0" d="M270.2,325.7l-21.2,0.6l-0.1-0.9l22.2-2.5c0.1,0.4,0.2,0.8,0.4,1.1l-1.5,1.6L270.2,325.7z"/>
<path class="st0" d="M257.1,296l11.9,17C264.8,311.9,259.5,304.4,257.1,296z"/>
<path class="st0" d="M341.5,278.5c1.9,0.5,3.7,0.8,5.6,1c4.1,0.1,4.1,0,5.6,5.3l-8.9-0.1l-0.1-1.3l5-0.7l0.1-1l-10.8-1l3.6-2.1
	L341.5,278.5z"/>
<path class="st0" d="M136.2,218.2l23.8,3.1l-0.3,2l-23.6-3.7C136.2,219.1,136.2,218.6,136.2,218.2z"/>
<path class="st0" d="M385.6,430.8l10.9-0.5l0.1,1.4c-6.4,2.1-13.2,2.7-19.9,1.7l7.6-2.2L385.6,430.8z"/>
<path class="st0" d="M370.3,294.3l0.3-0.2l-11.1-3.5c3.1-0.9,6.5-5,8.9,0.6c0.3,0.6,3,0.1,5.1,1.2L370.3,294.3z"/>
<path class="st0" d="M149.8,164.8l21.9,3.4l-0.4,2.1l-21.8-4.3L149.8,164.8z"/>
<path class="st0" d="M261.9,246.6h0.2c-5.2-1.5-10.4-3-15.6-4.5c-1.6-0.5-3.2-1.1-4.7-2l23.7,3.8L261.9,246.6z"/>
<path class="st0" d="M284.9,334.9l-22.4,6.6l-0.4-1.3l22.2-7.3C284.5,333.5,284.7,334.2,284.9,334.9z"/>
<path class="st0" d="M242.3,322.7l20.3-3.9c0.1,0.7,0.2,1.3,0.4,2l-20.6,3.5L242.3,322.7z"/>
<path class="st0" d="M289.1,336.6l-21.3,8.8l-0.6-1.3l21.1-9.3C288.6,335.4,288.9,336,289.1,336.6z"/>
<path class="st0" d="M246.7,222c-7.2,2.2-13.9,0.4-20.3-3L246.7,222z"/>
<path class="st0" d="M328.9,375.2l-19.2,6.9l-0.5-1.4l19-7.5L328.9,375.2z"/>
<path class="st0" d="M306.2,331.6c-3.1,1.9-3.1,1.9-11.6-3c3.9-2.4,3.8-2.2,6.6,0.6C302.4,330.4,304.4,330.8,306.2,331.6z"/>
<path class="st0" d="M237.2,292.5l-21.6-3.5l0.2-1.1l21.7,2.6C237.4,291.2,237.3,291.9,237.2,292.5z"/>
<path class="st0" d="M251.5,208.7l19.8,1.7c-0.1,0.7-0.1,1.5-0.2,2.2l-19.6-2.6L251.5,208.7z"/>
<path class="st0" d="M222.5,248.4l-10.2-7.4C217.6,238.6,222,241.4,222.5,248.4z"/>
<path class="st0" d="M238.1,319.1l20.5-3.7l0.3,1.8c-6.7,2.1-13.7,1.9-20.6,3C238.2,319.9,238.1,319.5,238.1,319.1z"/>
<path class="st0" d="M320.9,398l17.1-6.9C336.3,394.7,329.4,397.6,320.9,398z"/>
<path class="st0" d="M238,202l-19.1-6.9l0.4-1.1l19.4,6L238,202z"/>
<path class="st0" d="M221.1,302.3l21.1-1.5v1.5l-21.2,0.4L221.1,302.3z"/>
<path class="st0" d="M208.2,149.3l17.4,5.9C222.7,157.2,215.8,155.1,208.2,149.3z"/>
<path class="st0" d="M229.3,161.5c-4.2,1.8-11.7-0.5-17.8-5.3L229.3,161.5z"/>
<path class="st0" d="M322.7,382.1l-9.1,1.9l-0.2-0.6l19.1-8.1l0.6,1.3l-10.7,5.5H322.7z"/>
<path class="st0" d="M161,164.6l-14.2-4.1c0.1-0.5,0.2-1,0.4-1.5l14.5,3.3L161,164.6z"/>
<path class="st0" d="M212.7,209.1c-5.4-0.4-9.5-4.3-13.7-7.6l14.3,6.1L212.7,209.1z"/>
<path class="st0" d="M385.6,430.8l-1.2,0.4l-9.1,0.2c0-0.3,0-0.6-0.1-1l14.6-2.7l0.5,1.4L385.6,430.8z"/>
<path class="st0" d="M454.2,374.5l-7.2-14.6l1.1-0.6l8,14.3L454.2,374.5z"/>
<path class="st0" d="M219.4,170.1c-6.9,3.1-7.2-4.3-11-5.7l1-1.5L219.4,170.1z"/>
<path class="st0" d="M384,298.5l6.4,0.6c0,0.5,0.1,1.1,0.1,1.6l-12.6,1.4l-0.2-1l6.5-2.8L384,298.5z"/>
<path class="st0" d="M348,348l-14.8,2.1c-0.1-0.4-0.1-0.8-0.2-1.2l14.6-3.2L348,348z"/>
<path class="st0" d="M171.2,174.6l-14-1.9l0.1-1.2l14.2,0.9c-0.1,0.7-0.3,1.5-0.4,2.2L171.2,174.6z"/>
<path class="st0" d="M239.8,256.5c-1,4.5-1.9,8.8-2.8,12.8C234.7,264.9,235.9,259.5,239.8,256.5z"/>
<path class="st0" d="M354,350.4l-13.9,2.8c-0.1-0.5-0.2-0.9-0.3-1.4l13.8-3.3C353.7,349.1,353.9,349.8,354,350.4z"/>
<path class="st0" d="M322.5,382.2l4.6-0.8c0.1,0.6,0.2,1.1,0.3,1.7l-11.6,4.2l-0.5-1l7.5-4.1L322.5,382.2z"/>
<path class="st0" d="M231.5,185.3l-13.3-3.7l0.3-1.4l13.5,3.2L231.5,185.3z"/>
<path class="st0" d="M225.9,167.8l9.7,2c-0.1,0.6-0.2,1.1-0.3,1.6c-3.6,1.2-6.8-0.5-9.8-2.4L225.9,167.8z"/>
<path class="st0" d="M340.1,397.8l-12.3,3.1c-0.1-0.5-0.3-0.9-0.4-1.4l12-3.9L340.1,397.8z"/>
<path class="st0" d="M359.9,353.7l-11.3,2.9c-0.1-0.5-0.3-1-0.4-1.5l11.1-3.6L359.9,353.7z"/>
<path class="st0" d="M243.3,268.5c-0.4,3.9-0.8,7.8-1.2,11.7l-1.4-0.1c0.2-3.9,0.4-7.8,0.6-11.7L243.3,268.5z"/>
<path class="st0" d="M190.8,199.5l-11.2-2.3l0.3-1.5l11.4,1.5C191,198,190.9,198.7,190.8,199.5z"/>
<path class="st0" d="M152.6,154.7h-0.3l4.2,1.4l-0.6,2.2l-10.3-3l0.2-1.3L152.6,154.7z"/>
<path class="st0" d="M381.8,426.6l-10.5,1.6l-0.3-1.4l10.5-2.3L381.8,426.6z"/>
<path class="st0" d="M232.1,263.9c0.6-3.6,1.1-7.2,1.6-10.8l1.8,0.3c-0.6,3.6-1.3,7.1-1.9,10.7L232.1,263.9z"/>
<path class="st0" d="M325.1,343l10.9,0.4c-0.1,0.7-0.1,1.4-0.2,2.1l-10.8-1V343z"/>
<path class="st0" d="M299.2,325.2l-9.1-0.1v-1.5l9,0.1C299.2,324.2,299.2,324.7,299.2,325.2z"/>
<path class="st0" d="M225.2,375.3c-2.8-0.8-5.9-1.2-8.4-2.6s-4.2-3.7-6.6-5.8l6,0.8l-15.7-9.5l0.5-1.2l16.6,5.4v0.8l-3.9-0.5
	l-0.3,1.3l16.4,5.6l0.3,1.1l-10-1.1l-0.2,1.7l8.7,2.8l-3.5,1.2L225.2,375.3z"/>
<path class="st0" d="M251.9,398.9l20.1,3.9l0.2,0.4l-9.9-0.1c0,0.6-0.1,1.2-0.2,1.7l17.4,3C272.1,410.6,260.2,407.1,251.9,398.9z"/>
<path class="st0" d="M254.5,394.3c-4.8-0.1-10.2,1.3-13.4-4.3c-0.5-0.8-2.2-1-3.4-1.3c-1.9-0.4-3.7-1.1-5.3-2.1
	c4.2,0.3,8.4-1.2,12,3.4C246.3,392.5,251,393,254.5,394.3z"/>
<path class="st0" d="M225,375.3l18,6.6c-8.5,1.4-14.7-2-21.1-5.7l3.3-0.9L225,375.3z"/>
<path class="st1" d="M421.3,392.2l-12.7-17.8c6.1,1,12.5,9.2,13.8,17L421.3,392.2z"/>
<path class="st1" d="M410.8,422.1c5,1.7,8.6,3.1,12.3,4.1c2.5,0.7,5.2,0.6,7.8,1c0.7,0.1,1.3,1.1,1.9,1.7c-0.5,0.5-1.2,1.6-1.6,1.6
	c-6.1-1.1-12.3-2.2-18.4-3.7C412.1,426.6,411.8,424.6,410.8,422.1z"/>
<path class="st1" d="M406.4,414.6l4.7,4.3c3.8-3.3,5.9-1.5,7.5,2.5C412,422.5,408.2,420.6,406.4,414.6z"/>
<path class="st1" d="M407.9,407.6l-7.4-5.6l1-1.3C405.3,400.5,408.6,401.3,407.9,407.6z"/>
<path class="st1" d="M408.3,408.2l6,5.5l-1.1,1.4l-6.4-4.9L408.3,408.2z"/>
</svg>
