<?xml version="1.0" encoding="utf-8"?>
<!-- Generator: Adobe Illustrator 22.0.1, SVG Export Plug-In . SVG Version: 6.00 Build 0)  -->
<svg version="1.1" id="Layer_1" xmlns="http://www.w3.org/2000/svg" xmlns:xlink="http://www.w3.org/1999/xlink" x="0px" y="0px"
	 viewBox="0 0 504 504" style="enable-background:new 0 0 504 504;" xml:space="preserve">
<style type="text/css">
	.st0{fill:#FFFFFF;}
	.st1{fill:#232323;}
</style>
<title>Artboard 2</title>
<path class="st0" d="M300.8,213.1l3.3,0.7l31.3,5h-0.2c1.7,0.5,3.4,1.1,5.2,1.4c8.8,1.7,17.7,3.1,26.5,5c13.4,2.9,23.8,10.1,30,22.6
	c2.4,4.8,4.2,9.8,6.9,14.4c11.2,19.4,22.2,39,33.9,58.2c9.9,16.1,10.3,34.3,14,52.2c-8.2,0.1-2.4-5.5-4.1-8.2
	c-1.3,2.5-2.3,4.5-3.4,6.6l-1.2-0.5l4.4-12.3l-1.4-0.5c-1.2,3.3-2.4,6.6-3.8,9.9c-0.4,1-1.7,1.6-2.5,2.4c-0.5-1.2-1.5-2.5-1.3-3.5
	c0.6-3.8,1.7-7.4,2.6-11.1l-1.3-0.3c-1.2,4.5-2.4,9-3.6,13.6c-3.7-2.4-1.3-13.8,3.4-17.2c-2.5-1.5-6-2.3-6.9-4.3s0.7-5.2,1.2-7.8
	l1.5-0.4l4.3,4.9c1.6-3.2,1.2-2.9-0.9-6.1c-1.4-2.1-1.4-5.2-2-8c-0.9,2-1.8,4.2-3,6.9c-7.9-4.9-2.6-13.5-6.9-20.2c0,3.1,0,5,0,7.2
	c-2.6-1-4.7-1.5-2.6-4.6c1.8-2.8,0.8-4.7-2.4-5.5c-0.4-0.1-0.7-0.6-1.1-0.9l2.7-2c-4.5-1.8-6.7-5.9-10.6-7.8c-2-1-3.5-2.8-5.2-4.3
	l0.7-2l-18.5,0.2v1.9l17.1,1c-1.5,3-3.3,5.1-3.7,7.6c-0.6,4.3-0.9,8.7-0.9,13c0,0.5,0.8,1,1.2,1.5h-0.1c0.4,2.3,0.8,4.6,1.1,7
	l-1.8,0.5l-5.1-3.9l3.2-0.9c0-2.9,0-5.5,0-8.6l-3.6,3.3l3.7-10.3l-7.4-2.7c-0.1,2.6-0.2,5.4-0.4,9.2l-9.4-4.4l-1.5,8.8l-2-0.3l1-7.6
	l-0.8-0.1l-2.3,6.2l-9.8-6.4l-0.4,0.6l3.2,3.8l-3.5,0.2l-6.9-3.5l-3.4,3.3l0.2,0.1c-0.2-2-0.5-4-0.7-6.1c-0.2-1.5-0.3-3.1-0.5-4.6
	c-1.2,1.9-1.2,3.7-1.7,5.3c-1.7,5.5-2.8,10.9-0.8,16.6l-0.8,7c-1.3-2.3-3.3-4.4-3.8-6.9c-0.9-3.9-0.8-8.1-1.2-12.1l-1.3,0.1
	c0.4,3.7,0.9,7.5,1,11.2c0,1.2-1,2.5-1.6,3.7l-1.7-1.1c-0.8-2.6-1.6-5.2-2.7-8.5c-0.3,3.6-0.6,6.5-0.9,9.3c-2-5.4-4.1-10.8-6.1-16.2
	c-1.2-2.9-2.1-5.9-2.8-9c-1.4-7.4-1.7-7.9-9.1-11.4c5.4,5.5,4.8,5.6,6.2,14.1c1.7,10.2,4.5,20.3,6.8,30.4l1-0.2
	c-2.2-10.1-4.3-20.1-6.5-30.2c2.9,5.3,5.1,11,6.8,16.8c1.5,5.7,2.1,11.6,3.1,17.4l0.9-0.1c0.1-1.6,0.2-3.2,0.3-4.8l4.5,4.3l3.2,1.6
	l0.3-2.6l3.2-1.6c2.9,3.1,5.4,6.8,10.5,5.8l-0.3,2.8c0.6,3.1,1.2,6.1,1.8,9.2l3.8,4.9c-0.1,3.2-0.4,6.5-0.1,9.8
	c0.1,1.1,1.4,2,2.1,3.1l3.4-2.6l2.5,3.8c-2,2.8,0.3,3.9,2.1,5.2l11.6,8c4.6,2.9,3.3,8.5,5.7,12.5l7.3,7.7l14.2,9.2
	c-1.3,3.4-0.2,8-4,11l5.8,5.2l1.4-2.8c0.4,2.3,0.9,4.6,1.4,7.4l1.5-5.2l1,0.2c0.1,1.5,0.3,3.1,0.4,4.3c4.3,0.8,6.5-1,7.8-4.9
	c0.5-1.5,3.2-2.3,4.4-3l-8.1-7.8c0-1.2,0-2.4,0-4l12.6,6c0-1.8,0.1-3.5,0.1-5v0.1l2.7-2.9c-2-2.5-2.5-4.6,0.5-5.4
	c0.1-2.5-0.3-5,0.4-7.1c0.5-1.4,2.5-2.3,3.7-3.4c-2.6-1.3-2.8-2.2-1.9-5c1.7-5,3.1-10.1,4.6-15.2l-7.1,3c0.7-3.9,1.1-6.2,1.6-8.4
	c3.1,0.2,6.4-0.5,7.2,3.6v-0.3c-0.1,1.6,0,3.3,0.1,4.9c1.1,6.5,1.3,12.8-1,19.1c-1.6,4.2-3.6,8.9-3,13c0.9,6.3-2.4,10.1-6.1,13.3
	c-6.3,5.5-13,11.2-20.5,14.7c-12.7,5.9-26.1,10.2-39.3,15.1c-1.5,0.6-3.2,0.8-4.9,0.5c-7.5-2-15-4.1-22.4-6.5
	c-1.9-0.6-3.3-3-5.2-3.5c-6.6-1.6-12.9-3.6-17.9-8.4c-0.6-0.5-2-1.1-2.1-1c-3.6,4-5.5-1.1-8.2-1.5c-1.2-0.2-2.1-1.4-3.3-2
	c-5.4-2.8-10.8-5.5-16.1-8.3c-3.9-2.1-7.6-4.5-11.3-6.7l-0.4,0.7l6.8,5.1l-0.4,0.8l-4.8-2.2l3.4,3.8l-0.5,0.5l-3.3-2l0.1,0l-7.5-1.9
	c0.4-2,1-5.2,1.6-8.3c-1.9,2.9-0.5,8.4-6.9,8.5c0.9-3.3,1.8-6.4,2.6-9.4c-2.1,2.9-3.2,6.1-4.7,9.2c-0.4,0.8-1.9,1.1-2.9,1.7
	c-0.1-1.2-0.7-2.6-0.3-3.5c0.5-0.9,1.2-1.6,2.1-2.1c0.1-3.2,0.2-5.8,0.4-8.5c-2.5,4.2-4.9,2-7.5-0.2c-1.7-1.2-3.5-2.2-5.4-3.1
	c-1.1-0.6-2.1-1.2-3.2-1.8l3.3-3.9l-15.2-6.5c-1.1-4.6,2.1-2.5,4-2c-0.1-0.5-0.2-0.9-0.5-1.3c-4.3-4.7-12.1-6.6-12-14.9
	c0-0.5-1.1-1.1-1.8-1.6c-4.4-3.3-4.5-4.3-0.4-8.3c-5.2-4.9-13.2-6.5-16.4-13.8c-0.7-1.5-2.9-2.3-4.3-3.4c0.4-2,0.7-3.7,1-5.4
	l-0.7-0.2l-2.2,5.1l-1.4,0.4l-2.2-4.6l4.1-10.4l-1.2-0.4l-2.3,6.3c-6.4-1.9-0.2-7-3.1-8.8l-5.1-3l0.6-1.2l3.5,1.5l0.4-0.7l-7.9-6.3
	l0.8-1l7.7,4.1c-2.8-3-4.9-6.2-7.8-8.1c-3.5-2.4-3.8-1.9-2.4-5.1l6.3,4.2c-1.9-2.6-3.9-5.1-6.2-7.4c-1.7-2-3.4-4-5-6
	c-0.8-0.9-1.5-1.8-2.3-2.7l2.7-1.7c-4.6-5.1-7.2-11-6.4-18.2c-0.8,2-1.5,3.9-2.6,6.8c-1.4-1.5-3.1-2.5-3.1-3.5s1.7-2.2,2.7-3.3
	c-0.4-0.9-1.1-2.3-1.5-3.2l-3.9,0.2c0.1-1.3,0.2-2.6,0.3-4.1l6.3,1.9l0.2-0.8l-5.4-2.6l0.7-5.2c-1.5,2.2-2.3,3.3-3.7,5.3l-3.7-4.9
	l3.2-0.9c0-1.8,0-3.4,0-5v0.2c1.1-3.9,2.3-7.8,3.4-11.6l-1.1-0.4l-2.6,7.9l-4.7-1.9c0.5-2,1-3.8,1.4-5.6l-0.4-0.1
	c-0.9,1.7-1.8,3.4-2.7,5.2l-4-1.6c1.7-5.6,3.4-10.9,5.3-17.3l-4.7,4.9c-0.4-5.6-0.8-10-1.2-14.4L163,230c0.1-1.9,0.2-3.1,0.3-4.4
	c-1.6,2-2.1,4.2-3,6.3c-0.4,0.9-1.6,1.6-2.5,2.3c-0.2-1.1-0.8-2.3-0.6-3.4c0.8-3.8,1.9-7.6,3.1-12.3c-4,3.2-1,9.7-8.5,10.8l4.1-16.4
	l-5.2,2.9l-1.2-1.2c1-2.8,2-5.6,3-8.6l-4.4-1.3l2.8-5.7l-5.9-0.7c0.4-2.4,0.8-4.4,1.1-6.5l-3.2-0.1c0.1-1.2,0.2-2.1,0.3-3.1
	l-4.6,0.1c0.4-2.6,0.7-4.8,1-7l-0.6-0.1l-2.5,6.9l-2.1-0.6c0.8-2.8,2.1-5.5,2.4-8.3c0.3-4.5-3.6-2.6-6.4-3c0.6-2.4,1.1-4.6,1.7-6.8
	l-4.1-0.8c0.5-2,1.3-3.8,1.3-5.5c-0.1-1.6-0.5-3.1-1-4.5l-5.9,2.4c1.3-4.2,2-6.7,2.8-9.2l-4.4,0.8l2.8-5.6l-5.9-0.9
	c0.1-1.4,0.2-2.7,0.3-4c-2.5-0.4-4.9-0.5-7.1-1.1c-0.9-0.2-2.4-1.3-2.3-1.9c0.1-4.2-2.5-6.6-5.1-9.2c-1.2-1.2-2.3-3.2-2.2-4.8
	c0-1,2.5-1.8,3.8-2.6l-6.1-2.5l1.5-4.7l-1.2,0.5l-3.6-5.6c-2.6-0.7-5.9-2.3-3.2-6.9c1.7-2.9,3.8-5.4,5.8-8.1c-2,1.4-3.7,3-5.3,4.9
	c-1.5,1.6-3,3.2-4.5,4.7l-1.1-1c0.9-1.9,1.9-3.8,3-6.1L88.5,99c-0.2-1.4-0.5-2.8-1-4.2c-0.8-1.3-1.7-2.5-2.7-3.6l-2.3,0.7l-0.3-0.7
	c2-1.4,4.1-2.9,6.3-4.5c-2.3-3.4,0-5.8,2.9-8.2l-5.1,2.7c-1.1-1.9-2.1-3.6-3.1-5.3V76c2.1-1.6,4.1-3.1,7.4-5.6l-8,3.3
	c-1-2.8-2.1-5.4-3-8.1c-4.3-13.4-5.2-9.6,4.8-17.1l-9.2,4.9c0-6.1,0-11.3-0.1-16.4c-0.2-7,0.2-7.7,6.5-8.6c0.4-0.1,0.8,0.3,1.6,0.7
	L81,31.9l2.5,0.4l-3.3,4.2c0.4-0.1,0.9-0.2,1.3-0.2c1.2,0.1,2.4,0.3,3.6,0.5c-0.8,0.9-1.8,1.8-2.7,2.6c-1.2,0.7-2.4,1.4-3.7,2
	c7.2-2,7.4-1.8,9.8,4.1c7.1,18.1,14,36.3,21.3,54.2c1.7,4.2,3.3,7.7-0.1,11.7c-0.8,0.9-0.8,2.4-1.1,3.7l0.6,0.1l3.9-7.4
	c2.1,4.1,3.5,7.5,5.6,10.5c2.9,4.2,4.6,8-0.4,11.7c-0.1,0.1,0,0.5,0,0.7l5.7-4.6l13.9,21.6l-1.4-12.6c-0.6,2-1,3.6-1.5,5.3l-1.9,0.1
	c-0.6-3.9-1.2-7.8-1.8-11.7v0.3c3.9,0.6,9.9,6.9,10.6,10.6c0.5,2.5,1.4,4.9,2.8,7.1c1.4,2.1,3.4,3.7,5.2,5.6c-0.2,0.3,0.3-0.4,1.3-2
	c1,3,1.6,5.1,2.3,7.2l0.6,5l0.1-0.1c-1.4,1.6-2.2,2-3.3-0.6s-3.4-4.7-5.2-7l-1.5,1l9.6,15l1.1-1.4c1.2,1.2,2.3,2.5,3.6,3.6
	c2.4,2.1,6.4,2.6,6.5,7.1l-5.3-2.7l6.3,6.5l-0.9,1l-2.9-0.8l-0.5,0.8l10.9,8.1c-0.6-2.1-0.9-3.3-1.3-4.5l1.8-0.5
	c3.9,4.5,3.5,10.2,2.3,16.1l2.5,0.2c0-3-0.1-6-0.2-9.1l1.1,0.6c2.1,3.8,4.2,7.6,6.2,11.4c-3.9-0.4-2.6,2.5-1.9,3.8
	c2,4.2,0.8,7.9-0.8,11.8c-0.2,0.8-0.5,1.5-0.6,2.3l1.8,0.3c1-6,2-11.9,3.1-17.9l1.8-1.2c0.4,1.3,0.8,2.7,1,4.1
	c0.4,3.4-0.6,7.7,1.1,10.2c3.2,5,5.6,9.8,3.8,15.7c2.1,0.1,4.5-0.3,4.9,0.5c1.5,2.5,4.2,4.8,2.1,8.4c-0.8,1.4-0.9,3.2-1.4,5.4
	l3.7-2.6c0,3.9-0.1,6.6-0.1,10l5.6-3.6c-1,2.9-1.8,5.3-2.6,7.8c8.1,1.5,2,6.7,3,9.9l4.3-4.8c0.8,1.4,1.1,3.1,1,4.7
	c0.1,1.3,0.3,2.6,0.5,3.9l-1.9,1.2c1.1,3.4,2.1,6.3,3,9l-12.5,6.9c5-0.8,8.9-5.7,14.6-2.5c0.2,1.3,0.4,2.5,0.6,4l3.1-2.5
	c0.2,0,0.4,0.1,0.6,0.1c0.3,2.8,0.6,5.7,1,9.3c-0.4-0.2,0.2,0.4,0.7,0.4c6-0.7,6.1,3.2,6,7.5c0,0.8,0.9,1.7,1.5,2.5s1.7,1.9,1.9,2.9
	c0.2,1.8,0.2,3.7,0,5.5l0.7,0l2.9-7.8l1.8,0.3c0.1,3.3,0.1,6.5,0.2,9.8c0.2,1.2,0.4,2.5,0.7,3.7l4.4,3.6c4.8-3.7,3.9,1.7,4.6,5
	l3.1-4c0.2,3,0.5,5.6,0.7,8.2h1.4l2.5-7.2c4.1,3.7,1.7,7.8,1.8,11.6l3-3.2c7,2.6,1.4,7.7,2.9,12.3c1-3.7,1.7-6.3,2.4-9
	c3.5,0.1,4.1,1.8,3.7,4.6c-0.4,2.4-0.1,2.5,2.6,1.7c0.4,2.2,0.8,4.4,1.2,6.7l2.1-3l1.1,0.2c0.1,2.1,0.2,4.2,0.3,6.2l2,0.3
	c0.4-3.9,0.8-7.8,1.1-11.7l1.3,0.3c-0.7,4.7-1.4,9.4-2.3,15.4c1.7-3.2,2.8-5.2,3.9-7.1l1.2,0.3c0.4,3.2,0.9,6.4,1.4,10.6
	c0.5-1.7,1.2-3.3,1.9-4.9c0.7-1,1.6-1.9,2.5-2.7h-0.2c0.5,1.3,1,2.5,1.5,3.9l2-1.8c2,0.8-0.3,7.7,5,3.3l0.2,0.1l3.8,3.5
	c0.8,2.7,1.7,5.4,2.8,9.1c0.6-2.6,1-4.1,1.4-5.6l4.7,7.8c-6.1,6.1,5,5.8,4,10.2c0.5-1.1,1.1-2.3,1.6-3.4c3.1,3.1,3.2,8.7,8.5,10.3
	c1.2,0.4,2,2.4,3,3.5c2.1,2.2,4.8,6.4,6.4,6c6.1-1.3,3.9,3,4.5,5.2c4.6,3.7,12.5,3,13.8,11.4l2.8-4.4l1.4,5.9l2.6-5.6l1-0.1
	c-7.1-6.9-13.6-14-16.9-23c-6.9,2.9-3.5-4.9-6.8-6.3c-0.2,1.9-0.3,3.5-0.4,5.1l-1.2,0.3c-0.8-4.5-1.6-8.9-2.5-13.4l-1.5,0.2
	l-1.3,3.7c-1.2-2.2-2-3.5-2.6-4.9c-1.6-3.7-2.7-7.7-7.5-8.7c-4.6-1-6.3-4.3-6.5-8.7c-0.1-1.1-0.3-2.1-0.4-3.2h-1.2
	c-0.2,2.5-0.3,5-0.6,8.7l-2.2-3.3c-0.2-3.1,0.5-6.6-0.9-9.1s-4.6-4.2-6.7-5.9c0,0.1-0.1,1.4-0.1,2.8l-0.7-0.1l-1.3-4.8l-0.7,0.1
	c-0.2,1.4-0.4,2.8-0.6,4.2l-1.4,0.7c-1.4-3.6,1.4-10.7-5.8-9.1c-0.8-2.1-1-3.9-2-5.4c-1.7-2.5-3.8-4.8-5.5-6.9l-3,2.8L279,334
	c1-2.5,2-5,3-7.5L281,326l-5.1,7.3c-0.1-2.4,0.6-5.3-0.5-7c-2.4-3.7-6.2-5.9-11-6.5c0.3-2.1,0.7-4.1,1-6.2l-0.7-0.1l-2.3,5.8l-7-3
	c-0.1-1.7-0.2-3.8-0.2-5.9l-8.8-2.7c-0.6-6.8-3-9.4-10.2-11.4c-0.1-3.1-0.2-6.1-0.3-8.5c-3.6-1.4-5.1-4.1-6.2-7.2s-2.2-6.3-3.4-9.6
	l-2.5,3.5c-0.6-1.4-1.2-2.3-1.1-3.1c0.4-3.3,2.8-6.5,0-10c-0.8-0.9-0.8-2.4-1.2-3.7l-5.4,1.9c0.9-2.4,2.2-4.1,2-5.6s-1.8-3-2.7-4.5
	l-1.2,0.6c-0.1-2.8-0.2-5.6-0.4-8.4l-1,0.5c-1.9-4.2-3.8-8.5-6-13.4l-1.3-0.2l1.9-5.1l-7.2-9.4l2.5-4c-2.8-2.4-6.7-4.3-4.4-9.2
	l-2.2,2.6l-1.6-0.4c0.4-2.2,0.9-4.4,1.2-6.2c-1.8-2.2-3.6-4.3-5.5-6.7c-3.2,1-4.2,0.2-4-4.2c0.1-1.7-0.1-3.5-0.2-5.2l-1.5-0.1
	l-2.1,8.1l-1.3-0.2c0.2-3.5,0.4-7,0.6-10.5l-0.9-0.1c-0.7,1.6-1.4,3.2-2.2,4.9c0.2-5.4,1.2-11-3.9-14.5c-3.4-2.3-3.1-4.3-1.4-6.8
	c-3.8-4-10.5-4.7-11-11.5l-1.7,1.7c-0.6-1.1-1.7-2.1-1.8-3.2c-0.2-3.4-0.1-6.8-0.1-10.3H158c-0.2,3.4-0.4,6.7-0.7,10.3
	c-6.3-2.3-3.2-7.5-3.9-10.1c-1.8-0.9-3.5-1.2-3.8-2c-1.2-3.4-2-6.9-3-10.5l-2.6,1.7c0.2-2.8,0.4-5,0.5-6.4L135,114
	c-1.6,0.7-11.4-7.1-11.9-11.1c-0.9,0.2-2.6,0.8-2.7,0.6c-0.7-1.4-1.2-2.9-1.6-4.5l1-0.4l11.5,7.4c-4.2-4.2-9-7.4-13.6-11
	c-0.8-0.6-0.9-2.2-1.3-3.3l1.5-0.8c-6.4-2.7-9-7.1-7.3-13.8c0.4-2.5,0.7-5.1,0.8-7.6l-1.1-0.1c-0.5,4.8-1.1,9.6-1.7,15
	c-12.7-8.8-12-21.5-12.1-34l-1,7l-1.5-0.1c0.4-5.5,0.8-11,1.2-17.4L92.9,46l-1.3,0c0.5-4.1,1-8.2,1.7-13.7l-4.8,3.9
	c1-3.9,1.7-6.5,2.4-9L90.3,27l-1.2,2.3l-1.6-0.6c0.7-2,1.5-4,2.2-6c1.7,0.9,4,1.3,4.9,2.7c3.1,4.7,5.6,9.9,8.6,14.6
	c10.4,16.2,19.5,33.6,31.8,48.3c17,20.2,36.4,38.3,55,57.1c5.9,6,12.4,11.4,18.7,17l-0.2-0.1c8.9,7.4,17.3,15.6,26.9,22
	C255.4,197.6,277.5,207.3,300.8,213.1z M240.1,270.4c0.5,2.4,0.5,4.9,1.5,7c2,4.4,4.6,8.5,6.9,12.6c1.4,0.7,2.7,1.8,4.2,2.1
	c5.5,1.1,11.1,2.1,16.6,3.1l7,5.4l-4.8,1.2l12,3.8l-0.5,1.7l-3.5,0.1c2.7,3.1,6,5.1,9.1,7.4c1,0.8,1.2,2.6,2.1,3.6
	c1.2,1.3,2.9,3.1,4.4,3.1c4.1-0.1,9.8,3.5,10.7,7.5l-2.4,0.6l0,0l-6.3-3c-0.2,0.3-0.3,0.6-0.5,1l4.8,5.8c-0.3-0.7-0.8-2-1.4-3.7
	c5,2.5,6.1,5.1,3.8,8l10.5,3l-0.3,1.5l-8.4,0.8l11.6,2.1c-3.7-6.9-7.9-14.6-12-22.2c-2.2-1.1-4.8-2.3-7.2-3.7
	c-0.2-0.1,0.7-2.1,0.7-2.1c-1.6-2.5-3-4.4-4.2-6.6s-2-4.2-2.9-6.4l-0.8,0.4l3.4,8.8l-1.1,1l-6.3-3.1l0.5-1.1l4.6-0.8
	c-8.3-2.3-17.4-15-14.6-18.9c-1.3-1-3.2-1.6-3.8-2.9c-1.7-3.5-4.4-4.6-7.8-5.8c-2.7-1-8.4-0.8-5.9-6.8c0.1-0.2-0.5-0.8-0.8-1.2
	c-2.2-3.5-4.3-7.1-6.5-10.6c-2.6-4-5.2-8.1-7.8-12.1l-0.7,0.4l2.3,5.3l-1.5,1.1l-3.9-4.6c0.8-7.6-4.5-14.5-12-15.7
	c0.9,11,2.9,21.4,9.6,30.4L240.1,270.4z M252,204.8c0.2-0.2,0.4-0.4,0.6-0.7c0.1-0.1,0-0.3-0.1-0.4c-10-7.7-20.1-15.4-30.1-23.1
	c-1.1-0.9-1.8-2.3-2.8-3.6c-0.4,1.1-0.7,2.1-1,3.1c6.3,2,6.3,5.1,2.6,9.1c-1.9-1.4-4.1-2.5-5.7-4.2c-1.9-2.1-2.9-5-4.9-6.9
	c-2.6-2.5-6-4.2-8.8-6.6c-1.3-1.2-1.9-3.2-2.8-4.9c-0.4-0.8-0.5-2-1.2-2.5c-4.2-3.8-8.5-7.4-12.7-11.1c-4.7-4.1-9.4-8.3-15-13.3
	l5.1,11c3,0.5,5.5,0.1,6.5,1.2c1.7,1.9,2.6,4.6,4.1,7.6c-0.1-1.9-0.2-2.9-0.3-5.3c1.5,2.1,3,3.3,2.8,4.1c-1,4.3,2.5,5.8,4.8,8
	c1.7,1.6,4.1,2.7,5.4,4.6c4.1,5.8,7.8,11.9,11.6,17.8l1.4-0.9c0.5,0.8,0.9,1.6,1.3,2.5c0.4,1.5,0.8,2.9,1.3,4.3
	c1.2,2.4,2.8,4.6,4.2,7v-0.2c0.6,1.7,0.8,4.1,2,5c5.8,4.3,11.8,8.1,17.8,12.1l0.8-1.2c-0.7-1.7-1.3-3.5-2.3-6
	c5.7,3.5,10.9,6,12.2,11.7l2.3-1.5c0.7,1.4,2.3,3,2,4c-1.2,4,0.6,6.2,3.5,8.4c4.4,3.3,8.6,6.8,13,10c6.2,4.6,12.4,9.1,18.6,13.6
	l0.7-0.8l-9.3-7.3l0.7-1l21,11.2l-4.5-6.7l-0.1,0.2c2.4,0.7,5,1,7.1,2.2c5.4,3.3,10.5,7,15.8,10.6c-2.5-2.8-5.4-5.2-8.5-7.2
	c-5.4-3.8-5.4-3.7-4.5-9.1c3.1,2.2,6,4.2,9,6.3c3,2,6.1,4.2,9.1,6.2c0.2-4,0.3-7.6,0.5-11.3l1.5-0.4l2.2,5.2
	c4.3-3.5,3.1,1.9,4.2,3.3l2.4-10.4c0.7,2.6,1.4,5.1,2.1,7.6c0.4-1.2,0.8-2.5,1.3-3.8l1.7-0.4c1.3,2.8,2.5,5.6,3.7,8.4l0.6,0.4
	c-0.3-1.3-0.6-2.6-1-3.9l2.5-0.2c1,2.7,1.9,5.3,2.8,7.8l1.3-3.8l6.9,4.5l-0.8-4.1c0.4-1,0.9-2,1.5-3.3c1.2,0.9,2.8,1.5,3.2,2.6
	c1.8,4.1,4.4,3.4,7.6,1.9c1.1-0.5,2.9,0.2,4.2,0.7c1.1,0.4,1.9,1.6,2.9,2.1c2.2,1.2,3.8,2.5,2.9,5.5c-0.2,1.4-0.3,2.7-0.2,4.1
	l2.4,0.5c0.7-3.9,1.4-7.9,2-11.8l0.5,0.2c-0.5,3.3-0.9,6.5-1.4,9.8l1.9,0.4c0.1-2.7,0.2-5.4,0.3-8l2,0.3c2.3,5.1-1.5,9.9-1.7,16
	l15.2,2.6c0.1-2.1,3.5-4.5-1.4-5.9c0.5,1.4,0.8,2.3,1.2,3.4c-7.6-0.6-8.2-1.4-7.3-9.5l0,0.2c0.2-1.5,0.9-3.3,0.4-4.6
	c-0.8-1.8-2.5-3.1-3.8-4.7c0.2-0.2-0.6,0.7-2.3,2.9c-0.2-2.9-0.3-4.4-0.5-5.8s0.1-3.2-0.6-3.9c-6.3-5.5-12.8-10.9-19.3-16.2
	c-0.4,2.8-0.8,4.8-1.2,7.8l-7.1-5.3c-0.3,2.3-0.6,4.3-1,7.2c-1.8-1.4-3.4-2-3.9-3.1s0.1-3,0.3-5.7l-2.4,4.8l-15.1-10.4l-0.5,0.9
	l2.8,4.4l-0.8,0.8L315,226.1l-2.1,6.1l-5.7-6.4l0.1,0.6l-15.1-8.3c0.7,2.1,1.3,4.1,2,6c-2.1,0.1-3.1-0.1-3.4-0.7
	c-1.1-1.8-2.1-3-4.5-3.4c-1.6-0.3-5.1-1.8-2.6-4.9c3.1-3.8-0.2-4.4-1.4-5.8c-0.2,2.4-0.4,4.5-0.7,7.3l-9.9-7.1l-5,5.5l-2.5,4.1
	c-3.6,2.2-4.1-3.1-6.9-2.8c0-2,0.1-4-0.1-6c-0.1-1.4-0.4-3-1.2-3.9S253.4,205.3,252,204.8L252,204.8z M362.2,273.9
	c6.3,9.6,16.2,9.1,25.2,10.7c-4.2-0.4-6.2-5-11.7-4.4C371.6,280.6,367.1,276.3,362.2,273.9z M325.4,318.9l1.2-0.9l-4.3-19.6
	l-1.1,0.1c0.6,3.4,1.2,6.9,1.8,10.3l-0.7,0.1l-2.9-6l-1.2,0.6C321.7,308.1,320.8,314.8,325.4,318.9L325.4,318.9z M388.4,300.9
	c-7.6-3.8-13.1-3.9-15.9-0.6C374.8,302.9,383.5,303.4,388.4,300.9L388.4,300.9z M186,161.6c-3.4,6.4-2,11.4,4.7,15.1
	C188.9,170.8,187.4,166.2,186,161.6z M347.8,295.6c-0.1,0.4-0.2,0.9-0.3,1.3c7,1,12.7,6.8,20.3,5c0.1-0.5,0.2-1,0.4-1.6L347.8,295.6
	z M377.5,436c4,3.1,7.1,5.3,9.9,7.8c2.3,2,2.6,4.5,0.4,7c-1.5,1.7-2.9,3.4-4.3,5.1C393.9,448.4,392.3,442.3,377.5,436z M212.1,219.2
	l-1.8,0.5c-1.5,6.5,5.2,10.2,5.4,16.2l1.7-0.6L212.1,219.2z M334.4,412l-0.5,0.9c2.4,3,4.8,6.2,7.3,9.1c0.9,1.3,2.2,2.2,3.6,2.8
	c4.3,1.3,8.8,2.2,12.2,3.1c-2.6-2.9-6.3-4.6-10.3-4.7c-1.9-0.3-3.7-1.2-5-2.6C339.1,417.9,336.9,414.9,334.4,412z M328,278
	c-1.5-1.2-2-2-2.6-2.2c-4.6-1.4-9.2-2.7-13.8-4C315.1,277.6,321.1,277.2,328,278z M141.9,111.1c-1.1-4.5,0.3-10.1-7.3-11.3
	L141.9,111.1z M409.6,280.3l-1.5,0.8l12,18.6l0.5-0.3L409.6,280.3z M361.7,429.3c3.3,2,7.8,3.5,10.4,6.5c2.3,2.8,2.5,7.4,3.4,10.2
	C378.5,438.4,372.3,430.3,361.7,429.3L361.7,429.3z M339.1,280.1c0.3-0.7,0.6-1.4,0.9-2.1l-12.7-5.6l-0.7,1.5L339.1,280.1z
	 M359.8,282c-4.6-5.9-10.1-8.5-13.6-5.9L359.8,282z M293.5,270.3l1-1.3L281,258.7l-0.9,1.1L293.5,270.3z M329.4,417.8
	c0.7,7.4-3,12.2-8.8,16.3c0.9,0.1,1.9-0.1,2.6-0.7C327.9,429.2,331.8,424.7,329.4,417.8L329.4,417.8z M149,123.8l1.9-0.1
	c-0.5-4.7-1.1-9.4-1.6-14.1l-1.7,0.2C148.1,114.4,148.5,119.1,149,123.8z M270.6,249.3l-1.4,1.1l9.6,10.9l1-0.9L270.6,249.3z
	 M319.4,349.7c0.7,1.8,1.2,3.6,1.6,5.5c0.4,3.7,0.6,7.4,0.9,11l0.6-0.1l0.5-15.9L319.4,349.7z M306.6,399.8l-10.5,10.9l0.5,0.5
	l11.9-10.2L306.6,399.8z M318.4,316.5l1,0.1l-4.2-18.5l-1.2,0.3L318.4,316.5z M153,133.6h1.2c-0.1-5.6-0.3-11.3-0.4-16.9h-1.3
	L153,133.6z M218.9,309.8c-7.9,1.1-8.5,1.7-6.1,5.1L218.9,309.8z M210.5,318.1l1.1,1.4l14-10.2l-0.5-0.6L210.5,318.1z M365.5,377.4
	l-1,0.5l6.2,13.7c-0.5-3.3-0.5-5.8-1.4-8.1S366.8,379.4,365.5,377.4L365.5,377.4z"/>
<path class="st1" d="M153.5,157.4c-0.7-2.1-1.4-4.2-2.3-7.2c-1,1.6-1.5,2.3-1.3,2c-1.8-1.9-3.9-3.5-5.2-5.6
	c-1.4-2.2-2.3-4.5-2.8-7.1c-0.7-3.6-6.7-10-10.6-10.6c-0.4-1.9-0.3-4.2-1.3-5.7c-2.4-3.1-4.9-6.1-7.6-9l-0.7,1.1
	c-1.9-4.7-3.8-9.4-5.9-14.4c-2.7,5.6,5,22.8,14.2,32.3c0.4-1.6,0.8-3.1,1.2-4.6c0.6,3.9,1.2,7.8,1.8,11.7l1.9-0.1
	c0.4-1.6,0.9-3.3,1.5-5.3l1.4,12.6L124,126.2l-5.7,4.6c0-0.3-0.1-0.6,0-0.7c4.9-3.8,3.3-7.6,0.4-11.7c-2.1-2.9-3.4-6.4-5.6-10.5
	l-3.9,7.4l-0.6-0.1c0.3-1.2,0.3-2.8,1.1-3.7c3.4-4,1.8-7.5,0.1-11.7c-7.4-18-14.3-36.1-21.3-54.2c-2.3-6-2.5-6.1-9.8-4.1
	c1.3-0.6,2.5-1.3,3.7-2c1-0.8,1.9-1.7,2.7-2.6c-1.2-0.2-2.4-0.4-3.6-0.5c-0.4,0-0.9,0.1-1.3,0.2l3.3-4.2L81,32l2.2-2.8
	c-0.8-0.3-1.2-0.7-1.6-0.7c-6.2,0.9-6.7,1.6-6.5,8.6c0.2,5.2,0.1,10.3,0.1,16.4l9.2-4.9c-10.1,7.5-9.1,3.7-4.8,17.1
	c0.8,2.7,1.9,5.2,3,8.1l8-3.3c-3.2,2.4-5.3,4-7.4,5.6c-1.3-1.7-2.6-3.5-3.8-5.3l-1.4,0.6c1.5,4.4,2.8,8.9,4.6,13.2
	c0.3,0.8,2.5,0.9,4.2,1.4c-1.2-3.5-2.4-6.8-3.6-10.2c1,1.7,2,3.4,3.1,5.3l5.1-2.7c-2.9,2.4-5.2,4.9-2.9,8.2c-2.2,1.6-4.3,3-6.3,4.5
	l0.3,0.7l2.3-0.7c1,1.1,1.9,2.3,2.7,3.6c0.5,1.4,0.8,2.8,1,4.2l2.1-0.7c-1.1,2.2-2.1,4.1-3,6.1l1.1,1c1.5-1.6,3-3.2,4.5-4.7
	c1.6-1.8,3.3-3.5,5.3-4.9c-1.9,2.7-4.1,5.3-5.8,8.1c-2.7,4.6,0.6,6.2,3.2,6.9l3.6,5.6l1.2-0.5l-1.5,4.7l6.1,2.5
	c-1.2,0.8-3.7,1.6-3.8,2.6c-0.1,1.6,1,3.6,2.2,4.8c2.6,2.6,5.2,5.1,5.1,9.2c0,0.6,1.4,1.7,2.3,1.9c2.2,0.6,4.6,0.7,7.1,1.1
	c-0.1,1.3-0.2,2.6-0.3,4l5.9,0.9l-2.8,5.6l4.4-0.8c-0.8,2.6-1.6,5.1-2.8,9.2l5.9-2.4c0.5,1.5,0.9,3,1,4.5c0,1.8-0.8,3.5-1.3,5.5
	l4.1,0.8c-0.6,2.3-1.1,4.4-1.7,6.8c2.8,0.4,6.7-1.5,6.4,3c-0.2,2.8-1.5,5.5-2.4,8.3l2.1,0.6l2.5-6.9l0.6,0.1c-0.3,2.2-0.6,4.4-1,7
	l4.6-0.1c-0.1,1-0.2,1.9-0.3,3.1l3.2,0.1c-0.4,2.1-0.7,4.1-1.1,6.5l5.9,0.7l-2.8,5.7l4.4,1.3c-1,2.9-2,5.8-3,8.6l1.2,1.2l5.2-2.9
	l-4.1,16.3c7.5-1.1,4.5-7.6,8.5-10.8c-1.2,4.7-2.3,8.4-3.1,12.3c-0.2,1,0.4,2.2,0.6,3.4c0.9-0.8,2.1-1.4,2.5-2.3
	c0.9-2,1.4-4.2,3-6.3c-0.1,1.3-0.1,2.5-0.3,4.4l4.2-1c0.4,4.4,0.7,8.8,1.2,14.4l4.7-4.9c-2,6.4-3.6,11.7-5.3,17.3l4,1.6
	c1-1.9,1.8-3.5,2.7-5.2l0.4,0.1c-0.4,1.8-0.9,3.5-1.4,5.6l4.7,1.9l2.6-7.9l1.1,0.4c-1.1,3.9-2.3,7.8-3.4,11.6c-0.6-1-1-2.3-1.8-2.8
	c-1.1-0.6-2.4-0.7-3.5-0.3c-0.8,0.8-1.1,1.9-0.9,3c0.7,1,1.9,1.7,3.2,1.8c1.1,0,2.1-1.3,3.1-2c0,1.6,0,3.2,0,5l-3.2,0.9l-4.5-1.6
	c-2.9-5.4-4.1-5.7-8.3-1.8c0.2-1.5,0.4-3.1,0.6-4.6l-1.2-3.5l-0.9-3.5l-0.7-2.6l-2.1-3.2l-2.8-1.1l-4.3-1.5
	c-1.1-1.6-1.9-3.5-3.3-4.9c-1.2-1.1-3-1.7-4.8-2.6c-0.4,2.4-0.6,3.8-0.9,5.1l3.3,2l0.2,0.2l0.1,0.2l1,3.1c-3,1.1-8-1.6-8.5,4.3
	c-1.6-1.9,2.1-6.7-3.5-6.1c0.2-1.6,0.4-2.9,0.6-4.3l-5.3-1.7c2.8,8.1,5.3,15.3,7.9,22.5c0.2,0.6,1.1,1,1.7,1.6c0,1.4-0.3,2.9,0,4.2
	c9.3,33,25.3,63.2,39.2,94.2c1.1,2.6,2.4,2.2,4,0.5c-2.1,2.2-2,4.2-0.7,7c12.8,27.6,31.2,50.9,53.9,71.1c3.9,3.4,6.7,3.5,10.9-1.1
	l-8.2-1.6l7.4-2.7l-5.1-1.8l5.1-3.8c1.1,0.1,2.6,0.6,3.3,0.1c2.1-1.8,4.2-3.7,6.1-5.7l4.8-0.2c-0.2-1.1-0.4-2.3-0.6-3.4l-4.5,1.2
	l-5-3.2h-0.2l-1.1,3.6l-4.5-4.2l-1.3-0.2l-2.6-0.7l-4.2-8.9c0.2-0.1,0.3-0.1,0.5,0l1.8,0.4h-0.1c2.6,0,4.6-0.7,4.5-3.9l1.8-1.1
	l4.5-7.7l15.2,6.5l-3.3,3.9c1.1,0.6,2.1,1.2,3.2,1.8c1.9,0.9,3.8,2,5.5,3.2c2.7,2.1,5.1,4.4,7.5,0.2c-0.1,2.7-0.2,5.4-0.4,8.5
	c-0.9,0.5-1.6,1.2-2.1,2.1c-0.4,1,0.1,2.3,0.3,3.5c1-0.6,2.5-0.9,2.9-1.7c1.4-3,2.5-6.3,4.7-9.2c-0.9,3-1.7,6-2.6,9.4
	c6.4-0.1,5-5.6,6.9-8.5c-0.6,3.1-1.2,6.3-1.6,8.3l7.4,1.9c-3.6-1.7-5.7,0.4-8,2.7c3.4,2.2,5,1.6,7.9-2.7l3.3,2l0.5-0.5l-3.4-3.8
	l4.8,2.2l0.4-0.8l-6.8-5.1l0.4-0.7c3.8,2.2,7.5,4.6,11.3,6.7c5.3,2.9,10.8,5.5,16.1,8.3c1.1,0.6,2.1,1.8,3.3,2
	c2.7,0.5,4.6,5.6,8.2,1.5c0.2-0.2,1.6,0.4,2.1,1c5.1,4.7,11.4,6.8,17.9,8.4c1.9,0.5,3.3,2.9,5.2,3.5c7.4,2.4,14.9,4.5,22.4,6.5
	c1.6,0.3,3.3,0.1,4.9-0.5c13.2-4.9,26.6-9.1,39.3-15.1c7.5-3.5,14.1-9.2,20.5-14.7c3.7-3.2,7-7,6.1-13.3c-0.6-4.1,1.5-8.8,3-13
	c2.4-6.4,2.1-12.7,1-19.1c-0.2-1.6-0.2-3.2-0.1-4.9c7.9,18.5,1.5,44.8-15,57c-7,5.2-15,9.1-23,12.5c-13,5.5-26.3,10.3-39.6,14.9
	c-9.9,3.4-20,6-30,9.1c-10.2,3.1-20.2,6.8-30.5,9.5c-4.6,1.2-10.1,1.9-14.5,0.6c-17.9-5.5-34.9-13.2-49.6-25
	c-19.1-15.2-37.1-31.5-50.8-52c-6.8-10.1-13-20.5-18.4-31.4c-9.3-18.8-17.9-37.9-26.2-57.2c-5.5-12.7-10.9-25.5-14.7-38.7
	c-8.5-29.4-22-56.3-38.7-81.9c-23.4-36-43.1-73.9-55.5-115.3c-1.2-4-2.3-8-3.4-12C39.6,53.8,43.6,43.9,56.3,36
	c8.9-5.5,17.8-11,26.7-16.6c6.1-3.9,7.8-3.7,11.5,2.6c5.3,9,10.5,18.2,15.4,27.5c13.2,24.6,30.9,45.7,50.8,65.2
	c15.1,14.8,30.3,29.5,45.3,44.3c1,1.1,1.9,2.3,2.8,3.5c-6.2-5.7-12.8-11-18.7-17c-18.6-18.8-38-37-55-57.1
	c-12.3-14.6-21.4-32-31.8-48.3c-3-4.8-5.5-9.9-8.6-14.6c-0.9-1.4-3.2-1.8-4.9-2.7c-0.7,2-1.5,4-2.2,6l1.6,0.6l1.2-2.3l0.7,0.2
	c-0.7,2.5-1.3,5.1-2.4,9l4.8-3.9c-0.7,5.5-1.2,9.6-1.7,13.7l1.2,0.2l2.4-6.3c-0.4,6.4-0.8,11.9-1.2,17.4l1.5,0.1l1-7
	c0.2,12.5-0.6,25.2,12.1,34c0.6-5.5,1.1-10.3,1.7-15l1.1,0.1c-0.1,2.6-0.3,5.1-0.8,7.6c-1.7,6.7,1,11.1,7.3,13.8l-1.5,0.8
	c0.4,1.1,0.5,2.7,1.3,3.3c4.6,3.5,9.3,6.8,13.6,11l-11.5-7.4l-1,0.4c0.4,1.5,1,3,1.6,4.5c0.1,0.2,1.8-0.4,2.7-0.6
	c0.5,4,10.3,11.8,11.9,11.1l9.6,7.2c-0.1,1.4-0.3,3.5-0.5,6.4l2.6-1.7c1,3.5,1.8,7.1,3,10.5c0.3,0.8,2,1.1,3.8,2
	c0.6,2.6-2.4,7.8,3.9,10.1c0.2-3.6,0.5-6.9,0.7-10.3h0.8c0,3.4-0.2,6.9,0.1,10.3c0.1,1.1,1.2,2.1,1.8,3.2l1.7-1.7
	c0.5,6.9,7.3,7.5,11,11.5c-1.7,2.5-2,4.5,1.4,6.8c5.1,3.4,4.1,9,3.9,14.5c0.7-1.6,1.4-3.3,2.2-4.9l0.9,0.1c-0.2,3.5-0.4,7-0.6,10.5
	l1.3,0.2l2.1-8.1l1.5,0.1c0.1,1.8,0.2,3.5,0.2,5.2c-0.2,4.4,0.8,5.2,4,4.2c2,2.4,3.7,4.5,5.5,6.7c-0.4,1.8-0.8,4-1.2,6.2l1.6,0.4
	l2.2-2.6c-2.3,4.9,1.6,6.8,4.4,9.2l-2.5,4l7.2,9.4l-1.9,5.1l1.3,0.2c2.2,4.9,4.1,9.1,6,13.4l1-0.5c0.1,2.8,0.3,5.6,0.4,8.4l1.2-0.6
	c1,1.5,2.5,2.9,2.7,4.5s-1.1,3.2-2,5.6l5.4-1.9c0.4,1.2,0.5,2.7,1.2,3.7c2.7,3.4,0.3,6.7,0,10c-0.1,0.8,0.6,1.7,1.1,3.1l2.5-3.5
	c1.2,3.3,2.3,6.5,3.4,9.6s2.7,5.9,6.2,7.2c0.1,2.5,0.2,5.5,0.3,8.5c7.2,2,9.6,4.6,10.2,11.4l8.8,2.7c0.1,2.1,0.2,4.2,0.2,5.9l7,3
	l2.3-5.8l0.7,0.1c-0.3,2.1-0.7,4.1-1,6.2c4.8,0.7,8.6,2.9,11,6.5c1.1,1.7,0.4,4.7,0.5,7c-0.9,5.4-1.8,10.7-2.7,16.1
	c-2.7,0.8-2.9,0.8-2.6-1.7c0.4-2.8-0.2-4.5-3.7-4.6c-0.7,2.7-1.4,5.4-2.4,9c-1.5-4.6,4-9.7-2.9-12.3l-3,3.2c0-3.9,2.3-7.9-1.8-11.6
	l-2.5,7.2h-1.4c-0.2-2.6-0.4-5.2-0.7-8.2l-3.1,4c-0.7-3.4,0.2-8.7-4.6-5l-4.4-3.6c1.6-0.4,3.8-0.3,4.5-1.3s-0.1-3.1-0.2-4.7l-5,2.3
	c-0.1-3.2-0.1-6.5-0.2-9.8l-1.8-0.3l-2.9,7.8l-0.7,0c0.2-1.8,0.2-3.7,0-5.5c-0.2-1-1.2-1.9-1.9-2.9s-1.5-1.7-1.5-2.5
	c0.2-4.3,0.1-8.1-6-7.5c-0.5,0.1-1.1-0.6-0.7-0.4c-0.4-3.6-0.7-6.4-1-9.3c4,0.6,2.8-2.9,3.2-4.6c0.2-0.9-1.3-2.2-2-3.3l-1.6,0.4
	l-0.2,7.3l-3.1,2.5c-0.2-1.4-0.4-2.7-0.6-4l-0.1,0.1c1.1-2.7,2.1-5.3,3.2-8c-0.6-7.8-0.9-8.1-6.2-6.7c-0.2-1.3-0.4-2.6-0.5-3.9
	c0.1-1.6-0.2-3.3-1-4.7l-4.3,4.8c-1-3.2,5.1-8.4-3-9.9c0.8-2.4,1.6-4.8,2.6-7.8l-5.6,3.6c0-3.4,0.1-6.2,0.1-10.1l-3.7,2.6
	c0.6-2.2,0.6-4,1.4-5.4c2-3.6-0.7-5.9-2.1-8.4c-0.4-0.7-2.9-0.3-4.9-0.5c1.8-5.9-0.5-10.7-3.8-15.7c-1.7-2.6-0.7-6.8-1.1-10.2
	c-0.2-1.4-0.6-2.7-1-4.1l-1.8,1.2l-1.5-0.4c-2.1-3.8-4.2-7.6-6.2-11.4l-1.1-0.7c0.1,3,0.1,6.1,0.2,9.1l-2.5-0.2
	c1.2-5.9,1.6-11.6-2.3-16.1l-1.8,0.5c0.3,1.2,0.7,2.4,1.3,4.5l-10.8-8.1l0.5-0.8l2.9,0.8l0.9-1l-6.3-6.5l5.3,2.7
	c-0.1-4.5-4.1-5-6.5-7.1c-1.3-1.1-2.4-2.4-3.6-3.6v0.3c0.2-0.2,0.4-0.6,0.6-0.7c0.3-0.1,0.7-0.1,1,0.1c1.3,1.3,2.5,2.6,4.2,4.6
	c1.6-7.3-4-8.2-6.9-11.1l7.1,3c0.7-4.3-2.1-8.7-7.2-10.9L153.5,157.4z M141.8,207.4c-0.4,2.2-0.7,4.4-1.1,6.5
	c4.4,0.9,5.1-0.1,5.2-7.2c-1.5,0.3-2.8,0.6-4.2,0.9c-4.3-1.8-4.9-1.1-5.7,7.5c1.8-1.6,2.9-2.3,3.6-3.3
	C140.4,210.4,141.1,208.9,141.8,207.4L141.8,207.4z M103.3,168.4l-3.8-1.5c0.4-2.2,0.7-3.9,1-5.6c-4.9,2.7-4,8-6.6,11.8
	c1.2-4,2.4-8,3.6-12.1l-1.8,0.1l-4.4-5.5c-1,3.2-1.9,6.1-2.8,9l-1.9-0.4l4.1-9.3l-5.3,0.9c0.4-2.7,0.6-4.3,0.7-5.1l-5.5-0.2l3.4-6.2
	l-4.9-1.9c0.6-2.8,1-5,1.3-6.6l-7.5-2.6c0.7-2.2,1.3-3.9,2-5.9c-1.3,0.1-1.7,0-1.9,0.1c-1.7,1.3-3.3,2.6-5.8,4.6
	c9.2,16.4,18.3,32.8,27.7,49.1c2,3.6,6.8,4.1,10.3,1.4l-6-2.4l4.5-11.1c4.2,0.9,5.7-0.7,6.4-7.2l-5.4-1.9
	C104.2,163.1,103.8,165.7,103.3,168.4L103.3,168.4z M99,184.9c-0.4,0.6-0.7,1.1-1.1,1.7c4.9,7.6,9.5,15.6,15,22.8
	c1.4,1.9,5.8,2.4,8.6,2c1.2-0.2,1.9-4.2,2.8-6.6l-1.5-0.5c-0.8,1.5-1.5,2.9-2.1,4c-0.6-1.6-1.1-3.2-1.7-4.9l-4.2,4.5
	c-0.4-4.3-0.8-8.6-1.3-13.5l-1.8,2.3c-1.6-1.2-3.2-2.4-5-3.8c0.2-1.5,0.5-3.5,0.7-5.2L99,184.9z M114.4,212.1
	c4.4,7.9,8.1,14.7,11.8,21.5c1.7-2.9,2.8-6.1,3.4-9.4c0.3-1.3,0.4-2.6,0.6-3.9l-4.1,1.6c-0.7-2.1-1.6-4.7-2.4-7.2L114.4,212.1z
	 M66.9,129.6l2.2-0.1c0.4-2.8,0.9-5.6,1.2-8.4c0-1.3-0.3-2.6-0.7-3.9l-3,1.5l-8.3-13l-1,0.5L66.9,129.6z M175,171.5l-1.9-0.6
	c-0.4,2.4-1.3,4.9-1.1,7.3c0.1,1.4,1.9,2.6,3,4l1.5-0.8C176,178,175.5,174.7,175,171.5z M128.3,234.5c3.1-0.6,6.6-5.7,5.9-7.5
	c-0.3-0.6-0.8-0.9-1.4-1.1c-0.7,0.1-1.4,0.5-1.9,1.1C130,229.3,129.3,231.6,128.3,234.5L128.3,234.5z M268.5,416.9
	c-0.1,3.1-0.2,5.2-0.3,8.1l6.5-4.8L268.5,416.9z M126.3,162.4c-5.9-0.3-4.9,3.7-6.1,6.5C126,170,124.8,165.6,126.3,162.4z
	 M136.7,205.8c-5.8,0.6-4.7,4.5-6.1,7.7C136.1,213.2,135,209.2,136.7,205.8z M115.7,162.3c-3.9-0.5-3.9-0.5-5,5.6
	C114.5,168.7,114.6,168.6,115.7,162.3z M285.5,466.3c-9.2-7.8-9.2-7.8-12-6.2L285.5,466.3z M168.8,172.9l1.6-0.6
	c0.7-6.3,0.7-6.3-3.8-7.1C167.5,168.1,168.1,170.5,168.8,172.9z M118.9,155c-5.1-1.3-5,2-5.8,4.9C117.8,161.4,117.8,157.9,118.9,155
	z"/>
<path class="st1" d="M396,401c-2.4-3.9-1.1-9.5-5.7-12.5c2.9-1,3.2-3.3,0.6-5.3c-2.3-1.8-4.9-3.3-7.4-4.9l3.6-1.3l3.4,5.2
	c1.4-5.7-1.2-8.4-3.8-11.1c-0.3-0.6-0.5-1.2-0.8-1.9l-4.8-8.9l2.7,0.8c1-4.3-0.2-7.1-4-8.8l3.5-0.1l1-1.3l-6-6.5l-1.7,1.1
	c1,2.2,2,4.4,3,6.6l-2.2,2.4c-0.2-1.2-0.6-2.4-1.1-3.5c-0.2-0.4-1.5-0.1-2.4-0.1l-4.1-5.1c1.1-0.6,2.1-1.3,3.2-2
	c-1.1-2.1-2.2-4.1-3.5-6c0.8-0.7,2.3-1.5,2.2-2c-0.4-2.9-1.2-5.7-1.9-8.5c0-1,0-1.9,0.1-2.9c1.8-3.4,1.2-6.1-2.2-8l3.5-0.2l-3.2-3.8
	l0.4-0.6l9.8,6.4l2.3-6.2l0.8,0.1l-1,7.6l2,0.3l1.4-8.9l9.4,4.4c0.2-3.8,0.3-6.6,0.4-9.2l7.4,2.7l-3.7,10.3l3.6-3.3
	c0,3.1,0,5.7,0,8.6l-3.2,0.9l5.1,3.9l1.8-0.5c-0.4-2.3-0.8-4.6-1.1-7c1.7-1.5,3.8-2.7,4.9-4.5c0.4-0.6-1.6-2.7-2.5-4.1l-1.1,0.5
	c-0.4,2.7-0.8,5.4-1.2,8.1c-0.4-0.5-1.2-1-1.2-1.5c0-4.3,0.3-8.7,0.9-13c0.4-2.4,2.2-4.6,3.7-7.6l-17.1-1v-1.9l18.5-0.2l-0.7,2
	c1.7,1.5,3.2,3.3,5.2,4.3c3.9,2,6.1,6,10.6,7.8l-2.7,2c0.4,0.3,0.7,0.8,1.1,0.9c3.2,0.8,4.2,2.7,2.4,5.5c-2.1,3.1,0,3.6,2.6,4.6
	c0-2.3,0-4.1,0-7.2c4.3,6.7-1,15.2,6.9,20.2c1.2-2.8,2.1-4.9,3-6.9c0.6,2.7,0.6,5.8,2,8c2.1,3.2,2.5,2.9,0.9,6.1l-4.3-4.9l-1.5,0.4
	c-0.5,2.7-2.1,5.8-1.2,7.8s4.4,2.8,6.9,4.3c-4.7,3.4-7.1,14.8-3.4,17.2c1.2-4.6,2.4-9.1,3.6-13.6l1.3,0.3c-0.9,3.7-2,7.4-2.6,11.1
	c-0.2,1.1,0.9,2.3,1.3,3.5c0.9-0.8,2.1-1.4,2.5-2.4c1.4-3.2,2.6-6.5,3.8-9.9l1.4,0.5l-4.2,12.4l1.3,0.5c1-2,2.1-4.1,3.4-6.6
	c1.7,2.6-4.1,8.3,4.1,8.2c-3.7-18-4.1-36.1-14-52.2c-11.7-19.1-22.7-38.7-33.9-58.2c-2.6-4.6-4.5-9.6-6.9-14.4
	c-6.2-12.5-16.7-19.6-30-22.6c-8.8-1.9-17.7-3.3-26.5-5c-1.8-0.3-3.5-0.9-5.2-1.4c1.6-0.1,3.2-0.1,4.8,0c8.5,1.5,17,3.1,25.5,4.7
	c17.1,3.2,27.8,13.9,35.5,29.1c10.8,21,22.2,41.6,34.3,61.9c6.8,11.5,12.3,23.1,14,36.4c1.2,9.2,2.6,18.3,4,27.4
	c-0.7-4.2-4-3.4-7.2-3.6c-0.4,2.2-0.8,4.5-1.6,8.4l7.1-3c-1.5,5-2.9,10.2-4.6,15.2c-0.9,2.7-0.7,3.6,1.9,5c-1.2,1.1-3.2,2-3.7,3.4
	c-0.7,2.1-0.3,4.6-0.4,7.1c-2.9,0.8-2.5,2.9-0.5,5.4l-2.6,2.9l-4.4-6l4.9,0.7c-0.4-1.9-0.3-4.1-1.2-4.6c-1.5-0.9-3.5-0.7-6.8-1.2
	l3.3,5.1l-3.2,3.1c0.3-4.9-3.6-5-7.2-5.8c0.5,2.4,1.1,4.7,2.6,6.3c0.6,0.6,3-0.4,4.6-0.7c0.8,1.5,1.3,3.7,2.5,4.2s3.1-0.7,4.7-1.2
	c0,1.6-0.1,3.2-0.1,5l-12.6-6c0,1.6,0,2.8,0,4l0.2,0.1c-0.6-1.5-1-3.2-2-4.4c-1.4-1.8-3.1-3.5-4.4,0.2c-0.5-1.7-2-4-1.4-4.9
	c2.8-4,0.1-6-2.3-8.2c4.2-0.9,1.2-4.5,2.4-6.4l2,8.3l1.5-0.4c0.2-1.4,0.5-2.8,0.8-4.6c5.9,1.3,4.2-2.9,4.5-5.8l-5.5-2.7
	c2.9-0.3,3.4-2.1,2.6-4.5c-1,0.1-2.1,0.3-3.1,0.6c0-1.8,0-3.6,0-5.5l-6.9-3.4c0.7-1.4,2.2-3.7,1.9-4c-1.3-1.2-3.2-1.9-4.9-2.8h6.2
	c1.5,2,3.1,3.6,5.6,1.4l3.6,1.7l4,3.2c0.2-4.3,3.5-7.6-0.7-11.1l-3.5,8.1c-0.8-3,2.9-6.7-1.5-9.9l-2,8.2c0.1-1.8,0.1-3.6,0-5.4
	c-0.4-1.4-0.9-2.8-1.6-4.1l-3.7,2.8l-3.1-6l4.4-2.7l3.9,6c2.9-10.5,2.8-10.9-2.2-11.3l-1.8,5.6c-0.1-1.3-0.1-2.6-0.1-3.9
	c0.4-3.1-0.7-4.7-5.5-4.2c0.5,3.6,0.9,7.1,1.4,10.6c-0.9,0.7-2.2,1.2-2.5,2.1c-0.6,2.5-1.1,5-1.5,7.5c-0.1-2.3-0.1-4.6,0.1-6.9
	c0.8-4.1-1.2-5.2-5.6-5.2c-0.3,2-0.6,4-1,6l0.7-0.3c-0.9-2.9-1.7-5.8-2.6-8.8l3.5-0.3l4.9,3.6c3.2-9.6,3-10.3-4-11.2
	c-0.3,2.5-0.6,5.1-0.9,7.7c-0.2-3.2-0.4-6.4-0.7-9.6l-2.5,0.1c0,3.2,0,6.5,0,9.7l-2.8-1.2c2.4-8.3,2.3-9.1-1.6-10.3l-2,5.3
	c0-0.9,0-1.9-0.1-2.8c-0.2-1.5-0.3-4-1-4.1c-1.5-0.4-3.4,0.3-5.1,0.5l-2.8-2.1c-0.8,2.3-2,4.5-2.3,6.8c-0.1,1,1.4,2.3,2.5,4.1
	l2.6-9.1c0,1.3,0.1,2.6,0.4,3.8c0.4,1.3,1,3.1,2,3.7c0.9,0.4,2.5-0.7,3.9-1.1c1.2,1.8,2.5,3.5,3.7,5.3l-4.5-0.4
	c0,5.8,0,11.1-0.1,17.5l2.4-1.6c4.2,4.6,8.9,8.8,9.9,15.3c0.1,0.5,1,0.8,0.9,0.7c-0.7,1.5-1.8,2.7-1.6,3.4c0.8,1.6,1.7,3.2,2.8,4.6
	l1.5-0.7l-0.7-10.3l1.2-0.1c0.4,4.8,0.6,9.7,1.4,14.5c0.3,2.1,1.8,4,2.8,6l-2,4.8c-0.5-3.4-1.2-6.8-2.1-10.1
	c-0.4-1.4-2.4-2.2-3.6-3.3c-0.1,1.4-0.4,2.8-0.4,4.2c0,3.2,3.2,5.9,1.2,9.3l-6-5.6l-1.5,1.6l-8.9-9.1L396,401z M385.8,320
	c-0.3,1.2-0.6,2.4-0.9,3.7l-3.4,0.4l5.4,4l1.5-0.8c-0.9-2.3-1.8-4.6-2.7-6.9l3.5-1.9l-2.9-4.5l-2,0.9L385.8,320z M399.5,388.4
	l-2.3-0.7l-0.9,0.9l4.6,7.2l2-1.1l-3.5-6.2c2.4-2.2,1.7-5.5-2-9c3-3.6,2-6.5-4.3-8.9l4,8.6c-0.6,0.5-1.9,1.3-1.8,1.5
	C396.5,383.3,398,385.8,399.5,388.4L399.5,388.4z M439.4,401.5l-3-4.1c-4,5.5-3.9,6,0.1,7.8l3-3.9l-1.4,5l5.6,2
	c0.3-1.7,0.4-3.5,0.4-5.2c-0.2-1.1-0.6-2.2-1.2-3.3L439.4,401.5z M379.4,335l-2,0.3c-1.9,6.3-0.4,10.3,7.2,10.5
	c0.3,0.9,0.8,2.1,1.4,3.9c1.5-9.9,1.2-10.6-4.7-11.8l-1.4,4.6C379.7,339.6,379.5,337.4,379.4,335z M392.9,364.3l4.7,7.3
	c-0.1-4.1-0.8-6.6-0.2-8.8c1.1-4.2-0.6-6.1-5.6-7.3c1.1,2.5,1.9,4.1,2.6,5.6c-3.7,0.1-4.2,1.2-2.6,5.4L392.9,364.3z M400.8,342.6
	c0.4-4,4-8.5-3.3-9.4C394.6,340.8,394.8,341.4,400.8,342.6L400.8,342.6z M415.2,329.2c-2.4,5.9-2.2,6.2,4.2,7.8
	C421.5,331.7,421.4,331.4,415.2,329.2L415.2,329.2z M428.9,346.8l2-0.7c0.3-2.3,1-4.6,0.9-6.8c-0.1-0.9-1.9-1.7-2.9-2.6
	c-0.9,2.1-2.2,4.1-2.5,6.3C426.2,344.2,428,345.6,428.9,346.8L428.9,346.8z M412.7,341c-1.6,6.8-1.3,7.3,4.3,7.5
	C418.7,342.6,418.7,342.5,412.7,341z M428,333.2c0.1-4.4,0-7.9-5.1-8.4C421.8,329.2,422.8,332.1,428,333.2z M422.5,333.7
	c-0.4,3-0.8,5.9-1.3,9.1l2.7,1C427.2,334.8,427.2,334.8,422.5,333.7L422.5,333.7z M429.7,355.6c0.4,4.6-3.2,8.1,1.8,11.9
	C431.3,363.2,435.6,359.7,429.7,355.6L429.7,355.6z M395,330.5l1.4-1.2c-0.4-3.7-3.8-3.8-6.9-5.1l-1.1,10.3l1,0.1l2.5-8.9L395,330.5
	z M436,380.1l1.7,0.2c3.6-4.9,3.6-7.6-0.6-8.9C436.6,374.3,436.3,377.2,436,380.1L436,380.1z M406.2,336.5h-1.9
	c-2.8,5.7-2.7,6.7,2,8.1C406.2,341.8,406.2,339.1,406.2,336.5L406.2,336.5z M374.9,329c3.6-5.3,3-6.6-3.5-8.5L374.9,329z
	 M389.4,358.6l-5-2.7c1.8,3.8-0.5,7.7,4.1,8.8C388.9,362.8,389.1,361.1,389.4,358.6L389.4,358.6z M422.7,351.2
	c1.5-5.4,1.5-5.4-2.6-6.8C418.6,347.4,417.5,350.2,422.7,351.2L422.7,351.2z M428.7,353.3c1.5-3.6,1.4-6-3.2-6.3
	C424.5,350.1,423.5,353,428.7,353.3L428.7,353.3z M404.7,377.3l-1.6,1l4,6.2l1.6-1L404.7,377.3z"/>
<path class="st1" d="M300.8,213.1c-23.3-5.8-45.4-15.6-65.4-28.9c-9.6-6.4-18-14.6-26.9-22c5.5,4.4,11,8.9,16.6,13.3
	c21.2,16.3,45.2,27,70.5,35.2C297.4,211.3,299.1,212.2,300.8,213.1z"/>
<path class="st1" d="M335.5,218.8l-31.3-5c0.6-0.2,1.2-0.7,1.8-0.6C315.8,215,325.6,216.9,335.5,218.8z"/>
<path class="st1" d="M335.4,248.4l-2.4,10.4c-1-1.4,0.1-6.8-4.2-3.3l-2.2-5.2l-1.5,0.4c-0.1,3.7-0.3,7.4-0.5,11.3
	c-3-2-6-4.1-9.1-6.2s-5.9-4.1-9-6.3c-0.9,5.4-0.9,5.4,4.5,9.1c3.2,2,6.1,4.4,8.5,7.2c-5.2-3.6-10.4-7.3-15.8-10.6
	c-2-1.2-4.7-1.5-7.1-2.2c-1.4-2.2-2.8-4.4-4.4-6.8l-1.6,2.8c-0.3-2.1-0.6-3.7-0.9-5.3l-1.9,0.3c0.6,3,0.6,6.3,2.1,8.8
	c0.6,1,4.4,0.1,6.7,0l4.4,6.9l-21-11.2l-0.7,1l9.3,7.3l-0.7,0.8c-6.2-4.5-12.5-9-18.6-13.6c-4.4-3.3-8.6-6.8-13-10
	c-2.9-2.1-4.7-4.4-3.5-8.4c0.3-1-1.3-2.7-2-4l-2.3,1.5c-1.2-5.8-6.5-8.3-12.2-11.7c0.9,2.5,1.6,4.2,2.3,6l-0.8,1.2
	c-6-4-12-7.9-17.8-12.1c-1.2-0.9-1.4-3.3-2-5l8.7,9.4c1-7.9-5.5-7.8-7.9-11.7l-0.8,2.5c-1.4-2.3-2.9-4.6-4.2-7
	c-0.5-1.4-1-2.8-1.3-4.3c-0.4-0.9-0.8-1.7-1.3-2.5l-1.4,0.9c-3.8-5.9-7.5-12-11.6-17.8c-1.3-1.9-3.7-2.9-5.4-4.6
	c-2.3-2.2-5.7-3.7-4.8-8c0.2-0.8-1.3-2-2.8-4.1c0.1,2.4,0.2,3.4,0.3,5.3c-1.5-3-2.4-5.8-4.1-7.6c-1-1-3.4-0.7-6.5-1.2l-5.1-11
	c5.7,5,10.4,9.2,15,13.3c4.2,3.7,8.5,7.3,12.7,11.1c0.6,0.6,0.7,1.7,1.2,2.5c0.9,1.7,1.4,3.7,2.8,4.9c2.7,2.4,6.1,4.1,8.8,6.6
	c2,1.9,3,4.8,4.9,6.9c1.6,1.7,3.8,2.8,5.7,4.2c3.7-4,3.8-7.1-2.6-9.1c0.4-1.1,0.7-2.1,1-3.1c1,1.3,1.7,2.7,2.8,3.6
	c10,7.8,20.1,15.4,30.1,23.1c0.1,0.1,0.1,0.3,0.1,0.4c-0.2,0.2-0.4,0.5-0.6,0.7l-0.9,8c-1.1,3.2-3,6.5,1.9,8.4
	c2.7-3.7,0.9-6.2-2-8.4l3.7,0.6c1.5-4.6,1.5-4.6-2.7-8.6c1.4,0.5,3,0.7,3.9,1.6c0.9,0.9,1.1,2.5,1.2,3.9c0.2,2,0.1,4,0.1,6
	c2.8-0.3,3.3,5,6.9,2.8c0.6,1.4,1.3,2.8,1.9,4.2l2.1-0.6l-1.4-7.8l5-5.5l9.9,7.1c0.2-2.8,0.4-4.8,0.7-7.3c1.2,1.4,4.5,2,1.4,5.8
	c-2.5,3.1,1,4.6,2.6,4.9c2.4,0.4,3.4,1.6,4.5,3.4c0.4,0.6,1.4,0.8,3.4,0.7c-0.7-2-1.3-3.9-2-6l15.1,8.3l-0.1-0.6l5.7,6.4l2.1-6.1
	l22.3,15.3l0.8-0.8l-2.8-4.4l0.5-0.9l15.1,10.4l2.4-4.8c-0.2,2.7-0.8,4.4-0.3,5.7s2.1,1.8,3.9,3.1c0.4-2.8,0.6-4.8,1-7.2l7.1,5.3
	c0.5-2.9,0.8-5,1.2-7.8c6.4,5.4,13,10.7,19.3,16.2c0.8,0.7,0.5,2.6,0.6,3.9s0.2,2.9,0.5,5.8c1.8-2.2,2.5-3.1,2.3-2.9
	c1.4,1.6,3.1,2.9,3.8,4.7c0.5,1.2-0.2,3-0.4,4.6l-2.5-3.9h-1.4c-0.8,3.9-1.5,7.7-2.3,11.8l6.7,2.1c-3.1-4-3.1-7.2-0.4-10.3
	c-1,8.1-0.4,9,7.3,9.5c-0.4-1.1-0.7-2-1.2-3.4c5,1.4,1.6,3.9,1.4,5.9l-15.2-2.6c0.2-6.2,4-11,1.7-16l-2-0.3c-0.1,2.7-0.2,5.4-0.3,8
	l-1.9-0.4c0.5-3.3,0.9-6.5,1.4-9.8l-0.5-0.2c-0.7,3.9-1.4,7.9-2,11.8l-2.4-0.5c-0.1-1.4,0-2.8,0.2-4.1c0.9-2.9-0.6-4.3-2.9-5.5
	c-1.1-0.6-1.8-1.7-2.9-2.1c-1.3-0.5-3.1-1.2-4.2-0.7c-3.2,1.5-5.7,2.2-7.6-1.9c-0.5-1-2-1.6-3.2-2.6c-0.6,1.3-1,2.3-1.5,3.3h0.1
	l-4-8.2c-0.4-2.8-3.1-4.8-5.9-4.4c-0.1,0-0.2,0-0.4,0.1l-2.1,2.6h0.1c-0.7-3.2-1.7-6.1-6-5.7L335.4,248.4z M269.2,234.8
	c1-0.9,2.8-1.9,2.7-2.6c-0.3-1.8-1.5-3.4-2.4-5l-2.1,1l2.1,6.7c-0.4,0.7-1.4,1.9-1.2,2.1c1.1,1.2,2.2,2.3,3.4,3.4l-4.3-1.4l-0.8,1.3
	l11.2,8.4c0.4-0.5,0.8-0.9,1.2-1.4l-7.5-6.9c2.2,1.1,4.5,2.2,7.6,3.8l-2.5-3.9c1.2-3.5,2.3-6.9-2.8-8.4c-2.2,4.1,0.6,6.2,3,8.4
	L269.2,234.8z M305.4,236.7c0.1,4.4,3.3,5.8,7.2,7.8c0-5.6-3.5-6.7-7.2-7.6l-5.3-5.5l-1.9,1.8c1.2,1.6,2.6,3.1,4.1,4.5
	C302.8,238.1,304.3,237.1,305.4,236.7L305.4,236.7z M313.4,236.7c-0.5-3.4-2-6-5.8-6.7c-2,3.3-0.9,5.6,2.1,6.9
	c1,0.4,2.5-0.3,3.7-0.5c0.5,3.4,1.7,6.1,6.4,5.9c-0.6-2.4-1.8-4.6-3.3-6.5C316.3,235.4,314.5,236.3,313.4,236.7L313.4,236.7z
	 M304.9,246.3l7.5,5.8c0.8-6.1,0.5-6.5-6.2-9.3C305.7,244,305.3,245.2,304.9,246.3c-0.3-4.1-1.1-7.8-6.4-8.6
	C296.7,243.6,301.8,244.2,304.9,246.3L304.9,246.3z M283.2,237.9c-4,7.6-3.6,8.5,3.8,12.2c0-3,0.1-5.7,0.1-8.4l-1-0.1
	c-0.4,1.3-0.7,2.6-1.1,4.2C284.3,242.9,283.8,240.4,283.2,237.9L283.2,237.9z M293.7,234c-2.8,8.2-2.4,10.3,2.9,12
	C292.2,242.7,301.1,236.9,293.7,234z M298.5,244.3c-1.6,5.9-0.5,7.5,6,8.7C305.4,248.1,302.3,246,298.5,244.3L298.5,244.3z
	 M277.5,231.6c2.6-7.6,2.5-7.9-2.8-9.8C274.3,225.4,271.6,229.6,277.5,231.6L277.5,231.6z M359.4,246c-2.5,4.5-0.1,6.2,3.5,7.5
	C365.8,249.2,362.8,247.7,359.4,246L359.4,246z M377.8,251.7c-3,4.5-0.2,6.1,3,7.7C383.7,255.4,381.2,253.6,377.8,251.7L377.8,251.7
	z M269.8,217.9c-0.5,3.7-3.1,7.3,2.7,9.6C272.3,223.9,275.8,220.3,269.8,217.9L269.8,217.9z M304.6,232.9c3-4.7-0.2-6-3.5-7.4
	C297.9,230.1,301.4,231.3,304.6,232.9L304.6,232.9z M367.7,243.9c-2.2,3.7-1.8,6.1,2.5,7.3c2.6-3.6,1.8-5.9-2.5-7.4V243.9z
	 M316.1,248l-2.5,1.3l4.5,6.9l2.1-1.2L316.1,248z M377.4,258.1c-3.4,4.5-1.6,6.2,3.3,6.1C379.6,262.1,378.5,260.1,377.4,258.1
	L377.4,258.1z M276.4,215.2c-2.3,3.9-0.5,5.6,2.9,6.7C281.9,218,279.4,216.7,276.4,215.2z M226.2,190c-0.1-1.8-0.1-3.3-0.2-6
	c-3.4,6.5-3,7.6,2.2,8.8c0.4-1.7,0.9-3.4,1.3-5.1l-1.2-0.4C227.6,188,227,188.8,226.2,190z M315.8,228.9c-2.5,4.6,1.1,5.2,3.5,6.7
	C321.4,231.7,319.4,230.1,315.8,228.9L315.8,228.9z"/>
<path class="st1" d="M170.7,267.8l4.5,1.6l3.7,4.9c1.4-2,2.2-3.1,3.7-5.3l-0.7,5.2l5.4,2.6l-0.2,0.8l-6.3-1.9
	c-0.1,1.5-0.2,2.8-0.3,4.1l3.9-0.2c0.4,0.9,1.1,2.3,1.5,3.2c-1,1.1-2.6,2.1-2.7,3.3s1.7,2.1,3.1,3.5c1.1-2.9,1.9-4.9,2.6-6.8
	c-0.8,7.2,1.8,13.1,6.4,18.2l-2.7,1.7c0.8,0.9,1.6,1.8,2.3,2.7c1.7,2,3.3,4.1,5,6c2.2,2.3,4.3,4.8,6.2,7.4l-6.3-4.2
	c-1.4,3.2-1.1,2.7,2.4,5.1c2.9,1.9,5,5.1,7.8,8.1l-7.7-4.1l-0.8,1l7.9,6.3l-0.4,0.7l-3.5-1.5l-0.6,1.2l5.1,3
	c2.8,1.8-3.3,6.9,3.1,8.8l2.4-6.4l1.2,0.4l-4.1,10.4h0.1l-3.6-5.5l-3,5.1c1.2-3.9,0.8-6.9-4.5-7.1c-2.4,3.7-2.8,6.9,1.5,9.6
	l-5.6-0.8c-0.6-2.4-0.2-6.4-4.7-3.4c-1-1.1-2.1-2.1-3.3-3c-1.5-0.9-3-1.8-4.5-2.5h3.9c1.4,2.9,3.4,2.9,5.5,1c2.4-2.2,1.1-3.7-1.1-5
	c-0.8-0.6-1.6-1.2-2.3-1.9c0.2-1.5,0.4-3,0.5-4.4c-1.1-3.2-0.7-5.8,2.1-8.4c2.4-2.3,3-5.4,0.2-8.2c-0.4-3.4-1.7-5-5.1-2.5l-3.9-0.5
	c-0.8-2.1,0.9-5.7-3.5-5.4l-5.7-3.7l1.2-0.5v-1.2l-2.7-1.9c0.6-4.1-2.4-6.2-5-8.5l0.1,0.2H169l-1.8-2.2l-0.8-0.1l0.1,0.1l-1.8-4.6
	c4,1,7,0.2,7.7-4.5c4.4-5.1-0.9-5.9-3.5-7.9L170.7,267.8z"/>
<path class="st1" d="M312,380.2l-4.7-7.8v-0.1l2.6-6.4l2.2,3c0.2-3.7,0.4-6.2,0.6-8.7h1.2c0.1,1.1,0.4,2.1,0.4,3.2
	c0.2,4.4,1.9,7.7,6.5,8.7c4.9,1,5.9,5,7.5,8.7c0.6,1.4,1.4,2.7,2.6,4.9l1.3-3.7l1.5-0.2c0.8,4.5,1.6,8.9,2.5,13.4l1.2-0.3
	c0.1-1.6,0.3-3.2,0.4-5.1c3.2,1.4-0.1,9.2,6.8,6.3c3.3,9,9.7,16.1,16.9,23l-1,0.1l-2.6,5.6l-1.4-5.9l-2.8,4.4
	c-1.3-8.5-9.2-7.7-13.8-11.4c-0.6-2.1,1.6-6.5-4.5-5.2c-1.6,0.4-4.3-3.8-6.4-6c-1.1-1.1-1.8-3.1-3-3.5c-5.3-1.6-5.3-7.1-8.5-10.3
	v0.2c2.4,0.5,3.5-0.5,3-2.8c-0.5-1.7-1.2-3.3-1.9-4.9l-3.1,2.5L312,380.2z M327.3,390.4c0.2-6.4-0.2-7-4.8-7.6
	C323.3,385.9,321.7,390.3,327.3,390.4L327.3,390.4z"/>
<path class="st1" d="M240.9,253.2l3.9,4.6l1.5-1.1l-2.3-5.3l0.7-0.4c2.6,4,5.2,8,7.8,12.1c2.2,3.5,4.3,7.1,6.5,10.6
	c0.3,0.4,0.9,1,0.8,1.2c-2.5,6,3.2,5.9,5.9,6.8c3.4,1.2,6.2,2.4,7.8,5.8c0.6,1.3,2.5,2,3.8,2.9c-2.7,3.9,6.3,16.6,14.6,18.9
	l-4.6,0.8l-0.5,1.1l6.3,3.1l1.1-1l-3.4-8.8l0.8-0.4c1,2.1,1.8,4.3,2.9,6.4s2.6,4.1,4.2,6.6c0,0-0.9,2-0.7,2.1c2.4,1.5,5,2.6,7.2,3.7
	c4.1,7.6,8.3,15.4,12,22.2l-11.6-2.1l8.4-0.8l0.3-1.5l-10.5-3c2.4-2.9,1.2-5.5-3.8-8c0.6,1.7,1.1,3,1.4,3.7l-4.8-5.8
	c0.1-0.3,0.3-0.6,0.5-1l6.3,3c2.2,2.8,2.1,7.9,7.7,8.2c-0.9-5.1-4-6.9-7.7-8.2l2.4-0.6c-0.9-4-6.5-7.6-10.7-7.5
	c-1.5,0-3.1-1.8-4.4-3.1c-1-1-1.1-2.8-2.1-3.6c-3-2.3-6.3-4.4-9.1-7.4l3.5-0.1l0.5-1.7l-12-3.8l4.8-1.2l-7-5.4
	c2.2-4.1-0.8-5.6-3.7-6.8c-2.2-0.7-4.4-1.3-6.6-1.6l4.3-0.7c-2.4-3.7-4.2-7-8.6-6.1l-1.1,1.5l5.7,5.5l-7.4-1.2
	c2.8-0.1,3.6-1.3,1.9-3.6c-1.4-1.7-3-3.2-4.6-4.7l1.5-1.7l-4.6-3.7c4-2.3,1.3-3.8-0.8-5.1c-1.7-0.9-3.5-1.7-5.3-2.3
	c-0.1-2.7-0.3-5.4-0.4-8.1c0.5-1.1,1-2.2,1.5-3.3L240.9,253.2z"/>
<path class="st1" d="M310,365.9l-2.6,6.4l-1.5-1.5l-1.2-2.1l-1.5,0.2l-3.8-3.5l-0.2-0.1c-5.3,4.4-3-2.5-5-3.3l-2,1.8
	c-0.5-1.4-1-2.6-1.5-3.9c3.1-4.2,2.9-6.6-0.9-8.4c-0.5,3-2.5,5.9,1.1,8.4c-0.9,0.8-1.8,1.7-2.5,2.7c-0.8,1.6-1.4,3.2-1.9,4.9
	c-0.6-4.2-1-7.4-1.4-10.6c4.3,0,2.3-3.4,2.7-5.4c0.1-0.7-1.5-1.6-2.4-2.5c-0.9,1.6-1.6,3.2-2.2,4.9c-0.2,0.8,0.4,1.8,0.7,2.7
	c-1.1,2-2.1,4-3.9,7.1c0.9-6,1.6-10.7,2.3-15.4l-1.3-0.3c-0.4,3.9-0.8,7.8-1.1,11.7l-2-0.3c-0.1-2.1-0.2-4.2-0.3-6.2l-1.1-0.2
	l-2.1,3c-0.4-2.3-0.8-4.5-1.2-6.7c0.9-5.4,1.8-10.7,2.7-16.1l5.1-7.3l1.1,0.4c-1,2.5-2,5-3,7.5l2.4,1.3l3-2.8
	c1.7,2.1,3.8,4.4,5.5,6.9c1,1.4,1.2,3.3,2,5.4c7.2-1.6,4.4,5.5,5.8,9.1l1.4-0.7c0.2-1.4,0.4-2.8,0.6-4.2l0.7-0.1l1.3,4.8l0.7,0.1
	c0.1-1.4,0.1-2.7,0.1-2.8c2,1.7,5.3,3.3,6.7,5.9S309.8,362.8,310,365.9z"/>
<path class="st1" d="M249.4,397.6l-4.4,7.7c-0.3-1-0.6-2-0.9-3l3.6-4.4l-4.7-2.2c1.8-3.8,0.9-6.3-3.8-7.2c-0.7,1.4-1.3,2.6-1.9,3.9
	c1-4.1-1.2-6.3-4.5-7.8l5.4-0.9c-3.4-4.8-6.5-5.5-9.6-2.3l-3.5,2.4l-2.8-2.6l-0.4-3.6l-1.1-2.9l-2.8-0.8l-4.9-0.5
	c-0.2-0.3-0.5-0.5-0.9-0.3c-0.6-4.3-3-7.5-6-10.4c7,1.2,7.1,1.1,8.5-6.4l-5.7,1.1c0.4-1.3,0.6-2.7,0.7-4c-0.3-1.2-0.7-2.4-1.3-3.5
	l4.4-2.1h-0.1l2.2,4.6l1.4-0.4l2.2-5.1l0.7,0.2c-0.3,1.7-0.6,3.4-1,5.4c1.4,1,3.6,1.9,4.3,3.4c3.3,7.3,11.2,8.9,16.4,13.8
	c-4.1,4-3.9,5,0.4,8.3c0.7,0.5,1.8,1.1,1.8,1.6c-0.1,8.3,7.6,10.2,12,14.9c0.2,0.4,0.4,0.9,0.5,1.3
	C251.5,395.1,248.3,393,249.4,397.6z M231.4,366.5c-1.7,3.6-2.8,6.7,2.4,7.8C235.5,371,237.3,367.9,231.4,366.5L231.4,366.5z
	 M216.8,367l1.7,0.2c3.8-3.1,3.8-5.9-0.8-8.2C217.4,361.9,217.1,364.4,216.8,367L216.8,367z"/>
<path class="st1" d="M239.6,256.5c0.1,2.7,0.3,5.4,0.4,8.1c-0.5,1.1-0.9,2.2-1.4,3.3c-6.7-9-8.8-19.4-9.6-30.4
	c7.5,1.3,12.8,8.1,12,15.7h0.1l-6-3.8C233.2,254.6,237.6,254.6,239.6,256.5z"/>
<path class="st1" d="M429.2,422.2l8.1,7.8c-1.2,0.8-3.9,1.5-4.4,3c-1.3,3.9-3.5,5.6-7.8,4.9c-0.1-1.2-0.2-2.7-0.4-4.3l-1-0.2
	l-1.5,5.2c-0.5-2.8-1-5.1-1.4-7.4l0.9-4.2c1.9-1.8,2.9-5.5,6.7-3.2l1-1.6L429.2,422.2z"/>
<path class="st1" d="M341.8,337c-0.1,1.6-0.2,3.2-0.3,4.8l-0.9,0.1c-1-5.8-1.6-11.8-3.1-17.4c-1.6-5.8-3.9-11.5-6.8-16.8
	c2.2,10.1,4.4,20.2,6.5,30.2l-1,0.2c-2.3-10.1-5.1-20.2-6.8-30.4c-1.4-8.5-0.8-8.6-6.2-14.1c7.4,3.5,7.7,4,9.1,11.4
	c0.7,3.1,1.6,6.1,2.8,9c2,5.4,4,10.8,6.1,16.2L341.8,337z"/>
<path class="st0" d="M259.1,286.8c2.2,0.4,4.5,0.9,6.6,1.6c2.9,1.2,5.9,2.7,3.7,6.8c-5.5-1-11.1-1.9-16.6-3.1
	c-1.5-0.3-2.8-1.4-4.2-2.1c0-1.4-0.1-2.8-0.1-4.4l3.3-0.1l0.2,0.1l7.4,1.2L259.1,286.8z"/>
<path class="st0" d="M353.2,334.5l0.8-7c0.4-4,0.8-7.9,1.2-12.3l2.4,1.1l-0.2-0.1c0.7,1.4,1.2,2.9,1.6,4.4c0.8,4.4,1.5,8.8,2.2,13.2
	L361,339l-7-2.5L353.2,334.5z"/>
<path class="st1" d="M421.8,427l-0.9,4.2l-1.4,2.8l-5.8-5.2c3.8-3,2.7-7.6,4-11l-14.2-9.2l3.4-1.1c1.6,4.4,3.5,5.5,6.3,3.6l3.7,4.8
	l1.5-5c1.2,3.5-0.9,8.8,5.3,9.4C422.9,422.7,422.3,424.9,421.8,427z"/>
<path class="st1" d="M335.4,248.4l2.9-3c0.1,1.1-0.2,2.4,0.3,3.3c1.1,2.4,2.2,5.5,5.7,2.4h-0.1l3.4,6.8c4.1-4.9,0.7-6.9-1.3-9.4
	c2.8-0.6,5.6,1.1,6.2,3.9c0,0.1,0.1,0.2,0.1,0.4c-0.6,1.9-2.4,4.6-1.7,5.7c0.9,1.5,3.7,1.8,5.7,2.5h-0.1l0.8,4.1l-6.9-4.5l-1.3,3.8
	c-0.9-2.5-1.8-5.1-2.8-7.8l-2.5,0.2c0.3,1.3,0.6,2.6,1,3.9l-0.6-0.4c-1.2-2.8-2.5-5.6-3.7-8.4l-1.7,0.4c-0.4,1.3-0.8,2.6-1.3,3.8
	C336.8,253.5,336.1,251,335.4,248.4z"/>
<path class="st1" d="M215.4,275.8c5.3-1.4,5.6-1.1,6.2,6.7c-4.2,0-5.7,3.5-3.2,8l0.1-0.1c-5.7-3.2-9.5,1.7-14.6,2.5l12.6-6.9
	c-0.9-2.7-1.9-5.6-3-9L215.4,275.8z"/>
<path class="st1" d="M362.2,273.9c4.9,2.5,9.5,6.8,13.5,6.3c5.5-0.6,7.5,4,11.7,4.4C378.4,283,368.5,283.4,362.2,273.9z"/>
<path class="st0" d="M383.6,378.4c2.5,1.6,5,3.1,7.4,4.9c2.6,2,2.3,4.2-0.6,5.3l-11.6-8c0.3-1.1,0.5-2.2,0.8-3.2
	c-0.1-0.8-0.3-1.6-0.5-2.5L383.6,378.4z"/>
<path class="st1" d="M369.9,324.4c0,1-0.1,1.9-0.1,2.9c-4.5,3.1-2.6,6.6-0.8,10.2c0,2.5,0,5,0,7.5l-1.9,2l-1.3-0.2l-2.6,0.6l0.3-2.8
	c-0.2-1-0.5-2-0.7-3c2.7,1.2,4,0.4,3.7-2.5c-0.3-1.7-0.6-3.5-1.1-5.1v0.1l-0.5-9.3v-0.2C366.3,321.1,366.6,321.1,369.9,324.4z"/>
<path class="st0" d="M369.9,324.4c-3.4-3.3-3.7-3.3-5.1,0c-1.3-3.8-2.6-7.7-3.9-11.5l6.9,3.5C371.2,318.3,371.7,321,369.9,324.4z"/>
<path class="st1" d="M325.4,318.8c-4.5-4-3.7-10.7-7.2-15.2l1.2-0.6l2.9,5.9l0.7-0.1c-0.6-3.4-1.2-6.9-1.8-10.3l1.1-0.1l4.3,19.6
	L325.4,318.8z"/>
<path class="st1" d="M388.4,300.8c-4.9,2.6-13.6,2.1-15.9-0.6C375.3,296.9,380.7,297,388.4,300.8z"/>
<path class="st0" d="M153.5,157.4l0.4-2.9c5.1,2.2,7.9,6.6,7.2,10.9l-7.1-3l0.1-0.1L153.5,157.4z"/>
<path class="st0" d="M344.7,329.4l1.7,1.1l3.5,9.8l-0.3,2.6l-3.2-1.6C345.8,337.3,345.2,333.3,344.7,329.4z"/>
<path class="st1" d="M349.8,340.3l-3.5-9.8c0.6-1.2,1.6-2.5,1.6-3.7c-0.1-3.7-0.6-7.5-1-11.2l1.3-0.1c0.3,4.1,0.3,8.2,1.2,12.1
	c0.5,2.4,2.5,4.6,3.8,6.9l0.8,2l-1,2.2L349.8,340.3z"/>
<path class="st1" d="M360.9,312.9c1.3,3.8,2.6,7.7,3.9,11.5v0.2l-3.2-0.3c-1.6,4.5,1.1,7,3.7,9.6v-0.1h-4.1
	c-0.7-4.4-1.4-8.8-2.2-13.2c-0.4-1.5-0.9-3-1.6-4.4L360.9,312.9z"/>
<path class="st0" d="M406.7,407.6l-3.4,1.1L396,401c0.1-1.1,0.2-2.2,0.4-4.3l8.9,9.1L406.7,407.6z"/>
<path class="st1" d="M186,161.6c1.4,4.6,2.9,9.3,4.7,15.1C184.1,173,182.6,168,186,161.6z"/>
<path class="st0" d="M353,338.6l1-2.2l7,2.5l1.8,2.5l0.7,3C358.4,345.5,355.9,341.7,353,338.6z"/>
<path class="st1" d="M347.8,295.6l20.4,4.8c-0.1,0.5-0.3,1-0.4,1.6c-7.7,1.8-13.4-4-20.3-5C347.5,296.5,347.6,296,347.8,295.6z"/>
<path class="st1" d="M377.5,436c14.8,6.3,16.5,12.5,6,19.9c1.4-1.7,2.8-3.5,4.3-5.1c2.2-2.5,1.9-4.9-0.4-7
	C384.6,441.3,381.5,439.1,377.5,436z"/>
<path class="st0" d="M392.2,272.2c-2.6,3.1-2.7,6.2,0.4,10.3l-6.7-2.1c0.8-4.1,1.6-8,2.3-11.8h1.4l2.5,3.9L392.2,272.2z"/>
<path class="st1" d="M357.7,316.3l-2.4-1.1c-0.4,4.4-0.8,8.4-1.2,12.3c-2-5.6-0.9-11.1,0.8-16.6c0.5-1.6,0.5-3.5,1.7-5.3
	c0.1,1.5,0.3,3.1,0.5,4.6C357.2,312.2,357.4,314.3,357.7,316.3z"/>
<path class="st1" d="M344.7,329.4c0.5,3.9,1.1,7.9,1.6,11.9l-4.6-4.3l-0.7-6.7c0.3-2.9,0.5-5.7,0.9-9.3
	C343,324.2,343.9,326.8,344.7,329.4z"/>
<path class="st1" d="M155,169.3l-1.1,1.4l-9.6-15l1.5-1c1.8,2.3,4.1,4.4,5.2,7s1.9,2.3,3.3,0.6c0.3,2.4,0.5,4.8,0.8,7.2L155,169.3z"
	/>
<path class="st1" d="M212.1,219.2l5.4,16.1l-1.7,0.6c-0.2-5.9-6.9-9.7-5.4-16.2L212.1,219.2z"/>
<path class="st0" d="M437.6,413.2l4.4,6v-0.1c-1.6,0.5-3.5,1.7-4.7,1.2s-1.7-2.7-2.5-4.2l-0.1,0.2l3.2-3.1L437.6,413.2z"/>
<path class="st1" d="M334.4,412c2.4,2.9,4.7,5.9,7.4,8.6c1.3,1.4,3.1,2.3,5,2.6c3.9,0.1,7.6,1.8,10.3,4.7c-3.5-0.8-7.9-1.8-12.2-3.1
	c-1.4-0.6-2.7-1.6-3.6-2.8c-2.5-3-4.9-6.1-7.3-9.1L334.4,412z"/>
<path class="st1" d="M185.4,207l1.5,0.4c-1,5.9-2,11.9-3.1,17.9L182,225c0.2-0.8,0.4-1.5,0.6-2.3c1.6-3.9,2.8-7.6,0.8-11.8
	C182.8,209.6,181.5,206.6,185.4,207z"/>
<path class="st1" d="M328,278c-6.9-0.7-12.9-0.4-16.4-6.2c4.5,1.3,9.2,2.6,13.8,4C326,276,326.5,276.8,328,278z"/>
<path class="st0" d="M238.6,267.9c0.5-1.1,0.9-2.2,1.4-3.3c1.8,0.6,3.6,1.4,5.3,2.3c2.1,1.3,4.8,2.8,0.8,5.1l-5.6-1.8l-0.3,0.1
	L238.6,267.9z"/>
<path class="st1" d="M312,380.2l3.5,1.8c0.7,1.7,1.4,3.5,2.1,5.2V387c-0.5,1.1-1.1,2.3-1.6,3.4C316.9,386,305.9,386.3,312,380.2z"/>
<path class="st0" d="M155,169.6c-0.3-2.4-0.5-4.8-0.8-7.2l-0.1,0.1l-0.1,0.1c2.9,2.9,8.6,3.8,6.9,11.1c-1.8-1.9-3-3.3-4.2-4.6
	c-0.3-0.2-0.7-0.2-1-0.1C155.4,169,155.2,169.3,155,169.6z"/>
<path class="st1" d="M141.9,111.1l-7.3-11.3C142.2,101,140.8,106.7,141.9,111.1z"/>
<path class="st1" d="M409.6,280.3l11,19.1l-0.5,0.3l-11.9-18.6L409.6,280.3z"/>
<path class="st1" d="M361.7,429.3c10.5,1,16.8,9.1,13.8,16.8c-0.9-2.9-1.1-7.4-3.4-10.2C369.6,432.8,365.1,431.3,361.7,429.3z"/>
<path class="st1" d="M374.2,371.6l-3.4,2.6c-0.8-1-2.1-2-2.1-3.1c-0.2-3.2,0.1-6.5,0.1-9.8l-0.2-0.1
	C370.2,364.9,368.9,370,374.2,371.6L374.2,371.6z"/>
<path class="st1" d="M251.7,285.6l-3.3,0.1c0,1.6,0.1,3,0.1,4.4c-2.3-4.2-4.9-8.3-6.9-12.6c-1-2.1-1-4.7-1.5-7l0.3-0.1l7,7
	c-2.2-0.6-4.2-0.2-2.4,2.4C246.7,282,249.4,283.6,251.7,285.6z"/>
<path class="st0" d="M239.4,322.2l5-2.3c0.1,1.6,0.9,3.7,0.2,4.7s-2.9,0.9-4.5,1.3C239.9,324.6,239.6,323.4,239.4,322.2z"/>
<path class="st1" d="M339.1,280.1l-12.5-6.1l0.7-1.5L340,278C339.7,278.7,339.4,279.4,339.1,280.1z"/>
<path class="st1" d="M359.8,282l-13.6-5.9C349.7,273.4,355.2,276.1,359.8,282z"/>
<path class="st0" d="M363.2,347.3l2.6-0.6c0.5,2.3,1.1,4.7,1.6,7c0.4,1.9,0,3.3-2.4,2.8C364.4,353.4,363.8,350.4,363.2,347.3z"/>
<path class="st0" d="M283.7,356.6c-0.2-0.9-0.9-2-0.7-2.7c0.6-1.7,1.4-3.3,2.2-4.9c0.8,0.8,2.5,1.8,2.4,2.5c-0.4,2,1.6,5.4-2.7,5.4
	L283.7,356.6z"/>
<path class="st1" d="M365,356.5c2.4,0.5,2.8-0.9,2.4-2.8c-0.5-2.4-1.1-4.7-1.6-7l1.3,0.2l3.5,6.2c-0.6,0.4-1.2,0.8-1.8,1.2
	c1.2,2.5,2.5,4.9,3.8,7.3l-3.9-0.2l0.2,0.1L365,356.5z"/>
<path class="st1" d="M293.5,270.4l-13.4-10.6l0.9-1.1l13.4,10.3L293.5,270.4z"/>
<path class="st1" d="M329.4,417.8c2.4,7-1.5,11.4-6.1,15.6c-0.8,0.6-1.7,0.8-2.6,0.7C326.4,430,330.1,425.1,329.4,417.8z"/>
<path class="st1" d="M149,123.8c-0.5-4.7-0.9-9.3-1.4-14l1.7-0.2c0.5,4.7,1.1,9.4,1.6,14.1L149,123.8z"/>
<path class="st1" d="M270.6,249.3l9.3,11.2l-1,0.9l-9.6-10.9L270.6,249.3z"/>
<path class="st1" d="M319.4,349.7l3.6,0.5l-0.5,15.9l-0.6,0.1c-0.3-3.7-0.4-7.4-0.9-11C320.6,353.4,320.1,351.5,319.4,349.7z"/>
<path class="st1" d="M306.6,399.8l1.9,1.2l-11.9,10.2l-0.5-0.5L306.6,399.8z"/>
<path class="st1" d="M318.4,316.5l-4.4-18.1l1.2-0.3l4.2,18.5L318.4,316.5z"/>
<path class="st0" d="M178.5,263.5c-1,0.7-2.1,2-3.1,2c-1.3-0.1-2.4-0.7-3.2-1.8c-0.3-1.1,0.1-2.2,0.9-3c1.2-0.4,2.4-0.3,3.5,0.3
	c0.9,0.5,1.2,1.8,1.8,2.8L178.5,263.5z"/>
<path class="st0" d="M266.7,215l1.6,7.7l-2.1,0.6c-0.7-1.4-1.3-2.8-1.9-4.2L266.7,215z"/>
<path class="st1" d="M153,133.6l-0.5-16.9h1.3c0.1,5.6,0.3,11.3,0.4,16.9L153,133.6z"/>
<path class="st0" d="M290.8,359.9c-3.6-2.5-1.5-5.4-1.1-8.4c3.8,1.8,3.9,4.2,0.9,8.4L290.8,359.9z"/>
<path class="st0" d="M222.3,291.7l0.2-7.3l1.6-0.4c0.7,1.1,2.2,2.4,2,3.3c-0.5,1.8,0.8,5.2-3.2,4.6
	C222.7,291.8,222.5,291.7,222.3,291.7z"/>
<path class="st1" d="M218.9,309.8l-6.1,5.1C210.4,311.5,211.1,310.9,218.9,309.8z"/>
<path class="st1" d="M210.5,318.1l14.6-9.4l0.5,0.6l-14,10.2L210.5,318.1z"/>
<path class="st1" d="M365.5,377.4c1.3,2,3,3.9,3.8,6.1s0.9,4.8,1.4,8.1l-6.2-13.7L365.5,377.4z"/>
<path class="st1" d="M305.8,370.8l1.5,1.5v0.1c-0.4,1.5-0.8,3-1.4,5.6c-1.1-3.7-2-6.4-2.8-9.1l1.5-0.2c-0.1,0.8-0.3,1.5-0.4,2.3
	L305.8,370.8z"/>
<path class="st1" d="M379.6,377.3l-0.8,3.2c-1.8-1.3-4.1-2.4-2.1-5.2l-0.2-0.1C377.4,376.2,376.8,379.4,379.6,377.3z"/>
<path class="st1" d="M374.2,371.6L374.2,371.6l2.7-0.1c0.4,0.8,0.9,1.7,1.3,2.5l-1.7,1.4l0.2,0.1L374.2,371.6z"/>
<path class="st0" d="M246.3,431.5l-5.1,3.8l5.1,1.8l-7.4,2.7l8.2,1.6c-4.2,4.6-7.1,4.5-10.9,1.1c-22.7-20.2-41.1-43.5-53.9-71.1
	c-1.3-2.8-1.4-4.9,0.7-7l4.8-7.6l14.7,4.4l3.1,0.7c0.1,0.3,0.3,0.6,0.5,1l-2.7,9.1l-5.2,9l5.5,0.8l1.5,2.3l-0.6,1.2
	c1.6-1.1,2.7,6.2,4.7,0.3l2.5,1.4l2.9,0.5v0.5l-5.4,6.7c5.3,3.3,5.3,3.3,8.5-3.8l4.3,0.6l1.4-1.2l2.6,1.2l0.8,4.1l-1.8,4.9l-1.3,1.9
	l-1.1,1.5l1.8,0.6l-0.2-0.1l1.6,0.3l-0.2,0l2.7,4.3c-3.5,6.2-3.5,6.2,2.9,7.6l6.2,3c-3.4,6.5-2.9,7.7,3.1,8.5l5.6,2.5
	C246,430.9,246.2,431.2,246.3,431.5z"/>
<path class="st0" d="M187.7,356.7l-4.8,7.6c-1.6,1.6-2.9,2-4-0.5c-13.9-31.1-29.9-61.2-39.2-94.2c-0.4-1.3,0-2.8,0-4.2
	c4.4,1.7,8.7,4.1,13.5,1c0,0.6,0.1,1.2,0.1,1.9l-1.9,2l4.6,2.3l0.1-0.2l-1.1,2v0.7l-0.1-0.8l1.2-0.1l1.4,4.4c-0.6,1.6-1.2,3.3-1.8,5
	l6.2,2.9c-0.5,1.9-0.9,3.7-1.5,6.1l5.5,2l0.9,2.1l-5.7,7.5l5.4,2.7c-0.9,1.9-1.9,3.9-3,6.4l5.6,1.6l6.4,2.4l1.4,1.3
	c0.4,1.6,0.9,3.3,1.3,4.9l4.2,1.1l2.2,2.2l-0.9,1.7c-1.3,0.9-2.9,1.7-3.9,2.9c-1.2,1.7-2.2,3.4-3,5.3l5.5,2.3l3.1,1.3
	c1.6,0.8,3.1,1.6,4.5,2.5c1.2,0.9,2.3,1.9,3.3,3L187.7,356.7z"/>
<path class="st0" d="M103.8,169.1l-4.5,11.1l6,2.4c-3.4,2.8-8.3,2.1-10.3-1.4c-9.4-16.2-18.5-32.7-27.7-49.1c2.5-2,4.1-3.3,5.8-4.6
	c0.2-0.2,0.6,0,1.9-0.1c-0.7,2-1.2,3.7-2,5.9l7.6,2.6c-0.3,1.6-0.8,3.8-1.3,6.6l4.9,1.9l-3.4,6.2l5.5,0.2c-0.1,0.8-0.3,2.4-0.7,5.1
	l5.3-0.9l-4.1,9.3l1.9,0.4c0.9-2.9,1.8-5.7,2.8-9l4.4,5.5l1.8-0.1c-1.2,4-2.4,8-3.6,12.1c2.6-3.8,1.7-9.1,6.6-11.8
	c-0.3,1.7-0.6,3.4-1,5.6l3.8,1.5l0.2,0.4L103.8,169.1z"/>
<path class="st0" d="M153.1,266.3c-4.7,3.1-9.1,0.7-13.5-1c-0.6-0.5-1.5-0.9-1.7-1.6c-2.6-7.2-5.1-14.4-7.9-22.5l5.3,1.6
	c-0.2,1.4-0.4,2.7-0.6,4.3c5.6-0.6,2,4.2,3.5,6.1l10.5,2.5l2.4,1.8l0.6,4.8c0.3,0.4,0.5,0.8,0.8,1.1c0.6,0.9,1.3,1.8,1.9,2.7
	L153.1,266.3z"/>
<path class="st0" d="M99,184.9l8.2,2.8c-0.2,1.6-0.5,3.7-0.7,5.2c1.9,1.4,3.4,2.6,5,3.8l1.8-2.3c0.5,4.9,0.9,9.2,1.3,13.5l4.3-4.5
	c0.6,1.6,1.1,3.3,1.7,4.9c0.6-1.1,1.3-2.6,2.1-4l1.5,0.5c-0.9,2.3-1.6,6.4-2.8,6.6c-2.8,0.4-7.1-0.1-8.6-2
	c-5.5-7.2-10.1-15.1-15-22.8C98.2,186,98.6,185.4,99,184.9z"/>
<path class="st0" d="M114.3,212.1l9.3,2.5c0.8,2.4,1.7,5,2.4,7.2l4.1-1.6c-0.2,1.3-0.3,2.6-0.6,3.9c-0.6,3.3-1.7,6.5-3.4,9.4
	C122.4,226.8,118.7,220,114.3,212.1z"/>
<path class="st0" d="M131.3,128.8c-0.4,1.5-0.8,3-1.2,4.6c-9.2-9.5-16.9-26.7-14.2-32.3c2,5,4,9.7,5.9,14.4l0.7-1.1
	c2.7,2.9,5.2,5.9,7.6,9c1,1.5,0.9,3.8,1.3,5.7L131.3,128.8z"/>
<path class="st0" d="M66.8,129.6l-9.6-23.3l1-0.5l8.3,13l3-1.5c0.4,1.3,0.6,2.6,0.7,3.9c-0.2,2.8-0.8,5.6-1.2,8.4L66.8,129.6z"/>
<path class="st0" d="M246.3,431.5c-0.2-0.3-0.3-0.6-0.5-1c1.1-2.2,2.1-4.5,3.2-6.7l1.1-3.6h0.2l5,3.2c0.1,0.8,0.2,1.6,0.4,2.4
	c-1.9,2-4,3.9-6.1,5.7C249,432.1,247.5,431.6,246.3,431.5z"/>
<path class="st0" d="M148.7,255.8l-10.5-2.5c0.6-5.9,5.5-3.2,8.5-4.3l3.7,0.9l0.2,1.9L148.7,255.8z"/>
<path class="st0" d="M249.1,423.9c-1.1,2.2-2.1,4.5-3.2,6.7l-5.5-2.5c1-2.5,2-5,3-7.4l1.2-1L249.1,423.9z"/>
<path class="st0" d="M243.3,420.6c-1,2.5-2,5-3,7.4c-6-0.8-6.5-2-3.1-8.5l3.4-0.8l2.6,0.7C243.3,419.8,243.3,420.2,243.3,420.6z"/>
<path class="st0" d="M103.8,169.1l-0.3-0.3l-0.2-0.4c0.4-2.6,0.9-5.3,1.4-8.4l5.4,1.9C109.4,168.4,108,170,103.8,169.1z"/>
<path class="st0" d="M240.6,418.8l-3.4,0.8l-6.2-3l1.8-2.3l3.7-4.4L240.6,418.8z"/>
<path class="st0" d="M83.3,75.8c1.2,3.3,2.3,6.6,3.6,10.2c-1.7-0.5-3.9-0.6-4.2-1.4c-1.8-4.3-3.1-8.8-4.6-13.2l1.4-0.6
	c1.3,1.8,2.5,3.5,3.8,5.2V75.8z"/>
<path class="st0" d="M175,171.5c0.5,3.3,1,6.5,1.5,9.8l-1.5,0.8c-1.1-1.3-2.9-2.6-3-4c-0.2-2.4,0.7-4.9,1.1-7.3L175,171.5z"/>
<path class="st0" d="M170.7,267.8l-1.7,2.1l-0.3,0.2l-7-3.5l0.8-0.7C166.6,262.1,167.9,262.4,170.7,267.8z"/>
<path class="st0" d="M141.7,207.6l4.2-0.8c-0.1,7.1-0.8,8.1-5.2,7.2c0.4-2.2,0.7-4.4,1.1-6.5L141.7,207.6z"/>
<path class="st0" d="M145.4,245.5l-3.3-2c0.2-1.3,0.4-2.7,0.9-5.1c1.8,0.9,3.6,1.5,4.8,2.6c1.4,1.3,2.2,3.2,3.3,4.9l-1.3,0.6
	l0.2,0.1L145.4,245.5z"/>
<path class="st0" d="M128.3,234.5c1-2.9,1.7-5.2,2.6-7.4c0.4-0.6,1.1-1,1.9-1.1c0.6,0.1,1.1,0.5,1.4,1.1
	C134.9,228.8,131.4,233.9,128.3,234.5z"/>
<path class="st0" d="M141.8,207.4c-0.6,1.5-1.4,3-2.2,4.4c-0.7,1-1.8,1.7-3.6,3.3c0.8-8.6,1.4-9.3,5.7-7.5L141.8,207.4z"/>
<path class="st0" d="M268.5,416.9l6.2,3.3l-6.5,4.8C268.4,422.1,268.4,420,268.5,416.9z"/>
<path class="st0" d="M126.3,162.4c-1.6,3.2-0.3,7.6-6.1,6.5C121.5,166.1,120.4,162,126.3,162.4z"/>
<path class="st0" d="M136.7,205.8c-1.7,3.4-0.6,7.4-6.1,7.7C131.9,210.3,130.8,206.4,136.7,205.8z"/>
<path class="st0" d="M115.7,162.3c-1.1,6.3-1.2,6.4-5,5.6C111.7,161.8,111.7,161.8,115.7,162.3z"/>
<path class="st0" d="M285.5,466.3l-12-6.2C276.3,458.5,276.3,458.5,285.5,466.3z"/>
<path class="st0" d="M292.9,427.4c-2.9,4.4-4.5,4.9-7.9,2.7c2.2-2.3,4.4-4.4,8-2.7L292.9,427.4z"/>
<path class="st0" d="M218.5,290.4c-2.5-4.4-1-8,3.2-8C220.6,285.1,219.5,287.8,218.5,290.4z"/>
<path class="st0" d="M168.8,172.9c-0.7-2.4-1.4-4.8-2.1-7.7c4.4,0.8,4.4,0.8,3.8,7.1L168.8,172.9z"/>
<path class="st0" d="M118.9,155c-1.1,2.9-1.1,6.4-5.8,4.9C113.9,157,113.8,153.6,118.9,155z"/>
<path class="st1" d="M161.9,257.8l1.2,3.5c-2.6,1.1-4.3,2.6-2.4,5.6l-2.6,1.7l-0.9,0.4l0.2,0.1c0-1.2-0.1-2.4-0.1-3.6
	c0.4-1.9,0.9-3.7,1.3-5.6l-0.1,0.2L161.9,257.8z"/>
<path class="st0" d="M255.8,425.9c-0.1-0.8-0.3-1.6-0.4-2.4l4.5-1.2c0.2,1.1,0.4,2.3,0.6,3.4L255.8,425.9z"/>
<path class="st0" d="M243.1,406.4c0.1,3.1-1.9,3.9-4.5,3.9l0.1-0.1v0.1l-1.8-0.4c0.1-1.1,0.2-2.2,0.3-3.3l2.8-1.6l-0.2-0.1l2.1,1.2
	l-0.2-0.1l1.6,0.4L243.1,406.4z"/>
<path class="st1" d="M237.3,406.6c-0.1,1.1-0.2,2.2-0.3,3.3c-0.2-0.1-0.3-0.1-0.5,0l-3.7,4.4l-0.8-3.1c2.4,0.3,3.4-0.6,2.9-3
	c0.9-0.5,1.8-1,2.6-1.5L237.3,406.6z"/>
<path class="st0" d="M244,402.3c0.3,1,0.6,2,0.9,3l-1.8,1.1h0.2l-1.6-0.4l0.2,0.1l-2.1-1.2l0.2,0.1c-0.7-2.6,0.5-3.3,2.8-3l-0.2-0.1
	l1.6,0.3L244,402.3z"/>
<path class="st0" d="M158.2,248.4l2.1,3.2l-2.5,1.7l-1.4-0.3l-1-1.9l-0.1,0.2L158.2,248.4z"/>
<path class="st0" d="M160.7,266.9c-2-3-0.3-4.5,2.4-5.6c-0.2,1.5-0.4,3.1-0.6,4.6l-0.8,0.7L160.7,266.9z"/>
<path class="st0" d="M161.9,257.8l-3.4,2.2l0.1-3.7l2.4-2L161.9,257.8z"/>
<path class="st0" d="M150.4,249.9l-3.7-0.9c-0.3-1-0.6-2.1-1-3.1c1.4,0.2,2.8,0.4,4.2,0.7l-0.2-0.1l1.1,1.8l0.1-0.2l-0.3,1.6
	L150.4,249.9z"/>
<path class="st1" d="M150.9,248.2c-0.4-0.6-0.8-1.2-1.1-1.8l1.3-0.6l4.3,1.5v0.3L150.9,248.2z"/>
<path class="st1" d="M158.2,248.4l-2.9,3c0-1.2,0.1-2.5,0.1-3.7v-0.3L158.2,248.4z"/>
<path class="st1" d="M161,254.3l-2.4,2l0.1,0l-0.8-3.2v0.2l2.5-1.7L161,254.3z"/>
<path class="st1" d="M149.9,246.5c-1.4-0.2-2.8-0.4-4.2-0.7l-0.1-0.2c0,0-0.2-0.2-0.2-0.2L149.9,246.5z"/>
<path class="st1" d="M250.2,420.3h0.2H250.2z"/>
<path class="st1" d="M238.8,410.3v-0.1V410.3L238.8,410.3z"/>
<path class="st1" d="M243.3,420.6c0-0.4-0.1-0.8-0.1-1.2l1.3,0.2L243.3,420.6z"/>
<path class="st0" d="M403.5,356l2.8,1.2h-0.2c0.9,2.9,1.7,5.8,2.6,8.8l-0.7,0.3c0.3-2,0.6-3.9,1-6c4.4,0,6.4,1.1,5.6,5.2
	c-0.2,2.3-0.3,4.6-0.1,6.9l0.1,1.4c-1.7,3.6-0.9,6,3.2,6.8l6.9,3.4c0,1.9,0,3.7,0,5.5c1-0.3,2-0.4,3.1-0.6c0.8,2.4,0.3,4.2-2.6,4.5
	c-5.5-1.1-2,3.5-3.2,5.1c-1.3,2,1.8,5.6-2.4,6.4h0.2c-1-2-2.5-3.9-2.8-6c-0.8-4.8-0.9-9.7-1.4-14.5l-1.2,0.1l0.7,10.3l-1.5,0.7
	c-1.1-1.4-2-3-2.8-4.6c-0.2-0.7,0.8-1.9,1.6-3.4c0.2,0.1-0.8-0.2-0.9-0.7c-1-6.5-5.6-10.7-9.9-15.3l-2.4,1.6c0-6.3,0-11.7,0.1-17.5
	l4.5,0.4L403.5,356z"/>
<path class="st0" d="M421.8,398.4c1.3-1.6-2.3-6.2,3.2-5.1l5.5,2.7c-0.3,2.9,1.4,7-4.5,5.8c-0.3,1.8-0.5,3.2-0.8,4.6l-1.5,0.4
	L421.8,398.4z"/>
<path class="st0" d="M378.2,373.9c-0.4-0.8-0.9-1.7-1.3-2.5l0.7-4.1l8.3,2c0.3,0.6,0.5,1.2,0.8,1.9l0.4,5.9l-3.6,1.3l-4.5-3.5
	L378.2,373.9z"/>
<path class="st0" d="M379.4,335c0.2,2.3,0.4,4.6,0.6,7.5l1.4-4.6c5.8,1.1,6.2,1.9,4.7,11.8c-0.7-1.9-1.1-3-1.4-3.9
	c-7.6-0.1-9-4.2-7.2-10.5L379.4,335z"/>
<path class="st0" d="M418.2,411l-1.5,5l-3.7-4.9l-0.1-1.4c2-3.4-1.2-6.2-1.2-9.3c0-1.4,0.2-2.8,0.4-4.2c1.2,1.1,3.2,1.9,3.6,3.3
	c0.9,3.3,1.6,6.7,2.1,10.1C417.9,410.2,418,410.6,418.2,411z"/>
<path class="st0" d="M414.5,373.7l-0.1-1.4c0.4-2.5,0.9-5,1.5-7.5c0.3-0.9,1.6-1.4,2.5-2.1l-0.2-0.1c1,2,2.1,4,3.1,6l-0.4,5.1h-6.2
	L414.5,373.7z"/>
<path class="st0" d="M386,369.4l-8.3-2l-1.3-5.1c0.2-0.9,0.4-1.8,0.6-2.6l2.5-0.1l1.7,1L386,369.4z"/>
<path class="st0" d="M392.9,364.3l-1.1,2.2c-1.7-4.1-1.1-5.2,2.6-5.4c-0.7-1.6-1.4-3.2-2.6-5.6c5,1.2,6.7,3.1,5.6,7.3
	c-0.6,2.2,0.1,4.7,0.2,8.8L392.9,364.3z"/>
<path class="st0" d="M418.2,411c-0.2-0.5-0.4-0.9-0.6-1.3l2-4.8h-0.2c2.4,2.3,5.1,4.2,2.3,8.2c-0.6,0.9,0.9,3.2,1.4,4.9
	c0.2,0.8,0.3,1.6,0.5,2.4C417.3,419.8,419.4,414.5,418.2,411z"/>
<path class="st0" d="M409.6,357c0.3-2.6,0.6-5.2,0.9-7.7c7,0.9,7.2,1.6,4,11.2l-4.9-3.6L409.6,357z"/>
<path class="st0" d="M418.4,362.7c-0.5-3.5-0.9-7-1.4-10.6c4.7-0.5,5.8,1.1,5.5,4.2c-0.1,1.3,0,2.6,0.1,3.9l0.1-0.2l-4.4,2.7
	L418.4,362.7z"/>
<path class="st0" d="M420.9,373.7l0.4-5.1l3.7-2.8c0.7,1.3,1.2,2.7,1.6,4.1c0.1,1.8,0.1,3.6,0,5.4v-0.2
	C424,377.3,422.4,375.7,420.9,373.7z"/>
<path class="st0" d="M393.7,344.5c1.7-0.2,3.6-0.9,5.1-0.5c0.7,0.2,0.8,2.7,1,4.1c0.1,0.9,0.2,1.9,0.2,2.8l0.1-0.2
	c-1.3,0.4-3,1.5-3.9,1.1c-1-0.5-1.6-2.3-2-3.7c-0.3-1.3-0.4-2.5-0.4-3.8L393.7,344.5z"/>
<path class="st0" d="M400.8,342.7c-6-1.3-6.2-1.9-3.3-9.4C404.7,334.1,401.2,338.7,400.8,342.7z"/>
<path class="st0" d="M423.5,420.5c-0.2-0.8-0.3-1.6-0.5-2.4c1.3-3.7,3-2,4.4-0.2c1,1.2,1.3,2.9,2,4.4l-1,1.6
	c-3.8-2.3-4.8,1.4-6.7,3.2C422.3,424.9,422.9,422.7,423.5,420.5z"/>
<path class="st0" d="M422.5,360.3l1.8-5.6c4.9,0.4,5,0.8,2.2,11.3l-3.9-6L422.5,360.3z"/>
<path class="st0" d="M381.2,360.4l-1.7-1l-2-5v0.2l2.2-2.4l0.2,0.2c3.8,1.7,5,4.5,4,8.8L381.2,360.4z"/>
<path class="st0" d="M415.2,329.2c6.2,2.1,6.3,2.4,4.2,7.8C413,335.5,412.8,335.1,415.2,329.2z"/>
<path class="st0" d="M428.9,346.8c-0.9-1.2-2.7-2.6-2.5-3.7c0.2-2.2,1.6-4.2,2.5-6.3c1,0.9,2.8,1.7,2.9,2.6c0.1,2.2-0.5,4.5-0.9,6.8
	L428.9,346.8z"/>
<path class="st0" d="M412.7,341c6.1,1.6,6.1,1.6,4.3,7.5C411.4,348.2,411.1,347.8,412.7,341z"/>
<path class="st0" d="M439.4,401.5l3.4-1.6c0.5,1,0.9,2.1,1.2,3.3c0,1.7-0.1,3.5-0.4,5.2l-5.6-2l1.4-5L439.4,401.5z"/>
<path class="st0" d="M393.7,344.5v-0.2l-2.6,9.1c-1.2-1.8-2.7-3.1-2.5-4.1c0.3-2.3,1.5-4.6,2.3-6.8L393.7,344.5z"/>
<path class="st0" d="M369,337.5c-1.8-3.6-3.6-7.1,0.8-10.2c0.7,2.8,1.5,5.7,1.9,8.5c0.1,0.6-1.5,1.4-2.2,2
	C369.3,337.7,369.2,337.6,369,337.5z"/>
<path class="st0" d="M434.7,416.4l0.1-0.2c-1.6,0.3-4,1.3-4.6,0.7c-1.5-1.6-2.2-3.9-2.6-6.3C431.1,411.3,435,411.4,434.7,416.4z"/>
<path class="st0" d="M397.3,379.4c3.7,3.4,4.4,6.8,2,9l0.2,0.1c-1.5-2.6-3-5.2-4.4-7.8c-0.1-0.1,1.2-1,1.8-1.5L397.3,379.4z"/>
<path class="st0" d="M428,333.2c-5.2-1.1-6.3-4-5.1-8.4C428.1,325.3,428.2,328.9,428,333.2z"/>
<path class="st0" d="M400,351l2-5.3c3.9,1.2,4,2,1.6,10.3l0.2,0.1c-1.2-1.8-2.5-3.5-3.7-5.3L400,351z"/>
<path class="st0" d="M369,337.5c0.1,0.2,0.3,0.3,0.5,0.4c1.3,1.9,2.4,3.9,3.5,6c-1,0.7-2.1,1.4-3.2,2c-0.3-0.3-0.5-0.6-0.8-0.9
	C369,342.4,369,339.9,369,337.5z"/>
<path class="st0" d="M422.6,333.7c4.6,1.1,4.6,1.1,1.4,10.1l-2.7-1C421.8,339.6,422.2,336.6,422.6,333.7z"/>
<path class="st0" d="M430,377.1l3.4-8.1c4.2,3.5,0.9,6.8,0.7,11.1l-4-3.2L430,377.1z"/>
<path class="st0" d="M379.9,352.5l-0.2-0.2c-1-2.2-2-4.4-3-6.6l1.7-1.1l6,6.5l-1,1.3L379.9,352.5z"/>
<path class="st0" d="M412.8,409.8l0.1,1.4c-2.8,2-4.7,0.9-6.3-3.6l-1.3-1.8l1.5-1.6L412.8,409.8z"/>
<path class="st0" d="M409.6,356.8l-3.5,0.3h0.2c0-3.2,0-6.5,0-9.7l2.5-0.1c0.2,3.2,0.5,6.4,0.7,9.6
	C409.9,361.7,409.6,356.8,409.6,356.8z"/>
<path class="st0" d="M429.7,355.6c5.9,4,1.6,7.5,1.8,11.9C426.5,363.7,430.1,360.2,429.7,355.6z"/>
<path class="st0" d="M387.2,377.1l-0.4-5.9c2.6,2.7,5.2,5.4,3.8,11.1L387.2,377.1z"/>
<path class="st0" d="M414.5,373.7l0.2,0.1c1.7,0.9,3.6,1.5,4.9,2.8c0.3,0.3-1.2,2.6-1.9,4C413.6,379.7,412.9,377.3,414.5,373.7z"/>
<path class="st0" d="M395,330.5l-3.1-4.9l-2.5,8.9l-1-0.1l1.1-10.3c3.1,1.4,6.5,1.4,6.9,5.1L395,330.5z"/>
<path class="st0" d="M435.9,380c0.4-2.9,0.7-5.7,1.1-8.7c4.2,1.3,4.2,4,0.6,8.9L435.9,380z"/>
<path class="st0" d="M369,344.9c0.3,0.3,0.5,0.6,0.8,0.9l4.1,5.1v-0.2l-1.9,3.7l-1.4-1.4l-3.5-6.2L369,344.9z"/>
<path class="st0" d="M403.3,321.9c0.4-2.7,0.8-5.4,1.2-8.1l1.1-0.5c0.9,1.4,2.9,3.5,2.5,4.1C407,319.1,405,320.3,403.3,321.9
	L403.3,321.9z"/>
<path class="st0" d="M406.1,336.5c0,2.6,0.1,5.2,0.1,8.1c-4.7-1.4-4.9-2.4-2-8.1L406.1,336.5z"/>
<path class="st0" d="M439.4,401.5v-0.2l-3,3.9c-4-1.8-4.1-2.3-0.1-7.8L439.4,401.5z"/>
<path class="st0" d="M374.9,329l-3.5-8.5C377.9,322.4,378.5,323.7,374.9,329z"/>
<path class="st0" d="M397.3,379.4l-0.3-0.3l-4-8.6C399.3,372.9,400.3,375.7,397.3,379.4z"/>
<path class="st0" d="M437.9,413.2l-3.3-5.1c3.2,0.5,5.3,0.3,6.8,1.2c0.9,0.5,0.7,2.6,1.2,4.6l-4.9-0.7L437.9,413.2z"/>
<path class="st0" d="M430,377.1l0.1-0.3l-3.6-1.7v0.2l2-8.2C432.9,370.4,429.2,374.1,430,377.1z"/>
<path class="st0" d="M389.4,358.6c-0.3,2.5-0.6,4.2-0.8,6.1c-4.6-1.1-2.3-5-4.1-8.8L389.4,358.6z"/>
<path class="st0" d="M385.8,320l-1.4-5.1l2-0.9l2.9,4.6l-3.5,1.9C385.9,320.4,385.9,320.2,385.8,320z"/>
<path class="st0" d="M422.7,351.2c-5.2-1.1-4.1-3.8-2.6-6.8C424.2,345.8,424.2,345.8,422.7,351.2z"/>
<path class="st0" d="M399.3,388.4l3.5,6.2l-2,1.1l-4.6-7.2l0.9-0.9l2.3,0.7L399.3,388.4z"/>
<path class="st0" d="M428.8,353.3c-5.3-0.4-4.2-3.2-3.2-6.3C430.1,347.3,430.2,349.7,428.8,353.3z"/>
<path class="st0" d="M385.8,320c0.1,0.2,0.1,0.4,0,0.5c0.9,2.3,1.8,4.6,2.7,6.9l-1.5,0.8l-5.4-4l3.4-0.4
	C385.3,322.4,385.5,321.2,385.8,320z"/>
<path class="st0" d="M404.8,377.3l4,6.1l-1.6,1l-4-6.2L404.8,377.3z"/>
<path class="st0" d="M373.9,351c0.8,0,2.1-0.2,2.4,0.1c0.5,1.1,0.9,2.3,1.1,3.5v-0.2c-0.8,1.6-1.8,2.7-2.8,0.2
	c-0.4-1.3-0.6-2.6-0.8-3.9L373.9,351z"/>
<path class="st0" d="M283.2,237.9c0.5,2.5,1.1,5,1.8,7.9c0.4-1.6,0.8-2.9,1.1-4.2l1,0.1c0,2.7-0.1,5.4-0.1,8.4
	C279.6,246.4,279.2,245.5,283.2,237.9z"/>
<path class="st0" d="M296.9,253c-2.3,0.1-6.1,1-6.7,0c-1.5-2.4-1.5-5.8-2.1-8.8l1.9-0.3c0.3,1.6,0.5,3.2,0.9,5.3l1.6-2.8
	c1.5,2.4,2.9,4.6,4.4,6.8L296.9,253z"/>
<path class="st0" d="M293.7,234c7.4,2.9-1.5,8.8,2.9,12C291.3,244.3,290.9,242.2,293.7,234z"/>
<path class="st0" d="M298.5,244.3c3.8,1.8,6.9,3.8,6,8.7C298,251.8,296.8,250.2,298.5,244.3z"/>
<path class="st0" d="M304.9,246.4c0.4-1.2,0.8-2.4,1.3-3.6c6.7,2.8,7,3.2,6.2,9.3L304.9,246.4L304.9,246.4z"/>
<path class="st0" d="M277.5,231.6c-5.9-2-3.2-6.1-2.8-9.8C280,223.7,280,224,277.5,231.6z"/>
<path class="st0" d="M313.4,236.4c-1.2,0.2-2.7,0.9-3.7,0.5c-3-1.3-4.1-3.6-2.1-6.9c3.8,0.7,5.2,3.3,5.8,6.7L313.4,236.4z"/>
<path class="st0" d="M271.5,240.3l7.5,6.9c-0.4,0.5-0.8,0.9-1.2,1.4l-11.2-8.4l0.8-1.3l4.3,1.4L271.5,240.3z"/>
<path class="st0" d="M218.3,201.7l0.8-2.5c2.4,3.9,8.9,3.8,7.9,11.7l-8.7-9.4L218.3,201.7z"/>
<path class="st0" d="M304.9,246.3c-3.1-2.1-8.2-2.6-6.4-8.6C303.7,238.5,304.6,242.2,304.9,246.3L304.9,246.3z"/>
<path class="st0" d="M356.6,261c-2-0.8-4.8-1.1-5.7-2.5c-0.7-1.1,1-3.7,1.7-5.7C353.9,255.5,355.3,258.3,356.6,261z"/>
<path class="st0" d="M313.4,236.7c1.1-0.3,2.9-1.2,3.2-0.9c1.5,1.9,2.7,4.2,3.3,6.5c-4.7,0.2-5.9-2.5-6.4-5.9L313.4,236.7z"/>
<path class="st0" d="M359.4,245.9c3.4,1.8,6.4,3.3,3.5,7.5C359.3,252.2,356.9,250.4,359.4,245.9z"/>
<path class="st0" d="M377.8,251.6c3.4,1.9,5.9,3.8,3,7.7C377.6,257.7,374.8,256.1,377.8,251.6z"/>
<path class="st0" d="M269.8,217.9c6.1,2.4,2.5,6,2.7,9.6C266.7,225.1,269.3,221.6,269.8,217.9z"/>
<path class="st0" d="M304.6,232.8c-3.2-1.6-6.8-2.7-3.5-7.4C304.5,226.8,307.6,228.2,304.6,232.8z"/>
<path class="st0" d="M346.3,248.5c2,2.4,5.3,4.5,1.3,9.4l-3.4-6.8L346.3,248.5z"/>
<path class="st0" d="M367.7,243.8c4.3,1.6,5.1,3.8,2.5,7.3C365.9,249.9,365.5,247.5,367.7,243.8z"/>
<path class="st0" d="M305.4,236.9c3.8,0.9,7.3,1.9,7.2,7.6c-3.9-2-7.1-3.5-7.2-7.8L305.4,236.9z"/>
<path class="st0" d="M316.1,248l4,7l-2.1,1.2l-4.5-6.9L316.1,248z"/>
<path class="st0" d="M344.3,251.1c-3.5,3.1-4.6,0-5.7-2.4c-0.4-0.9-0.2-2.2-0.3-3.3C342.6,245,343.5,247.9,344.3,251.1z"/>
<path class="st0" d="M251.1,212.7c2.9,2.2,4.6,4.7,2,8.4c-4.9-1.8-3-5.2-1.9-8.4L251.1,212.7z"/>
<path class="st0" d="M377.4,258.1c1.1,2,2.2,4.1,3.3,6.1C375.9,264.2,374.1,262.5,377.4,258.1z"/>
<path class="st0" d="M276.8,240.1c-2.3-2.3-5.1-4.4-3-8.4c5.1,1.4,3.9,4.9,2.8,8.4L276.8,240.1z"/>
<path class="st0" d="M276.4,215.2c3,1.4,5.5,2.7,2.9,6.7C275.9,220.8,274.1,219.2,276.4,215.2z"/>
<path class="st0" d="M305.4,236.7c-1.1,0.4-2.6,1.4-3.1,1c-1.5-1.4-2.9-2.9-4.1-4.5l1.9-1.8l5.3,5.5L305.4,236.7z"/>
<path class="st0" d="M252.1,204.8c4.2,4,4.2,4,2.7,8.6l-3.7-0.6h0.1C251.5,210.1,251.8,207.4,252.1,204.8L252.1,204.8z"/>
<path class="st0" d="M271.7,240.3c-1.2-1-2.4-2.1-3.4-3.4c-0.2-0.2,0.8-1.4,1.2-2.1h-0.2l7.6,5.3h-0.2l2.5,3.9l-7.6-3.8L271.7,240.3
	z"/>
<path class="st0" d="M269.5,234.9l-2.1-6.7l2.1-1c0.9,1.7,2.1,3.3,2.4,5c0.1,0.7-1.7,1.7-2.7,2.6L269.5,234.9z"/>
<path class="st0" d="M226.2,190c0.9-1.2,1.5-2,2.1-2.8l1.2,0.4c-0.4,1.7-0.9,3.4-1.3,5.1c-5.2-1.2-5.6-2.3-2.2-8.8
	C226,186.7,226.1,188.2,226.2,190z"/>
<path class="st0" d="M315.8,228.9c3.6,1.2,5.6,2.7,3.5,6.7C316.9,234.1,313.3,233.6,315.8,228.9z"/>
<path class="st0" d="M187.7,356.7l5.1-11.1c4.5-3,4.1,0.9,4.7,3.4c-3.6,5.4-3.5,5.7,4.1,9.1c0.3,1,0.5,2,0.8,3L187.7,356.7z"/>
<path class="st1" d="M183.2,328.4l0.9-1.7c1.9-3.5,3.8-7.1,5.7-10.6l4-3c2.8,2.8,2.2,6-0.2,8.2c-2.7,2.6-3.2,5.1-2.1,8.4l-5.2,0.2
	c-0.2,0.1-0.3,0.3-0.5,0.4L183.2,328.4z"/>
<path class="st1" d="M189.8,316.1c-1.9,3.5-3.8,7.1-5.7,10.6l-2.2-2.2c0.1-1.2,0.2-2.5,0.3-3.8l-0.1,0.2l2.1-4.3
	c-0.3-0.1-0.6-0.1-0.9-0.2l-0.4,0.1l-0.2-0.3l-0.2-1.2l-1.8-3.2l4-1.6l3.9,0.5C189.1,312.5,189.5,314.3,189.8,316.1z"/>
<path class="st0" d="M201.6,358c-7.5-3.4-7.7-3.7-4.1-9.1l5.6,0.8l0,0C202.7,352.5,202.1,355.3,201.6,358z"/>
<path class="st0" d="M175.6,301.1l5.7,3.7l-3.2,5.7l-6.3-1.8v-0.4l2.9-6.5L175.6,301.1z"/>
<path class="st0" d="M161.6,286.5l-6.2-2.9c0.6-1.8,1.2-3.4,1.8-5l7.6,2.2c0,0.5,0,1,0,1.5c0.6,1.5,1.2,3.1,1.8,4.6l-4.2-0.6
	C162.1,286.4,161.8,286.4,161.6,286.5z"/>
<path class="st0" d="M166.4,296.7l-0.9-2.1l2-6.1h0.2c-0.1-0.5-0.3-1-0.4-1.6l1.8,2.2V289c2.6,2.3,5.5,4.4,5,8.5l-2.7,0.5l-1.2,0.4
	L166.4,296.7z"/>
<path class="st0" d="M203.2,349.7L203.2,349.7c-4.4-2.6-3.9-5.9-1.5-9.6c5.3,0.2,5.7,3.2,4.5,7.1c0,0.4,0,0.8,0.1,1.2L203.2,349.7z"
	/>
<path class="st0" d="M185,340.1l-3.1-1.3l3.8-6.8l5.2,2.2c-0.7,1.9-1.3,3.9-2,5.9L185,340.1z"/>
<path class="st0" d="M164.8,282.3c0-0.5,0-1,0-1.5l2.6-4.8l5.2,1.8C171.8,282.5,168.8,283.3,164.8,282.3z"/>
<path class="st0" d="M189,340.1c0.7-2,1.3-3.9,2-5.9l0.1-0.1c0.7,0.7,1.5,1.3,2.3,1.9c2.2,1.3,3.5,2.9,1.1,5
	C192.4,343,190.4,343,189,340.1z"/>
<path class="st0" d="M178.1,310.5l3.2-5.7c4.4-0.3,2.8,3.3,3.5,5.4c-1.4,0.5-2.7,1.1-4,1.7l-2.4-0.5
	C178.3,311,178.2,310.8,178.1,310.5z"/>
<path class="st0" d="M172.5,277.8l-5.2-1.8l-0.5-1.4l1.8-4.6l0.3-0.2C171.6,271.9,176.9,272.6,172.5,277.8z"/>
<path class="st0" d="M206.1,348.5c0-0.4,0-0.8-0.1-1.2l3-5.1l3.6,5.5l-4.4,2.1L206.1,348.5z"/>
<path class="st0" d="M189.8,316.1c-0.3-1.8-0.7-3.6-1-5.4c3.3-2.6,4.6-0.9,5.1,2.5L189.8,316.1z"/>
<path class="st0" d="M191,334.1l-0.1,0.1l-5.2-2.2l-0.1-0.3c0.3-0.6,0.5-1.2,0.8-1.9l5.2-0.2C191.4,331.2,191.2,332.7,191,334.1z"/>
<path class="st0" d="M171.3,298l2.7-0.5l2.7,1.9v1.2l-1.2,0.5l-0.9,0.7l-2.7-0.6C171.8,300.1,171.6,299.1,171.3,298z"/>
<path class="st1" d="M162.3,286.2l4.2,0.6l-0.1-0.1v0.1c-0.1,0.4-0.3,0.8-0.5,1.1L162.3,286.2z"/>
<path class="st1" d="M166.4,286.8l0.8,0.1l0.4,1.6l-0.2-0.3l-0.3,0.2l-0.1-0.3h-0.3c-0.1-0.4-0.2-0.8-0.3-1.1L166.4,286.8z"/>
<polygon class="st0" points="169.1,289 169.1,289.1 169.2,289.1 "/>
<path class="st1" d="M176.8,300.6v-1.2C176.8,299.8,176.8,300.2,176.8,300.6z"/>
<path class="st0" d="M317.5,387.2c-0.7-1.7-1.4-3.5-2.1-5.2l3.1-2.5c0.8,1.6,1.4,3.2,1.9,4.9C321.1,386.7,319.9,387.7,317.5,387.2z"
	/>
<path class="st0" d="M327.3,390.4c-5.6-0.1-4-4.4-4.8-7.6C327.1,383.4,327.5,384,327.3,390.4z"/>
<path class="st0" d="M251.7,285.6c-2.3-2-5-3.6-6.7-5.9c-1.8-2.6,0.2-3,2.4-2.4l1.8,0.2c1.6,1.5,3.2,3,4.6,4.7
	c1.7,2.2,0.8,3.5-1.9,3.6L251.7,285.6z"/>
<path class="st0" d="M259.3,286.9l-5.7-5.5l1.1-1.5c4.4-0.9,6.2,2.5,8.6,6.1l-4.3,0.7L259.3,286.9z"/>
<path class="st0" d="M249.2,277.4l-1.8-0.2l-7-7l5.6,1.8l4.7,3.7L249.2,277.4z"/>
<path class="st0" d="M303.5,329.7c3.8,1.2,6.9,3.1,7.7,8.2C305.6,337.7,305.7,332.5,303.5,329.7L303.5,329.7z"/>
<path class="st0" d="M239.6,256.5c-1.9-1.9-6.3-2-4.6-7.1l6.1,3.8C240.6,254.3,240.1,255.4,239.6,256.5z"/>
<path class="st0" d="M305.8,370.8l-1.6,0.2c0.1-0.8,0.3-1.5,0.4-2.3L305.8,370.8z"/>
<path class="st1" d="M299,365.3l0.2,0.1L299,365.3z"/>
<path class="st0" d="M206.1,348.5l2,1.3c0.6,1.1,1.1,2.3,1.3,3.5c0,1.4-0.3,2.7-0.7,4l-3.4,4.4l-3.1-0.7c-0.3-1-0.5-2-0.8-3
	c0.5-2.8,1-5.5,1.6-8.3L206.1,348.5z"/>
<path class="st0" d="M211.6,387l-2.5-1.4l0.7-6.1l1.5-2.5l1.8-3.7l4.9,0.5l0.2,2.8c0.1,0.2,0.1,0.4,0.1,0.6l-4.6,8.9L211.6,387z"/>
<path class="st0" d="M213.6,386.3l4.6-8.9l3.6,0.2c0.1,1.2,0.3,2.4,0.4,3.6c-0.4,0.9-0.9,1.8-1.3,2.7c-1.1,1.5-3.9,2.4-2.1,5.1
	l0.1-0.2l-1.1,0.4l-3.3-1.1v-0.5L213.6,386.3z"/>
<path class="st0" d="M203.2,371.9l2.7-9.1l0.1-0.1c3,2.9,5.4,6.1,6,10.4h-5.9L203.2,371.9z"/>
<path class="st0" d="M206.1,362.7l-0.1,0.1c-0.2-0.3-0.3-0.6-0.5-1l3.4-4.4l5.7-1.1C213.2,363.8,213.1,363.8,206.1,362.7z"/>
<path class="st1" d="M228.5,381.3c3.1-3.2,6.2-2.5,9.6,2.3l-5.4,0.9c-1,1.8-1.9,3.6-2.9,5.4L228.5,381.3z"/>
<path class="st0" d="M229.8,389.9c1-1.8,2-3.6,2.9-5.4c3.4,1.5,5.5,3.8,4.5,7.8l-0.1,0.5l-1,0.4l-6.4-2.9L229.8,389.9z"/>
<path class="st0" d="M229.8,389.9l-0.1,0.4l-3.8,1.3l-2.6-1.2l1.8-6.8l-0.1,0.2l3.5-2.4L229.8,389.9z"/>
<path class="st0" d="M237.1,392.8l0.1-0.5c0.6-1.3,1.2-2.5,1.9-3.9c4.7,1,5.6,3.4,3.8,7.2h0.1L237.1,392.8z"/>
<path class="st0" d="M231.4,366.5c5.9,1.4,4,4.5,2.4,7.8C228.6,373.2,229.7,370.2,231.4,366.5z"/>
<path class="st0" d="M216.8,367c0.3-2.5,0.6-5.1,0.9-8c4.6,2.4,4.5,5.1,0.8,8.2L216.8,367z"/>
<path class="st0" d="M242.9,395.7l4.7,2.2l-3.6,4.4h0.2l-1.6-0.3l0.2,0.1c-0.1-1.3-0.2-2.7-0.4-4c0.2-0.8,0.4-1.5,0.6-2.3
	L242.9,395.7z"/>
<path class="st0" d="M220.9,383.8c0.4-0.9,0.9-1.8,1.3-2.7l2.8,2.6l0.1-0.2c-1.1,1.5-2.2,3-3.2,4.5l0.2,0.1L220.9,383.8z"/>
<path class="st1" d="M206.2,373h5.9c0.3-0.1,0.7,0,0.9,0.3l-1.8,3.7c-3.6-3-2.6,1.6-3.9,2.4C206.9,377.3,206.6,375.2,206.2,373z"/>
<path class="st0" d="M221.8,377.5l-3.6-0.2c0-0.2-0.1-0.4-0.1-0.6c0.9-0.7,1.7-1.4,2.6-2L221.8,377.5z"/>
<path class="st1" d="M220.6,374.7c-0.9,0.7-1.7,1.4-2.6,2l-0.2-2.8C218.8,374.1,219.7,374.4,220.6,374.7z"/>
<path class="st0" d="M362.8,341.5L361,339l0.3-5.2h4.1c0.5,1.7,0.8,3.4,1.1,5.1C366.8,341.9,365.5,342.7,362.8,341.5z"/>
<path class="st0" d="M378.2,373.9l0.9,1c0.2,0.8,0.3,1.7,0.5,2.5c-2.8,2-2.2-1.2-3.1-2L378.2,373.9z"/>
<path class="st0" d="M365.4,333.9c-2.6-2.6-5.3-5.1-3.7-9.6l3.2,0.3C365,327.7,365.2,330.8,365.4,333.9z"/>
<path class="st0" d="M376.3,362.2l1.3,5.1l-0.7,4.1l-2.7,0.1c-5.3-1.6-4-6.7-5.5-10.3l3.9,0.2L376.3,362.2z"/>
<path class="st0" d="M376.3,362.2l-3.7-0.7c-1.3-2.4-2.6-4.8-3.8-7.3c0.6-0.5,1.2-0.9,1.8-1.2l1.4,1.4l5,5.1
	C376.8,360.5,376.5,361.4,376.3,362.2z"/>
<path class="st0" d="M206.2,373c0.4,2.1,0.7,4.3,1,6.4c-0.3,0.2-0.5,0.4-0.8,0.5l-2.9,1.8L198,381l5.2-9.1L206.2,373z"/>
<path class="st0" d="M225.8,391.6l3.8-1.3l6.4,2.9l-1.9,5l-7.6-2.5L225.8,391.6z"/>
<path class="st0" d="M214.4,388l3.3,1.1l-0.1,1.7v0.1c-3.2,7.1-3.2,7.1-8.5,3.8L214.4,388z"/>
<path class="st0" d="M226.6,395.7l7.6,2.5c0.1,0.2,0.2,0.4,0.4,0.7l-1,0.7l-4.3,2.7l-4.4-1.7L226.6,395.7z"/>
<path class="st0" d="M232,411.2l0.8,3.1l-1.8,2.3c-6.4-1.4-6.4-1.4-2.9-7.6h0.1L232,411.2z"/>
<path class="st0" d="M224.8,400.6l4.4,1.7c0.4,1,0.8,2,1.2,3l0.1-0.2l-5.1-0.3l0.2,0l-1.6-0.3l0.2,0.1l-0.7-2.1L224.8,400.6z"/>
<path class="st1" d="M209.7,379.5l-0.7,6.1c-2,5.9-3.1-1.5-4.7-0.3l2,0.6c0.2-0.9,0.4-1.8,0.6-2.6l-0.1,0.2L209.7,379.5z"/>
<path class="st0" d="M221.9,391.5l-4.3-0.5v-0.1l1.2-2.1l-0.1,0.2l3.2-0.8l-0.2-0.1C221.8,389.2,221.8,390.4,221.9,391.5z"/>
<path class="st1" d="M225.4,404.7l5.1,0.3l1.6,2.7l-3.9,1.4h-0.1L225.4,404.7z"/>
<path class="st1" d="M221.9,391.5c0-1.2-0.1-2.4-0.1-3.5c1.1-1.5,2.2-3,3.2-4.5l-1.8,6.8L221.9,391.5z"/>
<path class="st0" d="M207,383.3c-0.2,0.9-0.4,1.8-0.6,2.6l-2-0.6l0.6-1.2L207,383.3z"/>
<path class="st1" d="M207,383.3l-2,0.8l-1.5-2.3l2.9-1.8c0.2,1.2,0.3,2.3,0.5,3.5L207,383.3z"/>
<path class="st1" d="M223.4,402.4l0.7,2.1l-1.8-0.6L223.4,402.4z"/>
<path class="st1" d="M213.6,386.3l0.9,1.3l-2.9-0.5L213.6,386.3z"/>
<path class="st1" d="M224,404.4l1.6,0.3L224,404.4z"/>
<path class="st0" d="M166.9,274.6l0.5,1.4l-2.6,4.8l-7.6-2.2c-0.5-1.5-0.9-2.9-1.4-4.4c0-0.6,0-1.3,0.1-2l-0.1,0.2l1.4-3.5l0.9-0.4
	C160.1,272,162.5,274.8,166.9,274.6z"/>
<path class="st0" d="M185.7,332.1l-3.8,6.8l-5.5-2.3c0.8-1.8,1.8-3.6,3-5.3c1-1.2,2.6-1.9,3.9-2.9l2.6,1.9c-0.1,0.5-0.2,1-0.3,1.5
	L185.7,332.1z"/>
<path class="st0" d="M166.4,296.7l3.8,1.8L170,302l-2.6,4.6l-1.3,0.3l-5.4-2.7L166.4,296.7z"/>
<path class="st0" d="M178.1,310.5c0.1,0.3,0.2,0.6,0.3,0.9l-3.3,5.9l-6.4-2.4l3.1-6.2L178.1,310.5z"/>
<path class="st0" d="M162.3,286.2l3.6,1.8c0.3,0,0.5,0,0.8,0h0.3l0.1,0.3l0.4,0.2l-2,6.1l-5.5-2c0.6-2.4,1-4.2,1.5-6.1
	C161.8,286.4,162.1,286.3,162.3,286.2z"/>
<path class="st0" d="M171.8,308.7l-3.1,6.2l-5.6-1.6c1.2-2.5,2.1-4.4,3-6.4l1.3-0.3l4.4,1.8L171.8,308.7z"/>
<path class="st0" d="M175.1,317.2l3.3-5.9l2.4,0.5c0.6,1.1,1.2,2.1,1.8,3.2c-0.8,0.4-1.5,0.9-2.2,1.3c-1.3,0.7-2.6,1.5-3.9,2.2
	L175.1,317.2z"/>
<path class="st1" d="M176.5,318.5c1.3-0.7,2.6-1.4,3.9-2.2c0.8-0.4,1.5-0.9,2.2-1.3l0.2,1.2c-3,1.2-2.6,2.9-0.7,4.7l0.1-0.2
	c-2.3-0.5-4.1-0.1-4.5,2.7C177.3,321.8,176.9,320.1,176.5,318.5z"/>
<path class="st0" d="M177.8,323.4c0.4-2.8,2.2-3.1,4.5-2.7c-0.1,1.2-0.2,2.5-0.3,3.8L177.8,323.4z"/>
<path class="st1" d="M157.2,269l-1.4,3.5l-4.6-2.3l1.9-2H153l4.3,1L157.2,269z"/>
<path class="st1" d="M155.9,272.3c0,0.6,0,1.3-0.1,2l-1.2,0.1h0.1L155.9,272.3z"/>
<path class="st1" d="M153.1,266.3l1.3,0l-0.2-0.1l-1.2,2h0.2C153.2,267.6,153.1,267,153.1,266.3z"/>
<path class="st1" d="M154.6,274.3l0.1,0.8v-0.7L154.6,274.3z"/>
<path class="st1" d="M158.5,256.3l-0.1,3.7l0.1-0.2l-2.9,3.1h0.2l-1.1-3.7l-3,3.1l-0.6-4.8l2.5-1.7
	C154.8,260,156.7,258.5,158.5,256.3L158.5,256.3z"/>
<path class="st0" d="M153.6,255.9l-2.5,1.7l-2.4-1.8l2-4h0.1l1.6,0.4l-0.2-0.1l1.6,0.3h-0.2l1.2,1.8l0.1-0.2l-1.3,2.2L153.6,255.9z"
	/>
<path class="st0" d="M151.7,262.4l3-3.1c0.4,1.2,0.8,2.4,1.1,3.7l-3.3,0.6C152.2,263.2,151.9,262.8,151.7,262.4z"/>
<path class="st1" d="M152.5,263.6l3.3-0.6h-0.2l0.4,2.3l-1.8,1l0.2,0.1C153.8,265.4,153.1,264.5,152.5,263.6z"/>
<path class="st0" d="M155.4,247.7c0,1.2-0.1,2.5-0.1,3.7l0.1-0.2l-1.8,1.1h0.2l-1.6-0.3l0.2,0.1l-1.6-0.4h-0.1l-0.2-1.9l0.2-0.2
	l0.3-1.6l-0.1,0.2L155.4,247.7z"/>
<path class="st0" d="M166.9,274.6c-4.4,0.1-6.8-2.6-8.8-6l2.6-1.7l1-0.3l7,3.5L166.9,274.6z"/>
<path class="st0" d="M154.2,266.2l1.8-1l-0.2-0.1l1.6,0.4h-0.2c0,1.2,0.1,2.4,0.1,3.6l-4.3-1L154.2,266.2z"/>
<path class="st0" d="M156,265.2l-0.4-2.3l2.9-3.1c-0.4,1.9-0.9,3.7-1.3,5.6h0.2l-1.6-0.4L156,265.2z"/>
<path class="st1" d="M242.4,398l0.4,4c-2.3-0.3-3.5,0.4-2.8,3l-2.7,1.6h0.2c-0.1-0.8-0.3-1.5-0.4-2.3c4.4-3.6,0.7-4.2-1.9-5.2
	L242.4,398z"/>
<path class="st1" d="M239.8,404.9l2.1,1.2L239.8,404.9z"/>
<path class="st1" d="M241.7,406.1l1.6,0.4L241.7,406.1z"/>
<path class="st0" d="M237,404.4l0.4,2.3c-0.9,0.5-1.8,1-2.6,1.5l0.2,0.1l-1.6-0.3h0.2l-1.6-0.3l0.2,0.1l-1.6-2.7l-0.1,0.2l5.4-1.1
	l-0.2-0.1l1.6,0.3L237,404.4z"/>
<path class="st0" d="M228.2,409.1l3.9-1.4l-0.2-0.1l1.6,0.3h-0.2l1.6,0.3l-0.2-0.1c0.5,2.4-0.5,3.4-2.9,3L228.2,409.1z"/>
<path class="st1" d="M242.6,402l1.6,0.3L242.6,402z"/>
<path class="st1" d="M153.6,252.3l1.8-1.1l1,1.9v-0.1l-1.7,1.2L153.6,252.3z"/>
<path class="st1" d="M156.4,253l1.4,0.3v-0.2l-1.4-0.3L156.4,253z"/>
<path class="st1" d="M151,248.1l-0.3,1.6L151,248.1z"/>
<path class="st0" d="M156.4,252.9l1.4,0.3l0.8,3.2c-1.9,2.2-3.8,3.7-5.1-0.5v0.2l1.3-2.2l-0.1,0.2L156.4,252.9z"/>
<path class="st1" d="M377,359.6l-5-5.1l1.9-3.7c0.1,1.3,0.4,2.6,0.8,3.9c1,2.5,2,1.4,2.8-0.2l2,5L377,359.6z"/>
<path class="st1" d="M185.6,331.8c0.1-0.5,0.2-1,0.3-1.5c0.2-0.1,0.4-0.3,0.5-0.4C186.1,330.5,185.9,331.1,185.6,331.8z"/>
<path class="st0" d="M182.2,320.9c-2-1.9-2.4-3.5,0.7-4.7l0.2,0.3l0.4-0.1l0.9,0.2L182.2,320.9z"/>
<path class="st1" d="M184.3,316.6l-0.9-0.2C183.7,316.5,184,316.6,184.3,316.6z"/>
<path class="st0" d="M171.8,308.3l-4.4-1.8l2.6-4.5l2-0.7l2.7,0.6L171.8,308.3z"/>
<path class="st1" d="M172,301.2l-2,0.7l0.1-3.5l1.2-0.4C171.6,299.1,171.8,300.1,172,301.2z"/>
<polygon class="st0" points="167.5,288.5 167.1,288.3 167.5,288.2 167.7,288.5 "/>
<path class="st0" d="M166.7,288c-0.3,0-0.5,0-0.8,0c0.1-0.4,0.3-0.8,0.5-1.1C166.5,287.3,166.6,287.6,166.7,288z"/>
<path class="st0" d="M206.9,383.5c-0.2-1.2-0.3-2.3-0.5-3.5c0.3-0.2,0.5-0.3,0.8-0.5c1.3-0.8,0.3-5.4,3.9-2.4l-1.5,2.5L206.9,383.5z
	"/>
<path class="st1" d="M222,388.1l-3.2,0.8c-1.7-2.7,1-3.6,2.1-5.1L222,388.1z"/>
<path class="st1" d="M218.9,388.7l-1.2,2.1l0.1-1.7L218.9,388.7z"/>
<path class="st0" d="M242.4,398l-7.3,1.1l-0.6-0.2c-0.1-0.2-0.2-0.4-0.4-0.7l1.9-5l1-0.4l5.9,2.9C242.8,396.5,242.6,397.2,242.4,398
	z"/>
<path class="st0" d="M234.5,398.9l0.6,0.2c2.6,1,6.3,1.6,1.9,5.2h0.2l-1.6-0.3l0.2,0.1l-2.4-4.6L234.5,398.9z"/>
<path class="st1" d="M233.5,399.5l2.4,4.6l-5.4,1.1c-0.4-1-0.8-2-1.2-3L233.5,399.5z"/>
<path class="st1" d="M154.8,253.9l-1.3,2.2L154.8,253.9z"/>
<path class="st1" d="M150.8,251.8l1.6,0.4L150.8,251.8z"/>
<path class="st1" d="M152.1,252.1l1.6,0.3L152.1,252.1z"/>
<path class="st1" d="M155.8,265.1l1.6,0.4L155.8,265.1z"/>
<path class="st1" d="M235,408.2l-1.6-0.3L235,408.2z"/>
<path class="st1" d="M233.6,408l-1.6-0.3L233.6,408z"/>
<path class="st1" d="M235.6,404.1l1.6,0.3L235.6,404.1z"/>
</svg>
