<?xml version="1.0" encoding="utf-8"?>
<!-- Generator: Adobe Illustrator 22.0.1, SVG Export Plug-In . SVG Version: 6.00 Build 0)  -->
<svg version="1.1" id="Layer_1" xmlns="http://www.w3.org/2000/svg" xmlns:xlink="http://www.w3.org/1999/xlink" x="0px" y="0px"
	 viewBox="0 0 504 504" style="enable-background:new 0 0 504 504;" xml:space="preserve">
<style type="text/css">
	.st0{fill:#232323;}
	.st1{fill:#FFFFFF;}
</style>
<title>Artboard 4</title>
<path class="st0" d="M417.3,189.3c5.2,7.7,11.1,14.9,15.4,23.1c4.9,9.2,8.1,19.3,12.3,28.9c9.8,22.5,19.9,44.9,31.5,66.6
	c9.5,17.7,12.9,36.9,8.4,57.1c-1.5,6.6-1.8,13.6-3.5,20.1s-3.7,13.7-7.2,19.5c-16.1,26.9-40,41.7-71.2,45.7
	c-25.7,3.3-50.8-0.4-76-3.7c-18.8-2.5-37.6-5-56.5-7.2c-11.6-1.4-23.2-1.9-34.8-3.3c-9.4-1.2-18.8-2.8-28-4.8
	c-8.9-2-17.6-5-26.6-7.1c-12.8-3-22.1-12-32.8-18.6c-15.2-9.6-28.9-21.1-42.2-33.4c-7.8-7.2-17.3-12.3-25.5-19.1
	c-5.4-4.5-9.8-10.1-14.6-15.4c-1-1.1-1.5-2.6-2.5-3.8c-14.5-16.7-22.9-37-33.5-56.1c-3.6-6.5-5.5-13.9-7.9-21
	c-3.6-10.7-7.4-21.4-10.4-32.3c-1.6-5.8-2.7-12.3-1.9-18.1c2.4-17.5,5.9-34.8,8.7-52.2c1.5-9.3,6.4-16.7,12.9-23.1
	c3.9-3.8,7.9-7.6,11.8-11.3c-7.9,7.3-3.3,15.1-1,23l-3.5-2.9l-4.6,7.8l1.3,0.8L39,144l0.7,0.4l-3.7,6.8l4.6-2.8
	c-2.5,4.2-5.5,7.3-1.7,11.2l2.9-4c-5.5,6.4-0.6,13.2-0.6,19.9c-3.4-1.4-3.5-1.2-3.5,5.5l3.5,0.1c-0.7,9.2-1.5,17.9-2,26.7
	c-0.1,2,0.9,4,1.3,6l1.2-0.3c-0.1-7-0.3-14-0.4-21l2.1,0.1c-0.1,1.7-0.3,3.4-0.3,5.1c0.1,2-0.2,4.3,0.6,5.8c4,7.2,7.7,14.5,8.8,22.9
	c0.3,2.5,1,4.9,1.6,7.4l-0.7,0.6l-19-26.1l-1,0.6l4,6.6l-0.5,0.4l-5-4.4c0.7,3.1,1.2,4.7,1.3,6.4c0.1,1.4,0.3,3.8-0.3,4
	c-6,2.5-2.2,4.8,0,7.2c0.3,0.3,0.1,1.1,0.1,3c-0.5-0.8-1.1-1.5-1.7-2.2c-0.5-0.4-1.1-0.7-1.6-0.9c-2,5.1-1.2,6.7,2.4,6.2
	c0.4,4.8-2.9,9.8,0.6,15.9c0.9-4.5,1.5-7.7,2.2-10.9l0.9,0.2c-0.5,4.1-1,8.3-1.8,13.8c1.6-1.9,2.2-2.7,3.6-4.4
	c-1.7,5.2-1.4,8.9,2.8,11.7l4.1-14.6c0,4.4-1,8.5-1.8,12.7c-1,5-0.9,5.1,5,11.1l1-3.4c1.6,5.3-3.4,11.7,3.1,16.4l-4.1-0.7
	c2.6,3.2,4.6,5.8,7,8.9c1.7-7.9,3.2-15.4,4.8-22.9c0.3,9-4.2,17.6-2.9,26.6l1.7,0.2c0.9-4.4,1.9-8.8,2.8-13.1
	c0.9,7.6-3.7,15.4,0,22.8l1.6,0.1l3.1-11.2c-0.5,5.3-1.2,10.5-2.2,15.8c-0.5,3-0.3,5.7,4.1,5.2l4.1-14.7l0.4,0.1
	c-1,5.3-2.1,10.6-3.2,15.9l1,0.2c0.5-1.3,0.9-2.6,1.4-4.1l5.3,1.9c0.5-0.9,1-1.9,1.6-2.8l0.7,0.3l-0.9,5.8l1,0.2l2.1-7.4
	c1.5,4.3-2.9,8.9,2.8,12.9l3.3-11.9l1.2,0.4c-0.6,2.6-1.3,5.1-2.2,7.6c-1.7,4.1-0.6,6.9,2.9,9.4c2.3,1.8,4.5,3.8,6.5,5.8
	c-0.3,0.3-0.6,0.6-0.9,1l-9.5-7.7c-2.8,6.7,5,7,5.8,11.5l-14.9-8.9l-0.9,1.5c9,10.6,20.9,17.3,33,23.8c-3.1-6.1-10.6-6.6-14.9-11.1
	c0.3-0.5,0.6-1,0.8-1.4l18.3,11.2c0.4-0.6,0.7-1.2,1.1-1.7l-18.1-11c2.7-0.8,4.5-1.8,6.2-1.7c6,0.2,11.6,3,15.4,7.6
	c1.5,1.7,3.9,2.6,5.9,3.9c0.4-0.6,0.8-1.2,1.2-1.8l-10.8-8.1c4.5-7,8.2,0.6,12.7-0.1l-3-2.4c1.9-1.9,4.6-3.4,5.3-5.6
	c6.1-18.4,12-37,17.7-55.7c0.8-2.6-0.1-5.7-0.2-8.6l-2.1-0.1l-9.3,33.5l-1.4-0.4l9.8-35.2l-1.1-0.3l-9.7,34.7l-1.4-0.4l7.8-27.9
	l-1.8-0.5L129,301c1.3-13.5,7.1-25.9,8.3-39.3l-2.3-0.6l-8.7,31l-2.2-0.6l7.2-26l-1.8-0.5l-4.3,13c0.1-9.6,6-18.3,2.6-27.7l4-3.5
	l-3-3.5c1.9-3.8,4.8-5.2,9-3.1l-2.6,3.9l0.6,0.6l5.2-3.5l0.6,0.7l-3.2,4.6c0.2,0.2,0.4,0.5,0.7,0.7l8.3-5l0.8,1.4
	c-2.4,1.6-4.9,3.1-7.3,4.9c-2.6,1.9-4.5,4.2-2.7,8.1c1-1.9,1.5-4,2.8-5c2.5-2,5.2-3.6,8.2-4.8c1.4-0.5,3.9,0.3,5.1,1.4
	c0.7,0.7,0.4,3.4-0.3,4.5c-1.2,1.7-3.2,2.9-4.9,4.3l1,1.1l10.1-10c-0.6,6.4-6.2,7.5-7.9,11.5c8.9-4.8,15-12.2,18.5-23.1
	c1.2,2.6,1.6,3.4,2.3,4.9c7.1-7.9,13.2-15.7,16.6-26.9l-10,6.1l0.1,0.1c2.7-2.3,5.6-4.5,8.1-7c1.3-1.4,2.3-3,3.1-4.7
	c0.8-1.6,0.7-4.5,1.8-5c4.8-1.9,8.6-5.6,10.5-10.3c0.2-0.6,1-0.9,1.5-1.3c3.3-2.7,6.9-5,9.7-8.1c2.2-2.5,3.2-5.9,5-9.5
	c-7.3-0.3-9.2,3.9-11,8.4c0-1.4,0-2.8,0.1-5.4l-17.7,9.4l-0.8-1.4c5-2.5,9.8-5.3,14.9-7.6c4.5-2,6.6-5.1,6.2-10.8
	c-2.9,1.1-6.1,1.4-7.9,3.1s-2.1,4.6-2.8,6.1l-2.9-5.1l0.1,0.1c4.6-2.9,5.6-7.2,5.4-12.1c-6.1-1-6.2,4.1-8.2,8.6c0-2.8,0-4.2-0.1-6.3
	l-16.9,6.9c4.5-3,9.3-5.4,14.4-7.2c4-1.4,4.8-3.9,4.2-8.7l-5.4,3.7l-11.6,1.5l6.5-3.1c0.1-0.5,0.1-0.9,0.2-1.4l-6.5-2.6l-1.7-5
	l-5,12.8c0.4-4,0.6-6.5,0.8-9l-0.9-0.1l-2.1,5.2l-0.6-0.2c0-1.3,0-2.7,0-4.1l-5.1,0.7l0.1,0.1l7.3-4.5l-4.9-1.4c-1-1.4-2.1-4-2.9-4
	c-2.9,0.2-5.9,1.4-8.7,2.3c-2.3,0.8-4.5,1.8-6.8,2.7l-0.3-1l13.8-6.3c0-0.5-0.1-1.1-0.2-1.6h-4.6c0.1-0.4,0.2-1.6,0.3-2.8l-13.8,3.7
	c3.2-5.8-2.1-6.9-4.3-8.4c-2.5-1.8-6.2-4.8-10-0.8l5.8,5.8c-4.9-0.6-6.2-7.4-11.7-4.1c1.3,1.7,2.5,3.1,3.6,4.5
	c-4.6-5.5-9.1-2.8-13.7-0.3c-4,2.2-8.1,4.1-12.2,6.1l-0.4-0.6l7.9-5.1c-3.3-4-6.2-7.6-9.4-11c-0.8-0.9-2.4-1-3.6-1.5
	c0.2,1.4,0,3.2,0.7,4.2c1.9,2.7,4.2,5.1,6.3,7.6c-2.8-1.3-4.4-3.7-6.6-5.3s-3.9-5.4-7.9-3.5c2.9-4-0.5-5.7-2.7-7.9
	c-2.9,3.7-2.3,5.1,2.9,7.8l6.1,9.4c-2-0.9-3.3-2.5-4.9-3.9s-2.9-2.4-4.4-3.6l-1,1.2l3.4,5.5l-7.9-5.3l0.1,0.1
	c-0.8-5.3-6.6-10.4-10.7-9.1l2.3-8.2l-7.3-0.6l0.1,0.1c1.7-0.3,3.4-0.6,5-1c5.4-1.3,5.8-6.2,7.6-10.2c0.7-1.6,1.2-3.7,2.4-4.7
	c2-1.6,4.6-2.6,7.2-4c-0.9,2.7-1.9,5.4-2.9,8.2l1.4,0.4c1-3.6,2-7.1,2.9-10.7c0-0.2-1.3-0.7-2-1l8.3-3.9c-3.2,2.4-7.6,13.5-6.7,17.8
	c2.1-4.7,3.9-8.9,5.8-13.2l1.6,0.7l-4.3,9.9l1.3,0.7l8-15.5l1.4,0.7c-0.3,1.4-0.7,2.9-1,4.3l1.3,0.9l7-8.5l-0.6,5.4l1,0.6l5.4-7
	l0.9,0.6l-1.3,4.6c5.2-0.3,5-3.6,5-7.8L97,84.5c1.1-0.7,2.1-1.7,3.3-2c16.2-4,32.5-8.5,49.2-5.7c10.8,1.9,21.2,5.2,31.2,9.7
	c12.7,5.5,25.2,8.1,39.1,6.9c18.7-1.7,37.6-3.6,56.2-2.2c21.9,1.6,43.4,6.8,62.1,19.4c2.3,1.5,4.1,3.7,6.1,5.6
	C323.5,100,299,93.6,273.6,92c-18.6-1.2-37.5,1.3-56.3,2.7c-10.9,0.8-21.1-0.3-31.2-4.7c-9.5-4.3-19.3-8-29.2-11.2
	c-10.5-3.2-21.5-2-32.1,0c-1.4,0.3-2.3,3.3-3.4,5.2c-0.1,0.1,0.2,0.5,0.5,1l2.4-2.9l2.4,3.2l3.5-6.6c0.6,2.4,0.9,3.8,1.4,6.3
	l5.4-5.5l1.4,3.2c2.9-0.9,5.5-1.9,8.3-2.6c0.8,0,1.6,0.3,2.1,0.9c0.3,0.7,0.3,1.5,0,2.1c-0.6,0.9-1.2,1.7-1.9,2.4l1.2,1.2l4.3-3.9
	l2.1,3.9l2.8-6L158,81c0,1.7,0.1,3.3,0.1,5.6l2.5-1.6c2.2,1,3.6,1.8,5.1,2.4c2.9,1.1,5.8,2.2,4.3,6.3c-1.1,2.9,0.4,4.5,3.1,5.1
	s5.1,1.5,5.2,4.9c0.1,0.8,0.6,1.5,1.4,1.9c3.4,1.6,6.9,3,10.5,4.3c2,0.8,4.2,1.2,6.3,1.8c0,0.3-0.1,0.7-0.2,1l-8.9-0.9l-0.6,1.5
	l16.5,8.9c0-0.3,0.1,0.3,0.1,1c-0.4,4.7-0.2,7.9,6.3,5.6c2.8-1,6.5,0.5,9.8,0.9c-10,1.9-10,1.9-9.1,10.8l6.6-4.6l7.5,5.3l1.9,6.7
	l5.1-2.7l6.5,8.7l-2.4,6l1.5,0.7l2.4-2.8l5.8,4.5c-1.1,0.2-2.1,0-2.5,0.5c-0.9,1-1.6,2-2.3,3.1l1.2,0.9l4.4-1.7
	c-0.1,4.3-0.3,8.1-0.4,12.8l6.1-4c-0.4,3.5-0.7,6.2-1,9c2.8-3.5,4.9-1.6,7.1,0c4.9,3.7,0.4,7.9,0.8,11.9c-0.8-1.2-1.5-2.5-2.9-4.7
	l-1.7,6c-1.5-1.2-3.6-3.2-3.9-3c-1.8,1.7-3.4,3.6-4.9,5.6c-0.1-0.4-0.5-1.6-1-3c-4.8,1.4-5.1,4.5-4.4,8.6l68.3-23.8l-5.8-7.5
	c3.4,1.6,5.9,4,8.5,6.2c1.1,1,2.4,1.8,3.9,2.1c10.9,1.1,21.9,2,32.8,3c3.2,0.3,6.4,0.5,10.3,0.8l-5.7-9.5l0.8-0.6
	c1.9,2.1,3.8,4.2,5.7,6.3l0.6-0.6l-1.4-3.6l1-0.4l8.1,11.1l0.7-5.8l4.9,6.7c0-2.4-0.1-3.5-0.1-5.6l4.5,5.4c2.4-3.7,0-5.2-2.4-6.5
	c-9.2-5-18.4-10.1-27.8-14.6c-5.3-2.5-11.1-3.8-16.7-5.6c-2.6-0.9-5-2.7-7.7-3.5c-5.6-1.6-11.3-2.4-16.9-4c-5.7-1.6-11.2-4-17-5.6
	c-2-0.6-4.4,0.2-6.6,0.4c-2.9-1.4-6-2.6-9.1-3.6c-2.4-0.8-4.8-1.8-7.3-2.6l0.3-1.5l-5.3,1.3c-4.7-5.8-9.2-11.8-14.2-17.3
	c-4.6-5.1-9.7-9.8-14.6-14.7c0.1-0.4,0.2-0.8,0.3-1.2l13.5,0.7v1.2l-8.4,0.6l0.1,1.5l11.9,0.8v1l-8.4,0.8c4.3,7.9,11.9,3.4,18.1,6.3
	l-4.9,0.8c-0.1,0.6-0.3,1.2-0.5,1.7l10.4,4.4l1.9-1.9l-4.1-4.4l1-1.4c5.7,12.2,15.3,13.6,26.9,11.6l4,2.4l0.7-0.9l-4.5-5.8l4.4-1.9
	l-12.3-1.9c6.5-2.2,13.2-0.2,15.1,3.8l-3.9,1.6c5.7,6.8,16.2,10.7,20,8.2l14.6,9l1-1.1l-17.1-17.6l1.1-1c6,6.4,11.8,12.9,18,19
	c1.6,1.6,4.3,2.4,6.6,3.1c2.1,0.6,4.5,0.4,6.7,1c1.7,0.5,3.2,1.8,4.8,2.7l0.5-0.8l-3.4-4.8l0.7-0.6l6.7,6.9l0.7-0.7l-1.9-3.1
	c3.7,2.8,6.9,6.1,10.2,9.2c6.1,5.7,12.4,11.2,18.7,16.8c4.8,4.3,9.9,8.3,8.4,16.3c-2.6-1.8-5.4-3.8-8.8-6.1
	c1.1,4.7,12.5,11.3,19.8,11.8l-1.9-13.8l1.2-0.2l2.8,14.5l1.1-0.1l-0.3-11c3.7,6-0.3,13.8,4.7,19.2l1.5-0.2v-18.7h1
	c0.3,5.7,0.5,11.5,0.8,17.2l0.6,0.1c0.4-1.2,0.8-2.5,1.6-5c0.5,4.8,0.8,8.3,1.2,11.8l1.9-0.1c0.4-4.3,0.8-8.6,1.3-12.9h1l-0.1,13.3
	l1.3,0.1c0.4-1.3,0.7-2.6,0.8-4C420.9,201.8,422.3,195,417.3,189.3z M350.7,296.6c-1.6,0.2-4.1,0-4.5,0.8c-0.8,1.5-0.3,3.7-0.3,5.6
	c5.6-0.4,4.8-3.7,4.8-6.6l2.5,3.2h1.5l0.9-6.6l-1.8-0.7L350.7,296.6z M134.1,116.8l-1.4-5c-1.3,1.1-3.3,2-3.6,3.2
	c-0.3,1.5,0.9,3.3,1.7,5.7l3.4-4.1c-0.1,2.4-2.6,5.5,2.9,7.3c0.4-2.6,0.9-5.1,1.3-7.6L134.1,116.8z M279.9,247.1l-8.1-3.4
	c2,5.2,4,8.2,9,7.9C280.4,249.9,280.2,248.5,279.9,247.1c2.2,2.6,2.9,7.4,8.7,6.1c-1.7-2.7-3.2-5.2-4.7-7.5L279.9,247.1z
	 M336.7,316.8c-4.9,3.8-5.2,5.4-1.5,8.8l-1.4,7.7c-0.7-1.6-1.3-3-2-4.7c-3.8,2.5-1.2,5.1-0.9,7.5c0.4,3,3.9,6-0.2,8.9
	c-0.5-3.9-1.1-7.8-1.6-11.7l-2.2,0.5c0.7,3.9-0.7,8.4,4,11.1l-8.3,4.6c5.9-3.7,4-8.7,2.6-12.9l-13.5,6.5l0.7,1.4l10.3-5.1l0.9,1.6
	c-2,0.6-4,1.4-5.9,2.3c-5.4,2.9-5.4,3.4-1.1,8.1l6.5-2.2l-5.7,4l0.7,1.1l7.1-2.8l0.2,0.6l-6.5,4.4l5.1,7.5l6.3-10.7
	c0,2.3-0.1,3.6-0.1,5.1l4.1-0.3l-3.8,3.2l0.6,1.8l5.8-0.9l-2.6-4.1l2.7-2.9c0.3,6.4,3.2,5.4,6.6,3.5c2.6-1.5,5.2-2.9,7.8-4.3
	l0.5,1.1c-1.4,0.7-2.7,1.4-4.1,2.1c-2.2,1.1-4.3,2.4-6.3,3.8c-0.6,0.5-0.5,1.9-0.8,2.8c1,0.2,2.6,0.8,2.8,0.5
	c1.6-2.3,2.8-4.8,4.2-7.3l1.8,5.2c1.1-2.6,1.4-3.4,1.9-4.5c1.8,2.9,3.4,5.4,5.2,8.4c0.9-1.7,1.5-2.9,2.2-4.2c0,3.3,0.1,6.2,0.1,9.2
	l2.2,0.2l4.3-15.4c3.2,1.1,1.5,8.2,7.2,6.4c0.7,3.3,1.4,6.7,2.3,11c7-8.6-0.1-14.2-1.3-20.7l5.6,9.1l2.5-8.8c1.4,2.5,2.8,5,4.2,7.4
	l-3.5-2c-3.2,5.2-0.9,8.7,2.1,12l1.7-0.1c-0.1-3.4-0.3-6.8-0.4-10.1c0.9-0.2,2.6-0.4,2.6-0.6c0.1-2.4-0.1-4.9-0.1-6.6l3.3-2.5
	c2.1,0.1,0.9,6.8,5.5,3.3c-0.4,3.2-1.4,6.5,2.3,8.6c2.2-4.3,1.9-5.3-2.4-8.6l-1.4-6l1.6-0.8c1.1,2.9,2.2,5.9,3.2,8.8l2.1-1l-3.6-9.3
	l0.6-0.3l3.5,4.5l3.3-3.8l3.2,4l1.3-0.7l-5.1-11l0.7-0.3l4.9,7.4c3-6.4-3.5-9.5-3.7-15.6l7.8,13l1.5-0.5l1.8-6.5l4.9,1.8l-0.3-5.8
	l-2.1-0.6l-2.3,4.9l-3.3-2.6l5.7-4.2l-0.6-1l-5.9,1.9l-0.3-0.6l6.2-4.9l-0.6-0.9l-7.5,3.9c4.5-5.8,12.8-6.7,16.1-14l-21.4,10.4
	c2.8-2.3,5.7-4.4,8.9-6.2c2.8-1.8,5.6-3.7,8.4-5.6l-1-1.6l-19.9,9.3l-0.7-1.4c2.6-1.2,5.2-2.2,7.7-3.6s4.7-3.1,7-4.6
	c-0.3-0.5-0.6-1-0.9-1.5l-10.8,5.8c-0.2-0.3-0.3-0.7-0.5-1l14.3-9.3l-1-1.7c-5,0.2-7.9,5-12.8,6.2s-9.3,4.9-14,7.5l-1-1.9
	c5.6-2.9,11.4-5.5,16.7-8.7c2.1-1.3,3.4-4,5-6.1l-1.4-1.3l-24.9,12.9c2.2-2.2,4.7-4.1,7.4-5.5c5.4-3.1,5.4-3.1,4-7
	c-6.4,3.8-12.6,7.6-19,11.3s-12.9,7.2-19.3,10.8c0-0.9,0.5-1.7,1.3-2.1c9.3-5.2,18.5-10.5,27.9-15.7c3.6-2,6.1-4.4,5.4-9.5
	c-12.5,6.9-24.7,13.6-36.7,20.5c-0.8,0.4-0.6,2.5-0.9,3.7c-0.1,0.4-0.2,0.8-0.7,2.5c-0.6-2.3-0.9-3.4-1.4-5.4
	c-5.6,5.2-14.1,5.5-15.1,13.1c-1.1-0.7-2.6-1.8-4-2.8C339.4,323.5,336.2,319.8,336.7,316.8l-3.4-12.1l-2.1,0.4
	c0.3,4.1,0.7,8.1,1,12.4L336.7,316.8z M227.7,211.1l-2-6.1c-1.1,1.3-2.1,3.5-3,3.5c-6.8-0.6-4.1,4.9-5.9,7.5l1,1.2
	c3.3-2,6.6-4.1,9.9-6.1c1.8-1.1,3.6-2.6,5.6-3.2c4.8-1.4,5.3-4.6,4.1-9.9l-5.1,5.9c-1.4-0.3-3.2-0.1-3.4,0.6
	C228.3,206.6,228,208.8,227.7,211.1L227.7,211.1z M189.1,228.7c-2.6,3.1-4.7,6.4-3.3,11c2.1-2.6,3.7-5.5,4.9-8.7
	c0.2-0.4-1.2-1.4-1.9-2.2c6.2-4.6,6.4-11.6,8.4-18.5C191.6,212.5,187.2,223.2,189.1,228.7L189.1,228.7z M179.4,256.4
	c-4.9,2.8-18.5,19.7-18.5,23.3l5.8-7c0.5,0.8,0.9,1.1,0.8,1.4c0,0.8-0.1,1.6-0.4,2.4c-3.7,8.5-6.1,17.2-4.2,26.5s4,18.6,6.2,27.9
	c1,4.1,2.4,8.2,3.9,12.8l5.6,8.6l5,13l1.5,0.3l4.4-11.4c0.2,2.8-0.2,5.6-1.1,8.2c-1.1,3.3-3.5,6.5,1.1,9.5c1.3,0.8,1.2,3.7,1.8,5.7
	c0.2,0.9,0.5,1.8,1,2.7c1.9,3,4,6,5.7,8.4l4.3,0.3l-0.1-0.1c0.3,3.6,0.5,7.2,0.9,11.9l4.7-6.1c0.1,2.5,0.4,3.6,0.1,4.5
	c-1.5,3.8-1.7,6.9,1.8,10c1.8,1.6,2.5,4.5,3.9,7.2l2.9-0.5c0.2,1.6,0.4,3,0.6,4.8c6.5-3.5,8.3,4.5,14.8,5.3l-5.8-5.8
	c4.9-3.3,1.8-7.2,0.9-10.6l13,3.6l-0.2,0.6l-8.8-1l-0.2,1l15.5,9.4l-0.8,1.2l-2.9,0.5l-0.1,1.4l20.4,4.2c-2.8-6.4-4.9-11.2-7-16
	l-1.5,0.5l1.2,6.6l-0.8,0.3l-5.4-8.3l46.6-4.7c-1,1.2-2.5,1.9-4,2c-8.3,1-16.5,1.9-24.8,2.7c-4.2,0.4-4.8,2.1-2.5,4.9
	c1.6-0.5,2.8-1.1,4.1-1.1c2.5,0,5.1,0.9,7.6,0.5c6.1-1,12-2.5,18.1-3.7c1.1-0.1,2.1-0.1,3.2,0l0.1,1.5c-1.7,0.4-3.3,0.9-5,1.2
	c-4.6,0.8-9.2,1.3-13.8,2.2c-1.1,0.2-2,1.4-3,2.2c1,0.5,2.1,0.7,3.2,0.9c4.9-0.2,9.8-0.7,14.8-0.9c1,0.1,2,0.2,3,0.5v1.2
	c-4,0.5-8,1.2-12,1.4c-3.8,0.1-3.6,1.7-2.7,3.8c4.3-2,7.9-0.8,11.6,1c-2.4,3.9-0.8,7.5,3.6,8.2c4.2,0.7,8.6,0.9,12.9,1.6
	c5.9,0.9,9.5-3,7.8-8.8c-0.2-0.9-1-2.3-0.7-2.6c3.1-2.9,1.3-5.2-1-7.4l2.5-1.1l-7.5-8.2l32.9,4.9c-3.8,0.3-7.6,0.3-11.5,0.5
	c-1.6,0.1-3.1,1-4.6,1.5c1.4,0.9,2.8,2.2,4.4,2.5c4.1,0.8,8.2,1.1,12.4,1.6l-0.1,1.1l-16.6-1.8l-0.8,2.6c5.7,1.4,11.3,3.2,16.2,3.5
	c-0.3,3.7-0.6,7.1-0.9,10.5l1.1,0.4l2.2-2.1c1.3,1.6,2.5,3.1,3.7,4.6l-2.6,1.6c4.6,3.1,4.9-1.6,6.8-3.5c0.2,1.5,0.3,2.6,0.4,3.6
	c1.6-1.8,2.1-3.8,3.1-5.6c1.4-2.5,3.2-4.7,4.9-7l-0.2,0.1l11,0.2c-1.2,5.6-2.4,10.8-3.5,15.9l1.9,0.4l4.6-12.5l1,0.3l-2.1,11.1
	l1.9,0.6c1.5-4.5,3.1-8.9,4.6-13.3l0.8,0.3c-0.8,4.3-1.5,8.5-2.4,13.5l10.7-1.5c-6-4.3,4.5-8.7-2-12.3c5.1-2.7,7.1-7,5.2-8.7
	c1.9-3.1,3.6-5.9,5.4-8.8l-1.3-0.9l-4.8,0.9c2.7-2,5.8-2.9,8.4-4.5c1.4-0.9,2.1-3.1,2.8-4.8c0.1-0.2-1.8-1.2-3.7-2.4l22.1-8.9
	l-2.1,4.1l1.7,1l4.4-5.2l-3.8-0.2c5.3-3.8,10.6-7.4,15.7-11.4c1.6-1.2,2.7-3.1,4-4.7c-0.4-0.5-0.8-1-1.2-1.5
	c-10.6,6.7-21.1,14-33.3,17.5c13.6-7,27.6-13.4,38.2-25.1l0.9,0.9l-4,6.8l1.4,0.8l4.5-5.2l1.4,1L444,382l0.7,0.6l5.1-3.9
	c0.6,2.6,0.8,4.8,1.7,6.6c0.6,1.3,2,2.3,3,3.4c1.2-1.2,3.3-2.2,3.6-3.6c0.5-2.6,0.1-5.5,0-8.5l-3.5,1.6l-0.2-0.5
	c4.5-4.6,9.1-9.2,13.6-13.8l-0.6-0.7l-4.5,2.3l5.6-6.5l-1-1c-3.7,3.8-7.5,7.5-11.2,11.3l-0.6-0.7l15.6-17.7l-1.4-0.5
	c-0.2-1.8-0.2-3.6-0.1-5.4c0.7-4.9,1.4-9.8-1.3-14.3c-0.7-1.1-2.3-1.7-4.6-3.4l5.5-19.6l-1.9-0.6l-4.9,17.7l-1.4-0.4
	c0.8-8.1,5.5-15.7,3.4-24.2l-4.6,16.6c-2.4-7.9,2.8-15.3,0.6-23.1l-3.4,17.8l-1-0.2l1.8-12.1l-1.3-0.3l-3.1,11.2l-0.5-0.2
	c0.5-7.7,0.9-15.3,1.4-23l-1.7-0.1c-0.6,4.7-1.2,9.5-1.8,14.2l-1.1-0.1c0-1.4,0-2.9,0.1-5.1c-1.3,2.9-2.2,4.9-3.6,7.8
	c-0.7-4.9-0.1-9.7-2.2-12.3c-3.4-4.1-2.3-7.6-1.4-11.7c0.4-1.9,0.5-3.8,0.7-5.7l-1-0.1l-2.8,8.3l-0.8-0.3c1-5.7,2-11.4,3-17.1
	l-1.4-0.4l-4.4,12.7l-1.2-0.3c1-5.6,2-11.3,3-16.9l-0.8-0.2l-3.9,9.8l-1.2-0.4c0.4-3.6,0.7-7.2,1.2-12.1c-1.6,2.6-2.5,4-3.3,5.4
	c0.4-7,4.2-13.4,1-21.6c-1,7.4-1.8,13.7-2.6,20l-1.4-0.2l1.4-9.8l-0.9-0.1l-2.9,6.6l-1.4-0.5c0.5-3.5,1-7,1.5-10.5l-1.1-0.2
	c-1,3.1-2.1,6.1-3.1,9.2l-1-0.3c0.1-5,0.3-10,0.4-15l-0.7-0.1l-6.6,19.9l1.3,0.4l1.9-4.2c1.3,3.6,1.2,7.2,2.1,10.6
	c1.4,5.3,2.7,10.8,5.3,15.4c4.9,8.6,11,16.5,16.1,25c3.6,5.8,6.5,12.1,10.1,19.1l1.5-5.4c0.7,6.4,1.7,12.2,1.7,18
	c0,3.1-0.9,6.2-2.6,8.9c-3.3,4.5-6.9,9.2-11.3,12.5c-9.2,6.9-18.8,13.2-28.5,19.3c-18.8,12-40.3,17.3-61,24.5
	c-13.5,4.7-26.3,3.6-39.7,0.5c-5.5-1.3-11.5-0.9-17.2-0.6c-5,0.2-9.9,1.5-14.8,2.1c-5.9,0.7-11.9,1.2-17.8,1.7
	c-10.2,0.7-20.3,0.9-30.1-2.8c-5.2-2-7.1-5-5.7-9.5c3.8-12.2,10.4-22.1,22.3-28c11.4-5.8,22.6-12.1,33.9-18.2c0.8-0.6,1.5-1.2,2.2-2
	l-0.4-0.5l-6.4,2.5l-0.7-1.1c0.6-0.8,1.1-1.8,1.9-2.3c6.2-3.5,12.6-6.9,18.8-10.5c2.7-1.6,5.1-3.8,8.1-6.2c6,2.4,9.9-5.3,15.9-6.1
	l1.3,2.5l-14.6,5.3l1.6,2.9c3.5-2.4,7-4.9,10.5-7.1c5.2-3.3,5.7-9.1,0.9-14.1c-0.9,1.8-1.6,3.5-2.4,5.1l-2.6-2.5
	c1.2-2.1,3-4.1,3.7-6.5c3.4-11.8,6.7-23.7,9.7-35.6c1.2-4.6,2.2-9,4.6-13.3c7.4-13.4,18.3-21.1,33.4-21.9
	c16.1-0.9,31.4,1.4,41.9,15.9c0.9,1.1,1.9,2.2,3,3.2c5.3-6.9,5.8-10.6,2-12.6c3-13,3-13,0.7-16.4c-0.8,5.1-1.6,9.6-2.3,14.1
	l-1.8-0.2c0.5-4.6,0.9-9.2,1.4-13.8l-1.8-0.3l-4.1,14.7l-1.7-0.5c1-3.7,2.6-7.4,3-11.2s-0.7-7.5-1.1-11.2l-1.3,0.1l1.2,9.9l-1,0.1
	c-0.4-2.3-0.9-4.6-1.5-7.9c-1.3,2.7-2.2,4.4-3,6.1l-1-0.2c0.8-4,1.5-8,2.3-12.1l-1.5-0.2c-0.9,2.4-1.8,4.9-3.2,8.6
	c-0.4-3.8-0.6-6.2-0.9-8.5l-1,0.1c-0.1,1.3-0.2,2.6-0.4,3.9h-0.7c-0.5-2-1-3.9-1.9-7.4l-1.6,5.6c-2.3-2.8-4.1-6-5.3-9.4
	c-0.8-2-1.1-4.2-2.1-6.1c-2.3-4.6-4.5-9.2-10.2-10.8c-17.2-5-35-6.6-52.8-7.3c-7.7-0.3-15.4,0.9-21.5,3.7c4.8,3.1,9.8,6.3,14.8,9.7
	c4,2.7,7.8,5.7,11.6,8.7c2.6,2,5.4,4,7.3,6.6s3.4,5.7,3.5,8.6c0.1,2.7-1.9,5.5-2.7,7.4l-9.4-14.6l-1.5,0.8c1.9,3.4,3.7,6.8,5.2,10.4
	c1.1,2.9,2.6,6.4,1.9,9.2c-1.7,7.4-4.5,14.6-6.9,21.9c-0.5,1.6-1.1,3.3-1.7,4.9l-1.7-0.4l3-19.9l-1-0.2l-3.4,6.7
	c0.1-6.1,4.8-11.8-2.8-15.5c0.8,2.4,1.7,4.9,2.8,7.9l-3.9-3.4l-3.5,12.5l-1.3-0.1c0.9-4.3,3.3-8.8-1.8-12.3
	c-2.6,3.9,0.1,10.1-5.6,12.3l-4.2-3.3c0.6,3.9,1,6.2,1.4,8.6c-4.7-3.4-3.9-12.6-13.2-12.2l6.7,12.4l-1.1,1.2l-13.4-3.8
	c1.6,3.4,2.6,5.6,3.6,7.9c-3.8-4.5-5.6-11.3-13.6-10c0,5.5,4.9,5.5,9.3,7.8l-9.6-0.9l1.6,5.2c-3.7-2.3-2.7-8.6-8.8-7.6
	c0.6,1.5,1.1,2.8,1.5,4.1l-4.9,0.7c1.4,2.8,2.5,5.3,3.7,7.7l-7.3-3.5l-0.6,1l4.1,8.1l-1.9,1.1c-0.8-2.3-1.5-4.6-2.6-6.8
	c-1.9-4-2-4-6.3-4l7.3,10.5l-1,0.6l-4.5-2.9c0.9,2.7,1.4,4.2,2.4,7c-6-8.2-6-8.2-9.5-8c2.3,5.1,3.8,10.8,11.5,11.7l-4.6,1.4
	l-7.7-3.8l-1,1.5l3.7,4.3l-10.7-1.5L237,296l-0.7,0.4l-3.3-3.5l-0.7,0.5l2.7,6l-8.4-0.9c0,0.1,0,0.8-0.1,2.2l-3.6-4.4l-0.8,0.7
	l5.7,9.2l-0.8,0.3l-5.2-3.5l-1.1,1l5.6,9.9l-9.7-4.8l-1.3,1.8c2.2,2,4.4,4,7.1,6.5l-8-1.4c0.6,1.2,1,2.4,1.6,3.4
	c6.5,11.1,13,22.1,19.5,33.2c0.9,1.8,1.7,3.6,2.4,5.5l-1.8,0.8c-1.2-1.9-2.5-3.7-3.6-5.6c-4.4-8.2-8.7-16.5-13.2-24.7
	c-3-5.5-3.1-5.5-9.3-6.1c8.4,13.4,14,28.4,24.2,40.1c-3.2,3.9-6,7.1-8.7,10.5c-5.8,7.5-9,7.3-13.6-1.3c-5.1-9.5-9.7-19.3-19.2-25.6
	c-3.1-2-5.9-4.3-8.6-6.9C177,332.1,169,325,167,314.2s-2.6-21.7,0.9-32.1c3-8.9,7.5-17.2,11.3-25.9c1.8-1.4,3.6-2.8,5.4-4.3
	c7.6-6.6,15.3-13.2,22.9-19.9l8.5-7.4l-1.2-1.3c-8.8,7.6-17.7,15-26.3,22.7C185.2,249.2,182.5,253,179.4,256.4L179.4,256.4z
	 M137.4,353.9c3.8-0.4,2.9-2.3,2-5.3c-1.2-4-1.4-8.4-2-12.6c4.9-0.4,2.1-3.2,2.2-5.1c0.8-0.8,1.3-1.9,1.4-3c0-1.1-0.8-2.4-0.6-3.4
	c0.9-3.2,2-6.3,3.3-9.4c2.8-6.6,5.8-13.2,8.6-19.9c-12.9,17.6-25.4,50.6-14.4,66.6C137.8,359.2,137.6,356.6,137.4,353.9L137.4,353.9
	z M386.2,289.8c-5,2.7-9.7,5.4-14.6,7.8c-3.8,2-4.4,4.6-2.2,8.1c4.7-2.5,9.2-5.3,14-7.5C387.2,296.4,387.6,293.8,386.2,289.8
	L386.2,289.8z M322,324.3c-3.2,2.2-6,4.5-9.1,6.3c-6.5,3.9-6.5,3.8-1.8,10.4c3.1-2.4,5.9-5.2,9.3-6.9
	C324.6,331.9,324.6,329.3,322,324.3L322,324.3z M366.2,301.3c-12.7,5.6-13.8,6.5-10.4,11.6C366.1,309.6,368.2,307.3,366.2,301.3
	L366.2,301.3z M213.9,156.8c-8.7,0.7-10.6,3-9.6,11.3C212.8,166.6,213.4,165.9,213.9,156.8z M459,388.9c-5,2-4.9,2-5.4,8
	c-0.4,5.5-1,11-1.5,16.5l1.5,0.2C455.3,405.6,457,397.7,459,388.9z M148.2,130.3c0-0.2,0.5-0.9,0.3-1.4c-0.7-1.7-1.6-3.3-2.5-5
	c-1.3,1.4-3.8,4-3.6,4.1c2.3,2.6,4.8,5,7.6,7.1c0.3,0.2,2.7-1.6,3.4-2.8c0.3-0.6-0.7-2.9-1.5-3.1C150.9,129,149.4,129.9,148.2,130.3
	z M289.1,140.1c-3.5-5.2-9-7-15.5-5.2C276.3,140.2,284,142.8,289.1,140.1L289.1,140.1z M105.3,119.7c7.8,11.7,10.8,13.6,14.9,10.4
	C115.3,126.4,111.8,120.8,105.3,119.7z M123.4,114.9c-5.4,6-0.6,8.2,2.2,10.9c3.2,3.1,5.7,1.2,8.4-0.8l-7.5-5.7l-0.5,0.8
	C125.2,118.6,124.5,117,123.4,114.9z M168.9,255c0-1.9,0.1-4.3,0.2-7.9l-16.9,17.7l1.4,1.4c3.5-3.3,6.9-6.6,10.5-9.8
	C165,255.6,166.6,255.6,168.9,255z M352.5,309.2c-8.7,2.3-10.1,4.2-7.6,9.7C353.7,316.1,354.5,315.2,352.5,309.2L352.5,309.2z
	 M268.3,432.4l-29.9-4.9C239.1,431,258.6,434.7,268.3,432.4L268.3,432.4z M138.6,89.1c-5.3,0.6-8.5,5.6-9.1,13.6
	c1.7-0.7,3.8-0.9,4.3-1.8C135.6,97.3,136.9,93.4,138.6,89.1z M208.2,149.2c3.8,0,7.5,1.2,7.6-4.4c0.1-2.5-0.4-4.4-3.4-4.1
	C206.8,141.3,208.9,145.8,208.2,149.2L208.2,149.2z M100.9,121.4c4.1,8.9,9.3,13.5,13.4,11.8C110,128.8,106.7,123.7,100.9,121.4z
	 M230.9,267.2c2.1,8,4.7,10.7,10.2,10.8C238.5,269.3,236.5,267.2,230.9,267.2L230.9,267.2z M214.9,164.6c7.3-0.8,8.4-2.6,6.6-9.2
	C215.7,155.6,215.7,155.6,214.9,164.6L214.9,164.6z M296.5,148.5c-4.8-5.6-11.5-7.7-17.9-5.5C284.1,147.5,290.8,146.6,296.5,148.5
	L296.5,148.5z M93.7,110.3l2.3,0.3l4.8-10.7c-4.6-0.2-7.3,1.4-8.2,5C92.2,106.5,93.3,108.5,93.7,110.3z M212.4,174.5
	c4.9-1.1,9.2-2.2,8.1-8.4C213.7,165.9,213,166.6,212.4,174.5L212.4,174.5z M337.9,315.3c7-4.1,0.8-9,2.3-13.2
	c-3.3,0-5.6,0.2-4.9,3.7C336,308.7,336.9,311.6,337.9,315.3L337.9,315.3z M294.6,365.6c-2.6-2.8-3.8-4.9-5.5-5.6
	c-0.9-0.4-3.6,1.3-4,2.5s0.7,4.4,1.5,4.5C288.6,367.2,290.9,366.3,294.6,365.6L294.6,365.6z M187.4,145.3l-2.1,2.6l-2.1-1.9
	c-0.5,5.1,3.6,6,6.1,8.8C192.4,150.4,192.1,147.5,187.4,145.3z M262,242.1c1.5,5.8,3.8,7.2,9.9,6.2C269.8,243,267.1,241.3,262,242.1
	z M381.3,380.8c3.5-5.6,3.1-7.9-1.8-12C377.2,373.1,376.4,377.2,381.3,380.8L381.3,380.8z M126,128.1l-9.2-8l-1.7,1
	c0.6,1.4,0.8,3.4,1.9,4.2C119.4,127.1,121.1,131.6,126,128.1z M219.6,181.4c6.4-2.9,7.6-4.7,6.9-9.2
	C220.6,172.8,220.1,173.5,219.6,181.4L219.6,181.4z M329.3,306.9c-3.9,2.7-3.8,7.2-0.6,13.6C332.7,316,328.8,311.9,329.3,306.9z
	 M432.4,325.8c-2.5,1.8-4.9,2.6-5.6,4.2c-0.4,0.9,1.7,3.1,2.7,4.7c1.4-1.2,3.2-2.2,4-3.8C434,330,433,328.2,432.4,325.8z
	 M293.9,379.3c3.3-2.4,4.7-6.9,2.7-8.6c-0.6-0.5-2.8-0.4-3.1,0.1C291.4,373.7,290.5,376.7,293.9,379.3L293.9,379.3z M146.9,379.1
	l-0.3,0.2l11.7,18.5l-0.2,0.1L146.9,379.1z M149.7,111.2c-3.9,6-3.8,6.7,1.7,8.9C153.1,116.9,155.4,113.6,149.7,111.2L149.7,111.2z
	 M43.7,209c-1,8.8,1.2,14.4,7,17.8L43.7,209z M337.3,158.5l-12.8-8.7C327.3,155,330,160.2,337.3,158.5L337.3,158.5z M115.8,106.2
	l3.6-12.8C114.6,96.3,112.3,102.9,115.8,106.2L115.8,106.2z M168.6,260.5l-1.6-1l-12.2,12.6c3.1-0.8,5.9-2.3,8.2-4.5
	C165.2,265.6,166.8,262.9,168.6,260.5z M79.1,109c-6.8,7-6,11.7,2.3,13.5c-1.6-2.3-3.2-4.6-5-7.2C77.2,113.4,78.2,111.2,79.1,109z
	 M198.8,219.6c4.6-2.1,7.6-9.4,6.1-14.8C202.9,209.4,201,214.1,198.8,219.6L198.8,219.6z M222.5,162.2c5,0.8,6.9-0.7,6.8-4.2
	c0-1.1-1.6-2.2-2.4-3.4L222.5,162.2z M263.4,138.2c-2.3-3-4.4-6-6.9-8.8c-0.6-0.7-2.2-0.4-3.4-0.6c-0.2,0.4-0.4,0.8-0.5,1.2
	C256,132.9,257.7,137.8,263.4,138.2L263.4,138.2z M358.3,165.9l1.1-1.5l-16.2-13l-1.2,1.4L358.3,165.9z M29.7,195.2l1.7,0.1
	c4.2-5.6,4.2-7.3-0.6-11.7C30.4,187.9,30.1,191.6,29.7,195.2z M200.5,288.5c-1.6-6.3-2.7-7.1-8.8-6.2
	C192.3,287.4,196.3,287.6,200.5,288.5z M365.8,294.8c-3.9,2.1-9,1.9-7,8.3C362,301.2,366.4,301,365.8,294.8L365.8,294.8z
	 M258.9,238.6l1.5-0.1c0.8-2.4,1.4-4.8,1.9-7.3c0.1-0.8-1.3-2.3-2.3-2.5c-0.8-0.2-2.7,1.2-2.6,1.8
	C257.7,233.3,258.2,235.9,258.9,238.6L258.9,238.6z M365,368.4c-3.8,6.4-3.8,8.6,0.5,10.5c-0.2-1.9-0.4-3.5-0.6-5l3.2-0.7
	c-0.8-1.6-1.4-2.8-2.1-3.9C365.8,368.9,365.4,368.6,365,368.4z M406.3,407.8c6.6-1.9,7.1-2.4,6.2-7.5
	C409.6,401.9,405,402,406.3,407.8L406.3,407.8z M388,293l1.6,0.9c2.6-0.6,5-1.5,4.3-5c-0.2-0.9-1.6-1.6-2.5-2.3L388,293z
	 M338.2,377.7l-1.8,0.2l-2.1,7.4l1,0.8c1.7-1.1,4-1.9,4.7-3.5C340.6,381.5,338.9,379.4,338.2,377.7z M206.4,222.1l1.9,1
	c3.8-1.7,3.4-5.3,3.7-8.6l-1.7-0.8L206.4,222.1z M403.4,417.7c5.4-1.3,6.6-4.3,6.4-8.7C404.3,409.3,404.6,413.5,403.4,417.7
	L403.4,417.7z M274.5,389.7c7.1-2.1,7.5-4,2.5-9L274.5,389.7z M286.4,382.5l3.1-0.3c-0.3-2.7-0.6-5.3-0.9-8c-1,0.3-2.9,0.6-2.9,0.9
	C285.8,377.6,286,380,286.4,382.5L286.4,382.5z M86.6,105.8l-0.8-0.4c-2.4,2.5-4.7,5.1-6.8,7.8c-0.5,0.7,0.5,2.4,0.8,3.7h1.5
	L86.6,105.8z M228.3,164.1c-5.2-0.6-6.2,2.3-6,6.7C227.3,171.1,228.8,168.7,228.3,164.1L228.3,164.1z M216.3,148.2
	c4.3,0.2,6.9,0.4,6.5-3c-0.1-1.3-1.9-2.4-2.9-3.7L216.3,148.2z M206.7,156.3c3.5-1.2,8,0.5,8.2-5.4C211,151,206.9,149.9,206.7,156.3
	L206.7,156.3z M309.4,146.5l-1.5,2.2l8.5,5.6c0.5-0.7,0.9-1.4,1.4-2.1L309.4,146.5z M343.6,299.3l-2.3,0.2l1.8,11.9l1.9-0.2
	C346.4,307.1,344.2,303.3,343.6,299.3L343.6,299.3z M214,284.9l-6.4-10C206.4,281.3,207.9,283.5,214,284.9z M301.1,375.4
	c3.8-1.8,3.8-4.3,1.9-6.6c-0.8-1-2.9-0.9-5.1-1.5C299.3,370.8,300.1,373,301.1,375.4L301.1,375.4z M114.8,95.3l-0.7-0.9
	c-1.5,0.8-3.3,1.2-4.5,2.4c-0.7,0.7-0.8,2.4-0.7,3.6c0,0.5,1.5,1.4,1.8,1.2c0.9-0.6,1.7-1.3,2.3-2.3C113.7,98,114.3,96.7,114.8,95.3
	z M95.8,97.1l1.9,2.3l6.4-6l-1.9-2.1L95.8,97.1z M308.2,238l2-0.3c2.6-3.7,1-6.6-1.8-9.2l-1.7,0.3L308.2,238z M408,419.6l-1.5-1
	c-4,0.5-4.7,3.3-4.6,6.7l1.5,1C404.9,424.1,406.4,421.8,408,419.6z M127.2,101.2l4.6-11.1C127,91.5,125.3,95.2,127.2,101.2z
	 M151.7,98.7l2.9-10.4C150.2,89.9,149,93.4,151.7,98.7L151.7,98.7z M225.3,197.1l-1.6-0.8c-3.2,2.3-3.4,5.8-3.5,9.3l1.8,0.7
	C223.1,203.2,224.2,200.1,225.3,197.1L225.3,197.1z M90.9,121c3-4.5,1.2-6.6-2.2-8.4C84.7,116.7,88.5,118.3,90.9,121z M270.3,384.9
	l-2,0.1c0.1,2.5,0.3,5.1,0.5,7.6c0.9-0.3,2.1-0.4,2.5-1C272.8,389.1,272.8,386.7,270.3,384.9z M384.2,283.1c-2.2,2.5-7.3,2.5-4,7.9
	C382.9,289.1,387.7,289.2,384.2,283.1z M383.7,278.1c-7.4,1.2-7.6,1.6-4.2,8.1C381.1,283,382.4,280.5,383.7,278.1L383.7,278.1z
	 M202,208.4l-1.9-0.6l-4.7,13.4l1.6,0.6C198.7,217.3,200.4,212.9,202,208.4z M252.8,365.9c4.9,1.9,9.1-0.7,10-4.3L252.8,365.9z
	 M300.4,361.8c1.5-1.2,3.1-2.2,3-2.6c-0.7-1.9-1.6-3.7-2.8-5.3c-0.9,0.2-1.8,0.5-2.6,1C298.5,356.9,299.2,358.7,300.4,361.8
	L300.4,361.8z M264.7,136.3l7.1,3.3C271.3,134.2,268.9,133.3,264.7,136.3z M404.8,427.6c-5.4,1.8-6.5,4.5-3.5,9.3L404.8,427.6z
	 M339.1,322.3c5.6-1.4,3.4-4.4,2.5-7.4C336.5,316,338,319,339.1,322.3z M280.1,371l2,0.8c1.1-1.2,3.1-2.5,2.9-3.6
	c-0.2-1.5-1.9-2.9-3-4.4l-1.6,0.5L280.1,371z M216.1,201.1l-1.9-0.7l-3,10.9l1.3,0.5C213.7,208.3,214.9,204.7,216.1,201.1
	L216.1,201.1z M221.1,302.4l1.2-1.1c-1.2-5.6-1.8-6.1-7-5.8L221.1,302.4z M335.9,373l-2.3-1.5c-1.2,1.7-2.2,3.4-3.2,5.2
	c-0.1,0.2,1.4,1.2,2.2,1.9L335.9,373z M212.4,299.9l-1.6,1.6c1.6,2.7,1.8,6.6,7.9,6.5C216.2,304.6,214.3,302.2,212.4,299.9z
	 M313.1,354.6l1.5-0.8c-1.1-2.1-2.2-4.2-3.4-6.2c-0.1-0.2-1.6,0.5-2.5,0.8c1,1.9,2,3.9,3,5.8C311.9,354.5,312.6,354.5,313.1,354.6
	L313.1,354.6z M166,123.8l-2.9-0.6c-0.4,2.3-0.8,4.6-1.1,7c0.8,0.2,1.5,0.4,2.3,0.5C164.9,128.4,165.4,126.1,166,123.8z
	 M457.2,409.4l1,0.3l5.4-19.4l-1-0.2L457.2,409.4z M372.4,290.5c-3.3,1.6-7.2,2.1-4.1,7.2C370.5,296,375.3,296.2,372.4,290.5z
	 M173,254.6l1.8,0.3c0.8-4.8,1.7-9.6,2.5-14.3l-1.3-0.3L173,254.6z M123.3,357.4l1.6-2l-9.4-6.3c-0.4,0.5-0.8,1-1.1,1.5L123.3,357.4
	z M244.8,249.4l-1.7,2.4l6.5,4.1l1.4-2.2L244.8,249.4z M394.3,298.9c6.7-1.8,7.3-3.2,3.9-8.5L394.3,298.9z M216.4,293.8l2-2
	l-5.6-5.7l-1.7,1.7L216.4,293.8z M389.8,368.6l2.8-0.2l-0.7-8.2l-2.5,0.2C389.5,363.1,389.7,365.9,389.8,368.6z M414.5,345.4
	l-1.6,0.6c-0.9,3.4,0.4,5.8,2.8,7.6l2-0.9L414.5,345.4z M221.4,280.1l-1.2,1c1.9,2.8,3.8,5.5,5.7,8.3l1.6-1.1
	C225.7,285.3,225.7,281.1,221.4,280.1z M376,277.2l2.2,1.4l3.7-5.2l-2.9-1.9L376,277.2z M406.6,223.2l2-0.4l-2.4-11.1l-2,0.4
	L406.6,223.2z M362.1,438.4c-3.3-0.5-5.2,0.9-4.7,4.2c0.1,1,2.1,1.8,3.5,2.8C361.5,442.4,361.8,440.5,362.1,438.4z M310.7,367.6
	l2.3-0.4c-0.2-2.1-0.4-4.2-0.6-6.3l-3.1,0.6C309.8,363.5,310.2,365.6,310.7,367.6z M337.1,374.1l2,1.4c1.3-1.4,2.4-3,3.4-4.6
	c0.1-0.3-1.6-1.6-2.5-2.4L337.1,374.1z M253.5,263l1.6-2.1l-6.7-5.1l-1.6,2.2L253.5,263z M384.8,280.1l2.6,1.1
	c0.9-1.6,1.7-3.3,2.2-5c0.1-0.4-1.8-1.3-2.7-1.9L384.8,280.1z M309.6,355.6c-1.1-1.7-2.3-3.4-3.7-5c-0.2-0.2-1.7,0.9-2.7,1.4
	c1,1.8,1.9,3.6,3,5.2C307.5,356.8,308.6,356.2,309.6,355.6z M205.8,214.7l1.1,0.5l3.1-11.4l-1.1-0.3L205.8,214.7z M105.9,101.8
	c0,2.5,0,4.5,0.1,6.4c0.9-0.3,2.2-0.2,2.7-0.8C110.2,105.4,111,103.2,105.9,101.8z M339.1,296c-5.5,0.1-7,2-3,6.6L339.1,296z
	 M154.1,355.3l-1.6,0.3c-1.6,2.9-1.7,5.5,3.3,8.2L154.1,355.3z M300.7,333.7c2,4,3.5,7.2,5.2,10.5
	C308.4,341.7,306,336.4,300.7,333.7L300.7,333.7z M432.9,401.6l2,0.4c0.4-2.7,0.7-5.4,1.2-9C430.5,395.6,433,398.9,432.9,401.6
	L432.9,401.6z M317,357.9l-1.5,0.3c0.5,2.6,1,5.3,1.5,7.9C321.4,362.4,319.1,360.1,317,357.9z M442.2,388.8l-1.9-0.3
	c-0.3,2.9-0.6,5.9-1.1,9.9C443.5,395.1,443.6,394.4,442.2,388.8L442.2,388.8z M325.2,307.2c3.2-1.9,2.8-6.3-0.9-10.4
	C324.5,300,324.8,303.3,325.2,307.2L325.2,307.2z M261.6,227.6l2.6-0.3c-0.3-2.1-0.7-4.1-1.2-6.1c-0.1-0.3-1.8-0.1-2.8-0.2
	C260.7,223.2,261.1,225.4,261.6,227.6z M343.2,295.5c6.3-0.6,6.8-1.5,3.4-7.1L343.2,295.5z M238.4,264.9c0.6-0.8,1.1-1.6,1.7-2.5
	l-6.5-4.3l-1.4,2L238.4,264.9z M365.4,292.2c7.4-2.9,7.9-4.3,3.6-7.8C368,286.6,367,288.8,365.4,292.2L365.4,292.2z M203.5,131.8
	l-1.8,1l5,7.2C208.8,135,206.2,133.4,203.5,131.8z M194.4,302.6l1.9-1.5l-5.4-7.3l-1.9,1.4L194.4,302.6z M416.5,411l1.8,0.4l1.5-8.2
	l-4.9,2.3L416.5,411z M428,393.1l1.5,1.3c2.2-1.7,6.4-1.5,5.2-7.3L428,393.1z M207.4,291.5l-1.1,1.2c1.6,5.6,1.9,5.9,6.8,5.2
	L207.4,291.5z M240.9,193l2.1,1.5l4-5.8l-2.3-1.5L240.9,193z M202.7,280.9c-1.8-2.6-3.7-5.1-5.5-7.7l-1.3,1
	C197,277.4,197.7,280.8,202.7,280.9L202.7,280.9z M118.8,88.8c-6.5-0.1-6.9,0.2-6.9,6.2L118.8,88.8z M195.9,228.7l2.5,1.2
	c1.2-2.7,2.4-5.4,3.6-8.1l-2-1L195.9,228.7z M396.1,275.5c1.6-1.1,3.3-1.9,3.2-2.2c-0.5-1.5-1.2-2.9-2-4.2c-0.9,0.6-2.4,1.2-2.4,1.9
	C394.8,272.2,395.5,273.5,396.1,275.5z"/>
<path class="st1" d="M86.3,88.8c0.7,0.3,2.1,0.8,2,1c-0.9,3.6-1.9,7.1-2.9,10.7l-1.4-0.4c1-2.7,1.9-5.5,2.9-8.2
	c-2.6,1.4-5.2,2.3-7.2,4c-1.2,1-1.7,3.1-2.4,4.7c-1.7,4-2.2,9-7.6,10.2c-1.7,0.4-3.3,0.7-5,1c-5,4-5.6,7.5-0.9,11.9
	c0.3-4.6,0.6-8.3,0.9-12.1l7.3,0.6l-2.3,8.2c4.1-1.3,9.9,3.9,10.7,9.2c-1.5-0.4-3.2-0.5-4.4-1.4c-1.6-1.3-3-2.7-4.3-4.3l-0.8,0.9
	l8,9.7l1.2-0.9c0-1.4,0.1-2.8,0.2-4.2l7.9,5.3l-3.4-5.5l1-1.2c1.5,1.2,3,2.3,4.4,3.6s2.9,3,4.9,3.9l-6.1-9.3l-0.2,0.1
	c3.9-1.9,5.6,1.8,7.9,3.5s3.8,4,6.6,5.3c-2.1-2.5-4.4-4.9-6.3-7.6c-0.7-1.1-0.5-2.8-0.7-4.2c1.2,0.5,2.8,0.6,3.6,1.5
	c3.1,3.4,6,7,9.4,11l-7.9,5.1l0.4,0.6c4.1-2,8.2-3.9,12.2-6.1c4.6-2.6,9.1-5.2,13.7,0.3c-1.2-1.4-2.3-2.9-3.6-4.5
	c5.5-3.3,6.8,3.5,11.7,4.1l-5.8-5.8c3.8-4.1,7.5-1,10,0.8c2.1,1.5,7.5,2.7,4.3,8.4l13.8-3.7c-0.1,1.2-0.3,2.4-0.3,2.8h4.6
	c0.1,0.5,0.1,1.1,0.2,1.6l-13.8,6.3l0.3,1c2.3-0.9,4.5-2,6.8-2.7c2.9-1,5.8-2.1,8.7-2.3c0.9-0.1,2,2.6,2.9,4l4.9,1.4l-7.3,4.4
	c-15.6,5-29.3,13.6-43,22.2c0.8,0,1.5-0.1,2.2-0.5c12.8-6.7,25.7-13.3,38.5-20c0.8-0.5,1.6-1.1,2.2-1.8l5.1-0.7c0,1.4,0,2.8,0,4.1
	l0.6,0.2l2.1-5.1l0.9,0.1c-0.2,2.5-0.4,5-0.8,9l5.1-12.9l1.7,5l6.5,2.6c0,0.5-0.1,0.9-0.2,1.4l-6.5,3.1l11.6-1.5l5.4-3.7
	c0.6,4.9-0.2,7.3-4.2,8.7c-5.1,1.8-9.9,4.3-14.4,7.3l16.8-6.9c0,2.1,0,3.5,0.1,6.3c2-4.6,2.2-9.6,8.2-8.6c0.1,4.9-0.9,9.3-5.5,12.1
	l-16.7,7.8l-15.8,7.5l0.8,1.5l15-9.1l16.7-7.8c1,1.7,2,3.5,2.9,5.1c0.6-1.5,1-4.5,2.8-6.1s5-2.1,7.9-3.1c0.4,5.7-1.7,8.8-6.2,10.8
	c-5.1,2.3-9.9,5-14.9,7.6l0.8,1.4l17.7-9.4c0,2.6-0.1,4-0.1,5.4c1.8-4.5,3.7-8.7,11-8.4c-1.8,3.5-2.8,7-5,9.5
	c-2.8,3.1-6.4,5.4-9.7,8.1c-0.5,0.4-1.2,0.8-1.5,1.3c-1.9,4.7-5.7,8.5-10.5,10.4c-1.1,0.5-1,3.4-1.8,5c-0.7,1.7-1.8,3.3-3,4.7
	c-2.6,2.5-5.4,4.7-8.1,7c-8.2,4.7-13.9,12.1-19.5,19.4l19.5-19.5l10-6.1c-3.4,11.2-9.5,19-16.6,26.9c-0.7-1.5-1.1-2.3-2.3-4.9
	c-3.6,10.9-9.6,18.3-18.5,23.1c1.7-4,7.3-5,7.9-11.5l-10.1,10l-1-1.1c1.7-1.4,3.7-2.6,4.9-4.3c0.8-1.1,1.1-3.8,0.3-4.5
	c-1.2-1.1-3.6-1.9-5.1-1.4c-3,1.1-5.7,2.7-8.2,4.8c-1.3,1-1.8,3.1-2.8,5c-1.8-3.9,0.1-6.2,2.7-8.1c2.3-1.7,4.8-3.2,7.3-4.9l-0.8-1.4
	l-8.3,5c-0.2-0.2-0.5-0.5-0.7-0.7l3.2-4.6l-0.6-0.7l-5.2,3.5l-0.6-0.6l2.6-3.9c-4.2-2.2-7.2-0.8-9,3.1l3,3.5l-4,3.5
	c3.3,9.4-2.6,18.1-2.6,27.7l4.4-12.9l1.8,0.5l-7.2,26l2.2,0.6l8.7-31l2.3,0.6c-1.2,13.4-7,25.9-8.3,39.3l7.9-28.2l1.8,0.5l-7.8,27.9
	l1.4,0.4l9.7-34.8l1.1,0.3l-9.8,35.2l1.4,0.4l9.3-33.4l2.1,0.1c0.1,2.9,1,6,0.2,8.6c-5.7,18.6-11.6,37.2-17.7,55.6
	c-0.7,2.2-3.4,3.7-5.3,5.6l3,2.4c-4.4,0.7-8.2-6.9-12.7,0.1l10.8,8.1c-0.4,0.6-0.8,1.2-1.2,1.8c-2-1.3-4.4-2.2-5.9-3.9
	c-3.8-4.7-9.4-7.4-15.4-7.6c-1.8-0.1-3.6,0.9-6.2,1.7l18.1,11c-0.4,0.6-0.7,1.2-1.1,1.7l-18.4-11.2c-0.3,0.5-0.6,0.9-0.8,1.4
	c4.3,4.5,11.8,5,14.9,11.1c-12.1-6.5-24-13.2-33-23.8l0.9-1.5l14.9,8.9c-0.8-4.5-8.6-4.9-5.8-11.5l9.5,7.7c0.3-0.3,0.6-0.6,0.9-1
	c-2.1-2.1-4.2-4-6.5-5.8c-3.5-2.5-4.6-5.3-2.9-9.4c0.9-2.5,1.6-5,2.2-7.6l-1.2-0.4l-3.3,11.9c-5.7-3.9-1.3-8.6-2.8-12.9l-2.1,7.4
	l-1-0.2l0.9-5.8l-0.7-0.3c-0.5,1-1.1,1.9-1.6,2.8l-5.3-1.9c-0.5,1.4-1,2.8-1.4,4.1l-1-0.2c1-5.3,2.1-10.6,3.2-15.9l-0.4-0.1
	l-4.1,14.7c-4.4,0.4-4.6-2.2-4.1-5.2c1.1-5.2,1.8-10.5,2.3-15.7l-3.1,11.2l-1.6-0.1c-3.8-7.4,0.9-15.2,0-22.8
	c-0.9,4.4-1.9,8.8-2.8,13.1l-1.7-0.2c-1.3-9,3.2-17.6,2.9-26.6c-1.6,7.5-3.1,15-4.8,22.9c-2.4-3.1-4.5-5.7-7-8.9l4.1,0.7
	c-6.5-4.7-1.5-11.1-3.1-16.4l-1,3.4c-5.9-6.1-5.9-6.1-5-11.1c0.8-4.2,1.7-8.3,1.8-12.6l-4.1,14.6c-4.2-2.8-4.5-6.5-2.8-11.7
	c-1.4,1.7-2,2.5-3.6,4.4c0.7-5.5,1.2-9.7,1.8-13.8L35,240c-0.6,3.2-1.3,6.3-2.2,10.9c-3.6-6.1-0.2-11.1-0.6-15.9
	c-3.7,0.5-4.4-1.1-2.4-6.2c0.6,0.3,1.1,0.6,1.6,0.9c0.6,0.7,1.2,1.5,1.7,2.2c-0.1-1.9,0.2-2.7-0.1-3c-2.1-2.4-5.9-4.7,0-7.2
	c0.6-0.2,0.4-2.7,0.3-4c-0.2-1.7-0.7-3.3-1.3-6.4l5,4.4l0.5-0.4l-4-6.6l1-0.6l19,26.1l0.7-0.6c-0.5-2.4-1.3-4.9-1.6-7.4
	c-1-8.4-4.7-15.6-8.8-22.9c-0.9-1.6-0.6-3.9-0.6-5.8c0-1.7,0.2-3.4,0.3-5.1l-2.1-0.1c0.1,7,0.3,14,0.4,21l-1.2,0.3
	c-0.5-2-1.4-4-1.3-6c0.5-8.8,1.3-17.5,2-26.7l-3.5-0.1c0-6.8,0-6.9,3.5-5.5c0-6.6-4.9-13.5,0.6-19.9l-2.9,4c-3.8-3.9-0.8-7,1.7-11.2
	l-4.6,2.8l3.6-6.8L39,144l-3.3,4.4l-1.3-0.8l4.6-7.8l3.5,2.9c-2.3-7.9-6.9-15.7,1-23l2.2-2l13.9-11.9l8.1-7L86.3,88.8z M111.5,228.7
	l0.9-3.2c-0.3-0.4-0.5-0.9-0.8-1.3c-2,1-4.3,1.7-6,3.1c-0.6,0.5,0.4,2.8,0.7,4.5l5.4-3.3l-9,10.2c3.2-1.5,6.8-2.2,8.7-4.4
	c3.3-3.9,5.6-8.7,7.9-12.5L111.5,228.7z M62.5,228.7l0.7,0.1c0.2-3.6,0.8-7.3,0.3-10.8s-2.2-6.6-3.3-9.9s-1.9-6.4-2.9-9.6
	c-1.8,4.1-2.7,7.6-0.1,12.3C60.1,216.1,60.8,222.6,62.5,228.7L62.5,228.7z M115.6,242.2c2.3-0.1,4.8-0.6,7,0
	c3.8,0.9,5.5-0.8,6.6-4.4c-2.3,0-5.3,1.7-6.3,0.9C117.8,234.9,117.9,241.1,115.6,242.2L115.6,242.2z M40.8,130.1l3.3,7.4l1.1-0.5
	c-0.3-1.5-0.5-2.9-1-5.3l2.5,3l4.3-2.9c-0.5-1.3-1.2-2.9-1.9-4.7L40.8,130.1z M80.3,148.9l1.2-0.8l-14.2-21.2l-1.2,0.8L80.3,148.9z
	 M104.9,292.8c3.7-3.6,4.4-6.8,1.2-10.3C100.2,285.5,104.5,288.9,104.9,292.8z M74.7,240.6c0.3-3.4,1.5-6.4-3-6.5
	c-0.2-1.7-0.5-3.3-0.8-5.8C68.1,233.4,68.4,234.2,74.7,240.6z M58.4,118.2c-5.8,2.5-6,5.3-1,11.1c-0.5-2.8-0.9-4.8-1.4-8.1
	c1.5,2.3,2.3,3.5,3.1,4.7l0.7-0.3L58.4,118.2z M128.8,187.8c0.2,0.3,0.4,0.7,0.6,1l18.1-13.2l-0.7-0.9L128.8,187.8z M143,149
	l0.1,0.2l-19.5,10.4l0.2,0.4L143,149z M56.9,173.6l-1.9-0.3c-1.1,6.1-2.3,12.2-3.4,18.3l1.3,0.2L56.9,173.6z M65.5,234.8l1.5-0.1
	l0.3-13.4l-2.2,0.1L65.5,234.8z M168.3,163.4v0.2l-18,10l0,0L168.3,163.4z M103.3,225.8c6.7-1.5,1.3-8.2,5.1-10.5
	C104.6,217.6,104.6,217.6,103.3,225.8L103.3,225.8z M52.1,119l-2.2,0.4c0.8,3.9,1.6,7.7,2.4,11.6l1.4-0.3
	C53.1,126.8,52.6,122.9,52.1,119z M160.1,210.1l-0.9-0.9l-13.1,11.4l0.6,0.7L160.1,210.1z M53,201l1.7,0.3c0.8-3.4,1.5-6.8,2.3-10.3
	l-1.9-0.4L53,201z"/>
<path class="st1" d="M417.3,189.3c5,5.7,3.6,12.5,3.4,19.1c-0.2,1.4-0.4,2.7-0.8,4l-1.3-0.1l0.1-13.3h-1c-0.4,4.3-0.9,8.6-1.3,12.9
	l-1.9,0.1c-0.4-3.5-0.7-7-1.2-11.8c-0.8,2.5-1.2,3.7-1.6,5L411,205c-0.3-5.7-0.5-11.4-0.8-17.2h-1v18.7l-1.5,0.2
	c-5-5.4-1-13.2-4.7-19.2l0.3,11.1l-1.1,0.1l-2.8-14.5l-1.2,0.2l1.9,13.8c-7.4-0.6-18.7-7.1-19.8-11.8c3.3,2.3,6.2,4.3,8.8,6.1
	c1.5-8-3.6-12-8.4-16.3c-6.2-5.6-12.5-11.1-18.7-16.8c-3.4-3.1-6.5-6.4-10.2-9.2l1.9,3.1l-0.7,0.7l-6.7-6.9l-0.7,0.6l3.4,4.8
	l-0.5,0.8c-1.6-0.9-3.1-2.2-4.8-2.7c-2.1-0.6-4.5-0.4-6.7-1c-2.3-0.7-5-1.4-6.6-3.1c-6.2-6.1-12.1-12.6-18-19l-1.1,1l17.1,17.6
	l-1,1.1l-14.6-9c-3.7,2.6-14.3-1.3-20-8.2l3.8-1.6c-1.9-4-8.6-6-15.1-3.8l12.3,1.9l-4.4,1.9l4.5,5.8l-0.7,0.9l-4-2.4
	c-11.5,2-21.2,0.7-26.9-11.6l-1,1.4l4.1,4.4l-1.9,1.9l-10.4-4.4c0.1-0.6,0.3-1.2,0.5-1.7l4.9-0.8c-6.2-3-13.8,1.6-18.1-6.3l8.4-0.8
	v-1L237,113l-0.1-1.6l8.4-0.6v-1.2l-13.5-0.7c-0.1,0.4-0.2,0.8-0.3,1.2c4.9,4.9,10,9.5,14.6,14.7c5,5.5,9.5,11.5,14.2,17.3l5.2-1.3
	l-0.3,1.5c2.4,0.9,4.8,1.8,7.3,2.6c3.1,0.9,6.2,2.1,9.1,3.6c2.2-0.2,4.6-0.9,6.6-0.4c5.7,1.6,11.2,4,17,5.6c5.6,1.6,11.4,2.4,16.9,4
	c2.7,0.8,5.1,2.6,7.7,3.5c5.6,1.9,11.4,3.1,16.7,5.6c9.5,4.5,18.6,9.6,27.8,14.6c2.4,1.3,4.7,2.9,2.4,6.5l-4.5-5.4
	c0,2,0.1,3.1,0.1,5.6l-4.9-6.7l-0.7,5.8l-8.1-11.1l-1,0.4l1.4,3.6l-0.6,0.6c-1.9-2.1-3.8-4.2-5.7-6.3l-0.8,0.6l5.7,9.4
	c-4-0.3-7.2-0.5-10.3-0.8c-10.9-0.9-21.9-1.9-32.8-3c-1.5-0.3-2.8-1-3.9-2.1c-2.6-2.2-5.1-4.6-8.5-6.2l5.8,7.5L239.6,204
	c-0.7-4-0.4-7.1,4.4-8.6c0.5,1.4,0.9,2.7,1,3c1.5-1.9,3.2-3.8,5-5.5c0.2-0.2,2.4,1.8,3.9,3l1.7-6c1.4,2.2,2.1,3.5,2.9,4.7
	c-0.4-4,4.1-8.3-0.8-11.9c-2.1-1.6-4.3-3.5-7.1,0c0.3-2.7,0.6-5.5,1-9l-6.1,4c0.2-4.7,0.3-8.5,0.4-12.8l-4.3,1.7l-1.2-0.9
	c0.7-1.1,1.5-2.2,2.3-3.1c0.4-0.4,1.4-0.3,2.5-0.5l-5.8-4.5l-2.4,2.8l-1.5-0.7l2.4-6l-6.5-8.7l-5.1,2.7l-1.9-6.7l-7.5-5.3l-6.6,4.6
	c-0.9-8.9-0.9-8.9,9.1-10.8c-3.3-0.4-7-1.9-9.8-0.9c-6.5,2.3-6.7-0.9-6.3-5.6c0.1-0.6-0.1-1.3-0.1-1l-16.5-8.9l0.6-1.5l8.9,0.9
	c0.1-0.3,0.1-0.7,0.2-1c-2.1-0.6-4.2-1-6.3-1.8c-3.5-1.3-7-2.8-10.5-4.3c-0.7-0.4-1.2-1.1-1.4-1.9c-0.1-3.5-2.4-4.3-5.2-4.9
	s-4.1-2.2-3.1-5.1c1.5-4.1-1.4-5.2-4.3-6.3c-1.5-0.6-2.9-1.3-5.1-2.4l-2.5,1.7c-0.1-2.3-0.1-4-0.1-5.6l-0.8-0.2l-2.8,6l-2.1-3.9
	l-4.3,3.9l-1.1-1.2c0.7-0.7,1.4-1.6,1.9-2.4c0.3-0.7,0.3-1.5,0-2.1c-0.5-0.6-1.3-1-2.1-0.9c-2.7,0.7-5.4,1.7-8.3,2.6l-1.5-3.2
	l-5.5,5.4c-0.6-2.4-0.9-3.8-1.4-6.3l-3.5,6.6l-2.4-3.2l-2.3,2.9c-0.2-0.5-0.5-0.9-0.5-1c1.1-1.8,2-4.9,3.4-5.2
	c10.7-1.9,21.6-3.2,32.1,0c10,3.1,19.7,6.9,29.2,11.2c10.1,4.4,20.3,5.5,31.2,4.7c18.7-1.4,37.7-3.8,56.3-2.7
	c25.4,1.6,50,8,70.8,24.2l0.1,0.2l14.5,13.3l-18.5-6.1c3.3,3,6.9,5.6,10.8,7.6c4,1.9,8.4,2.9,12.3,4.3c-1.5-1.9-3.1-4-4.7-6.1
	c2.1,1.4,4.3,2.8,6.4,4.2l-0.2-0.2c0.4,0.8,1,1.6,1.6,2.4c13.7,13.9,27.5,27.7,41.3,41.6c1,0.8,2,1.6,3.1,2.2
	C413.1,182.8,415.2,186,417.3,189.3z M318.6,109.5l-0.3,1.8c8.1,1.2,16.4,1.8,22.7,7.8c-2.1-0.3-4.2-0.8-6.3-1.5
	c-1.8-0.5-3.6-0.8-5.4-1.1L329,118l20.4,5.7c-6.4-5-11.9-9.7-17.8-13.9c-4.7-3.3-18.2-6.4-21.4-5.1l19,5.3l-0.1,0.4L318.6,109.5z
	 M397.7,170.7c-12.5-14.1-28.7-25.1-33.1-22.4c3.5,2.9,10.8,1.2,10.4,8.4l10.4,4.2l-1.8,3L397.7,170.7z M263.9,96.2
	c-11.3-2-37.6,2-40.2,5.9c6.6-1.3,12.9-2.9,19.3-3.9S256,96.9,263.9,96.2z M288.9,180.1c-0.1-0.8-0.2-1.6-0.4-2.4l-18.2,4.3
	c2.2,1,4.6,0.1,6.2,0.9C281.8,185.7,284.9,181.6,288.9,180.1L288.9,180.1z M239.1,101.2l0.2,2.1l23.2-3.1l-0.2-1.2L239.1,101.2z
	 M353.4,181.9l-7-10.2l-1,0.6l3.2,6.3l-0.6,0.5l-4.9-5.1C344.9,178.5,345.8,184.2,353.4,181.9z M391.4,171.1l12.8,9.2
	C402.8,174.6,397.5,171,391.4,171.1L391.4,171.1z M332.1,180.3l1.7-1.2c-3.1-4.4-6.3-8.8-9.4-13.1l-1.2,0.9
	C326.2,171.3,329.2,175.8,332.1,180.3L332.1,180.3z M254.1,103.2l0.1,2l14.1-1.1c0-0.5,0-1-0.1-1.5L254.1,103.2z M372,146.8
	c-5.4-5.4-9.5-7.1-13.5-5.8L372,146.8z M336.4,171.6c1.6,3.4,3.1,6.9,4.7,10.4C343.1,176.8,339.1,174.4,336.4,171.6L336.4,171.6z
	 M325,178.3l1.7-1.5l-7.6-8l-1,0.9L325,178.3z M313.4,167.6l-1,1l8.3,9.4l1.5-1.4L313.4,167.6z M272.7,107.6l-0.1-1.3l-12.3,0.6
	l0.1,2L272.7,107.6z"/>
<path class="st1" d="M97,84.5l22.7-5.2c0,4.2,0.2,7.4-5,7.8l1.3-4.6l-0.9-0.6l-5.4,7l-1-0.6l0.6-5.4l-7,8.5l-1.3-0.9
	c0.3-1.4,0.7-2.9,1-4.3l-1.4-0.7l-8,15.5l-1.3-0.7l4.3-9.9l-1.6-0.7c-1.9,4.2-3.8,8.4-5.8,13.1c-0.9-4.3,3.5-15.4,6.7-17.8L97,84.5z
	"/>
<path class="st0" d="M411,179.6c-1.1-0.7-2.2-1.4-3.1-2.2c-13.8-13.8-27.5-27.7-41.3-41.6c-0.6-0.7-1.1-1.5-1.6-2.4
	c2.4,1.8,5,3.3,7,5.4C385.1,152.4,398,166,411,179.6z"/>
<path class="st0" d="M67.6,98.8l-8.1,7l-13.9,11.9c5.2-5,10.4-10,15.8-14.9C63.2,101.2,65.5,100.1,67.6,98.8z"/>
<path class="st0" d="M358.9,129.6c-4.8-4.4-9.7-8.8-14.5-13.3l20.8,17.3c-2.1-1.4-4.3-2.8-6.4-4.2L358.9,129.6z"/>
<path class="st1" d="M422.8,394.5l-22.1,8.9c1.8,1.2,3.8,2.2,3.7,2.4c-0.7,1.7-1.3,3.9-2.8,4.8c-2.6,1.6-5.7,2.5-8.4,4.5l4.8-0.9
	l1.3,0.9c-1.8,2.9-3.5,5.7-5.4,8.8c1.8,1.7-0.2,6-5.2,8.7c6.6,3.6-4,8,2,12.3l-10.7,1.5c0.9-5,1.6-9.2,2.4-13.5l-0.8-0.3
	c-1.5,4.4-3.1,8.9-4.6,13.4l-1.9-0.5l2.1-11.1l-1-0.3l-4.6,12.4l-1.9-0.4c1.1-5.1,2.2-10.3,3.5-15.9l-10.9-0.2l8.8-2.1l-5.3-1.5
	l4.9-2.5l-5.9-0.7l-0.6-1.5l8.1-2.9c-0.2-0.4-0.4-0.8-0.6-1.3l-9.6,2.9c-0.5,2-1.1,3.5-1,5s1,3,1.5,4.5c-1.6,2.3-3.5,4.6-4.9,7
	c-1,1.8-1.5,3.9-3.1,5.6c-0.1-1-0.2-2.1-0.4-3.6c-1.9,1.9-2.2,6.6-6.8,3.5l2.5-1.7c-1.2-1.5-2.4-3-3.7-4.6l-2.2,2.1l-1.1-0.4
	c0.3-3.4,0.6-6.8,0.9-10.5c-4.9-0.2-10.4-2.1-16.2-3.5l0.8-2.6l16.6,1.8l0.1-1.1c-4.1-0.5-8.3-0.8-12.4-1.6
	c-1.5-0.3-2.9-1.6-4.4-2.5c1.5-0.5,3-1.4,4.6-1.5c3.9-0.3,7.8-0.2,11.5-0.5l-32.9-4.9l7.5,8.2l-2.5,1.1c2.3,2.2,4.2,4.5,1,7.4
	c-0.3,0.3,0.4,1.7,0.7,2.6c1.6,5.8-1.9,9.7-7.8,8.8c-4.3-0.7-8.6-0.9-12.9-1.6c-4.4-0.8-6-4.3-3.6-8.2c-3.7-1.8-7.3-2.9-11.6-1
	c-1-2.1-1.1-3.7,2.7-3.8c4-0.1,8-0.9,12-1.4v-1.2c-1-0.3-2-0.4-3-0.5c-4.9,0.3-9.8,0.7-14.8,0.9c-1.1-0.1-2.2-0.4-3.2-0.9
	c1-0.8,1.9-2,3-2.2c4.6-0.9,9.2-1.5,13.8-2.2c1.7-0.3,3.4-0.8,5-1.2l-0.1-1.5c-1.1-0.1-2.1-0.1-3.2,0c-6,1.2-12,2.7-18.1,3.7
	c-2.4,0.4-5-0.5-7.6-0.5c-1.2,0-2.5,0.7-4.1,1.1c-2.2-2.8-1.7-4.5,2.5-4.9c8.3-0.8,16.5-1.8,24.8-2.7c1.5-0.1,3-0.8,4-2l-46.6,4.7
	l5.4,8.3l0.8-0.3l-1.3-6.6l1.5-0.5c2.1,4.8,4.2,9.5,7,16l-20.4-4.2l0.1-1.4l2.9-0.5l0.8-1.2l-15.5-9.4l0.2-1l8.8,1l0.2-0.6l-13-3.6
	c1,3.4,4,7.3-0.9,10.6l5.9,5.9c-6.5-0.8-8.3-8.8-14.8-5.3c-0.2-1.8-0.4-3.2-0.6-4.8l-2.9,0.5c-1.4-2.8-2.1-5.6-3.9-7.2
	c-3.5-3.1-3.3-6.3-1.8-10c0.4-0.9,0-2-0.1-4.5l-4.7,6.1c-0.4-4.7-0.6-8.3-0.9-11.9c2.1-0.3,4.1-0.6,6.3-0.9c-1.6-3,2.3-8.2-3.4-10.8
	c-0.5,2.6-1,4.9-1.4,7.2l-1-0.2c0.2-2.6,0.4-5.1,0.6-7.7l-1.8,0.1c0.3,4.1,0.5,8.2,0.8,12.3l-4.3-0.3c-1.7-2.5-3.7-5.4-5.7-8.4
	c-0.5-0.8-0.8-1.8-1-2.7c-0.6-1.9-0.5-4.9-1.8-5.7c-4.7-2.9-2.2-6.1-1.1-9.5c1-2.6,1.4-5.4,1.1-8.2l-4.4,11.4l-1.5-0.3l-5-13
	l-5.6-8.6c-1.4-4.6-2.9-8.6-3.9-12.8c-2.2-9.2-4.3-18.5-6.2-27.9c-1.9-9.3,0.4-18.1,4.2-26.6c0.3-0.8,0.4-1.6,0.4-2.4
	c0-0.3-0.3-0.5-0.8-1.4l-5.8,7c0-3.6,13.6-20.5,18.5-23.3l-0.1-0.1c-3.8,8.6-8.3,17-11.3,25.9c-3.5,10.4-2.9,21.4-0.9,32.1
	s9.9,17.8,17.2,25.1c2.6,2.6,5.5,4.9,8.6,6.9c9.5,6.2,14.1,16.1,19.2,25.6c4.6,8.6,7.8,8.8,13.6,1.3c2.6-3.4,5.5-6.6,8.7-10.5
	c-10.2-11.8-15.8-26.8-24.2-40.1c6.2,0.6,6.3,0.6,9.3,6.1c4.4,8.2,8.7,16.5,13.2,24.7c1,2,2.4,3.8,3.6,5.6l1.8-0.8
	c-0.7-1.9-1.5-3.7-2.4-5.5c-6.4-11.1-13-22.1-19.5-33.2c-0.6-1.1-1.1-2.2-1.6-3.4l8,1.4c-2.7-2.5-4.9-4.5-7.1-6.5l1.3-1.8l9.7,4.8
	l-5.7-9.8l1.1-1l5.2,3.5l0.8-0.3l-5.7-9.2l0.8-0.7l3.6,4.4c0-1.3,0.1-2.1,0.1-2.2l8.4,0.9l-2.7-6l0.7-0.5l3.3,3.5l0.6-0.3l-6.7-12.6
	l10.7,1.4l-3.7-4.3l1-1.5l7.7,3.8l4.6-1.4c-7.7-0.9-9.2-6.5-11.5-11.7c3.5-0.2,3.5-0.2,9.5,8c-1-2.8-1.5-4.3-2.4-7l4.5,2.9l1-0.6
	l-7.3-10.5c4.3,0,4.4,0,6.3,4c1,2.2,1.7,4.5,2.6,6.8l1.9-1.1l-4.1-8.1l0.6-1l7.3,3.5c-1.1-2.4-2.3-4.8-3.7-7.7l4.9-0.7
	c-0.5-1.3-1-2.6-1.5-4.1c6.1-1,5.1,5.3,8.8,7.6l-1.6-5.2l9.6,0.9c-4.4-2.2-9.3-2.3-9.3-7.8c8.1-1.2,9.8,5.5,13.6,10
	c-1-2.2-2.1-4.5-3.6-7.9l13.5,3.8l1.1-1.2l-6.7-12.4c9.3-0.4,8.6,8.8,13.2,12.2c-0.4-2.4-0.8-4.7-1.4-8.6l4.2,3.3
	c5.7-2.2,2.9-8.4,5.6-12.3c5,3.5,2.7,8,1.8,12.3l1.3,0.1l3.5-12.5l3.9,3.4c-1.1-3.1-1.9-5.5-2.8-7.9c7.6,3.7,2.9,9.4,2.8,15.5
	l3.4-6.7l1,0.2l-3,19.9l1.7,0.4c0.6-1.6,1.2-3.3,1.7-4.9c2.4-7.3,5.2-14.4,6.9-21.9c0.7-2.8-0.8-6.2-1.9-9.2
	c-1.6-3.5-3.3-7-5.2-10.4l1.5-0.8l9.4,14.6c0.8-1.9,2.8-4.6,2.7-7.4c-0.1-2.9-1.7-6.1-3.5-8.6s-4.7-4.6-7.3-6.6
	c-3.8-3-7.6-5.9-11.6-8.7c-4.9-3.4-10-6.6-14.8-9.7c6.1-2.8,13.8-4,21.5-3.7c17.8,0.7,35.5,2.2,52.8,7.3c5.6,1.6,7.9,6.2,10.2,10.8
	c0.9,1.9,1.3,4.1,2.1,6.1c1.2,3.4,3,6.6,5.3,9.4l1.6-5.6c0.9,3.4,1.4,5.4,1.9,7.4h0.7c0.1-1.3,0.2-2.6,0.4-3.9l1-0.1
	c0.2,2.3,0.5,4.7,0.9,8.5c1.4-3.7,2.3-6.1,3.2-8.6l1.5,0.2c-0.8,4-1.5,8-2.3,12.1l1,0.2c0.8-1.7,1.6-3.3,3-6.1
	c0.6,3.3,1.1,5.6,1.5,7.9l1-0.1l-1.2-9.9l1.3-0.1c0.4,3.8,1.4,7.6,1.1,11.2s-1.9,7.5-3,11.2l1.7,0.5l4.1-14.7l1.8,0.3
	c-0.5,4.6-0.9,9.2-1.4,13.8l1.8,0.2c0.7-4.5,1.5-9,2.3-14.1c2.3,3.5,2.3,3.5-0.7,16.4c3.8,2,3.3,5.6-2,12.6c-1.1-1-2.1-2.1-3-3.2
	c-10.5-14.5-25.8-16.8-41.9-15.9c-15.1,0.8-26,8.5-33.4,21.9c-2.4,4.4-3.5,8.7-4.6,13.3c-3,11.9-6.3,23.8-9.7,35.6
	c-0.7,2.3-2.4,4.4-3.7,6.5l2.6,2.5c0.7-1.6,1.5-3.3,2.4-5.1c4.9,5,4.4,10.8-0.9,14.1c-3.6,2.3-7,4.8-10.5,7.1l-1.6-2.9l14.6-5.3
	l-1.3-2.5c-6,0.9-9.9,8.5-15.9,6.1c-3.1,2.4-5.4,4.6-8.1,6.2c-6.2,3.6-12.6,7-18.8,10.5c-0.8,0.5-1.3,1.5-1.9,2.3l0.7,1.1l6.4-2.5
	l0.4,0.5c-0.6,0.7-1.4,1.4-2.2,2c-11.3,6.1-22.4,12.5-33.9,18.2c-11.9,6-18.5,15.9-22.3,28c-1.4,4.5,0.5,7.5,5.7,9.5
	c9.8,3.7,19.9,3.5,30.1,2.8c6-0.4,11.9-1,17.8-1.7c5-0.6,9.9-1.8,14.8-2.1c5.7-0.3,11.7-0.7,17.2,0.6c13.4,3.1,26.2,4.1,39.7-0.5
	c20.8-7.2,42.2-12.5,61-24.5c9.7-6.2,19.3-12.5,28.5-19.3c4.4-3.3,8-8,11.3-12.5c1.7-2.6,2.7-5.7,2.6-8.9c0-5.8-1-11.5-1.7-18
	l-1.5,5.4c-3.7-7-6.5-13.2-10.1-19.1c-5.2-8.5-11.2-16.4-16.1-25c-2.6-4.7-4-10.2-5.3-15.4c-0.9-3.4-0.7-7.1-2.1-10.6l-1.9,4.2
	l-1.3-0.4l6.6-19.9l0.7,0.1c-0.1,5-0.3,10-0.4,15l1,0.3c1-3.1,2.1-6.1,3.1-9.2l1.1,0.2c-0.5,3.5-1,7-1.5,10.5l1.4,0.5l2.9-6.6
	l0.9,0.1l-1.4,9.8l1.4,0.2c0.8-6.3,1.6-12.6,2.6-20c3.1,8.1-0.6,14.6-1,21.6c0.9-1.4,1.7-2.8,3.3-5.4c-0.5,4.9-0.8,8.5-1.2,12.1
	l1.2,0.4l3.9-9.8l0.8,0.2c-1,5.6-2,11.3-3,16.9l1.2,0.3l4.3-12.7l1.4,0.4c-1,5.7-2,11.4-3,17.1l0.8,0.3l2.8-8.3l1,0.1
	c-0.2,1.9-0.4,3.8-0.7,5.7c-0.9,4-2,7.6,1.4,11.7c2.1,2.5,1.4,7.4,2.2,12.3c1.3-2.9,2.3-5,3.6-7.8c0,2.2,0,3.6-0.1,5.1l1.1,0.1
	c0.6-4.7,1.2-9.5,1.8-14.2l1.7,0.1c-0.5,7.7-0.9,15.3-1.4,23l0.5,0.2l3.1-11.2l1.3,0.3l-1.8,12.1l1,0.2l3.4-17.8
	c2.2,7.7-3,15.2-0.6,23.1l4.6-16.6c2.1,8.5-2.6,16.1-3.4,24.2l1.4,0.4l4.9-17.7l1.9,0.6l-5.5,19.6c2.3,1.6,3.9,2.2,4.6,3.4
	c2.8,4.5,2,9.4,1.3,14.3c-0.1,1.8-0.1,3.6,0.1,5.4l1.4,0.5l-15.6,17.7l0.6,0.7c3.8-3.8,7.5-7.5,11.2-11.3l1,1l-5.6,6.5l4.5-2.3
	l0.6,0.7c-4.5,4.6-9,9.2-13.5,13.8l0.2,0.5l3.5-1.6c0,3,0.5,5.8,0,8.5c-0.3,1.4-2.3,2.4-3.6,3.6c-1-1.1-2.5-2.1-3-3.4
	c-0.8-1.9-1.1-4-1.7-6.6l-5.1,3.9L444,382l6.6-8.5l-1.4-1l-4.5,5.2l-1.4-0.8l4-6.8l-0.9-0.9c-10.6,11.7-24.6,18.1-38.2,25.1
	c12.2-3.5,22.6-10.7,33.3-17.5c0.4,0.5,0.8,1,1.2,1.5c-1.3,1.6-2.4,3.5-4,4.7c-5.1,3.9-10.5,7.6-15.7,11.4L422.8,394.5z
	 M408.3,388.5c11.4-2.7,36-20.2,35.5-25.4c-0.6,0.2-1.2,0.5-1.7,0.9c-5.4,4.6-10.5,9.6-16.2,13.8c-5.5,4.1-11.7,7.3-17.5,10.9
	l-17.1,5.3l0.7,1.8L408.3,388.5z M367.8,197.9l-5-5.8c-6,3.6-11,1.8-16.4-1.9c1.3,2.5,2.5,5,3.6,7.1l12.4-0.4l0.1-1.3
	c1.3,1.6,2.6,3.1,4.4,5.1l0.9-3.1l7.4,5.5l1.4-2.1l-9-5.8L367.8,197.9z M343.9,198l1.3-0.5l-2.5-6.5l-17.2-2.3l6,9l9.3-0.1
	c-0.4-2.2-0.7-3.6-0.9-5.1l0.6-0.2L343.9,198z M315.7,277.1l-1.6-0.7c-5.5,6.7-7.4,14.7-8,23.2L315.7,277.1z M319.6,195.7l0.9-0.7
	c-1.5-2.5-3.1-4.9-3.9-6.2l-9.9-0.6l-0.3,1.1L319.6,195.7z M284.9,326.2c4.4-4.4,9.9-8.2,8.6-15.9l-3.8,9.1l-0.9-0.3l0.3-4.5
	l-0.9-0.2L284.9,326.2z M191.7,369.8c1.9-5,5.1-9.7,2.5-15.2C193,359.7,188.6,364.2,191.7,369.8z M230.3,318.3l-1.5,0.7
	c3.5,7,7,14,10.4,21l1.4-0.7L230.3,318.3z M337.9,215.1c1.9,8.3,3.5,10.1,8.2,9c-2-3.8-3.8-7.4-5.7-11.1l-1.2,0.6
	c0.9,1.9,1.7,3.7,2.6,5.6l-0.7,0.3L337.9,215.1z M255.6,319.1l1.5-0.6c-3.3-6.8-6.5-13.7-9.8-20.5l-1.3,0.6
	C249.2,305.5,252.4,312.3,255.6,319.1z M326.3,253.1l1.2,0.2l4.9-17.7l-2-0.5C329.1,241.1,327.7,247.1,326.3,253.1L326.3,253.1z
	 M221.7,408.7c-2.3-2.2-3.8-3.6-5.5-5.3l3.4-1.1l-7-5.4C212.8,403.5,215,407.2,221.7,408.7z M260.5,321.6l1.4-0.6
	c-3.1-7.3-6.1-14.5-9.2-21.8l-1.4,0.6L260.5,321.6z M265.3,316.5c0.6-7.6-3.2-11.1-8.7-13.5L265.3,316.5z M265.1,336.2l1.1,0.9
	c9.4-7.3,9.4-7.3,8.4-11.2L265.1,336.2z M234.6,312.5l-1.3,0.6c3.2,6.8,6.4,13.6,9.6,20.4l1.4-0.6L234.6,312.5z M243.9,301.7
	l-1.3,0.7l9.8,20l1.4-0.7C250.5,315,247.3,308.3,243.9,301.7L243.9,301.7z M248.3,323.6l1.4-0.7l-9.1-18.9l-1.3,0.6
	C242.3,311,245.3,317.3,248.3,323.6L248.3,323.6z M277,273.6l0.1-0.1c3.3,6.2,6.6,12.4,9.9,18.6l0.2-0.1L277,273.6z M186.1,360.6
	c1.8-3.9,4-7.2-0.3-10.4C183.1,357,183.1,357,186.1,360.6L186.1,360.6z M300.6,305.3l1.4,0.1c0.8-5.9,1.5-11.8,2.3-17.6l-1.9-0.2
	L300.6,305.3z M285.4,270.6l-1.6,0.8l7.2,14.1l1.3-0.7L285.4,270.6z M244.7,327.4l1.5-0.6c-2.6-5.3-5.2-10.7-7.8-16l-1.2,0.6
	L244.7,327.4z M435.9,367.6c-0.5-0.6-1-1.2-1.5-1.8l-10.1,8.8l1,1.2L435.9,367.6z M288.4,289.4l1.5-0.6l-8-16.6l-1.3,0.6
	C283.2,278.4,285.8,283.9,288.4,289.4z M321,187.7l-1.6,1.6c2.8,2.9,5.6,5.9,8.5,8.8l1.1-1.1L321,187.7z M215.4,387.9
	c1,1.6,1.6,2.6,2.6,4.2c-0.6-8.1-0.6-8.1-5-7.4c0.4,2.1,0.8,4.2,1.2,6.4l1-0.1C215.3,390.3,215.3,389.6,215.4,387.9z M378.9,228.4
	l1.9-2l-6.6-5.4l-1.3,1.3L378.9,228.4z M390.8,235.3l1.7-1.7l-7.2-6.6l-1.3,1.2L390.8,235.3z"/>
<path class="st1" d="M397,354.2c-4.7,3.5-3.4-3.2-5.5-3.3l-3.3,2.5c0.1,1.7,0.2,4.1,0.1,6.6c0,0.2-1.7,0.4-2.6,0.6l0.1,0.2
	c-1.4-2.4-2.8-4.9-4.2-7.4l-2.5,8.8l-5.6-9.1c1.2,6.5,8.3,12.1,1.3,20.7c-0.9-4.3-1.6-7.6-2.3-11c-5.6,1.8-4-5.4-7.2-6.4l-4.3,15.4
	l-2.2-0.2c0-2.9-0.1-5.9-0.1-9.2c-0.7,1.3-1.3,2.5-2.2,4.2c-1.8-3-3.4-5.5-5.2-8.4c-0.5,1.1-0.8,1.9-1.9,4.5l-1.8-5.2l0.1,0.1l4.1-2
	l-0.5-1.1c-2.6,1.4-5.2,2.8-7.8,4.3c-3.4,1.9-6.3,2.9-6.6-3.5c-1.3,1.4-2,2.2-2.7,2.9l0,0l-4.1,0.3c0-1.5,0-2.7,0.1-5.1l-6.3,10.7
	l-5.1-7.5l6.5-4.4l-0.2-0.6l-7.1,2.8l-0.7-1.1l5.7-4l-0.4,0.2l8.3-4.6l-0.2,0.1c4.1-2.8,0.6-5.9,0.2-8.9c-0.3-2.5-3-5.1,0.9-7.5
	c0.7,1.6,1.3,3,2,4.7l1.4-7.7l-0.2,0.1l4,2.8c1-7.6,9.5-7.9,15.1-13.1c0.5,2,0.8,3.1,1.4,5.4c0.5-1.8,0.6-2.1,0.7-2.5
	c0.3-1.3,0.1-3.3,0.9-3.7c12-6.9,24.2-13.6,36.7-20.5c0.7,5.1-1.8,7.5-5.4,9.5c-9.3,5.2-18.6,10.5-27.9,15.7
	c-0.8,0.4-1.3,1.2-1.3,2.1c6.4-3.6,12.9-7.1,19.3-10.8s12.6-7.5,19-11.3c1.4,3.8,1.4,3.8-4,7c-2.7,1.4-5.2,3.3-7.4,5.5l24.9-12.9
	l1.4,1.3c-1.7,2.1-2.9,4.8-5,6.1c-5.4,3.2-11.1,5.9-16.7,8.7l1,1.9c4.6-2.6,9-6.3,14-7.5s7.8-5.9,12.8-6.2l1,1.7l-14.3,9.3
	c0.2,0.3,0.3,0.7,0.5,1l10.8-5.8c0.3,0.5,0.6,1,0.9,1.5c-2.3,1.5-4.5,3.2-7,4.6s-5.1,2.4-7.7,3.6l0.7,1.4l19.9-9.3l1,1.6
	c-2.8,1.9-5.5,3.8-8.4,5.6c-3.1,1.8-6.1,3.9-8.9,6.2l21.4-10.4c-3.3,7.3-11.6,8.2-16.1,14l7.5-3.9l0.6,0.9l-6.3,4.9l0.3,0.6l5.9-1.9
	l0.6,1l-5.7,4.3l3.3,2.6l-0.1-0.2l-1.8,6.5l-1.5,0.5l-7.8-13c0.1,6.1,6.6,9.2,3.7,15.6l-4.9-7.4l-0.7,0.3l5.1,11l-1.3,0.7l-3.2-4
	l-3.3,3.8l-3.5-4.5l-0.6,0.3l3.7,9.4l-2.1,1c-1.1-2.9-2.2-5.9-3.2-8.8l-1.6,0.8l1.4,6L397,354.2z"/>
<path class="st1" d="M137.4,353.9c0.2,2.6,0.4,5.3,0.6,8c-11.1-16.1,1.5-49,14.4-66.6c-2.9,6.6-5.8,13.2-8.6,19.9
	c-1.3,3.1-2.4,6.2-3.3,9.4c-0.3,1,0.6,2.2,0.6,3.4c-0.1,1.2-0.6,2.2-1.4,3c-0.1,1.9,2.7,4.7-2.2,5.1c0.6,4.2,0.8,8.6,2,12.6
	C140.3,351.6,141.2,353.5,137.4,353.9z"/>
<path class="st1" d="M322.6,349.6l0.4-0.2l-6.5,2.2c-4.2-4.8-4.2-5.2,1.1-8.1c1.9-0.9,3.9-1.6,5.9-2.3l-0.9-1.6l-10.3,5.1l-0.7-1.4
	l13.5-6.5C326.7,340.9,328.5,345.8,322.6,349.6z"/>
<path class="st1" d="M386.2,289.8c1.4,4,1,6.7-2.9,8.5c-4.8,2.2-9.3,5-14,7.5c-2.1-3.6-1.6-6.2,2.2-8.1
	C376.5,295.1,381.2,292.4,386.2,289.8z"/>
<path class="st1" d="M321.9,324.3c2.6,5,2.7,7.6-1.6,9.8c-3.4,1.7-6.2,4.6-9.3,6.9c-4.7-6.6-4.7-6.5,1.8-10.4
	C315.9,328.8,318.8,326.5,321.9,324.3z"/>
<path class="st1" d="M366.2,301.3c2,6-0.1,8.3-10.4,11.6C352.4,307.8,353.5,306.9,366.2,301.3z"/>
<path class="st1" d="M213.9,156.8c-0.4,9.1-1.1,9.9-9.6,11.3C203.3,159.8,205.2,157.4,213.9,156.8z"/>
<path class="st1" d="M459,388.9c-1.9,8.8-3.7,16.8-5.4,24.7l-1.5-0.2c0.5-5.5,1.1-11,1.5-16.5C454,390.9,454,390.9,459,388.9z"/>
<path class="st1" d="M148.2,130.3c1.3-0.4,2.7-1.3,3.8-1c0.8,0.2,1.8,2.4,1.5,3.1c-0.7,1.2-3.1,3.1-3.4,2.8
	c-2.8-2.1-5.3-4.5-7.6-7.1c-0.2-0.2,2.4-2.7,3.6-4.1c0.8,1.6,1.8,3.3,2.5,5C148.7,129.4,148.2,130.1,148.2,130.3z"/>
<path class="st1" d="M289.1,140.1c-5.1,2.7-12.8,0.1-15.5-5.2C280,133.1,285.6,134.9,289.1,140.1z"/>
<path class="st1" d="M179.4,256.4c3-3.4,5.8-7.2,9.2-10.3c8.6-7.8,17.5-15.2,26.3-22.7l1.2,1.3l-8.5,7.4
	c-7.6,6.6-15.2,13.2-22.9,19.9c-1.7,1.5-3.6,2.9-5.4,4.3L179.4,256.4z"/>
<path class="st1" d="M189.1,228.7c-1.9-5.5,2.5-16.2,8.1-18.4c-1.9,6.9-2.2,13.9-8.4,18.5L189.1,228.7z"/>
<path class="st1" d="M105.3,119.7c6.6,1,10,6.6,14.9,10.4C116,133.4,113.1,131.4,105.3,119.7z"/>
<path class="st1" d="M123.4,114.8c1.1,2.2,1.8,3.7,2.6,5.3l0.5-0.8l7.5,5.7c-2.7,2-5.3,3.9-8.4,0.8
	C122.8,123.1,118,120.9,123.4,114.8z"/>
<path class="st1" d="M168.9,255c-2.3,0.6-3.9,0.6-4.9,1.4c-3.6,3.1-7,6.5-10.5,9.8l-1.4-1.4l16.9-17.7
	C169,250.8,169,253.1,168.9,255z"/>
<path class="st1" d="M352.5,309.3c1.9,6,1.2,6.9-7.6,9.7C342.4,313.5,343.8,311.6,352.5,309.3z"/>
<path class="st1" d="M268.3,432.5c-9.7,2.2-29.2-1.5-29.9-4.9L268.3,432.5z"/>
<path class="st1" d="M138.6,89.1c-1.7,4.3-3,8.2-4.8,11.8c-0.5,1-2.6,1.2-4.3,1.8C130.1,94.7,133.3,89.7,138.6,89.1z"/>
<path class="st1" d="M227.7,211l-9.9,6.1l-1-1.2c1.8-2.5-0.9-8.1,5.9-7.5c0.8,0.1,1.9-2.1,3-3.5l2.1,6.1L227.7,211z"/>
<path class="st1" d="M208.2,149.2c0.7-3.5-1.5-7.9,4.3-8.4c3-0.3,3.4,1.5,3.4,4.1C215.7,150.4,212,149.2,208.2,149.2z"/>
<path class="st1" d="M100.9,121.4c5.8,2.3,9.1,7.4,13.4,11.8C110.2,135,104.9,130.4,100.9,121.4z"/>
<path class="st1" d="M227.8,211.1c0.2-2.3,0.6-4.6,1.1-6.8c0.2-0.7,2-0.9,3.4-0.6l5.1-5.9c1.2,5.3,0.7,8.5-4.1,9.9
	c-2,0.6-3.7,2.1-5.5,3.2C227.7,211,227.7,211.1,227.8,211.1z"/>
<path class="st1" d="M230.9,267.2c5.6,0,7.6,2.1,10.2,10.8C235.5,277.9,233,275.2,230.9,267.2z"/>
<path class="st1" d="M214.9,164.6c0.8-9,0.8-9,6.6-9.2C223.3,162,222.2,163.8,214.9,164.6z"/>
<path class="st1" d="M296.5,148.5c-5.8-1.8-12.4-1-17.9-5.5C285,140.8,291.7,142.8,296.5,148.5z"/>
<path class="st1" d="M93.7,110.3c-0.4-1.8-1.5-3.8-1.1-5.4c0.8-3.6,3.6-5.3,8.2-5L96,110.6L93.7,110.3z"/>
<path class="st1" d="M212.4,174.5c0.6-8,1.4-8.7,8.1-8.4C221.6,172.4,217.3,173.4,212.4,174.5z"/>
<path class="st1" d="M337.9,315.3c-1-3.7-1.9-6.6-2.5-9.5c-0.8-3.5,1.5-3.7,4.9-3.7C338.7,306.3,344.9,311.2,337.9,315.3z"/>
<path class="st1" d="M294.6,365.6c-3.8,0.7-6,1.6-8,1.3c-0.8-0.1-2-3.2-1.5-4.5s3.1-2.9,4-2.5C290.9,360.7,292,362.8,294.6,365.6z"
	/>
<path class="st1" d="M187.4,145.3c4.6,2.2,4.9,5.1,1.9,9.4c-2.5-2.8-6.6-3.7-6.1-8.8l2.1,1.9L187.4,145.3z"/>
<path class="st1" d="M262,242.1c5.1-0.8,7.9,0.9,9.9,6.2C265.7,249.3,263.5,247.9,262,242.1z"/>
<path class="st1" d="M381.3,380.8c-4.9-3.6-4.1-7.7-1.8-12C384.4,372.9,384.8,375.2,381.3,380.8z"/>
<path class="st1" d="M385.8,360.8l-0.1-0.2c0.1,3.4,0.3,6.8,0.4,10.1l-1.7,0.1c-3-3.3-5.3-6.8-2.1-12L385.8,360.8z"/>
<path class="st1" d="M126,128.1c-4.9,3.5-6.5-1-8.9-2.8c-1.1-0.8-1.3-2.8-1.9-4.2l1.7-1L126,128.1z"/>
<path class="st1" d="M219.6,181.4c0.5-7.9,1-8.5,6.9-9.2C227.2,176.7,225.9,178.4,219.6,181.4z"/>
<path class="st1" d="M329.3,306.9c-0.5,4.9,3.4,9.1-0.6,13.6C325.4,314.1,325.4,309.6,329.3,306.9z"/>
<path class="st1" d="M432.4,325.8c0.6,2.4,1.6,4.1,1.1,5.1c-0.8,1.5-2.6,2.5-4,3.8c-1-1.6-3.1-3.7-2.7-4.7
	C427.5,328.5,429.9,327.6,432.4,325.8z"/>
<path class="st1" d="M293.9,379.3c-3.4-2.6-2.5-5.6-0.5-8.5c0.4-0.6,2.5-0.7,3.1-0.1C298.6,372.4,297.2,376.9,293.9,379.3z"/>
<path class="st1" d="M147,379.1l11.1,18.9l0.2-0.1l-11.7-18.5L147,379.1z"/>
<path class="st1" d="M149.8,111.2c5.6,2.3,3.3,5.6,1.7,8.9C146,118,145.8,117.2,149.8,111.2z"/>
<path class="st1" d="M43.7,209l7,17.8C44.9,223.4,42.6,217.7,43.7,209z"/>
<path class="st1" d="M337.3,158.5c-7.4,1.7-10-3.5-12.8-8.7L337.3,158.5z"/>
<path class="st1" d="M115.8,106.2c-3.5-3.3-1.3-9.8,3.6-12.8L115.8,106.2z"/>
<path class="st1" d="M336.8,316.8l-4.5,0.6c-0.3-4.2-0.7-8.3-1-12.4l2.1-0.4L336.8,316.8L336.8,316.8z"/>
<path class="st1" d="M168.6,260.5c-1.8,2.4-3.4,5.1-5.5,7.2c-2.3,2.1-5.2,3.7-8.2,4.5l12.2-12.6L168.6,260.5z"/>
<path class="st1" d="M79.1,109c-0.9,2.2-1.9,4.4-2.7,6.3c1.8,2.6,3.4,4.9,5,7.2C73.1,120.6,72.4,116,79.1,109z"/>
<path class="st1" d="M198.8,219.6c2.2-5.5,4.1-10.1,6.1-14.8C206.4,210.2,203.4,217.5,198.8,219.6z"/>
<path class="st1" d="M222.5,162.2l4.4-7.5c0.8,1.1,2.3,2.2,2.4,3.4C229.4,161.5,227.4,163.1,222.5,162.2z"/>
<path class="st1" d="M263.4,138.2c-5.7-0.4-7.4-5.3-10.8-8.2c0.2-0.4,0.4-0.8,0.5-1.2c1.2,0.2,2.8-0.1,3.4,0.6
	C258.9,132.1,261.1,135.2,263.4,138.2z"/>
<path class="st1" d="M358.3,165.9l-16.3-13l1.2-1.5l16.2,13L358.3,165.9z"/>
<path class="st1" d="M29.7,195.2c0.4-3.6,0.7-7.3,1.1-11.6c4.8,4.4,4.7,6.2,0.6,11.7L29.7,195.2z"/>
<path class="st1" d="M200.5,288.5c-4.2-0.9-8.2-1.1-8.8-6.2C197.7,281.4,198.9,282.2,200.5,288.5z"/>
<path class="st1" d="M279.9,247l0.9,4.6c-4.9,0.4-7-2.7-9-7.9l8.1,3.4L279.9,247z"/>
<path class="st1" d="M365.8,294.8c0.6,6.2-3.8,6.4-7,8.3C356.8,296.7,361.9,296.9,365.8,294.8z"/>
<path class="st1" d="M188.9,228.8c0.7,0.7,2,1.8,1.9,2.2c-1.2,3.1-2.8,6-4.9,8.7c-1.5-4.6,0.7-7.8,3.3-11L188.9,228.8z"/>
<path class="st1" d="M258.9,238.6c-0.7-2.6-1.1-5.3-1.5-8c0-0.6,1.9-2,2.6-1.8c1,0.2,2.4,1.7,2.3,2.5c-0.4,2.5-1.1,4.9-1.9,7.3
	L258.9,238.6z"/>
<path class="st1" d="M134.1,116.8l4.4-0.4c-0.4,2.5-0.9,5-1.3,7.6c-5.5-1.8-3-4.9-2.9-7.3L134.1,116.8z"/>
<path class="st1" d="M279.9,247.1l4-1.4c1.4,2.3,3,4.8,4.7,7.5C282.8,254.5,282.1,249.8,279.9,247.1
	C279.9,247,279.9,247.1,279.9,247.1z"/>
<path class="st1" d="M134.3,116.7l-3.4,4.1c-0.8-2.4-2-4.2-1.7-5.7c0.3-1.3,2.3-2.2,3.6-3.2l1.4,5L134.3,116.7z"/>
<path class="st1" d="M365,368.4c0.4,0.3,0.9,0.5,1.1,0.8c0.7,1.1,1.2,2.3,2.1,3.9l-3.2,0.7c0.2,1.5,0.4,3.1,0.6,5
	C361.2,377,361.2,374.8,365,368.4z"/>
<path class="st1" d="M406.3,407.8c-1.3-5.8,3.3-5.8,6.2-7.5C413.4,405.4,413,405.9,406.3,407.8z"/>
<path class="st1" d="M388,293l3.5-6.4c0.9,0.8,2.3,1.4,2.5,2.3c0.7,3.5-1.7,4.4-4.3,5L388,293z"/>
<path class="st1" d="M338.2,377.7c0.7,1.7,2.4,3.8,1.9,5c-0.7,1.5-3.1,2.4-4.7,3.5l-1-0.8l2.1-7.4L338.2,377.7z"/>
<path class="st1" d="M206.4,222.1l3.8-8.4l1.7,0.8c-0.2,3.3,0.1,6.9-3.7,8.6L206.4,222.1z"/>
<path class="st1" d="M403.4,417.7c1.2-4.2,0.9-8.3,6.4-8.7C409.9,413.4,408.8,416.4,403.4,417.7z"/>
<path class="st1" d="M274.4,389.7l2.5-9C281.9,385.8,281.5,387.6,274.4,389.7z"/>
<path class="st1" d="M286.3,382.5c-0.4-2.4-0.6-4.9-0.7-7.4c0-0.3,1.9-0.6,2.9-0.9c0.3,2.7,0.6,5.3,0.9,8L286.3,382.5z"/>
<path class="st1" d="M86.6,105.8l-5.2,11.1h-1.5c-0.3-1.3-1.3-3-0.8-3.7c2.1-2.7,4.4-5.3,6.8-7.8L86.6,105.8z"/>
<path class="st1" d="M228.3,164.1c0.6,4.6-1,7-6,6.7C222.1,166.4,223.1,163.5,228.3,164.1z"/>
<path class="st1" d="M216.3,148.2l3.6-6.7c1,1.2,2.8,2.3,2.9,3.7C223.2,148.6,220.6,148.4,216.3,148.2z"/>
<path class="st1" d="M206.6,156.3c0.3-6.4,4.4-5.3,8.2-5.4C214.6,156.8,210.1,155.1,206.6,156.3z"/>
<path class="st1" d="M309.4,146.5l8.4,5.7c-0.5,0.7-0.9,1.4-1.4,2.1l-8.5-5.6L309.4,146.5z"/>
<path class="st1" d="M343.6,299.3c0.6,4,2.8,7.8,1.4,11.9l-1.9,0.2l-1.8-11.9L343.6,299.3z"/>
<path class="st1" d="M214,284.9c-6.1-1.4-7.5-3.5-6.4-10L214,284.9z"/>
<path class="st1" d="M350.6,296.4c0,2.9,0.8,6.2-4.8,6.6c0-1.9-0.5-4.1,0.3-5.6c0.4-0.8,3-0.6,4.5-0.8L350.6,296.4z"/>
<path class="st1" d="M330.7,345.1l0.2-0.1c-4.8-2.7-3.3-7.2-4-11.1l2.2-0.5C329.7,337.3,330.2,341.2,330.7,345.1z"/>
<path class="st1" d="M301.1,375.4c-0.9-2.4-1.8-4.5-3.2-8.1c2.2,0.6,4.3,0.6,5.1,1.5C304.9,371.1,304.9,373.5,301.1,375.4z"/>
<path class="st1" d="M114.8,95.3c-0.5,1.4-1.1,2.7-1.8,4c-0.6,0.9-1.3,1.7-2.3,2.3c-0.3,0.2-1.8-0.7-1.8-1.2
	c-0.1-1.2-0.1-2.9,0.7-3.6c1.2-1.1,3-1.6,4.5-2.4L114.8,95.3z"/>
<path class="st1" d="M95.8,97.1l6.4-5.8l1.9,2.1l-6.4,6L95.8,97.1z"/>
<path class="st1" d="M308.2,238l-1.5-9.2l1.7-0.3c2.7,2.6,4.4,5.4,1.8,9.2L308.2,238z"/>
<path class="st1" d="M408,419.6c-1.5,2.2-3,4.5-4.6,6.7l-1.5-1c-0.1-3.4,0.5-6.2,4.6-6.7L408,419.6z"/>
<path class="st1" d="M127.2,101.2c-1.9-5.9-0.2-9.7,4.6-11.1L127.2,101.2z"/>
<path class="st1" d="M151.7,98.7c-2.7-5.2-1.5-8.8,2.9-10.4L151.7,98.7z"/>
<path class="st1" d="M225.3,197.1c-1.1,3.1-2.2,6.1-3.3,9.2l-1.8-0.7c0.1-3.5,0.3-6.9,3.5-9.3L225.3,197.1z"/>
<path class="st1" d="M90.9,121c-2.4-2.7-6.2-4.3-2.2-8.4C92.1,114.4,93.9,116.5,90.9,121z"/>
<path class="st1" d="M270.3,384.9c2.5,1.9,2.5,4.3,1,6.8c-0.4,0.6-1.6,0.6-2.5,1c-0.1-2.5-0.3-5.1-0.5-7.6L270.3,384.9z"/>
<path class="st1" d="M384.2,283.1c3.5,6.1-1.3,6-4,7.9C376.9,285.6,381.9,285.6,384.2,283.1z"/>
<path class="st1" d="M383.7,278.1c-1.3,2.4-2.5,4.9-4.2,8.1C376.1,279.7,376.3,279.3,383.7,278.1z"/>
<path class="st1" d="M202,208.4c-1.6,4.5-3.3,8.9-5,13.4l-1.6-0.6l4.7-13.4L202,208.4z"/>
<path class="st1" d="M252.8,365.9l10-4.3C261.9,365.2,257.7,367.8,252.8,365.9z"/>
<path class="st1" d="M300.4,361.8c-1.1-3.1-1.9-5-2.4-6.9c0.8-0.5,1.7-0.8,2.6-1c1.2,1.6,2.1,3.4,2.8,5.3
	C303.5,359.6,301.8,360.6,300.4,361.8z"/>
<path class="st1" d="M264.7,136.3c4.2-3,6.6-2.1,7.1,3.3L264.7,136.3z"/>
<path class="st1" d="M404.8,427.6l-3.5,9.3C398.3,432.1,399.4,429.5,404.8,427.6z"/>
<path class="st1" d="M339.1,322.3c-1-3.3-2.5-6.3,2.5-7.4C342.5,317.9,344.6,321,339.1,322.3z"/>
<path class="st1" d="M88.9,126.2c-5.2-2.7-5.8-4.2-2.9-7.8c2.3,2.2,5.6,3.9,2.7,7.9L88.9,126.2z"/>
<path class="st1" d="M280.1,371l0.4-6.7l1.6-0.5c1.1,1.5,2.8,2.8,3,4.4c0.1,1.1-1.9,2.4-2.9,3.6L280.1,371z"/>
<path class="st1" d="M216.1,201.1c-1.2,3.6-2.4,7.1-3.6,10.7l-1.3-0.5l3-10.9L216.1,201.1z"/>
<path class="st1" d="M396.9,354.3c4.3,3.3,4.6,4.3,2.4,8.6c-3.7-2.1-2.6-5.5-2.3-8.6L396.9,354.3z"/>
<path class="st1" d="M221.1,302.4l-5.8-6.9c5.2-0.3,5.7,0.3,7,5.8L221.1,302.4z"/>
<path class="st1" d="M335.9,373l-3.3,5.6c-0.8-0.7-2.3-1.7-2.2-1.9c1-1.8,2-3.5,3.2-5.2L335.9,373z"/>
<path class="st1" d="M212.4,299.9c1.9,2.4,3.8,4.8,6.3,8c-6.1,0.2-6.4-3.8-7.9-6.5L212.4,299.9z"/>
<path class="st1" d="M313.1,354.6c-0.5-0.1-1.2-0.1-1.4-0.4c-1.1-1.9-2-3.8-3-5.8c0.9-0.3,2.4-1,2.5-0.8c1.3,2,2.3,4.1,3.4,6.2
	L313.1,354.6z"/>
<path class="st1" d="M166,123.8c-0.5,2.3-1.1,4.6-1.7,6.8c-0.8-0.1-1.6-0.2-2.3-0.5c0.3-2.3,0.7-4.6,1.1-7L166,123.8z"/>
<path class="st1" d="M457.2,409.4l5.4-19.4l1,0.2l-5.4,19.4L457.2,409.4z"/>
<path class="st1" d="M372.4,290.5c2.9,5.7-1.9,5.4-4.1,7.2C365.2,292.7,369.1,292.1,372.4,290.5z"/>
<path class="st1" d="M173,254.6l2.9-14.3l1.3,0.3c-0.8,4.8-1.7,9.6-2.5,14.3L173,254.6z"/>
<path class="st1" d="M123.3,357.4l-9-6.9c0.4-0.5,0.7-1,1.1-1.5l9.4,6.3L123.3,357.4z"/>
<path class="st1" d="M335.2,325.6c-3.7-3.4-3.4-5,1.5-8.8l0,0c-0.5,3,2.6,6.6-1.7,8.9L335.2,325.6z"/>
<path class="st1" d="M244.8,249.4l6.2,4.3l-1.4,2.2l-6.5-4.1L244.8,249.4z"/>
<path class="st1" d="M394.3,298.9l3.9-8.5C401.6,295.7,401,297.1,394.3,298.9z"/>
<path class="st1" d="M216.4,293.8l-5.3-6l1.7-1.7l5.6,5.7L216.4,293.8z"/>
<path class="st1" d="M389.8,368.6c-0.1-2.7-0.3-5.5-0.4-8.2l2.5-0.2l0.7,8.2L389.8,368.6z"/>
<path class="st1" d="M414.5,345.4l3.2,7.4l-2,0.9c-2.5-1.8-3.8-4.2-2.8-7.6L414.5,345.4z"/>
<path class="st1" d="M418.7,336.6l2.3-4.9l2.2,0.6l0.3,5.8l-4.9-1.8L418.7,336.6z"/>
<path class="st1" d="M221.4,280.1c4.4,1.1,4.3,5.2,6.1,8.1l-1.6,1.1c-1.9-2.7-3.8-5.5-5.7-8.3L221.4,280.1z"/>
<path class="st1" d="M376,277.2l3-5.7l2.9,1.9l-3.7,5.2L376,277.2z"/>
<path class="st1" d="M406.5,223.2l-2.4-11.1l2-0.4l2.4,11.1L406.5,223.2z"/>
<path class="st1" d="M362.1,438.4c-0.4,2.1-0.7,4-1.2,7c-1.4-1-3.3-1.8-3.5-2.8C356.9,439.3,358.9,437.9,362.1,438.4z"/>
<path class="st1" d="M310.7,367.6c-0.5-2-1-4-1.5-6.1l3.1-0.6c0.2,2.1,0.4,4.2,0.6,6.3L310.7,367.6z"/>
<path class="st1" d="M337.1,374.1c1-1.9,2-3.7,3-5.6c0.9,0.8,2.7,2.1,2.5,2.4c-1,1.6-2.2,3.2-3.4,4.6L337.1,374.1z"/>
<path class="st1" d="M253.5,263l-6.7-5l1.6-2.1l6.7,5.1L253.5,263z"/>
<path class="st1" d="M384.8,280.1l2.1-5.8c1,0.6,2.8,1.5,2.7,1.9c-0.6,1.7-1.3,3.4-2.2,5L384.8,280.1z"/>
<path class="st1" d="M309.6,355.6c-1.1,0.6-2.1,1.1-3.3,1.6c-1.1-1.7-2.1-3.5-3-5.2c0.9-0.5,2.5-1.6,2.7-1.4
	C307.3,352.2,308.5,353.8,309.6,355.6z"/>
<path class="st1" d="M334.3,358.3L334.3,358.3c0.9,1.4,1.8,2.8,2.6,4.1l-5.8,0.9l-0.6-1.8L334.3,358.3z"/>
<path class="st1" d="M205.8,214.7l3.1-11.2l1.1,0.3l-3.2,11.4L205.8,214.7z"/>
<path class="st1" d="M105.9,101.8c5.1,1.5,4.3,3.6,2.8,5.6c-0.5,0.6-1.8,0.6-2.7,0.8C106,106.3,105.9,104.3,105.9,101.8z"/>
<path class="st1" d="M339.1,296l-3,6.6C332.1,298,333.6,296.2,339.1,296z"/>
<path class="st1" d="M154.1,355.3l1.7,8.4c-5-2.6-4.9-5.2-3.3-8.2L154.1,355.3z"/>
<path class="st1" d="M300.7,333.7c5.3,2.7,7.7,8,5.2,10.5C304.2,340.9,302.7,337.7,300.7,333.7z"/>
<path class="st1" d="M422.8,394.5l0.3-0.2l3.8,0.2l-4.4,5.2l-1.7-1L422.8,394.5z"/>
<path class="st1" d="M432.8,401.6c0.1-2.8-2.3-6.1,3.2-8.6c-0.5,3.6-0.9,6.3-1.2,9L432.8,401.6z"/>
<path class="st1" d="M317,357.9c2.1,2.3,4.4,4.5,0,8.2c-0.5-2.6-1-5.3-1.5-7.9L317,357.9z"/>
<path class="st1" d="M442.2,388.8c1.4,5.6,1.3,6.3-3,9.6c0.4-4,0.8-6.9,1.1-9.9L442.2,388.8z"/>
<path class="st1" d="M325.2,307.2c-0.4-3.9-0.6-7.2-0.9-10.4C328,300.9,328.4,305.3,325.2,307.2z"/>
<path class="st1" d="M261.6,227.6c-0.5-2.2-0.9-4.4-1.4-6.6c1,0,2.7-0.1,2.8,0.2c0.5,2,0.9,4,1.2,6.1L261.6,227.6z"/>
<path class="st1" d="M350.7,296.6l3-4.3l1.8,0.7l-0.9,6.6h-1.5l-2.5-3.2L350.7,296.6z"/>
<path class="st1" d="M343.2,295.5l3.4-7.1C350,294,349.6,294.9,343.2,295.5z"/>
<path class="st1" d="M238.4,264.9l-6.2-4.8l1.4-2l6.5,4.3C239.6,263.2,239,264,238.4,264.9z"/>
<path class="st1" d="M365.4,292.2c1.6-3.4,2.6-5.5,3.6-7.8C373.3,287.9,372.9,289.3,365.4,292.2z"/>
<path class="st1" d="M203.5,131.8c2.7,1.6,5.3,3.2,3.2,8.3l-5-7.2L203.5,131.8z"/>
<path class="st1" d="M194.4,302.6l-5.3-7.4l1.9-1.4l5.4,7.3L194.4,302.6z"/>
<path class="st1" d="M416.5,411l-1.5-5.5l4.9-2.3l-1.5,8.2L416.5,411z"/>
<path class="st1" d="M428,393.1l6.7-6c1.2,5.8-3,5.7-5.2,7.3L428,393.1z"/>
<path class="st1" d="M207.4,291.5l5.7,6.4c-4.9,0.7-5.2,0.4-6.8-5.2L207.4,291.5z"/>
<path class="st1" d="M240.9,193l3.9-5.9l2.3,1.5l-4,5.8L240.9,193z"/>
<path class="st1" d="M202.7,280.9c-5.1-0.1-5.8-3.5-6.8-6.7l1.3-1C199.1,275.8,200.9,278.4,202.7,280.9z"/>
<path class="st1" d="M347.8,357.5c-1.4,2.5-2.6,5-4.2,7.3c-0.2,0.3-1.8-0.3-2.8-0.5c0.2-1,0.2-2.4,0.8-2.8c2-1.5,4.2-2.5,6.3-3.8
	L347.8,357.5z"/>
<path class="st1" d="M118.8,88.8l-6.9,6.2C112,89,112.3,88.8,118.8,88.8z"/>
<path class="st1" d="M195.9,228.7l4.1-7.9l2,1c-1.2,2.7-2.4,5.4-3.6,8.1L195.9,228.7z"/>
<path class="st1" d="M396.1,275.5c-0.6-1.9-1.3-3.3-1.2-4.5c0.1-0.7,1.6-1.3,2.4-1.9c0.8,1.3,1.5,2.7,2,4.2
	C399.4,273.6,397.7,274.4,396.1,275.5z"/>
<path class="st0" d="M62.5,228.7c-1.7-6-2.4-12.6-5.3-18c-2.6-4.7-1.7-8.2,0.1-12.3c1,3.2,1.8,6.4,2.9,9.6s2.8,6.5,3.3,9.9
	s-0.2,7.2-0.3,10.8L62.5,228.7z"/>
<path class="st0" d="M165,151.4c-0.7,0.7-1.4,1.3-2.2,1.8c-12.8,6.7-25.6,13.4-38.5,20c-0.7,0.4-1.4,0.6-2.2,0.5
	C135.8,165.1,149.5,156.4,165,151.4L165,151.4z"/>
<path class="st0" d="M115.6,242.2c2.2-1.1,2.2-7.4,7.3-3.5c1,0.8,4-1,6.3-0.9c-1.1,3.7-2.9,5.3-6.6,4.4
	C120.4,241.7,118,242.2,115.6,242.2z"/>
<path class="st0" d="M40.8,130.1l8.3-3.1c0.7,1.8,1.3,3.4,1.9,4.7l-4.2,2.9l-2.5-3c0.4,2.3,0.7,3.8,1,5.3l-1.1,0.5L40.8,130.1z"/>
<path class="st0" d="M111.5,228.6l7.7-6.8c-2.3,3.8-4.6,8.6-7.9,12.5c-1.8,2.2-5.5,2.9-8.7,4.4l9-10.2L111.5,228.6z"/>
<path class="st0" d="M80.3,148.9l-14.2-21.2l1.2-0.8L81.6,148L80.3,148.9z"/>
<path class="st0" d="M104.9,292.8c-0.4-3.8-4.8-7.3,1.2-10.3C109.3,286,108.6,289.2,104.9,292.8z"/>
<path class="st0" d="M179.8,220.9l-19.5,19.5c5.7-7.3,11.3-14.6,19.5-19.4L179.8,220.9z"/>
<path class="st0" d="M74.7,240.6c-6.3-6.4-6.6-7.2-3.9-12.2c0.4,2.5,0.6,4.1,0.8,5.8C76.1,234.2,74.9,237.2,74.7,240.6z"/>
<path class="st0" d="M58.4,118.2l1.5,7.4l-0.7,0.3c-0.8-1.2-1.6-2.4-3.1-4.7c0.6,3.3,0.9,5.4,1.4,8.1
	C52.5,123.6,52.7,120.8,58.4,118.2z"/>
<path class="st0" d="M111.7,228.6l-5.4,3.3c-0.3-1.7-1.2-4-0.7-4.5c1.6-1.4,3.9-2.1,6-3.1c0.3,0.4,0.5,0.9,0.8,1.3
	c-0.3,1.1-0.6,2.1-0.9,3.2L111.7,228.6z"/>
<path class="st0" d="M128.8,187.8l18-13l0.7,0.9l-18.1,13.2C129.2,188.4,129,188.1,128.8,187.8z"/>
<path class="st0" d="M143,149l-19.2,11l-0.2-0.4l19.5-10.4L143,149z"/>
<path class="st0" d="M56.9,173.6l-4,18.2l-1.3-0.2c1.1-6.1,2.3-12.2,3.4-18.3L56.9,173.6z"/>
<path class="st0" d="M64.7,111.7c-0.3,3.7-0.5,7.4-0.9,12.1c-4.7-4.4-4-7.9,0.9-11.9L64.7,111.7z"/>
<path class="st0" d="M65.5,234.8l-0.4-13.4l2.2-0.1L67,234.8L65.5,234.8z"/>
<path class="st0" d="M168.3,163.4l-17.9,10.3l0,0l18-10L168.3,163.4z"/>
<path class="st0" d="M103.3,225.8c1.3-8.2,1.3-8.2,5.1-10.5C104.6,217.7,110,224.3,103.3,225.8z"/>
<path class="st0" d="M80.3,129.4c-0.1,1.4-0.1,2.8-0.2,4.2l-1.2,0.9l-8-9.7l0.8-0.9c1.3,1.6,2.7,3,4.3,4.3c1.2,0.8,2.9,1,4.4,1.4
	L80.3,129.4z"/>
<path class="st0" d="M52.1,119c0.5,3.9,1.1,7.8,1.6,11.6l-1.4,0.3c-0.8-3.9-1.6-7.7-2.4-11.6L52.1,119z"/>
<path class="st0" d="M160.1,210.2l-13.4,11.2l-0.6-0.7l13.1-11.4L160.1,210.2z"/>
<path class="st0" d="M181,179.8l16.7-7.8l-0.1-0.1l-16.7,7.8L181,179.8z"/>
<path class="st0" d="M180.9,179.7l-15,9.1l-0.8-1.5l15.9-7.5L180.9,179.7z"/>
<path class="st0" d="M53,201l2.1-10.3L57,191c-0.7,3.4-1.5,6.9-2.3,10.3L53,201z"/>
<path class="st0" d="M318.6,109.4l10.5,1l0.1-0.4l-19-5.3c3.2-1.4,16.7,1.8,21.4,5.1c5.9,4.2,11.4,8.9,17.8,13.9L329,118l0.2-1.6
	c1.8,0.4,3.6,0.6,5.4,1.1c2,0.7,4.1,1.2,6.3,1.5c-6.2-6.1-14.6-6.6-22.7-7.8L318.6,109.4z"/>
<path class="st0" d="M397.7,170.7l-14-6.8l1.8-3l-10.4-4.2c0.4-7.1-6.9-5.5-10.4-8.4C369,145.5,385.2,156.5,397.7,170.7z"/>
<path class="st0" d="M358.8,129.4c1.6,2.1,3.2,4.2,4.7,6.1c-3.9-1.3-8.4-2.4-12.3-4.3c-3.9-2.1-7.6-4.6-10.8-7.7l18.5,6L358.8,129.4
	z"/>
<path class="st0" d="M263.9,96.2c-7.8,0.7-14.4,1.1-20.9,2s-12.7,2.5-19.3,3.9C226.2,98.2,252.5,94.2,263.9,96.2z"/>
<path class="st0" d="M288.8,180.1c-4,1.5-7.1,5.6-12.4,2.8c-1.6-0.8-4,0-6.2-0.9l18.2-4.2C288.6,178.5,288.7,179.3,288.8,180.1z"/>
<path class="st0" d="M239.1,101.2l23.3-2.2l0.1,1.3l-23.2,3.1L239.1,101.2z"/>
<path class="st0" d="M353.4,181.9c-7.6,2.3-8.5-3.4-10.3-7.9l4.9,5.1l0.6-0.5l-3.2-6.3l1-0.6L353.4,181.9z"/>
<path class="st0" d="M391.4,171.1c6.1-0.2,11.4,3.5,12.8,9.2L391.4,171.1z"/>
<path class="st0" d="M332.1,180.3c-2.9-4.5-5.9-9-8.9-13.5l1.2-0.9c3.1,4.4,6.3,8.8,9.4,13.1L332.1,180.3z"/>
<path class="st0" d="M254.1,103.2l14.1-0.6c0,0.5,0.1,1,0.1,1.5l-14.1,1.1L254.1,103.2z"/>
<path class="st0" d="M372,146.8l-13.5-5.8C362.4,139.7,366.6,141.4,372,146.8z"/>
<path class="st0" d="M336.4,171.6c2.8,2.8,6.7,5.2,4.7,10.4C339.5,178.5,337.9,175.1,336.4,171.6z"/>
<path class="st0" d="M325,178.3l-6.9-8.6l1-0.9l7.6,8L325,178.3z"/>
<path class="st0" d="M313.4,167.6l8.8,9l-1.5,1.4l-8.3-9.4L313.4,167.6z"/>
<path class="st0" d="M272.7,107.6l-12.3,1.2l-0.1-2l12.3-0.6L272.7,107.6z"/>
<path class="st0" d="M343.9,198l-3.5-5.7l-0.6,0.2c0.3,1.5,0.5,3,0.9,5.1l-9.3,0.1l-6-9l17.3,2.3l2.5,6.5L343.9,198z"/>
<path class="st0" d="M367.7,197.6l-0.9,3.1c-1.8-2.1-3.1-3.6-4.4-5.1l-0.1,1.3l-12.4,0.4c-1.1-2.1-2.4-4.6-3.6-7.1
	c5.4,3.7,10.5,5.5,16.4,1.9l5,5.8L367.7,197.6z"/>
<path class="st0" d="M408.3,388.6c5.9-3.6,12-6.9,17.5-10.9c5.7-4.2,10.8-9.2,16.2-13.8c0.5-0.3,1.1-0.6,1.7-0.9
	c0.5,5.3-24.1,22.7-35.5,25.4L408.3,388.6z"/>
<path class="st0" d="M362.3,429.8c-0.5-1.5-1.4-3-1.5-4.5s0.6-3,1-5l9.6-2.9c0.2,0.4,0.4,0.8,0.6,1.3l-8.1,2.9l0.6,1.5l5.9,0.7
	l-4.9,2.5l5.3,1.5l-8.8,2.1L362.3,429.8z"/>
<path class="st0" d="M202.3,388.9c-0.3-4.1-0.5-8.2-0.8-12.3l1.8-0.1c-0.2,2.6-0.4,5.1-0.6,7.7l1,0.2c0.4-2.3,0.9-4.6,1.4-7.2
	c5.8,2.6,1.8,7.8,3.4,10.8C206.3,388.2,204.2,388.5,202.3,388.9L202.3,388.9z"/>
<path class="st0" d="M315.7,277.1l-9.6,22.5c0.6-8.5,2.5-16.5,8-23.2L315.7,277.1z"/>
<path class="st0" d="M319.6,195.7l-13.1-6.4l0.3-1.1l9.9,0.6c0.8,1.3,2.3,3.7,3.9,6.2L319.6,195.7z"/>
<path class="st0" d="M284.9,326.2l3.3-11.8l0.9,0.2l-0.3,4.5l0.9,0.3l3.8-9.1C294.9,318.1,289.4,321.8,284.9,326.2z"/>
<path class="st0" d="M191.7,369.8c-3-5.6,1.3-10.1,2.5-15.2C196.8,360.1,193.6,364.9,191.7,369.8z"/>
<path class="st0" d="M230.3,318.3l10.3,21.1l-1.4,0.7c-3.5-7-6.9-14-10.4-21L230.3,318.3z"/>
<path class="st0" d="M337.9,215.1l3.2,4.4l0.7-0.3c-0.9-1.9-1.7-3.7-2.6-5.6l1.2-0.6c1.9,3.7,3.8,7.3,5.7,11.1
	C341.4,225.2,339.8,223.4,337.9,215.1z"/>
<path class="st0" d="M255.6,319.1c-3.2-6.8-6.4-13.6-9.6-20.5l1.3-0.6c3.3,6.8,6.5,13.6,9.8,20.5L255.6,319.1z"/>
<path class="st0" d="M326.3,253.1c1.4-6,2.7-12,4.1-18l2,0.5l-4.9,17.7L326.3,253.1z"/>
<path class="st0" d="M221.7,408.7c-6.7-1.5-9-5.2-9.1-11.8l7,5.4l-3.4,1.1C217.9,405.1,219.4,406.5,221.7,408.7z"/>
<path class="st0" d="M260.5,321.6l-9.2-21.8l1.4-0.6c3.1,7.3,6.2,14.5,9.2,21.8L260.5,321.6z"/>
<path class="st0" d="M265.3,316.5l-8.7-13.5C262.1,305.4,265.9,308.9,265.3,316.5z"/>
<path class="st0" d="M265.1,336.2l9.5-10.2c1,3.9,1,3.9-8.4,11.2L265.1,336.2z"/>
<path class="st0" d="M234.6,312.5l9.7,20.4l-1.4,0.6c-3.2-6.8-6.4-13.6-9.6-20.4L234.6,312.5z"/>
<path class="st0" d="M244,301.7c3.3,6.7,6.6,13.3,9.9,19.9l-1.4,0.7l-9.8-20L244,301.7z"/>
<path class="st0" d="M248.3,323.6c-3-6.3-6-12.6-8.9-19l1.3-0.6l9.1,18.9L248.3,323.6z"/>
<path class="st0" d="M277,273.6l10.3,18.4l-0.2,0.1c-3.3-6.2-6.6-12.4-9.9-18.6L277,273.6z"/>
<path class="st0" d="M186.1,360.6c-3-3.5-3-3.5-0.3-10.4C190.1,353.4,187.8,356.7,186.1,360.6z"/>
<path class="st0" d="M300.6,305.2l1.7-17.7l1.9,0.2c-0.7,5.9-1.5,11.8-2.3,17.6L300.6,305.2z"/>
<path class="st0" d="M285.4,270.5l6.9,14.3l-1.3,0.7l-7.2-14.2L285.4,270.5z"/>
<path class="st0" d="M244.7,327.3l-7.6-16l1.2-0.6c2.6,5.3,5.2,10.7,7.8,16L244.7,327.3z"/>
<path class="st0" d="M435.9,367.6l-10.5,8.3l-1-1.2l10.1-8.8C434.9,366.4,435.4,367,435.9,367.6z"/>
<path class="st0" d="M288.4,289.4c-2.6-5.5-5.3-11.1-7.9-16.6l1.3-0.6l8,16.6L288.4,289.4z"/>
<path class="st0" d="M367.7,197.6l0.1,0.2c-0.1-0.6-0.1-1.2-0.3-2.6l9,5.8l-1.4,2.1L367.7,197.6z"/>
<path class="st0" d="M321,187.7l8,9.4l-1.1,1.1c-2.8-2.9-5.6-5.8-8.5-8.8L321,187.7z"/>
<path class="st0" d="M215.4,387.9c-0.1,1.7-0.2,2.4-0.2,3.1l-1,0.1c-0.4-2.1-0.8-4.2-1.2-6.4c4.4-0.7,4.4-0.7,5,7.4
	C217,390.5,216.4,389.5,215.4,387.9z"/>
<path class="st0" d="M408.3,388.5l-16.4,7.2l-0.7-1.8l17.1-5.3L408.3,388.5z"/>
<path class="st0" d="M378.9,228.4l-6-6.1l1.3-1.3l6.6,5.4L378.9,228.4z"/>
<path class="st0" d="M390.8,235.4l-6.7-7.1l1.3-1.2l7.2,6.6L390.8,235.4z"/>
</svg>
