<?xml version="1.0" encoding="utf-8"?>
<!-- Generator: Adobe Illustrator 22.0.1, SVG Export Plug-In . SVG Version: 6.00 Build 0)  -->
<svg version="1.1" id="Layer_1" xmlns="http://www.w3.org/2000/svg" xmlns:xlink="http://www.w3.org/1999/xlink" x="0px" y="0px"
	 viewBox="0 0 720 720" style="enable-background:new 0 0 720 720;" xml:space="preserve">
<style type="text/css">
	.st0{fill:#FFFFFF;}
	.st1{fill:#232323;}
</style>
<polygon class="st0" points="447,469 453.7,477.8 468.2,495.7 479.1,510.8 485.2,519.7 499.5,544.5 516.7,571.8 537,608.1 
	564.4,677.2 591.4,684.5 590.9,675.3 575.5,632 553.5,583.2 530.1,545.1 496.4,500.5 460.8,464.9 "/>
<title>Artboard 2</title>
<path class="st1" d="M537,608.1c9.5,22,19.1,44.1,28.4,65.6l24.9,7.7c-0.4-2.8-1-5.5-1.8-8.2c-3.5-10.2-7.3-20.3-10.8-30.6
	c-1.2-3.4-2.4-6.4-6.3-7.6c-1.4-0.4-2.5-2-3.4-3.8l6.6,2.9c-1.2-3.7-1.9-6.6-3.2-9.2c-12.2-24.9-23.5-50.4-39.2-73.5
	c-1.4-2-2-4.7-6-2.8c-1.4,0.7-4.9-2.1-7-3.9c-1.6-1.4-2.3-3.7-3.8-6.2l11.8,7.3l0.7-0.8c-3.8-5.4-7.2-11-11.3-16.2
	c-9-11.5-18.3-22.8-27.6-34.1c-1-1.2-2.7-2.5-4-2.5c-8,0.2-11.8-7.2-18.7-8.9c0.1-0.4,0.3-0.9,0.4-1.3l3.3-0.9l0.4-1.5l-18.2-6.4
	l27,37.3l-0.5,0.4c-2.8-3.4-6.1-6.6-8.4-10.4c-9.1-15-21.1-27.3-34.8-38.1c-2.1-1.6-3.9-3.7-5.2-6c-5.3-9-13.3-14.6-22.7-18.7
	c-9.1-3.9-18-8.5-27-12.7c-3.1-1.6-6.3-2.9-9.6-4.1c-12.5-4-24.9-8.5-37.7-11.5c-7-1.7-14.5-1.1-21.8-1.1
	c-13.1-0.1-26.2-0.4-39.3,0.3c-7.7,0.4-15.3,3-23,3.9c-3.2,0.2-6.3-0.5-9-2.2c-8-5-15.8-10.5-23.2-16.3c-3.3-2.6-4.9-7.3-8.1-10
	c-6.1-5-12.9-9.2-19.2-13.9c-4.9-3.6-10.2-6.9-14.4-11.2c-9.9-9.9-19.4-20.2-25.4-33.1c-0.6-1-1.1-2-1.5-3.1
	c-2.1-10.8-4.2-21.5-6.2-32.3c-1.8-9.5-4.1-18-12.6-25c-13.9-11.5-28.7-22-40.9-35.7c-8.2-9.3-11.6-19.9-12.5-31.3
	c-1.7-20,3.7-38.5,17.6-53.4c11.1-11.9,23-23,35-33.9c9.2-8.3,21-10.9,32.9-11.6c17.2-1.1,34.5-1.1,51.7-1.6
	c2.8-0.1,5.7-0.7,8.5-0.5c11.2,0.9,22.4,2.4,33.6,3.1c12.1,0.8,24.2,0.8,36.3,1.5c3.5,0.2,6.9,2.1,10.4,2.8
	c10.9,2.3,21.9,3.9,32.7,6.6c12.4,3.2,25,6.1,36.6,11.2c19,8.4,39.2,14.5,55.3,28.9c6,5.4,13.2,9.5,19.5,14.5
	c5.8,4.6,10.8,9.8,13.5,17c5.8,15.9,18.7,26.9,28.2,40.3c3.7,5.3,7.3,10.7,10.9,16c0.6,0.8,1.1,1.7,1.7,2.5
	c6.2,7.6,12.7,15,18.6,22.8c2.4,3.4,4.3,7.1,5.4,11.2c5.3,18.4,7.7,37,3.9,56.2c-2.9,14.2-4.8,28.6-5.8,43
	c-1,17.8-5.6,35.3-13.5,51.3c-4.6,9-10.1,17.5-16.3,25.5c-4.4,5.8-11,9-18.3,10.3c-1.7,0.3-3.5,0.6-7,1.1
	c5.9,7.1,10.8,13.3,15.9,19.3c7,8.2,14.4,16,21.2,24.4c21.8,27.2,42,55.7,56.5,87.5c10.9,24,21.2,48.5,28.5,74
	c1.3,4.8,3.1,9.5,3.7,14.4c0.6,4.7-2.9,6.8-7.4,5.6c-6.5-1.7-13.1-3.3-19.7-4.6c-3.8-0.7-5.6-2-5.5-6.5c0.4-10.1-4.5-19-8.2-28
	c-5.5-13.6-11.1-27.2-16.5-40.8L537,608.1z M421.4,278.5c0.5,2,0.6,4.2,1.5,5.9c0.4,0.7,2.7,0.2,4.1,0.3c0.3-0.7,0.6-1.4,0.9-2.1
	l-6.6-4.2c0.1-1.5,0.9-3.4,0.2-4.2c-0.9-1-2.8-1.1-4.3-1.6l-1,2L421.4,278.5z M181.6,281.9l5.2,7.6l1.3-0.7
	c-0.2-1.2-0.4-2.4-0.8-3.5c-0.5-1.1-1.1-2.2-1.8-3.2c-0.6-0.9-1.3-1.6-1.9-2.4l-2,2.5c-1.6-1.3-3.8-3-4.1,0.6
	c-0.2,2,1.4,4.3,2.4,6.2c0.3,0.6,1.6,0.8,2.4,1.2c0.3-0.9,0.5-1.9,0.6-2.9C182.5,285.4,182.1,283.6,181.6,281.9L181.6,281.9z
	 M414.5,305.2l7.9,1.4l0.6-2.6c-1.6-0.7-3.2-1.7-5-1.9c-2-0.2-4.1,0.3-3.6,3.2l-7.6-3.3c0.3,5.5,2.9,6.5,6.3,6.3
	c-1.7,1.1-3,2.6-0.8,4.1c1.3,1,3.3,1,4.9,1.5c0.3-0.8,0.7-1.5,1-2.3l-5.4-3.4C413.5,307.3,414,306.3,414.5,305.2L414.5,305.2z
	 M408.1,170.7l-2.5,3l4.2,2.1c-1,0.5-2.7,1.5-2.8,1.5c-2.5-4.3-5.7-4.5-10.1-2.6c-2.4,1-5.6-0.2-8.2,0.7c-3,1-4.4,0.9-5.3-2.4
	c-0.3-1-2.5-1.5-4.9-2.9c0.5,2.8,0.7,4,0.8,4.5c-1.9-1-3.8-1.9-5.7-2.9c3-4.9-3.5-6.4-3.8-10.2c0-0.1-2.5,0-4.4,0.1
	c2.2,4.7,3.7,8.8,8.5,10.2l-2.4,3.3l-7.8-12.4l-1.1,0.6l2.5,7.1c-5.3-4.5-5.5-11.2-10.3-14.2l-1.4,0.9c1.6,3.9,3.3,7.9,4.7,11.3
	c-2.5,0.1-4.7-0.2-6.7,0.3c-5.5,1.4-10.8,3.3-16.2,4.4c-2.2,0.5-4.8-1.1-7.1-0.6c-5.6,1.1-11.1,4.3-16.5,4c-8.1-0.4-15.5,2.9-23.5,3
	c-4.1,0.1-8.1,1.8-12.1,2.5c-1.3,0.2-2.7-0.2-3.7-1c-3.1-3.4-3.9-3.6-7.7-0.8l11.6,14.1l-10.2-2.6c2-3.9-1.2-9.2-7.4-12.5l6.5-2.1
	c-2.4-7-7.9-3.5-12.2-5.2l7.4-2c-2.5-1.4-4.3-3.1-5.9-3c-2.5,0.1-5,1.5-8.6,2.7c-2.9-1.9-5.6-10-12.9-3.4c0.3,0.9,0.8,2.3,1.3,3.9
	c-2.9-0.8-3.6-8-8-1.9c-2.5-3.1-4.4-2.3-5.5,1l-4.8-2.1c0.1,2.3,0.1,3.5,0.2,4.8c-1.9-3.6-4.5-3.5-7.8-2.7
	c-5.3,1.2-10.8,2.2-16.2,3.1c-5,0.9-10,1.6-15.3,2.4c0.6,1.9,0.9,3.3,1.6,5.4l-3.1-3.8l-17.9,1.2l11.7-2.9l0.4-1.8
	c-1.7-0.6-3.4-1.6-5.1-1.7c-2.4,0-4.8,0.3-7.2,0.7l8.9-2.8c-2.5-3.4-12.7-2.8-21.1,1.4c1.3,1.1,2.9,1.8,4.6,2
	c2.6-0.1,5.2-0.3,7.8-0.7l-10,3.1l5,4.2l-3.6,3.9l-4.4-2.5l-0.7,1.1c0.4,1.3,0.9,2.5,1.3,3.8l-6-3.7l-0.9,1.2
	c0.5,1.2,1.1,2.4,1.9,4.2l-5.9-4.5l-1.5,1.6l10.8,13.1l-1.4,1.1L130,184l-1.4,1.1l6.3,8.9l-5.1,1.8l7.1,11.3l-0.4,0.3l-5.1-5.6
	l-1.1,1.2l8.6,8.4l-11.9,2.4c0,0.4,0.1,0.9,0.1,1.3l7.2-0.3v0.8l-5,1.5l-0.5,1.4l6.4,3.7l-6.9,1.7l0.2,1.1l11.7-1.2l0.1,0.7
	l-14.4,3.9c0.9,4.1,3.5,3.2,6.2,2.7c3.4-0.7,6.9-1.1,10.4-1.7c0.1,0.4,0.1,0.8,0.2,1.2l-5.6,1.8c0.1,0.3,0.1,0.7,0.2,1l10.6-1.9
	c0.1,0.5,0.1,1,0.2,1.4l-9.7,2.2c-0.1,0.6-0.2,1.3-0.4,1.9c2,0.9,4.1,2.7,5.9,2.5c6.9-0.9,9.1-0.1,12.6,5.7c0.9,1.2,2,2.3,3.2,3.2
	l1-0.9l-3.8-7.2l13.6,7.1l-1.6,2.8l4.8,1.7c-0.1,2-0.2,4.2-0.4,7.1c6.7-4.1,12.5-5.2,18.7-1.7c-2.3,0.9-4.6,1.6-7,2.1
	c-0.9,0.3-1.6,1.2-2.5,1.9c0.9,0.5,1.7,1,2.6,1.5c0.9,0.3,1.8,0.5,2.7,0.7l-6.5,2.3c1.4,2.6,4,5.3,3.6,7.2c-0.8,3.4,2.4,4.7,2.2,8
	c-0.2,6.3,2.7,7.7,9.2,6.5c0.6,0.1,1.2,0.2,1.8,0.4l-6.5,2.3c0,0.6,0,1.1,0,1.7l9.2,0.8c0,0.2,0,0.4,0,0.6l-12.2,1.8
	c-0.1,0.5-0.2,1-0.3,1.5l7.4,1.2l-4.7,2.1c0.1,0.3,0.2,0.7,0.2,1l15.9-2.6c0.1,0.6,0.2,1.1,0.3,1.7l-14.9,3.5
	c0.1,0.6,0.3,1.3,0.4,1.9l11.2-1.2c-3.4,1.6-6.9,2.9-10.5,4c-1.3,0.4-2.5,1-3.7,1.5l3.9,2.8v-0.2c-2.1,4,0,4.5,3.4,4
	c7.4-1.3,14.9-2.5,22.3-3.7c0.1,0.4,0.2,0.8,0.3,1.2l-22.8,4.5l0.3,1.4l27.4-4.5c0.1,0.4,0.1,0.8,0.2,1.2l-32.8,7l0.3,1.9l12.2-0.8
	v-0.2l-12.4,3.9c0,0.7,0,1.4,0,2.1c2.1,0.4,4.3,1.3,6.3,1c3.1-0.5,6-2.1,9.1-2.7c2.7-0.5,5.6,0,8.3-0.4c6.6-1,13.2-2.3,19.9-3.5
	l0.2,1.2l-25.9,5.4c1.4,5,4.7,4,7.5,3.5c7.2-1.3,14.4-2.8,22.8-4.5l-3.2,3.5c6,6.5,6,6.5,9.6,4.8c-1.1-2.2-2.2-4.5-3.2-6.7l1.1-0.6
	c2.3,3.9,4.4,8,6.9,11.7c4.3,6.4,4.8,8.7,9.9,5c-1.6-2.8-3.2-5.6-4.9-8.5c5,1.1,3.3,11.5,12,7.4l-6.9-14.8l1.3-0.6
	c1.5,3.5,3,7.2,4.7,10.6c2.5,5.2,4.4,5.6,9.7,2.3c-1.1-2.1-2.3-4.1-3.4-6.2c2.7,2.6,4.9,5.5,7.4,8.1c0.9,0.9,2.4,1.2,3.6,1.8
	c0.3-1.4,1.3-3,0.9-4.2c-1.3-3.8-2.8-7.4-4.6-11c-1.5-3.2-3.4-6.3-5.1-9.5l1.2-0.6c3.3,6.4,6.6,12.9,10,19.3
	c0.6,1.1,1.9,2.7,2.9,2.7c1.5-0.1,2.8-0.9,3.7-2.2c0.5-0.9-0.3-2.8-1.1-3.8c-2.3-3.2-5-6.1-7.5-9.2c3.5,2.6,6,5.9,8.8,8.9
	c1.1,1.2,3.1,2.5,4.4,2.3c3.7-0.8,7.2-2.3,10.9-3.6l-9.5-13.6c4.2,5,7.7,10.4,14.6,12.6l-10.4-15.6l1.1-0.7
	c3.6,4.9,7.5,9.6,10.5,14.8c1.6,2.8,2.7,3,5.6,1.8l-8.7-15.6c7,6.6,8.9,18.9,22.1,18.4c-9.4-1.4-9.5-10.2-13.2-16l8.7,11.8l1.5-1.1
	c-2.2-4.1-4.4-8.1-6.5-12.2c2.3,2,3.5,4.7,5,7c3.4,5.1,3.5,5.1,6.7,3.9c-0.6-1.7-1.2-3.4-1.9-5.1c1,1.1,1.9,2.3,2.6,3.7
	c1.8,2.8,3.3,2.4,4.6-1.3c2,1.8,4,4.8,6.5,0.6c0.2-0.3,0.8-0.4,1.2-0.5c7.3-0.8,14.7-1.5,22-2.5c1.9-0.4,3.7-0.9,5.4-1.6l-2.6-7.4
	l5.1,2.1c-1.2-3-2.2-5.3-3.2-7.7l1.2-0.5c0.6,1.4,1.2,2.7,1.9,4.1c0.9,1.5,1.9,2.8,3,4.2l-4.3,2.2c0.9,6,5.4,0.1,7.2,2.4l1-1.6
	l-4.1-3c1.9-3.6-0.7-10.5-5.4-13.2l4.5-3.7l6.7,1l-3.1-7.3l8.4,0.8c-2.2-5.3-4-9.4-5.7-13.4c2.6,3.3,4.3,7.1,6.5,10.6
	c0.5,0.9,2.4,0.9,3.6,1.3c0.2-1,0.8-2.6,0.4-2.9c-3.9-3.1-3.3-8.6-6.8-12c-1.2-1.2-1.8-3.1-2.6-4.6l1.2-0.6c2,3.2,3.9,6.4,5.6,9.8
	c1.6,3.6,3.5,3.8,6.7,1.6l-7.2-16.2c2.7,3.6,5.1,7.4,7.1,11.5c2.8,5.6,4.2,6.1,10.7,2.6l-4.8-5.8l1-0.1c-1.1-3.1-2.2-6.2-3.3-9.2
	c1.9,1.4,3.2,3.4,4,5.6c1.1,3.5,3,3.1,5.9,2l-9.6-20.7c2.2,2.5,4,5.3,5.3,8.4c2.5,5.5,2.9,5.7,6.7,3.8l-10.6-19.8l5.5,0.2
	c-0.4,1.4-1.3,2.9-1.1,4.1c0.2,1.5,1.5,2.9,2.2,4.4c2.7,5.3,4.1,5.7,9.7,2.5c-0.1-2.9-5.5-3.5-3.3-7.3c-0.8-0.4-1.7-0.7-2.6-0.9
	c-1.3,0-2.6,0.1-3.8,0.3v-0.5l4.4-1.8l-0.3-0.8l-5.3-0.4l12.2-3.4l-4.7-8l6.5,2.4l0.5-1.3L418,222.6l1.4-0.8
	c1.2,2.3,2.4,4.5,3.6,6.8c1.9,2.6,3.1,6.7,7.6,3.7c-0.9-5.3-4.8-3.5-7.8-3.6l3.9-2.6c-4.4-7.4-8.5-14.4-12.5-21.2
	c5.9,2.6,5.3,12.4,15,12.8c-2.8-4.5-4.7-7.9-6.9-11.2s-4.7-6.4-6.9-9.5l6.5-1.9l-3.9-5.7l7.8-2.7c-3.9-4.6-8.4,1.2-12.3-2l8.7-2.2
	c-0.1-0.5-0.2-1-0.4-1.5l-16.1,2.5l-0.2-1l14.1-3.2c0.1-0.5,0.3-1.1,0.5-1.6c-1.2-0.7-2.4-1.2-3.8-1.6c-2.3-0.2-4.6-0.3-6.9-0.2
	l7.4-3.9l-9-1.2c0.3-1,0.5-2.1,0.8-3.1c-1.5-0.4-3-0.7-4.5-0.9c-0.5,0-1,1.4-1.5,2.1c1.2,0.6,2.3,1.2,3.5,1.7
	C406.8,170.6,407.4,170.7,408.1,170.7L408.1,170.7z M441.1,239.3c-1.5,3.7-0.6,4.8,4.7,5.2l-2.5,2.7l5.8-1.5
	c-1.8-4.2-4.2-6.5-8.3-6.4c1.9-1.1,2.9-2.7,0.8-4.1c-1.8-1.2-4.1-1.6-6.8-2.6c0.5,5.4,3.1,6.4,6.2,6.8H441.1z M202.5,338.5l6.8-2.4
	c-1.3-4.4-4.6-4.7-12.7-1c2.4,1.4,4.1,2.4,5.9,3.4c1.8,5.1,3.4,5.5,11.7,1.8c-2.5-0.9-3.9-1.6-5.4-1.8
	C206.8,338.3,204.6,338.3,202.5,338.5z M89.3,195.9c-2.1,0.9-4.3,1.6-6.5,2.2c-5,1-5.5,3.7-3.4,8.1l6.9-2.3l-3-2.2
	c1.6-0.7,3.2-1.6,4.6-2.6c0.8-0.7,0.9-2.1,1.3-3.2l4.1-2.2l-0.4-1.4c-4.9-1.1-8.6,3.4-13.1,4.3L89.3,195.9z M250.5,130.3l3.7,0.3
	c-1.3,3.4,0.7,4.6,3.5,5c3.5,0.4,7.1,0.5,10.6,0.8l0.6-1.5c-1.2-0.9-2.5-1.6-3.9-2.2c-2.3-0.7-4.8-1.1-7.1-1.6l1.7-3.3
	c1.5,1.1,3.8,3.6,4.4,3.2c3.4-1.9,5,1,7.4,2l3.8,4c-0.5,2.2-1,4.3-1.3,5.9c-3.2-4.6-11.4-6.9-16.5-3.7l4.2,2.3
	c-0.6,1.2-1.3,2.4-1.9,3.7c-3.5-4.3-8.5-4.6-13-4.2c-3.9,0.3-5.2-1.8-6.9-4.1c-1.3-1.7-2.8-3.2-4.3-4.8l-1.1,1
	c0.4,1.3,0.9,2.5,1.3,3.8l-0.7,0.4l-17.6-25l-1.5,1.1l15.6,25.1l-19.4-8.1c-0.2,0.4-0.4,0.8-0.6,1.2c0.9,0.8,1.8,2,2.8,2.3
	c10.1,2.9,18.2,9.5,26.9,14.9c0.2,0.1,0.6-0.1,1-0.2c-0.1-0.4-0.3-0.9-0.4-1.3l-0.5-1.6l0.9-1.2c5.4,8.5,13.4,10.1,22.5,10.7
	l-3.3-6.8l1-0.5l7.8,8.3c-0.3-2.6-0.5-3.7-0.8-6.4c4,4.6,6.7,9,13,6.9l-5.4-6.5l0.5-0.5l6,4.4l0.5-0.7l-2.4-4.9l0.8-0.4l6.2,7.5
	l-2.2,1.4c0.1,0.3,0.1,0.6,0.2,1l7-0.4l-3.4-5.7l7.3,5.6l0.8-1.1l-6-8.2l0.9-0.6l9.7,9.8l0.9-0.8l-5.6-8.4c8.8,8,8.8,8,12.6,7.3
	c-1.6-1.8-2.9-3.1-4.1-4.6s-2-2.8-3-4.2l1-0.8l6.6,8l0.4-0.3l-3.5-7.1l0.9-0.4l8.2,8.7l1-0.9c-1.4-2.5-2.8-5.1-4.8-8.7
	c5.2,2.9,4.7,10.7,12.3,8.9l-3.3-6l6.8,5.7l1.1-1.1c-1.5-3.3-3-6.5-4.5-9.8l1.1-0.5c1.6,2.1,3,4.3,4.2,6.6c2,4.2,4.4,4.2,7.7,1.4
	L336,143l1.1-0.4l4.4,7.2l1.4-0.5c-0.5-2.1-1-4.3-1.5-6.5l5.1,5.3l1-0.7l-2.6-6.3l0.9-0.6l5.2,6.3l0.7-0.5c-0.2-1.7-0.5-3.4-0.8-5.9
	l3.7,4.9l0.8-0.5c-0.2-1.1-0.4-2.2-0.6-4l3.1,2.5c0.2-1,0.3-1.7,0.3-1.4c3.1-0.1,5.5-0.3,7.8-0.2c8.6,0.4,17.1,0.9,26.1,1.4L377,128
	c2,4.9,3.7,8.8,5.4,13.1c-6.9,0.5-5.1-7.6-10.1-9.3c0.8,1.9,1.3,3.4,1.9,4.8l-0.9,0.4l-5.8-7l-0.4,0.5c1.1,2.5,2.2,4.9,3.3,7.4
	l-0.9,0.4l-4.9-6l-0.8,0.5c0.3,1.2,0.7,2.3,1.2,4.2l-3.1-1.9c-0.3,0.7-0.5,1.4-0.8,2.1c-3.3-3.3-7.9-4-9.6-1.7
	c-4-3.8-7.5-4.1-9.5-2.2l-11.8-2.3l7.1-0.8l0.5-1.5l-8.4-3.8c-0.1,2.5-0.1,3.8-0.2,5.8c-1.4-2.1-2.3-3.7-3.3-5.2
	c-0.5,1.1-0.5,2.4-0.1,3.5c0.2,0.9,0.2,1.9,0.4,2.9h-0.6l-3.2-6.5l-1.2,0.6c1,2.7,2.1,5.3,3,7.6l-13.1,0.6c0.6,2,1.1,3.7,1.6,5.4
	l-1.1,0.5l-3.6-6.8c-3-4.7-4.7-10.4-9.9-14.7c0.6,6.6,5.7,13.6,10,14.7l-2.6,4.3l-3.8-3.9c0.1,2.4,0.1,3.5,0.2,4.6
	c-2.2-6.1-6.5-0.9-9.5-1.8c-0.4-0.1-1.8,2.9-2.8,4.6c-2-2.2-0.6-7.8-6.5-7.6c0.6,2.1,1,3.5,1.7,6.2c-11.3-18-11.3-18-16-16.9
	l3.2,4.7l-12.9-2.8c0.3,1.5,0.5,2.4,0.7,3.4c-2.4-3.3-5.3-5-9.4-3.6c0.2,2.1,0.3,4,0.5,5.9c-1.1-3.3-1.8-6.9-6.1-6.9l-1.3,1.6
	L250.5,130.3z M437.2,202.4c2.5,2.9,5.1,2.7,8.8-0.6c-2.3-0.8-4.6-1.4-6.9-1.9c-0.5-0.1-1.2,1.8-1.9,2.8c-4.9-4.4-9.5,0.6-14.6,0.4
	c0.8,1.8,1.8,3.7,3.1,3.9s2.9-1.2,5-2.2C434,207,436.8,206.4,437.2,202.4z M451.7,235.3c-2.1-4.2-5.1-5.2-9.1-2.5
	c2.3,5.3,4.2,5.7,9.1,2.2c0.5,0.8,1.1,1.6,1.6,2.4l-7.2,2.4l8.8,10.8l1.4-0.4c-0.1-6.6-0.3-13.2-0.5-20.4l-6.3,0.9
	C450.5,232.7,451.1,234,451.7,235.3z M170,283.4c3-7.6,9.3-13.8,10.1-23.5c-2.8,1.5-4.6,2.2-6.2,3.4c-4.8,3.7-9.2,7.6-14.1,11.2
	c-7.5,5.6-10.2,5.6-17.9,0.7c-0.2-0.1-0.6,0.1-2.1,0.5c4.9,3.1,5.3,7.4,4,12.1l2.3-0.5c0.5,21.4,14.4,34.7,27,48.4
	c-10.8-6.9-17.2-18.1-24.7-28.5c1.1,4,2.7,7.9,4.6,11.7c4.8,9.4,15.6,14.5,17.9,25.6c0,0.1,0.2,0.4,0.3,0.4c4.4-0.4,5.1,4.4,8.2,6
	s5.3,5.3,7.9,8.2c0.5-0.9,0.9-1.6,1.6-2.7c1.6,3.4,3,6.2,4.5,9.4c0.7-1.2,1.1-1.9,1.4-2.4c3,1.8,0.5,8.9,7.2,5.9
	c1.3,2.9,2.5,5.8,4,8.5c0.2,0.4,1.4,0.4,3.1,0.7l3.9,6.8l0.9-0.5c-0.5-1.6-0.9-3.2-1.4-4.8c3.7,5.6,5.2,12.5,11.8,16.2
	c-1.7-3.6-3.3-7.2-5-10.8c1.3-0.3,2.7-0.1,3.8,0.6c3,2.1,5.8,4.3,8.8,6.3c5.7,3.7,11.6,7.2,17.4,10.8c1.6,1,3.1,2.3,4.9,2.5
	c8.1,1,16.5,2.2,24.3-0.9c4.7-1.8,10.3,0.8,14.3-3.4c0.1-0.1,0.6,0,1,0.1c5.6,1.6,10.5,0,15.4-2.8c2.1-1.2,5.3-0.6,8-0.4
	c2,0.2,4,0.7,5.9,1.5c2.6,1,4.7,1.3,5.8-2.1c0.1-0.3,2.2-0.4,3,0c2.8,1.3,5.6,2.9,8.3,4.5c1.9,1.1,3.7,2.3,5.6,3.5
	c0.2-0.3,0.5-0.7,0.7-1l-4.5-4.3l0.5-0.6l8.2,5c-0.4-1.4-0.7-2.4-1-3.3l0.8-1l12,6.6l0.8-0.9l-4.5-4.7c2.1,0.9,4.3,1.6,6.3,2.6
	c2.2,1.1,4.2,2.5,7,4.2l-4.5,0.2l17.9,10l0.9-1l-13-12.2c0.6,0.1,1.3,0.2,1.9,0.5c3.8,2.1,7.7,4,11.5,6.3s7.1,4.7,10.6,7.1l-2.6-0.1
	l8.3,10.1l1.4-1.2l-7.4-8.9l14.6,15.3l0.9-0.7l-14-17.1l1.5-1.1l17.4,21.2c-3.8-8.1-7.5-16.1-11.4-24.1c-2.8-5.8-6.7-10.5-13-13.1
	c-9-3.9-17-9.8-27.1-11c-1.7-0.5-3-1.7-3.6-3.3c-0.3-1,1.4-2.6,2.1-3.9c0.6-1,1-2.1,1.6-3.1c0.6-1,1.4-2,2.3-2.9
	c1.2-1.1,2.5-2.1,3.9-3.3l2.2,2.4c-0.6-5.8,2-8,8-8.4c3.3-0.2,6.5-1.5,10.2-2.5l2.1,1.9c0.7-1.7,1.2-2.8,1.6-3.8l2.8,1.8
	c-0.3-2.8-0.5-4.9-0.7-7.6l4.4,2.6c0.3-1.9,0.6-3.2,0.9-5.3l3.6,4.3c-1.5-10.7,4.5-14.8,13-16.4c-0.1-2.1-0.1-3.9-0.2-6.5l6.4,3.4
	c-1.1-2.8-1.6-4.2-2.1-5.3l12.1-9.3l1.1,1.1c-0.1-2-0.2-4.1-0.3-5c2.1-0.8,3.6-1.1,4.7-1.9c1.2-1.2,2.3-2.5,3.3-3.9
	c1.8-2.4,3.8-4.6,6-6.6c1.1-1,2.5-1.8,3.5-2.8c1.9-1.8,3.2-4.6,5.5-5.5c12-5.1,28.8,1.7,34,13.4c3.1,7,6.5,13.9,9.1,21
	c1.6,4.5,1.8,9.5,2.4,14.2c0.5,4.2,2.6,8,2.8,12.4c0.3,6.1,2.4,12.1,2.8,18.2c0.4,5.1-0.1,10.2-1.4,15.1c-2.3,8.4-5.5,16.6-8.5,24.9
	c-0.9,2.7-2,5.3-3.4,7.7c-0.9,1.3-2.3,2.1-3.9,2.3c-0.9,0-2-1.8-2.6-3c-0.7-1.6-1.2-3.3-1.7-5l-2,0.4l3.1,17.5L490,438l-2.1-4.6
	l-1.5,0.2l0.6,10.8l-1,0l-2.6-4.1c-0.9,2.7,0.2,7.1-5.5,3.2c1.3,3.4,2,5.3,3.3,8.6l-20,8.9c13.6,0.1,24.4-5.3,30.2-19l1.6,2.5
	l2.8,0.1c-0.5-3.6-0.9-7.2-1.4-10.8l1.6,0.2c0.2,2.2,0.5,4.3,0.7,6.5l3.1,0.1c-0.4-3.2-0.8-6.5-1.2-9.7l1.1,0.1
	c0.2,1.6,0.4,3.1,0.6,4.7l1.5,0.3c-0.2-5.9-1.9-12.1,3.2-16.5l1.4,3c0.6-4.8,1.1-9.2,1.8-14.8c1.2,2.7,1.8,4,2.5,5.3l0.8-0.3
	c-0.2-3.8-0.5-7.5-0.7-11.9l2.9,3.6c-0.3-3.3-0.6-5.5-0.8-8.4l4.1,2.3c0-3.8-0.1-6.9,0.2-10c0.7-8.8,1.3-17.5,2.3-26.3
	c1.5-13.2,3.3-26.4,4.8-39.5c0.2-2.2-0.1-4.3-0.7-6.4c-3.2-11.2-6.2-22.5-10.1-33.5c-1.3-3.8-0.2-9.3-5.6-11.3
	c-0.5-0.2-0.3-1.9-0.7-2.7c-1.2-2.9-2-6.1-3.9-8.5c-2-2.7-5.3-4.3-7.6-6.9c-2.6-3-4.6-6.5-6.9-9.7c-3.2-4.5-6.3-9.1-9.5-13.6
	c-1.7-2.4-4.6-4.2-5.4-6.8c-1.2-3.9-4.6-7.3-2.9-12c0.2-0.6-0.8-1.8-1.7-3.5l-1.6,7.7l-13.9-16.9c-0.4,1.2-0.5,2.4-0.1,3.6
	c1.5,7,3.6,13.9,4.5,20.9c1.1,8.6,1.7,17.2,1.7,25.9c0,5.6-0.7,11.3-2.1,16.8c-2.2,9.3-8,16.6-13.9,23.9c-7,8.7-14,17.4-17.7,28.1
	c-3.3,9.4-7,18.5-16.5,23.6c-1,0.7-1.8,1.5-2.5,2.5c-10.5,12.2-24.6,15-39.6,15.1c-1.2,0-2.3-0.3-3.4-0.7
	c-9.6-4.3-19.6-7.7-28.5-13.1c-14-8.6-27.3-6.5-40.1,1c-10.8,6.1-20.5,14.1-30.9,21c-13.6,9.2-26.7,9-39.6-1.2
	c-7-5.5-12.6-12.9-19.7-18.3c-12.8-10-23.8-21.7-34.2-34.1c-3.9-4.6-5.8-9.3-4.7-15c1-5,2.3-10,3.5-15.1L170,283.4z M282.9,164.2
	l1.3-0.8l11,7.4c-0.2-0.8-0.4-1.8-0.5-2.2c2.2,0.6,4.4,2.1,6.2,1.6c5.9-1.5,11.5-3.9,17.4-5.6c7.5-2.2,15-4.1,22.6-6.2
	c0-0.5,0.1-1,0.1-1.5c-1.5-0.2-3.1-1-4.4-0.7c-4.8,1.3-9.4,3.2-14.2,4.3c-13.4,3.2-26.8,4-40.5,1.1c-3.2-0.7-6.6-0.1-10.3-0.1
	c2.8,8.2,7.3,13,10.8,12c-1.7-2.7-3.4-5.4-5.3-8.6c5.3,1.1,4.3,9,11.6,7.9C286.4,169.5,284.6,166.9,282.9,164.2z M219.9,132.5
	l1.5-1.1l-18.9-27.2l1.1-0.8l21.5,30.8l1.3-0.8c-0.5-1.3-1.1-2.6-1.8-3.8c-5-7.6-10.2-15.2-15.2-22.9c-4.8-7.4-5.1-7.6-15-5.4
	C202.9,112,209,124.2,219.9,132.5z M107.1,225.2l1.1-0.7l-15.2-29c-1.3,2.4-0.9,11.4,0.6,13.2c0.1,0.1,0.2,0.3,0.3,0.4
	c2,1.8,4.2,3.4,5.8,5.4C102.4,218,104.6,221.7,107.1,225.2z M442.8,273.4c0.2-0.5,0.4-0.9,0.6-1.4c-1.5-1-3.1-3.1-4.4-3
	c-5.5,0.7-10.9,2.1-16.5,3.2c0.9,3.8,2.5,5.2,5.9,4.4C433.1,275.5,438,274.5,442.8,273.4z M301,108.4c2.1,1.6,4,3.4,5.8,5.3
	c1.8,2.2,2.8,4.9,4.6,7c1.2,1.4,3.2,2.1,4.8,3.2C313.9,112.5,309,108.1,301,108.4L301,108.4z M197.7,169.4c-1.6-4.7-5.3-4.7-18,0.4
	c1.2,1.2,2.7,2.6,4.1,2.4C188.3,171.6,192.8,170.5,197.7,169.4L197.7,169.4z M162.7,164.6l0.1-2.3c-1.5-0.3-3.1-0.9-4.5-0.7
	c-3.8,0.5-7.5,1.2-11.2,2.2c-2,0.5-5.6,1.8-5.6,2.3c0.7,4.2,3.1,0.7,4.9,0.8c0.1,0,0.3,0.3,0.4,0.2
	C152.1,166.2,157.4,165.4,162.7,164.6L162.7,164.6z M221.3,101.8c5.5,3.6,10.1,3.2,10.6-0.3l5.3,4.5c-1.5-6.8-1.6-7-4.9-6.8
	c-4.7,0.3-9.4,0.9-14.7,1.4l4,6.1l0.8-0.4C222.1,105,221.8,103.8,221.3,101.8L221.3,101.8z M220.1,111.8l1.5-1.1
	c-3.4-10.1-6.6-12.5-14-9.6l6.6,9.6l1.4-1l-3.6-7.4l0.7-0.4L220.1,111.8z M415.6,316.5c0.1,1.7,0.1,3.1,0.2,4.5l-5.1,2l-0.2,1.6
	c2,0.3,4.2,1.3,6,0.8c4.9-1.3,5-6,7.2-10.6L415.6,316.5z M291.3,105.8l1-0.6l10.4,14.1c0.1-9-9.1-17-15-14.2l4.9,5.9l0.9-0.6
	C292.7,108.8,292,107.3,291.3,105.8z M379.7,165l-5.6-0.1c2.7,5.6,5.7,6,11.8,2.6c-2.6-5.4-5.7-8.2-8.6-7.6
	C378.1,161.7,379,163.5,379.7,165L379.7,165z M283.5,131.9c-1.2-6.5-9.1-15.8-13.1-15.5C275.6,121.5,277.4,128.5,283.5,131.9z
	 M242.5,117.3l1.5-1.6c-1.4-1.7-2.6-4.5-4.4-5c-3.4-0.9-7.1-0.6-11.1-0.8C231.2,117.6,238.7,113.3,242.5,117.3L242.5,117.3z
	 M453,223.4l-6.3,2.1c1.2,5.2,4.4,4,6.7,2.8c4.5-2.4,1.2-6.2,1.7-10.4l-4.7,2.4L453,223.4z M130.1,206c-0.4-4.3-3.1-5.4-5.7-3.7
	c-2.1,1.3-4,1-6,1.5c-1.4,0.3-2.7,0.5-4.1,0.8c-0.1,0.5-0.2,1-0.3,1.5c1.4,0.6,3.9,1.9,4,1.6c1.8-2.8,4.4-0.6,6.5-1.2
	C126.4,206.2,128.3,206,130.1,206z M420.6,189c3.4,6.9,3.5,6.9,14.6,2.9l-3.8-3.5l-1.6,1.9L420.6,189z M437.8,282
	c-2.2-5.7-4.9-6.3-11-2.6C429.2,285,429.2,285,437.8,282z M227.8,343.7c-3.6-3.6-14.8-2.3-19.5,1.9
	C214.6,346.6,220.5,343.8,227.8,343.7L227.8,343.7z M242.9,112.2c2.1,2.6,5,4.5,4.9,6.2c-0.5,6.6,3.9,3.7,7,4.5
	C248.1,111.8,248.1,111.8,242.9,112.2L242.9,112.2z M209.2,156.8c1.3,5.1,4.5,5.1,15.5,0.8C219.5,153.2,214.5,157.8,209.2,156.8
	L209.2,156.8z M161.1,268.2c1.2-1,3.2-2.7,5.3-4.3c3.6-2.7,3.6-2.8-0.1-5.6c-0.7,8.6-9.2,4-13.1,7.7L161.1,268.2z M419.7,271.3
	l9.7-2.2c-2.9-5.2-5.5-6.7-8.6-4.4C419.7,265.5,420.1,268.5,419.7,271.3z M441.5,286.2l-0.9-1.6l-9.1,1l-0.5,1.3l6.5,6L441.5,286.2z
	 M132.5,247.8c1.3,6.1,1.3,6.1,11.4,2.6l-1.5-3.3L132.5,247.8z M110.1,171.3c0,0.6-0.1,1.3-0.1,2l11.9-1.3c-2.1-6.4-3-7.2-6.7-6
	l2.6,3.5L110.1,171.3z M356.3,149.9c-0.2-0.4-0.4-0.7-0.6-1.1c-2.9,0.9-5.7,2-8.4,3.2c-0.5,0.2-0.6,2.3-0.2,3.2
	c0.3,0.6,1.9,1,2.7,0.9c1.3-0.2,2.5-1.1,4.6-2.1c0-0.5,0.1-1,0.3-1.5C355.1,151.6,355.7,150.7,356.3,149.9z M170.9,164.9l-0.5,1.3
	c1.5,0.6,3,1.7,4.6,1.8c1.8,0,3.6-0.5,5.2-1.3c1.1-0.4,1.8-1.6,2.8-2.4c-1.1-0.5-2.2-1.6-3.2-1.4
	C176.8,163.3,173.9,164.2,170.9,164.9L170.9,164.9z M352.3,167.1c-3.5-8.4-4.9-9-12.7-5l6.3,0.2
	C347.2,164.5,347.3,168.7,352.3,167.1z M407,290.5c1.4,5.6,2,5.8,8.8,2.8C415,288.1,413.9,287.8,407,290.5z M429.3,263.7
	c1.2,5.9,1.9,6.1,9.1,3.3C436.8,261.9,436.1,261.6,429.3,263.7L429.3,263.7z M254.3,357.2c5.3,7.5,5.7,8.7,10.2,5.5
	C257.4,356.1,257.4,356.1,254.3,357.2L254.3,357.2z M188.3,102.8c-2.9-4-7.7-4.5-17-0.5c3.8,0.6,6.2,1.2,8.7,1.2
	C182.8,103.4,185.6,103.2,188.3,102.8L188.3,102.8z M452.5,251.6c-1.9-4.1-10.5-3.8-14.5,1.2L452.5,251.6z M180.7,161.4
	c0.1-0.6,0.3-1.1,0.5-1.6c-3.5-0.7-2.6-8.2-8.9-4.7c-0.5,0.3-0.8,0.8-1.5,1.6l3.2,0.8c0.1,1.4,0.1,3.7,0.4,3.7
	C176.4,161.4,178.5,161.4,180.7,161.4z M258.3,156.8c1.1,8.3,6.5,4.6,10.1,5.2c1,0.2,2.1-0.8,4.5-1.7L258.3,156.8z M291.5,117.1
	l1.4-1l-8.2-12.2l-2.1,1.5C286.2,108.8,286,115,291.5,117.1z M84,158.2c0.5,3,0.3,5.1,1,5.4c2.3,0.9,4.7,1.6,7.2,2.1
	c0.1-1.3,0.8-3.4,0.2-3.8C90.2,160.6,87.7,159.7,84,158.2z M239.1,342.7c-0.4,0.4-0.7,0.8-1.1,1.2c0.9,1,1.8,3,2.6,3
	c3.6-0.6,7.2-1.3,10.7-2.2C247.6,337.8,242.8,345.3,239.1,342.7z M292.1,134.3c-2.6-3.7-3.5-9-8.9-10
	C286.6,127.3,285.4,134.4,292.1,134.3L292.1,134.3z M134.4,241.1c-2.3-5.9-4.9-6.4-8.7-2.2C128.4,243,128.4,243,134.4,241.1z
	 M437.1,275.9c1.6,5.1,3.7,7,7.3,5.3c0.9-0.4,1.1-2.5,1.6-3.8L437.1,275.9z M440.5,216.4c4.3,3.7,12.9,1.7,13.4-2.1L440.5,216.4z
	 M115.9,195.9c-3.5-7.4-7.6-2-12.1-2.1C107.6,199.7,111.7,195.9,115.9,195.9z M248.8,165c-3.1-2.2-3.4-8.1-9.9-7.5
	C241.8,161.6,242.9,166.3,248.8,165z M265.3,113.3c-1-5.8-5-10.1-8.9-9.1C261.3,105.4,258.2,113.3,265.3,113.3L265.3,113.3z
	 M386.3,331.1c-2.3-1.7-3.5-3.3-4.9-3.5c-1.7-0.3-3.6,0.5-5.2,1.2c-0.8,0.3-1.4,1.4-2,2.2c0.9,0.5,1.8,1.6,2.7,1.5
	C379.4,332.3,381.9,331.7,386.3,331.1L386.3,331.1z M398,146.9l10.2,9.3C409.1,151.4,404.4,146.7,398,146.9z M230.4,349.4
	c-1.7-4.6-4.9-4.8-11.1-1.5C222.3,354,226.4,348.1,230.4,349.4z M420.6,285.3c-2.1-5.9-3.3-6.4-7.6-3.3
	C415.4,287.5,416.1,287.8,420.6,285.3z M213.1,337.7c3,5.1,6.3,2.3,9.1,2c0.7-0.1,1.3-1.2,1.9-1.8c-0.8-0.6-1.7-1.9-2.4-1.8
	C219.2,336.3,216.6,337,213.1,337.7z M89,218.7l0.9-0.6c-1.6-2.7-3.1-5.4-4.9-7.9c-0.3-0.4-2.4,0.1-3.3,0.7
	c-0.4,0.3-0.3,2.3,0.2,2.8C84.1,215.5,86.6,217.1,89,218.7z M270,360.6c-5.8-5.6-5.8-5.6-8.5-4.6C264.7,362,266.2,362.9,270,360.6
	L270,360.6z M341.1,336c1.9,2.9,4.3,3,9.9,0.7C349.2,332.9,348.6,332.8,341.1,336L341.1,336z M440.2,440.1
	c-0.8-3.4-1.6-6.8-2.5-10.1c0-0.1-0.8-0.1-0.9,0c-0.6,0.8-1.7,1.9-1.5,2.6c0.8,2.8,1.7,5.5,2.8,8.2
	C438.1,440.7,438.9,440.5,440.2,440.1L440.2,440.1z M452.7,268.5l-1-0.9l-8.4,0.6c-0.2,0.5-0.4,1-0.6,1.6c1.5,1.1,3.4,3.3,4.5,3
	C449.1,272,450.8,270,452.7,268.5L452.7,268.5z M395.5,312.8c1.2,5.6,1.8,5.8,8.2,3.1C402.2,311.4,399.4,310.6,395.5,312.8
	L395.5,312.8z M435.4,222.1c0.1,0.8,0.3,1.6,0.4,2.5l13.1-2.4c-0.1-0.7-0.2-1.5-0.4-2.2L435.4,222.1z M418.4,307.1
	c0,4.8,1.2,6.9,4.8,5.7c1.1-0.4,1.7-2.3,2.6-3.5L418.4,307.1z M428.2,235.6c1.8,5.5,2.1,5.6,7.3,3.3
	C433.3,233.3,432.9,233.1,428.2,235.6L428.2,235.6z M254,165.1c-2-6.3-5.6-9.4-9-7.9C247.7,160,249,164.2,254,165.1z M446.5,265.5
	c-1.3-5.4-4.6-4.8-8.5-3.6C439.5,266.4,442,267.7,446.5,265.5z M213.4,145l1.4-1.6l-9.5-8.7c-0.6,0.7-1.2,1.4-1.8,2.1
	C208.4,137.8,208.1,144.6,213.4,145z M404.4,310c1,6.9,1.9,7.2,8.2,3.2L404.4,310z M407,295.3c-2-5.2-2.6-5.4-7.1-3.1
	C402,297.5,402.4,297.7,407,295.3z M416.8,286.9c1.5,7,2.9,7.5,9.5,3.2L416.8,286.9z M182.5,105.8c3.1,2,2.2,8.7,8.5,6.9
	C187.5,111.2,188.2,104.8,182.5,105.8z M335.2,124l-5.6-2.2l1.1-2.5l-5.6-2.4C326.5,122.6,328.1,126.1,335.2,124z M444.6,428.3
	c1,3.8,1.8,7.1,2.7,10.4c0.7-0.2,1.4-0.4,2-0.7c-0.5-3.2-1.1-6.3-1.9-9.5C447.4,428.4,446.3,428.4,444.6,428.3z M485.2,431.6
	l2.3-0.2c-0.4-3.2-0.7-6.4-1.2-9.5c-0.1-0.4-1.2-1-1.5-0.9c-0.6,0.3-1.5,1.1-1.4,1.6C483.9,425.7,484.5,428.6,485.2,431.6z
	 M399.6,309.9c-1.1-5.5-4.1-4.3-7.4-3.2C392.6,312.4,395.8,311.1,399.6,309.9z M432,301.2l-1.2-2l-7.4,2c-0.1,0.5-0.2,1.1-0.3,1.6
	c1.4,0.8,3,2.5,4,2.2C429.1,304.3,430.5,302.5,432,301.2z M434.3,261.6c-1.5-6-4.5-5-7.1-4c-0.6,0.2-0.8,1.7-1.2,2.6L434.3,261.6z
	 M113.6,232c1.5,3.1-2,8.1,3.6,9.8C119.3,237.3,117.8,234.2,113.6,232z M438,226.8c1.7,5.5,5.1,3.4,8.6,2.8
	C445,224.9,442,225.4,438,226.8z M428.1,431.9l-2.5,0.8c0.9,3.2-0.1,7.1,3.2,9.5l2-0.6L428.1,431.9z M268,171.9l3.8,4.7l0.8-0.6
	l-0.5-2.3l5.1,2.2C275.7,169.7,272.7,169.4,268,171.9z M143.3,258.3c-1.2-5.1-2.5-5.6-7-2.6C138.3,259.9,138.3,259.9,143.3,258.3z
	 M151.6,249.3c-1.5-4.8-2-5-6.8-3.2C146,251.2,146.7,251.6,151.6,249.3L151.6,249.3z M321.4,131c-1.2-5.7-1.9-6.2-6.7-5.3
	C316.5,131.2,316.8,131.4,321.4,131z M141.1,122.6c-0.4,0.1,1.1-0.1,1-0.3c0-2.2-0.3-4.5-0.9-6.7c-0.5-1.5-2-2.8-3.1-4.1
	c-0.5,0.4-1.5,1-1.4,1.1c0.6,1.5,1.4,2.8,2.1,4.3C139.6,118.6,140.2,120.3,141.1,122.6L141.1,122.6z M448.5,379l-2.8,0.2
	c0.2,2.7,0.4,5.4,0.9,8c0,0.3,1.9,0.2,3,0.3C449.2,384.8,448.9,382.1,448.5,379z M134.1,209.2c-3.9-3.9-7,0.3-10.5-0.3
	C125.5,212.3,128.1,212.3,134.1,209.2z M419.7,295.5c2.9,5.2,6.2,2.4,9.7,1.7C426.6,292.4,423.4,294.9,419.7,295.5z M189.3,149.2
	c-2.5-5.6-6-0.6-9-1.2C182.8,152.7,186.4,148.5,189.3,149.2z M409.9,296.8c3.3,4.5,4.9,4.5,9-0.3L409.9,296.8z M191,130.1l-0.8,1
	c4.4,6.5,4.4,6.5,9.4,5.1L191,130.1z M197,109.9c-1.2-4-2.6-7.8-5.8-10.1l-1.6,1.2L197,109.9z M121.5,196.2l1.3-2.9l-6.2-2.8
	c-0.2,1.1-1,3-0.6,3.2C117.7,194.6,119.6,195.5,121.5,196.2L121.5,196.2z M360.3,332.2c-2.3,0.3-4.6,0.7-6.8,1.2
	c-0.4,0.1-0.2,1.9-0.3,2.9c2,0.1,4,0,6-0.2C359.5,335.9,359.7,334.1,360.3,332.2L360.3,332.2z M446.9,259.4l-1.2,2.9l5.9,2.7
	c0.3-1.1,1.1-3,0.8-3.1C450.7,260.9,448.8,260.1,446.9,259.4L446.9,259.4z M397.9,161.3c1.6,4.2,4,4.8,7.6,2.8
	C403.9,160.6,402.1,158.6,397.9,161.3L397.9,161.3z M300.6,133.4l1.6-1.1c-1.3-3-1.4-7.1-7.1-6.6L300.6,133.4z M426.8,242.9
	c2.1,5.9,3,6.6,7.3,5.4C429.8,248.7,433.5,239.9,426.8,242.9z M139.7,176.4c2,6,5.2,2.9,8.3,1.6C146,173.2,142.9,175.7,139.7,176.4z
	 M262.4,120.4l1.2-1.3c-1.7-5.7-1.8-5.8-7.3-4.9L262.4,120.4z M439.5,246.8c-1.4-6.7-2.6-7.1-8.5-3.4L439.5,246.8z M496.6,420.4
	l1.5,0.3c0.8-2.1,1.5-4.2,1.9-6.5c0.1-0.6-1.6-1.5-2.5-2.2c-0.6,0.8-1.8,1.6-1.8,2.4C495.9,416.4,496.2,418.4,496.6,420.4z
	 M396.2,303.7c-1.1-4.5-1.2-4.5-6.3-2.5C390.6,305.4,391,305.5,396.2,303.7z M437.2,232.3c0.3-0.6,0.6-1.3,0.8-2
	c-1.2-3.7-3.5-4.1-7.1-0.4L437.2,232.3z M408.2,370c0.3,2.5,0.8,5,1.4,7.5c0.1,0.4,2,0.2,3,0.3c-0.2-2.3-0.6-4.6-1.1-6.9
	C411.4,370.6,409.9,370.5,408.2,370z M406.4,308.3l0.7-1.9l-7.2-2.6C400.6,309.8,403,310.1,406.4,308.3z M160.2,118.7l-0.1-1.5
	c-4.3-2.1-8.5-1.4-10.4,2.4L160.2,118.7z M394.4,317.8c-1.2-4.9-1.4-4.9-5.6-3.6C389.9,319.5,390,319.6,394.4,317.8z M148.9,153.8
	c1.4,4,1.9,4.1,7.5,1.4C155.7,153.1,155.7,153.1,148.9,153.8L148.9,153.8z M409.4,327.1c-1.4-5.7-4.3-4.1-6.6-3.4
	c-0.6,0.2-0.7,1.7-1.1,2.6L409.4,327.1z M406.1,322.1l0.4-2.2c-2.3-3.4-5-1.1-7.6,0l-0.1,1.8L406.1,322.1z M237.9,121.2l-1.6,2.3
	l6.2,4.2l1.5-2.1L237.9,121.2z M426.1,195.9c0,1.1-0.1,2.2-0.1,3.3c2.1,0.1,4.1,0,6.2-0.1c0.3,0,0.4-1.5,0.7-2.3L426.1,195.9z
	 M423.1,252.3l-0.2,2.1c2.3,2.5,4.8,2.2,7.4,0.2c0.1-0.6,0.1-1.1,0.2-1.6L423.1,252.3z M436.8,215.4c-2.1-4.9-4.9-2.8-7.8-2
	C430.6,218.2,433.5,215.8,436.8,215.4L436.8,215.4z M109,148.7c-2.2,3.3-4.2,6.5-6.3,9.6C107.9,156.4,110.3,152.1,109,148.7z
	 M119,222.9l-3.2-3.5l-2.4,2.6l-2.2-1.8C111.7,226.7,115.7,223.1,119,222.9L119,222.9z M253.5,351.7l0.8-1.8c-1.2-4-3.7-3.7-7.1-0.3
	L253.5,351.7z M448.1,258.5l0.6-2.1c-1.6-3.6-4.2-2.5-7.2,0.6L448.1,258.5z M498.6,403.5l1.6-0.1c0-2.1,0-4.2-0.2-6.3
	c0-0.4-1.5-0.5-2.3-0.8c0,1.9,0,3.7,0.1,5.6C497.8,402.4,498.3,402.9,498.6,403.5L498.6,403.5z M385.2,163.8
	c1.4,2.9,2.8,5.1,6.7,2.6C390.6,163.3,389.3,160.8,385.2,163.8z M294.6,177.4l0.4-2.1c-2.5-3.3-5.5-0.3-8.2,0.2l-0.1,1.8
	L294.6,177.4z M441.9,259.5c-1.7-4.7-4-4.6-6.4-3.3c-0.5,0.2-0.3,1.6-0.5,2.5L441.9,259.5z M153.8,257.5l1-1.6
	c-1.5-4.6-1.5-4.6-7.2-2.3L153.8,257.5z M271.4,119.3l-5.8-5.4l-1.2,1.4C265.4,118.2,266.4,121.2,271.4,119.3z"/>
<path class="st1" d="M557.7,642.5c-6.2-14.9-12.4-29.9-18.6-44.8l1.2-0.5l18.7,44.7L557.7,642.5z"/>
<path class="st1" d="M510.3,560.8c7.9,13.5,15.7,27.1,23.6,40.7l-1.8,1c-2.5-5-4.9-10-7.6-14.8c-4.5-8.1-9.2-16.1-13.7-24.2
	C510.5,562.6,510.4,561.8,510.3,560.8L510.3,560.8z"/>
<path class="st1" d="M477.7,499.5c8.5,12.1,17,24.2,25.5,36.3l-1,0.7c-8.5-12.1-17-24.1-25.5-36.2L477.7,499.5z"/>
<path class="st1" d="M510.4,560.9c-4.2-6.3-8.5-12.6-12.6-19c-5.2-8-10.3-16.1-15.4-24.2l1.2-0.7
	C492.5,531.6,501.4,546.2,510.4,560.9L510.4,560.9z"/>
<path class="st1" d="M486.1,501.5c5.4,1.5,10.8,2.9,12.4,10.4l-13.3-9C485.5,502.4,485.8,502,486.1,501.5z"/>
<path class="st1" d="M498.8,521c6.5-2,8,4.1,12.2,6l-0.7,1.2L498.8,521z"/>
<path class="st1" d="M568.7,624l-2.8-0.7l4.7,4.3l-1.3,1.3l-8.2-8.2l1.1-1.5l7,3.6L568.7,624z"/>
<path class="st1" d="M568.1,668.4c5.6-1.5,11.6,0.6,14.9,5.4L568.1,668.4z"/>
<path class="st1" d="M542.9,585.7c5.7,1.4,8.8,4.5,7.5,9.1L542.9,585.7z"/>
<path class="st1" d="M544.7,584.2l-6-5.5l1.2-1.3c2.8,0.9,6.5,0.8,6.3,5.2L544.7,584.2z"/>
<path class="st0" d="M194.1,312.7l-3.9-2.8c1.2-0.5,2.5-1,3.7-1.5c3.6-1.1,7.1-2.4,10.5-4l-11.2,1.2c-0.1-0.6-0.3-1.3-0.4-1.9
	l14.9-3.5c-0.1-0.6-0.2-1.1-0.3-1.7l-15.9,2.6c-0.1-0.3-0.2-0.7-0.2-1l4.7-2.1l-7.4-1.2c0.1-0.5,0.2-1,0.3-1.5l12.1-1.8
	c0-0.2,0-0.4,0-0.6l-9.2-0.8c0-0.6,0-1.1,0-1.7l6.5-2.3c-0.6-0.2-1.2-0.3-1.8-0.4c-6.5,1.1-9.4-0.2-9.2-6.5c0.1-3.3-3-4.6-2.2-8
	c0.4-1.9-2.2-4.6-3.6-7.2l6.5-2.3c-0.9-0.2-1.8-0.4-2.7-0.7c-0.9-0.4-1.7-1-2.6-1.5c0.8-0.6,1.5-1.6,2.5-1.9c2.4-0.6,4.7-1.3,7-2.1
	c-6.2-3.6-12-2.4-18.7,1.7c0.2-2.9,0.3-5.1,0.4-7.1l-4.8-1.7l1.6-2.8l-13.5-7.2l3.8,7.2l-1,0.9c-1.2-1-2.3-2-3.2-3.2
	c-3.6-5.8-5.7-6.5-12.6-5.7c-1.9,0.2-3.9-1.6-5.9-2.5c0.1-0.6,0.2-1.3,0.4-1.9l9.7-2.2c-0.1-0.5-0.1-1-0.2-1.4l-10.6,1.9
	c-0.1-0.3-0.1-0.7-0.2-1l5.5-1.8c-0.1-0.4-0.1-0.8-0.2-1.2c-3.5,0.5-7,0.9-10.4,1.7c-2.7,0.6-5.3,1.4-6.2-2.7l14.4-3.9l-0.1-0.7
	l-11.7,1.2l-0.2-1.1l6.9-1.7l-6.4-3.7l0.5-1.4l5-1.5v-0.8l-7.2,0.3c0-0.4-0.1-0.9-0.1-1.3l11.9-2.4l-8.6-8.3l1.1-1.2l5.1,5.6
	l0.4-0.3l-7.1-11.3l5.1-1.8l-6.3-8.9l1.4-1.2l12.2,14.8l1.4-1.1l-10.8-13.1l1.5-1.6l5.9,4.5c-0.8-1.8-1.3-3-1.9-4.2l0.9-1.2l6,3.7
	c-0.4-1.3-0.9-2.5-1.3-3.8l0.7-1.1l4.4,2.5l3.6-3.9l4.9-1.8l17.9-1.2l3.1,3.8c-0.6-2.1-1-3.4-1.6-5.4c5.3-0.9,10.3-1.6,15.3-2.4
	c5.4-0.9,10.8-1.9,16.2-3.1c3.2-0.8,5.9-0.9,7.8,2.7c0-1.3-0.1-2.6-0.2-4.8l4.8,2.2c1.1-3.3,3-4.1,5.5-1c4.3-6,5.1,1.1,8,1.9
	c-0.5-1.6-1-3.1-1.3-3.9c7.3-6.6,10,1.5,12.9,3.4c3.6-1.2,6.1-2.6,8.6-2.7c1.6-0.1,3.4,1.6,5.9,3l-7.4,2c4.3,1.7,9.8-1.8,12.2,5.2
	l-6.5,2.1c6.2,3.3,9.4,8.6,7.4,12.5l10.2,2.6l-11.6-14.1c3.7-2.8,4.5-2.7,7.7,0.8c1,0.8,2.4,1.2,3.7,1c4.1-0.7,8.1-2.4,12.1-2.5
	c7.9-0.2,15.3-3.4,23.5-3c5.4,0.3,10.9-2.9,16.5-4c2.2-0.4,4.9,1.1,7.1,0.6c5.5-1.1,10.8-3.1,16.2-4.4c2-0.5,4.2-0.2,6.7-0.3
	c-1.4-3.4-3-7.4-4.7-11.3l1.4-0.9c4.8,3,5,9.7,10.3,14.2l-2.5-7.1l1.1-0.6l7.8,12.4l2.4-3.3h-0.2c1.9,1,3.8,1.9,5.7,2.9
	c-0.1-0.5-0.3-1.7-0.8-4.5c2.4,1.4,4.6,1.9,4.9,2.9c0.9,3.3,2.3,3.4,5.3,2.4c2.5-0.9,5.8,0.4,8.2-0.7c4.4-1.9,7.5-1.7,10.1,2.6
	c0,0,1.8-1,2.7-1.5h-0.2c2.3-0.1,4.6,0,6.8,0.2c1.3,0.3,2.6,0.9,3.9,1.6c-0.2,0.5-0.3,1.1-0.5,1.6l-14.1,3.2l0.2,1l16-2.5
	c0.1,0.5,0.2,1,0.4,1.5l-8.7,2.2c3.9,3.2,8.4-2.6,12.3,2l-7.8,2.7l3.9,5.7l-6.5,1.8c2.3,3.1,4.7,6.2,6.9,9.5s4.1,6.6,6.9,11.2
	c-9.7-0.4-9.2-10.2-15-12.8c4,6.9,8.1,13.8,12.5,21.2l-3.9,2.6l0.1-0.1l-3.6-6.8l-1.4,0.8l10.1,17.3l-0.5,1.3l-6.5-2.4l4.7,8
	l-12.2,3.4l0.1,0.3l-5.5-0.2l10.6,19.8c-3.8,2-4.2,1.7-6.7-3.8c-1.3-3.1-3.1-5.9-5.3-8.4l9.6,20.7c-2.8,1.1-4.8,1.5-5.9-2
	c-0.8-2.2-2.1-4.2-4-5.6c1.1,3.1,2.2,6.1,3.3,9.2l-1,0.1l4.8,5.8c-6.6,3.5-8,3-10.7-2.6c-2-4.1-4.3-7.9-7.1-11.5l7.2,16.2
	c-3.1,2.2-5.1,2-6.7-1.6c-1.7-3.4-3.6-6.6-5.6-9.8l-1.2,0.6c0.9,1.6,1.4,3.5,2.6,4.6c3.5,3.3,2.9,8.9,6.8,12
	c0.4,0.3-0.3,1.9-0.4,2.9c-1.2-0.4-3.1-0.5-3.6-1.3c-2.2-3.5-3.9-7.2-6.5-10.6c1.7,4,3.4,8.1,5.7,13.4l-8.4-0.8l3.2,7.2l-6.7-1
	l-4.5,3.7c4.7,2.7,7.3,9.6,5.4,13.2h0.2c-1-1.4-2.1-2.8-2.9-4.2c-0.7-1.3-1.3-2.7-1.9-4.1l-1.2,0.5c1,2.4,1.9,4.7,3.2,7.7l-5.1-2.1
	l2.6,7.5c-1.8,0.7-3.6,1.2-5.4,1.6c-7.3,0.9-14.6,1.6-22,2.5c-0.4,0-1.1,0.2-1.2,0.5c-2.5,4.2-4.5,1.2-6.5-0.6
	c-1.4,3.7-2.8,4.1-4.6,1.3c-0.7-1.3-1.5-2.6-2.6-3.7c0.6,1.7,1.2,3.4,1.9,5.1c-3.2,1.2-3.3,1.2-6.7-3.9c-1.6-2.4-2.7-5-5-7
	c2.2,4.1,4.3,8.1,6.5,12.2l-1.5,1.1l-8.7-11.8c3.7,5.9,3.8,14.6,13.2,16c-13.2,0.6-15.1-11.8-22.1-18.4l8.8,15.6
	c-2.8,1.2-4,1-5.6-1.8c-3-5.2-7-9.9-10.5-14.8l-1.1,0.7l10.4,15.6c-6.9-2.2-10.4-7.6-14.6-12.6l9.6,13.6c-3.7,1.3-7.2,2.8-10.9,3.6
	c-1.3,0.3-3.3-1.1-4.4-2.3c-2.8-3-5.3-6.3-8.8-8.9c2.5,3,5.1,6,7.5,9.2c0.8,1,1.5,2.9,1.1,3.8c-0.8,1.2-2.2,2-3.7,2.2
	c-1,0-2.3-1.5-2.9-2.7c-3.4-6.4-6.7-12.9-10-19.3l-1.2,0.6c1.7,3.1,3.6,6.2,5.1,9.5c1.8,3.6,3.3,7.2,4.6,11c0.4,1.2-0.5,2.8-0.9,4.2
	c-1.2-0.6-2.8-0.9-3.6-1.8c-2.5-2.6-4.7-5.5-7.4-8.1c1.1,2.1,2.3,4.1,3.4,6.2c-5.3,3.3-7.2,2.9-9.7-2.3c-1.7-3.5-3.1-7.1-4.7-10.6
	l-1.3,0.6l6.9,14.8c-8.7,4-7.1-6.3-12-7.4c1.7,2.9,3.3,5.7,4.9,8.5c-5,3.7-5.6,1.4-9.9-5c-2.5-3.7-4.6-7.8-6.9-11.7l-1.1,0.6
	c1.1,2.2,2.2,4.5,3.2,6.7c-3.6,1.8-3.6,1.8-9.6-4.8l3.2-3.5c-8.4,1.6-15.5,3.1-22.8,4.5c-2.9,0.5-6.1,1.5-7.5-3.5l25.9-5.4l-0.2-1.2
	c-6.6,1.2-13.2,2.5-19.9,3.5c-2.7,0.4-5.6-0.1-8.3,0.4c-3.1,0.6-6,2.2-9.1,2.7c-2,0.3-4.2-0.6-6.3-1c0-0.7,0-1.4,0-2.1l12.3-3.9
	l21.7-3.1c-0.1-0.6-0.3-1.3-0.4-1.9l-21.3,5.3l-12.2,0.8l-0.3-1.9l32.8-7c-0.1-0.4-0.1-0.8-0.2-1.2l-27.4,4.5l-0.3-1.4l22.8-4.5
	c-0.1-0.4-0.2-0.8-0.3-1.2c-7.4,1.2-14.9,2.5-22.3,3.7c-3.4,0.6-5.4,0.1-3.4-4l17-1.8l-0.3-1.9L194.1,312.7z M279.3,215.9
	c1-5.7-3.4-6.8-6.9-8.7l-1.1,1c2.7,2.6,5.4,5.1,8.1,7.7l-2.8-0.1l2.1,3.1l-3,0.5l5.8,3.7l1.1-1L279.3,215.9z M337.4,253l5.3,2
	l2.9-11.7l-9.7,3C336.5,248.8,337,251.4,337.4,253z M357.4,281.6c-0.9,4.7-6.2,9-1.5,14.5c-0.1-4.4,0.5-7.8,6.2-6.9
	c-0.9-4.2-1.6-7.9-2.3-11.6l-1.1,0.2c0.4,2.7,0.7,5.5,1.1,8.2l-1.1,0.1C358.1,284.6,357.7,283.1,357.4,281.6L357.4,281.6z
	 M352.5,240.3c1.7-0.6,5-1.2,5.2-2.1c0.3-2.6-0.7-5.4-1.2-8.1C354.3,233.4,348.9,235.1,352.5,240.3L352.5,240.3z M390.6,210.8
	l-3.6-13.1l-1.8,0.4c0.6,4.7,1.1,9.3,1.7,14L390.6,210.8z M217.4,278.2c5.1-1.2,10.6,2.9,15.5-0.7
	C227.7,277.3,222.3,273.6,217.4,278.2z M200.6,263l-0.4-0.7l-10,3.7c6.6,3.5,10.7,3.2,15.3-1.4l-9.3,2.5l-0.4-1.2L200.6,263z
	 M372.2,279.9c3-1.5-0.6-5.4,3.8-5.9l-1.6-8.4l-2.1,0.1C372.3,270.4,372.3,275.2,372.2,279.9z M239,283l0.2,2.2l15-0.8
	c0-0.4,0-0.9,0-1.3c-1.4,0-2.8-0.2-4.2-0.1s-3.1,0.3-4.7,0.5l0.5-2.6L239,283z M194.8,236.4c-3.1-5.3-4-5.4-7.1-0.8l5.3,5.5l0.6-0.5
	c-0.5-1.2-0.9-2.5-1.4-3.8L194.8,236.4z M366,216.8l-1.4,0.6l6.4,18.2l1.3-0.5L366,216.8z M394.7,203.2l1.1-0.5l-1.3-6l3.1,2.1
	l1.1-4.3l-8,0.7C392.2,198.1,393.4,200.7,394.7,203.2z M373.1,217.8h-1.9c-0.3,2.2-1,4.4-0.7,6.5c0.1,0.7,2.5,1.2,3.9,1.8l0.9-1.1
	C374.6,222.6,373.9,220.2,373.1,217.8z M184.1,240.8l-1,0.7l7.6,11.6l1.4-1L184.1,240.8z M279.7,203.5l1-1.2l-12.7-8.5l-1,1.4
	L279.7,203.5z M384.7,207.7l-2.6-0.2c0,3.3,0,6.6-0.1,9.8h2.4C384.4,214.1,384.5,210.9,384.7,207.7L384.7,207.7z M192.1,246.2
	l1.1-0.8l-7.8-9.5l-0.6,0.5L192.1,246.2z M302.5,337.2l0.6-0.8l-6.8-8.2l-0.7,0.6L302.5,337.2z M389.9,196.2l-1.5,0.5
	c1.3,4.1,2.7,8.3,4,12.4l1.3-0.4L389.9,196.2z"/>
<path class="st0" d="M397.2,419.2c-3.5-2.4-7-4.9-10.6-7.1s-7.6-4.2-11.5-6.3c-0.6-0.2-1.3-0.4-1.9-0.5l13,12.2l-0.9,1l-17.9-10
	l4.5-0.2c-2.8-1.7-4.8-3-7-4.2c-2-1-4.2-1.8-6.3-2.6l4.5,4.7l-0.8,0.9l-12-6.6l-0.8,1c0.3,1,0.6,1.9,1,3.3l-8.2-5l-0.5,0.6l4.5,4.3
	c-0.2,0.3-0.5,0.7-0.7,1c-1.9-1.2-3.7-2.4-5.6-3.5c-2.7-1.6-5.5-3.1-8.3-4.5c-0.9-0.4-3-0.3-3,0c-1.1,3.4-3.2,3.1-5.8,2.1
	c-1.9-0.8-3.8-1.3-5.9-1.5c-2.7-0.2-5.9-0.7-8,0.4c-5,2.8-9.8,4.4-15.4,2.8c-0.3-0.1-0.8-0.2-1-0.1c-4,4.1-9.6,1.5-14.3,3.4
	c-7.8,3-16.1,1.8-24.2,0.9c-1.7-0.2-3.3-1.5-4.9-2.5c-5.8-3.6-11.6-7.1-17.4-10.8c-3-2-5.9-4.2-8.8-6.3c-1.1-0.7-2.5-1-3.8-0.6
	c1.7,3.6,3.3,7.2,5,10.8c-6.6-3.7-8.1-10.6-11.8-16.2c0.5,1.6,0.9,3.2,1.4,4.8l-0.9,0.5l-3.9-6.8c-1.6-0.3-2.8-0.3-3.1-0.7
	c-1.4-2.8-2.7-5.7-4-8.5c-6.7,2.9-4.2-4.1-7.2-5.9c-0.3,0.5-0.7,1.2-1.4,2.4c-1.5-3.2-2.9-6-4.5-9.4c-0.7,1.2-1.1,1.9-1.6,2.7
	c-2.6-2.8-4.7-6.5-7.9-8.2s-3.9-6.4-8.2-6c-0.1,0-0.2-0.3-0.3-0.4c-2.3-11.1-13.1-16.3-17.9-25.6c-2-3.7-3.5-7.6-4.6-11.7
	c7.5,10.4,13.9,21.7,24.7,28.5c-12.5-13.7-26.4-27-27-48.4l-2.3,0.5c1.3-4.8,0.9-9.1-4-12.1c1.5-0.4,1.9-0.6,2.1-0.5
	c7.7,4.9,10.5,4.9,17.9-0.7c4.8-3.6,9.3-7.6,14.1-11.2c1.5-1.2,3.4-1.9,6.2-3.4c-0.8,9.7-7.1,16-10.1,23.5l-0.9-8.3l-1.1-0.1
	l-5.8,19.9c4.2-3.2,2.1-9.7,7.8-11.7c-1.2,5-2.5,10-3.5,15.1c-1.1,5.8,0.8,10.5,4.7,15c10.4,12.4,21.4,24.1,34.2,34.1
	c7,5.5,12.7,12.8,19.7,18.3c12.9,10.2,25.9,10.4,39.6,1.2c10.3-7,20.1-14.9,30.9-21.1c12.8-7.5,26.1-9.5,40.1-1
	c8.9,5.4,18.9,8.9,28.5,13.1c1.1,0.5,2.2,0.7,3.4,0.7c15.1-0.2,29.2-2.9,39.6-15.1c0.7-1,1.5-1.8,2.5-2.5
	c9.5-5.1,13.2-14.2,16.5-23.6c3.8-10.8,10.7-19.4,17.7-28.1c5.8-7.2,11.7-14.6,13.9-23.9c1.3-5.5,2-11.1,2.1-16.8
	c0-8.7-0.6-17.3-1.7-25.9c-0.9-7-3-13.9-4.5-20.9c-0.3-1.2-0.3-2.5,0.1-3.6l13.9,16.9l1.6-7.7c0.9,1.7,2,2.9,1.7,3.5
	c-1.8,4.7,1.6,8.2,2.9,12c0.8,2.6,3.7,4.4,5.4,6.8c3.3,4.5,6.4,9.1,9.5,13.6c2.3,3.3,4.3,6.8,6.9,9.7c2.2,2.6,5.5,4.2,7.6,6.9
	c1.9,2.4,2.7,5.6,3.9,8.5c0.4,0.9,0.2,2.6,0.7,2.7c5.4,2,4.3,7.5,5.6,11.3c3.9,11,6.9,22.3,10.1,33.5c0.6,2.1,0.9,4.3,0.7,6.4
	c-1.5,13.2-3.3,26.3-4.8,39.5c-1,8.7-1.6,17.5-2.3,26.3c-0.2,3.1-0.1,6.2-0.2,10l-3.9-2.2c0.3,2.8,0.5,5.1,0.8,8.4l-2.9-3.6
	c0.3,4.4,0.5,8.2,0.7,11.9l-0.8,0.3c-0.6-1.3-1.2-2.6-2.5-5.3c-0.7,5.6-1.2,10-1.8,14.8l-1.4-3c-5.1,4.4-3.4,10.6-3.2,16.5l-1.5-0.3
	c-0.2-1.5-0.4-3.1-0.6-4.7l-1.1-0.1c0.4,3.2,0.8,6.5,1.2,9.7l-3.1-0.1c-0.2-2.2-0.5-4.3-0.7-6.5l-1.6-0.2c0.5,3.6,0.9,7.2,1.4,10.8
	l-2.8-0.1l-1.6-2.5c-5.8,13.8-16.6,19.1-30.2,19l20-8.9c-1.2-3.3-2-5.2-3.3-8.6c5.8,3.9,4.7-0.5,5.5-3.2l2.6,4.1l1,0l-0.6-10.8
	l1.5-0.2l2.1,4.7l1.2-0.2l-3.1-17.5l2-0.4c0.4,1.7,1,3.4,1.7,5c0.6,1.2,1.7,3,2.6,3c1.6-0.2,3-1,3.9-2.3c1.4-2.4,2.5-5,3.4-7.7
	c2.9-8.2,6.1-16.4,8.5-24.9c1.3-4.9,1.7-10.1,1.4-15.1c-0.4-6.1-2.5-12.1-2.8-18.2c-0.2-4.5-2.3-8.2-2.8-12.4
	c-0.6-4.8-0.8-9.8-2.4-14.2c-2.5-7.2-6-14-9.1-21c-5.2-11.7-22-18.5-34-13.4c-2.2,0.9-3.6,3.7-5.5,5.5c-1.1,1-2.5,1.8-3.5,2.8
	c-2.2,2-4.2,4.2-6,6.6c-1,1.4-2.1,2.7-3.3,3.9c-1.1,0.9-2.6,1.1-4.7,1.9c0,0.9,0.2,2.9,0.3,5l-1.1-1.1l-12.1,9.3
	c0.5,1.1,1,2.5,2.1,5.3l-6.4-3.4c0.1,2.5,0.1,4.4,0.2,6.5c-8.6,1.5-14.5,5.6-13,16.4l-3.6-4.3c-0.4,2.1-0.6,3.5-0.9,5.3l-4.4-2.6
	c0.3,2.7,0.5,4.8,0.7,7.6l-2.8-1.8c-0.4,1-0.9,2.1-1.6,3.8l-2.1-1.9c-3.7,0.9-7,2.2-10.2,2.5c-6,0.4-8.6,2.6-8,8.4l-2.2-2.5
	c-1.4,1.1-2.7,2.1-3.9,3.3c-0.9,0.9-1.6,1.8-2.3,2.9c-0.6,1-1,2.1-1.6,3.1c-0.8,1.4-2.4,2.9-2.1,3.9c0.6,1.6,2,2.8,3.6,3.3
	c10.1,1.2,18.1,7.2,27.1,11c6.3,2.7,10.2,7.4,13,13.1c3.9,8,7.6,16,11.4,24.1l-17.4-21.2l-1.5,1.1l14,17.1l-0.9,0.7L397,419.1
	L397.2,419.2z M281.6,373.2l22.3,15.4l0.8-1.2l-9.1-6.2l0.6-0.9l9.4,5.3l0.5-1.1C298.4,380.1,293.1,371.2,281.6,373.2L281.6,373.2z
	 M285.3,389.9l0.3-0.9l-16.5-11.6c-2,4-0.3,5.7,2.2,7.2c3.5,2.2,6.8,4.6,10.3,6.9c0.3,0.2,0.9,0.1,1.4,0.1c-0.5-0.9-0.9-1.7-1.5-2.9
	L285.3,389.9z M168.4,316.2l-1.1,1.1c1.4,1.6,2.7,3.3,4.1,4.9c0.6,0.8,2,1.5,2,2.2c0.1,6.3,5.2,7.3,9.5,9.4c-1.2-2.9-2.7-5.6-4.7-8
	c-0.7-0.9-2.5-1.4-2.6-2.2C175.3,318.8,171.2,318.2,168.4,316.2z M351.9,395.7l-7.1-7.4c-0.2,1.3-0.2,2-0.4,3.2
	c-3-3.1-4.8-7.6-10-4.5C339,392.2,343.4,397.3,351.9,395.7L351.9,395.7z M226.3,380c5.3,7.9,12.8,10.7,20.7,12.9l1-1.8L226.3,380z
	 M318,360.5l-1.4,1.9l23.8,15.7l0.9-1.3L318,360.5z M210.8,370.5l12.2,11.7c0.5-0.5,0.9-1,1.4-1.5l-20-17.7l-0.6,0.5l5.4,8.9
	L210.8,370.5z M517,322.2c-4.2,11.8-4.2,11.8,1.8,13.7L517,322.2z M324,360.1l-1.1,1.6l24.6,16.7l0.8-1.1L324,360.1z M310.7,354.8
	l0.3-0.7l-4.5-2.3l0.3-0.9l15.9,3.5c-3.2-3.3-14.6-6.2-17.4-4.5c-1,0.6-1.1,2.4-1.8,4.1L310.7,354.8z M297,365.1l-0.9,1.4l20.3,14.1
	l1.2-1.8L297,365.1z M360.7,378.7c0.3-0.5,0.7-1,1-1.5l-23-15.4l-0.9,1.3L360.7,378.7z M307.2,362.7l-0.9,1.2l25.5,17.4l0.8-1.2
	L307.2,362.7z M274.9,376l-1.4,1.9l17.4,11.5l0.9-1.3L274.9,376z M476.4,269.9c1.9-11.3,1.4-13.6-3-17.1l4.6,10.7l-1.2,0.5l-2.6-4.4
	l-0.9,0.4L476.4,269.9z M297,388.4l0.8-1.2L280,374.7l-1,1.4L297,388.4z M323.5,387l-0.9,1.8c3.7,2.5,6.6,6.8,11.9,6l0.8-1.4
	L323.5,387z M323.7,380.5l0.8-1.2l-18.1-12.2l-0.9,1.3L323.7,380.5z M277.6,393.9c0.2-0.5,0.5-0.9,0.7-1.4l-13.2-9.4
	c-0.4,0.5-0.8,1.1-1.1,1.7L277.6,393.9z M292,368.5l-0.8,1l16.8,11.7l0.8-1c-0.7-0.6-1.5-1.2-2.2-1.7
	C301.7,375.1,296.9,371.8,292,368.5z M152.6,297.2l2.1-1l0.9-8.3l-1.6-0.3c-0.6,2.1-1.2,4.2-1.9,6.8c-0.7-2-1.1-3.3-1.6-4.6
	l-1.6,0.8L152.6,297.2z M515.8,311.5l-7.1-11.9C509,309.2,509.8,310.9,515.8,311.5L515.8,311.5z M193.5,360.5l0.8-0.4l-7.9-14.5
	l-1.8,1L193.5,360.5z M471.4,265.3l-1.1,9.4l2.1,0.2C477.2,272,473,268.6,471.4,265.3L471.4,265.3z M362.3,398l1.7-1.9l-10.7-8.1
	l-1,1.1L362.3,398z M384,409.3l1.4-0.9l-6.8-11.4l-1.4,0.9L384,409.3z M359.9,373.3l1.1-1.6l-13.3-7.8l-0.7,1.1L359.9,373.3z
	 M161.8,283.1l-1.6-0.5c-1.3,4.2-2.6,8.4-3.9,12.7l1.8,0.5C159.4,291.6,160.6,287.4,161.8,283.1z M480.8,259.6
	c-1.3-4.9-2.2-10.1-7.4-12.6L480.8,259.6z M461.1,267.7l-2-0.1c-0.2,4.3-0.4,8.7-0.6,13h1.7C460.5,276.3,460.8,272,461.1,267.7
	L461.1,267.7z M337.5,381.5l0.8-1.2l-16-10.8l-0.5,0.7L337.5,381.5z M476.6,240.3l-1.1,0.5l5.6,11.5l1.3-0.7
	C480.5,247.8,478.6,244.1,476.6,240.3z"/>
<path class="st0" d="M271.4,132.9c-2.3-0.9-4-3.9-7.4-2c-0.6,0.4-2.9-2.1-4.4-3.2v0.2c-0.2-0.9-0.4-1.9-0.7-3.3l12.9,2.8l-3.2-4.7
	c4.7-1.1,4.7-1.1,16,16.9c-0.8-2.7-1.1-4.2-1.7-6.2c5.9-0.2,4.5,5.4,6.5,7.6c1-1.8,2.4-4.7,2.8-4.6c3,0.9,7.3-4.3,9.5,1.8
	c0-1.1-0.1-2.2-0.2-4.6l3.8,3.9l2.6-4.3l0,0l3.6,6.9l1.1-0.5c-0.5-1.7-1-3.4-1.6-5.4l13.1-0.6c-0.9-2.3-2-4.9-3-7.6l1.2-0.6l3.2,6.5
	h0.6c-0.1-1-0.2-1.9-0.4-2.9c-0.4-1.1-0.4-2.4,0.1-3.5c1,1.5,1.9,3,3.3,5.2c0.1-2.1,0.1-3.4,0.2-5.8l8.4,3.8l-0.5,1.5l-7.1,0.8
	l11.8,2.3c2-1.9,5.4-1.5,9.5,2.2c1.8-2.4,6.3-1.6,9.6,1.7c0.3-0.7,0.5-1.4,0.8-2.1l3,1.9c-0.5-1.8-0.9-3-1.2-4.2l0.8-0.5l4.9,6
	l0.9-0.4c-1.1-2.5-2.2-4.9-3.3-7.4l0.4-0.5l5.8,7.1l0.9-0.4c-0.6-1.4-1.1-2.9-1.9-4.8c5,1.6,3.2,9.8,10.1,9.3
	c-1.8-4.2-3.4-8.1-5.4-13.1l15.1,15.1c-9-0.5-17.5-1-26.1-1.4c-2.4-0.1-4.8,0.1-7.8,0.2c0.1-0.3-0.1,0.3-0.3,1.4l-3.1-2.5
	c0.3,1.7,0.5,2.9,0.6,4l-0.8,0.5l-3.7-4.9c0.4,2.5,0.6,4.2,0.8,5.9l-0.7,0.5l-5.2-6.3l-0.9,0.6l2.6,6.2l-1,0.7l-5.1-5.3
	c0.5,2.2,1,4.3,1.5,6.5l-1.4,0.5l-4.4-7.2l-1,0.4l2.8,7.4c-3.3,2.8-5.8,2.8-7.7-1.4c-1.3-2.3-2.7-4.5-4.2-6.6l-1.1,0.5
	c1.5,3.3,3,6.5,4.5,9.8l-1.1,1.1l-6.8-5.7l3.3,6c-7.5,1.7-7.1-6-12.3-8.9c2,3.7,3.4,6.2,4.8,8.7l-1,0.9l-8.2-8.7l-0.9,0.4l3.5,7.1
	l-0.4,0.3l-6.6-8l-1,0.8c1,1.4,2,2.9,3,4.2s2.5,2.8,4.1,4.6c-3.8,0.7-3.8,0.7-12.6-7.3l5.6,8.4l-0.9,0.8l-9.7-9.8l-0.9,0.6l6,8.2
	l-0.8,1.1l-7.3-5.6l3.4,5.7l-7,0.4c-0.1-0.3-0.2-0.6-0.2-1l2.2-1.4l-6.2-7.5l-0.8,0.4l2.4,4.9l-0.5,0.7l-6-4.4l-0.5,0.5l5.4,6.5
	c-6.3,2.2-9-2.2-13-6.9c0.3,2.7,0.5,3.8,0.8,6.4l-7.8-8.3l-1,0.5l3.3,6.8c-9.1-0.7-17.2-2.2-22.6-10.7l-0.9,1.2l0.5,1.6
	c0.1,0.4,0.3,0.9,0.4,1.3c-0.4,0.1-0.9,0.3-1,0.2c-8.7-5.4-16.8-12-26.9-14.9c-1.1-0.3-1.9-1.5-2.8-2.3c0.2-0.4,0.4-0.8,0.6-1.2
	l19.3,8.1l-15.6-25.1l1.5-1.1l17.6,24.8l0.7-0.4c-0.4-1.3-0.9-2.5-1.3-3.8l1.1-1c1.4,1.6,3,3.1,4.3,4.8c1.8,2.3,3.1,4.4,6.9,4.1
	c4.5-0.4,9.4-0.1,13,4.2c0.6-1.2,1.3-2.4,1.9-3.7l-4.2-2.3c5.1-3.2,13.4-0.9,16.5,3.7c0.4-1.6,0.8-3.8,1.3-5.9l4.4,3.8l1.3-1.2
	c-2.2-2.7-4.5-5.5-6.8-8.1C273.9,131.2,272.3,132.4,271.4,132.9z"/>
<path class="st0" d="M282.9,164.2c1.8,2.6,3.5,5.3,5.8,8.6c-7.3,1.1-6.3-6.8-11.6-7.9c2,3.1,3.6,5.8,5.3,8.6c-3.5,1.1-8-3.8-10.8-12
	c3.7,0,7.1-0.5,10.3,0.1c13.6,2.9,27.1,2.1,40.5-1.1c4.8-1.2,9.4-3.1,14.2-4.3c1.3-0.4,2.9,0.4,4.4,0.7c0,0.5-0.1,1-0.1,1.5
	c-7.5,2-15.1,4-22.6,6.2c-5.8,1.7-11.5,4.1-17.4,5.6c-1.8,0.4-4-1-6.2-1.6c0.1,0.4,0.3,1.4,0.5,2.2l-11-7.4L282.9,164.2z"/>
<path class="st0" d="M219.9,132.5c-10.9-8.3-17-20.5-25.5-31.3c10-2.2,10.2-2.1,15,5.4c5,7.7,10.1,15.2,15.2,22.9
	c0.7,1.2,1.3,2.5,1.8,3.8L225,134l-21.4-30.8l-1.1,0.8l18.9,27.2L219.9,132.5z"/>
<path class="st0" d="M451.7,235.3c-0.6-1.3-1.2-2.6-2-4.5l6.3-0.9c0.2,7.1,0.3,13.7,0.5,20.4l-1.4,0.4l-8.9-10.8l7.2-2.4
	c-0.5-0.8-1.1-1.6-1.6-2.4L451.7,235.3z"/>
<path class="st0" d="M107.1,225.2c-2.4-3.6-4.7-7.3-7.3-10.7c-1.6-2.1-3.9-3.6-5.8-5.4c-0.1-0.1-0.2-0.2-0.3-0.4
	c-1.6-1.8-1.9-10.8-0.6-13.2l15.2,29L107.1,225.2z"/>
<path class="st0" d="M442.8,273.4c-4.8,1.1-9.7,2.1-14.5,3.3c-3.4,0.8-5-0.6-5.9-4.4c5.6-1.1,11-2.5,16.5-3.2c1.3-0.2,2.9,1.9,4.4,3
	C443.2,272.5,443,273,442.8,273.4z"/>
<path class="st0" d="M413.8,250.6l-0.1-0.3l5.3,0.4l0.3,0.8l-4.4,1.8v0.5c1.3-0.2,2.5-0.3,3.8-0.3c0.9,0.2,1.8,0.4,2.6,0.9
	c-2.2,3.8,3.2,4.5,3.3,7.3c-5.7,3.2-7,2.8-9.7-2.5c-0.8-1.5-2-2.8-2.2-4.4C412.4,253.4,413.3,252,413.8,250.6z"/>
<path class="st0" d="M157.6,177.6l-4.9,1.8l-5-4.2l10-3.1h-0.2c2.4-0.4,4.8-0.7,7.2-0.7c1.7,0.1,3.4,1.1,5.1,1.7l-0.4,1.8
	L157.6,177.6z"/>
<path class="st0" d="M157.6,172c-2.6,0.4-5.2,0.6-7.8,0.7c-1.7-0.2-3.3-0.9-4.6-2c8.4-4.2,18.6-4.9,21.1-1.4l-8.9,2.7H157.6z"/>
<path class="st0" d="M301,108.5c8-0.4,12.9,4.1,15.2,15.5c-1.6-1-3.6-1.8-4.8-3.2c-1.8-2.1-2.8-4.9-4.6-7
	C305,111.9,303.1,110.1,301,108.5z"/>
<path class="st0" d="M197.7,169.5c-4.9,1-9.4,2.2-13.9,2.8c-1.3,0.2-2.9-1.2-4.1-2.4C192.4,164.8,196.1,164.8,197.7,169.5z"/>
<path class="st0" d="M162.7,164.6c-5.3,0.8-10.6,1.6-15.9,2.4c-0.1,0-0.3-0.2-0.4-0.2c-1.7-0.1-4.2,3.5-4.9-0.8
	c-0.1-0.5,3.5-1.8,5.6-2.3c3.7-0.9,7.4-1.7,11.2-2.2c1.4-0.2,3,0.4,4.5,0.7L162.7,164.6z"/>
<path class="st0" d="M221.4,101.8c0.5,2,0.7,3.2,1,4.4l-0.8,0.4l-4-6.1c5.3-0.5,10-1.1,14.7-1.4c3.3-0.2,3.4,0,4.9,6.8l-5.3-4.5
	C231.4,105,226.8,105.4,221.4,101.8z"/>
<path class="st0" d="M220.1,111.8l-7.4-9.9l-0.7,0.4l3.7,7.4l-1.4,1l-6.6-9.6c7.3-2.9,10.6-0.5,14,9.6L220.1,111.8z"/>
<path class="st0" d="M415.6,316.5l8-1.5c-2.1,4.6-2.3,9.3-7.2,10.6c-1.8,0.5-4-0.5-6-0.8l0.2-1.6l5.1-2
	C415.7,319.6,415.7,318.2,415.6,316.5z"/>
<path class="st0" d="M291.3,105.8c0.7,1.5,1.4,3,2.1,4.6l-0.9,0.6l-4.9-5.9c5.9-2.8,15.2,5.1,15,14.2l-10.4-14.1L291.3,105.8z"/>
<path class="st0" d="M379.7,165c-0.7-1.5-1.6-3.3-2.5-5.1c2.9-0.6,6,2.2,8.6,7.6c-6,3.4-9,2.9-11.8-2.6L379.7,165z"/>
<path class="st0" d="M437.2,202.5c-0.5,4-3.2,4.5-6.5,2.3c-2.1,1-3.7,2.4-5,2.2s-2.3-2.1-3.1-3.9c5.1,0.2,9.7-4.8,14.6-0.4
	L437.2,202.5z"/>
<path class="st0" d="M283.5,131.9c-6.1-3.4-7.9-10.4-13.1-15.5C274.4,116.1,282.3,125.4,283.5,131.9z"/>
<path class="st0" d="M242.5,117.3c-3.8-4-11.3,0.3-13.9-7.3c3.9,0.2,7.7-0.2,11.1,0.8c1.8,0.5,2.9,3.3,4.4,5L242.5,117.3z"/>
<path class="st0" d="M453,223.4l-2.6-3.2l4.7-2.4c-0.5,4.2,2.9,8-1.7,10.4c-2.4,1.3-5.5,2.4-6.7-2.8L453,223.4z"/>
<path class="st0" d="M130.1,206c-1.9,0-3.7,0.2-5.5,0.5c-2.1,0.6-4.7-1.6-6.5,1.2c-0.2,0.3-2.7-1-4-1.6c0.1-0.5,0.2-1,0.3-1.5
	c1.4-0.3,2.7-0.5,4.1-0.8c2-0.4,3.9-0.1,6-1.5C127,200.6,129.8,201.7,130.1,206z"/>
<path class="st0" d="M420.6,189l9.1,1.2l1.6-1.9l3.8,3.5C424.1,195.9,424,195.8,420.6,189z"/>
<path class="st0" d="M437.8,282c-8.6,3-8.6,3-11-2.6C433,275.7,435.6,276.3,437.8,282z"/>
<path class="st0" d="M257.9,131c2.4,0.5,4.8,0.9,7.1,1.6c1.4,0.6,2.7,1.3,3.9,2.2l-0.6,1.5c-3.5-0.2-7.1-0.3-10.6-0.8
	c-2.8-0.3-4.8-1.6-3.5-5L257.9,131z"/>
<path class="st0" d="M227.9,343.7c-7.4,0.1-13.2,2.9-19.5,1.9C213,341.5,224.2,340.1,227.9,343.7z"/>
<path class="st0" d="M242.9,112.2c5.1-0.4,5.1-0.4,11.9,10.7c-3.1-0.8-7.5,2.1-7-4.5C248,116.7,245,114.8,242.9,112.2z"/>
<path class="st0" d="M257.9,131l-3.6-0.4l-3.7-0.3l0.1-0.1c-0.1-1.9-0.3-3.7-0.5-5.9c4.1-1.4,7,0.3,9.4,3.6v-0.2L257.9,131z"/>
<path class="st0" d="M89,195.9c-0.4,1.1-0.5,2.5-1.3,3.2c-1.4,1-3,1.9-4.6,2.6l3,2.2l-6.9,2.3c-2.1-4.4-1.6-7.1,3.4-8.1
	c2.2-0.6,4.4-1.3,6.5-2.2L89,195.9z"/>
<path class="st0" d="M209.2,156.8c5.3,1,10.3-3.6,15.5,0.8C213.7,161.9,210.6,161.8,209.2,156.8z"/>
<path class="st0" d="M161.1,268.2l-7.9-2.2c3.9-3.7,12.3,0.9,13.1-7.7c3.7,2.8,3.7,2.9,0.1,5.6C164.3,265.4,162.3,267.2,161.1,268.2
	z"/>
<path class="st0" d="M202.6,338.5l-5.9-3.4c8.1-3.7,11.3-3.4,12.7,1L202.6,338.5L202.6,338.5z"/>
<path class="st0" d="M419.7,271.3c0.4-2.8,0-5.7,1.1-6.6c3.1-2.3,5.7-0.8,8.6,4.4L419.7,271.3z"/>
<path class="st0" d="M441.5,286.2l-4,6.7l-6.5-6l0.5-1.3l9.1-1L441.5,286.2z"/>
<path class="st0" d="M132.5,247.8l9.9-0.7l1.5,3.3C133.8,253.9,133.8,253.9,132.5,247.8z"/>
<path class="st0" d="M110.1,171.3l7.7-1.8l-2.6-3.5c3.7-1.2,4.6-0.4,6.7,6l-11.9,1.3C110,172.6,110,172,110.1,171.3z"/>
<path class="st0" d="M356.3,149.9c-0.6,0.8-1.2,1.7-1.7,2.6c-0.2,0.5-0.3,1-0.3,1.5c-2.1,1-3.3,1.8-4.6,2.1
	c-0.9,0.2-2.5-0.3-2.7-0.9c-0.4-0.9-0.3-3,0.2-3.2c2.8-1.2,5.6-2.3,8.4-3.2C355.9,149.2,356.1,149.6,356.3,149.9z"/>
<path class="st0" d="M170.9,164.9c3-0.7,5.9-1.6,8.9-2c1-0.1,2.1,0.9,3.2,1.4c-0.9,0.8-1.7,1.9-2.8,2.4c-1.6,0.8-3.4,1.3-5.2,1.3
	c-1.6-0.1-3.1-1.2-4.6-1.8L170.9,164.9z"/>
<path class="st0" d="M352.3,167.1c-5,1.6-5.1-2.6-6.4-4.8l-6.3-0.2C347.4,158.1,348.8,158.7,352.3,167.1z"/>
<path class="st0" d="M407,290.5c6.9-2.7,8-2.4,8.8,2.8C409,296.3,408.4,296.1,407,290.5z"/>
<path class="st0" d="M429.3,263.7c6.8-2.1,7.5-1.9,9.1,3.3C431.1,269.8,430.5,269.6,429.3,263.7z"/>
<path class="st0" d="M254.3,357.2c3-1.1,3-1.1,10.2,5.5C260,365.9,259.7,364.7,254.3,357.2z"/>
<path class="st0" d="M188.4,102.8c-2.8,0.4-5.5,0.6-8.3,0.7c-2.5,0-4.9-0.7-8.7-1.2C180.7,98.2,185.4,98.8,188.4,102.8z"/>
<path class="st0" d="M452.5,251.6l-14.5,1.2C442,247.8,450.6,247.5,452.5,251.6z"/>
<path class="st0" d="M373.9,171.7c-4.7-1.4-6.3-5.4-8.5-10.2c2,0,4.4-0.1,4.4-0.1c0.3,3.8,6.8,5.3,3.8,10.2L373.9,171.7z"/>
<path class="st0" d="M180.7,161.4c-2.1,0.1-4.3,0-6.4-0.2c-0.3,0-0.2-2.3-0.4-3.7l-3.2-0.8c0.8-0.8,1.1-1.4,1.5-1.6
	c6.3-3.5,5.3,4,8.9,4.7C181,160.2,180.8,160.8,180.7,161.4z"/>
<path class="st0" d="M258.3,156.8l14.6,3.5c-2.4,1-3.6,1.9-4.5,1.7C264.9,161.4,259.5,165.1,258.3,156.8z"/>
<path class="st0" d="M291.5,117.1c-5.5-2.1-5.3-8.3-8.9-11.8l2.1-1.5l8.2,12.2L291.5,117.1z"/>
<path class="st0" d="M84,158.2c3.7,1.6,6.2,2.4,8.4,3.7c0.5,0.3-0.1,2.5-0.2,3.8c-2.4-0.5-4.8-1.2-7.2-2.1
	C84.2,163.2,84.4,161.1,84,158.2z"/>
<path class="st0" d="M239.1,342.7c3.7,2.6,8.5-4.9,12.2,2c-3.5,0.9-7.1,1.7-10.7,2.2c-0.7,0.1-1.7-1.9-2.6-3
	C238.4,343.5,238.7,343.1,239.1,342.7z"/>
<path class="st0" d="M292.1,134.3c-6.7,0.1-5.5-7-8.9-10C288.6,125.3,289.5,130.7,292.1,134.3z"/>
<path class="st0" d="M308,133.2c-4.3-1.1-9.3-8.2-10-14.7C303.2,122.8,304.9,128.5,308,133.2L308,133.2z"/>
<path class="st0" d="M134.4,241.1c-6.1,1.9-6.1,1.9-8.7-2.2C129.5,234.6,132.1,235.2,134.4,241.1z"/>
<path class="st0" d="M437.1,275.9l8.9,1.5c-0.5,1.3-0.7,3.4-1.6,3.8C440.8,282.8,438.7,280.9,437.1,275.9z"/>
<path class="st0" d="M440.5,216.4l13.4-2.1C453.4,218.1,444.8,220.1,440.5,216.4z"/>
<path class="st0" d="M115.9,195.9c-4.2,0.1-8.4,3.8-12.1-2.1C108.3,193.9,112.4,188.4,115.9,195.9z"/>
<path class="st0" d="M248.8,165c-5.9,1.4-7-3.4-9.9-7.5C245.4,156.9,245.7,162.8,248.8,165z"/>
<path class="st0" d="M265.3,113.3c-7.1,0-4.1-7.8-8.9-9.1C260.4,103.2,264.3,107.5,265.3,113.3z"/>
<path class="st0" d="M386.3,331.1c-4.4,0.7-7,1.2-9.5,1.3c-0.9,0-1.8-1-2.7-1.5c0.7-0.8,1.2-1.9,2-2.2c1.7-0.7,3.6-1.4,5.2-1.2
	C382.9,327.8,384.1,329.4,386.3,331.1z"/>
<path class="st0" d="M398,146.9c6.5-0.2,11.1,4.5,10.2,9.3L398,146.9z"/>
<path class="st0" d="M230.4,349.4c-3.9-1.3-8.1,4.5-11.1-1.5C225.5,344.6,228.7,344.8,230.4,349.4z"/>
<path class="st1" d="M271.4,132.9c0.9-0.6,2.5-1.7,2.6-1.6c2.4,2.6,4.6,5.4,6.8,8.1l-1.3,1.2l-4.4-3.8L271.4,132.9z"/>
<path class="st0" d="M420.6,285.3c-4.5,2.6-5.2,2.2-7.6-3.3C417.3,278.9,418.5,279.4,420.6,285.3z"/>
<path class="st0" d="M213.1,337.7c3.5-0.7,6-1.4,8.6-1.6c0.8-0.1,1.6,1.2,2.4,1.8c-0.6,0.6-1.2,1.7-1.9,1.8
	C219.4,340,216.1,342.8,213.1,337.7z"/>
<path class="st0" d="M451.7,235.1c-4.9,3.5-6.8,3-9.1-2.2c4-2.8,7-1.7,9.1,2.5L451.7,235.1z"/>
<path class="st0" d="M89,218.7c-2.4-1.6-4.9-3.1-7.1-4.9c-0.5-0.4-0.6-2.5-0.2-2.8c0.9-0.6,3-1.1,3.3-0.7c1.8,2.5,3.3,5.2,4.9,7.9
	L89,218.7z"/>
<path class="st0" d="M269.9,360.6c-3.7,2.3-5.2,1.4-8.5-4.6C264.1,355,264.1,355,269.9,360.6z"/>
<path class="st0" d="M440.8,239.3c4.1-0.1,6.5,2.2,8.3,6.4l-5.8,1.5l2.5-2.7c-5.3-0.4-6.2-1.5-4.7-5.2L440.8,239.3z"/>
<path class="st0" d="M341.1,336c7.5-3.2,8.1-3.2,9.9,0.7C345.4,339.1,343,339,341.1,336z"/>
<path class="st0" d="M440.2,440.1c-1.3,0.4-2.1,0.6-2.1,0.6c-1.1-2.7-2-5.4-2.8-8.2c-0.2-0.7,0.9-1.8,1.5-2.6c0.1-0.1,0.9-0.1,0.9,0
	C438.5,433.3,439.3,436.7,440.2,440.1z"/>
<path class="st0" d="M452.6,268.5c-1.8,1.5-3.5,3.6-5.5,4.2c-1.1,0.3-2.9-1.9-4.5-3c0.2-0.5,0.4-1,0.6-1.6l8.4-0.6L452.6,268.5z"/>
<path class="st0" d="M395.4,312.8c4-2.2,6.8-1.5,8.2,3.1C397.3,318.6,396.6,318.4,395.4,312.8z"/>
<path class="st0" d="M435.4,222.1l13.3-2.1c0.1,0.7,0.3,1.5,0.4,2.2l-13.2,2.4C435.7,223.8,435.5,223,435.4,222.1z"/>
<path class="st0" d="M418.3,307.1l7.3,2.3c-0.8,1.2-1.4,3.1-2.6,3.5C419.5,314,418.4,311.9,418.3,307.1z"/>
<path class="st0" d="M428.2,235.6c4.7-2.5,5.1-2.3,7.3,3.3C430.2,241.2,429.9,241.1,428.2,235.6z"/>
<path class="st0" d="M254,165.1c-4.9-1-6.2-5.1-9-7.9C248.4,155.8,251.9,158.9,254,165.1z"/>
<path class="st0" d="M446.5,265.5c-4.5,2.2-7,0.9-8.5-3.6C441.9,260.8,445.2,260.1,446.5,265.5z"/>
<path class="st0" d="M213.4,145c-5.3-0.4-5-7.3-9.9-8.2c0.6-0.7,1.2-1.4,1.8-2.1l9.5,8.7L213.4,145z"/>
<path class="st0" d="M441,239.3c-3.1-0.4-5.7-1.4-6.3-6.8c2.7,1,5.1,1.4,6.8,2.6c2.1,1.4,1.1,3-0.8,4.1L441,239.3z"/>
<path class="st0" d="M202.5,338.5c2.1-0.2,4.3-0.2,6.4,0c1.5,0.1,2.9,0.9,5.4,1.8C206,344,204.5,343.6,202.5,338.5
	C202.6,338.5,202.5,338.5,202.5,338.5z"/>
<path class="st0" d="M404.4,310l8.2,3.2C406.3,317.2,405.4,316.9,404.4,310z"/>
<path class="st0" d="M407,295.3c-4.6,2.4-5,2.2-7.1-3.1C404.4,289.9,405,290.1,407,295.3z"/>
<path class="st0" d="M416.8,286.9l9.5,3.2C419.7,294.4,418.3,293.9,416.8,286.9z"/>
<path class="st0" d="M182.5,105.8c5.7-1.1,5,5.4,8.5,6.9C184.7,114.5,185.6,107.8,182.5,105.8z"/>
<path class="st0" d="M335.2,124c-7.1,2.1-8.7-1.4-10.1-7l5.6,2.4l-1.1,2.5L335.2,124z"/>
<path class="st0" d="M407.9,170.7l9,1.2c-3.3,1.8-5.4,2.9-7.4,3.9h0.2l-4.2-2.1l2.5-3L407.9,170.7z"/>
<path class="st0" d="M444.6,428.3c1.7,0.1,2.8,0,2.8,0.2c0.7,3.1,1.3,6.3,1.9,9.5c-0.6,0.3-1.3,0.6-2,0.7
	C446.5,435.4,445.6,432.1,444.6,428.3z"/>
<path class="st0" d="M485.2,431.6c-0.6-3-1.3-5.9-1.8-8.9c-0.1-0.5,0.8-1.3,1.4-1.6c0.3-0.1,1.4,0.5,1.5,0.9
	c0.5,3.2,0.8,6.3,1.2,9.5L485.2,431.6z"/>
<path class="st0" d="M413.2,308.4c-3.4,0.1-6-0.9-6.3-6.3l7.6,3.3v-0.2c-0.5,1.1-1,2.1-1.5,3.2L413.2,308.4z"/>
<path class="st0" d="M414.5,305.4c-0.5-3,1.5-3.5,3.6-3.2c1.7,0.2,3.3,1.2,5,1.9l-0.6,2.5l-7.9-1.4L414.5,305.4z"/>
<path class="st0" d="M399.6,309.9c-3.8,1.2-7,2.5-7.4-3.2C395.5,305.5,398.5,304.4,399.6,309.9z"/>
<path class="st0" d="M432,301.2c-1.6,1.3-3,3.1-4.8,3.7c-1,0.3-2.6-1.4-4-2.2c0.1-0.5,0.2-1,0.3-1.6l7.4-2L432,301.2z"/>
<path class="st0" d="M434.3,261.6l-8.3-1.4c0.4-0.9,0.5-2.4,1.2-2.6C429.8,256.6,432.8,255.6,434.3,261.6z"/>
<path class="st0" d="M113.6,232c4.2,2.2,5.7,5.2,3.6,9.8C111.7,240.1,115.1,235.1,113.6,232z"/>
<path class="st0" d="M181.6,281.9c0.5,1.7,0.9,3.5,1.2,5.3c0,1-0.2,2-0.6,2.9c-0.8-0.4-2-0.6-2.4-1.2c-1-2-2.6-4.2-2.4-6.2
	c0.3-3.5,2.5-1.8,4.1-0.6L181.6,281.9z"/>
<path class="st0" d="M438,226.8c4-1.4,7-1.9,8.6,2.8C443.1,230.2,439.7,232.4,438,226.8z"/>
<path class="st0" d="M428.1,431.9l2.6,9.6l-2,0.6c-3.3-2.4-2.2-6.3-3.2-9.5L428.1,431.9z"/>
<path class="st0" d="M268,171.9c4.7-2.4,7.7-2.2,9.2,4l-5.1-2.2l0.5,2.3l-0.8,0.6L268,171.9z"/>
<path class="st0" d="M143.3,258.3c-5,1.5-5,1.5-7-2.6C140.8,252.8,142.1,253.3,143.3,258.3z"/>
<path class="st0" d="M151.6,249.3c-4.9,2.3-5.6,1.9-6.8-3.2C149.6,244.3,150.1,244.6,151.6,249.3z"/>
<path class="st0" d="M321.4,131c-4.6,0.4-4.9,0.2-6.7-5.3C319.5,124.8,320.1,125.3,321.4,131z"/>
<path class="st0" d="M141.1,122.6c-0.9-2.2-1.5-4-2.2-5.6c-0.6-1.5-1.5-2.8-2.1-4.3c-0.1-0.2,0.9-0.7,1.4-1.1
	c1.1,1.4,2.5,2.6,3.1,4.1c0.6,2.2,0.9,4.4,0.9,6.7C142.1,122.4,140.7,122.7,141.1,122.6z"/>
<path class="st0" d="M397,419.1l7.3,8.9l-1.4,1.2l-8.3-10.1l2.6,0.1L397,419.1z"/>
<path class="st0" d="M448.5,379c0.4,3.1,0.7,5.8,1,8.5c-1-0.1-2.9,0-3-0.3c-0.5-2.6-0.6-5.3-0.9-8L448.5,379z"/>
<path class="st0" d="M134.1,209.2c-5.9,3.1-8.6,3-10.5-0.3C127,209.6,130.1,205.4,134.1,209.2z"/>
<path class="st0" d="M419.7,295.5c3.7-0.6,6.9-3.1,9.7,1.7C425.9,297.9,422.6,300.8,419.7,295.5z"/>
<path class="st0" d="M189.3,149.2c-2.9-0.7-6.5,3.5-9-1.2C183.4,148.6,186.8,143.6,189.3,149.2z"/>
<path class="st0" d="M409.9,296.8l9-0.3C414.7,301.4,413.1,301.4,409.9,296.8z"/>
<path class="st0" d="M421.2,278.5l6.6,4.2c-0.3,0.7-0.6,1.4-0.9,2.1c-1.4-0.1-3.7,0.3-4.1-0.3c-1-1.7-1.1-3.9-1.5-5.9L421.2,278.5z"
	/>
<path class="st0" d="M191,130.1l8.6,6.1c-5,1.4-5,1.4-9.4-5.1L191,130.1z"/>
<path class="st0" d="M196.9,109.9l-7.3-8.9l1.5-1.2C194.3,102.1,195.8,105.9,196.9,109.9z"/>
<path class="st0" d="M121.4,196.2c-1.9-0.7-3.7-1.6-5.5-2.6c-0.3-0.2,0.4-2.1,0.6-3.2l6.2,2.8L121.4,196.2z"/>
<path class="st0" d="M360.2,332.1c-0.6,2-0.7,3.8-1.1,3.9c-2,0.2-4,0.3-6,0.2c0.1-1-0.1-2.8,0.3-2.9
	C355.6,332.8,357.9,332.4,360.2,332.1z"/>
<path class="st0" d="M446.8,259.4c1.9,0.7,3.8,1.5,5.6,2.5c0.3,0.1-0.5,2.1-0.8,3.1l-5.9-2.7L446.8,259.4z"/>
<path class="st0" d="M397.8,161.3c4.3-2.7,6.1-0.6,7.6,2.8C401.9,166,399.4,165.5,397.8,161.3z"/>
<path class="st0" d="M300.6,133.4l-5.6-7.7c5.8-0.5,5.8,3.6,7.1,6.6L300.6,133.4z"/>
<path class="st0" d="M426.8,242.9c6.8-3,3.1,5.7,7.3,5.4C429.8,249.6,428.8,248.9,426.8,242.9z"/>
<path class="st0" d="M437.2,202.6c0.6-1,1.4-2.8,1.9-2.8c2.3,0.5,4.7,1.1,6.9,1.9c-3.6,3.4-6.3,3.6-8.8,0.7
	C437.2,202.5,437.2,202.6,437.2,202.6z"/>
<path class="st0" d="M139.7,176.4c3.2-0.7,6.3-3.2,8.3,1.6C144.9,179.3,141.7,182.4,139.7,176.4z"/>
<path class="st0" d="M262.4,120.4l-6.1-6.2c5.5-0.9,5.6-0.8,7.3,4.9L262.4,120.4z"/>
<path class="st0" d="M181.6,282.1l2-2.5c0.6,0.8,1.4,1.5,1.9,2.4c0.7,1,1.3,2.1,1.8,3.2c0.4,1.1,0.6,2.3,0.8,3.5l-1.3,0.7
	c-1.7-2.5-3.5-5.1-5.2-7.6L181.6,282.1z"/>
<path class="st0" d="M439.5,246.8l-8.5-3.4C437,239.7,438.1,240.2,439.5,246.8z"/>
<path class="st0" d="M496.6,420.4c-0.4-2-0.7-4-0.9-6c0-0.8,1.2-1.6,1.8-2.4c0.9,0.8,2.6,1.6,2.5,2.2c-0.4,2.2-1.1,4.4-1.9,6.5
	L496.6,420.4z"/>
<path class="st0" d="M412.9,308.4l5.4,3.4c-0.3,0.8-0.7,1.5-1,2.3c-1.6-0.5-3.6-0.6-4.9-1.5c-2.1-1.5-0.9-3,0.8-4.1
	C413.1,308.4,413,308.4,412.9,308.4z"/>
<path class="st0" d="M396.2,303.7c-5.2,1.8-5.5,1.7-6.3-2.5C395,299.1,395.1,299.2,396.2,303.7z"/>
<path class="st0" d="M89.3,195.9l-9.6,0.6c4.5-0.9,8.1-5.4,13.1-4.3l0.4,1.4l-4.1,2.2L89.3,195.9z"/>
<path class="st0" d="M437.2,232.3l-6.3-2.4c3.6-3.6,5.9-3.3,7.1,0.4C437.8,231,437.5,231.6,437.2,232.3z"/>
<path class="st0" d="M408.2,370c1.7,0.5,3.2,0.5,3.3,0.9c0.5,2.3,0.8,4.6,1.1,6.9c-1-0.1-2.9,0-3-0.3
	C409,375.1,408.5,372.6,408.2,370z"/>
<path class="st0" d="M406.4,308.3c-3.4,1.9-5.7,1.5-6.5-4.5l7.2,2.6L406.4,308.3z"/>
<path class="st0" d="M160.2,118.7l-10.5,1c2-3.9,6.2-4.5,10.4-2.4L160.2,118.7z"/>
<path class="st0" d="M394.4,317.8c-4.5,1.8-4.6,1.8-5.6-3.6C393.1,312.9,393.2,312.9,394.4,317.8z"/>
<path class="st0" d="M148.9,153.7c6.9-0.7,6.9-0.7,7.5,1.4C150.8,157.9,150.3,157.8,148.9,153.7z"/>
<path class="st0" d="M250.7,130.2l-0.1,0.1l-7.3-5.4l1.3-1.6C248.9,123.3,249.6,126.9,250.7,130.2z"/>
<path class="st0" d="M409.4,327.1l-7.6-0.8c0.3-0.9,0.5-2.4,1.1-2.6C405.2,323,408,321.4,409.4,327.1z"/>
<path class="st0" d="M406.1,322.1l-7.4-0.4l0.1-1.8c2.6-1.1,5.3-3.3,7.6,0L406.1,322.1z"/>
<path class="st0" d="M237.9,121.2l6.1,4.5l-1.5,2.1l-6.2-4.2L237.9,121.2z"/>
<path class="st0" d="M426.1,195.9l6.8,0.8c-0.2,0.8-0.4,2.3-0.7,2.3c-2.1,0.1-4.1,0.2-6.2,0.1C426,198,426,196.9,426.1,195.9z"/>
<path class="st0" d="M421.4,278.5l-5.4-3.8l1-2c1.5,0.5,3.5,0.6,4.3,1.6c0.7,0.8-0.1,2.8-0.2,4.2L421.4,278.5z"/>
<path class="st0" d="M423.1,252.3l7.4,0.7c0,0.6-0.1,1.1-0.2,1.6c-2.6,2-5.1,2.3-7.4-0.2L423.1,252.3z"/>
<path class="st0" d="M436.8,215.4c-3.2,0.4-6.1,2.8-7.8-2C431.9,212.6,434.6,210.5,436.8,215.4z"/>
<path class="st0" d="M383.1,321.1l4.1,3l-1,1.6c-1.8-2.3-6.3,3.6-7.2-2.4l4.2-2.2L383.1,321.1z"/>
<path class="st0" d="M422.9,228.6c3,0.1,6.9-1.7,7.8,3.6c-4.6,3-5.7-1.1-7.7-3.7L422.9,228.6z"/>
<path class="st0" d="M109,148.7c1.3,3.4-1.1,7.6-6.3,9.6C104.8,155.2,106.8,152.1,109,148.7z"/>
<path class="st0" d="M118.9,222.9c-3.2,0.3-7.2,3.8-7.8-2.8l2.2,1.8l2.4-2.6L118.9,222.9z"/>
<path class="st0" d="M253.5,351.7l-6.3-2.1c3.4-3.3,5.9-3.7,7.1,0.3L253.5,351.7z"/>
<path class="st0" d="M448.1,258.5l-6.6-1.5c3-3.1,5.6-4.2,7.2-0.6L448.1,258.5z"/>
<path class="st0" d="M498.6,403.5c-0.3-0.5-0.8-1-0.8-1.6c-0.1-1.9-0.1-3.7-0.1-5.6c0.8,0.3,2.3,0.4,2.3,0.8
	c0.2,2.1,0.3,4.2,0.2,6.3L498.6,403.5z"/>
<path class="st0" d="M385.2,163.8c4.1-2.9,5.4-0.4,6.7,2.6C388,168.9,386.6,166.7,385.2,163.8z"/>
<path class="st0" d="M294.6,177.4l-8-0.1l0.1-1.8c2.8-0.4,5.7-3.5,8.2-0.2L294.6,177.4z"/>
<path class="st0" d="M441.9,259.5l-6.9-0.8c0.1-0.9,0-2.2,0.5-2.5C437.9,255,440.1,254.9,441.9,259.5z"/>
<path class="st0" d="M408.1,170.7c-0.6,0-1.3-0.1-1.9-0.2c-1.2-0.5-2.4-1.1-3.5-1.7c0.5-0.7,1-2.1,1.5-2.1c1.5,0.1,3.1,0.4,4.5,0.9
	c-0.3,1-0.5,2.1-0.8,3.1L408.1,170.7z"/>
<path class="st0" d="M153.8,257.5l-6.2-3.9c5.7-2.3,5.7-2.3,7.2,2.3L153.8,257.5z"/>
<path class="st0" d="M271.4,119.3c-5,1.9-6-1-7-4l1.2-1.4L271.4,119.3z"/>
<path class="st1" d="M337.4,253c-0.3-1.6-0.9-4.2-1.4-6.7l9.7-3l-2.9,11.7L337.4,253z"/>
<path class="st1" d="M357.4,281.6c0.4,1.5,0.8,3,1.1,4.5l1.1-0.1c-0.4-2.7-0.7-5.5-1.1-8.2l1.1-0.2c0.7,3.7,1.5,7.4,2.3,11.6
	c-5.7-0.9-6.2,2.5-6.2,6.9C351.2,290.6,356.5,286.3,357.4,281.6z"/>
<path class="st1" d="M352.5,240.3c-3.6-5.1,1.8-6.8,4-10.2c0.5,2.7,1.5,5.5,1.2,8.1C357.5,239.1,354.2,239.6,352.5,240.3z"/>
<path class="st1" d="M390.6,210.8l-3.8,1.4c-0.6-4.7-1.1-9.4-1.7-14l1.8-0.4L390.6,210.8z"/>
<path class="st1" d="M217.4,278.2c4.9-4.6,10.3-0.9,15.5-0.7C228,281.1,222.5,277,217.4,278.2z"/>
<path class="st1" d="M200.6,263l-4.9,3l0.4,1.2l9.3-2.5c-4.6,4.6-8.6,4.9-15.3,1.4l10-3.7L200.6,263z"/>
<path class="st1" d="M372.2,279.9c0-4.7,0.1-9.5,0.2-14.2l2.1-0.1l1.6,8.4C371.6,274.5,375.2,278.4,372.2,279.9z"/>
<path class="st1" d="M239,283l6.7-2.2l-0.5,2.6c1.7-0.2,3.2-0.4,4.7-0.5s2.8,0.1,4.2,0.1c0,0.4,0,0.9,0,1.3l-15,0.8L239,283z"/>
<path class="st1" d="M194.8,236.4l-2.6,0.4c0.5,1.3,0.9,2.6,1.4,3.8l-0.6,0.5l-5.3-5.5C190.8,231,191.7,231.1,194.8,236.4z"/>
<path class="st1" d="M366,216.8l6.2,18.3l-1.3,0.5l-6.4-18.2L366,216.8z"/>
<path class="st1" d="M394.7,203.2c-1.2-2.5-2.5-5-3.9-8l8-0.7l-1.1,4.3l-3.1-2.1l1.3,6L394.7,203.2z"/>
<path class="st1" d="M373.1,217.8c0.7,2.4,1.5,4.7,2.2,7.1l-0.9,1.1c-1.4-0.6-3.8-1-3.9-1.8c-0.3-2.1,0.4-4.3,0.7-6.5H373.1z"/>
<path class="st1" d="M205,324.6l21.3-5.2c0.1,0.6,0.2,1.3,0.4,1.9l-21.7,3.1V324.6z"/>
<path class="st1" d="M184.1,240.8l8,11.3l-1.4,1l-7.6-11.6L184.1,240.8z"/>
<path class="st1" d="M279.6,203.5l-12.5-8.4l1-1.4l12.6,8.5L279.6,203.5z"/>
<path class="st1" d="M384.6,207.7c-0.1,3.2-0.2,6.4-0.3,9.7h-2.4c0-3.3,0-6.6,0.1-9.8L384.6,207.7z"/>
<path class="st1" d="M279.5,215.9l-8.1-7.7l1.1-1c3.5,1.9,7.9,3,6.9,8.7L279.5,215.9z"/>
<path class="st1" d="M279.3,215.9l3.3,6.3l-1.1,1l-5.8-3.7l3-0.5l-2.1-3.1l2.8,0.1L279.3,215.9z"/>
<path class="st1" d="M192.1,246.2l-7.3-9.8l0.6-0.5l7.8,9.5L192.1,246.2z"/>
<path class="st1" d="M194.1,312.7l16.7-3.9l0.3,1.9l-17,1.8L194.1,312.7z"/>
<path class="st1" d="M302.5,337.2l-6.9-8.3l0.7-0.6l6.8,8.2L302.5,337.2z"/>
<path class="st1" d="M389.9,196.2l3.8,12.5l-1.3,0.4c-1.3-4.1-2.7-8.3-4-12.4L389.9,196.2z"/>
<path class="st1" d="M281.6,373.2c11.5-1.9,16.8,7,24.5,11.3l-0.5,1.1l-9.4-5.3l-0.6,0.9l9.1,6.2l-0.8,1.2L281.6,373.2z"/>
<path class="st1" d="M285.3,389.9l-3.7-1.1c0.6,1.2,1,2,1.5,2.9c-0.5,0-1.1,0.1-1.4-0.1c-3.4-2.3-6.8-4.7-10.3-6.9
	c-2.5-1.6-4.2-3.3-2.2-7.2l16.5,11.6L285.3,389.9z"/>
<path class="st1" d="M168.4,316.2c2.8,2,6.9,2.7,7.2,7.4c0.1,0.8,1.9,1.3,2.6,2.2c1.9,2.4,3.5,5.1,4.7,8c-4.3-2.1-9.4-3.1-9.5-9.4
	c0-0.7-1.3-1.4-2-2.2c-1.4-1.6-2.7-3.3-4.1-4.9L168.4,316.2z"/>
<path class="st1" d="M351.9,395.7c-8.5,1.6-12.9-3.5-17.5-8.7c5.1-3.1,7,1.4,10,4.5c0.1-1.2,0.2-1.9,0.4-3.2L351.9,395.7z"/>
<path class="st1" d="M226.3,380l21.7,11.1l-1,1.9C239.1,390.8,231.6,387.9,226.3,380z"/>
<path class="st1" d="M318,360.6l23.4,16.3l-0.9,1.3l-23.8-15.7L318,360.6z"/>
<path class="st1" d="M210.8,370.6l-1.6,1.9l-5.4-8.9l0.6-0.5l20,17.7c-0.4,0.5-0.9,1-1.4,1.5L210.8,370.6z"/>
<path class="st1" d="M517,322.2l1.8,13.7C512.8,334,512.8,334,517,322.2z"/>
<path class="st1" d="M324,360.1l24.3,17.1l-0.8,1.1l-24.6-16.7L324,360.1z"/>
<path class="st1" d="M310.7,354.8l-7.2-0.9c0.7-1.7,0.9-3.5,1.8-4.1c2.8-1.7,14.2,1.2,17.4,4.5l-15.9-3.5l-0.3,0.9l4.5,2.3
	L310.7,354.8z"/>
<path class="st1" d="M297,365.1l20.6,13.6l-1.2,1.8l-20.3-14.1L297,365.1z"/>
<path class="st1" d="M360.7,378.7L337.9,363l0.9-1.3l23,15.4C361.4,377.7,361,378.2,360.7,378.7z"/>
<path class="st1" d="M307.2,362.7l25.4,17.4l-0.8,1.2l-25.5-17.4L307.2,362.7z"/>
<path class="st1" d="M170,283.2c-5.7,2-3.6,8.5-7.8,11.7l5.7-19.9l1.1,0.1l0.9,8.3L170,283.2z"/>
<path class="st1" d="M274.9,376l16.9,12.1l-0.9,1.3l-17.4-11.5L274.9,376z"/>
<path class="st1" d="M476.4,269.9l-2.9-9.9l0.9-0.4l2.6,4.4l1.2-0.5l-4.6-10.7C477.9,256.3,478.3,258.6,476.4,269.9z"/>
<path class="st1" d="M297,388.4l-18-12.2l1-1.4l17.9,12.4L297,388.4z"/>
<path class="st1" d="M323.5,387l11.7,6.4l-0.8,1.4c-5.3,0.8-8.2-3.5-11.9-6L323.5,387z"/>
<path class="st1" d="M323.7,380.5l-18.1-12.1l0.9-1.3l18.1,12.2L323.7,380.5z"/>
<path class="st1" d="M277.6,393.9l-13.6-9.1c0.4-0.5,0.7-1.1,1.1-1.7l13.2,9.4C278.1,393,277.8,393.5,277.6,393.9z"/>
<path class="st1" d="M292,368.5c4.9,3.3,9.8,6.6,14.6,9.9c0.8,0.5,1.5,1.1,2.2,1.7l-0.8,1l-16.9-11.6L292,368.5z"/>
<path class="st1" d="M152.6,297.2l-3.6-6.6l1.6-0.8c0.5,1.3,0.9,2.6,1.6,4.6c0.7-2.6,1.3-4.7,1.9-6.8l1.6,0.3l-0.9,8.3L152.6,297.2z
	"/>
<path class="st1" d="M515.8,311.5c-6-0.6-6.8-2.3-7.1-11.9L515.8,311.5z"/>
<path class="st1" d="M193.5,360.5l-8.8-14l1.8-1l7.9,14.5L193.5,360.5z"/>
<path class="st1" d="M471.4,265.3c1.5,3.3,5.7,6.7,1,9.6l-2.1-0.2L471.4,265.3z"/>
<path class="st1" d="M362.3,398l-9.9-8.9l1-1.1l10.6,8.1L362.3,398z"/>
<path class="st1" d="M384,409.3l-6.9-11.3l1.4-0.9l6.8,11.3L384,409.3z"/>
<path class="st1" d="M359.9,373.2l-12.8-8.3l0.7-1.1l13.2,7.8L359.9,373.2z"/>
<path class="st1" d="M161.8,283.1c-1.2,4.2-2.4,8.5-3.6,12.7l-1.8-0.5c1.3-4.2,2.6-8.4,3.9-12.7L161.8,283.1z"/>
<path class="st1" d="M480.8,259.6l-7.4-12.6C478.5,249.5,479.5,254.6,480.8,259.6z"/>
<path class="st1" d="M461.1,267.7c-0.3,4.3-0.6,8.6-1,12.9h-1.7c0.2-4.3,0.4-8.7,0.6-13L461.1,267.7z"/>
<path class="st1" d="M337.5,381.5l-15.7-11.2l0.5-0.7l16,10.8L337.5,381.5z"/>
<path class="st1" d="M476.6,240.3c2,3.8,3.9,7.5,5.9,11.3l-1.3,0.7l-5.6-11.5L476.6,240.3z"/>
</svg>
