<?xml version="1.0" encoding="utf-8"?>
<!-- Generator: Adobe Illustrator 22.0.1, SVG Export Plug-In . SVG Version: 6.00 Build 0)  -->
<svg version="1.1" id="Layer_1" xmlns="http://www.w3.org/2000/svg" xmlns:xlink="http://www.w3.org/1999/xlink" x="0px" y="0px"
	 viewBox="0 0 1920 1080" style="enable-background:new 0 0 1920 1080;" xml:space="preserve">
<style type="text/css">
	.st0{fill:#232323;}
	.st1{fill:#FFFFFF;}
</style>
<title>Artboard 1</title>
<path class="st0" d="M1601,552c-37.8-0.8-75.6-1.5-113.4-2.6c-43.4-1.2-86.6-0.1-129.4,7.7c-2.4,0.6-4.7,1.6-6.7,2.9
	c-2.6,1.6-5,3.3-7.2,5.3c-5.8,5-11.4,6.7-19.9,5.2c-11.6-2.1-23.8-0.3-35.7-0.1c-3,0-6,0.5-9.7,0.8c0,4.5,0.1,9,0,13.6
	c-0.2,8.5-0.8,8.7-9.1,8.4c-43.3-1.2-86.6-3-129.9-3.2c-109.6-0.5-219.3-0.1-328.9-0.3c-22.5,0-45-1-67.5-1.6c-4.2-0.1-8.3,0-13.3,0
	c-0.7,4.7-2.1,9.5-2,14.4c0.2,14.3,1.2,28.6,1.2,42.9c0.1,9.1-0.5,18.2-1.8,27.3c-1,7.2-4,9.6-8.3,9.2c-6.5-0.6-10.6-4.6-10.5-11.6
	c0.1-15.3,0.9-30.6,0.8-45.9c0-10.8-1-21.6-1.5-32.2c-7.5-2.2-13.7-0.6-19.5,3.3c-2.9,2-5.7,4.1-8.7,5.8c-5.2,2.8-9.9,1.3-12.1-4.3
	c-1.4-3.5-2.3-7.3-2.7-11.1c-0.3-4.2-2.4-6.5-5.9-7.9s-6.9-2.4-10.4-3.5c-6.1-2-10.9-5.2-10.9-12.6c-1.4-0.1-2.5-0.3-3.7-0.3
	c-60,0-120,0-180-0.1c-8.2,0-8,0.1-11.4,7.5c-1,2.2-3.6,5.2-5.5,5.2s-5.3-2.5-6.1-4.7c-2.1-5.9-6.7-7.2-11.8-7c-1.5,0-3.4,3-4.4,5
	c-1.6,3.1-2.4,6.6-6.7,7.1c-4.1,0.5-7-0.7-8.7-4.8c-3.1-7.2-3.4-7.5-10.7-4.7c-9,3.4-18,7-26.4,11.6c-11,6-17.3,15.8-19.6,28.1
	c-0.5,2.5-1.1,3.6-3.9,4s-5.2,2-7.8,3.1c-3.8,1.5-6.4,0.9-7.2-3.7c-1-5.5-2.1-11-3.2-16.5V498c1-6.2,2.2-12.4,3.1-18.6
	c0.6-4.3,3.2-5.2,7-4.8c4.9,0.5,9,2.3,11.8,6.5c1.9,2.8,4,5.5,5,8.6c5.5,15.8,17.6,23,33,26.4c2.3,0.5,4.6,1,6.8,1.5
	c7,1.6,7.6,1.3,10.9-5c2.7-5.1,9.4-5.4,12.9-0.2c1.5,2.2,1.9,5.2,3.6,7c2,2.1,5,4.4,7.5,4.3c2.2,0,4.3-3.2,6.4-5.1
	c0.3-0.4,0.5-0.9,0.6-1.3c2.9-7.7,7.5-8.5,12.5-1.7c3.8,5.2,8.3,6.7,14.5,6.7c57.5-0.2,115,0,172.5-0.2c3.1,0,6.4-1.2,9.3-2.5
	c3.4-1.3,6.7-3,9.7-5.2c5.6-4.3,10.9-9,16-13.9c3.1-3,5.4-6.8,8.5-9.8c4.4-4.3,10-3.8,12.2,1.8c2.7,6.8,7.2,7.5,13.3,6.4
	c2.9-0.5,5.9-0.1,9.4-0.1c0.1-1.3,0.3-2.9,0.3-4.4c-0.2-21.3-0.6-42.6-0.8-64c0-6.3,0.4-12.6,0.8-18.9c0.2-2.1,0.8-4.2,1.6-6.2
	c1.4-3.7,4.1-6,8.3-6.1c4.3,0,7.6,2,8.8,6c1.4,4.7,3,9.7,3,14.6c0,14-0.8,28-1.2,41.9c-0.3,11.5-0.4,23-0.8,34.4
	c-0.2,4.6,2.1,5.3,6.1,5.3c49-0.2,98-0.4,147-0.1c107.8,0.5,215.6,1.5,323.5,1.6c21.2,0,42.5-2.6,63.7-4.5c10-0.9,11.1-0.3,10,9.6
	c-0.2,2-0.6,3.9-1.1,7.2c12.3,0.5,24.4,1.4,36.4,1.1c5-0.1,10-2.9,15.1-4.3c1.3-0.4,2.8-0.4,4.1,0.1c8.8,4.2,17.3,9.1,26.4,12.8
	c5.1,2.1,10.9,2.5,16.5,3.2c47.4,6.2,95.2,8.1,143,10.3c23.6,1.1,47.2,2.4,70.8,4.1c4,0.3,8,2.4,12,3.7L1601,552z M729,578.5
	c1.9,0.1,3.5,0.3,5.1,0.4c27.8,0.5,55.6,1.5,83.5,1.5c82,0.2,164,0.2,246-0.1c6.7,0,13.3-0.4,18.6,4.9c0.2,0.2,0.9,0,1.4,0
	c-0.2-4.8-0.2-4.8,4.8-4.8h37.5c-0.6,2.3-0.9,3.7-1.5,6.1c2.8-0.6,5-0.9,7.1-1.5c9.1-2.3,18.2-4.5,27.7-4c5.8,0.3,11.6,1.2,17.4,1
	c17.8-0.5,35.6-1.4,53.4-2.2c6.2-0.3,12.4-0.8,18.9-1.3c0-13.1,0-25.6,0-38c0-7.5,0.3-15,0.2-22.5c-0.1-5.4-2.2-7.1-7.2-6.4l2.8,2.3
	c-8.9,2.8-18.2-2.3-27.6,2.4c11.1,2.3,16,9.6,18.5,18.9c0.9,3,1.3,6.2,1.3,9.4c-0.3,15.1-6.9,29.5-28,28.6
	c-20.8-0.8-41.6-0.5-62.5-0.5c-47.3-0.1-94.6,0-142-0.2c-56.3-0.3-112.6-1-169-1.2c-17.5-0.1-35,0.6-52.5,1.2
	c-20.9,0.7-28.6-11.1-31.4-25.4c-2.8-14.5,3.4-31.4,24.5-30c3.8,0.3,7.7,0.3,11.5,0c3.7-0.3,7-1.5,8.1-5.4l-66.6,3.6L729,578.5
	L729,578.5z M1225.8,530.8c-16.3-0.5-32.4-1-48.5-1.4c-2.8-0.1-6-0.6-7.9,2.7c-0.3,0.5-2.3,0.2-3.4,0c-4.5-1-8.9-2.6-13.4-3.1
	c-6.4-0.7-13-0.5-19.4-0.8c-3.5-0.1-7.3-1.6-10.1,2.2c-0.4,0.6-2.1,0.3-3.2,0.2c-6.1-0.6-12.2-1.7-18.3-1.7c-18-0.2-35.9,0.1-53.9,0
	c-3.2,0-6.5-0.6-9.8-1c-0.9,4.8,0.7,7.6,5.1,8.3c2.8,0.4,5.6,0.4,8.4,0.7s5.5,0.8,8.2,1.2c-7.2,5.5-14.3,0-21.6,1
	c0.1,6.7-0.5,13.3,2.4,18.5c2.8-0.8,4.5-1.7,6.2-1.7c23.6,0.5,47.2-1.7,70.8,2c8.8,1.4,17.9,1.1,26.9,1.5
	c23.9,0.9,47.9,2.2,71.5-0.8l-2.6-2.8c1.3-0.7,2.7-2,4.1-2c2.6,0.1,5.1,0.4,7.6,0.9C1231.4,547,1225.9,539.4,1225.8,530.8
	L1225.8,530.8z M767,552.7h40.2l-4.1,4.8H815c-0.2-1.9-0.3-3.4-0.4-5.5c26,1.2,51.8-2,77.2,1.6c-0.4,1.8-0.6,2.8-0.9,4.1h8.9
	c0-1,0-1.8,0-2.6s-0.2-1.7-0.4-2.7c4.6-0.2,3.4,2.7,3.8,5c0.3,1.4,1.8,2.6,2.8,3.9c1-1.2,2.3-2.3,2.8-3.7s0.1-3.2,0.1-4.8l1.6-0.2
	c0.6,1.5,1.3,2.9,1.7,4.4c1.8,5.9,3.3,6.3,8.8,3.4c1.8-1,4.3-0.7,5.9-1c1-2.4,2.1-4.7,3.3-6.9c0.3-0.5,2.1-0.1,3.2-0.1l0.4,1.2
	l-4.7,2.2c1.2,1,2.5,1.8,4,2.4c3.8,2.1,6.2,2,6.5-3.2c0.1-1.2,1.6-2.2,3-4.1c0.5,8,0.5,8,9.8,6.4c-2.5-8.3,5-3.8,7.9-6.1
	c0-4.2-0.3-8.7,0.1-13.1c0.5-4.7-1.6-6.4-5.9-6.3c-5.4,0.2-10.8,0.5-16.6,0.7c0.6-2.1,1.1-4.1,1.7-6.5c-1.4-0.2-2.8-0.3-4.2-0.2
	c-1.8,0.2-3.6,0.8-5.4,1.2c1.6,1,3.2,1.9,4.8,2.9c0.2,0.1,0.3,0.5,0.9,1.6c-4.5-2.2-8.4,3.7-12.7-0.3c2.4-1.2,6.5-0.5,4.5-5.1h-8.4
	c-0.1,1.8,0.2,3.5-0.4,4.7c-0.7,1.2-1.7,2.2-3,2.7c-0.9,0-1.8-0.3-2.4-1c0.1-1.2,0.5-2.4,1.2-3.5c0.8-1.1,1.6-2.1,2.6-3H908v5.8
	c-15.6,0.4-30.9,0.8-46.2,1c-2.1,0-4.1-1.3-6.6-2.1l5.5-3.6L860,526h-9c0.3,1.8,0.5,3.3,0.8,5.5c-13.8-1.3-27.2,4-41.5-1.5l4.4-1.8
	l-0.1-1.1l-7.1-1.6v6.3l-31.5-0.9l5.5-3.9l-0.4-1H774c-0.5,5.3-4.3,5.6-8.6,5.5c-1.4,0-3.8,0.9-4,1.8c-1.2,5.1-2.6,10.3-2.4,15.4
	c0.1,2.5,3.8,4.6,5.3,7.2c2.1,3.4,4.8,5.3,9.1,5.1l2.2-7C768.7,555.8,768.7,555.8,767,552.7z M607.7,531.7H448.3v20h73.4
	c-0.2-4.2-0.8-8-0.4-11.7c0.2-1.7,2.1-3.2,3.2-4.8c1.5,1.4,3.4,2.6,4.2,4.3c0.7,1.5,0,3.6-0.1,6.2l-3.1-2.4v8.5H638v-20h-25.7
	c-1.3,6.1,1.7,12.4-1.6,17.8h-1.9C608.3,543.8,608,538,607.7,531.7L607.7,531.7z M396.5,557.7V530h-7.3l2.8,5.1
	c-18.4-1-34-6.9-45.8-22.2c-0.5,13.2-0.5,13.3,10.8,16.9c0.5,0.2,1,0.2,1.5,0.4c4.8,1.9,9.7,3.8,14.5,5.7
	c-10.5,2.5-18.1-4.1-26.5-7.8v40.2l34.4-16.8C384.6,560.4,391.1,556.8,396.5,557.7z M709.6,575v-45.3c-3.6,0.4-6.9,1-10.2,1
	c-3.1,0-6.2-0.8-9.3-1.3l0.2-1.5c6.2-1.9,13.9,3.2,19.7-3.8c-7.2-5.6-15.1,1.7-21.9-1.4L688,521l19.8-1.5c0-0.3-0.1-0.7-0.1-1h-22.2
	V575H709.6z M1001.8,560.3c0,0.5,0,1,0,1.4c6.4-1.2,7.4-2.3,7.2-8.4c-0.1-2.2-0.4-4.3-0.7-6.4c-0.7-6.2-2.9-12.4,1-19.7l-21.7,3.8
	l0.1,1.7l16.6,0.9l-0.1,0.9h-39.9v29.3c3.2-3,9.1,0.9,9.8-6c8,0,16-0.1,23.9,0.1C999.3,558,1000.6,559.5,1001.8,560.3L1001.8,560.3z
	 M1254.4,564.3v11c5.4,0.2,10.6,0.6,15.8,0.4c1.2,0,2.3-1.9,3.4-3c-1-0.6-2.1-1.2-3.2-1.8c-0.8-0.4-1.8-0.6-3.4-1.2l7.3-2.1
	c-0.3-4.5-0.5-8.3-0.8-12.7l-6.7-2l7.6-2.3V524c-16.1-0.8-16.1-0.8-16.1-4.8c-7.7,6-5.4,11.8,8.2,17.9h-11.3c1,6,1.8,11.3,2.7,16.8
	l-4.2,4l9.3,3.2L1254.4,564.3z M667.8,538.8c0.4-5,0.7-9.7,1.1-14.5c-7.2,1.5-14.3,3.7-21.5,4.4c-5,0.5-6,2.5-5.7,6.9
	c0.5,7.2,0.8,14.5,1.2,22.3c7.6-0.2,15.4,1,21.5,7.1c-3.5-0.8-6.9-1.9-10.3-3.2c-5.3-2-6.7-1.7-9,1.4l22.7,8.1v-29.9
	c-6.5-1.6-12.6,4.3-19.1,0.3L667.8,538.8z M713.9,508.1c-0.1,1.1-0.2,1.9-0.2,2.7c-0.2,19.8-0.5,39.6-0.6,59.4c0,2.7,0.3,5.3,1,7.9
	c1.1,4.1,3.8,6.5,9.3,5.7c0.5-6.3,1.5-12.7,1.6-19.1c0.2-16.2-0.2-32.3-0.1-48.5c0-7.7,0.2-7.7-7.5-7.6
	C716.2,508.5,715,508.4,713.9,508.1L713.9,508.1z M1288.1,555.8c3,0.6,5.7,1.7,8.4,1.6c8.6-0.3,17.1-0.8,25.7-1.5
	c2.4-0.2,4.2-1.8,3.6-4.9c-1-5.8-1.8-11.7-2.6-17.3h-34c-0.1,0.5-0.2,1-0.2,1.5c2.1,0.7,4.2,1.8,6.3,1.9c6,0.2,12-0.2,17.9,0.1
	c2.8,0.1,5.5,1.4,8.2,2.2l-0.4,1.6c-1.2,0-2.3,0.1-3.4,0c-6.3-0.6-12.6-1.5-18.8-1.8c-9.6-0.4-10.7,0.7-10.7,9.8V555.8z
	 M1347.5,548.4c11,3.8,55.7,0,62.6-6l-65.1-4.7C1345.8,541.3,1346.7,544.8,1347.5,548.4L1347.5,548.4z M408.3,521
	c-2.8,16.2-6.1,31.7-1.8,47.5C414.3,562.2,415.4,536.7,408.3,521z M1027.7,551.2h-1.7v-15.5c-6.5,5-7.1,17.6-1.6,23l2.8-4l6.9,5.2
	c0.8-8.9,1.5-16.7,2.2-24.5h-8.6L1027.7,551.2z M712.8,653.1c1.5,3.8,2.9,8.2,5,12.1c1,1.8,3.6,3.2,5,0c3.4-7.5,4.1-15.4,0.9-23.1
	c-1.7-4.1-5.4-4.2-7.3-0.2C714.8,645.1,714.2,648.7,712.8,653.1z M713.9,424.2v20.9l6.3,3.2l-2.9,5.6c5.5-1.5,7.6-3.6,7.5-9.6
	c0-6.7-1-13.4-1.5-20.1H713.9z M960.1,520.4h-73.3c4,3.6,7.6,4.8,11.6,4c13.5-2.7,27-2.5,40.6-0.7
	C945.7,524.6,952.8,525.2,960.1,520.4z M1343,533.6l-5.6-1.5l-1,1l4,5.9c-3.9,3.8-7-1.1-10.5-1.5c-2.8,4.7-2.8,4.7,6.8,7.3
	c-1.4,7.8-0.5,10.7,4.7,13.2C1344.8,550,1342,541.8,1343,533.6z M1014.6,563.3c4.1-8.6,4.8-23.5,1.6-29.5
	C1009.4,537.6,1008.3,554.8,1014.6,563.3L1014.6,563.3z M326,534.7c4.1,2.1,9.9-2.7,13.4,4.3h-14c1.3,5.8,4,6.6,15,5.2
	c0-3.5,0.1-7.1-0.1-10.7c-0.2-1.1-0.8-2-1.6-2.6C334.6,528.5,329.2,530.2,326,534.7z M782.5,521.7l0.2,1.5h49.8v-1.5H782.5z
	 M1094,516.1h9c4.8,0,9.6,0.4,14.3-0.1c1.8-0.2,3.5-2.3,5.2-3.5l-0.9-1.3c-0.7,0.2-1.4,0.5-2.2,0.7c-6.8,2.2-13.4,4-20.3-0.7
	C1094.8,508.1,1094.6,512.6,1094,516.1L1094,516.1z M422.9,529.6l-1.7,0.2c-1.7,9.2-2.5,18.3,1.8,27l2.2-0.2
	C424.4,547.6,423.6,538.6,422.9,529.6z M867.5,516.1l0.2-1.1h-47.8v1.1H867.5z M340.2,565.6l-14.7,0.9c0.6,6.1,2.4,6.8,14.7,5.3
	V565.6z M707,579.4c-7,0.8-14.5-4-20.9,2.2C693.3,582.8,700.6,584.7,707,579.4z M1084.1,558.2h-37.7c1.3,1.2,2.9,1.9,4.7,1.9
	c3.1,0,6.3-0.6,9.4-0.4c2.9,0.4,5.7,0.9,8.4,1.7L1084.1,558.2z M340.6,526.9c-0.1-4.8-1.3-6.6-4.8-6.7c-4.5-0.2-8.7,2.7-9.1,5.7
	L340.6,526.9z M724.8,488.4H714c-0.7,7.1,1.5,8.1,10.8,4.7V488.4z M686.4,504.7l0.1,2c14.7,1.6,18.7,1.1,22.3-2.7
	c-3.7,0-7.5-0.1-11.2,0S690.1,504.5,686.4,504.7z M1256.4,579.3c2.1,4.1,7.2,4.7,16.2,1.9C1268.8,577.5,1262.1,576.7,1256.4,579.3
	L1256.4,579.3z M681.3,560.4c-2.7-0.5-4.9-1.3-7.2-1.4c-1.3,0-2.7,1-4,1.6c0.9,1.4,1.5,3.7,2.7,4.1c2.6,0.8,5.4,0.6,8.5,0.8V560.4z
	 M865.2,520.7c8,5.1,16,4.3,17.2,0H865.2z M359.2,510.8c-4.1-4.1-8.6-8.7-12.5-12.6C348.9,507.3,353.5,511.9,359.2,510.8
	L359.2,510.8z M1187.8,582.8v1.3c11.1-0.8,22.3,1.2,33.3-1.3H1187.8z M326.2,586.7c6.6,6.5,12.4,6,13.6,0H326.2z M681.3,569.2
	c-4.2,0.1-8.4-1.5-11.8,4.3l11.8,1.8V569.2z M722.6,486.4c0.5-0.8,1-1.6,1.3-2.5c0.2-1.7,0.3-3.4,0.4-5c-1.6,0.1-3.1,0.3-4.7,0.6
	c-1.9,0.5-3.6,1.3-5.7,2C714.3,487.9,720,483.7,722.6,486.4L722.6,486.4z M363.7,564.4c-8.1-0.1-15.9,6.6-15.3,12.2L363.7,564.4z
	 M340,548.2h-8.7c-2.6,0-5.7-0.9-6,3.6H340V548.2z M325.9,578.6l0.4,1.6h13.9v-4.9C335.5,577.4,329.7,574.2,325.9,578.6L325.9,578.6
	z M428.2,530.2l-3,0.2c0.8,6.3,1.5,12.7,2.3,19l2.3-0.2C429.3,542.9,428.7,536.6,428.2,530.2L428.2,530.2z M326.4,513.7l0.2,1.7
	c3.3,0.8,6.6,1.7,9.9,2.1c1.1,0.2,2.4-0.9,3.6-1.3c-0.7-1.1-1.4-3.2-2.1-3.2C334.1,512.9,330.2,513.4,326.4,513.7z M682.4,552.1
	l-0.9-1.7c-1.6-0.2-3.2-0.2-4.7-0.2c-1.5,0.1-3.1,0.5-4.4,1.3c-0.4,0.3-0.1,3,0.6,3.3c1.4,0.8,3.5,1.4,5,0.9
	C679.6,555.2,680.9,553.4,682.4,552.1z M340.1,558.5H325C332,563.3,338.2,563,340.1,558.5L340.1,558.5z M715.5,600.2l9.2,3.2v-9.6
	l-6,0.3l3,4.9L715.5,600.2z M437.6,537.8c0.2,5.6-3.2,11.6,0.5,18.3c1-5.1,1.7-8.9,2.3-11.6L437.6,537.8z M1172.6,523.5
	c0-0.3,0-0.5,0-0.8h-23.3l0.1,0.8H1172.6z M681.5,543.7c-3.6,0.3-7.8-5.6-11.5,1.2C674.3,545.6,678.1,549.3,681.5,543.7z
	 M853.3,522.9c-4.9-2.3-9.7-4.5-14.5-1.7v1.7H853.3z M713.7,497.9c0.9,2.8,8.5,5.3,11.2,3.8c-0.1-1.2-0.1-2.5-0.2-3.8H713.7z
	 M672.1,579c0,4,2,5.3,5.1,5.1c3-0.2,4.4-1.7,4.2-5.1H672.1z M835.9,554.4h-7.2v5.5C832.6,559.7,836,559.7,835.9,554.4L835.9,554.4z
	 M866.2,554.7l-1-1.4c-1.7,1-4.8,1.9-4.9,3.2c-0.2,1.7,2,5.2,2.8,5.2C868.1,561.1,863.6,556.5,866.2,554.7L866.2,554.7z
	 M857.4,555.8l-1-2.1l-9.7,1.9l3.6,5.3L857.4,555.8z M801.7,554.4l-12,0.8C793.7,560.7,798.8,560.4,801.7,554.4L801.7,554.4z
	 M715.4,631.8l-0.6,2.1c2.3,0.6,4.5,1.6,6.8,1.6c1.3,0,2.5-1.7,3.8-2.7l-0.8-1L715.4,631.8z M339.7,500.9l1.2-1.3
	c-1.4-1.2-2.7-3.4-4.1-3.5c-2.8-0.1-5.7,0.9-8.5,1.4l0.4,1.2L339.7,500.9z M1201.5,523.5v-0.8h-19l0.1,0.8H1201.5z M889.2,554.5
	c-4-0.5-7.4-1.5-9.7,2.9l7,2.6L889.2,554.5z M652.2,523.7l0.7,2.2l13.5-5.9l-0.7-1.7L652.2,523.7z M1011.3,532.4l7.4-3.3
	c-0.2-0.6-0.3-1.2-0.4-1.8l-7-1.8V532.4z M724.8,473.5h-11.7C721,478,722.9,478,724.8,473.5L724.8,473.5z M862.6,527.2l0.6,2.2
	c3-0.4,7,2.5,9.5-4.1L862.6,527.2z M725,608l-0.3-1.6c-2.2-0.7-4.4-1.2-6.7-1.6c-0.9-0.1-1.9,0.8-2.9,1.2c0.7,1,1.4,2.8,2.1,2.8
	C719.8,608.7,722.4,608.4,725,608z M680.9,537c0.1-0.8,0.2-1.6,0.3-2.3c-2.3-0.6-4.6-1-7-1.4c-0.7-0.1-2,0.9-2,1.4
	c-0.1,0.7,0.8,2.1,1.4,2.2C676,537.1,678.4,537.1,680.9,537z M1437.4,542.7c0-0.4,0-0.8,0-1.2h-14.6l0.1,2.1L1437.4,542.7z
	 M723,458.2c-0.9-0.2-1.9-0.2-2.8-0.2c-2.3,0.4-4.5,0.9-6.8,1.4c0.2,0.7,0.4,1.4,0.7,2c2.6-0.4,5.2-0.8,7.8-1.4
	C722.3,460,722.4,459.2,723,458.2z M794.2,527l-9.6-1.6C786.8,530.7,789.2,531.1,794.2,527L794.2,527z M672.2,529l9.5,1.6
	C679.6,524.9,676.1,524.3,672.2,529L672.2,529z M884,526.2c6.1,4.8,8.8,4.6,10.3,0H884z M796.6,526.2c-0.9,4.3,2.2,3.6,4.2,3.4
	c1.2-0.1,2.3-1.4,3.5-2.2c-0.3-0.4-0.5-0.8-0.8-1.2H796.6z M826.3,526.1h-7c-0.2,0.5-0.5,0.9-0.7,1.4c1.2,0.7,2.4,1.9,3.6,2.1
	C824.3,529.8,827.3,530.5,826.3,526.1L826.3,526.1z M830.4,526.1c0.4,3.5,1.4,4.2,5.1,3.4c1-0.2,1.8-1.7,3.5-3.4H830.4z
	 M882.7,526.4h-9.4C878.8,531,882,530.8,882.7,526.4L882.7,526.4z M905.6,526.1h-7.2l-0.8,1.2c1,0.8,2,2.2,3.1,2.2
	C902.8,529.6,906.4,531.1,905.6,526.1L905.6,526.1z M952.8,528.6l-2.3-2.4H942l-0.3,1.6c2.3,0.8,4.6,1.4,6.9,1.9
	C950,529.9,951.4,529,952.8,528.6L952.8,528.6z M840.3,526.1c-1.3,4.3,1.7,3.8,3.8,3.5c1.2-0.2,2.2-1.5,3.3-2.3l-0.9-1.2H840.3z
	 M953.3,526.1c-0.9,3.2,0.7,3.7,3.2,3.6c2.3-0.1,4.6,0,3.2-3.6H953.3z M845.9,555.4l-1.1-1.1h-4.9c0.1,2,0.2,3.7,0.3,5.3l1.3,0.6
	L845.9,555.4z M1257.5,586.6v1h12.5v-1H1257.5z M1333.3,547.3l-1.3-1.2l-4.6,4.7l1,1.1h4.9V547.3z M1327.3,533.6l1.3,1.5l4.6-0.3
	v-4.7l-1.1-1L1327.3,533.6z"/>
<path class="st1" d="M729,578.5v-63.4l66.7-3.6c-1.1,3.9-4.4,5.2-8.1,5.4c-3.8,0.3-7.7,0.3-11.5,0c-21.1-1.4-27.3,15.5-24.5,30
	c2.7,14.3,10.4,26.2,31.4,25.4c17.5-0.6,35-1.3,52.5-1.2c56.3,0.2,112.6,1,169,1.2c47.3,0.2,94.6,0.1,142,0.2
	c20.8,0,41.7-0.3,62.5,0.5c21,0.9,27.7-13.5,28-28.6c0-3.2-0.4-6.3-1.3-9.4c-2.5-9.3-7.4-16.6-18.5-18.9c9.4-4.7,18.6,0.4,27.6-2.4
	l-2.8-2.3c5-0.8,7.2,1,7.2,6.4c0.1,7.5-0.2,15-0.2,22.5c0,12.5,0,24.9,0,38c-6.5,0.5-12.7,1-18.9,1.3c-17.8,0.8-35.6,1.7-53.4,2.2
	c-5.8,0.2-11.6-0.7-17.4-1c-9.5-0.5-18.6,1.7-27.7,4c-2.2,0.5-4.3,0.9-7.1,1.5c0.6-2.4,0.9-3.8,1.5-6.1h-37.5c-4.9,0-4.9,0-4.8,4.8
	c-0.5,0-1.1,0.2-1.4,0c-5.3-5.2-11.9-4.9-18.6-4.9c-82,0.1-164,0.1-246,0.1c-27.8-0.1-55.6-1-83.5-1.5
	C732.5,578.8,730.8,578.6,729,578.5z"/>
<path class="st1" d="M1225.8,530.8c0.1,8.6,5.6,16.3-1,24.3c-2.5-0.5-5.1-0.8-7.6-0.9c-1.3,0-2.7,1.3-4.1,2l2.6,2.8
	c-23.6,2.9-47.6,1.7-71.5,0.8c-9-0.3-18.1-0.1-26.9-1.5c-23.5-3.7-47.2-1.5-70.8-2c-1.7,0-3.4,0.9-6.2,1.7
	c-2.8-5.2-2.2-11.7-2.4-18.5c7.3-1,14.4,4.5,21.6-1c-2.8-0.4-5.5-0.9-8.2-1.2s-5.7-0.3-8.4-0.7c-4.5-0.7-6-3.5-5.1-8.3
	c3.4,0.3,6.6,1,9.8,1c18,0,35.9-0.2,53.9,0c6.1,0.1,12.2,1.2,18.3,1.7c1.1,0.1,2.8,0.3,3.2-0.2c2.8-3.8,6.5-2.4,10.1-2.2
	c6.5,0.2,13,0.1,19.4,0.8c4.5,0.5,8.9,2.1,13.4,3.1c1.1,0.2,3.2,0.5,3.4,0c1.9-3.4,5.1-2.8,7.9-2.7
	C1193.3,529.8,1209.4,530.3,1225.8,530.8z M1081.4,540.2l20-1.3l-0.2-1.6C1094.7,538.4,1087.4,534.3,1081.4,540.2z M1174.9,537.4v1
	h13.8v-1H1174.9z M1119.9,556.3c0,0.3,0,0.7,0,1h12.4v-1H1119.9z"/>
<path class="st1" d="M767,552.7c1.6,3,1.6,3,8.8,1.5l-2.2,7c-4.3,0.2-7-1.7-9.1-5.1c-1.6-2.6-5.2-4.8-5.3-7.2
	c-0.2-5.1,1.2-10.3,2.4-15.4c0.2-0.9,2.6-1.8,4-1.8c4.3,0.1,8.1-0.2,8.6-5.5h7.1l0.4,1l-5.5,3.9l31.5,0.9v-6.4l7.1,1.6l0.1,1.1
	l-4.4,1.8c14.2,5.5,27.7,0.2,41.5,1.5c-0.3-2.2-0.5-3.7-0.8-5.5h9l0.7,1.1l-5.5,3.6c2.5,0.8,4.5,2.1,6.6,2.1
	c15.3-0.2,30.6-0.6,46.2-1v-5.8h9.1c-0.9,0.9-1.8,1.9-2.6,3c-0.6,1.1-1.1,2.2-1.2,3.5c0.6,0.7,1.5,1,2.4,1c1.3-0.6,2.3-1.5,3-2.7
	c0.6-1.3,0.3-2.9,0.4-4.7h8.4c2.1,4.6-2.1,3.8-4.5,5.1c4.3,4,8.2-1.9,12.7,0.3c-0.7-1.2-0.7-1.5-0.9-1.6c-1.6-1-3.2-1.9-4.8-2.9
	c1.8-0.4,3.5-0.9,5.4-1.2c1.4-0.1,2.8,0,4.2,0.2c-0.6,2.3-1.2,4.3-1.7,6.5c5.7-0.3,11.2-0.5,16.6-0.7c4.3-0.1,6.4,1.5,5.9,6.3
	c-0.4,4.4-0.1,8.9-0.1,13.1c-3,2.3-10.5-2.2-7.9,6.1c-9.3,1.6-9.3,1.6-9.8-6.4c-1.4,1.9-2.9,3-3,4.1c-0.3,5.2-2.8,5.3-6.5,3.2
	c-1.5-0.6-2.8-1.4-4-2.4l4.8-2.2l-0.4-1.2c-1.1,0-2.9-0.4-3.2,0.1c-1.2,2.2-2.4,4.5-3.3,6.9c-1.6,0.2-4.1,0-5.9,1
	c-5.5,2.9-7,2.5-8.8-3.4c-0.4-1.5-1.1-2.9-1.7-4.4l-1.6,0.2c0,1.6,0.4,3.4-0.1,4.8s-1.8,2.5-2.8,3.7c-1-1.3-2.5-2.5-2.8-3.9
	c-0.4-2.3,0.8-5.3-3.8-5c0.1,1,0.3,1.9,0.4,2.7s0,1.6,0,2.6h-8.9c0.3-1.2,0.5-2.2,0.9-4.1c-25.4-3.7-51.1-0.4-77.2-1.6
	c0.2,2.1,0.3,3.6,0.4,5.5h-11.8l4.1-4.8L767,552.7z M841.4,546.1l2.1,1.2c1.2-1.6,3.1-3.1,3.3-4.8s-1.3-3.6-2.1-5.4l-2,0.4
	L841.4,546.1z M924.7,537c-2.1,3.2-3,6-0.2,8.7c0.4,0.4,2.5-0.1,2.7-0.6C928.5,542,929,539,924.7,537L924.7,537z M801.7,537.4
	l-1.3-0.8c-1.1,1.8-3.1,3.5-3.2,5.4c-0.1,1.5,2.1,3.1,3.3,4.6l1.2-0.8V537.4z M781.6,539.2c0.5,3.4,0.2,7,5.1,7.1v-7.1H781.6z
	 M831.8,537.7l-1.6-1c-0.7,1.4-1.9,2.9-1.8,4.3s1.3,2.9,2.1,4.3l1.4-0.7v-6.9H831.8z M919,559.4l1.5-0.7c0.6-6.1,0.6-6.1-4.3-6.3
	C917.4,555,918.2,557.2,919,559.4L919,559.4z"/>
<path class="st1" d="M607.7,531.7c0.3,6.3,0.6,12.1,0.9,17.9h1.9c3.3-5.4,0.2-11.7,1.6-17.8h25.7v19.9H525.4v-8.5l3.1,2.4
	c0.1-2.6,0.8-4.8,0.1-6.2c-0.8-1.7-2.8-2.9-4.2-4.3c-1.1,1.6-3.1,3.1-3.2,4.8c-0.3,3.7,0.2,7.5,0.4,11.7h-73.4v-20L607.7,531.7z
	 M514.1,533.7c-4.6,3.4-3.3,7-1.1,10.5l-7.2,1.2c4.8,1.8,9.2,3,11.6-0.5C520.1,540.9,516.9,537.2,514.1,533.7L514.1,533.7z
	 M604.1,537.3c-4.5-0.8-7.3,0.4-7,4.8c0.1,1.6,2.4,4.4,3.2,4.2C605.7,545.4,603.8,541,604.1,537.3L604.1,537.3z"/>
<path class="st1" d="M396.5,557.7c-5.4-0.8-12,2.7-15.5-6.2l-34.4,16.8v-40.2c8.4,3.7,16,10.2,26.5,7.8c-4.8-1.9-9.6-3.8-14.5-5.7
	c-0.5-0.2-1-0.2-1.5-0.4c-11.3-3.6-11.3-3.6-10.8-16.9c11.8,15.3,27.4,21.2,45.8,22.2l-2.8-5.1h7.3L396.5,557.7z"/>
<path class="st1" d="M709.6,575h-24.1v-56.5h22.2c0,0.3,0.1,0.7,0.1,1L688,521l0.1,1.7c6.8,3.1,14.7-4.2,21.9,1.4
	c-5.8,7.1-13.4,2-19.7,3.8l-0.2,1.5c3.1,0.5,6.2,1.2,9.3,1.3c3.3,0,6.6-0.6,10.2-1V575z"/>
<path class="st1" d="M1001.8,560.3c-1.3-0.8-2.5-2.3-3.8-2.3c-8-0.2-16-0.1-23.9-0.1c-0.7,6.9-6.6,3-9.8,6v-29.3h39.9l0.1-0.9
	l-16.6-0.9l-0.1-1.7l21.7-3.8c-3.9,7.2-1.7,13.4-1,19.7c0.2,2.1,0.6,4.3,0.7,6.4c0.2,6.1-0.8,7.2-7.2,8.4
	C1001.8,561.2,1001.8,560.8,1001.8,560.3z M999.8,553.8l-0.1-1.4h-26.3v1.2C982.2,554.1,991,556.7,999.8,553.8L999.8,553.8z"/>
<path class="st1" d="M1254.4,564.3l8.7-3.2l-9.3-3.2l4.2-4c-0.9-5.5-1.8-10.7-2.7-16.8h11.3c-13.6-6.1-15.9-11.9-8.2-17.9
	c0,4,0,4,16.1,4.8v26.6l-7.6,2.3l6.7,2.1c0.3,4.4,0.5,8.2,0.8,12.7l-7.3,2.1c1.7,0.6,2.6,0.8,3.4,1.2c1.1,0.5,2.1,1.2,3.2,1.8
	c-1.1,1-2.2,2.9-3.4,3c-5.2,0.2-10.4-0.2-15.8-0.4L1254.4,564.3z"/>
<path class="st1" d="M667.8,538.8l-19,2.8c6.5,4,12.6-1.9,19.1-0.3v29.9l-22.7-8.1c2.3-3.1,3.7-3.3,9-1.4c3.3,1.3,6.8,2.4,10.3,3.2
	c-6.2-6.1-14-7.3-21.5-7.1c-0.4-7.7-0.6-15-1.2-22.3c-0.3-4.3,0.7-6.4,5.7-6.9c7.2-0.7,14.2-2.9,21.5-4.4
	C668.5,529.1,668.2,533.8,667.8,538.8z M663.5,555.9l0.4-2.1l-12.7-2l-0.2,1.4L663.5,555.9z"/>
<path class="st1" d="M713.9,508.1c1.1,0.3,2.3,0.4,3.5,0.5c7.6-0.1,7.5-0.1,7.5,7.6c0,16.2,0.3,32.3,0.1,48.5
	c-0.1,6.4-1,12.8-1.6,19.1c-5.5,0.9-8.1-1.5-9.3-5.7c-0.7-2.6-1-5.2-1-7.9c0.1-19.8,0.4-39.6,0.6-59.5
	C713.7,510,713.8,509.2,713.9,508.1z"/>
<path class="st1" d="M1288.1,555.8V549c0-9.1,1-10.2,10.7-9.8c6.3,0.3,12.6,1.2,18.8,1.8c1.1,0.1,2.3,0,3.4,0l0.4-1.6
	c-2.7-0.8-5.4-2.1-8.2-2.2c-6-0.3-12,0.2-17.9-0.1c-2.1-0.1-4.2-1.2-6.3-1.9c0.1-0.5,0.2-1,0.2-1.5h34c0.8,5.6,1.6,11.4,2.6,17.3
	c0.5,3.1-1.2,4.7-3.6,4.9c-8.5,0.8-17.1,1.3-25.7,1.5C1293.8,557.5,1291.1,556.5,1288.1,555.8z"/>
<path class="st1" d="M1347.5,548.4c-0.9-3.6-1.7-7-2.6-10.7l65.2,4.7C1403.2,548.4,1358.5,552.2,1347.5,548.4z"/>
<path class="st1" d="M408.3,521c7.1,15.7,6,41.2-1.8,47.5C402.2,552.7,405.5,537.2,408.3,521z"/>
<path class="st1" d="M1027.7,551.2v-15.7h8.6c-0.7,7.8-1.4,15.6-2.2,24.5l-6.9-5.2l-2.8,4c-5.5-5.5-5-18,1.6-23v15.5L1027.7,551.2z"
	/>
<path class="st1" d="M712.8,653.1c1.3-4.4,2-8,3.6-11.2c2-4,5.6-3.8,7.3,0.2c3.2,7.7,2.5,15.6-0.9,23.1c-1.4,3.1-4.1,1.8-5,0
	C715.7,661.3,714.4,656.9,712.8,653.1z"/>
<path class="st1" d="M713.9,424.2h9.3c0.6,6.7,1.5,13.4,1.5,20.1c0,6-2.1,8.1-7.5,9.6l2.9-5.6l-6.3-3.2L713.9,424.2L713.9,424.2z"/>
<path class="st1" d="M960.1,520.4c-7.3,4.8-14.4,4.2-21.1,3.3c-13.6-1.8-27.1-2-40.6,0.7c-4,0.8-7.7-0.5-11.6-4H960.1z"/>
<path class="st1" d="M1343,533.6c-1,8.2,1.9,16.3-1.7,24.2c-5.2-2.5-6.1-5.3-4.7-13.2c-9.5-2.5-9.5-2.5-6.8-7.3
	c3.5,0.4,6.6,5.3,10.5,1.5l-4-5.9l1-1L1343,533.6z"/>
<path class="st1" d="M1014.5,563.3c-6.2-8.5-5.1-25.7,1.6-29.5C1019.3,539.8,1018.6,554.7,1014.5,563.3z"/>
<path class="st1" d="M326,534.7c3.1-4.6,8.5-6.2,12.6-3.8c0.9,0.6,1.5,1.5,1.6,2.6c0.2,3.6,0.1,7.2,0.1,10.7
	c-11,1.5-13.7,0.6-15-5.2h14.1C335.9,532.1,330.2,536.8,326,534.7z"/>
<path class="st1" d="M782.5,521.7h50.1v1.5h-49.8L782.5,521.7z"/>
<path class="st1" d="M1094.1,516.1c0.6-3.5,0.7-7.9,5.1-5c6.9,4.7,13.5,3,20.3,0.7c0.7-0.2,1.4-0.5,2.2-0.7l0.9,1.3
	c-1.7,1.2-3.3,3.3-5.2,3.5c-4.7,0.5-9.5,0.1-14.3,0.1L1094.1,516.1z"/>
<path class="st1" d="M422.9,529.6c0.8,9,1.5,18,2.3,27l-2.2,0.2c-4.3-8.7-3.5-17.8-1.8-27L422.9,529.6z"/>
<path class="st1" d="M867.5,516h-47.7v-1.1h47.8L867.5,516z"/>
<path class="st1" d="M340.2,565.6v6.1c-12.3,1.5-14.1,0.8-14.7-5.3L340.2,565.6z"/>
<path class="st1" d="M707,579.4c-6.5,5.3-13.7,3.3-20.9,2.2C692.5,575.4,700.1,580.2,707,579.4z"/>
<path class="st1" d="M1084.1,558.2l-15.1,3.3c-2.8-0.8-5.6-1.3-8.4-1.7c-3.1-0.2-6.3,0.4-9.4,0.4c-1.8,0-3.5-0.7-4.7-1.9
	L1084.1,558.2z"/>
<path class="st1" d="M340.6,526.9l-13.9-1c0.4-3,4.5-5.9,9.1-5.7C339.2,520.3,340.5,522.1,340.6,526.9z"/>
<path class="st1" d="M724.8,488.4v4.7c-9.3,3.4-11.4,2.4-10.8-4.7H724.8z"/>
<path class="st1" d="M686.4,504.7c3.7-0.2,7.5-0.6,11.2-0.7s7.5,0,11.2,0c-3.6,3.8-7.6,4.3-22.3,2.7L686.4,504.7z"/>
<path class="st1" d="M1256.4,579.3c5.7-2.6,12.5-1.8,16.2,1.9C1263.6,584,1258.5,583.4,1256.4,579.3z"/>
<path class="st1" d="M681.3,560.4v5.1c-3-0.2-5.9,0-8.5-0.8c-1.2-0.4-1.8-2.7-2.7-4.1c1.3-0.6,2.7-1.6,4-1.6
	C676.4,559.1,678.7,559.9,681.3,560.4z"/>
<path class="st1" d="M865.2,520.7h17.2C881.2,525,873.2,525.8,865.2,520.7z"/>
<path class="st1" d="M359.1,510.8c-5.6,1.1-10.3-3.5-12.5-12.6C350.6,502.1,355,506.6,359.1,510.8z"/>
<path class="st1" d="M1187.8,582.8h33.4c-11,2.6-22.2,0.6-33.3,1.3L1187.8,582.8z"/>
<path class="st1" d="M326.1,586.7h13.6C338.5,592.7,332.7,593.2,326.1,586.7z"/>
<path class="st1" d="M681.3,569.2v6l-11.8-1.8C672.9,567.7,677.1,569.3,681.3,569.2z"/>
<path class="st1" d="M722.6,486.4c-2.6-2.6-8.3,1.5-8.7-4.9c2-0.8,3.8-1.5,5.7-2c1.5-0.3,3.1-0.5,4.7-0.6c-0.1,1.7-0.2,3.4-0.4,5
	C723.6,484.7,723.2,485.6,722.6,486.4z"/>
<path class="st1" d="M363.7,564.3l-15.3,12.2C347.8,570.9,355.6,564.2,363.7,564.3z"/>
<path class="st1" d="M340,548.2v3.6h-14.7c0.2-4.6,3.4-3.7,6-3.6H340z"/>
<path class="st1" d="M325.9,578.6c3.8-4.3,9.7-1.2,14.3-3.3v4.9h-13.9L325.9,578.6z"/>
<path class="st1" d="M428.2,530.2c0.6,6.3,1.1,12.7,1.7,19l-2.3,0.2c-0.8-6.3-1.5-12.7-2.3-19L428.2,530.2z"/>
<path class="st1" d="M326.4,513.7c3.9-0.3,7.7-0.7,11.6-0.7c0.7,0,1.4,2.1,2.1,3.2c-1.2,0.5-2.5,1.5-3.6,1.3
	c-3.3-0.5-6.6-1.4-9.9-2.1L326.4,513.7z"/>
<path class="st1" d="M682.4,552.1c-1.5,1.3-2.8,3.1-4.4,3.7c-1.4,0.5-3.5-0.1-5-0.9c-0.7-0.4-1-3.1-0.6-3.3c1.3-0.8,2.9-1.2,4.4-1.3
	c1.6-0.1,3.2,0,4.7,0.2L682.4,552.1z"/>
<path class="st1" d="M340.1,558.5c-2,4.5-8.1,4.8-15.1,0H340.1z"/>
<path class="st1" d="M715.5,600.2l6.2-1.3l-3-4.9l6-0.3v9.6L715.5,600.2z"/>
<path class="st1" d="M437.6,537.8l2.8,6.7c-0.5,2.7-1.3,6.5-2.3,11.6C434.4,549.3,437.8,543.4,437.6,537.8z"/>
<path class="st1" d="M1172.6,523.5h-23.2l-0.1-0.8h23.3C1172.6,523,1172.6,523.2,1172.6,523.5z"/>
<path class="st1" d="M681.5,543.7c-3.4,5.6-7.2,1.9-11.5,1.2C673.7,538.1,677.9,544,681.5,543.7z"/>
<path class="st1" d="M853.3,522.8h-14.5v-1.7C843.6,518.4,848.4,520.6,853.3,522.8z"/>
<path class="st1" d="M713.7,497.9h11c0.1,1.3,0.2,2.6,0.2,3.8C722.3,503.1,714.6,500.7,713.7,497.9z"/>
<path class="st1" d="M672.1,579h9.3c0.3,3.4-1.2,4.9-4.2,5.1C674.1,584.2,672.1,583,672.1,579z"/>
<path class="st1" d="M835.9,554.4c0.1,5.3-3.4,5.3-7.2,5.5v-5.5H835.9z"/>
<path class="st1" d="M866.2,554.6c-2.7,1.8,1.8,6.5-3.1,6.9c-0.9,0.1-3-3.5-2.8-5.2c0.1-1.2,3.2-2.1,4.9-3.2L866.2,554.6z"/>
<path class="st1" d="M857.4,555.7l-7.1,5.3l-3.6-5.3l9.7-1.9L857.4,555.7z"/>
<path class="st1" d="M801.7,554.4c-2.9,6-8,6.3-12,0.8L801.7,554.4z"/>
<path class="st1" d="M715.4,631.8h9.2l0.8,1c-1.3,1-2.5,2.7-3.8,2.7c-2.2,0-4.5-1-6.8-1.6L715.4,631.8z"/>
<path class="st1" d="M339.7,500.9l-11-2.2l-0.4-1.2c2.9-0.5,5.7-1.5,8.5-1.4c1.4,0.1,2.7,2.2,4.1,3.5L339.7,500.9z"/>
<path class="st1" d="M1201.5,523.5h-18.8l-0.1-0.8h19L1201.5,523.5z"/>
<path class="st1" d="M889.2,554.5l-2.7,5.5l-7-2.6C881.8,553,885.2,554,889.2,554.5z"/>
<path class="st1" d="M652.2,523.7l13.6-5.4l0.7,1.7l-13.5,5.9L652.2,523.7z"/>
<path class="st1" d="M1011.3,532.4v-6.9l7,1.8c0.1,0.6,0.3,1.2,0.4,1.8L1011.3,532.4z"/>
<path class="st1" d="M724.8,473.5c-2,4.5-3.9,4.6-11.7,0H724.8z"/>
<path class="st1" d="M862.6,527.2l10.1-1.9c-2.4,6.6-6.5,3.7-9.5,4.1L862.6,527.2z"/>
<path class="st1" d="M725,608c-2.6,0.4-5.2,0.7-7.8,0.7c-0.7,0-1.4-1.8-2.1-2.8c1-0.4,2-1.3,2.9-1.2c2.3,0.4,4.5,1,6.7,1.6L725,608z
	"/>
<path class="st1" d="M680.9,537c-2.5,0.1-4.9,0.1-7.4-0.1c-0.6-0.1-1.4-1.5-1.4-2.2c0-0.6,1.4-1.5,2-1.4c2.4,0.3,4.7,0.8,7,1.4
	C681.1,535.4,681,536.2,680.9,537z"/>
<path class="st1" d="M1437.4,542.6l-14.5,0.9l-0.1-2.1h14.6C1437.4,541.8,1437.4,542.2,1437.4,542.6z"/>
<path class="st1" d="M723,458.2c-0.6,1.1-0.7,1.8-1,1.8c-2.6,0.6-5.2,1-7.8,1.4c-0.3-0.7-0.5-1.3-0.7-2c2.2-0.5,4.5-1,6.8-1.4
	C721.1,458,722.1,458,723,458.2z"/>
<path class="st1" d="M794.2,527c-5.1,4-7.4,3.6-9.6-1.6L794.2,527z"/>
<path class="st1" d="M672.2,529c3.8-4.7,7.3-4.2,9.5,1.6L672.2,529z"/>
<path class="st1" d="M884,526.2h10.3C892.9,530.8,890.2,531,884,526.2z"/>
<path class="st1" d="M796.7,526.2h6.8c0.3,0.4,0.5,0.8,0.8,1.2c-1.2,0.8-2.2,2-3.5,2.2C798.8,529.8,795.8,530.5,796.7,526.2z"/>
<path class="st1" d="M826.4,526.1c0.9,4.4-2.1,3.7-4.1,3.4c-1.3-0.2-2.4-1.3-3.6-2.1c0.2-0.5,0.5-0.9,0.7-1.4L826.4,526.1
	L826.4,526.1z"/>
<path class="st1" d="M830.5,526.2h8.6c-1.7,1.7-2.4,3.2-3.5,3.4C831.9,530.4,830.9,529.6,830.5,526.2z"/>
<path class="st1" d="M882.8,526.5c-0.8,4.3-4,4.6-9.4,0H882.8z"/>
<path class="st1" d="M905.7,526.1c0.7,5-2.8,3.5-4.9,3.4c-1,0-2.1-1.4-3.1-2.2l0.8-1.2H905.7z"/>
<path class="st1" d="M952.8,528.7c-1.4,0.4-2.9,1.2-4.2,1.1c-2.3-0.5-4.6-1.1-6.9-1.9l0.3-1.6h8.4L952.8,528.7z"/>
<path class="st1" d="M840.3,526.1h6.3l0.9,1.2c-1.1,0.8-2.2,2.1-3.3,2.3C842,529.9,839,530.4,840.3,526.1z"/>
<path class="st1" d="M953.3,526.1h6.4c1.4,3.6-0.8,3.5-3.2,3.6C954,529.8,952.4,529.3,953.3,526.1z"/>
<path class="st1" d="M845.9,555.4l-4.4,4.9l-1.3-0.6c-0.1-1.7-0.2-3.3-0.3-5.3h4.9L845.9,555.4z"/>
<path class="st1" d="M1257.5,586.6h12.5v1h-12.5V586.6z"/>
<path class="st1" d="M1333.3,547.3v4.5h-4.9l-1-1.1l4.6-4.7L1333.3,547.3z"/>
<path class="st1" d="M1327.3,533.6l4.8-4.4l1.1,1v4.7l-4.6,0.3L1327.3,533.6z"/>
<path class="st0" d="M1081.4,540.2c6-5.9,13.3-1.8,19.9-2.9l0.2,1.6L1081.4,540.2z"/>
<path class="st0" d="M1174.9,537.4h13.8v1h-13.8V537.4z"/>
<path class="st0" d="M1119.9,556.3h12.4v1h-12.4C1119.9,557,1119.9,556.6,1119.9,556.3z"/>
<path class="st0" d="M841.5,546.1l1.4-8.7l2-0.4c0.8,1.8,2.3,3.7,2.1,5.4s-2.2,3.2-3.3,4.8L841.5,546.1z"/>
<path class="st0" d="M924.8,537c4.3,2,3.8,5,2.5,8c-0.2,0.5-2.3,1-2.7,0.6C921.8,543,922.7,540.1,924.8,537z"/>
<path class="st0" d="M801.8,537.4v8.5l-1.2,0.8c-1.2-1.5-3.3-3.1-3.3-4.6c0.1-1.8,2-3.6,3.2-5.4L801.8,537.4z"/>
<path class="st0" d="M781.7,539.2h5.1v7.1C781.8,546.2,782.2,542.6,781.7,539.2z"/>
<path class="st0" d="M831.9,537.7v6.8l-1.4,0.7c-0.7-1.4-2-2.8-2.1-4.3s1.2-2.8,1.8-4.3L831.9,537.7z"/>
<path class="st0" d="M919.1,559.4c-0.9-2.2-1.8-4.4-2.8-7c4.9,0.2,4.9,0.2,4.3,6.3L919.1,559.4z"/>
<path class="st0" d="M514,533.7c2.8,3.5,6.1,7.2,3.3,11.2c-2.4,3.5-6.8,2.3-11.6,0.5l7.2-1.2C510.7,540.7,509.5,537.1,514,533.7z"/>
<path class="st0" d="M604.1,537.3c-0.3,3.8,1.6,8.1-3.8,9c-0.9,0.2-3.1-2.7-3.2-4.2C596.8,537.7,599.6,536.5,604.1,537.3z"/>
<path class="st0" d="M999.8,553.8c-8.8,2.8-17.6,0.3-26.4-0.2v-1.2h26.3L999.8,553.8z"/>
<path class="st0" d="M663.5,555.9l-12.5-2.8l0.2-1.4l12.7,2L663.5,555.9z"/>
</svg>
